<svg width="131" height="56" viewBox="0 0 131 56" fill="none" xmlns="http://www.w3.org/2000/svg">
    <rect width="131" height="56" rx="12" fill="#000"/>
    <path d="M49.376 33L48.6514 30.6211H45.0078L44.2832 33H42L45.5273 22.9648H48.1182L51.6592 33H49.376ZM48.1455 28.8438C47.4756 26.6882 47.0973 25.4691 47.0107 25.1865C46.9287 24.904 46.8695 24.6807 46.833 24.5166C46.6826 25.0999 46.252 26.5423 45.541 28.8438H48.1455ZM55.1797 33.1367C54.2819 33.1367 53.5755 32.7881 53.0605 32.0908C52.5501 31.3936 52.2949 30.4274 52.2949 29.1924C52.2949 27.9391 52.5547 26.9639 53.0742 26.2666C53.5983 25.5648 54.3184 25.2139 55.2344 25.2139C56.196 25.2139 56.9297 25.5876 57.4355 26.335H57.5039C57.3991 25.7653 57.3467 25.2572 57.3467 24.8105V22.3633H59.4385V33H57.8389L57.4355 32.0088H57.3467C56.8727 32.7607 56.1504 33.1367 55.1797 33.1367ZM55.9111 31.4756C56.4443 31.4756 56.834 31.3206 57.0801 31.0107C57.3307 30.7008 57.4674 30.1745 57.4902 29.4316V29.2061C57.4902 28.3857 57.3626 27.7979 57.1074 27.4424C56.8568 27.0869 56.4466 26.9092 55.877 26.9092C55.4121 26.9092 55.0498 27.1074 54.79 27.5039C54.5348 27.8958 54.4072 28.4678 54.4072 29.2197C54.4072 29.9717 54.5371 30.5368 54.7969 30.915C55.0566 31.2887 55.4281 31.4756 55.9111 31.4756ZM64.0391 33.1367C63.1413 33.1367 62.4349 32.7881 61.9199 32.0908C61.4095 31.3936 61.1543 30.4274 61.1543 29.1924C61.1543 27.9391 61.4141 26.9639 61.9336 26.2666C62.4577 25.5648 63.1777 25.2139 64.0938 25.2139C65.0553 25.2139 65.7891 25.5876 66.2949 26.335H66.3633C66.2585 25.7653 66.2061 25.2572 66.2061 24.8105V22.3633H68.2979V33H66.6982L66.2949 32.0088H66.2061C65.7321 32.7607 65.0098 33.1367 64.0391 33.1367ZM64.7705 31.4756C65.3037 31.4756 65.6934 31.3206 65.9395 31.0107C66.1901 30.7008 66.3268 30.1745 66.3496 29.4316V29.2061C66.3496 28.3857 66.222 27.7979 65.9668 27.4424C65.7161 27.0869 65.306 26.9092 64.7363 26.9092C64.2715 26.9092 63.9092 27.1074 63.6494 27.5039C63.3942 27.8958 63.2666 28.4678 63.2666 29.2197C63.2666 29.9717 63.3965 30.5368 63.6562 30.915C63.916 31.2887 64.2874 31.4756 64.7705 31.4756ZM83.1455 33H80.4521L76.1045 25.4395H76.043C76.1296 26.7747 76.1729 27.7272 76.1729 28.2969V33H74.2793V23.0059H76.9521L81.293 30.4912H81.3408C81.2725 29.1924 81.2383 28.2741 81.2383 27.7363V23.0059H83.1455V33ZM88.6689 26.6973C88.2269 26.6973 87.8805 26.8385 87.6299 27.1211C87.3792 27.3991 87.2357 27.7956 87.1992 28.3105H90.125C90.1159 27.7956 89.9814 27.3991 89.7217 27.1211C89.4619 26.8385 89.111 26.6973 88.6689 26.6973ZM88.9629 33.1367C87.7324 33.1367 86.7708 32.7972 86.0781 32.1182C85.3854 31.4391 85.0391 30.4775 85.0391 29.2334C85.0391 27.9528 85.3581 26.9639 85.9961 26.2666C86.6387 25.5648 87.5251 25.2139 88.6553 25.2139C89.7354 25.2139 90.5762 25.5215 91.1777 26.1367C91.7793 26.752 92.0801 27.6019 92.0801 28.6865V29.6982H87.1514C87.1742 30.2907 87.3496 30.7533 87.6777 31.0859C88.0059 31.4186 88.4661 31.585 89.0586 31.585C89.5189 31.585 89.9541 31.5371 90.3643 31.4414C90.7744 31.3457 91.2028 31.193 91.6494 30.9834V32.5967C91.2848 32.779 90.8952 32.9134 90.4805 33C90.0658 33.0911 89.5599 33.1367 88.9629 33.1367ZM99.9209 33L99.333 30.3271L98.5537 26.9502H98.4922L97.0977 33H94.8555L92.6816 25.3574H94.7598L95.6416 28.7412C95.7419 29.1423 95.8809 29.9785 96.0586 31.25H96.1133C96.1315 30.9036 96.2113 30.3545 96.3525 29.6025L96.4619 29.0215L97.4053 25.3574H99.7021L100.598 29.0215C100.652 29.2721 100.718 29.6413 100.796 30.1289C100.878 30.612 100.924 30.9857 100.933 31.25H100.987C101.037 30.8444 101.108 30.3841 101.199 29.8691C101.29 29.3496 101.368 28.9736 101.432 28.7412L102.348 25.3574H104.392L102.19 33H99.9209Z" fill="#f00"/>
    <path d="M33 27H29V23C29 22.7348 28.8946 22.4804 28.7071 22.2929C28.5196 22.1054 28.2652 22 28 22C27.7348 22 27.4804 22.1054 27.2929 22.2929C27.1054 22.4804 27 22.7348 27 23V27H23C22.7348 27 22.4804 27.1054 22.2929 27.2929C22.1054 27.4804 22 27.7348 22 28C22 28.2652 22.1054 28.5196 22.2929 28.7071C22.4804 28.8946 22.7348 29 23 29H27V33C27 33.2652 27.1054 33.5196 27.2929 33.7071C27.4804 33.8946 27.7348 34 28 34C28.2652 34 28.5196 33.8946 28.7071 33.7071C28.8946 33.5196 29 33.2652 29 33V29H33C33.2652 29 33.5196 28.8946 33.7071 28.7071C33.8946 28.5196 34 28.2652 34 28C34 27.7348 33.8946 27.4804 33.7071 27.2929C33.5196 27.1054 33.2652 27 33 27Z" fill="#f00"/>
</svg>