<svg width="160" height="56" viewBox="0 0 160 56" fill="none" xmlns="http://www.w3.org/2000/svg">
    <rect width="160" height="56" rx="12" fill="#000"/>
    <path d="M46.378 33L45.65 30.62H42.01L41.282 33H39L42.528 22.962H45.118L48.66 33H46.378ZM44.418 26.518C44.3713 26.3593 44.3107 26.1587 44.236 25.916C44.1613 25.6733 44.0867 25.426 44.012 25.174C43.9373 24.922 43.8767 24.7027 43.83 24.516C43.7833 24.7027 43.718 24.936 43.634 25.216C43.5593 25.4867 43.4847 25.748 43.41 26C43.3447 26.2427 43.2933 26.4153 43.256 26.518L42.542 28.842H45.146L44.418 26.518ZM52.18 33.14C51.3307 33.14 50.6353 32.8087 50.094 32.146C49.562 31.474 49.296 30.4893 49.296 29.192C49.296 27.8853 49.5667 26.896 50.108 26.224C50.6493 25.552 51.3587 25.216 52.236 25.216C52.6 25.216 52.922 25.2673 53.202 25.37C53.482 25.4633 53.72 25.594 53.916 25.762C54.1213 25.93 54.294 26.1213 54.434 26.336H54.504C54.476 26.1867 54.4433 25.972 54.406 25.692C54.3687 25.4027 54.35 25.1087 54.35 24.81V22.36H56.436V33H54.84L54.434 32.006H54.35C54.2193 32.2113 54.0513 32.4027 53.846 32.58C53.65 32.748 53.4167 32.8833 53.146 32.986C52.8753 33.0887 52.5533 33.14 52.18 33.14ZM52.908 31.474C53.4867 31.474 53.8927 31.306 54.126 30.97C54.3593 30.6247 54.4807 30.1113 54.49 29.43V29.206C54.49 28.4593 54.3733 27.89 54.14 27.498C53.916 27.106 53.496 26.91 52.88 26.91C52.4227 26.91 52.0633 27.1107 51.802 27.512C51.5407 27.904 51.41 28.4733 51.41 29.22C51.41 29.9667 51.5407 30.5313 51.802 30.914C52.0633 31.2873 52.432 31.474 52.908 31.474ZM61.0394 33.14C60.1901 33.14 59.4947 32.8087 58.9534 32.146C58.4214 31.474 58.1554 30.4893 58.1554 29.192C58.1554 27.8853 58.4261 26.896 58.9674 26.224C59.5087 25.552 60.2181 25.216 61.0954 25.216C61.4594 25.216 61.7814 25.2673 62.0614 25.37C62.3414 25.4633 62.5794 25.594 62.7754 25.762C62.9807 25.93 63.1534 26.1213 63.2934 26.336H63.3634C63.3354 26.1867 63.3027 25.972 63.2654 25.692C63.2281 25.4027 63.2094 25.1087 63.2094 24.81V22.36H65.2954V33H63.6994L63.2934 32.006H63.2094C63.0787 32.2113 62.9107 32.4027 62.7054 32.58C62.5094 32.748 62.2761 32.8833 62.0054 32.986C61.7347 33.0887 61.4127 33.14 61.0394 33.14ZM61.7674 31.474C62.3461 31.474 62.7521 31.306 62.9854 30.97C63.2187 30.6247 63.3401 30.1113 63.3494 29.43V29.206C63.3494 28.4593 63.2327 27.89 62.9994 27.498C62.7754 27.106 62.3554 26.91 61.7394 26.91C61.2821 26.91 60.9227 27.1107 60.6614 27.512C60.4001 27.904 60.2694 28.4733 60.2694 29.22C60.2694 29.9667 60.4001 30.5313 60.6614 30.914C60.9227 31.2873 61.2914 31.474 61.7674 31.474ZM75.5095 33L73.1015 25.16H73.0455C73.0548 25.3467 73.0688 25.6267 73.0875 26C73.1062 26.3733 73.1248 26.7747 73.1435 27.204C73.1622 27.624 73.1715 28.0067 73.1715 28.352V33H71.2815V23.004H74.1655L76.5315 30.648H76.5735L79.0795 23.004H81.9635V33H79.9895V28.268C79.9895 27.9507 79.9942 27.5867 80.0035 27.176C80.0222 26.7653 80.0362 26.378 80.0455 26.014C80.0642 25.6407 80.0782 25.3607 80.0875 25.174H80.0315L77.4555 33H75.5095ZM87.4705 25.216C88.1798 25.216 88.7865 25.3513 89.2905 25.622C89.8038 25.8927 90.2005 26.2847 90.4805 26.798C90.7605 27.3113 90.9005 27.9413 90.9005 28.688V29.696H85.9725C85.9912 30.284 86.1638 30.746 86.4905 31.082C86.8265 31.418 87.2885 31.586 87.8765 31.586C88.3712 31.586 88.8192 31.5393 89.2205 31.446C89.6218 31.3433 90.0372 31.1893 90.4665 30.984V32.594C90.0932 32.7807 89.6965 32.916 89.2765 33C88.8658 33.0933 88.3665 33.14 87.7785 33.14C87.0132 33.14 86.3365 33 85.7485 32.72C85.1605 32.4307 84.6985 31.9967 84.3625 31.418C84.0265 30.8393 83.8585 30.1113 83.8585 29.234C83.8585 28.338 84.0078 27.596 84.3065 27.008C84.6145 26.4107 85.0392 25.9627 85.5805 25.664C86.1218 25.3653 86.7518 25.216 87.4705 25.216ZM87.4845 26.7C87.0832 26.7 86.7472 26.8307 86.4765 27.092C86.2152 27.3533 86.0612 27.7593 86.0145 28.31H88.9405C88.9405 28.002 88.8845 27.7267 88.7725 27.484C88.6698 27.2413 88.5112 27.05 88.2965 26.91C88.0818 26.77 87.8112 26.7 87.4845 26.7ZM95.014 33.14C94.1647 33.14 93.4693 32.8087 92.928 32.146C92.396 31.474 92.13 30.4893 92.13 29.192C92.13 27.8853 92.4007 26.896 92.942 26.224C93.4833 25.552 94.1927 25.216 95.07 25.216C95.434 25.216 95.756 25.2673 96.036 25.37C96.316 25.4633 96.554 25.594 96.75 25.762C96.9553 25.93 97.128 26.1213 97.268 26.336H97.338C97.31 26.1867 97.2773 25.972 97.24 25.692C97.2027 25.4027 97.184 25.1087 97.184 24.81V22.36H99.27V33H97.674L97.268 32.006H97.184C97.0533 32.2113 96.8853 32.4027 96.68 32.58C96.484 32.748 96.2507 32.8833 95.98 32.986C95.7093 33.0887 95.3873 33.14 95.014 33.14ZM95.742 31.474C96.3207 31.474 96.7267 31.306 96.96 30.97C97.1933 30.6247 97.3147 30.1113 97.324 29.43V29.206C97.324 28.4593 97.2073 27.89 96.974 27.498C96.75 27.106 96.33 26.91 95.714 26.91C95.2567 26.91 94.8973 27.1107 94.636 27.512C94.3747 27.904 94.244 28.4733 94.244 29.22C94.244 29.9667 94.3747 30.5313 94.636 30.914C94.8973 31.2873 95.266 31.474 95.742 31.474ZM103.537 25.356V33H101.451V25.356H103.537ZM102.501 22.36C102.809 22.36 103.075 22.4347 103.299 22.584C103.523 22.724 103.635 22.99 103.635 23.382C103.635 23.7647 103.523 24.0307 103.299 24.18C103.075 24.3293 102.809 24.404 102.501 24.404C102.184 24.404 101.913 24.3293 101.689 24.18C101.475 24.0307 101.367 23.7647 101.367 23.382C101.367 22.99 101.475 22.724 101.689 22.584C101.913 22.4347 102.184 22.36 102.501 22.36ZM108.825 33.14C108.069 33.14 107.425 33.0047 106.893 32.734C106.361 32.454 105.955 32.0247 105.675 31.446C105.395 30.8673 105.255 30.1253 105.255 29.22C105.255 28.2867 105.414 27.526 105.731 26.938C106.048 26.35 106.487 25.916 107.047 25.636C107.616 25.356 108.27 25.216 109.007 25.216C109.53 25.216 109.982 25.2673 110.365 25.37C110.757 25.4727 111.098 25.594 111.387 25.734L110.771 27.344C110.444 27.2133 110.136 27.106 109.847 27.022C109.567 26.938 109.287 26.896 109.007 26.896C108.643 26.896 108.34 26.9847 108.097 27.162C107.854 27.33 107.672 27.5867 107.551 27.932C107.439 28.268 107.383 28.6927 107.383 29.206C107.383 29.71 107.444 30.13 107.565 30.466C107.696 30.7927 107.882 31.04 108.125 31.208C108.368 31.3667 108.662 31.446 109.007 31.446C109.446 31.446 109.833 31.39 110.169 31.278C110.505 31.1567 110.832 30.9933 111.149 30.788V32.566C110.832 32.7713 110.496 32.916 110.141 33C109.796 33.0933 109.357 33.14 108.825 33.14ZM116.044 25.202C117.071 25.202 117.855 25.426 118.396 25.874C118.947 26.3127 119.222 26.9893 119.222 27.904V33H117.766L117.36 31.964H117.304C117.09 32.2347 116.866 32.4587 116.632 32.636C116.408 32.8133 116.147 32.9393 115.848 33.014C115.559 33.098 115.2 33.14 114.77 33.14C114.322 33.14 113.916 33.056 113.552 32.888C113.198 32.7107 112.918 32.4447 112.712 32.09C112.507 31.726 112.404 31.2687 112.404 30.718C112.404 29.906 112.689 29.3087 113.258 28.926C113.828 28.534 114.682 28.3193 115.82 28.282L117.15 28.24V27.904C117.15 27.5027 117.043 27.2087 116.828 27.022C116.623 26.8353 116.334 26.742 115.96 26.742C115.587 26.742 115.223 26.798 114.868 26.91C114.514 27.0127 114.159 27.1433 113.804 27.302L113.118 25.888C113.529 25.6733 113.982 25.5053 114.476 25.384C114.98 25.2627 115.503 25.202 116.044 25.202ZM116.338 29.486C115.666 29.5047 115.2 29.626 114.938 29.85C114.677 30.074 114.546 30.368 114.546 30.732C114.546 31.0493 114.64 31.278 114.826 31.418C115.013 31.5487 115.256 31.614 115.554 31.614C116.002 31.614 116.38 31.4833 116.688 31.222C116.996 30.9513 117.15 30.5733 117.15 30.088V29.458L116.338 29.486ZM124.578 31.474C124.811 31.474 125.035 31.4507 125.25 31.404C125.464 31.3573 125.679 31.3013 125.894 31.236V32.79C125.67 32.8833 125.39 32.9627 125.054 33.028C124.727 33.1027 124.368 33.14 123.976 33.14C123.518 33.14 123.108 33.0653 122.744 32.916C122.389 32.7667 122.104 32.51 121.89 32.146C121.684 31.7727 121.582 31.2593 121.582 30.606V26.924H120.588V26.042L121.736 25.342L122.338 23.732H123.668V25.356H125.81V26.924H123.668V30.606C123.668 30.8953 123.752 31.1147 123.92 31.264C124.088 31.404 124.307 31.474 124.578 31.474ZM129.514 25.356V33H127.428V25.356H129.514ZM128.478 22.36C128.786 22.36 129.052 22.4347 129.276 22.584C129.5 22.724 129.612 22.99 129.612 23.382C129.612 23.7647 129.5 24.0307 129.276 24.18C129.052 24.3293 128.786 24.404 128.478 24.404C128.161 24.404 127.89 24.3293 127.666 24.18C127.451 24.0307 127.344 23.7647 127.344 23.382C127.344 22.99 127.451 22.724 127.666 22.584C127.89 22.4347 128.161 22.36 128.478 22.36ZM138.638 29.164C138.638 29.7987 138.549 30.3633 138.372 30.858C138.204 31.3527 137.956 31.7727 137.63 32.118C137.312 32.454 136.925 32.7107 136.468 32.888C136.01 33.056 135.492 33.14 134.914 33.14C134.382 33.14 133.887 33.056 133.43 32.888C132.982 32.7107 132.594 32.454 132.268 32.118C131.941 31.7727 131.684 31.3527 131.498 30.858C131.32 30.3633 131.232 29.7987 131.232 29.164C131.232 28.3147 131.381 27.6007 131.68 27.022C131.978 26.434 132.408 25.986 132.968 25.678C133.528 25.37 134.19 25.216 134.956 25.216C135.674 25.216 136.309 25.37 136.86 25.678C137.41 25.986 137.844 26.434 138.162 27.022C138.479 27.6007 138.638 28.3147 138.638 29.164ZM133.36 29.164C133.36 29.668 133.411 30.0927 133.514 30.438C133.626 30.774 133.798 31.0307 134.032 31.208C134.265 31.376 134.568 31.46 134.942 31.46C135.315 31.46 135.614 31.376 135.838 31.208C136.071 31.0307 136.239 30.774 136.342 30.438C136.454 30.0927 136.51 29.668 136.51 29.164C136.51 28.66 136.454 28.24 136.342 27.904C136.239 27.568 136.071 27.316 135.838 27.148C135.604 26.98 135.301 26.896 134.928 26.896C134.377 26.896 133.976 27.0873 133.724 27.47C133.481 27.8433 133.36 28.408 133.36 29.164ZM144.702 25.216C145.523 25.216 146.181 25.44 146.676 25.888C147.17 26.3267 147.418 27.036 147.418 28.016V33H145.332V28.534C145.332 27.9833 145.234 27.5727 145.038 27.302C144.842 27.022 144.529 26.882 144.1 26.882C143.465 26.882 143.031 27.1013 142.798 27.54C142.564 27.9693 142.448 28.59 142.448 29.402V33H140.362V25.356H141.958L142.238 26.336H142.35C142.518 26.0747 142.723 25.8647 142.966 25.706C143.208 25.538 143.479 25.4167 143.778 25.342C144.076 25.258 144.384 25.216 144.702 25.216Z" fill="#f00"/>
    <path d="M30 27H26V23C26 22.7348 25.8946 22.4804 25.7071 22.2929C25.5196 22.1054 25.2652 22 25 22C24.7348 22 24.4804 22.1054 24.2929 22.2929C24.1054 22.4804 24 22.7348 24 23V27H20C19.7348 27 19.4804 27.1054 19.2929 27.2929C19.1054 27.4804 19 27.7348 19 28C19 28.2652 19.1054 28.5196 19.2929 28.7071C19.4804 28.8946 19.7348 29 20 29H24V33C24 33.2652 24.1054 33.5196 24.2929 33.7071C24.4804 33.8946 24.7348 34 25 34C25.2652 34 25.5196 33.8946 25.7071 33.7071C25.8946 33.5196 26 33.2652 26 33V29H30C30.2652 29 30.5196 28.8946 30.7071 28.7071C30.8946 28.5196 31 28.2652 31 28C31 27.7348 30.8946 27.4804 30.7071 27.2929C30.5196 27.1054 30.2652 27 30 27Z" fill="#f00"/>
</svg>