<svg width="48" height="48" viewBox="0 0 48 48" fill="none" xmlns="http://www.w3.org/2000/svg">
    <circle cx="24" cy="24" r="24" fill="#f00"/>
    <g clip-path="url(#clip0_757_21981)">
        <path d="M29.2298 24.0426C28.7686 23.8234 28.298 23.6345 27.8192 23.4763C29.37 22.3123 30.375 20.4588 30.375 18.375C30.375 14.8598 27.5152 12 24 12C20.4848 12 17.625 14.8598 17.625 18.375C17.625 20.4611 18.6322 22.3164 20.1859 23.4802C18.7624 23.9489 17.4267 24.6781 16.2576 25.6397C14.114 27.403 12.6235 29.8625 12.0608 32.5651C11.8845 33.412 12.0957 34.2818 12.6403 34.9515C13.1823 35.6178 13.9858 36 14.845 36H26.3906C26.9084 36 27.3281 35.5803 27.3281 35.0625C27.3281 34.5447 26.9084 34.125 26.3906 34.125H14.845C14.4447 34.125 14.2033 33.9016 14.095 33.7685C13.908 33.5385 13.8357 33.2393 13.8965 32.9473C14.8693 28.2741 18.9913 24.8603 23.7515 24.7452C23.8339 24.7484 23.9167 24.75 24 24.75C24.084 24.75 24.1677 24.7484 24.2509 24.7451C25.7097 24.7793 27.1127 25.1123 28.4249 25.7361C28.8926 25.9583 29.4518 25.7595 29.6741 25.2918C29.8963 24.8242 29.6975 24.2649 29.2298 24.0426ZM24.2286 22.8692C24.1526 22.8679 24.0763 22.8672 24 22.8672C23.9243 22.8672 23.8487 22.8679 23.7731 22.8693C21.3968 22.7508 19.5 20.7802 19.5 18.375C19.5 15.8937 21.5187 13.875 24 13.875C26.4813 13.875 28.5 15.8937 28.5 18.375C28.5 20.7796 26.6041 22.7498 24.2286 22.8692Z" fill="#000"/>
        <path d="M35.0625 30.6094H32.4844V28.0312C32.4844 27.5135 32.0647 27.0938 31.5469 27.0938C31.0291 27.0938 30.6094 27.5135 30.6094 28.0312V30.6094H28.0312C27.5135 30.6094 27.0938 31.0291 27.0938 31.5469C27.0938 32.0647 27.5135 32.4844 28.0312 32.4844H30.6094V35.0625C30.6094 35.5803 31.0291 36 31.5469 36C32.0647 36 32.4844 35.5803 32.4844 35.0625V32.4844H35.0625C35.5803 32.4844 36 32.0647 36 31.5469C36 31.0291 35.5803 30.6094 35.0625 30.6094Z" fill="#000"/>
    </g>
    <defs>
        <clipPath id="clip0_757_21981">
            <rect width="24" height="24" fill="white" transform="translate(12 12)"/>
        </clipPath>
    </defs>
</svg>