<svg width="18" height="18" viewBox="0 0 18 18" fill="none" xmlns="http://www.w3.org/2000/svg">
<mask id="mask0_3420_6143" style="mask-type:alpha" maskUnits="userSpaceOnUse" x="0" y="0" width="18" height="18">
<rect width="18" height="18" fill="#D9D9D9"/>
</mask>
<g mask="url(#mask0_3420_6143)">
<path d="M8.64037 10.6305L6.27703 8.26716C6.24443 8.23456 6.21875 8.19816 6.2 8.15796C6.18125 8.11774 6.17188 8.07466 6.17188 8.02871C6.17188 7.93681 6.20295 7.85697 6.2651 7.78918C6.32724 7.72139 6.40914 7.6875 6.51082 7.6875H11.4896C11.5913 7.6875 11.6732 7.72172 11.7353 7.79016C11.7975 7.85861 11.8286 7.93846 11.8286 8.02971C11.8286 8.05253 11.7935 8.13173 11.7233 8.26731L9.36007 10.6305C9.30574 10.6848 9.24959 10.7245 9.1916 10.7495C9.1336 10.7745 9.06981 10.787 9.00022 10.787C8.93063 10.787 8.86684 10.7745 8.80884 10.7495C8.75085 10.7245 8.69469 10.6848 8.64037 10.6305Z" fill="#1C1B1F"/>
</g>
</svg>
