<svg width="24" height="24" viewBox="0 0 24 24" fill="none" xmlns="http://www.w3.org/2000/svg">
    <g id="arrow_back">
        <mask id="mask0_653_16131" style="mask-type:alpha" maskUnits="userSpaceOnUse" x="0" y="0" width="24" height="24">
            <rect id="Bounding box" width="24" height="24" fill="#fff"/>
        </mask>
        <g mask="url(#mask0_653_16131)">
            <path id="arrow_back_2" d="M7.3711 12.7501L12.5403 17.9193C12.6891 18.068 12.7625 18.2421 12.7605 18.4414C12.7586 18.6408 12.6801 18.818 12.5249 18.9732C12.3698 19.118 12.1942 19.193 11.9981 19.1982C11.8019 19.2033 11.6263 19.1283 11.4712 18.9732L5.13078 12.6328C5.03719 12.5392 4.97117 12.4405 4.9327 12.3366C4.89423 12.2328 4.875 12.1206 4.875 12.0001C4.875 11.8796 4.89423 11.7674 4.9327 11.6636C4.97117 11.5597 5.03719 11.461 5.13078 11.3674L11.4712 5.02706C11.6096 4.88859 11.7811 4.81776 11.9855 4.81456C12.19 4.81136 12.3698 4.88219 12.5249 5.02706C12.6801 5.18217 12.7576 5.36037 12.7576 5.56166C12.7576 5.76294 12.6801 5.94114 12.5249 6.09626L7.3711 11.2501H18.748C18.9608 11.2501 19.139 11.3219 19.2826 11.4655C19.4262 11.6091 19.498 11.7873 19.498 12.0001C19.498 12.2129 19.4262 12.3911 19.2826 12.5347C19.139 12.6783 18.9608 12.7501 18.748 12.7501H7.3711Z" fill="#000"/>
        </g>
    </g>
</svg>