<svg width="40" height="40" viewBox="0 0 40 40" fill="none" xmlns="http://www.w3.org/2000/svg">
<g clip-path="url(#clip0_12042_11625)">
<circle cx="20" cy="20" r="20" fill="#F9F9FF"/>
<g clip-path="url(#clip1_12042_11625)">
<path d="M31.2575 24.2002L28.6575 14.8292C28.1023 12.8246 26.8925 11.0633 25.2207 9.82566C23.549 8.588 21.5113 7.9451 19.4319 7.99926C17.3526 8.05342 15.3511 8.80153 13.746 10.1245C12.141 11.4475 11.0245 13.2694 10.5745 15.3002L8.56345 24.3502C8.46614 24.7886 8.46852 25.2433 8.5704 25.6807C8.67228 26.1181 8.87106 26.5271 9.15209 26.8774C9.43311 27.2277 9.7892 27.5105 10.1941 27.7048C10.599 27.8991 11.0423 28.0001 11.4915 28.0002H15.0985C15.328 29.1305 15.9412 30.1466 16.8342 30.8766C17.7272 31.6065 18.8451 32.0052 19.9985 32.0052C21.1518 32.0052 22.2697 31.6065 23.1627 30.8766C24.0557 30.1466 24.6689 29.1305 24.8985 28.0002H28.3685C28.8306 28 29.2864 27.893 29.7003 27.6876C30.1143 27.4823 30.4752 27.184 30.755 26.8162C31.0347 26.4484 31.2257 26.0209 31.313 25.5672C31.4004 25.1134 31.3807 24.6455 31.2575 24.2002ZM19.9985 30.0002C19.3802 29.9976 18.7778 29.8041 18.2738 29.4461C17.7697 29.0881 17.3885 28.5831 17.1825 28.0002H22.8145C22.6084 28.5831 22.2272 29.0881 21.7231 29.4461C21.2191 29.8041 20.6167 29.9976 19.9985 30.0002ZM29.1635 25.6052C29.0702 25.7289 28.9492 25.829 28.8103 25.8976C28.6714 25.9662 28.5184 26.0013 28.3635 26.0002H11.4915C11.3417 26.0001 11.1939 25.9665 11.0589 25.9017C10.9239 25.8369 10.8052 25.7426 10.7115 25.6258C10.6178 25.509 10.5516 25.3726 10.5176 25.2268C10.4837 25.0809 10.483 24.9293 10.5155 24.7832L12.5265 15.7332C12.8808 14.1394 13.7578 12.7098 15.0179 11.6716C16.2781 10.6335 17.8491 10.0463 19.4812 10.0036C21.1134 9.96083 22.713 10.4649 24.0258 11.4356C25.3385 12.4064 26.2891 13.7881 26.7265 15.3612L29.3265 24.7322C29.3689 24.8804 29.3763 25.0364 29.348 25.1879C29.3197 25.3394 29.2565 25.4823 29.1635 25.6052Z" fill="#4F3A34"/>
</g>
</g>
<defs>
<clipPath id="clip0_12042_11625">
<rect width="40" height="40" fill="white"/>
</clipPath>
<clipPath id="clip1_12042_11625">
<rect width="24" height="24" fill="white" transform="translate(8 8)"/>
</clipPath>
</defs>
</svg>
