<svg width="131" height="56" viewBox="0 0 131 56" fill="none" xmlns="http://www.w3.org/2000/svg">
    <rect width="131" height="56" rx="12" fill="#000"/>
    <path d="M43.2578 23.0059H46.3682C47.7855 23.0059 48.8132 23.2087 49.4512 23.6143C50.0938 24.0153 50.415 24.6556 50.415 25.5352C50.415 26.1322 50.2738 26.6221 49.9912 27.0049C49.7132 27.3877 49.3418 27.6178 48.877 27.6953V27.7637C49.5104 27.9049 49.9661 28.1693 50.2441 28.5566C50.5267 28.944 50.668 29.459 50.668 30.1016C50.668 31.013 50.3376 31.724 49.6768 32.2344C49.0205 32.7448 48.1273 33 46.9971 33H43.2578V23.0059ZM45.377 26.9639H46.6074C47.1816 26.9639 47.5964 26.875 47.8516 26.6973C48.1113 26.5195 48.2412 26.2256 48.2412 25.8154C48.2412 25.4326 48.0999 25.1592 47.8174 24.9951C47.5394 24.8265 47.0973 24.7422 46.4912 24.7422H45.377V26.9639ZM45.377 28.6455V31.25H46.7578C47.3411 31.25 47.7718 31.1383 48.0498 30.915C48.3278 30.6917 48.4668 30.3499 48.4668 29.8896C48.4668 29.0602 47.8743 28.6455 46.6895 28.6455H45.377ZM54.1611 29.165C54.1611 29.9215 54.2842 30.4935 54.5303 30.8809C54.7809 31.2682 55.1865 31.4619 55.7471 31.4619C56.3031 31.4619 56.7018 31.2705 56.9434 30.8877C57.1895 30.5003 57.3125 29.9261 57.3125 29.165C57.3125 28.4085 57.1895 27.8411 56.9434 27.4629C56.6973 27.0846 56.2939 26.8955 55.7334 26.8955C55.1774 26.8955 54.7764 27.0846 54.5303 27.4629C54.2842 27.8366 54.1611 28.404 54.1611 29.165ZM59.4453 29.165C59.4453 30.4092 59.1172 31.3822 58.4609 32.084C57.8047 32.7858 56.891 33.1367 55.7197 33.1367C54.986 33.1367 54.3389 32.9772 53.7783 32.6582C53.2178 32.3346 52.7871 31.8721 52.4863 31.2705C52.1855 30.6689 52.0352 29.9671 52.0352 29.165C52.0352 27.9163 52.361 26.9456 53.0127 26.2529C53.6644 25.5602 54.5804 25.2139 55.7607 25.2139C56.4945 25.2139 57.1416 25.3734 57.7021 25.6924C58.2627 26.0114 58.6934 26.4694 58.9941 27.0664C59.2949 27.6634 59.4453 28.363 59.4453 29.165ZM62.8291 29.165C62.8291 29.9215 62.9521 30.4935 63.1982 30.8809C63.4489 31.2682 63.8545 31.4619 64.415 31.4619C64.971 31.4619 65.3698 31.2705 65.6113 30.8877C65.8574 30.5003 65.9805 29.9261 65.9805 29.165C65.9805 28.4085 65.8574 27.8411 65.6113 27.4629C65.3652 27.0846 64.9619 26.8955 64.4014 26.8955C63.8454 26.8955 63.4443 27.0846 63.1982 27.4629C62.9521 27.8366 62.8291 28.404 62.8291 29.165ZM68.1133 29.165C68.1133 30.4092 67.7852 31.3822 67.1289 32.084C66.4727 32.7858 65.5589 33.1367 64.3877 33.1367C63.654 33.1367 63.0068 32.9772 62.4463 32.6582C61.8857 32.3346 61.4551 31.8721 61.1543 31.2705C60.8535 30.6689 60.7031 29.9671 60.7031 29.165C60.7031 27.9163 61.029 26.9456 61.6807 26.2529C62.3324 25.5602 63.2484 25.2139 64.4287 25.2139C65.1624 25.2139 65.8096 25.3734 66.3701 25.6924C66.9307 26.0114 67.3613 26.4694 67.6621 27.0664C67.9629 27.6634 68.1133 28.363 68.1133 29.165ZM71.8389 28.8438L72.748 27.6816L74.8877 25.3574H77.2393L74.2041 28.6729L77.4238 33H75.0176L72.8164 29.9033L71.9209 30.6211V33H69.8359V22.3633H71.9209V27.1074L71.8115 28.8438H71.8389ZM91.1846 33H88.4912L84.1436 25.4395H84.082C84.1686 26.7747 84.2119 27.7272 84.2119 28.2969V33H82.3184V23.0059H84.9912L89.332 30.4912H89.3799C89.3115 29.1924 89.2773 28.2741 89.2773 27.7363V23.0059H91.1846V33ZM96.708 26.6973C96.266 26.6973 95.9196 26.8385 95.6689 27.1211C95.4183 27.3991 95.2747 27.7956 95.2383 28.3105H98.1641C98.1549 27.7956 98.0205 27.3991 97.7607 27.1211C97.501 26.8385 97.1501 26.6973 96.708 26.6973ZM97.002 33.1367C95.7715 33.1367 94.8099 32.7972 94.1172 32.1182C93.4245 31.4391 93.0781 30.4775 93.0781 29.2334C93.0781 27.9528 93.3971 26.9639 94.0352 26.2666C94.6777 25.5648 95.5641 25.2139 96.6943 25.2139C97.7744 25.2139 98.6152 25.5215 99.2168 26.1367C99.8184 26.752 100.119 27.6019 100.119 28.6865V29.6982H95.1904C95.2132 30.2907 95.3887 30.7533 95.7168 31.0859C96.0449 31.4186 96.5052 31.585 97.0977 31.585C97.5579 31.585 97.9932 31.5371 98.4033 31.4414C98.8135 31.3457 99.2419 31.193 99.6885 30.9834V32.5967C99.3239 32.779 98.9342 32.9134 98.5195 33C98.1048 33.0911 97.599 33.1367 97.002 33.1367ZM107.96 33L107.372 30.3271L106.593 26.9502H106.531L105.137 33H102.895L100.721 25.3574H102.799L103.681 28.7412C103.781 29.1423 103.92 29.9785 104.098 31.25H104.152C104.171 30.9036 104.25 30.3545 104.392 29.6025L104.501 29.0215L105.444 25.3574H107.741L108.637 29.0215C108.691 29.2721 108.757 29.6413 108.835 30.1289C108.917 30.612 108.963 30.9857 108.972 31.25H109.026C109.076 30.8444 109.147 30.3841 109.238 29.8691C109.329 29.3496 109.407 28.9736 109.471 28.7412L110.387 25.3574H112.431L110.229 33H107.96Z" fill="#f00"/>
    <path d="M33 27H29V23C29 22.7348 28.8946 22.4804 28.7071 22.2929C28.5196 22.1054 28.2652 22 28 22C27.7348 22 27.4804 22.1054 27.2929 22.2929C27.1054 22.4804 27 22.7348 27 23V27H23C22.7348 27 22.4804 27.1054 22.2929 27.2929C22.1054 27.4804 22 27.7348 22 28C22 28.2652 22.1054 28.5196 22.2929 28.7071C22.4804 28.8946 22.7348 29 23 29H27V33C27 33.2652 27.1054 33.5196 27.2929 33.7071C27.4804 33.8946 27.7348 34 28 34C28.2652 34 28.5196 33.8946 28.7071 33.7071C28.8946 33.5196 29 33.2652 29 33V29H33C33.2652 29 33.5196 28.8946 33.7071 28.7071C33.8946 28.5196 34 28.2652 34 28C34 27.7348 33.8946 27.4804 33.7071 27.2929C33.5196 27.1054 33.2652 27 33 27Z" fill="#f00"/>
</svg>