<svg width="83" height="53" viewBox="0 0 83 53" fill="none" xmlns="http://www.w3.org/2000/svg">
    <path d="M42.2354 52.9887C34.1458 52.9887 26.0584 52.998 17.9688 52.9795C16.4995 52.9749 15.0215 52.9263 13.561 52.767C11.2037 52.5106 9.0634 51.5658 7.13804 50.1221C4.04166 47.8006 1.78736 44.7978 0.684336 40.924C0.0988324 38.8682 -0.116072 36.7639 0.0593602 34.618C0.546184 28.6746 3.1645 24.0409 7.83757 20.7192C10.4098 18.8898 13.2803 17.9011 16.3965 17.7579C16.8548 17.7371 16.8416 17.7371 16.835 17.222C16.7934 14.1267 17.5039 11.2393 19.0016 8.56444C20.8151 5.32825 23.2822 2.87513 26.6022 1.41988C28.6372 0.528252 30.7621 0.0547199 32.955 0.00390182C35.7861 -0.0607758 38.4504 0.680707 40.946 2.07358C41.3911 2.32306 41.7222 2.33692 42.1784 2.07358C43.7024 1.19813 45.3296 0.59293 47.0444 0.274162C48.7351 -0.0376766 50.4259 -0.0307469 52.1275 0.193315C54.4959 0.505153 56.7217 1.24433 58.7128 2.63258C62.6666 5.39293 65.1731 9.21122 66.0217 14.1591C66.2016 15.2124 66.2038 16.298 66.2673 17.3721C66.2827 17.6309 66.3178 17.7533 66.6051 17.7718C72.2233 18.1252 76.6705 20.7215 79.9379 25.5492C81.5431 27.9192 82.6395 30.534 82.8961 33.4353C83.4531 39.7691 81.815 45.2482 76.9051 49.3021C74.8197 51.023 72.4842 52.2519 69.844 52.7161C68.8769 52.8871 67.8857 52.9841 66.9055 52.9864C58.6837 53.0072 50.464 52.998 42.2422 52.998C42.2396 52.998 42.2376 52.9959 42.2376 52.9933V52.9909C42.2376 52.9897 42.2366 52.9887 42.2354 52.9887V52.9887ZM41.1609 51.7113V51.7113C41.1609 51.7164 41.165 51.7206 41.1701 51.7206C49.7917 51.7206 58.4155 51.7229 67.0371 51.7183C68.2826 51.7183 69.5238 51.5889 70.7167 51.2055C77.2143 49.115 81.3457 44.0286 81.7865 36.6622C81.9992 33.1188 81.1812 29.8434 79.3173 26.8798C76.2187 21.9504 71.8768 19.3055 66.2498 19.0445C65.4406 19.0076 65.0437 18.5918 65.0525 17.7394C65.0656 16.4274 64.9757 15.1269 64.7257 13.8403C64.217 11.2185 63.0876 8.92248 61.4561 6.88514C58.101 2.69264 53.7262 1.08032 48.6496 1.36444C46.4874 1.48456 44.4502 2.21218 42.5577 3.32787C41.8692 3.73441 41.2508 3.72517 40.5644 3.32787C38.6785 2.23066 36.6545 1.54461 34.5076 1.35751C32.1108 1.14962 29.7731 1.53768 27.5232 2.43393C24.0497 3.81757 21.5432 6.34462 19.7889 9.74943C18.9029 11.4703 18.313 13.2905 18.1661 15.2493C18.1025 16.0925 18.1179 16.9402 18.0981 17.7856C18.0806 18.5248 17.8109 18.8713 17.1289 18.996C16.9491 19.0284 16.7649 19.0214 16.585 19.0468C15.6816 19.1646 14.7606 19.2108 13.8768 19.421C9.76294 20.4097 6.44727 22.7034 4.06798 26.3877C1.36852 30.5664 0.56592 35.1469 1.73254 40.0624C2.56804 43.5851 4.52849 46.3431 7.19505 48.5722C8.99104 50.0736 11.0239 51.0299 13.2891 51.4526C14.8614 51.746 16.4469 51.6975 18.0258 51.7044C25.7359 51.7321 33.4438 51.7183 41.1539 51.7183C41.1578 51.7183 41.1609 51.7152 41.1609 51.7113V51.7113Z" fill="white"/>
    <path d="M40.315 43.6982C40.3153 43.6982 40.3153 43.6986 40.315 43.6986C40.0663 43.7586 39.9241 43.8206 39.7798 43.8206C32.9467 43.8252 26.1136 43.8298 19.2806 43.8137C18.0175 43.8113 16.7478 43.9084 15.4956 43.6127C12.2677 42.8481 9.51998 39.7852 9.00465 36.3642C8.31389 31.7698 11.191 27.4456 15.5241 26.5886C15.9759 26.4985 16.4452 26.487 16.9057 26.4847C19.4889 26.4778 22.0699 26.4847 24.6532 26.4847C25.3308 26.4847 25.3352 26.4801 25.3352 25.7478C25.3352 23.2716 25.3374 20.7954 25.3264 18.3191C25.3176 16.5567 25.7321 14.9259 26.6114 13.4244C28.9535 9.41673 33.8941 8.01692 37.7207 10.2968C39.1702 11.1607 40.2578 12.4034 40.9903 13.9765C41.1504 14.3207 41.2534 14.7341 41.2556 15.1176C41.2754 18.7996 41.2666 22.4816 41.2666 26.1636V26.1636C41.2666 26.3459 41.1176 26.4935 40.9364 26.5136C40.7937 26.5295 40.6548 26.5459 40.5166 26.5701C40.1372 26.6394 39.9092 26.8774 39.8609 27.2862C39.8412 27.4502 39.8215 27.6165 39.8215 27.7829C39.8215 29.349 39.8215 30.9128 39.8215 32.4789C39.8215 33.1488 39.6855 33.2689 39.0408 33.2643C37.6044 33.2527 36.1681 33.2504 34.7317 33.262C33.8919 33.2689 33.6572 33.5322 33.6506 34.4262C33.6463 35.0799 33.6441 35.7359 33.6506 36.3896C33.6594 37.1034 33.8831 37.3367 34.5519 37.339C36.087 37.3436 37.622 37.339 39.1548 37.3413C39.7359 37.3413 39.8127 37.4198 39.8127 38.0227C39.8127 39.4086 39.8149 40.7946 39.8127 42.1782C39.8127 42.7002 39.828 43.2084 40.3148 43.6981C40.3148 43.6981 40.3149 43.6982 40.315 43.6982V43.6982Z" fill="white"/>
    <path d="M42.7737 43.6293C42.7732 43.6293 42.7729 43.6285 42.7734 43.6282C43.3201 43.2425 43.2938 42.6724 43.2916 42.1024C43.285 40.7673 43.2828 39.4345 43.285 38.0993C43.285 37.4364 43.3771 37.3394 43.9999 37.3394C45.4626 37.3394 46.923 37.3486 48.3857 37.3417C49.2519 37.3371 49.4865 37.0807 49.4909 36.1682C49.4953 35.6046 49.4931 35.0387 49.4909 34.4751C49.4865 33.5719 49.1883 33.2439 48.3221 33.2439C46.8967 33.2439 45.4735 33.2716 44.0482 33.2878C43.3837 33.2947 43.2894 33.1954 43.2916 32.4932C43.2916 30.9663 43.296 29.4395 43.296 27.9126C43.296 26.8015 43.0899 26.5775 42.0219 26.5128V26.5128C41.8726 26.503 41.7632 26.3666 41.7632 26.217C41.7632 26.1512 41.7632 26.086 41.7632 26.0208C41.7588 22.6345 41.7566 19.2458 41.75 15.8595C41.75 14.8662 42.0373 13.9723 42.5416 13.143C45.2236 8.74495 50.6488 7.9873 54.4557 11.0803C56.6376 12.852 57.699 15.2543 57.7187 18.1509C57.7362 20.6918 57.7187 23.2327 57.7143 25.7713C57.7143 26.4227 57.7823 26.4966 58.4094 26.4943C60.9422 26.4897 63.4772 26.5036 66.01 26.4735C70.2226 26.4204 73.7904 29.8414 74.104 34.2672C74.4264 38.8154 71.3169 42.9825 67.067 43.6778C66.5407 43.7632 66.0013 43.8118 65.4684 43.8141C58.8415 43.8233 52.2167 43.821 45.5898 43.8233C44.8464 43.8233 44.103 43.8302 43.3618 43.8187C43.1947 43.8166 43.0294 43.7658 42.8626 43.7306C42.8346 43.7247 42.8107 43.7064 42.7984 43.6805L42.7742 43.6296C42.7741 43.6294 42.7739 43.6293 42.7737 43.6293V43.6293Z" fill="white"/>
</svg>