<svg width="40" height="39" viewBox="0 0 40 39" fill="none" xmlns="http://www.w3.org/2000/svg">
<g clip-path="url(#clip0_10906_12836)">
<path d="M4.16664 17.8751V13.0001C4.62664 13.0001 5 12.636 5 12.1875C5 11.739 4.62664 11.375 4.16664 11.375C1.86836 11.375 0 13.1983 0 15.4376V17.0625C0 18.4064 1.12164 19.5 2.5 19.5H4.16664C4.62664 19.5 5 19.136 5 18.6875C5 18.239 4.62664 17.8751 4.16664 17.8751Z" fill="#913393"/>
<path d="M35.8334 11.375C35.3734 11.375 35 11.739 35 12.1875C35 12.636 35.3734 13.0001 35.8334 13.0001V17.8751C35.3734 17.8751 35 18.2391 35 18.6876C35 19.1361 35.3734 19.5 35.8334 19.5H37.5C38.8784 19.5 40 18.4064 40 17.0625V15.4376C40 13.1983 38.1316 11.375 35.8334 11.375Z" fill="#913393"/>
<path d="M14.168 34.125C13.708 34.125 13.3347 34.489 13.3347 34.9375H8.33469C8.33469 34.489 7.96133 34.125 7.50133 34.125C7.04133 34.125 6.66797 34.489 6.66797 34.9375V36.5625C6.66797 37.9064 7.78961 39 9.16797 39H12.5014C13.8798 39 15.0014 37.9064 15.0014 36.5625V34.9375C15.0014 34.489 14.628 34.125 14.168 34.125Z" fill="#913393"/>
<path d="M32.5 34.125C32.04 34.125 31.6666 34.489 31.6666 34.9375H26.6666C26.6666 34.489 26.2933 34.125 25.8333 34.125C25.3733 34.125 25 34.489 25 34.9375V36.5625C25 37.9064 26.1216 39 27.5 39H30.8334C32.2117 39 33.3334 37.9064 33.3334 36.5625V34.9375C33.3334 34.489 32.96 34.125 32.5 34.125Z" fill="#913393"/>
<path d="M32.4987 0H7.49867C5.20031 0 3.33203 1.82325 3.33203 4.06248V31.6875C3.33203 33.9267 5.20039 35.75 7.49867 35.75H32.4987C34.797 35.75 36.6653 33.9267 36.6653 31.6875V4.06248C36.6653 1.82325 34.797 0 32.4987 0ZM10.832 3.25003H29.1654C30.5438 3.25003 31.6654 4.34363 31.6654 5.68753C31.6654 7.03143 30.5438 8.12503 29.1654 8.12503H10.832C9.45367 8.12503 8.33203 7.03143 8.33203 5.68753C8.33203 4.34363 9.45367 3.25003 10.832 3.25003ZM10.832 30.875C9.45367 30.875 8.33203 29.7814 8.33203 28.4375C8.33203 27.0936 9.45367 26 10.832 26C12.2104 26 13.332 27.0936 13.332 28.4375C13.332 29.7814 12.2103 30.875 10.832 30.875ZM29.1653 30.875C27.787 30.875 26.6653 29.7814 26.6653 28.4375C26.6653 27.0936 27.787 26 29.1653 26C30.5437 26 31.6653 27.0936 31.6653 28.4375C31.6653 29.7814 30.5437 30.875 29.1653 30.875ZM33.332 20.3125C33.332 21.6564 32.2104 22.75 30.832 22.75H9.16531C7.78695 22.75 6.66531 21.6564 6.66531 20.3125V12.1875C6.66531 10.8436 7.78695 9.75 9.16531 9.75H30.832C32.2103 9.75 33.332 10.8436 33.332 12.1875V20.3125H33.332Z" fill="#913393"/>
</g>
<defs>
<clipPath id="clip0_10906_12836">
<rect width="40" height="39" fill="white"/>
</clipPath>
</defs>
</svg>
