<svg width="40" height="40" viewBox="0 0 40 40" fill="none" xmlns="http://www.w3.org/2000/svg">
    <g clip-path="url(#clip0_3803_5459)">
        <circle cx="20" cy="20" r="19" fill="#F9F9FF" stroke="black" stroke-width="2"/>
        <path d="M31.943 26.1005C31.8757 25.8463 31.7559 25.609 31.5913 25.404C31.4268 25.199 31.221 25.0308 30.9874 24.9103L26.0828 22.3672C25.687 22.1572 25.229 22.0966 24.7923 22.1964C24.3556 22.2961 23.9693 22.5497 23.7038 22.9107L22.9108 23.9978C22.8701 24.0543 22.8101 24.0939 22.7422 24.1092C22.6743 24.1246 22.6031 24.1146 22.5421 24.0811C21.3759 23.4171 20.3082 22.5931 19.3701 21.6332C18.4108 20.6945 17.5874 19.6262 16.9237 18.4593C16.8903 18.3982 16.8802 18.327 16.8956 18.259C16.9109 18.1911 16.9505 18.1311 17.007 18.0903L18.0894 17.2968C18.4502 17.0312 18.7036 16.6447 18.8033 16.2077C18.903 15.7707 18.8425 15.3124 18.6326 14.9164L16.1069 10.0127C15.9857 9.77866 15.8164 9.57281 15.6103 9.40857C15.4042 9.24434 15.1658 9.12541 14.9107 9.05953C14.6556 8.99365 14.3894 8.9823 14.1296 9.02622C13.8698 9.07015 13.6222 9.16835 13.4028 9.31445L10.3221 11.3775C9.88948 11.6657 9.54018 12.0626 9.30915 12.5284C9.07812 12.9943 8.97348 13.5126 9.00571 14.0317C9.04648 14.9092 9.16457 15.7815 9.35859 16.6383C10.1952 19.8677 12.2134 23.1884 15.0166 25.9973C17.8198 28.8062 21.1424 30.8177 24.3699 31.6469C25.2262 31.841 26.0979 31.9591 26.9749 32H27.1731C27.657 31.9989 28.1333 31.8794 28.5604 31.6519C28.9875 31.4244 29.3524 31.0958 29.6235 30.6947L31.6773 27.6121C31.8256 27.3931 31.9259 27.1452 31.9717 26.8847C32.0174 26.6242 32.0077 26.3569 31.943 26.1005ZM30.357 26.7273L28.3151 29.814C28.1795 30.0142 27.9941 30.1755 27.7771 30.2819C27.5601 30.3884 27.3192 30.4363 27.078 30.421C26.3002 30.385 25.5269 30.2828 24.7664 30.1155C21.8086 29.3458 18.7476 27.4851 16.1426 24.8666C13.5377 22.2481 11.6702 19.1972 10.901 16.2375C10.7323 15.4768 10.6289 14.7029 10.5917 13.9246C10.5758 13.6837 10.6236 13.443 10.73 13.2264C10.8365 13.0099 10.998 12.8251 11.1983 12.6907L14.2791 10.6356C14.326 10.6042 14.3813 10.5876 14.4377 10.588H14.513C14.5521 10.5982 14.5885 10.6165 14.62 10.6418C14.6514 10.6671 14.6771 10.6988 14.6954 10.7348L17.233 15.6424C17.2645 15.7033 17.2735 15.7734 17.2582 15.8402C17.243 15.907 17.2045 15.9663 17.1497 16.0074L16.0673 16.8009C15.7002 17.0742 15.4459 17.4725 15.3524 17.9206C15.2589 18.3687 15.3327 18.8355 15.5598 19.2329C16.2937 20.5165 17.2009 21.6927 18.256 22.7282C19.2908 23.784 20.4662 24.6918 21.7491 25.426C22.1462 25.6533 22.6128 25.7271 23.0606 25.6335C23.5085 25.5399 23.9065 25.2855 24.1796 24.9182L24.9726 23.8311C25.0137 23.7763 25.0729 23.7378 25.1397 23.7226C25.2065 23.7073 25.2765 23.7163 25.3374 23.7478L30.242 26.287C30.2779 26.3058 30.3095 26.3319 30.3346 26.3637C30.3598 26.3954 30.378 26.4322 30.3881 26.4714C30.3982 26.5107 30.3999 26.5516 30.3932 26.5916C30.3865 26.6316 30.3715 26.6697 30.3491 26.7035L30.357 26.7273Z" fill="black"/>
    </g>
    <defs>
        <clipPath id="clip0_3803_5459">
            <rect width="40" height="40" fill="white"/>
        </clipPath>
    </defs>
</svg>