<svg width="35" height="35" viewBox="0 0 35 35" fill="#000" xmlns="http://www.w3.org/2000/svg">
    <path d="M33.0015 31.6279H32.6061V7.51163C32.6061 2.73898 29.8687 0 25.0945 0H9.28052C4.50629 0 1.7689 2.73898 1.7689 7.51163V31.6279H1.37355C1.05899 31.6279 0.757312 31.7529 0.534885 31.9753C0.312458 32.1977 0.1875 32.4994 0.1875 32.814C0.1875 33.1285 0.277573 33.7776 0.5 34C0.722427 34.2224 1.18544 34.5 1.5 34.5H5.1875H9.28052H17H25H29H33.0015C33.316 34.5 33.6802 34.1526 33.8401 34C34 33.8474 34.1875 33.1285 34.1875 32.814C34.1875 32.4994 34.0625 32.1977 33.8401 31.9753C33.6177 31.7529 33.316 31.6279 33.0015 31.6279ZM20.7456 31.6279H13.6294V23.2244C13.6302 23.1466 13.6614 23.0723 13.7164 23.0173C13.7714 22.9623 13.8457 22.9311 13.9235 22.9302H20.4515C20.5293 22.9311 20.6036 22.9623 20.6586 23.0173C20.7136 23.0723 20.7448 23.1466 20.7456 23.2244V31.6279ZM29.5 31.6279H23.1177V23.2244C23.1169 22.5175 22.8357 21.8398 22.3359 21.34C21.8361 20.8402 21.1584 20.559 20.4515 20.5581H13.9235C13.2166 20.559 12.5389 20.8402 12.0391 21.34C11.5393 21.8398 11.2581 22.5175 11.2573 23.2244V31.6279H5.1875V19.5V7.51163C5.5 4 6 3.5 9.28052 3H25.0945C28.5 3.5 29 3.98837 29.5 7.5V19.5V31.6279ZM22.327 11.4651C22.327 11.7797 22.2021 12.0814 21.9797 12.3038C21.7572 12.5262 21.4555 12.6512 21.141 12.6512H18.3735V15.4186C18.3735 15.7332 18.2486 16.0348 18.0262 16.2573C17.8037 16.4797 17.5021 16.6047 17.1875 16.6047C16.8729 16.6047 16.5713 16.4797 16.3488 16.2573C16.1264 16.0348 16.0015 15.7332 16.0015 15.4186V12.6512H13.234C12.9195 12.6512 12.6178 12.5262 12.3954 12.3038C12.1729 12.0814 12.048 11.7797 12.048 11.4651C12.048 11.1506 12.1729 10.8489 12.3954 10.6265C12.6178 10.404 12.9195 10.2791 13.234 10.2791H16.0015V7.51163C16.0015 7.19707 16.1264 6.89539 16.3488 6.67297C16.5713 6.45054 16.8729 6.32558 17.1875 6.32558C17.5021 6.32558 17.8037 6.45054 18.0262 6.67297C18.2486 6.89539 18.3735 7.19707 18.3735 7.51163V10.2791H21.141C21.4555 10.2791 21.7572 10.404 21.9797 10.6265C22.2021 10.8489 22.327 11.1506 22.327 11.4651Z" fill="#000"/>
</svg>