<svg width="34" height="34" viewBox="0 0 34 34" fill="#000" xmlns="http://www.w3.org/2000/svg">
<path d="M32.814 31.6279H32.4186V7.51163C32.4186 2.73898 29.6812 0 24.907 0H9.09302C4.31879 0 1.5814 2.73898 1.5814 7.51163V31.6279H1.18605C0.871487 31.6279 0.569812 31.7529 0.347385 31.9753C0.124958 32.1977 0 32.4994 0 32.814C0 33.1285 0.124958 33.4302 0.347385 33.6526C0.569812 33.875 0.871487 34 1.18605 34H32.814C33.1285 34 33.4302 33.875 33.6526 33.6526C33.875 33.4302 34 33.1285 34 32.814C34 32.4994 33.875 32.1977 33.6526 31.9753C33.4302 31.7529 33.1285 31.6279 32.814 31.6279ZM20.5581 31.6279H13.4419V23.2244C13.4427 23.1466 13.4739 23.0723 13.5289 23.0173C13.5839 22.9623 13.6582 22.9311 13.736 22.9302H20.264C20.3418 22.9311 20.4161 22.9623 20.4711 23.0173C20.5261 23.0723 20.5573 23.1466 20.5581 23.2244V31.6279ZM30.0465 31.6279H22.9302V23.2244C22.9294 22.5175 22.6482 21.8398 22.1484 21.34C21.6486 20.8402 20.9709 20.559 20.264 20.5581H13.736C13.0291 20.559 12.3514 20.8402 11.8516 21.34C11.3518 21.8398 11.0706 22.5175 11.0698 23.2244V31.6279H3.95349V7.51163C3.95349 4.00567 5.58707 2.37209 9.09302 2.37209H24.907C28.4129 2.37209 30.0465 4.00567 30.0465 7.51163V31.6279ZM22.1395 11.4651C22.1395 11.7797 22.0146 12.0814 21.7922 12.3038C21.5697 12.5262 21.268 12.6512 20.9535 12.6512H18.186V15.4186C18.186 15.7332 18.0611 16.0348 17.8387 16.2573C17.6162 16.4797 17.3146 16.6047 17 16.6047C16.6854 16.6047 16.3838 16.4797 16.1613 16.2573C15.9389 16.0348 15.814 15.7332 15.814 15.4186V12.6512H13.0465C12.732 12.6512 12.4303 12.5262 12.2079 12.3038C11.9854 12.0814 11.8605 11.7797 11.8605 11.4651C11.8605 11.1506 11.9854 10.8489 12.2079 10.6265C12.4303 10.404 12.732 10.2791 13.0465 10.2791H15.814V7.51163C15.814 7.19707 15.9389 6.89539 16.1613 6.67297C16.3838 6.45054 16.6854 6.32558 17 6.32558C17.3146 6.32558 17.6162 6.45054 17.8387 6.67297C18.0611 6.89539 18.186 7.19707 18.186 7.51163V10.2791H20.9535C21.268 10.2791 21.5697 10.404 21.7922 10.6265C22.0146 10.8489 22.1395 11.1506 22.1395 11.4651Z" fill="#F6D575"/>
</svg>
