<svg width="32" height="32" viewBox="0 0 32 32" fill="none" xmlns="http://www.w3.org/2000/svg">
<path fill-rule="evenodd" clip-rule="evenodd" d="M16 4.3335C8.82533 4.3335 3 10.1588 3 17.3335C3 24.5082 8.82533 30.3335 16 30.3335C23.1747 30.3335 29 24.5082 29 17.3335C29 10.1588 23.1747 4.3335 16 4.3335ZM16 6.3335C22.0707 6.3335 27 11.2628 27 17.3335C27 23.4042 22.0707 28.3335 16 28.3335C9.92933 28.3335 5 23.4042 5 17.3335C5 11.2628 9.92933 6.3335 16 6.3335Z" fill="#000"/>
<path fill-rule="evenodd" clip-rule="evenodd" d="M15.6641 5.33341V2.66675C15.6641 2.11475 15.2161 1.66675 14.6641 1.66675C14.1121 1.66675 13.6641 2.11475 13.6641 2.66675V5.33341C13.6641 5.88542 14.1121 6.33342 14.6641 6.33342C15.2161 6.33342 15.6641 5.88542 15.6641 5.33341Z" fill="#000"/>
<path fill-rule="evenodd" clip-rule="evenodd" d="M18.3359 5.33341V2.66675C18.3359 2.11475 17.8879 1.66675 17.3359 1.66675C16.7839 1.66675 16.3359 2.11475 16.3359 2.66675V5.33341C16.3359 5.88542 16.7839 6.33342 17.3359 6.33342C17.8879 6.33342 18.3359 5.88542 18.3359 5.33341Z" fill="#000"/>
<path fill-rule="evenodd" clip-rule="evenodd" d="M8.70919 7.29341L6.82385 5.40675C6.43319 5.01741 5.79985 5.01741 5.40919 5.40675C5.01985 5.79741 5.01985 6.43075 5.40919 6.82141L7.29585 8.70675C7.68519 9.09741 8.31985 9.09741 8.70919 8.70675C9.09985 8.31741 9.09985 7.68275 8.70919 7.29341Z" fill="#000"/>
<path fill-rule="evenodd" clip-rule="evenodd" d="M24.7063 8.70675L26.593 6.82141C26.9823 6.43075 26.9823 5.79741 26.593 5.40675C26.2023 5.01741 25.569 5.01741 25.1783 5.40675L23.293 7.29341C22.9023 7.68275 22.9023 8.31741 23.293 8.70675C23.6823 9.09741 24.317 9.09741 24.7063 8.70675Z" fill="#000"/>
<path fill-rule="evenodd" clip-rule="evenodd" d="M5.3704 8.03999L8.03706 5.37333C8.42773 4.98399 8.42773 4.34933 8.03706 3.95999C7.64773 3.56933 7.01306 3.56933 6.62373 3.95999L3.95706 6.62666C3.5664 7.01599 3.5664 7.65066 3.95706 8.03999C4.3464 8.43066 4.98106 8.43066 5.3704 8.03999Z" fill="#000"/>
<path fill-rule="evenodd" clip-rule="evenodd" d="M28.0371 6.62666L25.3704 3.95999C24.9811 3.56933 24.3464 3.56933 23.9571 3.95999C23.5664 4.34933 23.5664 4.98399 23.9571 5.37333L26.6237 8.03999C27.0131 8.43066 27.6477 8.43066 28.0371 8.03999C28.4277 7.65066 28.4277 7.01599 28.0371 6.62666Z" fill="#000"/>
<path fill-rule="evenodd" clip-rule="evenodd" d="M13.3359 3.66675H18.6693C19.2213 3.66675 19.6693 3.21875 19.6693 2.66675C19.6693 2.11475 19.2213 1.66675 18.6693 1.66675H13.3359C12.7839 1.66675 12.3359 2.11475 12.3359 2.66675C12.3359 3.21875 12.7839 3.66675 13.3359 3.66675Z" fill="#000"/>
<path fill-rule="evenodd" clip-rule="evenodd" d="M15 10V16.6667C15 16.932 15.1053 17.1867 15.2933 17.3733L19.2933 21.3733C19.6827 21.764 20.3173 21.764 20.7067 21.3733C21.0973 20.984 21.0973 20.3493 20.7067 19.96L17 16.252V10C17 9.448 16.552 9 16 9C15.448 9 15 9.448 15 10Z" fill="#000"/>
</svg>