<?xml version="1.0" standalone="no"?>
<!DOCTYPE svg PUBLIC "-//W3C//DTD SVG 20010904//EN"
 "http://www.w3.org/TR/2001/REC-SVG-20010904/DTD/svg10.dtd">
<svg version="1.0" xmlns="http://www.w3.org/2000/svg"
 width="512.000000pt" height="512.000000pt" viewBox="0 0 512.000000 512.000000"
 preserveAspectRatio="xMidYMid meet">
    <g transform="translate(0.000000,512.000000) scale(0.100000,-0.100000)"
fill="#000">
        <path d="M1240 4029 c-146 -66 -211 -235 -144 -379 21 -47 104 -134 542 -572
l517 -518 -517 -517 c-575 -576 -568 -567 -568 -693 0 -206 213 -341 400 -254
47 21 134 104 573 542 l517 517 518 -517 c575 -575 566 -568 692 -568 206 0
341 213 254 400 -21 47 -104 134 -542 573 l-517 517 517 518 c438 438 521 525
542 572 87 187 -48 400 -254 400 -126 0 -117 7 -692 -568 l-518 -517 -517 517
c-577 575 -567 568 -693 568 -44 0 -80 -7 -110 -21z"/>
    </g>
</svg>