<svg width="48" height="48" viewBox="0 0 48 48" fill="none" xmlns="http://www.w3.org/2000/svg">
<path d="M24 48C37.2548 48 48 37.2548 48 24C48 10.7452 37.2548 0 24 0C10.7452 0 0 10.7452 0 24C0 37.2548 10.7452 48 24 48Z" fill="#9E2D90"/>
<path d="M23.9992 48C30.8242 48 36.9742 45.15 41.3617 40.575C38.8492 35.55 33.2992 32.1375 23.9992 32.1375C14.6992 32.1375 9.14922 35.55 6.63672 40.575C11.0242 45.15 17.1742 48 23.9992 48Z" fill="#FCEBFB"/>
<path d="M19.7305 27.6001V30.0751C20.893 31.1626 22.2805 31.9501 23.893 32.4001C25.5055 32.8501 26.893 32.7751 28.0555 32.3251V27.6001H19.7305Z" fill="#01277B"/>
<path d="M15.8664 25.35C17.1712 25.35 18.2289 24.2923 18.2289 22.9875C18.2289 21.6827 17.1712 20.625 15.8664 20.625C14.5616 20.625 13.5039 21.6827 13.5039 22.9875C13.5039 24.2923 14.5616 25.35 15.8664 25.35Z" fill="white"/>
<path d="M31.9172 25.35C33.222 25.35 34.2797 24.2923 34.2797 22.9875C34.2797 21.6827 33.222 20.625 31.9172 20.625C30.6124 20.625 29.5547 21.6827 29.5547 22.9875C29.5547 24.2923 30.6124 25.35 31.9172 25.35Z" fill="white"/>
<path d="M24.1973 32.4375C40.848 37.6875 46.3422 41.3506 34.7348 16.0875C34.7348 9.93638 29.8659 4.94995 23.8598 4.94995C17.8537 4.94995 12.9848 9.93638 12.9848 16.0875C4.6432 36.6342 8.78442 40.125 24.1973 32.4375Z" fill="#460C3D"/>
<path d="M19.7305 29.8125V34.9452C19.7305 36.3079 21.6055 37.4249 23.893 37.4249C26.1805 37.4249 28.0555 36.3079 28.0555 34.9452V29.625L23.893 31.3125L19.7305 29.8125Z" fill="white"/>
<path d="M19.5039 28.125L19.6914 29.9999C20.9063 31.0874 22.1688 32.475 23.8539 32.925C25.539 33.375 26.914 33.4499 28.1289 32.9999V28.4999L19.5039 28.125Z" fill="#330A2C"/>
<path d="M23.8906 31.3125C28.447 31.3125 32.1406 26.6954 32.1406 21C32.1406 15.3046 28.447 10.6875 23.8906 10.6875C19.3343 10.6875 15.6406 15.3046 15.6406 21C15.6406 26.6954 19.3343 31.3125 23.8906 31.3125Z" fill="white"/>
<path d="M21.3044 15.4743C24.0139 15.1187 26.0346 12.5919 25.8178 9.83053C25.601 7.06918 23.2288 5.11893 20.5193 5.47453C17.8098 5.83014 15.789 8.35693 16.0058 11.1183C16.2226 13.8796 18.5949 15.8299 21.3044 15.4743Z" fill="#460C3D"/>
<path d="M27.6155 14.6488C29.7628 14.3133 31.3478 12.3742 31.1555 10.3176C30.9633 8.26102 29.0667 6.86582 26.9194 7.20134C24.772 7.53685 23.1871 9.47602 23.3793 11.5326C23.5715 13.5892 25.4681 14.9843 27.6155 14.6488Z" fill="#460C3D"/>
<path d="M20.3344 20.3628C20.7693 20.3628 21.1219 20.0103 21.1219 19.5753C21.1219 19.1404 20.7693 18.7878 20.3344 18.7878C19.8995 18.7878 19.5469 19.1404 19.5469 19.5753C19.5469 20.0103 19.8995 20.3628 20.3344 20.3628Z" fill="#460C3D"/>
<path d="M27.4594 20.3628C27.8943 20.3628 28.2469 20.0103 28.2469 19.5753C28.2469 19.1404 27.8943 18.7878 27.4594 18.7878C27.0245 18.7878 26.6719 19.1404 26.6719 19.5753C26.6719 20.0103 27.0245 20.3628 27.4594 20.3628Z" fill="#460C3D"/>
<path d="M27.457 23.25C27.457 25.2375 25.8445 26.8125 23.8945 26.8125C21.907 26.8125 20.332 25.2 20.332 23.25H27.457Z" fill="#460C3D"/>
</svg>
