<svg width="48" height="48" viewBox="0 0 48 48" fill="none" xmlns="http://www.w3.org/2000/svg">
<path d="M24 48C37.2548 48 48 37.2548 48 24C48 10.7452 37.2548 0 24 0C10.7452 0 0 10.7452 0 24C0 37.2548 10.7452 48 24 48Z" fill="#1597FF"/>
<path d="M23.9992 48C30.8242 48 36.9742 45.15 41.3617 40.575C38.8492 35.55 33.2992 32.1375 23.9992 32.1375C14.6992 32.1375 9.14922 35.55 6.63672 40.575C11.0242 45.15 17.1742 48 23.9992 48Z" fill="#F85863"/>
<path d="M19.7266 26.8501V33.2626C19.7266 35.5501 21.6016 37.4251 23.8891 37.4251C26.1766 37.4251 28.0516 35.5501 28.0516 33.2626V26.8501H19.7266Z" fill="white"/>
<path d="M19.7266 27.6001V30.0751C20.8891 31.1626 22.2766 31.9501 23.8891 32.4001C25.5016 32.8501 26.8891 32.7751 28.0516 32.3251V27.6001H19.7266Z" fill="#01277B"/>
<path d="M15.8625 25.35C17.1673 25.35 18.225 24.2923 18.225 22.9875C18.225 21.6827 17.1673 20.625 15.8625 20.625C14.5577 20.625 13.5 21.6827 13.5 22.9875C13.5 24.2923 14.5577 25.35 15.8625 25.35Z" fill="white"/>
<path d="M31.9133 25.35C33.2181 25.35 34.2758 24.2923 34.2758 22.9875C34.2758 21.6827 33.2181 20.625 31.9133 20.625C30.6085 20.625 29.5508 21.6827 29.5508 22.9875C29.5508 24.2923 30.6085 25.35 31.9133 25.35Z" fill="white"/>
<path d="M23.8516 27.2252C29.8577 27.2252 34.7266 22.2388 34.7266 16.0877C34.7266 9.93662 29.8577 4.9502 23.8516 4.9502C17.8455 4.9502 12.9766 9.93662 12.9766 16.0877C12.9766 22.2388 17.8455 27.2252 23.8516 27.2252Z" fill="#01277B"/>
<path d="M23.8906 31.3125C28.447 31.3125 32.1406 26.6954 32.1406 21C32.1406 15.3046 28.447 10.6875 23.8906 10.6875C19.3343 10.6875 15.6406 15.3046 15.6406 21C15.6406 26.6954 19.3343 31.3125 23.8906 31.3125Z" fill="white"/>
<path d="M22.9675 15.4748C26.4708 15.1192 29.0834 12.5924 28.8031 9.83102C28.5229 7.06967 25.4557 5.11942 21.9525 5.47502C18.4493 5.83062 15.8366 8.35742 16.1169 11.1188C16.3972 13.8801 19.4643 15.8304 22.9675 15.4748Z" fill="#01277B"/>
<path d="M31.1263 14.6496C33.9027 14.3141 35.9519 12.3749 35.7033 10.3183C35.4548 8.26175 33.0027 6.86656 30.2263 7.20207C27.4499 7.53758 25.4007 9.47675 25.6492 11.5333C25.8977 13.5899 28.3499 14.9851 31.1263 14.6496Z" fill="#01277B"/>
<path d="M20.3266 20.3626C20.7615 20.3626 21.1141 20.01 21.1141 19.5751C21.1141 19.1402 20.7615 18.7876 20.3266 18.7876C19.8916 18.7876 19.5391 19.1402 19.5391 19.5751C19.5391 20.01 19.8916 20.3626 20.3266 20.3626Z" fill="#01277B"/>
<path d="M27.4516 20.3626C27.8865 20.3626 28.2391 20.01 28.2391 19.5751C28.2391 19.1402 27.8865 18.7876 27.4516 18.7876C27.0166 18.7876 26.6641 19.1402 26.6641 19.5751C26.6641 20.01 27.0166 20.3626 27.4516 20.3626Z" fill="#01277B"/>
<path d="M27.4531 23.25C27.4531 25.2375 25.8406 26.8125 23.8906 26.8125C21.9031 26.8125 20.3281 25.2 20.3281 23.25H27.4531Z" fill="#01277B"/>
</svg>
