<svg width="44" height="44" viewBox="0 0 44 44" fill="none" xmlns="http://www.w3.org/2000/svg">
    <g clip-path="url(#clip0_1057_2618)">
        <path d="M10.8083 43.3558C14.6639 43.3558 17.7894 42.0821 17.7894 40.5109C17.7894 38.9397 14.6639 37.666 10.8083 37.666C6.95271 37.666 3.82715 38.9397 3.82715 40.5109C3.82715 42.0821 6.95271 43.3558 10.8083 43.3558Z" fill="#E9E4D8"/>
        <path d="M17.1807 39.3477C16.0903 40.3397 13.6481 41.0313 10.8081 41.0313C7.96814 41.0313 5.52596 40.3397 4.43559 39.3477C4.04569 39.7024 3.82715 40.0951 3.82715 40.509C3.82715 42.0803 6.95261 43.354 10.8082 43.354C14.6637 43.354 17.7893 42.0803 17.7893 40.509C17.7891 40.0951 17.5704 39.7023 17.1807 39.3477Z" fill="#000"/>
        <path d="M10.808 13.8711C5.20624 13.8711 0.665039 18.4122 0.665039 24.0141C0.665039 32.5445 10.808 40.3933 10.808 40.3933C10.808 40.3933 20.951 32.5445 20.951 24.0141C20.951 18.4122 16.4099 13.8711 10.808 13.8711ZM10.808 28.0595C8.5738 28.0595 6.76257 26.2483 6.76257 24.0141C6.76257 21.7799 8.5738 19.9685 10.808 19.9685C13.0422 19.9685 14.8535 21.7798 14.8535 24.0141C14.8535 26.2483 13.0423 28.0595 10.808 28.0595Z" fill="#000"/>
        <path d="M10.8083 13.8711C10.4155 13.8711 10.0282 13.8941 9.64697 13.9377C14.7017 14.514 18.6286 18.8051 18.6286 24.0141C18.6286 30.7479 12.3093 37.0558 9.64697 39.4148C10.3573 40.0442 10.8083 40.3935 10.8083 40.3935C10.8083 40.3935 20.9513 32.5447 20.9513 24.0142C20.9513 18.4122 16.4102 13.8711 10.8083 13.8711Z" fill="#000"/>
        <path d="M35.5389 23.3047C38.5022 23.3047 40.9044 22.3257 40.9044 21.1182C40.9044 19.9106 38.5022 18.9316 35.5389 18.9316C32.5756 18.9316 30.1733 19.9106 30.1733 21.1182C30.1733 22.3257 32.5756 23.3047 35.5389 23.3047Z" fill="#E9E4D8"/>
        <path d="M40.0841 19.957C39.1348 20.5727 37.4547 20.9822 35.5388 20.9822C33.6229 20.9822 31.9426 20.5727 30.9934 19.957C30.4746 20.2936 30.1733 20.6915 30.1733 21.1184C30.1733 22.3261 32.5755 23.3049 35.5388 23.3049C38.502 23.3049 40.9042 22.3259 40.9042 21.1184C40.9042 20.6915 40.603 20.2936 40.0841 19.957Z" fill="#000"/>
        <path d="M35.5391 0.644531C31.2338 0.644531 27.7437 4.13472 27.7437 8.44011C27.7437 14.9964 35.5391 21.0288 35.5391 21.0288C35.5391 21.0288 43.3347 14.9964 43.3347 8.44011C43.3347 4.13472 39.8445 0.644531 35.5391 0.644531ZM35.5391 11.5493C33.8219 11.5493 32.4299 10.1573 32.4299 8.44011C32.4299 6.7229 33.8219 5.33089 35.5391 5.33089C37.2563 5.33089 38.6485 6.7229 38.6485 8.44011C38.6485 10.1573 37.2563 11.5493 35.5391 11.5493Z" fill="#000"/>
        <path d="M35.5393 0.644531C35.1446 0.644531 34.7569 0.674094 34.3779 0.730727C38.1324 1.29156 41.0121 4.52943 41.0121 8.44002C41.0121 13.4005 36.5502 18.0604 34.3779 20.0352C35.0767 20.6705 35.5393 21.0287 35.5393 21.0287C35.5393 21.0287 43.3348 14.9963 43.3348 8.44002C43.3348 4.13472 39.8447 0.644531 35.5393 0.644531Z" fill="#000"/>
        <path d="M10.8082 13.2266C4.8596 13.2266 0.0200195 18.0661 0.0200195 24.0148C0.0200195 27.7081 1.77693 31.6791 5.24202 35.8175C5.75688 36.4324 6.26992 37.0022 6.76226 37.522C4.52496 38.1327 3.18175 39.2298 3.18175 40.5104C3.18175 42.7774 7.11099 44.0006 10.8079 44.0006C14.5049 44.0006 18.4341 42.7773 18.4341 40.5104C18.4341 39.2309 17.0913 38.1335 14.8554 37.5225C15.7487 36.5795 16.7098 35.4701 17.6218 34.2326C17.8333 33.9457 17.772 33.5418 17.4851 33.3304C17.1984 33.1192 16.7944 33.1803 16.583 33.4671C15.4819 34.9613 14.2901 36.2744 13.2502 37.3175C13.131 37.3783 13.0313 37.4749 12.9689 37.5967C12.0373 38.5122 11.2534 39.1913 10.8086 39.5624C10.3687 39.195 9.59674 38.525 8.67712 37.6214C8.61112 37.4768 8.49519 37.3634 8.35374 37.3001C5.43126 34.3606 1.31055 29.282 1.31055 24.0149C1.31055 18.7779 5.57125 14.5172 10.8083 14.5172C16.0453 14.5172 20.306 18.7779 20.306 24.0149C20.306 26.302 19.5268 28.7718 17.9898 31.3559C17.8077 31.6623 17.9083 32.0582 18.2146 32.2403C18.5209 32.4224 18.9169 32.3218 19.099 32.0155C20.7562 29.2291 21.5965 26.5374 21.5965 24.0149C21.5964 18.0661 16.7568 13.2266 10.8082 13.2266ZM10.8082 41.0393C10.9475 41.0393 11.0868 40.9943 11.2031 40.9043C11.2823 40.8431 12.3604 40.0023 13.7975 38.5971C15.9737 39.0409 17.1438 39.8953 17.1438 40.5104C17.1438 40.9697 16.5142 41.5117 15.5007 41.9246C14.2577 42.4312 12.5912 42.7102 10.8079 42.7102C6.94032 42.7102 4.47211 41.4072 4.47211 40.5104C4.47211 39.8945 5.64258 39.0404 7.8199 38.5967C9.26511 40.0102 10.3448 40.8512 10.4133 40.9043C10.5296 40.9944 10.669 41.0393 10.8082 41.0393Z" fill="#6B4D3E"/>
        <path d="M7.09737 22.2767C6.75499 22.1787 6.39757 22.3764 6.29918 22.7188C6.17878 23.1385 6.11768 23.5744 6.11768 24.015C6.11768 26.6013 8.22186 28.7056 10.8083 28.7056C13.3948 28.7056 15.499 26.6014 15.499 24.015C15.499 21.4285 13.3948 19.3242 10.8083 19.3242C9.78782 19.3242 8.81741 19.6464 8.00203 20.256C7.71672 20.4693 7.65828 20.8737 7.87158 21.1591C8.08505 21.4444 8.4893 21.5027 8.7747 21.2895C9.36517 20.8481 10.0684 20.6147 10.8082 20.6147C12.6832 20.6147 14.2085 22.14 14.2085 24.015C14.2085 25.8899 12.6831 27.4152 10.8082 27.4152C8.93334 27.4152 7.40803 25.8899 7.40803 24.015C7.40803 23.695 7.45229 23.3787 7.53952 23.075C7.63783 22.7323 7.43991 22.375 7.09737 22.2767Z" fill="#6B4D3E"/>
        <path d="M41.5494 21.1189C41.5494 20.0966 40.5885 19.2451 38.9259 18.7448C39.2542 18.3926 39.5923 18.0131 39.9315 17.6079C42.6177 14.3996 43.9797 11.3154 43.9797 8.44071C43.9797 3.78659 40.1932 0 35.5389 0C32.139 0 29.0862 2.02349 27.7618 5.15506C27.623 5.48325 27.7765 5.86189 28.1046 6.0006C28.4328 6.1393 28.8115 5.9859 28.9502 5.65779C30.0724 3.00472 32.6586 1.29035 35.5389 1.29035C39.4817 1.29035 42.6893 4.49806 42.6893 8.4408C42.6893 13.7727 37.0915 18.8808 35.5387 20.1949C35.1965 19.9057 34.6578 19.4324 34.0263 18.8133C33.9633 18.6883 33.8614 18.5894 33.7393 18.5282C31.5116 16.2851 28.3886 12.4293 28.3886 8.4408C28.3886 8.08441 28.0998 7.79558 27.7434 7.79558C27.387 7.79558 27.0981 8.08433 27.0981 8.4408C27.0981 11.3154 28.4603 14.3997 31.1465 17.608C31.4855 18.0129 31.8234 18.3923 32.1515 18.7444C30.4883 19.2441 29.5281 20.0947 29.5281 21.119C29.5281 21.9828 30.2289 22.7442 31.5014 23.2626C32.5902 23.7063 34.0241 23.9507 35.5389 23.9507C37.0535 23.9507 38.4874 23.7063 39.5763 23.2626C40.8486 22.7441 41.5494 21.9827 41.5494 21.1189ZM35.5388 22.6602C32.4846 22.6602 30.8186 21.642 30.8186 21.1188C30.8186 20.778 31.5764 20.1543 33.1948 19.8102C34.2837 20.8697 35.092 21.4993 35.1441 21.5398C35.2604 21.6297 35.3997 21.6747 35.539 21.6747C35.6783 21.6747 35.8176 21.6297 35.9339 21.5398C35.9861 21.4995 36.7941 20.8698 37.8831 19.8104C38.6041 19.9641 39.2287 20.1893 39.6658 20.4555C40.0373 20.6818 40.2591 20.9299 40.2591 21.1189C40.259 21.642 38.5929 22.6602 35.5388 22.6602Z" fill="#6B4D3E"/>
        <path d="M39.2936 8.43999C39.2936 6.36984 37.6094 4.68555 35.5392 4.68555C33.469 4.68555 31.7847 6.36975 31.7847 8.43999C31.7847 10.5101 33.4689 12.1944 35.5392 12.1944C37.6095 12.1944 39.2936 10.5102 39.2936 8.43999ZM33.0752 8.43999C33.0752 7.08132 34.1805 5.9759 35.5393 5.9759C36.898 5.9759 38.0034 7.08123 38.0034 8.43999C38.0034 9.79858 36.898 10.904 35.5393 10.904C34.1805 10.904 33.0752 9.79867 33.0752 8.43999Z" fill="#6B4D3E"/>
        <path d="M27.17 21.7651C27.5263 21.7651 27.8152 21.4763 27.8152 21.1198C27.8152 20.7634 27.5263 20.4746 27.17 20.4746H26.8754C26.6609 20.4746 26.4454 20.4888 26.2345 20.5169C25.8814 20.5639 25.6331 20.8882 25.68 21.2416C25.7232 21.5659 26.0003 21.8018 26.3188 21.8018C26.3471 21.8018 26.3758 21.8 26.4047 21.7962C26.5593 21.7756 26.7177 21.7652 26.8755 21.7652H27.17V21.7651Z" fill="#6B4D3E"/>
        <path d="M25.0365 39.832C25.0355 39.832 25.0346 39.832 25.0335 39.832L24.1814 39.8359C23.8251 39.8375 23.5375 40.1277 23.5391 40.484C23.5407 40.8394 23.8293 41.1263 24.1842 41.1263C24.1852 41.1263 24.1863 41.1263 24.1872 41.1263L25.0394 41.1225C25.3957 41.1208 25.6832 40.8306 25.6817 40.4743C25.6801 40.1189 25.3915 39.832 25.0365 39.832Z" fill="#6B4D3E"/>
        <path d="M27.9354 30.1225C28.2918 30.1225 28.5806 29.8336 28.5806 29.4773C28.5806 29.1209 28.2918 28.832 27.9354 28.832H27.0832C26.7268 28.832 26.438 29.1208 26.438 29.4773C26.438 29.8336 26.7268 30.1225 27.0832 30.1225H27.9354Z" fill="#6B4D3E"/>
        <path d="M23.1024 23.3864C23.2162 23.4682 23.3478 23.5076 23.4782 23.5076C23.6789 23.5076 23.8767 23.4142 24.0028 23.2387C24.1429 23.0437 24.3034 22.8622 24.4799 22.6994C24.7418 22.4579 24.7582 22.0497 24.5166 21.7877C24.2751 21.526 23.867 21.5094 23.6049 21.7509C23.3644 21.9727 23.1456 22.22 22.9546 22.4859C22.7468 22.7755 22.813 23.1786 23.1024 23.3864Z" fill="#6B4D3E"/>
        <path d="M28.4456 39.8164C28.4446 39.8164 28.4437 39.8164 28.4426 39.8164L27.5905 39.8203C27.2342 39.8219 26.9467 40.1121 26.9482 40.4684C26.9499 40.8238 27.2384 41.1107 27.5934 41.1107C27.5944 41.1107 27.5954 41.1107 27.5964 41.1107L28.4485 41.1068C28.8048 41.1053 29.0923 40.815 29.0908 40.4587C29.0892 40.1034 28.8005 39.8164 28.4456 39.8164Z" fill="#6B4D3E"/>
        <path d="M21.6278 39.8477C21.6268 39.8477 21.6259 39.8477 21.6248 39.8477L20.7727 39.8515C20.4164 39.8531 20.1288 40.1434 20.1304 40.4997C20.132 40.855 20.4205 41.142 20.7755 41.142C20.7765 41.142 20.7775 41.142 20.7785 41.142L21.6307 41.1381C21.987 41.1365 22.2745 40.8463 22.273 40.49C22.2714 40.1345 21.9829 39.8477 21.6278 39.8477Z" fill="#6B4D3E"/>
        <path d="M24.6481 29.479C24.8623 29.479 25.0717 29.3725 25.1945 29.1779C25.3846 28.8765 25.2944 28.4781 24.993 28.2879C24.7904 28.16 24.5996 28.0107 24.4264 27.8442C24.1696 27.5971 23.761 27.6053 23.5142 27.8619C23.2671 28.1187 23.2751 28.5272 23.5319 28.7741C23.7681 29.0013 24.028 29.2049 24.3047 29.3793C24.4114 29.4469 24.5304 29.479 24.6481 29.479Z" fill="#6B4D3E"/>
        <path d="M23.407 25.978C23.3637 25.7556 23.3417 25.5268 23.3417 25.2979L23.3419 25.2621C23.3461 24.9058 23.0606 24.6136 22.7042 24.6095C22.7017 24.6094 22.6992 24.6094 22.6966 24.6094C22.3437 24.6094 22.0557 24.8933 22.0515 25.2471L22.0513 25.298C22.0513 25.6096 22.0813 25.9215 22.1404 26.2249C22.2004 26.533 22.4704 26.7467 22.7731 26.7467C22.8139 26.7467 22.8555 26.7429 22.8972 26.7347C23.2469 26.6666 23.4752 26.3278 23.407 25.978Z" fill="#6B4D3E"/>
        <path d="M31.3441 30.1225C31.7004 30.1225 31.9893 29.8336 31.9893 29.4773C31.9893 29.1209 31.7004 28.832 31.3441 28.832H30.4919C30.1355 28.832 29.8467 29.1208 29.8467 29.4773C29.8467 29.8336 30.1355 30.1225 30.4919 30.1225H31.3441Z" fill="#6B4D3E"/>
        <path d="M41.3028 31.2957C41.4934 31.2957 41.6823 31.2115 41.8097 31.0502C42.0304 30.7706 41.9827 30.3648 41.7031 30.144C41.4545 29.9478 41.1888 29.7695 40.9132 29.6145C40.603 29.4395 40.2092 29.5494 40.0344 29.8599C39.8595 30.1703 39.9693 30.5639 40.2799 30.7387C40.4973 30.8613 40.7072 31.0019 40.9034 31.1569C41.0219 31.2505 41.1627 31.2957 41.3028 31.2957Z" fill="#6B4D3E"/>
        <path d="M38.5807 39.7269C38.3694 39.7562 38.153 39.7715 37.9372 39.7724L37.8164 39.773C37.4601 39.7748 37.1726 40.0651 37.1743 40.4213C37.1761 40.7766 37.4646 41.0634 37.8195 41.0634C37.8206 41.0634 37.8216 41.0634 37.8226 41.0634L37.9431 41.0628C38.2156 41.0616 38.4896 41.0423 38.7573 41.0053C39.1102 40.9564 39.3569 40.6307 39.3082 40.2778C39.2592 39.9248 38.933 39.6778 38.5807 39.7269Z" fill="#6B4D3E"/>
        <path d="M41.2434 38.4418C41.0624 38.6143 40.8664 38.7739 40.6609 38.9164C40.3681 39.1194 40.2953 39.5214 40.4982 39.8144C40.6236 39.9951 40.8246 40.092 41.0291 40.092C41.1559 40.092 41.284 40.0547 41.3961 39.9771C41.6562 39.7967 41.9043 39.5945 42.1335 39.3762C42.3914 39.1304 42.4012 38.7219 42.1555 38.464C41.9097 38.2058 41.5012 38.1959 41.2434 38.4418Z" fill="#6B4D3E"/>
        <path d="M43.4113 35.3296C43.0617 35.2637 42.7239 35.494 42.6579 35.8442C42.6116 36.0897 42.5457 36.3335 42.462 36.5685C42.3423 36.9041 42.5173 37.2732 42.8531 37.3929C42.9246 37.4184 42.9979 37.4305 43.0697 37.4305C43.3347 37.4305 43.5833 37.2659 43.6775 37.0019C43.7838 36.7037 43.8674 36.3946 43.9261 36.083C43.9919 35.7329 43.7615 35.3955 43.4113 35.3296Z" fill="#6B4D3E"/>
        <path d="M42.6035 32.0528C42.2806 32.2035 42.141 32.5874 42.2916 32.9104C42.3973 33.1368 42.4858 33.3733 42.5547 33.613C42.6359 33.896 42.894 34.0804 43.1744 34.0804C43.2335 34.0804 43.2933 34.0723 43.3528 34.0552C43.6953 33.9569 43.8932 33.5995 43.7949 33.257C43.7074 32.9524 43.5952 32.6523 43.461 32.3647C43.3103 32.0418 42.9268 31.9022 42.6035 32.0528Z" fill="#6B4D3E"/>
        <path d="M34.7532 30.1225C35.1096 30.1225 35.3985 29.8336 35.3985 29.4773C35.3985 29.1209 35.1096 28.832 34.7532 28.832H33.9011C33.5447 28.832 33.2559 29.1208 33.2559 29.4773C33.2559 29.8336 33.5447 30.1225 33.9011 30.1225H34.7532Z" fill="#6B4D3E"/>
        <path d="M31.8544 39.8008C31.8534 39.8008 31.8524 39.8008 31.8514 39.8008L30.9992 39.8046C30.6429 39.8063 30.3554 40.0965 30.3569 40.4528C30.3586 40.8081 30.6471 41.0951 31.0021 41.0951C31.0031 41.0951 31.004 41.0951 31.0051 41.0951L31.8572 41.0912C32.2135 41.0896 32.5011 40.7994 32.4995 40.4431C32.498 40.0877 32.2094 39.8008 31.8544 39.8008Z" fill="#6B4D3E"/>
        <path d="M37.9156 30.1223C37.9886 30.1223 38.0611 30.1239 38.1332 30.1271C38.1429 30.1276 38.1526 30.1278 38.1623 30.1278C38.5054 30.1278 38.7911 29.8574 38.8063 29.5112C38.8221 29.1552 38.5463 28.8538 38.1904 28.8381C38.099 28.834 38.0066 28.832 37.9157 28.832H37.3098C36.9534 28.832 36.6646 29.1208 36.6646 29.4773C36.6646 29.8336 36.9534 30.1225 37.3098 30.1225L37.9156 30.1223Z" fill="#6B4D3E"/>
        <path d="M35.2632 39.7852C35.2621 39.7852 35.2612 39.7852 35.2602 39.7852L34.4079 39.789C34.0516 39.7906 33.7641 40.0809 33.7656 40.4372C33.7672 40.7925 34.0558 41.0795 34.4108 41.0795C34.4118 41.0795 34.4127 41.0795 34.4138 41.0795L35.2659 41.0756C35.6222 41.0741 35.9098 40.7838 35.9082 40.4275C35.9067 40.072 35.6181 39.7852 35.2632 39.7852Z" fill="#6B4D3E"/>
    </g>
    <defs>
        <clipPath id="clip0_1057_2618">
            <rect width="44" height="44" fill="white"/>
        </clipPath>
    </defs>
</svg>