<svg width="32" height="32" viewBox="0 0 32 32" fill="none" xmlns="http://www.w3.org/2000/svg">
<rect width="32" height="32" rx="4" fill="#f00"/>
<g clip-path="url(#clip0_622_9958)">
<path d="M18 11V4.46C18.9251 4.80934 19.7653 5.35131 20.465 6.05L23.949 9.536C24.6485 10.2349 25.1909 11.0749 25.54 12H19C18.7348 12 18.4804 11.8946 18.2929 11.7071C18.1054 11.5196 18 11.2652 18 11ZM26 14.485V23C25.9984 24.3256 25.4711 25.5964 24.5338 26.5338C23.5964 27.4711 22.3256 27.9984 21 28H11C9.67441 27.9984 8.40356 27.4711 7.46622 26.5338C6.52888 25.5964 6.00159 24.3256 6 23V9C6.00159 7.67441 6.52888 6.40356 7.46622 5.46622C8.40356 4.52888 9.67441 4.00159 11 4H15.515C15.678 4 15.839 4.013 16 4.024V11C16 11.7956 16.3161 12.5587 16.8787 13.1213C17.4413 13.6839 18.2044 14 19 14H25.976C25.987 14.161 26 14.322 26 14.485ZM18 23C18 22.7348 17.8946 22.4804 17.7071 22.2929C17.5196 22.1054 17.2652 22 17 22H12C11.7348 22 11.4804 22.1054 11.2929 22.2929C11.1054 22.4804 11 22.7348 11 23C11 23.2652 11.1054 23.5196 11.2929 23.7071C11.4804 23.8946 11.7348 24 12 24H17C17.2652 24 17.5196 23.8946 17.7071 23.7071C17.8946 23.5196 18 23.2652 18 23ZM21 19C21 18.7348 20.8946 18.4804 20.7071 18.2929C20.5196 18.1054 20.2652 18 20 18H12C11.7348 18 11.4804 18.1054 11.2929 18.2929C11.1054 18.4804 11 18.7348 11 19C11 19.2652 11.1054 19.5196 11.2929 19.7071C11.4804 19.8946 11.7348 20 12 20H20C20.2652 20 20.5196 19.8946 20.7071 19.7071C20.8946 19.5196 21 19.2652 21 19Z" fill="#000"/>
</g>
<defs>
<clipPath id="clip0_622_9958">
<rect width="24" height="24" fill="white" transform="translate(4 4)"/>
</clipPath>
</defs>
</svg>
