<svg width="408" height="383" viewBox="0 0 408 383" fill="none" xmlns="http://www.w3.org/2000/svg">
<path d="M387.6 346.053H20.4C14.9896 346.053 9.80076 347.999 5.97502 351.463C2.14928 354.928 0 359.627 0 364.526C0 369.426 2.14928 374.125 5.97502 377.589C9.80076 381.054 14.9896 383 20.4 383H387.6C393.01 383 398.199 381.054 402.025 377.589C405.851 374.125 408 369.426 408 364.526C408 359.627 405.851 354.928 402.025 351.463C398.199 347.999 393.01 346.053 387.6 346.053Z" fill="white"/>
<path d="M204 0C198.611 0 193.443 2.16951 189.632 6.03127C185.821 9.89302 183.681 15.1307 183.681 20.592V238.662L116.829 170.708C113.003 166.83 107.814 164.652 102.403 164.652C96.9915 164.652 91.802 166.83 87.9758 170.708C84.1496 174.586 82 179.845 82 185.328C82 190.812 84.1496 196.071 87.9758 199.949L189.573 302.909C191.462 304.839 193.709 306.371 196.186 307.416C198.662 308.462 201.318 309 204 309C206.682 309 209.338 308.462 211.814 307.416C214.291 306.371 216.538 304.839 218.427 302.909L320.024 199.949C321.919 198.029 323.422 195.749 324.447 193.241C325.472 190.732 326 188.044 326 185.328C326 182.613 325.472 179.924 324.447 177.416C323.422 174.907 321.919 172.628 320.024 170.708C318.13 168.788 315.88 167.265 313.405 166.226C310.93 165.187 308.277 164.652 305.597 164.652C302.918 164.652 300.265 165.187 297.79 166.226C295.314 167.265 293.065 168.788 291.171 170.708L224.319 238.662V20.592C224.319 15.1307 222.179 9.89302 218.368 6.03127C214.557 2.16951 209.389 0 204 0Z" fill="white"/>
</svg>
