<svg width="786" height="305" viewBox="0 0 786 305" fill="none" xmlns="http://www.w3.org/2000/svg">
<path d="M727.694 26.0106C771.178 53.5755 784.588 112.007 757.655 156.504C744.512 178.215 724.184 192.569 701.77 198.408C729.549 194.52 755.477 178.452 771.392 152.156C799.703 105.388 785.609 43.9875 739.909 15.0015C694.208 -13.9707 634.214 0.452675 605.888 47.2206C604.922 48.8232 604.009 50.4535 603.125 52.098C631.109 11.2667 685.728 -0.59249 727.694 26.0106Z" fill="white"/>
<path d="M639.663 165.283C605.03 138.777 598.4 93.208 624.299 57.7695C636.939 40.4755 653.498 27.4457 672.792 24.2266C649.109 25.3972 626.11 36.9777 610.805 57.909C583.583 95.159 591.019 147.947 627.419 175.804C663.819 203.661 715.402 196.053 742.624 158.803C743.561 157.521 744.445 156.225 745.289 154.901C718.79 187.204 673.08 190.868 639.663 165.283Z" fill="white"/>
<path d="M152.609 130.082H35.4585C40.7011 154.539 59.0573 169.743 83.5414 169.743C100.44 169.743 115.883 163.18 127.253 151.251L145.037 170.635C129.881 187.637 107.739 197.475 80.9271 197.475C33.1299 197.475 1.66016 164.963 1.66016 117.262C1.66016 69.2535 34.0014 36.7419 80.0415 36.4492C134.552 36.4492 156.694 72.821 152.609 130.082ZM123.468 105.04C122.297 79.399 105.697 63.8885 80.3413 63.8885C55.8571 63.8885 38.3726 79.6915 34.8866 105.04H123.468Z" fill="black"/>
<path d="M227.121 63.5783C214.008 63.5783 204.394 68.0513 204.394 79.3813C204.394 108.604 286.861 92.8013 286.575 150.355C286.575 182.867 258.305 197.472 227.121 197.472C204.394 197.472 180.209 189.723 164.754 175.398L176.696 150.941C190.096 163.162 211.665 170.618 228.565 170.618C242.85 170.618 253.92 165.545 253.92 153.616C253.92 121.104 172.325 139.304 172.611 82.0428C172.611 49.8376 199.996 36.125 229.722 36.125C249.249 36.125 269.934 42.0895 283.919 52.2208L271.677 77.5693C258.006 68.9433 240.821 63.5783 227.121 63.5783Z" fill="black"/>
<path d="M403.916 186.145C391.674 193.6 378.86 197.767 365.746 197.767C342.433 197.767 322.321 184.054 322.321 151.542V69.239H300.465V43.5974H322.321V0.0625H355.547V43.5974H401.301V69.239H355.547V145.285C355.547 161.688 361.661 166.76 372.16 166.76C379.16 166.76 386.445 164.377 395.473 159.904L403.916 186.145Z" fill="black"/>
<path d="M568.24 130.082H451.088C456.33 154.539 474.686 169.743 499.169 169.743C516.071 169.743 531.512 163.18 542.883 151.251L560.668 170.635C545.509 187.637 523.369 197.475 496.557 197.475C448.759 197.475 417.289 164.963 417.289 117.262C417.289 69.2535 449.63 36.7419 495.669 36.4492C550.167 36.4492 572.311 72.821 568.24 130.082ZM539.094 105.04C537.927 79.399 521.324 63.8885 495.972 63.8885C471.486 63.8885 454.002 79.6915 450.515 105.04H539.094Z" fill="black"/>
<path d="M274.32 292.15C263.753 292.15 255.446 283.733 255.446 273.059C255.446 262.398 263.753 254.05 274.32 254.05C279.685 254.05 285.2 256.684 289.04 260.921L294.242 254.273C289.108 249.103 281.632 245.926 274.156 245.926C258.524 245.926 246.377 257.743 246.377 273.128C246.377 288.667 258.387 300.637 273.856 300.637C281.333 300.637 288.958 297.153 294.324 291.746L289.04 285.712C285.037 289.684 279.603 292.15 274.32 292.15ZM168.445 246.177H146.779V300.261H168.227C184.227 300.261 195.788 288.82 195.788 273.212C195.788 257.534 184.309 246.177 168.445 246.177ZM168.676 292.081H155.685V254.371H168.295C178.712 254.371 186.787 262.259 186.787 273.309C186.801 284.277 178.943 292.081 168.676 292.081ZM216.623 300.261H225.529V246.177H216.623V300.261ZM32.7609 282.103L15.3171 246.177H4.75V300.261H13.1247V259.848L29.8196 294.617H35.6342L52.3157 259.848L52.3972 300.261H60.6219V246.177H50.1232L32.7609 282.103ZM94.829 277.156H120.647V269.045H94.829V254.357H123.67V246.163H85.9233V300.247H124.583V292.053H94.8427V277.156H94.829ZM490.957 254.064C496.474 254.064 502.137 256.378 506.209 260.252L511.262 253.535C506.048 248.894 498.5 245.968 490.943 245.968C474.944 245.968 462.634 257.785 462.634 273.24C462.634 288.694 474.795 300.665 490.416 300.665C497.66 300.665 505.584 297.808 510.949 293.628V273.7H503.172V288.764C499.403 291.077 494.946 292.471 491.011 292.471C480.214 292.471 471.69 284.054 471.69 273.226C471.703 262.481 480.16 254.064 490.957 254.064ZM330.804 246.177L307.478 300.261H316.765L321.817 288.053H348.466L353.532 300.261H363.05L339.941 246.177H330.804ZM325.14 279.943L335.107 255.918L345.075 279.943H325.14ZM709.338 277.853C709.338 287.05 703.973 292.457 695.371 292.457C686.681 292.457 681.179 286.966 681.179 277.853V246.177H672.274V277.853C672.274 291.997 681.028 300.651 695.303 300.651C709.573 300.651 718.258 291.997 718.258 277.853V246.177H709.353V277.853H709.338ZM763.402 246.177H742.336V300.261H751.241V283.956H763.402C776.69 283.956 784.316 276.849 784.316 264.642C784.316 252.894 776.69 246.177 763.402 246.177ZM763.035 275.776H751.255V254.371H763.035C771.188 254.371 775.792 257.771 775.792 264.878C775.792 272.223 771.179 275.776 763.035 275.776ZM624.465 245.94C608.682 245.94 596.452 257.688 596.452 273.212C596.452 288.667 608.682 300.637 624.465 300.637C640.244 300.637 652.473 288.667 652.473 273.212C652.473 257.757 640.244 245.94 624.465 245.94ZM624.543 292.457C614.193 292.457 605.523 283.956 605.523 273.212C605.523 262.468 614.125 254.12 624.543 254.12C634.893 254.12 643.349 262.468 643.349 273.212C643.349 283.956 634.878 292.457 624.543 292.457ZM390.299 246.177H381.393V300.261H413.176V291.997H390.299V246.177ZM577.647 264.642C577.647 252.894 569.87 246.177 556.347 246.177H534.9V300.261H543.81V283.956H556.337C557.167 283.956 557.997 283.956 558.744 283.887L568.415 300.261H578.53L566.687 282.186C573.727 279.399 577.647 273.296 577.647 264.642ZM556.347 275.776H543.82V254.371H556.347C564.505 254.371 569.191 257.771 569.191 264.878C569.191 272.223 564.505 275.776 556.347 275.776Z" fill="white"/>
<path d="M732.671 84.7899H706.523C705.312 84.7899 704.331 83.7864 704.331 82.5464V55.7899C704.331 53.5599 702.549 51.7344 700.366 51.7344H680.053C677.87 51.7344 676.088 53.5599 676.088 55.7899V82.5464C676.088 83.7864 675.107 84.7899 673.896 84.7899H647.748C645.571 84.7899 643.789 86.6154 643.789 88.8449V109.637C643.789 111.867 645.571 113.692 647.748 113.692H673.896C675.107 113.692 676.088 114.696 676.088 115.936V142.692C676.088 144.922 677.87 146.747 680.053 146.747H700.366C702.549 146.747 704.331 144.922 704.331 142.692V115.936C704.331 114.696 705.312 113.692 706.523 113.692H732.671C734.848 113.692 736.63 111.867 736.63 109.637V88.8449C736.615 86.6014 734.848 84.7899 732.671 84.7899Z" fill="black"/>
</svg>
