<?xml version="1.0" encoding="UTF-8"?>
<svg xmlns="http://www.w3.org/2000/svg" xmlns:xlink="http://www.w3.org/1999/xlink" width="300px" height="114px" viewBox="0 0 300 114" version="1.1">
<g id="surface1">
<path style=" stroke:none;fill-rule:nonzero;fill:rgb(13.725491%,12.156863%,12.54902%);fill-opacity:1;" d="M 203.878906 22.160156 C 209.703125 26.839844 211.628906 33.902344 212.613281 41.003906 C 212.613281 44.125 212.613281 47.25 212.613281 50.464844 C 198.789062 50.464844 184.964844 50.464844 170.722656 50.464844 C 173 56.171875 175.308594 59.632812 180.769531 62.351562 C 185.867188 64.210938 191.902344 63.546875 196.832031 61.542969 C 198.550781 60.648438 199.984375 59.589844 201.410156 58.285156 C 202.253906 57.675781 202.253906 57.675781 204.054688 57.675781 C 204.976562 58.527344 205.773438 59.351562 206.585938 60.296875 C 206.808594 60.542969 207.027344 60.789062 207.257812 61.042969 C 208.226562 62.136719 209.097656 63.21875 209.910156 64.433594 C 205.027344 70.136719 198.328125 72.925781 190.992188 73.898438 C 182.703125 74.40625 174.160156 73.480469 167.578125 67.953125 C 167.277344 67.683594 166.976562 67.414062 166.667969 67.136719 C 166.382812 66.894531 166.101562 66.648438 165.8125 66.394531 C 160.945312 61.875 158.226562 55.066406 157.957031 48.492188 C 157.816406 39.398438 159.378906 31.632812 165.765625 24.78125 C 175.589844 15.460938 192.84375 14.0625 203.878906 22.160156 Z M 176.578125 30.191406 C 175.976562 30.578125 175.976562 30.578125 175.367188 30.976562 C 172.230469 34.03125 171.460938 36.636719 170.269531 41.003906 C 180.527344 41.003906 190.785156 41.003906 201.351562 41.003906 C 200.871094 36.679688 200.175781 33.71875 196.988281 30.695312 C 190.921875 25.878906 182.898438 26.007812 176.578125 30.191406 Z M 176.578125 30.191406 "/>
<path style=" stroke:none;fill-rule:nonzero;fill:rgb(13.725491%,12.156863%,12.54902%);fill-opacity:1;" d="M 56.277344 22.867188 C 61.035156 27.410156 63.296875 34.179688 63.964844 40.554688 C 63.964844 43.824219 63.964844 47.097656 63.964844 50.464844 C 50.140625 50.464844 36.316406 50.464844 22.070312 50.464844 C 24.339844 56.132812 26.511719 59.453125 31.980469 62.179688 C 36.945312 64.273438 42.4375 63.664062 47.410156 61.871094 C 49.445312 61 51.039062 59.757812 52.699219 58.300781 C 53.605469 57.675781 53.605469 57.675781 55.40625 57.675781 C 56.105469 58.191406 56.105469 58.191406 56.765625 58.910156 C 57 59.167969 57.238281 59.425781 57.484375 59.691406 C 57.726562 59.964844 57.96875 60.238281 58.222656 60.519531 C 58.46875 60.789062 58.71875 61.054688 58.976562 61.332031 C 60.8125 63.355469 60.8125 63.355469 60.8125 64.886719 C 57.191406 70.261719 49.71875 72.488281 43.765625 73.707031 C 35.660156 74.78125 26.585938 73.804688 19.902344 68.773438 C 19.269531 68.234375 18.640625 67.691406 18.019531 67.136719 C 17.609375 66.800781 17.609375 66.800781 17.195312 66.457031 C 12.003906 61.816406 9.671875 54.820312 9.289062 48.042969 C 9.015625 39.738281 10.667969 32.277344 16.132812 25.738281 C 26.269531 15.113281 44.675781 13.949219 56.277344 22.867188 Z M 27.929688 30.191406 C 27.527344 30.441406 27.128906 30.691406 26.71875 30.949219 C 23.804688 33.863281 22.804688 37.058594 21.621094 41.003906 C 31.878906 41.003906 42.136719 41.003906 52.703125 41.003906 C 52.234375 36.328125 51.683594 33.90625 48.339844 30.726562 C 42.304688 25.851562 34.246094 26.023438 27.929688 30.191406 Z M 27.929688 30.191406 "/>
<path style=" stroke:none;fill-rule:nonzero;fill:rgb(13.333334%,12.156863%,12.54902%);fill-opacity:1;" d="M 110.8125 22.53125 C 110.144531 24.78125 109.175781 26.734375 108.050781 28.78125 C 107.882812 29.089844 107.714844 29.402344 107.542969 29.722656 C 107.132812 30.480469 106.71875 31.234375 106.304688 31.992188 C 105.148438 31.539062 104.007812 31.070312 102.875 30.558594 C 97.277344 28.066406 91.03125 26.1875 85.085938 28.429688 C 83.90625 28.996094 83.390625 29.421875 82.882812 30.640625 C 82.589844 32.632812 82.675781 33.488281 83.820312 35.164062 C 85.101562 36.621094 86.554688 37.257812 88.371094 37.851562 C 88.683594 37.960938 88.996094 38.070312 89.3125 38.179688 C 91.371094 38.898438 93.445312 39.5625 95.515625 40.238281 C 101.082031 42.0625 106.902344 44 110.125 49.3125 C 110.574219 50.292969 110.949219 51.238281 111.261719 52.269531 C 111.347656 52.542969 111.429688 52.820312 111.519531 53.101562 C 112.351562 57.265625 111.972656 61.617188 109.910156 65.335938 C 106.589844 70.175781 101.917969 72.546875 96.25 73.6875 C 86.714844 74.902344 77.59375 73.097656 69.433594 67.925781 C 68.394531 67.078125 68.003906 66.589844 67.566406 65.335938 C 67.835938 64.386719 67.835938 64.386719 68.367188 63.386719 C 68.550781 63.027344 68.738281 62.664062 68.929688 62.292969 C 69.128906 61.921875 69.332031 61.550781 69.539062 61.167969 C 69.835938 60.601562 69.835938 60.601562 70.136719 60.019531 C 70.625 59.085938 71.121094 58.152344 71.621094 57.226562 C 73.175781 57.800781 74.488281 58.484375 75.871094 59.394531 C 81.511719 62.847656 88.304688 64.554688 94.871094 63.308594 C 96.855469 62.648438 98.101562 61.761719 99.097656 59.929688 C 99.386719 57.636719 99.097656 56.371094 97.746094 54.523438 C 93.839844 51.890625 89.09375 50.675781 84.636719 49.308594 C 79.683594 47.738281 74.789062 45.550781 71.945312 40.976562 C 69.828125 36.730469 69.882812 31.988281 71.171875 27.484375 C 72.699219 23.691406 75.300781 21.355469 78.828125 19.375 C 89.226562 14.949219 101.335938 16.714844 110.8125 22.53125 Z M 110.8125 22.53125 "/>
<path style=" stroke:none;fill-rule:nonzero;fill:rgb(13.725491%,12.156863%,12.54902%);fill-opacity:1;" d="M 123.875 4.507812 C 128.035156 4.507812 132.199219 4.507812 136.488281 4.507812 C 136.488281 9.5625 136.488281 14.617188 136.488281 19.824219 C 141.835938 19.824219 147.1875 19.824219 152.703125 19.824219 C 152.703125 22.949219 152.703125 26.070312 152.703125 29.289062 C 147.351562 29.289062 142 29.289062 136.488281 29.289062 C 136.527344 34.429688 136.527344 34.429688 136.582031 39.566406 C 136.605469 41.664062 136.628906 43.761719 136.640625 45.859375 C 136.652344 47.550781 136.671875 49.242188 136.695312 50.933594 C 136.703125 51.578125 136.707031 52.222656 136.710938 52.867188 C 136.714844 53.773438 136.726562 54.675781 136.742188 55.582031 C 136.75 56.351562 136.75 56.351562 136.757812 57.140625 C 136.960938 58.773438 137.449219 59.871094 138.289062 61.28125 C 140.175781 62.621094 142.375 62.449219 144.59375 62.183594 C 145.929688 61.78125 147.203125 61.308594 148.492188 60.773438 C 149.550781 60.378906 149.550781 60.378906 150.902344 60.378906 C 151.355469 61.691406 151.804688 63.007812 152.253906 64.320312 C 152.382812 64.695312 152.511719 65.066406 152.644531 65.449219 C 152.824219 65.988281 152.824219 65.988281 153.011719 66.539062 C 153.125 66.871094 153.238281 67.199219 153.355469 67.539062 C 153.605469 68.488281 153.605469 68.488281 153.605469 70.292969 C 147.230469 73.410156 140.316406 75.496094 133.304688 73.164062 C 129.644531 71.578125 126.886719 69.46875 125.226562 65.785156 C 123.84375 61.4375 123.691406 57.171875 123.742188 52.652344 C 123.746094 51.976562 123.746094 51.296875 123.746094 50.617188 C 123.753906 48.851562 123.765625 47.089844 123.78125 45.324219 C 123.796875 43.511719 123.800781 41.703125 123.808594 39.894531 C 123.824219 36.359375 123.847656 32.824219 123.875 29.289062 C 121.347656 29.289062 118.820312 29.289062 116.214844 29.289062 C 116.214844 26.164062 116.214844 23.042969 116.214844 19.824219 C 118.742188 19.824219 121.269531 19.824219 123.875 19.824219 C 123.875 14.769531 123.875 9.714844 123.875 4.507812 Z M 123.875 4.507812 "/>
<path style=" stroke:none;fill-rule:nonzero;fill:rgb(13.725491%,12.156863%,12.54902%);fill-opacity:1;" d="M 253.378906 22.410156 C 253.777344 22.410156 254.175781 22.40625 254.589844 22.40625 C 255.007812 22.410156 255.425781 22.414062 255.855469 22.417969 C 256.273438 22.414062 256.691406 22.410156 257.121094 22.40625 C 257.722656 22.40625 257.722656 22.40625 258.332031 22.410156 C 258.699219 22.410156 259.066406 22.410156 259.445312 22.414062 C 260.359375 22.53125 260.359375 22.53125 261.261719 23.429688 C 261.40625 24.484375 261.40625 24.484375 261.449219 25.785156 C 261.472656 26.484375 261.472656 26.484375 261.5 27.195312 C 261.515625 27.679688 261.527344 28.167969 261.542969 28.667969 C 261.570312 29.40625 261.570312 29.40625 261.59375 30.15625 C 261.636719 31.367188 261.675781 32.582031 261.710938 33.792969 C 262.179688 33.8125 262.179688 33.8125 262.65625 33.828125 C 264.058594 33.878906 265.460938 33.9375 266.863281 33.992188 C 267.355469 34.007812 267.84375 34.027344 268.351562 34.046875 C 269.046875 34.074219 269.046875 34.074219 269.761719 34.101562 C 270.195312 34.117188 270.625 34.136719 271.070312 34.152344 C 272.070312 34.246094 272.070312 34.246094 272.523438 34.695312 C 272.566406 35.394531 272.582031 36.09375 272.582031 36.792969 C 272.582031 37.21875 272.582031 37.640625 272.585938 38.078125 C 272.582031 38.523438 272.582031 38.96875 272.578125 39.425781 C 272.582031 39.871094 272.582031 40.316406 272.585938 40.777344 C 272.582031 41.199219 272.582031 41.625 272.582031 42.058594 C 272.582031 42.453125 272.582031 42.84375 272.582031 43.246094 C 272.523438 44.15625 272.523438 44.15625 272.070312 44.609375 C 271.304688 44.679688 270.53125 44.722656 269.761719 44.75 C 269.296875 44.769531 268.828125 44.789062 268.351562 44.808594 C 267.859375 44.828125 267.367188 44.84375 266.863281 44.863281 C 266.125 44.890625 266.125 44.890625 265.371094 44.921875 C 264.152344 44.96875 262.933594 45.015625 261.710938 45.058594 C 261.707031 45.351562 261.699219 45.644531 261.691406 45.949219 C 261.660156 47.277344 261.613281 48.605469 261.570312 49.929688 C 261.5625 50.394531 261.550781 50.855469 261.539062 51.328125 C 261.523438 51.773438 261.507812 52.214844 261.492188 52.671875 C 261.480469 53.078125 261.46875 53.488281 261.457031 53.910156 C 261.222656 55.179688 260.964844 55.59375 259.910156 56.324219 C 258.984375 56.492188 258.984375 56.492188 257.9375 56.488281 C 257.558594 56.488281 257.183594 56.488281 256.792969 56.488281 C 256.203125 56.476562 256.203125 56.476562 255.601562 56.464844 C 255.207031 56.464844 254.8125 56.46875 254.40625 56.46875 C 251.472656 56.445312 251.472656 56.445312 250.449219 55.421875 C 250.308594 54.371094 250.308594 54.371094 250.265625 53.066406 C 250.246094 52.601562 250.230469 52.136719 250.210938 51.660156 C 250.195312 51.171875 250.183594 50.6875 250.167969 50.183594 C 250.152344 49.695312 250.132812 49.203125 250.117188 48.699219 C 250.074219 47.484375 250.035156 46.273438 250 45.058594 C 249.6875 45.046875 249.378906 45.035156 249.054688 45.023438 C 247.652344 44.972656 246.25 44.917969 244.847656 44.863281 C 244.359375 44.84375 243.867188 44.828125 243.363281 44.808594 C 242.664062 44.78125 242.664062 44.78125 241.949219 44.75 C 241.519531 44.734375 241.085938 44.71875 240.640625 44.703125 C 239.640625 44.609375 239.640625 44.609375 239.1875 44.15625 C 239.144531 43.460938 239.128906 42.757812 239.128906 42.058594 C 239.128906 41.636719 239.128906 41.214844 239.128906 40.777344 C 239.128906 40.332031 239.132812 39.886719 239.132812 39.425781 C 239.132812 38.980469 239.128906 38.535156 239.128906 38.078125 C 239.128906 37.652344 239.128906 37.230469 239.128906 36.792969 C 239.128906 36.402344 239.128906 36.011719 239.132812 35.609375 C 239.1875 34.695312 239.1875 34.695312 239.640625 34.246094 C 240.40625 34.175781 241.179688 34.132812 241.949219 34.101562 C 242.414062 34.082031 242.882812 34.066406 243.363281 34.046875 C 243.851562 34.027344 244.34375 34.011719 244.847656 33.992188 C 245.585938 33.960938 245.585938 33.960938 246.339844 33.933594 C 247.558594 33.882812 248.78125 33.839844 250 33.792969 C 250.007812 33.484375 250.019531 33.175781 250.027344 32.855469 C 250.070312 31.460938 250.121094 30.066406 250.167969 28.667969 C 250.183594 28.183594 250.195312 27.695312 250.210938 27.195312 C 250.230469 26.730469 250.246094 26.265625 250.265625 25.785156 C 250.277344 25.355469 250.292969 24.925781 250.308594 24.484375 C 250.578125 22.488281 251.605469 22.414062 253.378906 22.410156 Z M 253.378906 22.410156 "/>
<path style=" stroke:none;fill-rule:nonzero;fill:rgb(90.196079%,69.803923%,14.117648%);fill-opacity:1;" d="M 276.578125 11.265625 C 283.503906 16.691406 288.972656 24.917969 290.089844 33.792969 C 290.882812 43.980469 289.253906 53.328125 282.855469 61.535156 C 282.273438 62.207031 281.679688 62.875 281.082031 63.535156 C 280.847656 63.808594 280.617188 64.082031 280.375 64.363281 C 275.09375 70.191406 267.429688 72.980469 259.910156 74.347656 C 259.910156 74.050781 259.910156 73.753906 259.910156 73.445312 C 260.484375 73.273438 260.484375 73.273438 261.066406 73.097656 C 269.332031 70.398438 275.882812 65.492188 280.308594 57.855469 C 284.742188 49.078125 285.453125 39.9375 282.417969 30.554688 C 279.371094 22.648438 273.6875 16.503906 266.214844 12.617188 C 257.761719 8.875 249.027344 8.375 240.238281 11.378906 C 236.414062 12.910156 232.761719 14.910156 229.875 17.90625 C 229.277344 18.472656 229.277344 18.472656 228.378906 18.472656 C 228.277344 18.714844 228.175781 18.957031 228.070312 19.207031 C 227.28125 20.628906 226.289062 21.75 225.226562 22.980469 C 224.929688 22.832031 224.628906 22.683594 224.324219 22.53125 C 229.066406 13.921875 236.65625 8.265625 246.035156 5.421875 C 256.742188 2.738281 267.503906 5.097656 276.578125 11.265625 Z M 276.578125 11.265625 "/>
<path style=" stroke:none;fill-rule:nonzero;fill:rgb(90.196079%,69.803923%,14.117648%);fill-opacity:1;" d="M 248.113281 13.039062 C 248.648438 13.046875 248.648438 13.046875 249.191406 13.050781 C 249.59375 13.058594 249.59375 13.058594 250 13.066406 C 248.542969 13.847656 247.058594 14.363281 245.496094 14.898438 C 238.652344 17.527344 232.9375 23.167969 229.730469 29.738281 C 227.042969 36.144531 226.269531 43.382812 228.6875 50.023438 C 232.207031 58.003906 237.9375 63.09375 246.027344 66.238281 C 253.121094 68.753906 260.371094 67.976562 267.144531 64.855469 C 270.316406 63.214844 272.722656 61.117188 275.226562 58.578125 C 275.226562 61.132812 272.757812 62.835938 271.050781 64.574219 C 264.71875 70.632812 257.222656 72.347656 248.734375 72.21875 C 240.578125 71.917969 233.867188 67.980469 228.378906 62.183594 C 223.320312 56.449219 220.882812 49.070312 221.058594 41.445312 C 221.820312 32.355469 225.507812 24.878906 232.433594 18.925781 C 236.820312 15.554688 242.492188 12.957031 248.113281 13.039062 Z M 248.113281 13.039062 "/>
<path style=" stroke:none;fill-rule:nonzero;fill:rgb(90.196079%,69.803923%,14.117648%);fill-opacity:1;" d="M 10.359375 90.570312 C 11.847656 90.570312 13.332031 90.570312 14.863281 90.570312 C 17.503906 95.847656 17.503906 95.847656 17.980469 96.808594 C 18.3125 97.472656 18.652344 98.132812 18.988281 98.789062 C 20.269531 101.289062 20.269531 101.289062 20.269531 102.285156 C 20.566406 102.285156 20.863281 102.285156 21.171875 102.285156 C 21.246094 102.039062 21.316406 101.792969 21.390625 101.542969 C 22.21875 98.910156 23.308594 96.558594 24.632812 94.144531 C 24.820312 93.796875 25.007812 93.453125 25.203125 93.09375 C 25.65625 92.25 26.117188 91.410156 26.578125 90.570312 C 28.0625 90.570312 29.550781 90.570312 31.082031 90.570312 C 31.082031 96.964844 31.082031 103.355469 31.082031 109.945312 C 29.890625 109.945312 28.703125 109.945312 27.476562 109.945312 C 27.328125 105.929688 27.179688 101.914062 27.027344 97.777344 C 25.5625 100.871094 25.5625 100.871094 24.101562 103.964844 C 23.921875 104.347656 23.738281 104.734375 23.550781 105.128906 C 23.273438 105.71875 23.273438 105.71875 22.988281 106.320312 C 22.523438 107.242188 22.523438 107.242188 22.070312 107.691406 C 21.171875 107.710938 20.269531 107.710938 19.371094 107.691406 C 18.628906 106.285156 17.886719 104.875 17.144531 103.46875 C 16.933594 103.066406 16.722656 102.664062 16.503906 102.253906 C 16.304688 101.871094 16.101562 101.484375 15.894531 101.089844 C 15.707031 100.738281 15.523438 100.382812 15.328125 100.019531 C 15.019531 99.425781 14.714844 98.828125 14.414062 98.230469 C 14.265625 102.09375 14.117188 105.960938 13.964844 109.945312 C 12.773438 109.945312 11.585938 109.945312 10.359375 109.945312 C 10.359375 103.550781 10.359375 97.15625 10.359375 90.570312 Z M 10.359375 90.570312 "/>
<path style=" stroke:none;fill-rule:nonzero;fill:rgb(90.196079%,69.803923%,14.117648%);fill-opacity:1;" d="M 61.261719 90.570312 C 62.953125 90.523438 64.644531 90.476562 66.386719 90.429688 C 66.910156 90.40625 67.433594 90.386719 67.972656 90.367188 C 71.269531 90.324219 73.871094 90.851562 76.578125 92.820312 C 78.679688 95.375 79.449219 97.78125 79.402344 101.066406 C 79.128906 103.738281 78.082031 105.691406 76.265625 107.636719 C 71.269531 110.84375 67.4375 109.945312 61.261719 109.945312 C 61.261719 103.550781 61.261719 97.15625 61.261719 90.570312 Z M 64.863281 93.722656 C 64.863281 97.886719 64.863281 102.050781 64.863281 106.339844 C 70.574219 106.738281 70.574219 106.738281 74.4375 104.003906 C 75.433594 102.398438 75.8125 101 75.675781 99.128906 C 75.101562 97.046875 74.191406 95.796875 72.550781 94.398438 C 70.128906 93.386719 70.128906 93.386719 64.863281 93.722656 Z M 64.863281 93.722656 "/>
<path style=" stroke:none;fill-rule:nonzero;fill:rgb(90.196079%,69.803923%,14.117648%);fill-opacity:1;" d="M 237.667969 91.300781 C 240.007812 92.738281 241.484375 94.71875 242.34375 97.328125 C 242.71875 100.777344 242.738281 103.578125 240.539062 106.339844 C 238.085938 108.898438 235.882812 109.945312 232.320312 110.140625 C 229.171875 110.070312 226.558594 109.085938 224.359375 106.785156 C 222.121094 103.898438 221.675781 101.398438 222.070312 97.777344 C 222.8125 95.128906 224.046875 93.238281 226.296875 91.640625 C 229.679688 89.855469 234.15625 89.730469 237.667969 91.300781 Z M 226.863281 96.207031 C 225.625 98.035156 225.453125 99.609375 225.824219 101.769531 C 226.523438 104.007812 227.902344 105.144531 229.84375 106.339844 C 232.007812 106.917969 233.527344 106.746094 235.585938 105.890625 C 237.011719 104.738281 238.183594 103.601562 238.738281 101.835938 C 238.949219 99.664062 238.972656 98.675781 237.949219 96.738281 C 236.273438 94.730469 234.960938 93.835938 232.320312 93.582031 C 229.992188 93.777344 228.441406 94.460938 226.863281 96.207031 Z M 226.863281 96.207031 "/>
<path style=" stroke:none;fill-rule:nonzero;fill:rgb(90.196079%,69.803923%,14.509805%);fill-opacity:1;" d="M 200 90.570312 C 201.792969 90.53125 203.585938 90.496094 205.433594 90.457031 C 205.992188 90.441406 206.550781 90.421875 207.128906 90.40625 C 210.113281 90.375 212.015625 90.535156 214.414062 92.371094 C 215.941406 94.492188 216.101562 96.601562 215.765625 99.128906 C 215.03125 101.074219 214.085938 102.210938 212.613281 103.636719 C 212.871094 104.015625 213.132812 104.394531 213.402344 104.789062 C 213.738281 105.285156 214.078125 105.785156 214.414062 106.285156 C 214.917969 107.019531 214.917969 107.019531 215.429688 107.773438 C 216.214844 109.042969 216.214844 109.042969 216.214844 109.945312 C 214.792969 110.199219 213.574219 110.289062 212.164062 109.945312 C 210.980469 108.738281 210.242188 107.375 209.460938 105.890625 C 209.164062 105.441406 208.863281 104.996094 208.558594 104.539062 C 207.363281 104.273438 207.363281 104.273438 206.023438 104.226562 C 205.226562 104.179688 204.425781 104.136719 203.605469 104.085938 C 203.605469 106.019531 203.605469 107.953125 203.605469 109.945312 C 202.414062 109.945312 201.226562 109.945312 200 109.945312 C 200 103.550781 200 97.15625 200 90.570312 Z M 203.605469 93.722656 C 203.605469 96.101562 203.605469 98.480469 203.605469 100.933594 C 207.878906 101.207031 207.878906 101.207031 211.710938 99.582031 C 212.398438 98.207031 212.269531 97.039062 212.164062 95.527344 C 211.335938 94.347656 210.851562 94.1875 209.460938 93.722656 C 207.507812 93.664062 205.558594 93.703125 203.605469 93.722656 Z M 203.605469 93.722656 "/>
<path style=" stroke:none;fill-rule:nonzero;fill:rgb(90.196079%,70.19608%,14.117648%);fill-opacity:1;" d="M 39.640625 90.570312 C 44.246094 90.570312 48.855469 90.570312 53.605469 90.570312 C 53.605469 91.609375 53.605469 92.652344 53.605469 93.722656 C 50.183594 93.722656 46.765625 93.722656 43.242188 93.722656 C 43.242188 95.210938 43.242188 96.695312 43.242188 98.230469 C 46.214844 98.230469 49.1875 98.230469 52.253906 98.230469 C 52.253906 99.417969 52.253906 100.609375 52.253906 101.835938 C 49.277344 101.835938 46.304688 101.835938 43.242188 101.835938 C 43.242188 103.320312 43.242188 104.808594 43.242188 106.339844 C 46.664062 106.339844 50.082031 106.339844 53.605469 106.339844 C 53.605469 107.53125 53.605469 108.71875 53.605469 109.945312 C 48.996094 109.945312 44.386719 109.945312 39.640625 109.945312 C 39.640625 103.550781 39.640625 97.15625 39.640625 90.570312 Z M 39.640625 90.570312 "/>
<path style=" stroke:none;fill-rule:nonzero;fill:rgb(90.196079%,69.803923%,14.117648%);fill-opacity:1;" d="M 127.957031 90.523438 C 128.515625 90.53125 128.515625 90.53125 129.082031 90.539062 C 129.453125 90.546875 129.828125 90.550781 130.210938 90.554688 C 130.496094 90.558594 130.785156 90.5625 131.082031 90.570312 C 132.238281 93.183594 133.394531 95.796875 134.546875 98.414062 C 134.9375 99.304688 135.332031 100.191406 135.726562 101.082031 C 136.289062 102.359375 136.851562 103.636719 137.414062 104.914062 C 137.59375 105.3125 137.769531 105.714844 137.953125 106.125 C 138.117188 106.496094 138.277344 106.863281 138.445312 107.246094 C 138.589844 107.570312 138.734375 107.898438 138.882812 108.234375 C 139.1875 109.042969 139.1875 109.042969 139.1875 109.945312 C 137.851562 109.945312 136.511719 109.945312 135.136719 109.945312 C 134.539062 108.605469 133.945312 107.269531 133.332031 105.890625 C 130.359375 105.890625 127.386719 105.890625 124.324219 105.890625 C 123.730469 107.226562 123.136719 108.566406 122.523438 109.945312 C 121.332031 109.945312 120.144531 109.945312 118.917969 109.945312 C 119.1875 107.546875 119.988281 105.613281 120.972656 103.445312 C 121.210938 102.910156 121.210938 102.910156 121.453125 102.367188 C 121.785156 101.621094 122.121094 100.875 122.457031 100.132812 C 122.972656 98.988281 123.484375 97.839844 123.996094 96.695312 C 124.320312 95.96875 124.648438 95.242188 124.972656 94.515625 C 125.125 94.171875 125.28125 93.828125 125.4375 93.476562 C 126.746094 90.582031 126.746094 90.582031 127.957031 90.523438 Z M 128.378906 95.527344 C 127.925781 96.566406 127.476562 97.609375 127.027344 98.652344 C 126.898438 98.949219 126.769531 99.246094 126.636719 99.550781 C 125.964844 100.871094 125.964844 100.871094 125.675781 102.285156 C 127.757812 102.285156 129.835938 102.285156 131.980469 102.285156 C 131.621094 101.335938 131.257812 100.390625 130.882812 99.410156 C 130.679688 98.878906 130.476562 98.34375 130.265625 97.796875 C 129.777344 96.488281 129.777344 96.488281 129.277344 95.527344 C 128.980469 95.527344 128.683594 95.527344 128.378906 95.527344 Z M 128.378906 95.527344 "/>
<path style=" stroke:none;fill-rule:nonzero;fill:rgb(90.196079%,69.803923%,14.117648%);fill-opacity:1;" d="M 189.070312 90.910156 C 190.035156 91.359375 190.035156 91.359375 191.441406 92.371094 C 191.753906 93.335938 191.753906 93.335938 191.890625 94.175781 C 191.148438 94.769531 190.40625 95.363281 189.640625 95.976562 C 189.195312 95.679688 188.746094 95.382812 188.289062 95.074219 C 186.363281 93.984375 185.078125 93.929688 182.882812 94.175781 C 181 94.882812 179.863281 95.589844 178.828125 97.328125 C 178.285156 98.957031 178.234375 100.117188 178.378906 101.835938 C 179.308594 103.558594 180.242188 104.945312 181.980469 105.890625 C 184.417969 106.488281 185.984375 106.238281 188.289062 105.4375 C 188.4375 103.65625 188.585938 101.871094 188.738281 100.03125 C 189.777344 100.03125 190.820312 100.03125 191.890625 100.03125 C 191.890625 102.558594 191.890625 105.085938 191.890625 107.691406 C 187.972656 109.683594 184.476562 110.839844 180.066406 109.492188 C 177.613281 108.433594 175.855469 106.273438 174.699219 103.910156 C 173.835938 101.199219 173.859375 97.992188 174.972656 95.355469 C 177.789062 90.480469 184.03125 89.519531 189.070312 90.910156 Z M 189.070312 90.910156 "/>
<path style=" stroke:none;fill-rule:nonzero;fill:rgb(90.196079%,69.803923%,14.509805%);fill-opacity:1;" d="M 274.324219 90.570312 C 276.902344 90.511719 276.902344 90.511719 279.53125 90.457031 C 280.066406 90.441406 280.605469 90.421875 281.15625 90.40625 C 284.09375 90.375 285.917969 90.582031 288.289062 92.371094 C 289.90625 94.5625 290.027344 96.949219 289.640625 99.582031 C 288.460938 101.894531 287.144531 103.265625 284.683594 104.085938 C 283.527344 104.117188 282.378906 104.128906 281.222656 104.113281 C 280.90625 104.113281 280.589844 104.109375 280.265625 104.109375 C 279.484375 104.105469 278.707031 104.09375 277.929688 104.085938 C 277.929688 106.019531 277.929688 107.953125 277.929688 109.945312 C 276.738281 109.945312 275.550781 109.945312 274.324219 109.945312 C 274.324219 103.550781 274.324219 97.15625 274.324219 90.570312 Z M 277.929688 93.722656 C 277.929688 96.101562 277.929688 98.480469 277.929688 100.933594 C 281.964844 101.164062 281.964844 101.164062 285.585938 99.582031 C 286.273438 98.207031 286.140625 97.039062 286.035156 95.527344 C 285.210938 94.347656 284.726562 94.1875 283.332031 93.722656 C 281.53125 93.664062 279.734375 93.703125 277.929688 93.722656 Z M 277.929688 93.722656 "/>
<path style=" stroke:none;fill-rule:nonzero;fill:rgb(90.196079%,69.803923%,14.117648%);fill-opacity:1;" d="M 249.097656 90.570312 C 250.289062 90.570312 251.476562 90.570312 252.703125 90.570312 C 252.710938 90.921875 252.714844 91.277344 252.722656 91.644531 C 252.757812 93.257812 252.800781 94.871094 252.84375 96.484375 C 252.855469 97.039062 252.863281 97.597656 252.875 98.171875 C 252.890625 98.714844 252.90625 99.253906 252.921875 99.808594 C 252.933594 100.304688 252.945312 100.800781 252.957031 101.3125 C 253.179688 102.929688 253.675781 104.039062 254.503906 105.4375 C 255.890625 106.308594 257.410156 106.460938 259.011719 106.183594 C 259.992188 105.878906 259.992188 105.878906 261.261719 104.988281 C 262.054688 103.128906 262.289062 101.464844 262.347656 99.457031 C 262.367188 98.9375 262.382812 98.417969 262.402344 97.882812 C 262.414062 97.347656 262.429688 96.808594 262.445312 96.257812 C 262.460938 95.710938 262.480469 95.164062 262.496094 94.601562 C 262.539062 93.257812 262.578125 91.914062 262.613281 90.570312 C 263.800781 90.570312 264.992188 90.570312 266.214844 90.570312 C 266.253906 92.597656 266.28125 94.625 266.300781 96.652344 C 266.3125 97.222656 266.324219 97.796875 266.335938 98.382812 C 266.363281 102.167969 266.269531 105.042969 263.824219 108.085938 C 261.167969 110.183594 258.230469 110.316406 254.953125 109.945312 C 252.851562 109.328125 251.636719 108.492188 250.253906 106.789062 C 249.140625 104.65625 249.042969 103.007812 249.054688 100.601562 C 249.054688 100.019531 249.058594 99.433594 249.058594 98.832031 C 249.0625 98.21875 249.066406 97.605469 249.070312 96.988281 C 249.074219 96.367188 249.074219 95.746094 249.078125 95.125 C 249.082031 93.605469 249.089844 92.089844 249.097656 90.570312 Z M 249.097656 90.570312 "/>
<path style=" stroke:none;fill-rule:nonzero;fill:rgb(90.196079%,69.803923%,14.117648%);fill-opacity:1;" d="M 111.605469 91.011719 C 113.277344 91.988281 113.277344 91.988281 113.964844 92.820312 C 113.964844 94.625 113.964844 94.625 113.289062 95.414062 C 113.066406 95.597656 112.84375 95.785156 112.613281 95.976562 C 112.363281 95.847656 112.109375 95.714844 111.851562 95.582031 C 111.507812 95.414062 111.164062 95.246094 110.8125 95.074219 C 110.46875 94.90625 110.125 94.742188 109.769531 94.566406 C 107.605469 93.863281 105.761719 93.871094 103.714844 94.878906 C 102.011719 95.972656 101.425781 97.160156 100.902344 99.128906 C 100.820312 101.007812 101.152344 102.421875 102.167969 104.03125 C 103.617188 105.441406 104.84375 106.023438 106.871094 106.058594 C 109.15625 106.019531 110.65625 105.226562 112.613281 104.085938 C 114.386719 105.59375 114.386719 105.59375 114.5 106.789062 C 113.527344 108.425781 111.710938 109.21875 109.9375 109.761719 C 106.507812 110.4375 103.402344 110.066406 100.449219 108.140625 C 98.253906 106.199219 97.050781 104.1875 96.734375 101.242188 C 96.601562 98.496094 97.003906 96.40625 98.648438 94.175781 C 102.15625 90.511719 106.691406 89.265625 111.605469 91.011719 Z M 111.605469 91.011719 "/>
<path style=" stroke:none;fill-rule:nonzero;fill:rgb(90.588236%,69.803923%,14.509805%);fill-opacity:1;" d="M 145.046875 90.570312 C 146.234375 90.570312 147.421875 90.570312 148.648438 90.570312 C 148.648438 95.773438 148.648438 100.976562 148.648438 106.339844 C 151.324219 106.339844 154 106.339844 156.757812 106.339844 C 156.757812 107.53125 156.757812 108.71875 156.757812 109.945312 C 152.890625 109.945312 149.027344 109.945312 145.046875 109.945312 C 145.046875 103.550781 145.046875 97.15625 145.046875 90.570312 Z M 145.046875 90.570312 "/>
<path style=" stroke:none;fill-rule:nonzero;fill:rgb(90.196079%,69.803923%,14.117648%);fill-opacity:1;" d="M 86.035156 90.570312 C 87.375 90.570312 88.710938 90.570312 90.089844 90.570312 C 90.089844 96.964844 90.089844 103.355469 90.089844 109.945312 C 88.753906 109.945312 87.414062 109.945312 86.035156 109.945312 C 86.035156 103.550781 86.035156 97.15625 86.035156 90.570312 Z M 86.035156 90.570312 "/>
</g>
</svg>
