<svg width="106" height="39" viewBox="0 0 106 39" fill="none" xmlns="http://www.w3.org/2000/svg">
<path d="M97.7609 4.25747C103.587 7.73121 105.385 15.0968 101.777 20.7064C100.017 23.4437 97.2938 25.2536 94.291 25.9901C98.0125 25.4993 101.486 23.4734 103.618 20.1582C107.41 14.2621 105.52 6.5224 99.3971 2.86933C93.274 -0.781803 85.2363 1.03769 81.4428 6.93358C81.3133 7.1357 81.191 7.34129 81.0725 7.54861C84.8205 2.4009 92.1378 0.904751 97.7609 4.25747Z" fill="black"/>
<path d="M85.9696 21.8157C81.3297 18.4751 80.4404 12.731 83.9096 8.26317C85.6021 6.08282 87.8202 4.43986 90.4052 4.03367C87.2329 4.18179 84.1517 5.64215 82.1016 8.28096C78.4556 12.9772 79.4528 19.6314 84.3298 23.1422C89.2069 26.6531 96.1171 25.6928 99.7633 20.9966C99.889 20.835 100.008 20.6717 100.121 20.5047C96.5714 24.5772 90.4471 25.0402 85.9696 21.8157Z" fill="black"/>
<path d="M16.8134 14.2322C16.656 10.9999 14.4317 9.04504 11.0348 9.04569C7.75479 9.04612 5.41256 11.0385 4.94614 14.234L16.8134 14.2322ZM20.7179 17.3885L5.02316 17.3908C5.72606 20.4738 8.18563 22.3898 11.4659 22.3894C13.7297 22.3889 15.7983 21.5614 17.3215 20.0574L19.7045 22.5006C17.6744 24.6441 14.7083 25.8848 11.1161 25.8852C4.71259 25.8863 0.495896 21.7884 0.494995 15.7754C0.493869 9.72361 4.8261 5.62444 10.9941 5.5867C18.2969 5.58562 21.2641 10.1701 20.7179 17.3885Z" fill="black"/>
<path d="M30.6993 9.00392C28.9424 9.00414 27.6546 9.5682 27.6548 10.9965C27.6555 14.6803 38.7032 12.6865 38.6663 19.9417C38.6669 24.04 34.8797 25.8816 30.7022 25.8823C27.6573 25.8827 24.4172 24.9064 22.3463 23.101L23.9456 20.0176C25.741 21.558 28.6309 22.4974 30.895 22.497C32.8087 22.4968 34.2917 21.857 34.2915 20.3533C34.2908 16.255 23.3598 18.5509 23.3969 11.3326C23.3963 7.27291 27.0646 5.54385 31.0473 5.5432C33.6634 5.54276 36.4346 6.2942 38.3084 7.57109L36.6688 10.7668C34.8369 9.67967 32.5346 9.0037 30.6993 9.00392Z" fill="black"/>
<path d="M54.3872 24.4503C52.7472 25.3904 51.0306 25.9159 49.2739 25.9161C46.1506 25.9168 43.4557 24.1886 43.455 20.0901L43.4532 9.71505L40.5252 9.71548L40.5248 6.48334L43.4528 6.48291L43.4519 0.994936L47.9033 0.994284L47.9042 6.48204L54.0338 6.48117L54.0345 9.71353L47.9046 9.7144L47.9062 19.3007C47.9066 21.3683 48.726 22.0076 50.1324 22.0074C51.0702 22.0074 52.0461 21.7068 53.2555 21.1427L54.3872 24.4503Z" fill="black"/>
<path d="M72.4956 14.2236C72.3382 10.9912 70.114 9.0364 66.7171 9.03705C63.437 9.03749 61.0948 11.0298 60.6284 14.2253L72.4956 14.2236ZM76.4002 17.3798L60.7054 17.3822C61.4083 20.4652 63.8679 22.3812 67.1481 22.3807C69.412 22.3803 71.4808 21.5527 73.0037 20.0488L75.3867 22.492C73.3566 24.6355 70.3905 25.8761 66.7984 25.8766C60.3948 25.8777 56.1781 21.7798 56.1772 15.7668C56.1761 9.71497 60.5083 5.6158 66.6763 5.57807C73.9773 5.57698 76.9445 10.1615 76.4002 17.3798Z" fill="black"/>
<path d="M74.8107 35.7462L73.1324 35.7464L73.1319 33.0482L74.8102 33.048C75.903 33.0478 76.5306 33.4763 76.5309 34.3722C76.5309 35.298 75.9034 35.746 74.8107 35.7462ZM77.6637 34.3422C77.6635 32.8613 76.6216 32.0146 74.81 32.0151L71.9367 32.0155L71.9378 38.8331H73.131L73.1306 36.7776L74.8091 36.7774C74.9203 36.7774 75.0316 36.7774 75.1318 36.7685L76.4275 38.8324L77.783 38.8322L76.1955 36.554C77.1385 36.2025 77.6639 35.4331 77.6637 34.3422ZM52.5642 32.0185H51.371L51.3721 38.8363L55.6303 38.8357L55.63 37.7941L52.5651 37.7945L52.5642 32.0185ZM83.9472 37.8476C82.5607 37.8479 81.3984 36.7763 81.3982 35.422C81.398 34.0675 82.5508 33.015 83.9465 33.0148C85.3329 33.0146 86.466 34.0668 86.4662 35.4211C86.4664 36.7757 85.332 37.8474 83.9472 37.8476ZM83.9355 31.9836C81.8209 31.9841 80.1829 33.4652 80.1832 35.4222C80.1836 37.3703 81.822 38.879 83.9366 38.8788C86.0509 38.8784 87.6889 37.3692 87.6887 35.4209C87.6882 33.4728 86.0498 31.9834 83.9355 31.9836ZM102.5 35.7419L100.922 35.7421L100.922 33.0439L102.5 33.0437C103.593 33.0434 104.21 33.472 104.21 34.3678C104.21 35.2936 103.591 35.7417 102.5 35.7419ZM102.549 32.0107L99.7268 32.0112L99.728 38.829L100.921 38.8287L100.921 36.7733L102.55 36.7731C104.33 36.7729 105.352 35.8768 105.352 34.3379C105.351 32.8569 104.33 32.0105 102.549 32.0107ZM95.307 36.0047C95.3072 37.1643 94.5886 37.8459 93.4357 37.8461C92.2718 37.8463 91.5347 37.1543 91.5344 36.0054L91.5338 32.0125L90.3406 32.0127L90.3412 36.0056C90.3415 37.7887 91.5148 38.8793 93.4267 38.879C95.3385 38.8788 96.5024 37.7876 96.502 36.0045L96.5013 32.0116L95.3084 32.0118L95.309 36.0047H95.307ZM43.8353 36.2762L45.1704 33.2475L46.5061 36.2758L43.8353 36.2762ZM44.5936 32.0196L41.4697 38.8378L42.714 38.8376L43.3905 37.2988L46.9606 37.2981L47.6396 38.837L48.9148 38.8368L45.8176 32.0194L44.5936 32.0196ZM66.0498 33.0107C66.7885 33.0105 67.5475 33.3019 68.0932 33.7903L68.7697 32.9435C68.0711 32.3586 67.0603 31.9899 66.0478 31.9899C63.9042 31.9904 62.2552 33.4802 62.2556 35.4285C62.2558 37.3766 63.8853 38.8853 65.9777 38.8851C66.9484 38.8849 68.0101 38.5247 68.7287 37.9975L68.7283 35.4853L67.6867 35.4856L67.6869 37.3846C67.1815 37.6763 66.5852 37.852 66.0579 37.8522C64.6111 37.8524 63.4689 36.7915 63.4686 35.4266C63.4704 34.072 64.603 33.0109 66.0498 33.0107ZM12.9804 35.9297L16.4393 35.9293L16.4391 34.9067L12.9802 34.9074L12.98 33.0558L16.8438 33.0552V32.0222L11.7866 32.0231L11.7877 38.8407L16.967 38.84V37.8071L12.9825 37.8075L12.9822 35.9297H12.9804ZM4.6653 36.5547L2.32757 32.0261L0.911865 32.0264L0.912992 38.8441L2.03478 38.8439L2.03411 33.7496L4.27139 38.1322H5.05041L7.28454 33.7487L7.29625 38.8433L8.39823 38.843L8.3971 32.0253L6.99041 32.0255L4.6653 36.5547ZM29.2977 38.8398L30.4909 38.8396L30.4898 32.0218L29.2966 32.022L29.2977 38.8398ZM22.8741 37.8097L21.1337 37.8099L21.1328 33.0562L22.8221 33.056C24.2178 33.0558 25.2999 34.0499 25.3001 35.443C25.3022 36.8256 24.2495 37.8095 22.8741 37.8097ZM22.8421 32.0231L19.9396 32.0235L19.9407 38.8413L22.814 38.8409C24.9576 38.8404 26.5062 37.3979 26.5059 35.4305C26.5055 33.4542 24.9675 32.0227 22.8421 32.0231ZM37.0273 37.8162C35.6116 37.8164 34.4986 36.7555 34.4984 35.4099C34.4981 34.066 35.6107 33.0135 37.0264 33.0133C37.7453 33.0133 38.4842 33.3451 38.9986 33.8792L39.6954 33.0411C39.0076 32.3894 38.0059 31.989 37.0043 31.9893C34.9101 31.9895 33.2831 33.4796 33.2833 35.419C33.2836 37.3777 34.8929 38.8864 36.9654 38.886C37.9669 38.8858 38.9885 38.4466 39.7071 37.7648L38.9993 37.0043C38.463 37.505 37.7351 37.816 37.0273 37.8162Z" fill="black"/>
<path d="M98.4281 11.6671L94.9253 11.6677C94.7629 11.6677 94.6316 11.5411 94.6316 11.385L94.631 8.01207C94.631 7.73101 94.392 7.50092 94.1001 7.50092L91.3782 7.50135C91.0863 7.50135 90.8474 7.73145 90.8474 8.0125L90.848 11.3854C90.848 11.5418 90.7167 11.6684 90.5543 11.6684L87.0516 11.6688C86.7597 11.6688 86.5208 11.8991 86.5208 12.1802L86.5212 14.8012C86.5212 15.0823 86.7604 15.3124 87.0523 15.3122L90.5548 15.3117C90.7172 15.3117 90.8487 15.4382 90.8487 15.5945L90.8492 18.9674C90.8492 19.2485 91.0883 19.4786 91.3802 19.4786L94.1022 19.4781C94.394 19.4779 94.633 19.2478 94.6328 18.9668L94.6323 15.5939C94.6323 15.4375 94.7636 15.3111 94.926 15.3111L98.4288 15.3104C98.7206 15.3104 98.9596 15.0803 98.9596 14.7993L98.9591 12.1782C98.9571 11.8955 98.72 11.6671 98.4281 11.6671Z" fill="black"/>
</svg>
