<svg width="175" height="85" viewBox="0 0 175 85" fill="none" xmlns="http://www.w3.org/2000/svg">
<mask id="mask0_3999_13699" style="mask-type:luminance" maskUnits="userSpaceOnUse" x="0" y="0" width="175" height="85">
<path d="M0 0H175V85H0V0Z" fill="white"/>
</mask>
<g mask="url(#mask0_3999_13699)">
<path d="M147.756 20.9201C155.598 25.6825 158.019 35.7805 153.163 43.4711C150.793 47.2238 147.127 49.7052 143.085 50.7148C148.095 50.042 152.77 47.2645 155.641 42.7195C160.745 34.6361 158.201 24.0253 149.959 19.017C141.716 14.0114 130.896 16.5059 125.789 24.589C125.615 24.8661 125.45 25.1479 125.291 25.4322C130.336 18.3748 140.187 16.3236 147.756 20.9201Z" fill="white"/>
<path d="M131.882 44.9896C125.636 40.4098 124.438 32.5348 129.109 26.4096C131.387 23.4204 134.373 21.1679 137.853 20.611C133.582 20.8141 129.434 22.8162 126.675 26.4339C121.767 32.8723 123.109 41.9951 129.674 46.8083C136.239 51.6215 145.542 50.305 150.45 43.8667C150.619 43.6452 150.779 43.4213 150.931 43.1923C146.153 48.7756 137.909 49.4104 131.882 44.9896Z" fill="white"/>
<path d="M38.7874 34.5944C38.5754 30.163 35.5813 27.483 31.0085 27.4839C26.5931 27.4845 23.4401 30.2159 22.8122 34.5968L38.7874 34.5944ZM44.0435 38.9215L22.9159 38.9248C23.8621 43.1514 27.1731 45.7782 31.5888 45.7776C34.6363 45.777 37.421 44.6425 39.4713 42.5806L42.6792 45.9301C39.9464 48.8688 35.9536 50.5697 31.118 50.5703C22.4978 50.5718 16.8215 44.9538 16.8203 36.7101C16.8188 28.4133 22.6506 22.7935 30.9537 22.7417C40.7844 22.7402 44.7787 29.0255 44.0435 38.9215Z" fill="#4A4141"/>
<path d="M57.4807 27.4268C55.1157 27.427 53.3821 28.2004 53.3824 30.1585C53.3833 35.2089 68.2552 32.4754 68.2055 42.4221C68.2064 48.0407 63.1082 50.5655 57.4847 50.5664C53.3858 50.567 49.024 49.2285 46.2363 46.7534L48.3892 42.5261C50.8061 44.638 54.6964 45.9259 57.7442 45.9253C60.3203 45.925 62.3167 45.048 62.3164 42.9864C62.3154 37.3677 47.6006 40.5154 47.6506 30.6193C47.6497 25.0536 52.5878 22.6831 57.9491 22.6822C61.4708 22.6816 65.2014 23.7118 67.7238 25.4624L65.5167 29.8436C63.0506 28.3532 59.9513 27.4265 57.4807 27.4268Z" fill="#4A4141"/>
<path d="M89.368 48.6037C87.1603 49.8926 84.8495 50.613 82.4847 50.6133C78.2803 50.6142 74.6525 48.2449 74.6516 42.6259L74.6492 28.4021L70.7076 28.4027L70.707 23.9716L74.6486 23.971L74.6474 16.4471L80.6396 16.4462L80.6408 23.9698L88.8923 23.9686L88.8932 28.4001L80.6414 28.4012L80.6435 41.5437C80.6442 44.3783 81.7471 45.2548 83.6404 45.2545C84.9028 45.2545 86.2165 44.8424 87.8445 44.0691L89.368 48.6037Z" fill="#4A4141"/>
<path d="M113.744 34.5827C113.532 30.1513 110.538 27.4713 105.966 27.4722C101.55 27.4728 98.3971 30.2042 97.7693 34.5851L113.744 34.5827ZM119.001 38.9098L97.873 38.9131C98.8192 43.1397 102.13 45.7665 106.546 45.7659C109.593 45.7653 112.378 44.6307 114.428 42.5689L117.636 45.9184C114.903 48.8571 110.911 50.558 106.075 50.5586C97.4549 50.5601 91.7786 44.942 91.7773 36.6984C91.7758 28.4016 97.6077 22.7817 105.911 22.73C115.739 22.7285 119.733 29.0137 119.001 38.9098Z" fill="#4A4141"/>
<path d="M116.86 64.09L114.601 64.0903L114.6 60.3911L116.859 60.3908C118.33 60.3905 119.175 60.978 119.176 62.2062C119.176 63.4755 118.331 64.0897 116.86 64.09ZM120.701 62.1652C120.7 60.1349 119.298 58.9741 116.859 58.9747L112.991 58.9753L112.993 68.322H114.599L114.598 65.504L116.858 65.5037C117.008 65.5037 117.157 65.5037 117.292 65.4916L119.036 68.3211L120.861 68.3208L118.724 65.1975C119.994 64.7156 120.701 63.6607 120.701 62.1652ZM86.9128 58.9795H85.3066L85.3081 68.3264L91.0402 68.3256L91.0399 66.8976L86.914 66.8981L86.9128 58.9795ZM129.159 66.971C127.293 66.9713 125.728 65.5023 125.728 63.6455C125.728 61.7885 127.279 60.3456 129.158 60.3453C131.025 60.3451 132.55 61.7876 132.55 63.6443C132.55 65.5014 131.023 66.9707 129.159 66.971ZM129.143 58.9316C126.297 58.9322 124.092 60.9629 124.092 63.6458C124.093 66.3166 126.298 68.385 129.145 68.3847C131.991 68.3841 134.196 66.3151 134.196 63.644C134.195 60.9733 131.99 58.9313 129.143 58.9316ZM154.135 64.0841L152.01 64.0844L152.01 60.3852L154.134 60.3849C155.605 60.3846 156.435 60.9721 156.435 62.2003C156.436 63.4695 155.603 64.0838 154.135 64.0841ZM154.2 58.9688L150.401 58.9694L150.403 68.3163L152.009 68.316L152.008 65.4981L154.201 65.4978C156.598 65.4975 157.973 64.269 157.973 62.1593C157.972 60.1289 156.597 58.9685 154.2 58.9688ZM144.451 64.4444C144.452 66.0342 143.484 66.9686 141.932 66.9689C140.365 66.9692 139.373 66.0205 139.373 64.4453L139.372 58.9712L137.766 58.9715L137.767 64.4456C137.767 66.8901 139.346 68.3853 141.92 68.385C144.494 68.3847 146.06 66.8886 146.06 64.4441L146.059 58.97L144.453 58.9703L144.454 64.4444H144.451ZM75.1624 64.8167L76.9596 60.6644L78.7578 64.8161L75.1624 64.8167ZM76.1832 58.981L71.9779 68.3285L73.6529 68.3282L74.5637 66.2185L79.3696 66.2176L80.2836 68.3273L82.0002 68.327L77.831 58.9807L76.1832 58.981ZM105.067 60.3397C106.061 60.3394 107.083 60.739 107.817 61.4085L108.728 60.2475C107.788 59.4457 106.427 58.9402 105.064 58.9402C102.178 58.9408 99.9584 60.9834 99.959 63.6545C99.9593 66.3252 102.153 68.3936 104.97 68.3933C106.276 68.393 107.705 67.8992 108.673 67.1764L108.672 63.7324L107.27 63.7326L107.27 66.3362C106.59 66.7361 105.787 66.9769 105.077 66.9772C103.13 66.9775 101.592 65.5231 101.592 63.6518C101.594 61.7948 103.119 60.34 105.067 60.3397ZM33.627 64.3415L38.2832 64.341L38.2829 62.9391L33.6267 62.94L33.6264 60.4015L38.8277 60.4006V58.9845L32.0199 58.9857L32.0214 68.3324L38.9935 68.3315V66.9154L33.6298 66.916L33.6294 64.3415H33.627ZM22.4336 65.1984L19.2866 58.9899L17.3809 58.9902L17.3824 68.3371L18.8925 68.3369L18.8916 61.3526L21.9033 67.3611H22.952L25.9595 61.3515L25.9752 68.336L27.4587 68.3357L27.4571 58.9887L25.5635 58.989L22.4336 65.1984ZM55.5926 68.3312L57.1988 68.3309L57.1973 58.9839L55.591 58.9842L55.5926 68.3312ZM46.9454 66.919L44.6025 66.9193L44.6013 60.4021L46.8754 60.4018C48.7542 60.4015 50.2109 61.7644 50.2112 63.6744C50.214 65.5698 48.7969 66.9187 46.9454 66.919ZM46.9024 58.9857L42.9951 58.9863L42.9966 68.3333L46.8645 68.3327C49.7501 68.3321 51.8347 66.3544 51.8344 63.6571C51.8338 60.9477 49.7634 58.9851 46.9024 58.9857ZM65.9978 66.9279C64.092 66.9282 62.5938 65.4737 62.5934 63.6289C62.5931 61.7864 64.0908 60.3436 65.9966 60.3433C66.9643 60.3433 67.959 60.7982 68.6515 61.5304L69.5895 60.3813C68.6636 59.4879 67.3151 58.9391 65.9669 58.9394C63.1477 58.9396 60.9575 60.9825 60.9578 63.6414C60.9581 66.3267 63.1246 68.3951 65.9144 68.3945C67.2626 68.3942 68.6378 67.7922 69.6052 66.8574L68.6524 65.8147C67.9305 66.5012 66.9507 66.9276 65.9978 66.9279Z" fill="white"/>
<path d="M148.654 31.0759L143.939 31.0768C143.72 31.0768 143.543 30.9032 143.543 30.6891L143.543 26.065C143.543 25.6797 143.221 25.3642 142.828 25.3642L139.164 25.3648C138.771 25.3648 138.449 25.6803 138.449 26.0656L138.45 30.6897C138.45 30.9041 138.273 31.0777 138.055 31.0777L133.34 31.0783C132.947 31.0783 132.625 31.394 132.625 31.7794L132.626 35.3727C132.626 35.758 132.948 36.0735 133.34 36.0732L138.055 36.0726C138.274 36.0726 138.451 36.2459 138.451 36.4603L138.452 41.0844C138.452 41.4697 138.774 41.7852 139.167 41.7852L142.831 41.7846C143.224 41.7843 143.545 41.4688 143.545 41.0835L143.544 36.4594C143.544 36.245 143.721 36.0717 143.94 36.0717L148.655 36.0708C149.048 36.0708 149.37 35.7553 149.37 35.37L149.369 31.7767C149.366 31.389 149.047 31.0759 148.654 31.0759Z" fill="#4A4141"/>
</g>
</svg>
