<svg width="20" height="20" viewBox="0 0 20 20" fill="none" xmlns="http://www.w3.org/2000/svg">
    <g clip-path="url(#clip0_2022_2529)">
        <path d="M15.8333 1.66675H4.16667C1.86667 1.66675 0 3.53341 0 5.83342V14.1667C0 16.4667 1.86667 18.3334 4.16667 18.3334H15.8333C18.1333 18.3334 20 16.4667 20 14.1667V5.83342C20 3.53341 18.1333 1.66675 15.8333 1.66675ZM4.16667 3.33341H15.8333C17.2083 3.33341 18.3333 4.45841 18.3333 5.83342H1.66667C1.66667 4.45841 2.79167 3.33341 4.16667 3.33341ZM15.8333 16.6667H4.16667C2.79167 16.6667 1.66667 15.5417 1.66667 14.1667V7.50008H18.3333V14.1667C18.3333 15.5417 17.2083 16.6667 15.8333 16.6667ZM8.33333 10.0001C8.33333 10.4584 7.95833 10.8334 7.5 10.8334H6.66667V14.1667C6.66667 14.6251 6.29167 15.0001 5.83333 15.0001C5.375 15.0001 5 14.6251 5 14.1667V10.8334H4.16667C3.70833 10.8334 3.33333 10.4584 3.33333 10.0001C3.33333 9.54175 3.70833 9.16675 4.16667 9.16675H7.5C7.95833 9.16675 8.33333 9.54175 8.33333 10.0001ZM16.6667 10.0001C16.6667 10.4584 16.2917 10.8334 15.8333 10.8334H10.8333C10.375 10.8334 10 10.4584 10 10.0001C10 9.54175 10.375 9.16675 10.8333 9.16675H15.8333C16.2917 9.16675 16.6667 9.54175 16.6667 10.0001ZM16.6667 13.3334C16.6667 13.7917 16.2917 14.1667 15.8333 14.1667H10.8333C10.375 14.1667 10 13.7917 10 13.3334C10 12.8751 10.375 12.5001 10.8333 12.5001H15.8333C16.2917 12.5001 16.6667 12.8751 16.6667 13.3334Z" fill="#000"/>
        <path opacity="0.2" d="M18.5 3L19.5 9.5L18.5 17L12 18L3 17.5L0.5 14.5V8.5L2 3L10.5 1.99999C10.5697 1.93026 10.6524 1.87494 10.7434 1.8372C10.8345 1.79946 10.9321 1.78003 11.0306 1.78003C11.1292 1.78003 11.2268 1.79946 11.3178 1.8372C11.4089 1.87494 11.4916 1.93026 11.5613 1.99999L18.5 3Z" fill="#fff"/>
    </g>
    <defs>
        <clipPath id="clip0_2022_2529">
            <rect width="20" height="20" fill="white"/>
        </clipPath>
    </defs>
</svg>