<svg width="128" height="128" viewBox="0 0 128 128" fill="none" xmlns="http://www.w3.org/2000/svg">
    <path d="M74.6306 31.16C83.2306 18.29 90.2806 16.69 92.1206 19.25C92.1206 19.25 89.7606 15.61 84.9006 17.1C78.2706 19.13 71.1406 29.15 71.1406 29.15L74.6406 31.16H74.6306Z" fill="#15BAAF"/>
    <path d="M60.2689 40.54C58.6389 38.11 60.0789 35.27 62.0389 33C64.4989 30.14 68.7689 28.74 71.1189 30.3C71.1189 30.3 66.4389 25.37 61.1189 28.19C55.7989 31 55.6489 35.44 56.3489 37.08C57.0589 38.71 60.2589 40.55 60.2589 40.55L60.2689 40.54Z" fill="#15BAAF"/>
    <path d="M74.8517 51.42L73.5117 53.22C70.7117 51.22 62.7017 44.05 58.8317 47C49.7817 53.89 30.7117 79.76 28.0317 86.15C25.1217 93.07 26.7317 93.55 25.2217 94.93C23.6917 96.31 22.3717 98.24 22.1017 100.03C21.4217 104.59 20.0017 101.05 22.7517 95.88C24.9217 91.79 24.0817 86.89 25.2517 85.78C26.4017 84.68 36.6517 69.2 41.4817 62.89C45.5817 57.54 54.7517 46.17 57.4017 42.89C57.5817 42.67 59.3817 40.53 59.3817 40.53L74.8517 51.43V51.42Z" fill="#15BAAF"/>
    <path d="M65.3288 64.06C53.1388 73.5 48.6988 69.59 44.5988 72.24C40.9688 74.58 34.7688 82.62 30.0488 94.45C28.4688 98.42 21.0888 103.23 24.2388 104.55C27.3888 105.87 32.0488 99.11 32.0488 99.11C32.0488 99.11 39.2288 97.67 41.4788 95.2C43.7288 92.73 65.3288 64.07 65.3288 64.07V64.06Z" fill="#15BAAF"/>
    <path d="M91.3887 15.9201C92.3587 16.4801 93.2687 17.3501 93.8487 18.4001C94.4287 19.4501 94.6487 20.5801 94.6987 21.6001C94.7687 23.6701 94.2487 25.4301 93.6587 27.0901C93.2187 28.3001 92.7687 29.4801 92.1987 30.5901C91.2287 32.4501 90.1287 34.2101 88.9787 35.9101L87.2387 38.4301L86.8487 38.9801L86.6487 39.2501C86.6087 39.3401 86.4687 39.4401 86.5187 39.5401L86.7187 39.8101C86.7187 39.8101 86.7687 39.8801 86.7887 39.9201L86.9087 40.1201C88.0787 41.9701 88.4587 44.1801 88.2487 46.2501C88.0987 47.5801 87.7887 48.9301 87.0487 50.1101C86.6587 50.6801 86.1987 51.2101 85.6587 51.6601C85.1287 52.1001 84.4987 52.4901 83.7687 52.5401C82.8487 52.5401 83.0287 52.4401 83.3387 51.7101C83.6287 50.8901 83.8587 49.7901 84.2087 48.8301C84.4287 48.2301 84.6987 47.6301 84.8787 47.0001C85.0487 46.3601 85.1287 45.7001 85.1387 45.0501C85.1187 44.4001 85.0687 43.7501 84.8687 43.1501C84.7987 42.8401 84.6687 42.5601 84.5587 42.2601C84.5087 42.1101 84.4087 41.9901 84.3487 41.8501L84.2887 41.7501L84.2587 41.7001C84.2587 41.7001 84.1587 41.5301 84.1487 41.5301L83.7587 41.0501L83.3887 40.2101L83.2087 39.7901C83.2087 39.7901 83.4087 39.7601 83.3087 39.7701V39.7301L83.2887 39.6701L83.2587 39.5601C83.2287 39.4901 83.2587 39.4101 83.2587 39.3401C83.3587 38.7501 83.7987 38.1501 84.1787 37.5901C84.4087 37.2501 84.4787 37.1601 84.5987 37.0001L84.9387 36.5501L85.6187 35.6701C87.3987 33.3601 88.8087 30.6901 90.0087 28.0701C90.6587 26.6301 91.2287 25.1601 91.5087 23.7001C91.7987 22.2501 91.7487 20.8001 91.0687 19.8301C90.6787 19.2301 89.9987 18.7401 89.2587 18.4901C88.5187 18.2301 87.6787 18.1901 86.8087 18.3601C84.1387 18.8601 81.4887 20.5701 79.2387 22.4901C77.4687 24.0101 75.9887 25.7801 74.5087 27.5701C74.1787 27.9601 73.8887 28.3701 73.5587 28.7601C72.3287 30.2101 71.7787 30.5401 70.8287 30.2801C70.6187 30.2201 70.3787 30.1901 70.1887 30.1001C69.5487 29.8101 69.6187 28.8301 70.4187 27.6001C72.8087 23.9901 75.9187 20.5801 79.8787 17.8201C81.3687 16.8101 82.9887 15.8901 84.9287 15.3001C85.8987 15.0101 86.9687 14.8501 88.0987 14.9001C89.2287 14.9501 90.4287 15.2701 91.4487 15.8501L91.4187 15.9201H91.3887Z" fill="#15BAAF"/>
    <path d="M58.3498 41.21C57.7698 40.62 57.1998 40.01 56.6598 39.32C56.1298 38.63 55.5998 37.91 55.1898 36.95C54.9998 36.45 54.8098 35.93 54.7898 35.24C54.7698 34.87 54.8198 34.65 54.8298 34.39C54.8398 34.13 54.8798 33.89 54.9298 33.65C55.0098 33.16 55.1498 32.71 55.3198 32.26C55.5198 31.84 55.7198 31.41 55.9598 31.03C56.6498 29.89 57.4598 28.82 58.5098 28C59.4298 27.28 60.4798 26.7 61.6198 26.32C62.7598 25.95 63.9698 25.82 65.1398 25.92C66.3398 26 67.3998 26.36 68.3898 26.72C69.3898 27.09 70.3398 27.54 71.2598 28.01C72.8998 28.85 74.4898 29.76 75.9698 30.81C76.9198 31.48 77.8698 32.16 78.7398 32.96C78.9598 33.16 79.1798 33.35 79.3798 33.57L79.9098 34.29C80.2298 34.81 80.6398 35.22 80.9198 35.75C81.2598 36.42 80.9998 36.46 80.3098 36.27C79.9698 36.17 79.5398 36.01 79.0398 35.81C78.7998 35.71 78.4998 35.63 78.2098 35.54C78.0598 35.5 77.9198 35.43 77.7598 35.4C77.6398 35.32 77.5198 35.23 77.3898 35.14C76.5198 34.49 75.5898 33.9 74.6598 33.33C73.7198 32.76 72.7398 32.27 71.7998 31.72C69.9198 30.64 67.9198 29.61 65.9998 29.03C64.8898 28.71 63.7298 28.73 62.6198 29.12C61.5198 29.52 60.5198 30.25 59.6698 31.11C58.7298 32.07 58.0798 33.29 57.6798 34.48L57.5798 34.92C57.5598 35.08 57.5798 35.11 57.5798 35.23C57.6198 35.45 57.6898 35.72 57.8398 36.01C58.1098 36.58 58.5298 37.17 58.9898 37.74C60.1498 39.13 61.5598 40.42 63.0098 41.63C65.2298 43.46 67.5798 45.2 70.0098 46.76C71.8998 47.97 73.8698 48.96 75.8298 50C76.2598 50.23 76.6998 50.43 77.1298 50.67C77.9298 51.12 78.4298 51.44 78.7198 51.78C78.9998 52.15 79.0898 52.48 79.0798 52.89C79.0798 53.08 79.0998 53.27 79.0798 53.43C79.0298 53.7 78.7898 53.84 78.3798 53.87C77.9798 53.9 77.3998 53.85 76.7798 53.56C73.0498 51.98 69.3898 49.81 65.8598 47.37C63.2398 45.54 60.6798 43.6 58.2898 41.28L58.3398 41.23L58.3498 41.21Z" fill="#15BAAF"/>
    <path d="M38.6508 98.61C36.7708 99.57 34.7408 100.14 32.9708 100.69C32.5508 100.82 32.1008 100.97 31.8508 101.09C31.6908 101.14 31.4208 101.36 31.0908 101.65C30.4308 102.24 29.7208 102.96 28.9208 103.64C28.1008 104.31 27.2208 105.03 25.8908 105.46C25.2208 105.64 24.3808 105.76 23.5708 105.49C23.1508 105.4 22.8308 105.16 22.4808 104.98C22.2108 104.76 21.9308 104.57 21.7008 104.3C21.1908 103.8 20.8408 103.1 20.6408 102.41C20.4608 101.71 20.4508 101.04 20.5208 100.41C20.6808 99.17 21.1208 98.14 21.6108 97.18C21.9808 96.49 22.3808 95.84 22.8108 95.22L23.1408 94.76C23.1908 94.67 23.2408 94.59 23.2908 94.51C23.3308 94.41 23.3708 94.3 23.4208 94.2L23.5208 93.83C23.7608 92.75 23.7608 91.32 23.8808 89.88C23.9808 88.6 24.1608 87.26 24.5308 85.94C24.7208 85.28 24.9608 84.63 25.2508 84C25.5508 83.4 25.8808 82.78 26.2208 82.25C27.5608 80.07 29.0008 78.06 30.4508 76.03C33.3608 71.99 36.3508 68.03 39.3708 64.09C42.0508 60.59 44.7408 57.08 47.4008 53.61C49.1208 51.39 50.8108 49.14 52.6208 46.98C53.5108 45.89 54.4308 44.82 55.3608 43.77C55.8108 43.23 56.3108 42.73 56.8308 42.25C57.3508 41.77 57.9508 41.35 58.4808 40.88C59.8508 39.75 59.6808 39.92 59.0208 41.3C58.6708 41.98 58.3508 43.08 57.7708 44.24C57.1808 45.4 56.3408 46.62 55.3708 47.91C48.3308 56.88 41.2408 65.83 34.3008 75C32.2408 77.74 30.1908 80.62 28.4108 83.57C27.9808 84.3 27.6108 85 27.3408 85.74C27.0708 86.49 26.8908 87.27 26.7608 88.08C26.5008 89.71 26.5608 91.41 26.3508 93.33C26.3008 93.85 26.1808 94.42 26.0008 95C25.8908 95.29 25.7808 95.59 25.6108 95.88L25.3408 96.31L25.1408 96.59C24.6208 97.33 24.1408 98.1 23.7808 98.89C23.4408 99.67 23.1708 100.48 23.1908 101.15C23.1908 101.83 23.4408 102.3 23.9808 102.72C24.2208 102.86 24.3808 102.98 24.6408 102.95C24.8808 102.95 25.2008 102.86 25.5308 102.68C26.2008 102.33 26.8908 101.74 27.5608 101.1C28.2508 100.45 28.8508 99.76 29.7308 99.02C29.9408 98.84 30.2508 98.63 30.5308 98.49C30.8008 98.35 31.0608 98.24 31.3008 98.15C31.7908 97.96 32.2608 97.8 32.7308 97.65C34.9908 96.91 37.1108 96.1 38.9708 94.86C39.9408 94.23 40.6308 93.56 41.4408 92.65C42.2208 91.78 43.0008 90.89 43.7608 89.98C48.3808 84.45 52.9008 78.75 57.2408 73.04C60.6108 68.59 63.7608 64.11 66.9808 59.63C67.6908 58.64 68.3708 57.67 69.0908 56.67C71.7908 53.02 72.8108 51.98 74.1008 51.73C74.3908 51.67 74.7108 51.54 74.9208 51.54C75.6308 51.53 75.0708 53.42 73.2008 56.18C67.7408 64.43 61.5608 72.82 55.0708 81.04C52.6708 84.1 50.2308 87.14 47.7308 90.16C46.4808 91.67 45.2208 93.17 43.8708 94.67C43.5108 95.05 43.2008 95.41 42.7908 95.81C42.3508 96.23 41.9108 96.65 41.4708 96.95C40.5908 97.6 39.6608 98.18 38.7008 98.66L38.6608 98.6L38.6508 98.61Z" fill="#15BAAF"/>
    <path d="M17.5417 110.62C17.4117 110.82 11.9017 117.05 14.4417 118.73C16.9817 120.4 18.6617 117.72 18.7317 115.71C18.8017 113.7 17.5417 110.62 17.5417 110.62Z" fill="#15BAAF"/>
    <path d="M17.931 119.99C16.901 120.69 15.601 120.83 14.561 120.59C13.491 120.35 12.591 119.8 11.911 119.06C11.411 118.52 10.981 117.92 10.721 117.22C10.301 115.99 10.451 114.6 10.951 113.55C11.441 112.48 12.151 111.64 12.901 110.91C13.591 110.29 14.271 109.68 14.971 109.13C15.891 108.46 16.691 107.57 17.931 107.51C18.371 107.59 18.281 107.44 18.241 107.89C18.231 108.12 18.161 108.41 18.111 108.78C18.081 108.96 18.011 109.1 17.941 109.26C17.901 109.34 17.861 109.41 17.831 109.48C17.781 109.54 17.721 109.59 17.661 109.64C15.941 111.03 14.351 112.42 13.181 113.89C12.451 114.81 12.601 115.9 13.061 116.78C13.601 117.74 14.831 118.39 15.811 118.15C16.411 118.03 16.891 117.56 17.171 116.86C17.281 116.61 17.351 116.29 17.411 116.03C17.461 115.78 17.451 115.5 17.411 115.2C17.341 114.6 17.121 113.91 16.921 113.19C16.601 112.07 16.351 110.8 16.471 109.53C16.511 109.26 16.541 108.98 16.631 108.72C16.781 108.23 17.051 107.97 17.271 107.81C17.501 107.66 17.721 107.61 18.001 107.63C18.131 107.63 18.251 107.63 18.361 107.65C18.721 107.72 18.901 108.21 19.041 108.86C19.201 109.82 19.231 110.57 19.401 111.32C19.581 112.07 19.791 112.83 20.041 114.02C20.131 114.46 20.211 114.96 20.201 115.54C20.201 115.82 20.171 116.13 20.121 116.43C20.071 116.74 19.991 116.95 19.911 117.21C19.601 118.2 19.001 119.29 17.951 120.01L17.911 119.96L17.931 119.99Z" fill="#15BAAF"/>
    <path d="M32.7483 109.53C32.7483 109.53 30.2083 113.67 31.2583 114.51C32.3083 115.35 33.5383 115.27 34.2983 113.95C35.0583 112.63 32.7583 109.54 32.7583 109.54L32.7483 109.53Z" fill="#15BAAF"/>
    <path d="M34.739 115.77C34.019 116.46 33.0589 116.68 32.2789 116.66C31.4789 116.63 30.779 116.38 30.149 116.02C29.699 115.74 29.239 115.43 28.919 114.96C28.339 114.14 28.219 113.04 28.439 112.21C28.649 111.36 29.079 110.68 29.569 110.09C29.999 109.57 30.469 109.13 30.889 108.7C31.439 108.14 31.889 107.6 32.499 107.12C32.749 107 32.7689 107.03 32.8689 107.33C32.959 107.61 33.049 108.19 32.819 108.64C32.349 109.38 31.819 110.01 31.389 110.59C30.959 111.17 30.569 111.64 30.319 112.2C29.999 112.89 30.269 113.49 30.719 113.88C31.229 114.36 32.159 114.61 32.719 114.38C32.889 114.31 33.029 114.21 33.149 114.07C33.259 113.94 33.379 113.67 33.429 113.47C33.609 112.84 33.2689 111.95 32.8689 111.01C32.5689 110.28 32.089 109.52 31.979 108.64C31.949 108.45 31.889 108.26 31.899 108.06C31.969 107.32 32.279 107.12 32.719 107.02C32.829 107 32.929 106.97 33.019 106.96C33.319 106.94 33.659 107.23 33.889 107.63C34.609 108.81 34.999 109.53 35.609 111.12C35.799 111.71 36.009 112.49 35.909 113.4C35.869 113.84 35.729 114.3 35.549 114.68C35.379 115.04 35.1289 115.48 34.7589 115.83L34.719 115.79L34.739 115.77Z" fill="#15BAAF"/>
    <path d="M83.3114 69.77C83.3014 69.69 83.3614 69.61 83.4314 69.55C83.4514 69.53 83.5114 69.53 83.5314 69.55C83.5614 69.6 83.5914 69.65 83.6214 69.69C83.6214 69.72 83.8514 70.17 83.8814 70.33C83.9314 70.48 83.9614 70.63 83.9814 70.78C84.0414 71.09 84.0514 71.39 84.0814 71.7C84.0814 71.77 84.0814 71.84 84.0714 71.91C84.0214 72.15 84.0314 72.38 84.0714 72.61C84.0714 72.65 84.0714 72.69 84.1114 72.72C84.1714 72.78 84.2114 73.41 84.1914 73.5C84.1414 73.75 84.1014 73.92 84.0614 74.12C84.0614 74.15 84.0614 74.18 84.0314 74.21C83.9414 74.28 83.9614 74.34 83.9514 74.4C83.9514 74.49 83.9314 74.58 83.9014 74.67C83.8814 74.71 83.8514 74.76 83.7814 74.81C83.7314 74.85 83.6214 74.84 83.6014 74.83C83.5614 74.79 83.4914 74.83 83.4414 74.83C83.4214 74.83 83.4014 74.83 83.3814 74.83C83.3114 74.83 83.0814 74.34 83.0714 74.28C83.0714 74.28 82.9814 73.57 82.9714 73.45C82.9714 73.41 82.9814 73.36 83.0014 73.32C83.0014 73.28 82.9414 72.7 82.9414 72.68C82.9514 72.56 82.9214 72.43 83.0014 72.31C83.0214 72.29 83.0114 72.26 83.0014 72.24C82.9914 72.03 83.0214 71.82 83.0414 71.6C83.0414 71.49 83.0414 71.38 83.0414 71.28C83.0414 71.26 83.0514 71.24 83.0614 71.22C83.0614 71.2 83.0814 71.17 83.0814 71.15C83.0814 70.89 83.1414 70.64 83.1314 70.38C83.1214 70.32 83.2314 70.04 83.2414 69.97C83.2414 69.93 83.3414 69.8 83.3314 69.77H83.3114Z" fill="#15BAAF"/>
    <path d="M86.1197 71.99C86.1997 71.98 86.2797 72.04 86.3397 72.11C86.3597 72.13 86.3597 72.19 86.3397 72.21C86.2897 72.24 86.2397 72.27 86.1997 72.3C86.1697 72.3 85.7197 72.53 85.5597 72.56C85.4097 72.61 85.2597 72.64 85.1097 72.66C84.7997 72.72 84.4997 72.73 84.1897 72.76C84.1197 72.76 84.0497 72.76 83.9797 72.75C83.7397 72.7 83.5097 72.71 83.2797 72.75C83.2397 72.75 83.1997 72.75 83.1697 72.79C83.1097 72.85 82.4797 72.89 82.3897 72.87C82.1397 72.82 81.9697 72.78 81.7697 72.74C81.7397 72.74 81.7097 72.74 81.6797 72.71C81.6097 72.62 81.5497 72.64 81.4897 72.63C81.3997 72.63 81.3097 72.61 81.2197 72.58C81.1797 72.56 81.1297 72.53 81.0797 72.46C81.0397 72.41 81.0497 72.3 81.0597 72.28C81.0997 72.24 81.0597 72.17 81.0597 72.12C81.0597 72.1 81.0597 72.08 81.0597 72.06C81.0597 71.99 81.5497 71.76 81.6097 71.75C81.6097 71.75 82.3197 71.66 82.4397 71.65C82.4797 71.65 82.5297 71.66 82.5697 71.68C82.6097 71.68 83.1897 71.62 83.2097 71.62C83.3297 71.63 83.4597 71.6 83.5797 71.68C83.5997 71.69 83.6297 71.69 83.6497 71.68C83.8597 71.67 84.0697 71.7 84.2897 71.72C84.3997 71.72 84.5097 71.72 84.6097 71.72C84.6297 71.72 84.6497 71.73 84.6697 71.74C84.6897 71.74 84.7197 71.76 84.7397 71.76C84.9997 71.76 85.2497 71.82 85.5097 71.81C85.5697 71.8 85.8497 71.91 85.9197 71.92C85.9597 71.92 86.0897 72.02 86.1197 72.01V71.99Z" fill="#15BAAF"/>
    <path d="M81.9411 74.2C81.8911 74.27 81.7911 74.28 81.6911 74.28C81.6611 74.28 81.6211 74.24 81.6211 74.21C81.6411 74.15 81.6511 74.09 81.6611 74.05C81.6811 74.03 81.8511 73.53 81.9511 73.39C82.0311 73.24 82.1211 73.11 82.2111 72.98C82.4011 72.71 82.6211 72.47 82.8211 72.22C82.8711 72.17 82.9211 72.12 82.9811 72.07C83.1911 71.92 83.3511 71.74 83.5011 71.54C83.5311 71.51 83.5611 71.48 83.5611 71.43C83.5611 71.34 84.0111 70.84 84.0811 70.79C84.3011 70.64 84.4511 70.54 84.6311 70.42C84.6611 70.4 84.6711 70.37 84.7211 70.38C84.8311 70.4 84.8711 70.34 84.9211 70.3C84.9911 70.24 85.0611 70.18 85.1511 70.14C85.2011 70.12 85.2511 70.11 85.3311 70.13C85.4011 70.13 85.4611 70.23 85.4611 70.25C85.4611 70.31 85.5311 70.33 85.5711 70.36C85.5811 70.37 85.6011 70.39 85.6111 70.4C85.6611 70.45 85.4511 70.99 85.4111 71.04C85.4111 71.04 84.9511 71.63 84.8711 71.73C84.8411 71.77 84.8011 71.79 84.7511 71.81C84.7211 71.84 84.3411 72.31 84.3311 72.32C84.2311 72.4 84.1711 72.52 84.0211 72.55C83.9911 72.55 83.9811 72.58 83.9611 72.6C83.8111 72.76 83.6411 72.9 83.4711 73.04C83.3811 73.11 83.3111 73.2 83.2311 73.28C83.2211 73.29 83.1911 73.3 83.1811 73.31C83.1611 73.32 83.1311 73.34 83.1211 73.35C82.9311 73.54 82.7011 73.69 82.5311 73.89C82.5011 73.94 82.2111 74.08 82.1511 74.12C82.1211 74.14 81.9611 74.17 81.9411 74.2Z" fill="#15BAAF"/>
    <path d="M85.5595 73.9C85.6295 73.96 85.6295 74.05 85.6195 74.15C85.6195 74.18 85.5695 74.22 85.5395 74.21C85.4795 74.19 85.4195 74.17 85.3795 74.16C85.3595 74.13 84.8595 73.95 84.7295 73.84C84.5895 73.76 84.4595 73.66 84.3395 73.56C84.0795 73.37 83.8595 73.14 83.6195 72.92C83.5695 72.87 83.5195 72.82 83.4795 72.76C83.3495 72.55 83.1795 72.38 82.9895 72.22C82.9595 72.19 82.9295 72.16 82.8795 72.16C82.7995 72.16 82.3195 71.7 82.2695 71.62C82.1295 71.39 82.0395 71.24 81.9295 71.06C81.9095 71.03 81.8795 71.02 81.8895 70.97C81.9095 70.86 81.8595 70.82 81.8095 70.77C81.7495 70.7 81.6995 70.62 81.6595 70.53C81.6395 70.48 81.6395 70.43 81.6595 70.35C81.6595 70.28 81.7595 70.22 81.7795 70.22C81.8395 70.22 81.8595 70.15 81.8895 70.11C81.8995 70.1 81.9195 70.08 81.9295 70.07C81.9795 70.02 82.4995 70.25 82.5495 70.28C82.5495 70.28 83.1195 70.76 83.2195 70.85C83.2595 70.88 83.2695 70.93 83.2895 70.97C83.3195 71 83.7695 71.4 83.7795 71.41C83.8595 71.51 83.9695 71.58 83.9995 71.73C83.9995 71.76 84.0295 71.77 84.0495 71.79C84.2095 71.94 84.3295 72.12 84.4695 72.3C84.5395 72.39 84.6195 72.46 84.6995 72.55C84.7095 72.56 84.7195 72.59 84.7295 72.61C84.7395 72.63 84.7495 72.66 84.7695 72.68C84.9495 72.88 85.0895 73.11 85.2795 73.3C85.3295 73.34 85.4495 73.62 85.4795 73.69C85.4995 73.72 85.5195 73.88 85.5495 73.9H85.5595Z" fill="#15BAAF"/>
    <path d="M65.6981 8.97999C65.6881 8.89999 65.7481 8.82 65.8181 8.76C65.8381 8.74 65.8981 8.74 65.9181 8.76C65.9481 8.81 65.9781 8.85999 66.0081 8.89999C66.0081 8.92999 66.2381 9.37999 66.2681 9.53999C66.3181 9.68999 66.3481 9.83999 66.3681 9.98999C66.4281 10.3 66.4381 10.6 66.4681 10.91C66.4681 10.98 66.4681 11.05 66.4581 11.12C66.4081 11.36 66.4181 11.59 66.4581 11.82C66.4581 11.86 66.4581 11.9 66.4981 11.93C66.5581 11.99 66.5981 12.62 66.5781 12.71C66.5281 12.96 66.4881 13.13 66.4481 13.33C66.4481 13.36 66.4481 13.39 66.4181 13.42C66.3281 13.49 66.3481 13.55 66.3381 13.61C66.3381 13.7 66.3181 13.79 66.2881 13.88C66.2681 13.92 66.2381 13.97 66.1681 14.02C66.1181 14.06 66.0081 14.05 65.9881 14.04C65.9481 14 65.8781 14.04 65.8281 14.04C65.8081 14.04 65.7881 14.04 65.7681 14.04C65.6981 14.04 65.4681 13.55 65.4581 13.49C65.4581 13.49 65.3681 12.78 65.3581 12.66C65.3581 12.62 65.3681 12.57 65.3881 12.53C65.3881 12.49 65.3281 11.91 65.3281 11.89C65.3381 11.77 65.3081 11.64 65.3881 11.52C65.4081 11.5 65.3981 11.47 65.3881 11.45C65.3781 11.24 65.4081 11.03 65.4281 10.81C65.4281 10.7 65.4281 10.59 65.4281 10.49C65.4281 10.47 65.4381 10.45 65.4481 10.43C65.4481 10.41 65.4681 10.38 65.4681 10.36C65.4681 10.1 65.5281 9.85 65.5181 9.59C65.5081 9.53 65.6181 9.25 65.6281 9.18C65.6281 9.14 65.7281 9.00999 65.7181 8.97999H65.6981Z" fill="#15BAAF"/>
    <path d="M68.5182 11.2C68.5982 11.19 68.6782 11.25 68.7382 11.32C68.7582 11.34 68.7582 11.4 68.7382 11.42C68.6882 11.45 68.6382 11.48 68.5982 11.51C68.5682 11.51 68.1182 11.74 67.9582 11.77C67.8082 11.82 67.6582 11.85 67.5082 11.87C67.1982 11.93 66.8982 11.94 66.5882 11.97C66.5182 11.97 66.4482 11.97 66.3782 11.96C66.1382 11.91 65.9082 11.92 65.6782 11.96C65.6382 11.96 65.5982 11.96 65.5682 12C65.5082 12.06 64.8782 12.1 64.7882 12.08C64.5382 12.03 64.3682 11.99 64.1682 11.95C64.1382 11.95 64.1082 11.95 64.0782 11.92C64.0082 11.83 63.9482 11.85 63.8882 11.84C63.7982 11.84 63.7082 11.82 63.6182 11.79C63.5782 11.77 63.5282 11.74 63.4782 11.67C63.4382 11.62 63.4482 11.51 63.4582 11.49C63.4982 11.45 63.4582 11.38 63.4582 11.33C63.4582 11.31 63.4582 11.29 63.4582 11.27C63.4582 11.2 63.9482 10.97 64.0082 10.96C64.0082 10.96 64.7182 10.87 64.8382 10.86C64.8782 10.86 64.9282 10.87 64.9682 10.89C65.0082 10.89 65.5882 10.83 65.6082 10.83C65.7282 10.84 65.8582 10.81 65.9782 10.89C65.9982 10.91 66.0282 10.9 66.0482 10.89C66.2582 10.88 66.4682 10.91 66.6882 10.93C66.7982 10.93 66.9082 10.93 67.0082 10.93C67.0282 10.93 67.0482 10.94 67.0682 10.95C67.0882 10.95 67.1182 10.97 67.1382 10.97C67.3982 10.97 67.6482 11.03 67.9082 11.02C67.9682 11.01 68.2482 11.12 68.3182 11.13C68.3582 11.13 68.4882 11.23 68.5182 11.22V11.2Z" fill="#15BAAF"/>
    <path d="M64.3395 13.4C64.2895 13.47 64.1895 13.48 64.0895 13.48C64.0595 13.48 64.0195 13.44 64.0195 13.41C64.0395 13.35 64.0495 13.29 64.0595 13.25C64.0795 13.23 64.2495 12.73 64.3495 12.59C64.4295 12.44 64.5195 12.31 64.6095 12.18C64.7995 11.91 65.0195 11.67 65.2195 11.42C65.2695 11.37 65.3195 11.32 65.3795 11.27C65.5895 11.12 65.7495 10.94 65.8995 10.74C65.9295 10.71 65.9595 10.68 65.9595 10.63C65.9595 10.54 66.4095 10.04 66.4795 9.98999C66.6995 9.83999 66.8495 9.73999 67.0295 9.61999C67.0595 9.59999 67.0695 9.56999 67.1195 9.57999C67.2295 9.59999 67.2695 9.53999 67.3195 9.49999C67.3895 9.43999 67.4595 9.37999 67.5495 9.33999C67.5995 9.31999 67.6495 9.30999 67.7295 9.32999C67.7995 9.32999 67.8595 9.42999 67.8595 9.44999C67.8595 9.50999 67.9295 9.52999 67.9695 9.55999C67.9795 9.56999 67.9995 9.58999 68.0095 9.59999C68.0595 9.64999 67.8495 10.19 67.8095 10.24C67.8095 10.24 67.3495 10.83 67.2695 10.93C67.2395 10.97 67.1995 10.99 67.1495 11.01C67.1195 11.04 66.7395 11.51 66.7295 11.52C66.6295 11.6 66.5695 11.72 66.4195 11.75C66.3895 11.75 66.3795 11.78 66.3595 11.8C66.2095 11.96 66.0395 12.1 65.8695 12.24C65.7795 12.31 65.7095 12.4 65.6295 12.48C65.6195 12.49 65.5895 12.5 65.5795 12.51C65.5595 12.52 65.5295 12.54 65.5195 12.55C65.3295 12.74 65.0995 12.89 64.9295 13.09C64.8995 13.14 64.6095 13.28 64.5495 13.32C64.5195 13.34 64.3595 13.37 64.3395 13.4Z" fill="#15BAAF"/>
    <path d="M67.9619 13.1C68.0319 13.16 68.0319 13.25 68.0219 13.35C68.0219 13.38 67.9719 13.42 67.9419 13.41C67.8819 13.39 67.8219 13.37 67.7819 13.36C67.7619 13.33 67.2619 13.15 67.1319 13.04C66.9919 12.96 66.8619 12.86 66.7419 12.76C66.4819 12.57 66.2619 12.34 66.0219 12.12C65.9719 12.07 65.9219 12.02 65.8819 11.96C65.7519 11.75 65.5819 11.58 65.3919 11.42C65.3619 11.39 65.3319 11.36 65.2819 11.36C65.2019 11.36 64.7219 10.9 64.6719 10.82C64.5319 10.59 64.4419 10.44 64.3319 10.26C64.3119 10.23 64.2819 10.22 64.2919 10.17C64.3119 10.06 64.2619 10.02 64.2119 9.97002C64.1519 9.90002 64.1019 9.82002 64.0619 9.73002C64.0419 9.68002 64.0419 9.63002 64.0619 9.55002C64.0619 9.48002 64.1619 9.42002 64.1819 9.42002C64.2419 9.42002 64.2619 9.35002 64.2919 9.31002C64.3019 9.30002 64.3219 9.28002 64.3319 9.27002C64.3819 9.22002 64.9019 9.45002 64.9519 9.48002C64.9519 9.48002 65.5219 9.96002 65.6219 10.05C65.6619 10.08 65.6719 10.13 65.6919 10.17C65.7219 10.2 66.1719 10.6 66.1819 10.61C66.2619 10.71 66.3719 10.78 66.4019 10.93C66.4019 10.96 66.4319 10.97 66.4519 10.99C66.6119 11.14 66.7319 11.32 66.8719 11.5C66.9419 11.59 67.0219 11.66 67.1019 11.75C67.1119 11.76 67.1219 11.79 67.1319 11.81C67.1419 11.83 67.1519 11.86 67.1719 11.88C67.3519 12.08 67.4919 12.31 67.6819 12.5C67.7319 12.54 67.8519 12.82 67.8819 12.89C67.9019 12.92 67.9219 13.08 67.9519 13.1H67.9619Z" fill="#15BAAF"/>
    <path d="M107.032 55.48C107.022 55.35 107.092 55.24 107.182 55.14C107.212 55.11 107.292 55.11 107.302 55.14C107.342 55.22 107.382 55.3 107.412 55.36C107.412 55.41 107.702 56.12 107.732 56.37C107.792 56.61 107.822 56.85 107.852 57.08C107.922 57.56 107.922 58.05 107.962 58.53C107.962 58.64 107.962 58.74 107.942 58.85C107.882 59.22 107.892 59.58 107.932 59.95C107.932 60.01 107.932 60.07 107.972 60.13C108.042 60.23 108.102 61.22 108.072 61.34C108.012 61.71 107.972 61.98 107.922 62.3C107.922 62.35 107.932 62.39 107.882 62.44C107.772 62.54 107.792 62.64 107.792 62.74C107.792 62.88 107.782 63.01 107.752 63.15C107.732 63.22 107.692 63.29 107.612 63.36C107.552 63.43 107.412 63.4 107.392 63.38C107.332 63.32 107.262 63.38 107.202 63.38C107.182 63.38 107.152 63.38 107.132 63.38C107.042 63.38 106.722 62.6 106.712 62.51C106.712 62.51 106.672 62.21 106.632 61.89C106.602 61.59 106.572 61.27 106.562 61.19C106.552 61.12 106.572 61.05 106.592 60.98C106.592 60.93 106.512 60.01 106.512 59.98C106.522 59.79 106.492 59.59 106.582 59.4C106.602 59.36 106.592 59.32 106.592 59.28C106.582 58.95 106.622 58.62 106.652 58.29C106.662 58.12 106.652 57.95 106.652 57.78C106.652 57.75 106.662 57.72 106.672 57.69C106.672 57.65 106.692 57.61 106.692 57.58C106.692 57.18 106.772 56.78 106.762 56.39C106.742 56.3 106.892 55.86 106.902 55.75C106.912 55.69 107.032 55.49 107.022 55.44L107.032 55.48Z" fill="#15BAAF"/>
    <path d="M111.389 59C111.519 58.99 111.629 59.06 111.729 59.15C111.759 59.18 111.759 59.26 111.729 59.27C111.649 59.31 111.569 59.35 111.509 59.38C111.459 59.38 110.749 59.67 110.499 59.7C110.259 59.76 110.019 59.79 109.789 59.82C109.309 59.89 108.819 59.89 108.339 59.93C108.229 59.93 108.129 59.93 108.019 59.91C107.649 59.85 107.289 59.86 106.919 59.9C106.859 59.9 106.799 59.9 106.739 59.94C106.639 60.01 105.649 60.07 105.529 60.04C105.159 59.98 104.889 59.94 104.569 59.89C104.519 59.89 104.479 59.9 104.429 59.85C104.329 59.74 104.229 59.76 104.129 59.76C103.989 59.76 103.859 59.75 103.719 59.72C103.649 59.7 103.579 59.66 103.509 59.58C103.439 59.52 103.469 59.38 103.489 59.36C103.549 59.3 103.489 59.23 103.489 59.17C103.489 59.15 103.489 59.12 103.489 59.1C103.489 59.01 104.269 58.69 104.359 58.68C104.359 58.68 104.659 58.64 104.979 58.6C105.279 58.57 105.599 58.54 105.679 58.53C105.749 58.52 105.819 58.54 105.889 58.56C105.939 58.56 106.859 58.48 106.889 58.48C107.079 58.49 107.279 58.46 107.469 58.55C107.509 58.57 107.549 58.56 107.589 58.56C107.919 58.55 108.249 58.59 108.579 58.62C108.749 58.63 108.919 58.62 109.089 58.62C109.119 58.62 109.149 58.63 109.179 58.64C109.219 58.64 109.259 58.66 109.289 58.66C109.689 58.66 110.089 58.74 110.479 58.73C110.569 58.71 111.009 58.86 111.119 58.87C111.179 58.88 111.379 59 111.429 58.99L111.389 59Z" fill="#15BAAF"/>
    <path d="M104.811 62.39C104.721 62.5 104.591 62.53 104.451 62.54C104.411 62.54 104.351 62.49 104.371 62.45C104.401 62.36 104.431 62.27 104.451 62.21C104.491 62.18 104.801 61.44 104.951 61.23C105.081 61.01 105.231 60.81 105.381 60.61C105.681 60.2 106.031 59.82 106.361 59.43C106.431 59.34 106.521 59.27 106.611 59.2C106.921 58.96 107.181 58.68 107.421 58.37C107.461 58.32 107.511 58.27 107.521 58.2C107.541 58.08 108.241 57.29 108.351 57.21C108.671 56.97 108.901 56.8 109.181 56.6C109.221 56.57 109.241 56.52 109.311 56.53C109.461 56.53 109.521 56.45 109.601 56.38C109.711 56.28 109.821 56.19 109.951 56.11C110.021 56.08 110.101 56.06 110.201 56.06C110.291 56.06 110.361 56.18 110.361 56.21C110.361 56.3 110.451 56.31 110.491 56.35C110.511 56.36 110.531 56.38 110.541 56.4C110.601 56.47 110.221 57.26 110.171 57.33C110.161 57.34 109.421 58.26 109.311 58.4C109.271 58.46 109.201 58.49 109.141 58.53C109.111 58.57 108.491 59.3 108.471 59.33C108.321 59.46 108.211 59.63 108.001 59.71C107.961 59.73 107.931 59.76 107.911 59.79C107.681 60.05 107.411 60.27 107.161 60.5C107.031 60.62 106.911 60.75 106.791 60.88C106.771 60.9 106.741 60.92 106.711 60.93C106.681 60.95 106.641 60.97 106.611 61C106.321 61.3 105.971 61.55 105.691 61.85C105.641 61.93 105.211 62.16 105.121 62.23C105.071 62.27 104.841 62.33 104.811 62.38V62.39Z" fill="#15BAAF"/>
    <path d="M110.492 61.98C110.592 62.07 110.612 62.21 110.622 62.34C110.622 62.38 110.562 62.43 110.522 62.41C110.432 62.37 110.352 62.34 110.282 62.31C110.252 62.27 109.522 61.93 109.322 61.76C109.112 61.62 108.912 61.47 108.722 61.31C108.332 60.99 107.972 60.64 107.612 60.3C107.532 60.22 107.462 60.14 107.392 60.05C107.172 59.73 106.902 59.46 106.612 59.21C106.562 59.17 106.522 59.12 106.452 59.1C106.332 59.07 105.592 58.36 105.512 58.24C105.292 57.91 105.132 57.67 104.952 57.4C104.922 57.36 104.882 57.33 104.882 57.27C104.892 57.12 104.812 57.06 104.742 56.98C104.652 56.87 104.562 56.75 104.492 56.62C104.462 56.55 104.442 56.47 104.452 56.36C104.452 56.27 104.572 56.2 104.602 56.2C104.682 56.2 104.702 56.12 104.742 56.07C104.752 56.05 104.772 56.03 104.792 56.02C104.862 55.96 105.622 56.36 105.692 56.42C105.702 56.43 106.582 57.21 106.712 57.33C106.772 57.37 106.802 57.45 106.832 57.51C106.872 57.55 107.572 58.19 107.592 58.21C107.722 58.36 107.882 58.48 107.952 58.7C107.962 58.74 107.992 58.77 108.022 58.8C108.262 59.04 108.472 59.32 108.692 59.58C108.802 59.72 108.932 59.84 109.052 59.96C109.072 59.98 109.082 60.02 109.102 60.04C109.122 60.07 109.142 60.11 109.172 60.14C109.452 60.45 109.682 60.8 109.982 61.09C110.062 61.15 110.272 61.58 110.332 61.67C110.362 61.72 110.412 61.95 110.462 61.98H110.492Z" fill="#15BAAF"/>
    <path d="M30.3303 21.8C30.3103 21.63 30.3903 21.49 30.4803 21.37C30.5103 21.33 30.5803 21.33 30.6003 21.38C30.6403 21.49 30.6803 21.59 30.7103 21.66C30.7103 21.72 31.0103 22.63 31.0403 22.95C31.1003 23.25 31.1403 23.55 31.1603 23.86C31.2303 24.48 31.2403 25.09 31.2703 25.7C31.2703 25.84 31.2703 25.97 31.2503 26.11C31.1903 26.58 31.2003 27.04 31.2503 27.51C31.2503 27.59 31.2503 27.67 31.3003 27.74C31.3703 27.86 31.4303 29.12 31.4103 29.29C31.3603 29.76 31.3203 30.11 31.2703 30.51C31.2703 30.57 31.2803 30.63 31.2303 30.68C31.1203 30.81 31.1503 30.93 31.1403 31.06C31.1403 31.23 31.1303 31.41 31.1003 31.59C31.0803 31.68 31.0403 31.77 30.9603 31.86C30.9003 31.94 30.7603 31.91 30.7403 31.88C30.6803 31.81 30.6103 31.88 30.5503 31.88C30.5303 31.88 30.5003 31.88 30.4803 31.88C30.3903 31.88 30.0503 30.88 30.0403 30.77C30.0403 30.76 30.0003 30.38 29.9503 29.98C29.9203 29.59 29.8803 29.19 29.8703 29.09C29.8603 29 29.8803 28.91 29.9003 28.82C29.9003 28.76 29.8203 27.59 29.8203 27.55C29.8303 27.3 29.8003 27.06 29.8903 26.82C29.9103 26.77 29.9003 26.72 29.9003 26.67C29.8903 26.25 29.9303 25.83 29.9503 25.41C29.9603 25.2 29.9503 24.98 29.9503 24.77C29.9503 24.73 29.9603 24.69 29.9703 24.65C29.9703 24.6 29.9903 24.55 29.9903 24.5C29.9903 23.99 30.0703 23.49 30.0603 22.98C30.0403 22.86 30.1803 22.31 30.2003 22.17C30.2103 22.09 30.3303 21.85 30.3203 21.78L30.3303 21.8Z" fill="#15BAAF"/>
    <path d="M35.8184 26.33C35.9884 26.31 36.1284 26.39 36.2484 26.48C36.2884 26.51 36.2884 26.58 36.2384 26.6C36.1284 26.64 36.0284 26.68 35.9584 26.71C35.8984 26.71 34.9884 27.01 34.6684 27.04C34.3684 27.1 34.0684 27.14 33.7584 27.16C33.1384 27.23 32.5284 27.24 31.9184 27.27C31.7784 27.27 31.6484 27.27 31.5084 27.25C31.0384 27.19 30.5784 27.2 30.1084 27.25C30.0284 27.25 29.9484 27.25 29.8784 27.3C29.7584 27.37 28.4984 27.43 28.3284 27.41C27.8584 27.36 27.5084 27.32 27.1084 27.27C27.0484 27.27 26.9884 27.28 26.9384 27.23C26.8084 27.12 26.6884 27.15 26.5584 27.14C26.3884 27.14 26.2084 27.13 26.0284 27.1C25.9384 27.08 25.8484 27.04 25.7584 26.96C25.6784 26.9 25.7084 26.76 25.7384 26.74C25.8084 26.68 25.7384 26.61 25.7384 26.55C25.7384 26.53 25.7384 26.5 25.7384 26.48C25.7384 26.39 26.7384 26.05 26.8484 26.04C26.8584 26.04 27.2384 26 27.6384 25.95C28.0284 25.92 28.4284 25.88 28.5284 25.87C28.6184 25.86 28.7084 25.88 28.7984 25.9C28.8584 25.9 30.0284 25.82 30.0684 25.82C30.3184 25.83 30.5584 25.8 30.7984 25.89C30.8484 25.91 30.8984 25.9 30.9484 25.9C31.3684 25.89 31.7884 25.93 32.2084 25.95C32.4184 25.96 32.6384 25.95 32.8484 25.95C32.8884 25.95 32.9284 25.96 32.9684 25.97C33.0184 25.97 33.0684 25.99 33.1184 25.99C33.6284 25.99 34.1284 26.07 34.6384 26.06C34.7584 26.04 35.3084 26.18 35.4484 26.2C35.5284 26.21 35.7684 26.33 35.8384 26.32L35.8184 26.33Z" fill="#15BAAF"/>
    <path d="M27.4186 30.5501C27.3086 30.6901 27.1486 30.7401 26.9986 30.7701C26.9486 30.7801 26.8986 30.7201 26.9186 30.6801C26.9686 30.5701 27.0086 30.4701 27.0486 30.4001C27.0986 30.3601 27.5486 29.4701 27.7486 29.2101C27.9186 28.9401 28.1186 28.6901 28.3186 28.4401C28.7186 27.9301 29.1586 27.4501 29.5786 26.9601C29.6786 26.8501 29.7786 26.7501 29.8886 26.6601C30.2686 26.3501 30.6086 25.9801 30.9186 25.6001C30.9686 25.5401 31.0286 25.4801 31.0586 25.3901C31.0986 25.2501 31.9886 24.2501 32.1286 24.1401C32.5086 23.8301 32.8086 23.6001 33.1386 23.3301C33.1886 23.2901 33.2186 23.2301 33.2986 23.2301C33.4686 23.2201 33.5486 23.1101 33.6486 23.0201C33.7786 22.8901 33.9186 22.7701 34.0786 22.6701C34.1586 22.6201 34.2486 22.5901 34.3686 22.5801C34.4686 22.5701 34.5386 22.6901 34.5286 22.7301C34.5086 22.8301 34.6086 22.8401 34.6586 22.8701C34.6786 22.8801 34.6986 22.9001 34.7086 22.9201C34.7586 22.9901 34.2386 23.9501 34.1686 24.0401C34.1486 24.0601 33.1886 25.2201 33.0486 25.3801C32.9886 25.4501 32.9086 25.5001 32.8386 25.5501C32.7986 25.6001 32.0086 26.5201 31.9786 26.5501C31.7886 26.7201 31.6386 26.9301 31.3986 27.0501C31.3486 27.0701 31.3186 27.1101 31.2886 27.1501C30.9986 27.4701 30.6586 27.7601 30.3386 28.0601C30.1786 28.2101 30.0286 28.3801 29.8686 28.5401C29.8386 28.5701 29.7986 28.5901 29.7686 28.6101C29.7286 28.6401 29.6786 28.6701 29.6486 28.7101C29.2786 29.0901 28.8586 29.4201 28.4986 29.8101C28.4286 29.9101 27.9186 30.2301 27.8086 30.3201C27.7486 30.3701 27.4786 30.4801 27.4386 30.5301L27.4186 30.5501Z" fill="#15BAAF"/>
    <path d="M34.6291 30.09C34.7591 30.21 34.7991 30.36 34.8191 30.52C34.8191 30.57 34.7691 30.62 34.7191 30.59C34.6091 30.54 34.5091 30.49 34.4391 30.45C34.3991 30.4 33.5291 29.91 33.2791 29.7C33.0191 29.51 32.7791 29.31 32.5391 29.1C32.0491 28.69 31.5991 28.23 31.1391 27.8C31.0391 27.7 30.9391 27.6 30.8591 27.48C30.5691 27.09 30.2291 26.75 29.8691 26.42C29.8091 26.37 29.7591 26.3 29.6691 26.28C29.5291 26.23 28.5891 25.32 28.4891 25.18C28.1991 24.79 27.9791 24.48 27.7391 24.14C27.6991 24.09 27.6491 24.06 27.6491 23.98C27.6491 23.81 27.5391 23.73 27.4491 23.63C27.3291 23.49 27.2191 23.35 27.1191 23.19C27.0791 23.11 27.0391 23.01 27.0391 22.89C27.0391 22.79 27.1591 22.72 27.1891 22.73C27.2891 22.75 27.2891 22.65 27.3291 22.6C27.3391 22.58 27.3591 22.56 27.3791 22.55C27.4491 22.5 28.3691 23.05 28.4591 23.13C28.4791 23.15 29.5791 24.16 29.7391 24.3C29.8091 24.36 29.8491 24.44 29.8991 24.52C29.9391 24.56 30.8291 25.39 30.8591 25.42C31.0191 25.61 31.2291 25.77 31.3291 26.02C31.3491 26.07 31.3891 26.1 31.4291 26.14C31.7391 26.45 32.0091 26.79 32.2891 27.12C32.4291 27.29 32.5991 27.44 32.7491 27.61C32.7791 27.64 32.7891 27.68 32.8191 27.71C32.8491 27.75 32.8791 27.8 32.9091 27.83C33.2691 28.22 33.5791 28.65 33.9491 29.02C34.0491 29.1 34.3391 29.61 34.4191 29.73C34.4691 29.79 34.5491 30.06 34.6091 30.1L34.6291 30.09Z" fill="#15BAAF"/>
    <path d="M113.39 20.01C113.38 19.93 113.44 19.85 113.51 19.79C113.53 19.77 113.59 19.77 113.61 19.79C113.64 19.84 113.67 19.89 113.7 19.93C113.7 19.96 113.93 20.41 113.96 20.57C114.01 20.72 114.04 20.87 114.06 21.02C114.12 21.33 114.13 21.63 114.16 21.94C114.16 22.01 114.16 22.08 114.15 22.15C114.1 22.39 114.11 22.62 114.15 22.85C114.15 22.89 114.15 22.93 114.19 22.96C114.25 23.02 114.29 23.65 114.27 23.74C114.22 23.99 114.18 24.16 114.14 24.36C114.14 24.39 114.14 24.42 114.11 24.45C114.02 24.52 114.04 24.58 114.03 24.64C114.03 24.73 114.01 24.82 113.98 24.91C113.96 24.95 113.93 25 113.86 25.05C113.81 25.09 113.7 25.08 113.68 25.07C113.64 25.03 113.57 25.07 113.52 25.07C113.5 25.07 113.48 25.07 113.46 25.07C113.39 25.07 113.16 24.58 113.15 24.52C113.15 24.52 113.06 23.81 113.05 23.69C113.05 23.65 113.06 23.6 113.08 23.56C113.08 23.52 113.02 22.94 113.02 22.92C113.03 22.8 113 22.67 113.08 22.55C113.09 22.53 113.09 22.5 113.08 22.48C113.07 22.27 113.1 22.06 113.12 21.84C113.12 21.73 113.12 21.62 113.12 21.52C113.12 21.5 113.13 21.48 113.14 21.46C113.14 21.44 113.16 21.41 113.16 21.39C113.16 21.13 113.22 20.88 113.21 20.62C113.2 20.56 113.31 20.28 113.32 20.21C113.32 20.17 113.42 20.04 113.41 20.01H113.39Z" fill="#15BAAF"/>
    <path d="M116.202 22.23C116.282 22.22 116.362 22.28 116.422 22.35C116.442 22.37 116.442 22.43 116.422 22.45C116.372 22.48 116.322 22.51 116.282 22.54C116.252 22.54 115.802 22.77 115.642 22.8C115.492 22.85 115.342 22.88 115.192 22.9C114.882 22.96 114.582 22.97 114.272 23C114.202 23 114.132 23 114.062 22.99C113.822 22.94 113.592 22.95 113.362 22.99C113.322 22.99 113.282 22.99 113.252 23.03C113.192 23.09 112.562 23.13 112.472 23.11C112.222 23.06 112.052 23.02 111.852 22.98C111.822 22.98 111.792 22.98 111.762 22.95C111.692 22.86 111.632 22.88 111.572 22.87C111.482 22.87 111.392 22.85 111.302 22.82C111.262 22.8 111.212 22.77 111.162 22.7C111.122 22.65 111.132 22.54 111.142 22.52C111.182 22.48 111.142 22.41 111.142 22.36C111.142 22.34 111.142 22.32 111.142 22.3C111.142 22.23 111.632 22 111.692 21.99C111.692 21.99 112.402 21.9 112.522 21.89C112.562 21.89 112.612 21.9 112.652 21.92C112.692 21.92 113.272 21.86 113.292 21.86C113.412 21.87 113.542 21.84 113.662 21.92C113.682 21.94 113.712 21.93 113.732 21.92C113.942 21.91 114.152 21.94 114.372 21.96C114.482 21.96 114.592 21.96 114.692 21.96C114.712 21.96 114.732 21.97 114.752 21.98C114.772 21.98 114.802 22 114.822 22C115.082 22 115.332 22.06 115.592 22.05C115.652 22.04 115.932 22.15 116.002 22.16C116.042 22.16 116.172 22.26 116.202 22.25V22.23Z" fill="#15BAAF"/>
    <path d="M112.019 24.44C111.969 24.51 111.869 24.52 111.769 24.52C111.739 24.52 111.699 24.48 111.699 24.45C111.719 24.39 111.729 24.33 111.739 24.29C111.759 24.27 111.929 23.77 112.019 23.63C112.099 23.48 112.189 23.35 112.279 23.22C112.469 22.95 112.689 22.71 112.889 22.46C112.939 22.41 112.989 22.36 113.049 22.31C113.259 22.16 113.419 21.98 113.569 21.78C113.599 21.75 113.629 21.72 113.629 21.67C113.629 21.58 114.079 21.08 114.149 21.03C114.369 20.88 114.519 20.78 114.699 20.66C114.729 20.64 114.739 20.61 114.789 20.62C114.899 20.64 114.939 20.58 114.989 20.54C115.059 20.48 115.129 20.42 115.219 20.38C115.269 20.36 115.319 20.35 115.399 20.37C115.469 20.37 115.529 20.47 115.529 20.49C115.529 20.55 115.599 20.57 115.639 20.6C115.649 20.61 115.669 20.63 115.679 20.64C115.729 20.69 115.519 21.23 115.479 21.28C115.479 21.28 115.019 21.87 114.939 21.97C114.909 22.01 114.869 22.03 114.819 22.05C114.789 22.08 114.409 22.55 114.399 22.56C114.299 22.64 114.239 22.76 114.089 22.79C114.059 22.79 114.049 22.82 114.029 22.84C113.879 23 113.709 23.14 113.539 23.28C113.449 23.35 113.379 23.44 113.299 23.52C113.289 23.53 113.259 23.54 113.249 23.55C113.229 23.56 113.199 23.58 113.189 23.59C112.999 23.78 112.769 23.93 112.599 24.13C112.569 24.18 112.279 24.32 112.219 24.36C112.189 24.38 112.029 24.41 112.009 24.44H112.019Z" fill="#15BAAF"/>
    <path d="M115.649 24.1399C115.719 24.1999 115.719 24.2899 115.709 24.3899C115.709 24.4199 115.659 24.4599 115.629 24.4499C115.569 24.4299 115.509 24.4099 115.469 24.3999C115.449 24.3699 114.949 24.1899 114.819 24.0799C114.679 23.9999 114.549 23.8999 114.429 23.7999C114.169 23.6099 113.949 23.3799 113.709 23.1599C113.659 23.1099 113.609 23.0599 113.569 22.9999C113.439 22.7899 113.269 22.6199 113.079 22.4599C113.049 22.4299 113.019 22.3999 112.969 22.3999C112.889 22.3999 112.409 21.9399 112.359 21.8599C112.219 21.6299 112.129 21.4799 112.019 21.2999C111.999 21.2699 111.969 21.2599 111.979 21.2099C111.999 21.0999 111.949 21.0599 111.899 21.0099C111.839 20.9399 111.789 20.8599 111.749 20.7699C111.729 20.7199 111.729 20.6699 111.749 20.5899C111.749 20.5199 111.849 20.4599 111.869 20.4599C111.929 20.4599 111.949 20.3899 111.979 20.3499C111.989 20.3399 112.009 20.3199 112.019 20.3099C112.069 20.2599 112.589 20.4899 112.639 20.5199C112.639 20.5199 113.209 20.9999 113.309 21.0899C113.349 21.1199 113.359 21.1699 113.379 21.2099C113.409 21.2399 113.859 21.6399 113.869 21.6499C113.949 21.7499 114.059 21.8199 114.089 21.9699C114.089 21.9999 114.119 22.0099 114.139 22.0299C114.299 22.1799 114.419 22.3599 114.559 22.5399C114.629 22.6299 114.709 22.6999 114.789 22.7899C114.799 22.7999 114.809 22.8299 114.819 22.8499C114.829 22.8699 114.839 22.8999 114.859 22.9199C115.039 23.1199 115.179 23.3499 115.369 23.5399C115.419 23.5799 115.539 23.8599 115.569 23.9299C115.589 23.9599 115.609 24.1199 115.639 24.1399H115.649Z" fill="#15BAAF"/>
    <path d="M61.51 36.44C61.51 36.44 61.5 36.43 61.5 36.42C61.5 36.42 61.69 36.22 61.51 36.44Z" fill="#15BAAF"/>
</svg>