<svg width="32" height="32" viewBox="0 0 32 32" fill="none" xmlns="http://www.w3.org/2000/svg">
<g clip-path="url(#clip0_1833_12831)">
<path d="M31.7254 1.6323L30.3999 0.306803C30.0873 -0.00588441 29.5986 -0.0575094 29.2274 0.182866L22.1603 4.76062L20.708 3.3083C20.3423 2.94249 19.7484 2.9423 19.3824 3.3083L16.7313 5.95949C16.3653 6.32555 16.3653 6.91899 16.7313 7.28505L17.3941 7.9478L16.2036 9.1383L14.9747 8.72868C13.2798 8.16368 11.442 8.59749 10.1787 9.86087L0.82432 19.2152C-0.274742 20.3142 -0.274805 22.0929 0.82432 23.192L8.77776 31.1454C9.87413 32.2417 11.658 32.2419 12.7545 31.1454C13.0189 30.8811 21.4364 22.4636 22.1089 21.7911C23.3723 20.5277 23.8061 18.69 23.2411 16.9951L22.8314 15.7662L24.0219 14.5757L24.6847 15.2385C25.0504 15.6043 25.6443 15.6045 26.0103 15.2385L28.6614 12.5873C29.0274 12.2212 29.0274 11.6278 28.6614 11.2617L27.2143 9.81462L31.8444 2.81212C32.0903 2.44049 32.0404 1.9473 31.7254 1.6323ZM13.4173 27.8316L9.44063 23.8548L15.1312 18.1642L19.1079 22.1409L13.4173 27.8316ZM21.0963 14.8502C20.8453 15.1012 20.7576 15.4726 20.8699 15.8094L21.4626 17.5879C21.8017 18.6048 21.5414 19.7074 20.7834 20.4654L20.4335 20.8152L15.794 16.1757C15.428 15.8097 14.8345 15.8097 14.4684 16.1757L7.45226 23.192C7.08619 23.5581 7.08619 24.1515 7.45226 24.5176L12.0918 29.1571L11.429 29.8199C11.0636 30.1853 10.4689 30.1853 10.1034 29.8199L2.14988 21.8664C1.78351 21.5 1.78357 20.9072 2.14988 20.5408L11.5043 11.1864C12.2636 10.4271 13.3666 10.1687 14.3818 10.5071L16.1603 11.0999C16.4972 11.2123 16.8684 11.1246 17.1194 10.8735L18.7196 9.27337L22.6963 13.2501L21.0963 14.8502ZM25.3475 13.2502L18.7196 6.6223L20.0452 5.29674L26.6731 11.9246L25.3475 13.2502ZM25.8615 8.46187L23.5159 6.11618L29.6104 2.16849L29.8586 2.41674L25.8615 8.46187Z" fill="#000"/>
<path d="M31.8263 27.0886C31.8231 27.0781 31.8196 27.0677 31.816 27.0573L29.1331 19.4662C29.0007 19.0917 28.6466 18.8413 28.2493 18.8413C27.852 18.8413 27.4979 19.0917 27.3656 19.4662L24.6826 27.0572C24.6789 27.0676 24.6755 27.078 24.6722 27.0885C24.5579 27.452 24.5 27.8308 24.5 28.2145C24.5 30.2819 26.1819 31.9638 28.2493 31.9638C30.3167 31.9638 31.9986 30.2819 31.9986 28.2145C31.9985 27.8309 31.9406 27.4521 31.8263 27.0886ZM28.2493 30.0892C27.2156 30.0892 26.3746 29.2482 26.3746 28.2146C26.3746 28.0269 26.402 27.842 26.4562 27.6649L28.2493 22.5915L30.0424 27.6649C30.0966 27.842 30.124 28.0268 30.124 28.2146C30.1239 29.2482 29.2829 30.0892 28.2493 30.0892Z" fill="#000"/>
</g>
<defs>
<clipPath id="clip0_1833_12831">
<rect width="32" height="32" fill="white"/>
</clipPath>
</defs>
</svg>