<svg width="42" height="43" viewBox="0 0 42 43" fill="none" xmlns="http://www.w3.org/2000/svg">
<path d="M41.9997 22.0491C41.9997 10.5144 32.6524 1.1637 21.1219 1.1637C9.59144 1.1637 0.244141 10.5144 0.244141 22.0491C0.244141 33.5838 9.59144 42.9345 21.1219 42.9345C32.6524 42.9345 41.9997 33.5838 41.9997 22.0491Z" fill="url(#paint0_radial_6753_8659)"/>
<path opacity="0.1" d="M36.8355 8.30618C33.7917 13.8958 29.4871 19.6612 24.1083 25.042C18.7295 30.4227 12.9661 34.7207 7.38683 37.7656C7.03703 37.4615 6.69731 37.1445 6.36766 36.8148C4.37509 34.888 2.78591 32.5837 1.69279 30.0362C0.599665 27.4887 0.0244776 24.7489 0.000764393 21.9767C-0.0229488 19.2045 0.505287 16.4553 1.55467 13.8895C2.60405 11.3236 4.15358 8.99244 6.1129 7.03186C8.07222 5.07127 10.4021 3.52053 12.9668 2.47004C15.5314 1.41956 18.2794 0.890365 21.0506 0.913313C23.8218 0.936261 26.5607 1.51089 29.1076 2.6037C31.6545 3.69651 33.9584 5.28563 35.885 7.2784C36.2147 7.60817 36.5315 7.95076 36.8355 8.30618Z" fill="white"/>
<path d="M18.4966 23.4673H15.766C15.3347 23.4673 15.1836 23.3107 15.1836 22.8792C15.1836 21.769 15.1836 20.6579 15.1836 19.5458C15.1836 19.1171 15.3457 18.955 15.7687 18.955H18.4966V16.5504C18.4642 15.4703 18.7233 14.4014 19.2465 13.4561C19.7905 12.5017 20.6621 11.7771 21.6997 11.417C22.373 11.1719 23.0847 11.0491 23.8012 11.0542H26.5016C26.8889 11.0542 27.051 11.2246 27.051 11.6039V14.7394C27.051 15.1324 26.8861 15.289 26.5016 15.289C25.7626 15.289 25.0236 15.289 24.2874 15.3193C23.5512 15.3495 23.1501 15.6848 23.1501 16.4542C23.1336 17.2786 23.1501 18.0866 23.1501 18.9275H26.323C26.7735 18.9275 26.9273 19.0814 26.9273 19.5348C26.9273 20.634 26.9273 21.7388 26.9273 22.849C26.9273 23.2969 26.7845 23.4398 26.3312 23.4398H23.1336V32.3821C23.1336 32.8603 22.9825 33.0114 22.5128 33.0114H19.0735C18.6586 33.0114 18.4966 32.8493 18.4966 32.4343V23.4673Z" fill="white"/>
<defs>
<radialGradient id="paint0_radial_6753_8659" cx="0" cy="0" r="1" gradientUnits="userSpaceOnUse" gradientTransform="translate(21.1219 22.0491) scale(20.8778 20.8854)">
<stop stop-color="#42A5F5"/>
<stop offset="1" stop-color="#1565C0"/>
</radialGradient>
</defs>
</svg>
