<svg width="24" height="24" viewBox="0 0 24 24" fill="none" xmlns="http://www.w3.org/2000/svg">
<g clip-path="url(#clip0_757_22337)">
<path d="M8.971 10.322C9.043 10.519 8.984 10.741 8.823 10.876L7.64 11.84L8.129 13.33C8.196 13.532 8.129 13.754 7.96 13.883C7.791 14.012 7.56 14.021 7.382 13.906L6.005 13.009L4.651 13.915C4.567 13.971 4.47 13.999 4.373 13.999C4.267 13.999 4.162 13.966 4.073 13.899C3.903 13.772 3.832 13.551 3.896 13.349L4.366 11.841L3.177 10.874C3.017 10.738 2.959 10.517 3.031 10.321C3.103 10.124 3.291 9.993 3.5 9.993H5L5.531 8.503C5.604 8.307 5.791 8.178 6 8.178C6.209 8.178 6.396 8.308 6.469 8.503L7 9.993H8.5C8.71 9.993 8.898 10.124 8.97 10.322H8.971ZM14.501 9.993H13.001L12.47 8.503C12.397 8.307 12.21 8.178 12.001 8.178C11.792 8.178 11.605 8.308 11.532 8.503L11.001 9.993H9.501C9.291 9.993 9.104 10.124 9.032 10.321C8.959 10.518 9.018 10.739 9.178 10.874L10.367 11.841L9.897 13.349C9.834 13.551 9.904 13.772 10.074 13.899C10.163 13.965 10.268 13.999 10.374 13.999C10.471 13.999 10.568 13.971 10.652 13.915L12.006 13.009L13.383 13.906C13.561 14.021 13.792 14.012 13.961 13.883C14.129 13.753 14.197 13.531 14.13 13.33L13.641 11.84L14.824 10.876C14.985 10.741 15.044 10.519 14.972 10.322C14.9 10.125 14.712 9.993 14.502 9.993H14.501ZM20.501 9.993H19.001L18.47 8.503C18.397 8.307 18.21 8.178 18.001 8.178C17.792 8.178 17.605 8.308 17.532 8.503L17.001 9.993H15.501C15.291 9.993 15.104 10.124 15.032 10.321C14.959 10.518 15.018 10.739 15.178 10.874L16.367 11.841L15.897 13.349C15.834 13.551 15.904 13.772 16.074 13.899C16.163 13.965 16.268 13.999 16.374 13.999C16.471 13.999 16.568 13.971 16.652 13.915L18.006 13.009L19.383 13.906C19.561 14.021 19.792 14.012 19.961 13.883C20.129 13.753 20.197 13.531 20.13 13.33L19.641 11.84L20.824 10.876C20.985 10.741 21.044 10.519 20.972 10.322C20.9 10.125 20.711 9.993 20.501 9.993ZM24.001 6.999V14.999C24.001 17.205 22.207 18.999 20.001 18.999H17.149L13.301 22.179C12.94 22.501 12.477 22.663 12.009 22.663C11.533 22.663 11.054 22.495 10.672 22.156L6.923 18.999H4C1.794 18.999 0 17.205 0 14.999V7C0.001 4.794 1.795 3 4.001 3H20.001C22.207 3 24.001 4.793 24.001 6.999ZM22.001 6.999C22.001 5.896 21.104 4.999 20.001 4.999H4.001C2.898 4.999 2.001 5.896 2.001 6.999V14.999C2.001 16.102 2.898 16.999 4.001 16.999H7.289C7.524 16.999 7.753 17.082 7.934 17.234L11.982 20.644L16.153 17.228C16.332 17.08 16.557 16.999 16.79 16.999H20.002C21.105 16.999 22.002 16.102 22.002 14.999V7L22.001 6.999Z" fill="#4F96E2"/>
</g>
<defs>
<clipPath id="clip0_757_22337">
<rect width="24" height="24" fill="white"/>
</clipPath>
</defs>
</svg>
