<svg width="24" height="24" viewBox="0 0 24 24" fill="none" xmlns="http://www.w3.org/2000/svg">
    <path d="M19.95 5.53598L16.465 2.05098C15.143 0.728977 13.385 0.000976897 11.515 0.000976897H7C4.243 -2.31033e-05 2 2.24298 2 4.99998V19C2 21.757 4.243 24 7 24H17C19.757 24 22 21.757 22 19V10.485C22 8.61498 21.272 6.85898 19.95 5.53598ZM18.536 6.94998C18.854 7.26798 19.123 7.62098 19.341 7.99998H15C14.449 7.99998 14 7.55098 14 6.99998V2.65898C14.379 2.87698 14.733 3.14598 15.05 3.46398L18.535 6.94898L18.536 6.94998ZM20 19C20 20.654 18.654 22 17 22H7C5.346 22 4 20.654 4 19V4.99998C4 3.34598 5.346 1.99998 7 1.99998H11.515C11.678 1.99998 11.84 2.00798 12 2.02298V6.99998C12 8.65398 13.346 9.99998 15 9.99998H19.977C19.992 10.16 20 10.322 20 10.485V19ZM14.581 14.186C14.132 13.866 13.507 13.968 13.186 14.419L12.214 15.779L10.608 13.53C11.444 12.997 12 12.062 12 10.999C12 9.34498 10.654 7.99898 9 7.99898H8C6.346 7.99898 5 9.34498 5 10.999V15.999C5 16.551 5.448 16.999 6 16.999C6.552 16.999 7 16.551 7 15.999V13.999H8.485L10.985 17.499L9.614 19.418C9.293 19.867 9.397 20.492 9.847 20.813C10.023 20.938 10.226 20.999 10.427 20.999C10.739 20.999 11.047 20.853 11.242 20.58L12.214 19.22L13.186 20.58C13.381 20.853 13.689 20.999 14.001 20.999C14.202 20.999 14.405 20.938 14.581 20.813C15.031 20.492 15.135 19.867 14.814 19.418L13.443 17.499L14.814 15.58C15.135 15.131 15.031 14.507 14.581 14.186ZM7 11C7 10.449 7.449 9.99998 8 9.99998H9C9.551 9.99998 10 10.449 10 11C10 11.551 9.554 11.997 9.006 12C8.994 12 8.983 12 8.971 12H7V11Z" fill="#000"/>
</svg>