<?xml version="1.0" standalone="no"?>
<!DOCTYPE svg PUBLIC "-//W3C//DTD SVG 20010904//EN"
 "http://www.w3.org/TR/2001/REC-SVG-20010904/DTD/svg10.dtd">
<svg version="1.0" xmlns="http://www.w3.org/2000/svg"
 width="512.000000pt" height="512.000000pt" viewBox="0 0 512.000000 512.000000"
 preserveAspectRatio="xMidYMid meet">
        <g transform="translate(0.000000,512.000000) scale(0.100000,-0.100000)"
fill="#000" stroke="none">
                <path d="M505 4615 l-25 -24 0 -471 0 -471 25 -24 c15 -16 36 -25 55 -25 19 0
40 9 55 25 l25 24 0 416 0 415 415 0 416 0 24 25 c33 32 33 78 0 110 l-24 25
-471 0 -471 0 -24 -25z"/>
                <path d="M3625 4615 c-16 -15 -25 -36 -25 -55 0 -19 9 -40 25 -55 l24 -25 416
0 415 0 0 -415 0 -416 25 -24 c32 -33 78 -33 110 0 l25 24 0 471 0 471 -25 24
-24 25 -471 0 -471 0 -24 -25z"/>
                <path d="M2405 4073 c-347 -43 -677 -222 -890 -483 -64 -78 -72 -120 -32 -158
37 -34 79 -29 119 15 165 183 257 260 403 335 195 100 332 132 555 132 113 0
178 -4 240 -18 466 -101 821 -450 932 -916 17 -71 21 -134 27 -393 l6 -309 24
-19 c33 -27 77 -24 107 7 l26 25 -5 307 c-4 260 -7 321 -25 397 -127 567 -569
985 -1132 1070 -86 14 -279 18 -355 8z"/>
                <path d="M2405 3749 c-320 -46 -621 -263 -769 -556 -98 -193 -116 -301 -116
-705 0 -187 -4 -328 -11 -360 -18 -83 -56 -154 -120 -222 -66 -71 -83 -105
-69 -140 11 -31 47 -56 80 -56 41 0 160 131 209 232 64 130 71 177 71 534 0
233 4 333 15 399 64 366 363 658 735 716 91 14 261 6 344 -16 32 -9 92 -30
132 -46 81 -32 109 -29 138 13 32 46 11 97 -52 124 -189 81 -395 110 -587 83z"/>
                <path d="M2455 3479 c-153 -23 -289 -93 -400 -204 -91 -91 -144 -175 -182
-290 -25 -75 -27 -94 -31 -307 l-4 -227 26 -26 c33 -33 79 -33 111 0 25 24 25
26 25 212 0 210 9 264 62 373 21 43 55 89 102 136 112 113 239 166 395 167
284 1 521 -209 557 -493 12 -94 83 -132 141 -74 24 24 25 29 19 97 -8 85 -51
215 -97 295 -19 31 -71 94 -116 139 -127 127 -282 196 -466 207 -45 3 -109 1
-142 -5z"/>
                <path d="M3204 3480 c-28 -11 -54 -48 -54 -77 0 -12 22 -47 51 -80 121 -136
196 -288 225 -455 13 -78 15 -156 11 -488 -4 -411 -11 -486 -58 -688 -24 -104
-24 -127 1 -152 27 -27 90 -27 114 -1 23 25 51 134 78 306 20 129 22 175 22
590 1 433 0 453 -21 527 -50 175 -122 315 -223 433 -45 52 -104 98 -122 94 -1
0 -13 -4 -24 -9z"/>
                <path d="M1343 3275 c-24 -10 -35 -25 -51 -67 -76 -208 -83 -254 -89 -610 l-5
-307 25 -25 c31 -31 75 -34 108 -7 l24 19 6 309 c7 330 14 384 72 548 22 60
24 74 13 99 -17 41 -61 59 -103 41z"/>
                <path d="M2466 3110 c-63 -16 -153 -70 -197 -117 -22 -24 -55 -74 -72 -111
l-32 -67 -6 -385 c-6 -373 -7 -388 -32 -483 -45 -171 -131 -330 -247 -462 -66
-75 -76 -113 -41 -156 32 -40 82 -32 136 21 111 109 228 308 284 484 52 161
61 253 61 605 0 217 4 326 12 355 26 86 136 166 228 166 92 0 202 -80 228
-166 8 -29 12 -138 12 -353 l0 -312 25 -24 c32 -33 78 -33 111 0 l25 25 -3
343 -3 343 -37 76 c-68 136 -188 217 -336 224 -42 2 -94 -1 -116 -6z"/>
                <path d="M2509 2781 l-24 -19 -6 -359 c-5 -317 -8 -370 -27 -460 -30 -141 -73
-258 -143 -392 -47 -90 -59 -120 -54 -143 14 -63 96 -79 140 -27 37 44 128
236 164 344 67 202 73 255 78 657 l5 367 -26 25 c-30 31 -74 34 -107 7z"/>
                <path d="M3146 2537 c-23 -23 -23 -28 -29 -283 -6 -280 -16 -369 -68 -564 -48
-181 -129 -371 -225 -531 -19 -31 -34 -70 -34 -86 0 -55 68 -91 120 -63 45 24
189 315 256 515 83 249 114 465 114 787 0 198 0 199 -25 223 -31 32 -78 33
-109 2z"/>
                <path d="M1865 2218 c-21 -18 -28 -37 -36 -93 -25 -180 -88 -306 -233 -466
-57 -63 -106 -124 -110 -136 -8 -26 15 -78 39 -87 51 -19 70 -8 177 102 108
111 151 169 207 279 40 80 78 211 86 301 7 67 6 72 -18 96 -33 33 -77 34 -112
4z"/>
                <path d="M2791 1903 c-15 -12 -29 -49 -46 -116 -58 -226 -161 -438 -311 -634
-69 -90 -78 -124 -46 -162 9 -11 32 -24 50 -27 30 -6 37 -2 81 43 149 154 326
502 387 758 19 83 18 102 -11 130 -29 30 -73 33 -104 8z"/>
                <path d="M505 1495 l-25 -24 0 -471 0 -471 25 -24 24 -25 471 0 471 0 24 25
c33 32 33 78 0 110 l-24 25 -416 0 -415 0 0 415 0 416 -25 24 c-15 16 -36 25
-55 25 -19 0 -40 -9 -55 -25z"/>
                <path d="M4505 1495 l-25 -24 0 -416 0 -415 -415 0 -416 0 -24 -25 c-16 -15
-25 -36 -25 -55 0 -19 9 -40 25 -55 l24 -25 471 0 471 0 24 25 25 24 0 471 0
471 -25 24 c-15 16 -36 25 -55 25 -19 0 -40 -9 -55 -25z"/>
                <path d="M3317 1428 c-23 -18 -47 -80 -47 -123 0 -44 29 -75 71 -75 48 0 66
16 89 77 18 47 19 61 9 85 -6 16 -20 33 -30 38 -25 14 -72 12 -92 -2z"/>
                <path d="M2098 1252 c-67 -68 -76 -105 -33 -147 39 -40 77 -33 136 22 28 26
57 60 65 75 28 55 -8 108 -75 108 -28 0 -44 -10 -93 -58z"/>
        </g>
</svg>