<svg width="23" height="27" viewBox="0 0 23 27" fill="none" xmlns="http://www.w3.org/2000/svg">
<path d="M21.4763 9.37604L18.8901 8.41274C19.8252 7.62205 20.2244 6.36787 19.9382 5.17607C19.3756 2.83451 16.5859 1.94562 14.8233 3.54015L13.0377 5.15551L12.6845 2.73289C12.3352 0.347773 9.63699 -0.799726 7.73879 0.621463C6.78967 1.33206 6.28478 2.55702 6.50867 3.80081L4.07039 2.89262C2.87078 2.4457 1.53931 3.08104 1.10259 4.30886L0.0467489 7.27764C-0.0990286 7.68754 0.107502 8.14085 0.508094 8.28998C0.670567 8.35046 12.3982 12.7188 12.5704 12.7829C12.0823 12.7829 1.39343 12.7829 0.923166 12.7829C0.496912 12.7829 0.151354 13.1365 0.151354 13.5727V24.6305C0.151354 25.937 1.19004 27 2.46674 27H8.64113H11.7283H17.9027C19.1794 27 20.2181 25.937 20.2181 24.6305V15.6315L20.8152 15.854C21.2139 16.0026 21.6579 15.7935 21.8044 15.3819L22.8603 12.4131C23.2968 11.1853 22.6761 9.82291 21.4763 9.37604ZM7.86926 25.4203H2.46669C2.0411 25.4203 1.69487 25.066 1.69487 24.6305V14.3626H7.86926V25.4203ZM10.9565 25.4203H9.41289V14.3626H10.9565V25.4203ZM15.8456 4.72372C16.741 3.91367 18.1544 4.36808 18.4392 5.55328C18.7429 6.81695 17.5493 7.91267 16.3548 7.46843C15.3387 7.08996 14.8626 6.91261 13.8451 6.53361L15.8456 4.72372ZM8.65015 1.89647C9.61478 1.17433 10.9812 1.76031 11.158 2.96714L11.5537 5.68005C11.2689 5.57395 9.32446 4.84965 9.0443 4.74534C7.84963 4.3001 7.62398 2.6646 8.65015 1.89647ZM9.01374 9.77709L1.76124 7.07567L2.55315 4.84912C2.69872 4.43985 3.14255 4.22817 3.54242 4.37704C4.35401 4.67931 9.8193 6.71502 10.0696 6.80825L9.01374 9.77709ZM11.9148 10.8577L10.4642 10.3174L11.5201 7.34862L12.9707 7.88893L11.9148 10.8577ZM18.6744 24.6305C18.6744 25.066 18.3282 25.4203 17.9026 25.4203H12.5001V14.3626H16.8114L18.6745 15.0566V24.6305H18.6744ZM21.4096 11.8727L20.6178 14.0993L13.3653 11.3979L14.4212 8.42914L20.9484 10.8604C21.3483 11.0093 21.5552 11.4635 21.4096 11.8727Z" fill="#F68C42"/>
</svg>
