<svg width="18" height="18" viewBox="0 0 18 18" fill="none" xmlns="http://www.w3.org/2000/svg">
    <mask id="mask0_643_14174" style="mask-type:alpha" maskUnits="userSpaceOnUse" x="0" y="0" width="18" height="18">
        <rect width="18" height="18" fill="#000"/>
    </mask>
    <g mask="url(#mask0_643_14174)">
        <path d="M9.00124 16.1247C8.01579 16.1247 7.08951 15.9377 6.22241 15.5637C5.3553 15.1897 4.60104 14.6822 3.95963 14.041C3.3182 13.3999 2.81041 12.646 2.43624 11.7792C2.06208 10.9125 1.875 9.98644 1.875 9.00099C1.875 8.01554 2.062 7.08927 2.436 6.22217C2.81 5.35506 3.31756 4.60079 3.95869 3.95938C4.59983 3.31796 5.35376 2.81016 6.22048 2.436C7.08719 2.06184 8.01328 1.87476 8.99873 1.87476C9.98418 1.87476 10.9105 2.06176 11.7776 2.43576C12.6447 2.80976 13.3989 3.31732 14.0403 3.95844C14.6818 4.59958 15.1896 5.35351 15.5637 6.22024C15.9379 7.08695 16.125 8.01303 16.125 8.99848C16.125 9.98393 15.938 10.9102 15.564 11.7773C15.19 12.6444 14.6824 13.3987 14.0413 14.0401C13.4001 14.6815 12.6462 15.1893 11.7795 15.5635C10.9128 15.9376 9.98669 16.1247 9.00124 16.1247ZM8.99998 14.9997C10.675 14.9997 12.0937 14.4185 13.2562 13.256C14.4187 12.0935 15 10.6747 15 8.99974C15 8.91224 14.9981 8.82281 14.9942 8.73146C14.9904 8.64013 14.986 8.55839 14.9812 8.48627C14.9332 8.83434 14.7824 9.12233 14.5291 9.35021C14.2757 9.5781 13.9711 9.69204 13.6154 9.69204H11.9134C11.5327 9.69204 11.2067 9.55656 10.9356 9.2856C10.6644 9.01465 10.5288 8.68893 10.5288 8.30843V7.61663H7.75961V6.23301C7.75961 5.85251 7.89519 5.5262 8.16634 5.25409C8.4375 4.98198 8.76346 4.84592 9.14423 4.84592H9.83653V4.55743C9.83653 4.23147 9.93509 3.96152 10.1322 3.74758C10.3293 3.53363 10.5668 3.38435 10.8447 3.29974C10.5514 3.20359 10.2524 3.12955 9.94768 3.07763C9.64293 3.0257 9.32703 2.99974 8.99998 2.99974C7.32498 2.99974 5.90623 3.58099 4.74373 4.74349C3.58123 5.90599 2.99998 7.32474 2.99998 8.99974V9.10793C2.99998 9.14158 3.00239 9.17763 3.0072 9.21609H6.56246C7.32978 9.21609 7.98314 9.48581 8.52255 10.0252C9.06198 10.5646 9.33169 11.2169 9.33169 11.9821V12.6776H7.25477V14.7329C7.53362 14.8194 7.81776 14.8856 8.10718 14.9312C8.39661 14.9769 8.69421 14.9997 8.99998 14.9997Z" fill="#000"/>
    </g>
</svg>