<svg width="36" height="37" viewBox="0 0 36 37" fill="none" xmlns="http://www.w3.org/2000/svg">
<path d="M32.9141 18.5741C32.8681 18.5271 32.8169 18.4906 32.7669 18.4514C31.6227 17.3215 30.2325 16.4517 28.684 15.9402L29.0489 15.5668C30.6176 13.9612 31.4811 11.8286 31.4793 9.56052C31.4778 7.29657 30.6143 5.17076 29.0489 3.57376L27.9879 2.48827C26.4262 0.884878 24.3472 0.00150553 22.1343 0C22.1321 0 22.1306 0 22.1284 0C19.9147 0 17.8313 0.883372 16.2641 2.48677L2.43218 16.6377C0.865668 18.2358 0.00147347 20.3623 1.87793e-06 22.6263C-0.00146972 24.894 0.861989 27.027 2.43144 28.6334L3.4932 29.7189C5.06082 31.3226 7.14276 32.206 9.35714 32.206H9.36339C11.5759 32.2045 13.6549 31.3211 15.2152 29.7189L15.4142 29.5152C15.9138 31.1002 16.7644 32.5222 17.8688 33.6931C17.9075 33.7439 17.9435 33.7966 17.9888 33.8433C18.0348 33.8903 18.0859 33.9276 18.1363 33.9667C20.035 35.8407 22.6122 37 25.4516 37C31.2685 37 36 32.1593 36 26.2083C36 23.3023 34.8661 20.6661 33.0336 18.7243C32.9954 18.6728 32.9601 18.6201 32.9141 18.5741ZM19.1701 30.4547C18.3799 29.2363 17.917 27.7771 17.917 26.2083C17.917 21.9578 21.2973 18.5 25.4516 18.5C26.985 18.5 28.4114 18.9731 29.6026 19.782L19.1701 30.4547ZM18.3949 4.66678C19.393 3.64527 20.7193 3.08333 22.1284 3.08333H22.1321C23.5396 3.08409 24.8611 3.64603 25.8556 4.66678L26.9195 5.7549C27.9147 6.77114 28.4647 8.12311 28.4654 9.56202C28.4662 11.0058 27.9162 12.3642 26.9181 13.3865L24.9056 15.4453C22.7512 15.5593 20.7705 16.3324 19.1462 17.5775L12.4607 10.7378L18.3949 4.66678ZM9.36082 29.1219C9.35935 29.1219 9.35861 29.1219 9.35714 29.1219C7.94809 29.1219 6.62292 28.56 5.6237 27.5373L4.56231 26.4519C3.56237 25.43 3.01309 24.0716 3.01383 22.6278C3.01456 21.1885 3.56384 19.8365 4.56158 18.8192L10.3299 12.9175L17.0153 19.7571C15.7983 21.4185 15.0419 23.4457 14.9312 25.6487L13.0828 27.5396C12.0899 28.5592 10.7677 29.1204 9.36082 29.1219ZM25.4516 33.9167C23.9186 33.9167 22.4922 33.4436 21.301 32.6347L31.7335 21.962C32.5237 23.1803 32.9862 24.6396 32.9862 26.2083C32.9862 30.4588 29.6063 33.9167 25.4516 33.9167Z" fill="#F68C42"/>
</svg>
