<svg width="20" height="20" viewBox="0 0 20 20" fill="none" xmlns="http://www.w3.org/2000/svg">
    <g clip-path="url(#clip0_2022_2675)">
        <path d="M11.6667 8.33342H8.33333C7.41417 8.33342 6.66667 9.08092 6.66667 10.0001V13.3334C6.66667 14.2526 7.41417 15.0001 8.33333 15.0001H11.6667C12.5858 15.0001 13.3333 14.2526 13.3333 13.3334V10.0001C13.3333 9.08092 12.5858 8.33342 11.6667 8.33342ZM8.33333 13.3334V10.0001H11.6667V13.3334H8.33333ZM18.3333 4.77009V1.66675C18.3333 1.20592 17.96 0.833421 17.5 0.833421C17.04 0.833421 16.6667 1.20592 16.6667 1.66675V3.63926L12.3308 0.712588C10.915 -0.242412 9.085 -0.242412 7.66917 0.712588L1.83667 4.64925C0.686667 5.42509 0 6.71509 0 8.10342V15.8334C0 18.1309 1.86917 20.0001 4.16667 20.0001H15.8333C18.1308 20.0001 20 18.1309 20 15.8334V8.10342C20 6.78592 19.38 5.55426 18.3333 4.77009ZM18.3333 15.8334C18.3333 17.2118 17.2117 18.3334 15.8333 18.3334H4.16667C2.78833 18.3334 1.66667 17.2118 1.66667 15.8334V8.10342C1.66667 7.27092 2.07833 6.49676 2.76833 6.03175L8.60167 2.09509C9.02667 1.80759 9.51333 1.66425 10 1.66425C10.4867 1.66425 10.9733 1.80759 11.3983 2.09509L17.2317 6.03175C17.9217 6.49759 18.3333 7.27092 18.3333 8.10342V15.8334Z" fill="#000"/>
        <path opacity="0.2" d="M18.5 6.44031V18.7506H11.5L7 18.7506L1.5 18.5V6.50003L9.5 0.999994C9.56965 0.930262 9.65237 0.874943 9.74342 0.8372C9.83447 0.799456 9.93206 0.780029 10.0306 0.780029C10.1292 0.780029 10.2268 0.799456 10.3178 0.8372C10.4089 0.874943 10.4916 0.930262 10.5613 0.999994L18.5 6.44031Z" fill="#fff"/>
    </g>
    <defs>
        <clipPath id="clip0_2022_2675">
            <rect width="20" height="20" fill="white"/>
        </clipPath>
    </defs>
</svg>