<svg width="20" height="20" viewBox="0 0 20 20" fill="none" xmlns="http://www.w3.org/2000/svg">
<g clip-path="url(#clip0_12371_65)">
<path d="M11.6667 8.33318H8.33333C7.41417 8.33318 6.66667 9.08068 6.66667 9.99985V13.3332C6.66667 14.2523 7.41417 14.9998 8.33333 14.9998H11.6667C12.5858 14.9998 13.3333 14.2523 13.3333 13.3332V9.99985C13.3333 9.08068 12.5858 8.33318 11.6667 8.33318ZM8.33333 13.3332V9.99985H11.6667V13.3332H8.33333ZM18.3333 4.76984V1.66651C18.3333 1.20568 17.96 0.833177 17.5 0.833177C17.04 0.833177 16.6667 1.20568 16.6667 1.66651V3.63901L12.3308 0.712344C10.915 -0.242656 9.085 -0.242656 7.66917 0.712344L1.83667 4.64901C0.686667 5.42484 0 6.71484 0 8.10318V15.8332C0 18.1307 1.86917 19.9998 4.16667 19.9998H15.8333C18.1308 19.9998 20 18.1307 20 15.8332V8.10318C20 6.78568 19.38 5.55401 18.3333 4.76984ZM18.3333 15.8332C18.3333 17.2115 17.2117 18.3332 15.8333 18.3332H4.16667C2.78833 18.3332 1.66667 17.2115 1.66667 15.8332V8.10318C1.66667 7.27068 2.07833 6.49651 2.76833 6.03151L8.60167 2.09484C9.02667 1.80734 9.51333 1.66401 10 1.66401C10.4867 1.66401 10.9733 1.80734 11.3983 2.09484L17.2317 6.03151C17.9217 6.49734 18.3333 7.27068 18.3333 8.10318V15.8332Z" fill="#B0B0B0"/>
</g>
<defs>
<clipPath id="clip0_12371_65">
<rect width="20" height="20" fill="white"/>
</clipPath>
</defs>
</svg>
