<svg width="63" height="35" viewBox="0 0 63 35" fill="none" xmlns="http://www.w3.org/2000/svg">
    <path d="M32.0582 34.9925C25.9179 34.9925 19.7792 34.9986 13.6389 34.9864C12.5237 34.9834 11.4019 34.9514 10.2933 34.8461C8.50399 34.6768 6.87945 34.0529 5.41803 33.0995C3.06777 31.5665 1.35667 29.5834 0.519436 27.0253C0.0750174 25.6677 -0.0881026 24.278 0.0450566 22.8609C0.414573 18.936 2.40197 15.876 5.949 13.6825C7.90144 12.4744 10.0803 11.8215 12.4455 11.7269C12.7934 11.7132 12.7834 11.7132 12.7784 11.373C12.7468 9.32896 13.2861 7.42219 14.4229 5.65576C15.7994 3.51866 17.672 1.89867 20.192 0.937656C21.7367 0.348846 23.3496 0.0361358 25.0141 0.00257668C27.1629 -0.0401349 29.1853 0.449523 31.0795 1.36935C31.4173 1.53409 31.6687 1.54325 32.0149 1.36935C33.1717 0.791216 34.4068 0.391558 35.7084 0.18105C36.9917 -0.0248808 38.275 -0.0203046 39.5667 0.127661C41.3643 0.333592 43.0538 0.821724 44.5651 1.7385C47.5662 3.56137 49.4687 6.08288 50.1129 9.35032C50.2494 10.0459 50.251 10.7629 50.2993 11.4722C50.311 11.643 50.3376 11.7239 50.5556 11.7361C54.8201 11.9695 58.1956 13.684 60.6757 16.8721C61.8941 18.4372 62.7264 20.164 62.9211 22.0799C63.3439 26.2626 62.1005 29.8809 58.3737 32.558C56.7908 33.6944 55.0181 34.5059 53.0141 34.8125C52.2801 34.9254 51.5277 34.9895 50.7837 34.991C44.5429 35.0047 38.3037 34.9986 32.0629 34.9986C32.0612 34.9986 32.0598 34.9973 32.0598 34.9956V34.9942C32.0598 34.9933 32.0591 34.9925 32.0582 34.9925ZM31.2426 34.149C31.2426 34.1524 31.2453 34.1551 31.2487 34.1551C37.7931 34.1551 44.3391 34.1566 50.8835 34.1536C51.829 34.1536 52.7711 34.0681 53.6766 33.8149C58.6084 32.4344 61.7443 29.0755 62.0789 24.2109C62.2404 21.8709 61.6195 19.7079 60.2047 17.7508C57.8528 14.4955 54.5571 12.7489 50.286 12.5766C49.6718 12.5522 49.3705 12.2776 49.3772 11.7147C49.3872 10.8483 49.3189 9.98947 49.1292 9.13981C48.743 7.40847 47.8858 5.8922 46.6474 4.54679C44.1008 1.77816 40.7801 0.71342 36.9268 0.901046C35.2856 0.980368 33.7393 1.46087 32.3029 2.19765C31.7802 2.46612 31.3108 2.46002 30.7898 2.19765C29.3584 1.47308 27.8221 1.02003 26.1925 0.89647C24.3732 0.759183 22.5989 1.01545 20.8911 1.60731C18.2546 2.52104 16.3521 4.18984 15.0205 6.4383C14.348 7.57474 13.9003 8.77676 13.7887 10.0703C13.7405 10.6271 13.7521 11.1869 13.7371 11.7452C13.7238 12.2334 13.5191 12.4622 13.0014 12.5445C12.865 12.5659 12.7251 12.5613 12.5886 12.5781C11.9029 12.6559 11.2038 12.6864 10.533 12.8252C7.41042 13.4781 4.89371 14.9928 3.08774 17.4259C1.03876 20.1853 0.429554 23.2102 1.31506 26.4563C1.94923 28.7826 3.43729 30.6039 5.4613 32.076C6.82452 33.0675 8.3675 33.699 10.0869 33.9781C11.2804 34.1719 12.4838 34.1398 13.6822 34.1444C19.5347 34.1627 25.3855 34.1536 31.238 34.1536C31.2405 34.1536 31.2426 34.1515 31.2426 34.149Z" fill="#000"/>
    <path d="M30.6011 28.8571C30.6013 28.8571 30.6013 28.8574 30.6011 28.8575C30.4124 28.897 30.3045 28.938 30.1949 28.938C25.0084 28.941 19.8218 28.9441 14.6353 28.9334C13.6765 28.9319 12.7128 28.9959 11.7624 28.8007C9.31223 28.2958 7.22662 26.2731 6.83547 24.0139C6.31115 20.9799 8.49496 18.1243 11.784 17.5584C12.1269 17.4989 12.4831 17.4913 12.8326 17.4897C14.7934 17.4852 16.7525 17.4897 18.7133 17.4897C19.2276 17.4897 19.2309 17.4867 19.2309 17.0031C19.2309 15.3679 19.2326 13.7326 19.2243 12.0974C19.2176 10.9335 19.5322 9.85656 20.1997 8.86504C21.9773 6.21845 25.7274 5.29405 28.632 6.79963C29.7322 7.37014 30.5578 8.19081 31.1137 9.22962C31.2352 9.45691 31.3134 9.72995 31.3151 9.98317C31.3301 12.4147 31.3234 14.8462 31.3234 17.2777C31.3234 17.398 31.2229 17.4944 31.1032 17.5059C30.9842 17.5174 30.8688 17.5287 30.7542 17.5462C30.4662 17.5919 30.2931 17.7491 30.2565 18.0191C30.2415 18.1274 30.2265 18.2372 30.2265 18.347C30.2265 19.3813 30.2265 20.414 30.2265 21.4482C30.2265 21.8906 30.1233 21.9699 29.634 21.9668C28.5437 21.9592 27.4535 21.9577 26.3633 21.9653C25.7258 21.9699 25.5477 22.1438 25.5427 22.7341C25.5393 23.1658 25.5377 23.599 25.5427 24.0307C25.5493 24.5021 25.7191 24.6561 26.2268 24.6577C27.3919 24.6607 28.5571 24.6577 29.7205 24.6592C30.1616 24.6592 30.2199 24.7111 30.2199 25.1092C30.2199 26.0244 30.2215 26.9397 30.2199 27.8534C30.2199 28.1981 30.2315 28.5337 30.601 28.8571C30.601 28.8571 30.6011 28.8571 30.6011 28.8571Z" fill="white"/>
    <path d="M32.4646 28.8114C32.4642 28.8114 32.464 28.8109 32.4644 28.8106C32.8792 28.5559 32.8593 28.1795 32.8576 27.8031C32.8526 26.9214 32.851 26.0412 32.8526 25.1596C32.8526 24.7218 32.9226 24.6577 33.3953 24.6577C34.5055 24.6577 35.614 24.6638 36.7242 24.6592C37.3817 24.6562 37.5598 24.4868 37.5631 23.8843C37.5665 23.5121 37.5648 23.1384 37.5631 22.7662C37.5598 22.1697 37.3334 21.9531 36.676 21.9531C35.5941 21.9531 34.5138 21.9714 33.4319 21.9821C32.9275 21.9867 32.856 21.9211 32.8576 21.4574C32.8576 20.4491 32.861 19.4408 32.861 18.4325C32.861 17.6987 32.7045 17.5508 31.8939 17.5081C31.7813 17.5016 31.6975 17.4002 31.6975 17.2874C31.6975 17.2525 31.6975 17.2178 31.6975 17.1832C31.6942 14.9469 31.6925 12.7091 31.6875 10.4729C31.6875 9.81693 31.9055 9.22659 32.2884 8.67897C34.3241 5.77458 38.442 5.27424 41.3316 7.31677C42.9877 8.48677 43.7933 10.0732 43.8083 11.9861C43.8216 13.664 43.8083 15.342 43.805 17.0184C43.805 17.4486 43.8566 17.4974 44.3326 17.4959C46.2551 17.4928 48.1793 17.502 50.1017 17.4821C53.2992 17.4471 56.0074 19.7062 56.2454 22.6289C56.4901 25.6324 54.1298 28.3843 50.904 28.8434C50.5046 28.8999 50.0951 28.9319 49.6906 28.9334C44.6605 28.9395 39.6321 28.938 34.602 28.9395C34.0378 28.9395 33.4735 28.9441 32.9109 28.9365C32.7831 28.9351 32.6566 28.901 32.529 28.8778C32.5095 28.8743 32.4926 28.8623 32.4831 28.8449L32.4649 28.8116C32.4649 28.8115 32.4647 28.8114 32.4646 28.8114Z" fill="white"/>
</svg>