<svg width="103" height="96" viewBox="0 0 103 96" fill="none" xmlns="http://www.w3.org/2000/svg">
    <path d="M52.0539 63.9864C42.0837 63.9864 32.1162 63.9975 22.146 63.9752C20.3352 63.9696 18.5136 63.9111 16.7136 63.7186C13.8082 63.409 11.1704 62.2681 8.79742 60.5248C4.98123 57.7215 2.20287 54.0954 0.843425 49.4177C0.121808 46.9352 -0.143055 44.3941 0.0731598 41.8028C0.673155 34.6259 3.90016 29.0305 9.65958 25.0194C12.8298 22.8103 16.3676 21.6164 20.2082 21.4435C20.773 21.4184 20.7568 21.4184 20.7487 20.7964C20.6973 17.0587 21.573 13.572 23.4189 10.342C25.6541 6.43412 28.6946 3.47185 32.7864 1.71457C35.2945 0.63789 37.9134 0.0660769 40.6161 0.00471164C44.1053 -0.0733896 47.389 0.821985 50.4647 2.50395C51.0133 2.8052 51.4214 2.82194 51.9836 2.50395C53.862 1.4468 55.8674 0.715991 57.9809 0.331063C60.0646 -0.0454963 62.1484 -0.0371283 64.2457 0.233437C67.1646 0.609996 69.9078 1.50258 72.3618 3.17897C77.2348 6.51222 80.3239 11.123 81.3699 17.0977C81.5915 18.3697 81.5942 19.6806 81.6726 20.9777C81.6915 21.2901 81.7347 21.4379 82.0888 21.4602C89.0131 21.887 94.4941 25.0222 98.5211 30.8519C100.499 33.7138 101.851 36.8713 102.167 40.3747C102.854 48.023 100.835 54.6393 94.7833 59.5346C92.213 61.6126 89.3347 63.0966 86.0807 63.6572C84.8888 63.8636 83.6672 63.9808 82.4591 63.9836C72.3259 64.0087 62.1954 63.9975 52.0622 63.9975C52.0591 63.9975 52.0566 63.995 52.0566 63.9919V63.9891C52.0566 63.9876 52.0554 63.9864 52.0539 63.9864ZM50.7296 62.4439C50.7296 62.45 50.7346 62.455 50.7407 62.455C61.3667 62.455 71.9953 62.4578 82.6212 62.4522C84.1563 62.4522 85.6861 62.296 87.1563 61.833C95.1644 59.3087 100.256 53.1666 100.799 44.2714C101.062 39.9925 100.054 36.0373 97.7562 32.4586C93.9374 26.5061 88.586 23.3124 81.651 22.9972C80.6537 22.9525 80.1645 22.4505 80.1753 21.4212C80.1915 19.8369 80.0807 18.2665 79.7726 16.7128C79.1456 13.5469 77.7537 10.7743 75.7429 8.31413C71.6078 3.25149 66.2159 1.30454 59.9592 1.64763C57.2944 1.79267 54.7836 2.67131 52.4512 4.01856C51.6025 4.50948 50.8404 4.49832 49.9944 4.01856C47.6701 2.69363 45.1755 1.86519 42.5296 1.63926C39.5756 1.38822 36.6945 1.85683 33.9216 2.93909C29.6405 4.6099 26.5514 7.66142 24.3892 11.7729C23.2973 13.8509 22.5703 16.0489 22.3892 18.4143C22.3108 19.4324 22.3298 20.4561 22.3054 21.477C22.2838 22.3696 21.9514 22.788 21.1108 22.9386C20.8892 22.9776 20.6622 22.9693 20.4406 23C19.3271 23.1422 18.1919 23.198 17.1028 23.4518C12.0325 24.6457 7.94608 27.4155 5.01367 31.8644C1.68666 36.9103 0.69748 42.4416 2.13531 48.3773C3.16503 52.631 5.58123 55.9615 8.86769 58.6532C11.0812 60.4662 13.5866 61.621 16.3784 62.1315C18.3163 62.4857 20.2703 62.4271 22.2162 62.4355C31.7188 62.469 41.2186 62.4522 50.7212 62.4522C50.7258 62.4522 50.7296 62.4485 50.7296 62.4439Z" fill="white"/>
    <path d="M49.6878 52.7674C49.6881 52.7674 49.6882 52.7679 49.6878 52.768C49.3813 52.8404 49.2061 52.9153 49.0282 52.9153C40.6067 52.9208 32.1851 52.9264 23.7635 52.9069C22.2068 52.9041 20.6419 53.0212 19.0987 52.6642C15.1203 51.7409 11.7339 48.0423 11.0987 43.9113C10.2474 38.3633 13.7933 33.1417 19.1338 32.1069C19.6906 31.9981 20.269 31.9841 20.8365 31.9813C24.0203 31.973 27.2013 31.9813 30.3851 31.9813C31.2202 31.9813 31.2256 31.9758 31.2256 31.0915C31.2256 28.1014 31.2283 25.1112 31.2148 22.121C31.204 19.9928 31.7148 18.0235 32.7986 16.2105C35.6851 11.371 41.7742 9.68064 46.4904 12.4337C48.2769 13.4769 49.6174 14.9776 50.5201 16.8771C50.7174 17.2927 50.8444 17.792 50.8471 18.255C50.8714 22.7012 50.8606 27.1474 50.8606 31.5936C50.8606 31.8137 50.6802 31.9916 50.4614 32.0154C50.2828 32.0349 50.1091 32.0548 49.9363 32.0845C49.4688 32.1682 49.1877 32.4555 49.1282 32.9492C49.1039 33.1473 49.0796 33.3481 49.0796 33.5489C49.0796 35.4401 49.0796 37.3285 49.0796 39.2196C49.0796 40.0285 48.912 40.1736 48.1174 40.168C46.3472 40.1541 44.5769 40.1513 42.8066 40.1652C41.7715 40.1736 41.4823 40.4916 41.4742 41.571C41.4688 42.3604 41.4661 43.1526 41.4742 43.942C41.485 44.8039 41.7607 45.0856 42.585 45.0884C44.4769 45.094 46.3688 45.0884 48.2579 45.0912C48.9742 45.0912 49.0688 45.186 49.0688 45.914C49.0688 47.5876 49.0715 49.2612 49.0688 50.932C49.0688 51.5624 49.0877 52.176 49.6876 52.7673C49.6876 52.7674 49.6877 52.7674 49.6878 52.7674Z" fill="white"/>
    <path d="M52.7187 52.6835C52.7181 52.6835 52.7178 52.6826 52.7184 52.6822C53.3921 52.2164 53.3597 51.5281 53.357 50.8398C53.3489 49.2275 53.3462 47.6181 53.3489 46.0058C53.3489 45.2053 53.4624 45.0882 54.23 45.0882C56.0327 45.0882 57.8327 45.0993 59.6354 45.0909C60.7029 45.0854 60.9921 44.7757 60.9975 43.674C61.0029 42.9934 61.0002 42.31 60.9975 41.6294C60.9921 40.5388 60.6245 40.1427 59.557 40.1427C57.8002 40.1427 56.0462 40.1761 54.2894 40.1957C53.4705 40.204 53.3543 40.0841 53.357 39.2361C53.357 37.3924 53.3624 35.5486 53.3624 33.7049C53.3624 32.3632 53.1084 32.0927 51.7922 32.0146C51.6084 32.0027 51.4732 31.8352 51.4732 31.651C51.4732 31.5737 51.4732 31.4971 51.4732 31.4204C51.4678 27.3313 51.4651 23.2393 51.457 19.1502C51.457 17.9508 51.8111 16.8713 52.4327 15.8699C55.7381 10.559 62.4245 9.64413 67.1164 13.379C69.8056 15.5185 71.1137 18.4194 71.138 21.9172C71.1596 24.9855 71.138 28.0537 71.1326 31.1192C71.1326 31.9058 71.2164 31.995 71.9893 31.9922C75.1109 31.9867 78.2352 32.0034 81.3568 31.9671C86.5487 31.903 90.9459 36.034 91.3324 41.3783C91.7297 46.8705 87.8973 51.9025 82.6595 52.7421C82.0109 52.8453 81.346 52.9039 80.6893 52.9067C72.5217 52.9178 64.3569 52.915 56.1894 52.9178C55.2732 52.9178 54.357 52.9262 53.4435 52.9122C53.2373 52.9097 53.0334 52.8482 52.8275 52.8058C52.7934 52.7987 52.7643 52.7766 52.7491 52.7453L52.7194 52.6839C52.7193 52.6837 52.719 52.6835 52.7187 52.6835Z" fill="white"/>
    <path d="M22.5703 90H19.4922L14.5234 81.3594H14.4531C14.5521 82.8854 14.6016 83.974 14.6016 84.625V90H12.4375V78.5781H15.4922L20.4531 87.1328H20.5078C20.4297 85.6484 20.3906 84.599 20.3906 83.9844V78.5781H22.5703V90ZM27.1641 85.6172C27.1641 86.4818 27.3047 87.1354 27.5859 87.5781C27.8724 88.0208 28.3359 88.2422 28.9766 88.2422C29.612 88.2422 30.0677 88.0234 30.3438 87.5859C30.625 87.1432 30.7656 86.487 30.7656 85.6172C30.7656 84.7526 30.625 84.1042 30.3438 83.6719C30.0625 83.2396 29.6016 83.0234 28.9609 83.0234C28.3255 83.0234 27.8672 83.2396 27.5859 83.6719C27.3047 84.099 27.1641 84.7474 27.1641 85.6172ZM33.2031 85.6172C33.2031 87.0391 32.8281 88.151 32.0781 88.9531C31.3281 89.7552 30.2839 90.1562 28.9453 90.1562C28.1068 90.1562 27.3672 89.974 26.7266 89.6094C26.0859 89.2396 25.5938 88.7109 25.25 88.0234C24.9062 87.3359 24.7344 86.5339 24.7344 85.6172C24.7344 84.1901 25.1068 83.0807 25.8516 82.2891C26.5964 81.4974 27.6432 81.1016 28.9922 81.1016C29.8307 81.1016 30.5703 81.2839 31.2109 81.6484C31.8516 82.013 32.3438 82.5365 32.6875 83.2188C33.0312 83.901 33.2031 84.7005 33.2031 85.6172ZM37.0938 90L33.7656 81.2656H36.2578L37.9453 86.2422C38.1172 86.7839 38.2292 87.3802 38.2812 88.0312H38.3438C38.375 87.4427 38.4922 86.8464 38.6953 86.2422L40.375 81.2656H42.8672L39.5391 90H37.0938ZM46.0234 85.6172C46.0234 86.4818 46.1641 87.1354 46.4453 87.5781C46.7318 88.0208 47.1953 88.2422 47.8359 88.2422C48.4714 88.2422 48.9271 88.0234 49.2031 87.5859C49.4844 87.1432 49.625 86.487 49.625 85.6172C49.625 84.7526 49.4844 84.1042 49.2031 83.6719C48.9219 83.2396 48.4609 83.0234 47.8203 83.0234C47.1849 83.0234 46.7266 83.2396 46.4453 83.6719C46.1641 84.099 46.0234 84.7474 46.0234 85.6172ZM52.0625 85.6172C52.0625 87.0391 51.6875 88.151 50.9375 88.9531C50.1875 89.7552 49.1432 90.1562 47.8047 90.1562C46.9661 90.1562 46.2266 89.974 45.5859 89.6094C44.9453 89.2396 44.4531 88.7109 44.1094 88.0234C43.7656 87.3359 43.5938 86.5339 43.5938 85.6172C43.5938 84.1901 43.9661 83.0807 44.7109 82.2891C45.4557 81.4974 46.5026 81.1016 47.8516 81.1016C48.6901 81.1016 49.4297 81.2839 50.0703 81.6484C50.7109 82.013 51.2031 82.5365 51.5469 83.2188C51.8906 83.901 52.0625 84.7005 52.0625 85.6172ZM57.5781 90.1562C54.8594 90.1562 53.5 88.6641 53.5 85.6797C53.5 84.1953 53.8698 83.0625 54.6094 82.2812C55.349 81.4948 56.4089 81.1016 57.7891 81.1016C58.7995 81.1016 59.7057 81.2995 60.5078 81.6953L59.8047 83.5391C59.4297 83.388 59.0807 83.2656 58.7578 83.1719C58.4349 83.0729 58.112 83.0234 57.7891 83.0234C56.5495 83.0234 55.9297 83.9036 55.9297 85.6641C55.9297 87.3724 56.5495 88.2266 57.7891 88.2266C58.2474 88.2266 58.6719 88.1667 59.0625 88.0469C59.4531 87.9219 59.8438 87.7292 60.2344 87.4688V89.5078C59.849 89.7526 59.4583 89.9219 59.0625 90.0156C58.6719 90.1094 58.1771 90.1562 57.5781 90.1562ZM68.4531 90L68.1328 88.8828H68.0078C67.7526 89.2891 67.3906 89.6042 66.9219 89.8281C66.4531 90.0469 65.9193 90.1562 65.3203 90.1562C64.2943 90.1562 63.5208 89.8828 63 89.3359C62.4792 88.7839 62.2188 87.9922 62.2188 86.9609V81.2656H64.6016V86.3672C64.6016 86.9974 64.7135 87.4714 64.9375 87.7891C65.1615 88.1016 65.5182 88.2578 66.0078 88.2578C66.6745 88.2578 67.1562 88.0365 67.4531 87.5938C67.75 87.1458 67.8984 86.4062 67.8984 85.375V81.2656H70.2812V90H68.4531ZM77.6562 81.1016C77.9792 81.1016 78.2474 81.125 78.4609 81.1719L78.2812 83.4062C78.0885 83.3542 77.8542 83.3281 77.5781 83.3281C76.8177 83.3281 76.224 83.5234 75.7969 83.9141C75.375 84.3047 75.1641 84.8516 75.1641 85.5547V90H72.7812V81.2656H74.5859L74.9375 82.7344H75.0547C75.3255 82.2448 75.6901 81.8516 76.1484 81.5547C76.612 81.2526 77.1146 81.1016 77.6562 81.1016ZM79.9453 79.0078C79.9453 78.2318 80.3776 77.8438 81.2422 77.8438C82.1068 77.8438 82.5391 78.2318 82.5391 79.0078C82.5391 79.3776 82.4297 79.6667 82.2109 79.875C81.9974 80.0781 81.6745 80.1797 81.2422 80.1797C80.3776 80.1797 79.9453 79.7891 79.9453 79.0078ZM82.4297 90H80.0469V81.2656H82.4297V90ZM91.0312 87.4062C91.0312 88.3021 90.7188 88.9844 90.0938 89.4531C89.474 89.9219 88.5443 90.1562 87.3047 90.1562C86.6693 90.1562 86.1276 90.112 85.6797 90.0234C85.2318 89.9401 84.8125 89.8151 84.4219 89.6484V87.6797C84.8646 87.888 85.362 88.0625 85.9141 88.2031C86.4714 88.3438 86.9609 88.4141 87.3828 88.4141C88.2474 88.4141 88.6797 88.1641 88.6797 87.6641C88.6797 87.4766 88.6224 87.3255 88.5078 87.2109C88.3932 87.0911 88.1953 86.9583 87.9141 86.8125C87.6328 86.6615 87.2578 86.487 86.7891 86.2891C86.1172 86.0078 85.6224 85.7474 85.3047 85.5078C84.9922 85.2682 84.763 84.9948 84.6172 84.6875C84.4766 84.375 84.4062 83.9922 84.4062 83.5391C84.4062 82.763 84.7057 82.1641 85.3047 81.7422C85.9089 81.3151 86.763 81.1016 87.8672 81.1016C88.9193 81.1016 89.9427 81.3307 90.9375 81.7891L90.2188 83.5078C89.7812 83.3203 89.3724 83.1667 88.9922 83.0469C88.612 82.9271 88.224 82.8672 87.8281 82.8672C87.125 82.8672 86.7734 83.0573 86.7734 83.4375C86.7734 83.651 86.8854 83.8359 87.1094 83.9922C87.3385 84.1484 87.8359 84.3802 88.6016 84.6875C89.2839 84.9635 89.7839 85.2214 90.1016 85.4609C90.4193 85.7005 90.6536 85.9766 90.8047 86.2891C90.9557 86.6016 91.0312 86.974 91.0312 87.4062Z" fill="white"/>
</svg>