<svg width="265" height="53" viewBox="0 0 265 53" fill="none" xmlns="http://www.w3.org/2000/svg">
<path d="M42.2354 52.9887C34.1458 52.9887 26.0584 52.998 17.9688 52.9795C16.4995 52.9749 15.0215 52.9263 13.561 52.767C11.2037 52.5106 9.0634 51.5658 7.13804 50.1221C4.04166 47.8006 1.78736 44.7978 0.684336 40.924C0.0988324 38.8682 -0.116072 36.7639 0.0593602 34.618C0.546184 28.6746 3.1645 24.0409 7.83757 20.7192C10.4098 18.8898 13.2803 17.9011 16.3965 17.7579C16.8548 17.7371 16.8416 17.7371 16.835 17.222C16.7934 14.1267 17.5039 11.2393 19.0016 8.56444C20.8151 5.32825 23.2822 2.87513 26.6022 1.41988C28.6372 0.528252 30.7621 0.0547199 32.955 0.00390182C35.7861 -0.0607758 38.4504 0.680707 40.946 2.07358C41.3911 2.32306 41.7222 2.33692 42.1784 2.07358C43.7024 1.19813 45.3296 0.59293 47.0444 0.274162C48.7351 -0.0376766 50.4259 -0.0307469 52.1275 0.193315C54.4959 0.505153 56.7217 1.24433 58.7128 2.63258C62.6666 5.39293 65.1731 9.21122 66.0217 14.1591C66.2016 15.2124 66.2038 16.298 66.2673 17.3721C66.2827 17.6309 66.3178 17.7533 66.6051 17.7718C72.2233 18.1252 76.6705 20.7215 79.9379 25.5492C81.5431 27.9192 82.6395 30.534 82.8961 33.4353C83.4531 39.7691 81.815 45.2482 76.9051 49.3021C74.8197 51.023 72.4842 52.2519 69.844 52.7161C68.8769 52.8871 67.8857 52.9841 66.9055 52.9864C58.6837 53.0072 50.464 52.998 42.2422 52.998C42.2396 52.998 42.2376 52.9959 42.2376 52.9933V52.9909C42.2376 52.9897 42.2366 52.9887 42.2354 52.9887V52.9887ZM41.1609 51.7113V51.7113C41.1609 51.7164 41.165 51.7206 41.1701 51.7206C49.7917 51.7206 58.4155 51.7229 67.0371 51.7183C68.2826 51.7183 69.5238 51.5889 70.7167 51.2055C77.2143 49.115 81.3457 44.0286 81.7865 36.6622C81.9992 33.1188 81.1812 29.8434 79.3173 26.8798C76.2187 21.9504 71.8768 19.3055 66.2498 19.0445C65.4406 19.0076 65.0437 18.5918 65.0525 17.7394C65.0656 16.4274 64.9757 15.1269 64.7257 13.8403C64.217 11.2185 63.0876 8.92248 61.4561 6.88514C58.101 2.69264 53.7262 1.08032 48.6496 1.36444C46.4874 1.48456 44.4502 2.21218 42.5577 3.32787C41.8692 3.73441 41.2508 3.72517 40.5644 3.32787C38.6785 2.23066 36.6545 1.54461 34.5076 1.35751C32.1108 1.14962 29.7731 1.53768 27.5232 2.43393C24.0497 3.81757 21.5432 6.34462 19.7889 9.74943C18.9029 11.4703 18.313 13.2905 18.1661 15.2493C18.1025 16.0925 18.1179 16.9402 18.0981 17.7856C18.0806 18.5248 17.8109 18.8713 17.1289 18.996C16.9491 19.0284 16.7649 19.0214 16.585 19.0468C15.6816 19.1646 14.7606 19.2108 13.8768 19.421C9.76294 20.4097 6.44727 22.7034 4.06798 26.3877C1.36852 30.5664 0.56592 35.1469 1.73254 40.0624C2.56804 43.5851 4.52849 46.3431 7.19505 48.5722C8.99104 50.0736 11.0239 51.0299 13.2891 51.4526C14.8614 51.746 16.4469 51.6975 18.0258 51.7044C25.7359 51.7321 33.4438 51.7183 41.1539 51.7183C41.1578 51.7183 41.1609 51.7152 41.1609 51.7113V51.7113Z" fill="white"/>
<path d="M40.315 43.6982C40.3153 43.6982 40.3153 43.6986 40.315 43.6986C40.0663 43.7586 39.9241 43.8206 39.7798 43.8206C32.9467 43.8252 26.1136 43.8298 19.2806 43.8137C18.0175 43.8113 16.7478 43.9084 15.4956 43.6127C12.2677 42.8481 9.51998 39.7852 9.00465 36.3642C8.31389 31.7698 11.191 27.4456 15.5241 26.5886C15.9759 26.4985 16.4452 26.487 16.9057 26.4847C19.4889 26.4778 22.0699 26.4847 24.6532 26.4847C25.3308 26.4847 25.3352 26.4801 25.3352 25.7478C25.3352 23.2716 25.3374 20.7954 25.3264 18.3191C25.3176 16.5567 25.7321 14.9259 26.6114 13.4244C28.9535 9.41673 33.8941 8.01692 37.7207 10.2968C39.1702 11.1607 40.2578 12.4034 40.9903 13.9765C41.1504 14.3207 41.2534 14.7341 41.2556 15.1176C41.2754 18.7996 41.2666 22.4816 41.2666 26.1636V26.1636C41.2666 26.3459 41.1176 26.4935 40.9364 26.5136C40.7937 26.5295 40.6548 26.5459 40.5166 26.5701C40.1372 26.6394 39.9092 26.8774 39.8609 27.2862C39.8412 27.4502 39.8215 27.6165 39.8215 27.7829C39.8215 29.349 39.8215 30.9128 39.8215 32.4789C39.8215 33.1488 39.6855 33.2689 39.0408 33.2643C37.6044 33.2527 36.1681 33.2504 34.7317 33.262C33.8919 33.2689 33.6572 33.5322 33.6506 34.4262C33.6463 35.0799 33.6441 35.7359 33.6506 36.3896C33.6594 37.1034 33.8831 37.3367 34.5519 37.339C36.087 37.3436 37.622 37.339 39.1548 37.3413C39.7359 37.3413 39.8127 37.4198 39.8127 38.0227C39.8127 39.4086 39.8149 40.7946 39.8127 42.1782C39.8127 42.7002 39.828 43.2084 40.3148 43.6981C40.3148 43.6981 40.3149 43.6982 40.315 43.6982V43.6982Z" fill="white"/>
<path d="M42.7737 43.6293C42.7732 43.6293 42.7729 43.6285 42.7734 43.6282C43.3201 43.2425 43.2938 42.6724 43.2916 42.1024C43.285 40.7673 43.2828 39.4345 43.285 38.0993C43.285 37.4364 43.3771 37.3394 43.9999 37.3394C45.4626 37.3394 46.923 37.3486 48.3857 37.3417C49.2519 37.3371 49.4865 37.0807 49.4909 36.1682C49.4953 35.6046 49.4931 35.0387 49.4909 34.4751C49.4865 33.5719 49.1883 33.2439 48.3221 33.2439C46.8967 33.2439 45.4735 33.2716 44.0482 33.2878C43.3837 33.2947 43.2894 33.1954 43.2916 32.4932C43.2916 30.9663 43.296 29.4395 43.296 27.9126C43.296 26.8015 43.0899 26.5775 42.0219 26.5128V26.5128C41.8726 26.503 41.7632 26.3666 41.7632 26.217C41.7632 26.1512 41.7632 26.086 41.7632 26.0208C41.7588 22.6345 41.7566 19.2458 41.75 15.8595C41.75 14.8662 42.0373 13.9723 42.5416 13.143C45.2236 8.74495 50.6488 7.9873 54.4557 11.0803C56.6376 12.852 57.699 15.2543 57.7187 18.1509C57.7362 20.6918 57.7187 23.2327 57.7143 25.7713C57.7143 26.4227 57.7823 26.4966 58.4094 26.4943C60.9422 26.4897 63.4772 26.5036 66.01 26.4735C70.2226 26.4204 73.7904 29.8414 74.104 34.2672C74.4264 38.8154 71.3169 42.9825 67.067 43.6778C66.5407 43.7632 66.0013 43.8118 65.4684 43.8141C58.8415 43.8233 52.2167 43.821 45.5898 43.8233C44.8464 43.8233 44.103 43.8302 43.3618 43.8187C43.1947 43.8166 43.0294 43.7658 42.8626 43.7306C42.8346 43.7247 42.8107 43.7064 42.7984 43.6805L42.7742 43.6296C42.7741 43.6294 42.7739 43.6293 42.7737 43.6293V43.6293Z" fill="white"/>
<path d="M116.608 47H114.412L99.508 24.536H99.4C99.4 25.016 99.412 25.508 99.436 26.012C99.46 26.492 99.472 26.996 99.472 27.524C99.496 28.052 99.508 28.592 99.508 29.144C99.532 29.672 99.544 30.212 99.544 30.764V47H97.6V21.296H99.832L114.664 43.688H114.772C114.772 43.328 114.76 42.908 114.736 42.428C114.712 41.924 114.688 41.396 114.664 40.844C114.664 40.292 114.652 39.74 114.628 39.188C114.628 38.636 114.628 38.108 114.628 37.604V21.296H116.608V47ZM139.45 37.424C139.45 38.912 139.258 40.268 138.874 41.492C138.514 42.692 137.962 43.736 137.218 44.624C136.498 45.488 135.598 46.16 134.518 46.64C133.438 47.12 132.202 47.36 130.81 47.36C129.49 47.36 128.302 47.132 127.246 46.676C126.214 46.196 125.326 45.524 124.582 44.66C123.838 43.772 123.274 42.716 122.89 41.492C122.506 40.268 122.314 38.912 122.314 37.424C122.314 35.336 122.65 33.56 123.322 32.096C124.018 30.608 125.014 29.468 126.31 28.676C127.63 27.884 129.19 27.488 130.99 27.488C132.814 27.488 134.35 27.908 135.598 28.748C136.87 29.564 137.83 30.716 138.478 32.204C139.126 33.692 139.45 35.432 139.45 37.424ZM124.438 37.424C124.438 39.056 124.666 40.496 125.122 41.744C125.578 42.968 126.286 43.916 127.246 44.588C128.206 45.26 129.406 45.596 130.846 45.596C132.334 45.596 133.558 45.26 134.518 44.588C135.478 43.892 136.186 42.932 136.642 41.708C137.098 40.46 137.326 39.032 137.326 37.424C137.326 35.816 137.11 34.4 136.678 33.176C136.246 31.952 135.562 30.992 134.626 30.296C133.69 29.6 132.466 29.252 130.954 29.252C128.77 29.252 127.138 29.972 126.058 31.412C124.978 32.852 124.438 34.856 124.438 37.424ZM148.137 47L140.793 27.848H142.953L147.705 40.556C147.921 41.084 148.113 41.612 148.281 42.14C148.473 42.668 148.641 43.172 148.785 43.652C148.929 44.108 149.049 44.54 149.145 44.948H149.253C149.373 44.54 149.505 44.096 149.649 43.616C149.817 43.136 149.997 42.632 150.189 42.104C150.381 41.576 150.561 41.06 150.729 40.556L155.481 27.848H157.677L150.333 47H148.137ZM176.856 37.424C176.856 38.912 176.664 40.268 176.28 41.492C175.92 42.692 175.368 43.736 174.624 44.624C173.904 45.488 173.004 46.16 171.924 46.64C170.844 47.12 169.608 47.36 168.216 47.36C166.896 47.36 165.708 47.132 164.652 46.676C163.62 46.196 162.732 45.524 161.988 44.66C161.244 43.772 160.68 42.716 160.296 41.492C159.912 40.268 159.72 38.912 159.72 37.424C159.72 35.336 160.056 33.56 160.728 32.096C161.424 30.608 162.42 29.468 163.716 28.676C165.036 27.884 166.596 27.488 168.396 27.488C170.22 27.488 171.756 27.908 173.004 28.748C174.276 29.564 175.236 30.716 175.884 32.204C176.532 33.692 176.856 35.432 176.856 37.424ZM161.844 37.424C161.844 39.056 162.072 40.496 162.528 41.744C162.984 42.968 163.692 43.916 164.652 44.588C165.612 45.26 166.812 45.596 168.252 45.596C169.74 45.596 170.964 45.26 171.924 44.588C172.884 43.892 173.592 42.932 174.048 41.708C174.504 40.46 174.732 39.032 174.732 37.424C174.732 35.816 174.516 34.4 174.084 33.176C173.652 31.952 172.968 30.992 172.032 30.296C171.096 29.6 169.872 29.252 168.36 29.252C166.176 29.252 164.544 29.972 163.464 31.412C162.384 32.852 161.844 34.856 161.844 37.424ZM189.738 47.36C187.866 47.36 186.27 46.976 184.95 46.208C183.654 45.416 182.658 44.288 181.962 42.824C181.29 41.36 180.954 39.596 180.954 37.532C180.954 35.372 181.338 33.548 182.106 32.06C182.898 30.572 183.978 29.444 185.346 28.676C186.714 27.884 188.322 27.488 190.17 27.488C191.082 27.488 191.934 27.584 192.726 27.776C193.542 27.944 194.262 28.172 194.886 28.46L194.346 30.188C193.698 29.924 193.002 29.72 192.258 29.576C191.514 29.408 190.806 29.324 190.134 29.324C188.598 29.324 187.302 29.66 186.246 30.332C185.214 30.98 184.422 31.916 183.87 33.14C183.342 34.364 183.078 35.828 183.078 37.532C183.078 39.116 183.306 40.52 183.762 41.744C184.242 42.944 184.974 43.88 185.958 44.552C186.942 45.224 188.202 45.56 189.738 45.56C190.674 45.56 191.55 45.464 192.366 45.272C193.206 45.08 193.974 44.828 194.67 44.516V46.388C194.046 46.652 193.326 46.88 192.51 47.072C191.694 47.264 190.77 47.36 189.738 47.36ZM214.275 27.848V47H212.583L212.295 43.724H212.187C211.851 44.42 211.371 45.044 210.747 45.596C210.147 46.148 209.427 46.58 208.587 46.892C207.747 47.204 206.775 47.36 205.671 47.36C204.183 47.36 202.935 47.108 201.927 46.604C200.943 46.076 200.199 45.296 199.695 44.264C199.191 43.232 198.939 41.948 198.939 40.412V27.848H200.991V40.232C200.991 42.056 201.399 43.412 202.215 44.3C203.055 45.164 204.279 45.596 205.887 45.596C207.303 45.596 208.479 45.332 209.415 44.804C210.351 44.252 211.047 43.436 211.503 42.356C211.983 41.276 212.223 39.932 212.223 38.324V27.848H214.275ZM228.45 27.524C228.93 27.524 229.386 27.56 229.818 27.632C230.274 27.68 230.682 27.752 231.042 27.848L230.754 29.72C230.37 29.624 229.986 29.552 229.602 29.504C229.218 29.432 228.798 29.396 228.342 29.396C227.478 29.396 226.698 29.564 226.002 29.9C225.306 30.236 224.706 30.716 224.202 31.34C223.698 31.964 223.314 32.708 223.05 33.572C222.786 34.436 222.654 35.408 222.654 36.488V47H220.602V27.848H222.33L222.546 31.448H222.654C222.966 30.704 223.386 30.044 223.914 29.468C224.466 28.868 225.126 28.4 225.894 28.064C226.662 27.704 227.514 27.524 228.45 27.524ZM236.786 27.848V47H234.77V27.848H236.786ZM235.778 20.756C236.234 20.756 236.582 20.9 236.822 21.188C237.062 21.452 237.182 21.824 237.182 22.304C237.182 22.808 237.062 23.204 236.822 23.492C236.582 23.756 236.234 23.888 235.778 23.888C235.346 23.888 235.01 23.756 234.77 23.492C234.53 23.204 234.41 22.808 234.41 22.304C234.41 21.824 234.53 21.452 234.77 21.188C235.01 20.9 235.346 20.756 235.778 20.756ZM255.161 41.924C255.161 43.076 254.873 44.06 254.297 44.876C253.721 45.692 252.881 46.316 251.777 46.748C250.673 47.156 249.329 47.36 247.745 47.36C246.425 47.36 245.249 47.24 244.217 47C243.185 46.76 242.309 46.472 241.589 46.136V44.156C242.453 44.588 243.425 44.948 244.505 45.236C245.585 45.5 246.677 45.632 247.781 45.632C249.701 45.632 251.081 45.32 251.921 44.696C252.761 44.048 253.181 43.172 253.181 42.068C253.181 41.348 252.977 40.76 252.569 40.304C252.185 39.824 251.597 39.404 250.805 39.044C250.037 38.66 249.077 38.276 247.925 37.892C246.749 37.484 245.705 37.076 244.793 36.668C243.881 36.236 243.173 35.696 242.669 35.048C242.165 34.4 241.913 33.512 241.913 32.384C241.913 30.848 242.537 29.648 243.785 28.784C245.033 27.92 246.701 27.488 248.789 27.488C249.941 27.488 251.009 27.596 251.993 27.812C253.001 28.028 253.913 28.316 254.729 28.676L254.009 30.368C253.529 30.152 252.989 29.96 252.389 29.792C251.789 29.6 251.177 29.456 250.553 29.36C249.929 29.264 249.305 29.216 248.681 29.216C247.169 29.216 245.993 29.48 245.153 30.008C244.313 30.536 243.893 31.304 243.893 32.312C243.893 33.08 244.085 33.692 244.469 34.148C244.877 34.58 245.465 34.952 246.233 35.264C247.025 35.576 247.973 35.936 249.077 36.344C250.205 36.728 251.225 37.136 252.137 37.568C253.073 38 253.805 38.552 254.333 39.224C254.885 39.896 255.161 40.796 255.161 41.924Z" fill="white"/>
</svg>
