<svg width="1351" height="354" viewBox="0 0 1351 354" fill="none" xmlns="http://www.w3.org/2000/svg">
<g clip-path="url(#clip0_6313_61218)">
<path d="M0.520021 190.023C1.03901 187.967 1.80975 186.116 2.03455 184.2C3.16956 174.526 5.70345 165.18 8.98847 156.093C13.1189 144.667 18.6452 133.889 25.4691 123.82C31.9702 114.227 39.4811 105.481 48.0214 97.7315C56.9022 89.6733 66.6097 82.6968 77.2567 77.1113C89.9331 70.4612 103.183 65.5664 117.263 62.8738C126.623 61.0841 136.001 60.2578 145.522 60.2737C193.704 60.3541 241.886 60.3107 290.068 60.3107C290.671 60.3107 291.273 60.3107 292.249 60.3107C292.249 61.2118 292.249 62.0417 292.249 62.8715C292.249 114.523 292.39 166.175 292.131 217.825C292.079 228.306 289.794 238.658 286.982 248.795C284.021 259.465 279.885 269.717 274.35 279.232C269.839 286.989 264.501 294.289 259.146 301.502C255.973 305.775 252.195 309.626 248.445 313.421C240.254 321.71 230.974 328.636 220.996 334.557C211.696 340.077 201.917 344.606 191.576 347.831C183.022 350.498 174.36 352.643 165.418 353.478C163.208 353.684 161 353.899 158.698 354.317C126.006 354.524 93.4077 354.524 60.5655 354.278C60.3218 334.892 60.2611 315.751 60.3355 296.611C60.4583 265.01 60.564 233.408 60.9382 201.81C61.0055 196.125 61.8444 190.335 63.1732 184.801C66.2325 172.058 72.2088 160.631 80.7299 150.763C88.9069 141.295 98.6091 133.727 110.065 128.458C121.523 123.187 133.564 120.776 146.005 120.685C173.823 120.482 201.643 120.622 229.462 120.622C230.39 120.622 231.317 120.622 232.447 120.622C232.447 121.802 232.447 122.742 232.447 123.682C232.447 141.774 232.509 159.867 232.424 177.959C232.371 189.457 232.016 200.955 231.954 212.453C231.904 221.633 229.864 230.365 226.732 238.909C223.181 248.597 217.978 257.314 211.182 264.986C202.158 275.171 191.409 282.974 178.713 287.963C171.042 290.977 163.152 293.307 154.946 293.591C143.693 293.98 132.417 293.696 121.151 293.684C118.046 293.681 117.014 292.635 117.008 289.501C116.994 282.159 116.995 274.818 117.008 267.476C117.013 264.495 118.207 263.28 121.145 263.275C129.031 263.262 136.924 263.455 144.802 263.202C149.63 263.047 154.545 262.696 159.234 261.61C175.65 257.806 187.693 248.139 195.615 233.131C199.942 224.934 201.657 216.135 201.727 207.004C201.861 189.524 201.766 172.043 201.766 154.563C201.766 153.628 201.766 152.694 201.766 151.564C200.586 151.564 199.653 151.564 198.72 151.564C181.387 151.564 164.054 151.522 146.722 151.586C140.421 151.609 134.218 152.501 128.235 154.605C119.042 157.84 111.213 163.018 104.7 170.441C95.762 180.628 91.2156 192.6 91.11 205.917C90.806 244.283 91.0027 282.654 91.0027 321.024C91.0027 321.853 91.0027 322.683 91.0027 323.582C110.959 323.582 130.542 323.603 150.124 323.559C152.945 323.552 155.766 323.249 158.586 323.057C168.084 322.411 177.154 319.995 186.133 316.849C200.15 311.939 212.478 304.227 223.53 294.45C230.744 288.068 236.988 280.713 242.349 272.631C249.235 262.25 254.43 251.074 257.693 239.042C260.001 230.528 261.571 221.861 261.57 212.975C261.565 173.47 261.568 133.964 261.568 94.4588C261.568 93.442 261.568 92.4253 261.568 91.2529C260.343 91.2529 259.405 91.2529 258.467 91.2529C221.722 91.2529 184.976 91.2541 148.231 91.2519C140.776 91.2514 133.373 91.358 125.957 92.7244C116.122 94.5367 106.675 97.375 97.6313 101.597C87.9138 106.134 79.0058 111.912 70.9058 119.039C63.5765 125.488 57.0504 132.607 51.4766 140.624C44.0173 151.354 38.5293 163.039 35.1211 175.681C32.8469 184.117 31.2027 192.674 31.2017 201.472C31.1993 222.798 31.2009 244.123 31.2009 265.449C31.2009 293.068 31.198 320.687 31.2059 348.306C31.2066 350.763 30.7757 353.008 28.6008 354.524C20.0964 354.524 11.5919 354.524 2.79363 354.349C1.83985 353.942 1.17994 353.708 0.520021 353.475C0.52002 300.32 0.52002 247.166 0.706735 193.699C0.768974 192.557 0.644497 191.727 0.52002 190.897C0.52002 190.664 0.52002 190.431 0.520021 190.023Z" fill="#392262"/>
<path d="M0.52002 353.737C1.17993 353.708 1.83985 353.941 2.54992 354.349C1.90673 354.349 1.21337 354.174 0.52002 353.737Z" fill="white"/>
<path d="M0.52002 191.117C0.644497 191.728 0.768974 192.558 0.706735 193.454C0.52002 192.793 0.52002 192.064 0.52002 191.117Z" fill="white"/>
<path d="M1042.63 95.9742C1042.63 84.0152 1042.63 72.3184 1042.63 60.312C1043.94 60.312 1045.12 60.312 1046.3 60.312C1055.66 60.312 1065.02 60.3789 1074.38 60.2645C1076.69 60.2363 1077.89 60.9007 1079.16 63.0421C1084.38 71.8633 1089.99 80.451 1095.41 89.155C1103.15 101.591 1110.83 114.066 1118.58 126.502C1124.89 136.643 1131.26 146.746 1137.6 156.874C1142.54 164.772 1147.45 172.684 1152.39 180.585C1152.55 180.846 1152.81 181.047 1153.36 181.633C1153.36 140.974 1153.36 100.769 1153.36 60.4379C1163.5 60.4379 1173.42 60.4379 1183.44 60.4379C1183.44 112.829 1183.44 165.124 1183.44 217.645C1182.67 217.645 1182 217.645 1181.33 217.645C1168.42 217.645 1155.51 217.622 1142.6 217.674C1140.96 217.681 1140.04 217.188 1139.13 215.706C1130.6 201.765 1121.97 187.887 1113.33 174.009C1107.47 164.585 1101.55 155.201 1095.67 145.782C1088.73 134.64 1081.81 123.479 1074.88 112.327C1074.35 111.477 1073.81 110.64 1072.93 109.266C1072.93 145.675 1072.93 181.493 1072.93 217.478C1062.77 217.478 1052.85 217.478 1042.63 217.478C1042.63 177.083 1042.63 136.66 1042.63 95.9742Z" fill="#392262"/>
<path d="M589.036 190.541C594.819 199.604 600.489 208.509 606.304 217.643C594.78 217.643 583.541 217.664 572.302 217.586C571.674 217.582 570.851 216.889 570.457 216.29C565.752 209.138 561.079 201.964 556.461 194.756C551.573 187.126 546.762 179.447 541.898 171.802C538.987 167.226 536.067 162.655 533.076 158.133C532.682 157.537 531.845 156.874 531.206 156.865C524.287 156.774 517.367 156.809 510.217 156.809C510.217 177.076 510.217 197.21 510.217 217.494C500.074 217.494 490.162 217.494 480.112 217.494C480.112 165.176 480.112 112.883 480.112 60.3102C481.063 60.3102 481.985 60.3102 482.908 60.3102C504.483 60.3102 526.058 60.213 547.632 60.3529C557.795 60.4188 567.677 62.4541 576.803 67.0376C588.38 72.8518 595.812 82.0989 598.022 95.2054C599.898 106.337 599.889 117.367 595.933 128.113C592.772 136.696 587.241 143.42 579.409 147.972C575.154 150.444 570.501 152.216 565.846 154.388C573.398 166.168 581.16 178.276 589.036 190.541ZM511.039 83.9153C510.738 84.7584 510.177 85.6006 510.174 86.4448C510.12 101.292 510.135 116.14 510.135 130.987C510.135 131.66 510.135 132.332 510.135 133.692C523.713 133.173 537.059 133.069 550.325 131.97C556.252 131.479 561.406 128.135 564.982 122.816C569.027 116.799 569.486 110.035 568.737 103.289C568.07 97.2891 565.169 92.0815 559.831 88.7677C554.526 85.4742 548.575 84.097 542.455 83.9692C532.154 83.7541 521.845 83.9106 511.039 83.9153Z" fill="#392262"/>
<path d="M732.258 191.421C739.868 192.122 747.243 193.3 754.629 193.376C761.097 193.443 767.619 192.49 773.522 189.254C779.148 186.169 782.802 181.585 782.876 175.028C782.948 168.713 779.492 164.185 774.214 160.987C767.464 156.897 760.052 154.9 752.354 153.634C741.272 151.812 730.118 150.26 719.182 147.758C709.753 145.601 701.164 141.263 693.762 134.663C686.248 127.962 681.901 119.572 680.815 109.754C679.54 98.2105 681.228 87.0038 688.803 77.6896C695.012 70.0534 703.061 64.8502 712.468 61.8995C719.962 59.5488 727.574 58.0078 735.48 58.1941C740.07 58.3022 744.677 57.9939 749.255 58.2597C758.639 58.8048 768.013 59.5538 777.383 60.3254C785.989 61.0342 794.457 62.5316 802.587 65.5766C804.465 66.28 806.239 67.2652 808.495 68.3244C803.09 76.638 797.855 84.6903 792.594 92.7818C787.586 89.6743 782.16 88.5621 776.746 87.6256C762.706 85.1969 748.513 85.2607 734.336 85.5321C728.192 85.6497 722.326 87.1196 717.122 90.7138C710.014 95.6232 710.407 103.424 715.233 108.977C720.15 114.636 727.015 116.902 733.951 118.41C740.967 119.936 748.166 120.602 755.28 121.676C770.227 123.931 784.859 127.303 796.97 137.096C804.628 143.289 809.992 151.285 811.708 161.28C812.475 165.743 813.321 170.3 813.207 174.791C812.813 190.383 806.55 202.736 792.867 210.899C785.689 215.182 777.923 217.291 769.829 218.73C759.886 220.498 749.855 220 739.916 219.568C730.718 219.169 721.585 217.281 712.417 216.104C705.102 215.165 698.084 213.083 691.324 210.232C687.874 208.778 684.708 206.639 681.23 204.707C687.42 195.423 693.191 186.767 699.01 178.039C708.351 185.793 719.219 188.657 730.332 190.91C730.908 191.027 731.463 191.247 732.258 191.421Z" fill="#392262"/>
<path d="M1337.48 78.1362C1337.48 80.4824 1337.48 82.5673 1337.48 84.8819C1308.19 84.8819 1279.04 84.8819 1249.74 84.8819C1249.74 100.528 1249.74 115.943 1249.74 131.592C1277.53 131.592 1305.3 131.592 1333.19 131.592C1333.19 139.548 1333.19 147.272 1333.19 155.23C1305.34 155.23 1277.58 155.23 1249.71 155.23C1249.71 167.844 1249.71 180.226 1249.71 192.84C1280.02 192.84 1310.39 192.84 1340.93 192.84C1340.93 201.143 1340.93 209.218 1340.93 217.469C1300.6 217.469 1260.19 217.469 1219.61 217.469C1219.61 165.24 1219.61 112.945 1219.61 60.4805C1258.75 60.4805 1297.95 60.4805 1337.48 60.4805C1337.48 66.2402 1337.48 72.0575 1337.48 78.1362Z" fill="#392262"/>
<path d="M436.976 69.6069C446.58 75.5611 452.234 84.1356 453.858 95.0415C454.846 101.677 455.304 108.531 454.873 115.213C454.11 127.058 450.327 137.972 441.576 146.428C434.508 153.259 425.735 156.852 416.272 158.917C409.096 160.482 401.83 160.551 394.539 160.497C385.184 160.428 375.828 160.48 366.237 160.48C366.237 179.457 366.237 198.37 366.237 217.464C356.092 217.464 346.178 217.464 336.097 217.464C336.097 165.233 336.097 112.935 336.097 60.3113C336.879 60.3113 337.709 60.3113 338.538 60.3113C360.896 60.3113 383.256 60.0925 405.608 60.4228C414.131 60.5487 422.553 62.3183 430.387 66.0683C432.575 67.1159 434.678 68.345 436.976 69.6069ZM375.711 83.9113C372.541 83.9113 369.37 83.9113 366.268 83.9113C366.268 101.758 366.268 119.273 366.268 136.356C378.965 136.356 391.503 136.797 403.992 136.192C411.609 135.824 417.582 131.647 421.339 124.544C424.828 117.948 425.397 110.868 424.736 103.752C424.156 97.5119 421.228 92.1647 415.727 88.7344C410.501 85.4748 404.621 84.169 398.588 83.97C391.143 83.7244 383.684 83.9113 375.711 83.9113Z" fill="#392262"/>
<path d="M874.146 190.372C874.146 155.164 874.146 120.217 874.146 85.0328C856.643 85.0328 839.275 85.0328 821.767 85.0328C821.767 76.5462 821.767 68.2966 821.767 59.916C866.565 59.916 911.317 59.916 956.188 59.916C956.188 68.1818 956.188 76.37 956.188 84.7967C939.067 84.7967 921.873 84.7967 904.446 84.7967C904.446 129.118 904.446 173.202 904.446 217.465C894.302 217.465 884.388 217.465 874.146 217.465C874.146 208.563 874.146 199.599 874.146 190.372Z" fill="#392262"/>
<path d="M652.556 60.3105C653.56 60.346 654.311 60.3816 655.135 60.4205C655.135 112.82 655.135 165.047 655.135 217.459C645.23 217.459 635.318 217.459 625.232 217.459C625.232 165.254 625.232 112.965 625.232 60.3105C634.194 60.3105 643.248 60.3105 652.556 60.3105Z" fill="#392262"/>
<path d="M1007.27 91.2534C1007.27 133.444 1007.27 175.373 1007.27 217.473C997.253 217.473 987.342 217.473 977.269 217.473C977.269 165.229 977.269 112.941 977.269 60.4824C987.126 60.4824 997.037 60.4824 1007.27 60.4824C1007.27 70.621 1007.27 80.8061 1007.27 91.2534Z" fill="#392262"/>
<path d="M772.49 254.482C782.363 256.223 790.724 260.444 797.533 267.581C804.585 274.972 808.52 283.784 809.74 294.026C810.749 302.501 809.984 310.677 807.03 318.594C801.574 333.22 791.02 342.089 775.898 344.965C770.138 346.06 764.055 346.523 758.234 345.994C740.504 344.381 724.933 333.8 720.225 314.242C717.199 301.672 717.651 289.353 723.812 277.68C730.457 265.089 740.934 257.761 754.68 254.838C760.553 253.59 766.392 253.707 772.49 254.482ZM790.193 281.139C789.961 280.88 789.682 280.651 789.504 280.359C783.593 270.653 775.108 265.732 763.701 265.864C751.799 266.001 743.565 272.093 737.989 282.079C733.623 289.897 733.038 298.456 734.195 307.323C735.878 320.222 745.747 332.625 759.595 334.208C769.892 335.385 778.727 332.902 785.949 325.619C792.455 319.057 794.62 310.467 795.047 301.485C795.382 294.44 793.612 287.753 790.193 281.139Z" fill="#0E756E"/>
<path d="M700.981 299.982C700.981 315.087 700.981 329.93 700.981 344.928C696.277 344.928 691.741 344.928 687.032 344.928C687.032 332.838 687.032 320.807 687.032 308.575C670.02 308.575 653.177 308.575 636.071 308.575C636.071 320.588 636.071 332.682 636.071 344.929C631.273 344.929 626.737 344.929 622.068 344.929C622.068 315.005 622.068 285.145 622.068 255.083C626.546 255.083 631.084 255.083 635.888 255.083C635.888 268.844 635.888 282.686 635.888 296.681C652.992 296.681 669.835 296.681 686.848 296.681C686.848 282.841 686.848 269.062 686.848 255.082C691.549 255.082 696.088 255.082 700.981 255.082C700.981 269.91 700.981 284.815 700.981 299.982Z" fill="#0E756E"/>
<path d="M1178.73 328.476C1181.07 334.068 1183.29 339.489 1185.59 345.085C1180.76 345.085 1176.17 345.154 1171.6 345.014C1170.88 344.992 1169.86 344.171 1169.55 343.463C1167.42 338.734 1165.4 333.95 1163.44 329.149C1162.89 327.81 1162.25 327.198 1160.66 327.207C1146.63 327.288 1132.6 327.277 1118.57 327.219C1117.18 327.213 1116.44 327.571 1115.91 328.912C1114.07 333.49 1112.09 338.006 1110.21 342.566C1109.51 344.264 1108.74 345.316 1106.51 345.167C1102.29 344.885 1098.04 345.085 1093.4 345.085C1094.07 343.272 1094.57 341.696 1095.22 340.185C1100.23 328.63 1105.27 317.094 1110.27 305.539C1114.8 295.082 1119.27 284.601 1123.8 274.145C1126.33 268.287 1128.98 262.479 1131.48 256.602C1132.03 255.29 1132.67 254.806 1134.1 254.844C1138.08 254.95 1142.07 254.832 1146.05 254.927C1146.76 254.944 1147.86 255.377 1148.1 255.921C1153.19 267.708 1158.2 279.528 1163.18 291.364C1168.36 303.665 1173.47 315.99 1178.73 328.476ZM1127.95 299.799C1125.72 305.222 1123.5 310.645 1121.23 316.181C1133.55 316.181 1145.66 316.181 1158.02 316.181C1151.93 301.632 1145.89 287.229 1139.64 272.311C1135.65 281.76 1131.91 290.609 1127.95 299.799Z" fill="#0E756E"/>
<path d="M866.201 346.133C861.711 346.133 857.44 346.432 853.226 346.073C843.42 345.236 833.651 344.033 824.731 339.312C824.43 339.152 824.135 338.981 823.837 338.813C820.538 336.96 820.544 336.964 822.689 333.781C824.498 331.098 826.333 328.431 828.061 325.695C828.673 324.727 829.025 324.273 830.192 325.107C838.277 330.888 847.532 332.812 857.215 333.613C863.325 334.118 869.024 333.481 874.129 329.867C879.453 326.096 881.506 316.518 873.476 311.496C868.252 308.228 862.404 307.021 856.413 306.268C847.912 305.201 839.489 303.889 831.998 299.199C825.422 295.082 822.019 289.201 821.599 281.413C821.257 275.078 822.502 269.251 826.598 264.317C830.851 259.193 836.414 256.199 842.862 254.895C848.859 253.683 854.885 253.409 860.977 254.326C867.612 255.324 874.311 255.913 880.916 257.063C883.942 257.59 886.811 259.033 890.177 260.209C887.552 264.07 885.224 267.595 882.74 271.005C882.459 271.391 881.177 271.401 880.566 271.123C875.38 268.767 869.908 267.764 864.286 267.479C859.56 267.24 854.799 266.717 850.111 267.081C846.951 267.327 843.556 268.336 840.852 269.982C834.016 274.145 834.602 282.868 841.592 286.934C846.723 289.92 852.356 290.913 858.088 291.578C867.256 292.642 876.24 294.429 883.788 300.164C889.434 304.454 892.414 310.492 892.834 317.62C893.244 324.589 891.849 331.055 887.203 336.601C884.472 339.862 881.006 341.977 877.217 343.402C873.77 344.698 870.047 345.252 866.201 346.133Z" fill="#0E756E"/>
<path d="M1303.01 291.612C1307.12 292.487 1311.03 293.209 1314.86 294.235C1322.47 296.272 1329.15 299.855 1333.22 307.012C1336.15 312.153 1337.22 317.809 1336.08 323.628C1335.4 327.079 1334.49 330.696 1332.74 333.677C1328.99 340.085 1322.82 343.46 1315.78 345.037C1308.34 346.703 1300.8 346.325 1293.25 345.666C1285.25 344.968 1277.49 343.404 1270.07 340.321C1268.38 339.615 1266.8 338.544 1265.31 337.451C1264.96 337.192 1264.86 335.975 1265.14 335.524C1267.29 332.144 1269.53 328.819 1271.85 325.559C1272.13 325.162 1273.32 324.908 1273.69 325.167C1281.86 330.84 1291.08 332.827 1300.77 333.611C1306.15 334.046 1311.18 333.549 1315.99 330.977C1320.16 328.746 1322.21 325.148 1322.33 320.611C1322.45 316.159 1319.9 313.109 1316.15 310.986C1311.18 308.177 1305.76 306.972 1300.18 306.273C1291.42 305.175 1282.68 303.969 1275.07 298.922C1268.83 294.785 1265.7 289.013 1265.12 281.385C1264.02 266.965 1274.24 257.367 1286.47 254.888C1292.47 253.672 1298.5 253.408 1304.59 254.328C1311.14 255.317 1317.76 255.91 1324.28 257.055C1327.39 257.601 1330.35 259.025 1333.61 260.132C1331.21 263.837 1329.12 267.238 1326.8 270.467C1326.38 271.055 1324.8 271.4 1324.1 271.082C1318.9 268.72 1313.4 267.841 1307.8 267.491C1302.99 267.191 1298.14 266.745 1293.36 267.077C1290.36 267.284 1287.19 268.339 1284.56 269.838C1277.82 273.674 1277.75 282.752 1285.45 287.097C1290.82 290.127 1296.72 291.202 1303.01 291.612Z" fill="#0E756E"/>
<path d="M353.157 296.836C368.296 296.836 383.181 296.836 398.198 296.836C398.198 300.686 398.198 304.326 398.198 308.232C382.455 308.232 366.65 308.232 350.668 308.232C350.668 316.741 350.668 324.988 350.668 333.5C367.849 333.5 385.041 333.5 402.361 333.5C402.361 337.402 402.361 341.042 402.361 344.884C380.543 344.884 358.673 344.884 336.626 344.884C336.626 315.035 336.626 285.113 336.626 255.035C357.797 255.035 378.973 255.035 400.281 255.035C400.281 258.91 400.281 262.725 400.281 266.806C383.837 266.806 367.339 266.806 350.666 266.806C350.666 276.888 350.666 286.708 350.666 296.706C351.403 296.748 352.153 296.792 353.157 296.836Z" fill="#0E756E"/>
<path d="M539.256 308.374C531.211 308.374 523.427 308.374 515.49 308.374C515.49 316.79 515.49 325.036 515.49 333.455C532.68 333.455 549.809 333.455 567.137 333.455C567.137 337.321 567.137 341.024 567.137 344.907C545.342 344.907 523.472 344.907 501.449 344.907C501.449 314.991 501.449 285.069 501.449 255.014C522.623 255.014 543.738 255.014 565.055 255.014C565.055 258.824 565.055 262.702 565.055 266.848C548.64 266.848 532.142 266.848 515.491 266.848C515.491 276.93 515.491 286.75 515.491 296.741C531.117 296.741 546.686 296.741 562.456 296.741C562.456 300.607 562.456 304.31 562.456 308.374C554.864 308.374 547.19 308.374 539.256 308.374Z" fill="#0E756E"/>
<path d="M939.147 254.881C945.737 254.821 951.997 255.08 958.171 256.881C968.477 259.887 974.364 268.963 974.597 279.091C974.74 285.308 974.386 291.262 972.053 297.115C969.122 304.466 963.475 308.365 956.324 310.442C949.82 312.331 943.1 312.085 936.416 312.05C931.741 312.025 927.067 312.045 922.139 312.045C922.139 322.978 922.139 333.843 922.139 344.896C917.182 344.896 912.473 344.896 907.594 344.896C907.594 315.034 907.594 285.128 907.594 254.881C918.005 254.881 928.446 254.881 939.147 254.881ZM921.987 298.024C921.987 298.969 921.987 299.913 921.987 300.657C923.133 300.6 924.067 300.515 925.001 300.514C932.271 300.502 939.544 300.643 946.81 300.464C952.445 300.325 957.101 297.168 959.213 291.601C960.868 287.238 960.779 282.713 960.346 278.295C959.913 273.868 957.66 270.078 953.266 268.393C950.704 267.411 947.922 266.595 945.213 266.506C937.546 266.256 929.867 266.418 921.987 266.418C921.987 276.969 921.987 287.249 921.987 298.024Z" fill="#0E756E"/>
<path d="M1035.35 254.881C1053.97 254.881 1072.32 254.881 1090.84 254.881C1090.84 258.924 1090.84 262.801 1090.84 266.85C1080.58 266.85 1070.39 266.85 1059.93 266.85C1059.93 292.922 1059.93 318.824 1059.93 344.906C1055.14 344.906 1050.6 344.906 1045.8 344.906C1045.8 319.013 1045.8 293.111 1045.8 267.038C1035.34 267.038 1025.15 267.038 1014.75 267.038C1014.75 262.997 1014.75 259.119 1014.75 254.881C1021.48 254.881 1028.28 254.881 1035.35 254.881Z" fill="#0E756E"/>
<path d="M481.155 268.173C473.381 280.405 465.691 292.462 458.089 304.574C457.454 305.586 457.143 306.975 457.135 308.192C457.065 319.467 457.094 330.742 457.094 342.018C457.094 342.957 457.094 343.896 457.094 344.958C452.393 344.958 447.917 344.958 443.053 344.958C443.053 344.08 443.053 343.163 443.053 342.245C443.053 331.582 442.966 320.917 443.119 310.256C443.154 307.784 442.549 305.71 441.283 303.741C433.545 291.71 425.778 279.698 418.042 267.666C415.424 263.595 412.869 259.484 409.997 254.935C415.054 254.935 419.784 254.596 424.41 255.148C425.749 255.307 426.914 257.943 427.945 259.58C435.195 271.097 442.389 282.65 449.833 294.564C451.13 292.545 452.307 290.737 453.461 288.915C460.34 278.054 467.202 267.183 474.115 256.345C474.511 255.724 475.298 254.964 475.921 254.947C480.323 254.826 484.73 254.882 489.726 254.882C486.742 259.512 484.003 263.762 481.155 268.173Z" fill="#0E756E"/>
<path d="M1211.12 272.711C1211.12 293.054 1211.12 313.135 1211.12 333.472C1226.37 333.472 1241.48 333.472 1256.73 333.472C1256.73 337.429 1256.73 341.129 1256.73 344.957C1236.93 344.957 1217.21 344.957 1197.28 344.957C1197.28 315.103 1197.28 285.19 1197.28 255.078C1201.69 255.078 1206.23 255.078 1211.12 255.078C1211.12 260.819 1211.12 266.634 1211.12 272.711Z" fill="#0E756E"/>
<path d="M1003.11 285.822C1003.11 305.646 1003.11 325.209 1003.11 344.927C998.406 344.927 993.869 344.927 989.2 344.927C989.2 315.005 989.2 285.145 989.2 255.082C993.676 255.082 998.215 255.082 1003.11 255.082C1003.11 265.187 1003.11 275.373 1003.11 285.822Z" fill="#0E756E"/>
<path d="M157.846 227.738C155.035 227.281 152.436 226.768 149.814 226.587C141.413 226.006 133.741 228.708 126.253 232.142C123.8 233.267 121.346 234.388 118.555 235.338C122.354 227.067 126.276 218.831 127.31 209.737C128.363 200.478 125.245 191.855 121.944 182.727C130.994 186.082 139.599 189.271 148.858 188.14C157.797 187.049 165.884 183.115 174.342 179.385C164.823 196.23 161.764 213.329 170.986 231.352C170.706 231.445 170.426 231.539 170.147 231.632C166.114 230.366 162.081 229.1 157.846 227.738Z" fill="#0E756E"/>
</g>
<defs>
<clipPath id="clip0_6313_61218">
<rect width="1351" height="354" fill="white"/>
</clipPath>
</defs>
</svg>
