<svg width="27" height="28" viewBox="0 0 27 28" fill="none" xmlns="http://www.w3.org/2000/svg">
<g clip-path="url(#clip0_11876_11247)">
<path d="M13.5 0C10.83 0 8.21987 0.821086 5.99981 2.35943C3.77974 3.89777 2.04942 6.08427 1.02763 8.64243C0.00584936 11.2006 -0.261496 14.0155 0.259405 16.7313C0.780305 19.447 2.06606 21.9416 3.95406 23.8995C5.84207 25.8574 8.24754 27.1908 10.8663 27.731C13.485 28.2712 16.1994 27.9939 18.6662 26.9343C21.133 25.8747 23.2414 24.0803 24.7248 21.778C26.2082 19.4757 27 16.7689 27 14C26.9961 10.2882 25.5726 6.72958 23.0417 4.10494C20.5108 1.4803 17.0792 0.0040146 13.5 0ZM13.5 25.6667C11.275 25.6667 9.09989 24.9824 7.24984 23.7005C5.39979 22.4185 3.95785 20.5964 3.10636 18.4646C2.25488 16.3328 2.03209 13.9871 2.46617 11.7239C2.90026 9.46084 3.97171 7.38203 5.54505 5.75042C7.1184 4.11881 9.12295 3.00767 11.3052 2.55751C13.4875 2.10734 15.7495 2.33838 17.8052 3.22141C19.8609 4.10443 21.6179 5.59977 22.854 7.51835C24.0902 9.43692 24.75 11.6926 24.75 14C24.7467 17.0932 23.5604 20.0586 21.4513 22.2458C19.3423 24.433 16.4827 25.6633 13.5 25.6667Z" fill="#913393"/>
<path d="M13.5 11.668H12.375C12.0766 11.668 11.7905 11.7909 11.5795 12.0097C11.3685 12.2285 11.25 12.5252 11.25 12.8346C11.25 13.1441 11.3685 13.4408 11.5795 13.6596C11.7905 13.8784 12.0766 14.0013 12.375 14.0013H13.5V21.0013C13.5 21.3107 13.6185 21.6075 13.8295 21.8263C14.0405 22.0451 14.3266 22.168 14.625 22.168C14.9234 22.168 15.2095 22.0451 15.4205 21.8263C15.6315 21.6075 15.75 21.3107 15.75 21.0013V14.0013C15.75 13.3825 15.5129 12.789 15.091 12.3514C14.669 11.9138 14.0967 11.668 13.5 11.668Z" fill="#913393"/>
<path d="M13.5 9.33203C14.432 9.33203 15.1875 8.54853 15.1875 7.58203C15.1875 6.61553 14.432 5.83203 13.5 5.83203C12.568 5.83203 11.8125 6.61553 11.8125 7.58203C11.8125 8.54853 12.568 9.33203 13.5 9.33203Z" fill="#913393"/>
</g>
<defs>
<clipPath id="clip0_11876_11247">
<rect width="27" height="28" fill="white"/>
</clipPath>
</defs>
</svg>
