<svg width="42" height="43" viewBox="0 0 42 43" fill="none" xmlns="http://www.w3.org/2000/svg">
<path d="M41.9997 22.0491C41.9997 10.5144 32.6524 1.1637 21.1219 1.1637C9.59144 1.1637 0.244141 10.5144 0.244141 22.0491C0.244141 33.5838 9.59144 42.9345 21.1219 42.9345C32.6524 42.9345 41.9997 33.5838 41.9997 22.0491Z" fill="url(#paint0_linear_6753_8666)"/>
<path opacity="0.1" d="M36.8355 8.30618C33.7917 13.8958 29.4871 19.6612 24.1083 25.042C18.7295 30.4227 12.9661 34.7207 7.38683 37.7656C7.03703 37.4615 6.69731 37.1445 6.36766 36.8148C4.37509 34.888 2.78591 32.5837 1.69279 30.0362C0.599665 27.4887 0.0244776 24.7489 0.000764393 21.9767C-0.0229488 19.2045 0.505287 16.4553 1.55467 13.8895C2.60405 11.3236 4.15358 8.99244 6.1129 7.03186C8.07222 5.07127 10.4021 3.52053 12.9668 2.47004C15.5314 1.41956 18.2794 0.890365 21.0506 0.913313C23.8218 0.936261 26.5607 1.51089 29.1076 2.6037C31.6545 3.69651 33.9584 5.28563 35.885 7.2784C36.2147 7.60817 36.5315 7.95076 36.8355 8.30618Z" fill="white"/>
<path d="M26.0659 11.0536H16.1764C14.5735 11.0536 13.0363 11.6906 11.9029 12.8244C10.7695 13.9582 10.1328 15.4959 10.1328 17.0994V26.9925C10.1328 28.5959 10.7695 30.1337 11.9029 31.2675C13.0363 32.4013 14.5735 33.0382 16.1764 33.0382H26.0659C27.6687 33.0382 29.2059 32.4013 30.3393 31.2675C31.4727 30.1337 32.1094 28.5959 32.1094 26.9925V17.0994C32.1094 15.4959 31.4727 13.9582 30.3393 12.8244C29.2059 11.6906 27.6687 11.0536 26.0659 11.0536ZM30.1865 26.1241C30.1865 27.4476 29.6609 28.717 28.7253 29.6529C27.7898 30.5888 26.5209 31.1146 25.1978 31.1146H17.0445C15.7214 31.1146 14.4525 30.5888 13.5169 29.6529C12.5814 28.717 12.0558 27.4476 12.0558 26.1241V17.9678C12.0558 16.6442 12.5814 15.3748 13.5169 14.4389C14.4525 13.503 15.7214 12.9772 17.0445 12.9772H25.1978C26.5209 12.9772 27.7898 13.503 28.7253 14.4389C29.6609 15.3748 30.1865 16.6442 30.1865 17.9678V26.1241Z" fill="white"/>
<path d="M25.1282 18.0748L25.076 18.0226L25.032 17.9787C23.9933 16.9432 22.5865 16.3621 21.1202 16.3628C20.3797 16.3678 19.6474 16.5188 18.9653 16.807C18.2831 17.0952 17.6644 17.5151 17.1445 18.0426C16.6246 18.5701 16.2136 19.1949 15.9352 19.8813C15.6567 20.5677 15.5162 21.3023 15.5216 22.0431C15.5205 23.5464 16.1129 24.9894 17.1699 26.058C17.6876 26.5822 18.3046 26.998 18.9847 27.2811C19.6648 27.5642 20.3945 27.709 21.1312 27.7069C22.2361 27.6837 23.3105 27.3393 24.2232 26.7158C25.1359 26.0923 25.8475 25.2166 26.2713 24.1955C26.695 23.1744 26.8126 22.0519 26.6096 20.9651C26.4066 19.8783 25.8919 18.874 25.1282 18.0748ZM21.1202 25.7695C20.3813 25.7798 19.656 25.5701 19.0366 25.167C18.4172 24.7639 17.9317 24.1856 17.6417 23.5057C17.3517 22.8257 17.2705 22.0749 17.4083 21.3486C17.5461 20.6224 17.8967 19.9535 18.4155 19.4271C18.9343 18.9008 19.5979 18.5406 20.3219 18.3926C21.0458 18.2445 21.7975 18.3152 22.4812 18.5956C23.1649 18.8761 23.7498 19.3536 24.1614 19.9675C24.5731 20.5814 24.7929 21.3039 24.793 22.0431C24.7966 22.5291 24.7045 23.011 24.5218 23.4613C24.3392 23.9117 24.0696 24.3216 23.7285 24.6676C23.3874 25.0137 22.9815 25.2892 22.5339 25.4782C22.0864 25.6673 21.606 25.7662 21.1202 25.7695Z" fill="white"/>
<path d="M28.3842 16.1028C28.3857 16.2791 28.3524 16.454 28.2861 16.6175C28.2199 16.7809 28.1222 16.9297 27.9984 17.0553C27.8747 17.1808 27.7274 17.2808 27.5649 17.3493C27.4025 17.4179 27.2282 17.4538 27.0519 17.4548C26.8771 17.4548 26.7041 17.42 26.5428 17.3525C26.3815 17.2851 26.2352 17.1863 26.1124 17.0619C25.9263 16.873 25.7997 16.6336 25.7483 16.3734C25.697 16.1132 25.723 15.8437 25.8234 15.5982C25.9237 15.3527 26.0938 15.142 26.3127 14.9924C26.5316 14.8427 26.7896 14.7606 27.0547 14.7562C27.3649 14.7562 27.6653 14.8651 27.9035 15.064L27.931 15.0915C27.9753 15.1276 28.0158 15.1681 28.0518 15.2124L28.0821 15.2454C28.2787 15.4877 28.3855 15.7907 28.3842 16.1028Z" fill="white"/>
<defs>
<linearGradient id="paint0_linear_6753_8666" x1="6.35913" y1="7.28092" x2="35.8955" y2="36.8065" gradientUnits="userSpaceOnUse">
<stop stop-color="#FAE100"/>
<stop offset="0.15" stop-color="#FCB720"/>
<stop offset="0.3" stop-color="#FF7950"/>
<stop offset="0.5" stop-color="#FF1C74"/>
<stop offset="1" stop-color="#6C1CD1"/>
</linearGradient>
</defs>
</svg>
