<svg width="44" height="44" viewBox="0 0 44 44" fill="none" xmlns="http://www.w3.org/2000/svg">
    <g clip-path="url(#clip0_1019_8503)">
        <path d="M10.8093 43.3552C14.6649 43.3552 17.7904 42.0815 17.7904 40.5103C17.7904 38.9391 14.6649 37.6654 10.8093 37.6654C6.95369 37.6654 3.82812 38.9391 3.82812 40.5103C3.82812 42.0815 6.95369 43.3552 10.8093 43.3552Z" fill="#DFEEFA"/>
        <path d="M17.1816 39.3485C16.0913 40.3406 13.6491 41.0321 10.8091 41.0321C7.96912 41.0321 5.52694 40.3406 4.43656 39.3485C4.04666 39.7033 3.82812 40.096 3.82812 40.5099C3.82812 42.0812 6.95359 43.3548 10.8092 43.3548C14.6647 43.3548 17.7902 42.0812 17.7902 40.5099C17.7901 40.096 17.5714 39.7032 17.1816 39.3485Z" fill="#f00"/>
        <path d="M10.807 13.8712C5.20527 13.8712 0.664062 18.4123 0.664062 24.0142C0.664062 32.5446 10.807 40.3935 10.807 40.3935C10.807 40.3935 20.95 32.5446 20.95 24.0142C20.95 18.4123 16.4089 13.8712 10.807 13.8712ZM10.807 28.0596C8.57282 28.0596 6.7616 26.2484 6.7616 24.0142C6.7616 21.78 8.57282 19.9687 10.807 19.9687C13.0412 19.9687 14.8525 21.7799 14.8525 24.0142C14.8525 26.2484 13.0413 28.0596 10.807 28.0596Z" fill="#000"/>
        <path d="M10.8098 13.8712C10.417 13.8712 10.0297 13.8942 9.64844 13.9378C14.7031 14.5141 18.63 18.8052 18.63 24.0142C18.63 30.748 12.3108 37.0559 9.64844 39.4149C10.3588 40.0443 10.8098 40.3936 10.8098 40.3936C10.8098 40.3936 20.9528 32.5448 20.9528 24.0144C20.9528 18.4123 16.4116 13.8712 10.8098 13.8712Z" fill="#000"/>
        <path d="M35.5374 23.3054C38.5007 23.3054 40.9029 22.3265 40.9029 21.1189C40.9029 19.9113 38.5007 18.9324 35.5374 18.9324C32.5741 18.9324 30.1719 19.9113 30.1719 21.1189C30.1719 22.3265 32.5741 23.3054 35.5374 23.3054Z" fill="#DFEEFA"/>
        <path d="M40.0826 19.9575C39.1334 20.5732 37.4532 20.9827 35.5373 20.9827C33.6214 20.9827 31.9412 20.5732 30.992 19.9575C30.4731 20.2941 30.1719 20.692 30.1719 21.1189C30.1719 22.3266 32.574 23.3054 35.5373 23.3054C38.5005 23.3054 40.9027 22.3264 40.9027 21.1189C40.9027 20.692 40.6015 20.2941 40.0826 19.9575Z" fill="#f00"/>
        <path d="M35.5377 0.645264C31.2323 0.645264 27.7422 4.13545 27.7422 8.44084C27.7422 14.9971 35.5377 21.0295 35.5377 21.0295C35.5377 21.0295 43.3333 14.9971 43.3333 8.44084C43.3333 4.13545 39.8431 0.645264 35.5377 0.645264ZM35.5377 11.5501C33.8205 11.5501 32.4285 10.1581 32.4285 8.44084C32.4285 6.72364 33.8205 5.33162 35.5377 5.33162C37.2549 5.33162 38.647 6.72364 38.647 8.44084C38.647 10.1581 37.2549 11.5501 35.5377 11.5501Z" fill="#000"/>
        <path d="M35.5403 0.645264C35.1456 0.645264 34.7579 0.674826 34.3789 0.731459C38.1334 1.29229 41.013 4.53016 41.013 8.44075C41.013 13.4012 36.5512 18.0611 34.3789 20.0359C35.0777 20.6712 35.5403 21.0294 35.5403 21.0294C35.5403 21.0294 43.3358 14.997 43.3358 8.44075C43.3358 4.13545 39.8457 0.645264 35.5403 0.645264Z" fill="#000"/>
        <path d="M10.8077 13.226C4.85911 13.226 0.0195312 18.0655 0.0195312 24.0141C0.0195312 27.7075 1.77644 31.6785 5.24153 35.8169C5.75639 36.4318 6.26943 37.0016 6.76177 37.5214C4.52447 38.1321 3.18126 39.2292 3.18126 40.5098C3.18126 42.7767 7.11051 44 10.8075 44C14.5044 44 18.4337 42.7767 18.4337 40.5098C18.4337 39.2303 17.0908 38.1328 14.855 37.5219C15.7482 36.5789 16.7093 35.4695 17.6213 34.232C17.8328 33.9451 17.7715 33.5412 17.4846 33.3298C17.198 33.1186 16.7939 33.1797 16.5825 33.4665C15.4814 34.9607 14.2897 36.2738 13.2497 37.3169C13.1305 37.3777 13.0308 37.4743 12.9684 37.5961C12.0368 38.5116 11.2529 39.1907 10.8081 39.5618C10.3682 39.1943 9.59625 38.5244 8.67663 37.6208C8.61063 37.4762 8.49471 37.3628 8.35325 37.2995C5.43077 34.36 1.31006 29.2814 1.31006 24.0143C1.31006 18.7773 5.57076 14.5166 10.8078 14.5166C16.0448 14.5166 20.3056 18.7773 20.3056 24.0143C20.3056 26.3014 19.5263 28.7712 17.9894 31.3553C17.8073 31.6616 17.9078 32.0576 18.2141 32.2397C18.5204 32.4218 18.9164 32.3212 19.0985 32.0149C20.7557 29.2285 21.596 26.5368 21.596 24.0143C21.5959 18.0655 16.7563 13.226 10.8077 13.226ZM10.8077 41.0387C10.947 41.0387 11.0863 40.9937 11.2026 40.9037C11.2818 40.8425 12.3599 40.0016 13.7971 38.5965C15.9732 39.0403 17.1433 39.8947 17.1433 40.5098C17.1433 40.9691 16.5137 41.5111 15.5003 41.924C14.2573 42.4306 12.5907 42.7096 10.8075 42.7096C6.93983 42.7096 4.47162 41.4066 4.47162 40.5098C4.47162 39.8939 5.64209 39.0398 7.81941 38.596C9.26462 40.0096 10.3443 40.8506 10.4128 40.9037C10.5291 40.9938 10.6685 41.0387 10.8077 41.0387Z" fill="#0f0"/>
        <path d="M7.09688 22.276C6.7545 22.178 6.39709 22.3756 6.29869 22.7181C6.17829 23.1377 6.11719 23.5737 6.11719 24.0142C6.11719 26.6006 8.22137 28.7049 10.8078 28.7049C13.3943 28.7049 15.4985 26.6007 15.4985 24.0142C15.4985 21.4278 13.3943 19.3235 10.8078 19.3235C9.78733 19.3235 8.81692 19.6457 8.00154 20.2552C7.71623 20.4686 7.65779 20.8729 7.87109 21.1583C8.08456 21.4437 8.48881 21.502 8.77421 21.2888C9.36469 20.8473 10.0679 20.6139 10.8078 20.6139C12.6827 20.6139 14.208 22.1392 14.208 24.0142C14.208 25.8891 12.6827 27.4144 10.8078 27.4144C8.93285 27.4144 7.40754 25.8891 7.40754 24.0142C7.40754 23.6943 7.4518 23.3779 7.53903 23.0742C7.63734 22.7316 7.43942 22.3743 7.09688 22.276Z" fill="#0f0"/>
        <path d="M41.5489 21.1189C41.5489 20.0966 40.588 19.2451 38.9254 18.7448C39.2537 18.3926 39.5918 18.0131 39.931 17.6079C42.6172 14.3996 43.9792 11.3154 43.9792 8.44071C43.9792 3.78659 40.1927 0 35.5385 0C32.1385 0 29.0857 2.02349 27.7614 5.15506C27.6225 5.48325 27.776 5.86189 28.1042 6.0006C28.4323 6.1393 28.811 5.9859 28.9497 5.65779C30.0719 3.00472 32.6581 1.29035 35.5385 1.29035C39.4812 1.29035 42.6888 4.49806 42.6888 8.4408C42.6888 13.7727 37.091 18.8808 35.5382 20.1949C35.196 19.9057 34.6573 19.4324 34.0258 18.8133C33.9628 18.6883 33.861 18.5894 33.7388 18.5282C31.5111 16.2851 28.3881 12.4293 28.3881 8.4408C28.3881 8.08441 28.0993 7.79558 27.7429 7.79558C27.3865 7.79558 27.0977 8.08433 27.0977 8.4408C27.0977 11.3154 28.4598 14.3997 31.146 17.608C31.485 18.0129 31.8229 18.3923 32.151 18.7444C30.4878 19.2441 29.5276 20.0947 29.5276 21.119C29.5276 21.9828 30.2284 22.7442 31.5009 23.2626C32.5898 23.7063 34.0236 23.9507 35.5384 23.9507C37.053 23.9507 38.4869 23.7063 39.5758 23.2626C40.8481 22.7441 41.5489 21.9827 41.5489 21.1189ZM35.5383 22.6602C32.4841 22.6602 30.8181 21.642 30.8181 21.1188C30.8181 20.778 31.576 20.1543 33.1943 19.8102C34.2832 20.8697 35.0915 21.4993 35.1437 21.5398C35.2599 21.6297 35.3992 21.6747 35.5385 21.6747C35.6778 21.6747 35.8171 21.6297 35.9334 21.5398C35.9856 21.4995 36.7937 20.8698 37.8826 19.8104C38.6036 19.9641 39.2282 20.1893 39.6653 20.4555C40.0368 20.6818 40.2586 20.9299 40.2586 21.1189C40.2585 21.642 38.5924 22.6602 35.5383 22.6602Z" fill="#0f0"/>
        <path d="M39.2941 8.44085C39.2941 6.37069 37.6099 4.6864 35.5397 4.6864C33.4695 4.6864 31.7852 6.37061 31.7852 8.44085C31.7852 10.511 33.4694 12.1952 35.5397 12.1952C37.61 12.1952 39.2941 10.5111 39.2941 8.44085ZM33.0757 8.44085C33.0757 7.08217 34.181 5.97676 35.5398 5.97676C36.8984 5.97676 38.0039 7.08209 38.0039 8.44085C38.0039 9.79944 36.8985 10.9049 35.5398 10.9049C34.181 10.9049 33.0757 9.79952 33.0757 8.44085Z" fill="#0f0"/>
        <path d="M27.1715 21.7642C27.5278 21.7642 27.8167 21.4754 27.8167 21.119C27.8167 20.7625 27.5278 20.4738 27.1715 20.4738H26.8769C26.6624 20.4738 26.4468 20.4879 26.2359 20.516C25.8828 20.563 25.6346 20.8874 25.6815 21.2407C25.7247 21.5651 26.0018 21.801 26.3203 21.801C26.3486 21.801 26.3773 21.7992 26.4062 21.7953C26.5608 21.7748 26.7192 21.7644 26.877 21.7644H27.1715V21.7642Z" fill="#0f0"/>
        <path d="M25.0365 39.8318C25.0355 39.8318 25.0346 39.8318 25.0335 39.8318L24.1814 39.8357C23.8251 39.8373 23.5375 40.1275 23.5391 40.4838C23.5407 40.8391 23.8293 41.1261 24.1842 41.1261C24.1852 41.1261 24.1863 41.1261 24.1872 41.1261L25.0394 41.1222C25.3957 41.1206 25.6832 40.8304 25.6817 40.4741C25.6801 40.1186 25.3915 39.8318 25.0365 39.8318Z" fill="#0f0"/>
        <path d="M27.9349 30.1216C28.2913 30.1216 28.5801 29.8328 28.5801 29.4764C28.5801 29.12 28.2913 28.8312 27.9349 28.8312H27.0827C26.7263 28.8312 26.4375 29.1199 26.4375 29.4764C26.4375 29.8328 26.7263 30.1216 27.0827 30.1216H27.9349Z" fill="#0f0"/>
        <path d="M23.1009 23.3869C23.2148 23.4687 23.3463 23.5081 23.4768 23.5081C23.6774 23.5081 23.8753 23.4147 24.0013 23.2392C24.1414 23.0442 24.302 22.8627 24.4784 22.6999C24.7403 22.4583 24.7567 22.0501 24.5152 21.7882C24.2736 21.5264 23.8656 21.5099 23.6035 21.7514C23.3629 21.9732 23.1441 22.2205 22.9532 22.4864C22.7454 22.776 22.8115 23.1791 23.1009 23.3869Z" fill="#0f0"/>
        <path d="M28.4466 39.8162C28.4456 39.8162 28.4446 39.8162 28.4436 39.8162L27.5915 39.82C27.2352 39.8217 26.9477 40.1119 26.9492 40.4682C26.9509 40.8235 27.2394 41.1105 27.5944 41.1105C27.5954 41.1105 27.5963 41.1105 27.5974 41.1105L28.4494 41.1066C28.8057 41.1051 29.0933 40.8148 29.0917 40.4585C29.0902 40.1031 28.8015 39.8162 28.4466 39.8162Z" fill="#0f0"/>
        <path d="M21.6264 39.8472C21.6253 39.8472 21.6244 39.8472 21.6234 39.8472L20.7712 39.851C20.4149 39.8526 20.1274 40.1429 20.1289 40.4992C20.1305 40.8545 20.419 41.1415 20.774 41.1415C20.7751 41.1415 20.776 41.1415 20.7771 41.1415L21.6292 41.1376C21.9855 41.136 22.2731 40.8458 22.2715 40.4895C22.27 40.134 21.9815 39.8472 21.6264 39.8472Z" fill="#0f0"/>
        <path d="M24.6501 29.4797C24.8643 29.4797 25.0737 29.3733 25.1965 29.1786C25.3866 28.8772 25.2964 28.4788 24.995 28.2886C24.7923 28.1608 24.6015 28.0114 24.4284 27.8449C24.1715 27.5979 23.763 27.606 23.5162 27.8627C23.2691 28.1194 23.2771 28.5279 23.5339 28.7749C23.77 29.002 24.03 29.2056 24.3066 29.3801C24.4133 29.4476 24.5324 29.4797 24.6501 29.4797Z" fill="#0f0"/>
        <path d="M23.4065 25.9779C23.3632 25.7555 23.3412 25.5267 23.3412 25.2978L23.3414 25.2619C23.3456 24.9057 23.0601 24.6135 22.7037 24.6093C22.7012 24.6093 22.6987 24.6093 22.6961 24.6093C22.3432 24.6093 22.0552 24.8932 22.051 25.247L22.0508 25.2979C22.0508 25.6095 22.0808 25.9214 22.1399 26.2248C22.1999 26.5329 22.4699 26.7466 22.7726 26.7466C22.8134 26.7466 22.855 26.7427 22.8967 26.7346C23.2464 26.6664 23.4747 26.3277 23.4065 25.9779Z" fill="#0f0"/>
        <path d="M31.345 30.1216C31.7014 30.1216 31.9903 29.8328 31.9903 29.4764C31.9903 29.12 31.7014 28.8312 31.345 28.8312H30.4929C30.1365 28.8312 29.8477 29.1199 29.8477 29.4764C29.8477 29.8328 30.1365 30.1216 30.4929 30.1216H31.345Z" fill="#0f0"/>
        <path d="M41.3047 31.2964C41.4954 31.2964 41.6842 31.2122 41.8116 31.051C42.0324 30.7713 41.9847 30.3655 41.705 30.1448C41.4564 29.9486 41.1907 29.7702 40.9151 29.6152C40.605 29.4402 40.2112 29.5501 40.0363 29.8606C39.8614 30.171 39.9713 30.5646 40.2818 30.7394C40.4993 30.862 40.7091 31.0027 40.9054 31.1576C41.0238 31.2512 41.1647 31.2964 41.3047 31.2964Z" fill="#0f0"/>
        <path d="M38.5822 39.7275C38.3708 39.7568 38.1544 39.7721 37.9387 39.773L37.8179 39.7736C37.4615 39.7754 37.1741 40.0657 37.1758 40.4219C37.1776 40.7772 37.4661 41.064 37.8209 41.064C37.822 41.064 37.8231 41.064 37.8241 41.064L37.9446 41.0634C38.2171 41.0622 38.4911 41.0429 38.7588 41.0059C39.1117 40.9571 39.3583 40.6313 39.3096 40.2784C39.2606 39.9255 38.9344 39.6784 38.5822 39.7275Z" fill="#0f0"/>
        <path d="M41.2429 38.4419C41.0619 38.6144 40.8659 38.774 40.6604 38.9165C40.3676 39.1195 40.2949 39.5215 40.4978 39.8145C40.6231 39.9952 40.8241 40.0922 41.0286 40.0922C41.1554 40.0922 41.2835 40.0549 41.3956 39.9772C41.6557 39.7968 41.9038 39.5947 42.133 39.3763C42.391 39.1305 42.4008 38.7221 42.155 38.4642C41.9092 38.2059 41.5007 38.196 41.2429 38.4419Z" fill="#0f0"/>
        <path d="M43.4128 35.3305C43.0632 35.2646 42.7254 35.4949 42.6594 35.8451C42.613 36.0906 42.5472 36.3343 42.4634 36.5693C42.3438 36.9049 42.5188 37.274 42.8545 37.3937C42.9261 37.4193 42.9993 37.4314 43.0712 37.4314C43.3362 37.4314 43.5847 37.2667 43.6789 37.0027C43.7852 36.7045 43.8688 36.3954 43.9275 36.0839C43.9934 35.7338 43.763 35.3964 43.4128 35.3305Z" fill="#0f0"/>
        <path d="M42.603 32.0522C42.2801 32.2029 42.1405 32.5868 42.2911 32.9098C42.3968 33.1362 42.4853 33.3727 42.5542 33.6124C42.6354 33.8954 42.8935 34.0798 43.174 34.0798C43.233 34.0798 43.2928 34.0716 43.3523 34.0546C43.6948 33.9563 43.8927 33.5989 43.7944 33.2564C43.7069 32.9518 43.5947 32.6517 43.4605 32.3641C43.3098 32.0412 42.9263 31.9016 42.603 32.0522Z" fill="#0f0"/>
        <path d="M34.7513 30.1216C35.1077 30.1216 35.3965 29.8328 35.3965 29.4764C35.3965 29.12 35.1077 28.8312 34.7513 28.8312H33.8991C33.5427 28.8312 33.2539 29.1199 33.2539 29.4764C33.2539 29.8328 33.5427 30.1216 33.8991 30.1216H34.7513Z" fill="#0f0"/>
        <path d="M31.8529 39.8007C31.8519 39.8007 31.851 39.8007 31.8499 39.8007L30.9978 39.8045C30.6415 39.8062 30.3539 40.0964 30.3555 40.4527C30.3571 40.808 30.6456 41.095 31.0006 41.095C31.0016 41.095 31.0026 41.095 31.0036 41.095L31.8558 41.0911C32.2121 41.0895 32.4996 40.7993 32.4981 40.443C32.4965 40.0876 32.2079 39.8007 31.8529 39.8007Z" fill="#0f0"/>
        <path d="M37.9151 30.1216C37.9881 30.1216 38.0606 30.1232 38.1327 30.1264C38.1424 30.1269 38.1522 30.1271 38.1618 30.1271C38.5049 30.1271 38.7906 29.8566 38.8058 29.5105C38.8216 29.1544 38.5458 28.853 38.1899 28.8374C38.0985 28.8333 38.0062 28.8313 37.9152 28.8313H37.3093C36.9529 28.8313 36.6641 29.12 36.6641 29.4765C36.6641 29.8329 36.9529 30.1217 37.3093 30.1217L37.9151 30.1216Z" fill="#0f0"/>
        <path d="M35.2632 39.7853C35.2621 39.7853 35.2612 39.7853 35.2602 39.7853L34.4079 39.7891C34.0516 39.7907 33.7641 40.081 33.7656 40.4373C33.7672 40.7926 34.0558 41.0796 34.4108 41.0796C34.4118 41.0796 34.4127 41.0796 34.4138 41.0796L35.2659 41.0757C35.6222 41.0742 35.9098 40.7839 35.9082 40.4276C35.9067 40.0721 35.6181 39.7853 35.2632 39.7853Z" fill="#0f0"/>
    </g>
    <defs>
        <clipPath id="clip0_1019_8503">
            <rect width="44" height="44" fill="white"/>
        </clipPath>
    </defs>
</svg>