<svg width="44" height="44" viewBox="0 0 44 44" fill="none" xmlns="http://www.w3.org/2000/svg">
    <path d="M42.3571 24.0341L36.3946 27.1839L14.431 38.7889C13.7951 39.1257 13.0077 38.8815 12.675 38.2499L2.95223 19.8485C2.61535 19.2126 2.85958 18.4252 3.49544 18.0925L7.18413 16.143L31.4216 3.33363C32.0575 3.00105 32.8449 3.24099 33.1775 3.87684L42.9003 22.2781C43.2372 22.914 42.993 23.6972 42.3571 24.0341Z" fill="#9FCEF1"/>
    <path opacity="0.1" d="M36.3946 18.7073V27.1838L14.431 38.7888C13.7951 39.1256 13.0077 38.8814 12.675 38.2498L2.95223 19.8485C2.61535 19.2126 2.85958 18.4252 3.49544 18.0925L7.18413 16.1429H33.8303C35.245 16.1429 36.3946 17.2925 36.3946 18.7073Z" fill="#2E549F"/>
    <path d="M35.1322 18.7058V39.5152C35.1322 40.2335 34.5499 40.8158 33.8316 40.8158H2.24589C1.52763 40.8158 0.945312 40.2335 0.945312 39.5152V18.7058C0.945312 17.9875 1.52763 17.4052 2.24589 17.4052H33.8316C34.55 17.4052 35.1322 17.9874 35.1322 18.7058Z" fill="#4F96E2"/>
    <path opacity="0.2" d="M35.1331 18.7073V19.6421H5.27828C4.55821 19.6421 3.97719 20.2274 3.97719 20.9433V40.8142H2.24649C1.52642 40.8142 0.945312 40.2332 0.945312 39.5131V18.7073C0.945312 17.9872 1.52642 17.4062 2.24649 17.4062H33.8319C34.5519 17.4062 35.1331 17.9873 35.1331 18.7073Z" fill="white"/>
    <path d="M0.945312 22.9304H35.1322V27.4648H0.945312V22.9304Z" fill="#f00"/>
    <path d="M24.0352 32.7468H31.3079V36.6751H24.0352V32.7468Z" fill="#000"/>
    <path d="M2.2452 41.2368H33.8309C34.7804 41.2368 35.5527 40.4645 35.5527 39.515V28.1071L42.5561 24.4067C43.3968 23.9629 43.7192 22.9215 43.2741 22.0804L33.5526 3.68148C33.1073 2.83783 32.0637 2.51935 31.2263 2.96347L4.69055 16.9843H2.2452C1.29593 16.9843 0.523438 17.7565 0.523438 18.7056V39.5151C0.523438 40.4645 1.29593 41.2368 2.2452 41.2368ZM31.6195 3.70778C32.0495 3.48107 32.5811 3.64487 32.8083 4.07456L42.5298 22.4735C42.7567 22.9028 42.5927 23.4352 42.163 23.6624L35.5528 27.1551V22.9304V18.7057C35.5528 17.7566 34.7805 16.9843 33.831 16.9843H6.49274L31.6195 3.70778ZM1.36563 18.7056C1.36563 18.2207 1.76016 17.8264 2.2452 17.8264H33.8309C34.3158 17.8264 34.7105 18.2208 34.7105 18.7056V22.5094H1.36563V18.7056ZM1.36563 23.3515H34.7106V27.0438H1.36563V23.3515ZM1.36563 27.886H34.7106V39.5151C34.7106 40 34.3158 40.3947 33.831 40.3947H2.2452C1.76016 40.3947 1.36563 39.9999 1.36563 39.5151V27.886Z" fill="#2E549F"/>
    <path d="M24.0383 37.0963H31.311C31.5437 37.0963 31.7321 36.9079 31.7321 36.6752V32.7469C31.7321 32.5142 31.5437 32.3258 31.311 32.3258H24.0383C23.8056 32.3258 23.6172 32.5142 23.6172 32.7469V36.6752C23.6172 36.9079 23.8055 37.0963 24.0383 37.0963ZM24.4593 33.168H30.8898V36.2542H24.4593V33.168Z" fill="#2E549F"/>
    <path d="M15.9328 33.805H18.4809C18.7134 33.805 18.902 33.6166 18.902 33.3839C18.902 33.1511 18.7134 32.9628 18.4809 32.9628H15.9328C15.7003 32.9628 15.5117 33.1511 15.5117 33.3839C15.5117 33.6166 15.7003 33.805 15.9328 33.805Z" fill="#2E549F"/>
    <path d="M3.28047 33.805H14.1962C14.4287 33.805 14.6173 33.6166 14.6173 33.3839C14.6173 33.1511 14.4287 32.9628 14.1962 32.9628H3.28047C3.04792 32.9628 2.85938 33.1511 2.85938 33.3839C2.85938 33.6166 3.04792 33.805 3.28047 33.805Z" fill="#2E549F"/>
    <path d="M3.28047 36.6185H12.4644C12.6969 36.6185 12.8854 36.4301 12.8854 36.1974C12.8854 35.9647 12.6969 35.7763 12.4644 35.7763H3.28047C3.04792 35.7763 2.85938 35.9647 2.85938 36.1974C2.85938 36.4301 3.04792 36.6185 3.28047 36.6185Z" fill="#2E549F"/>
</svg>