<svg width="48" height="48" viewBox="0 0 48 48" fill="none" xmlns="http://www.w3.org/2000/svg">
<path d="M24 48C37.2548 48 48 37.2548 48 24C48 10.7452 37.2548 0 24 0C10.7452 0 0 10.7452 0 24C0 37.2548 10.7452 48 24 48Z" fill="#088391"/>
<path d="M23.9992 47.9992C30.8242 47.9992 36.9742 45.1492 41.3617 40.5742C38.8492 35.5492 33.2992 32.1367 23.9992 32.1367C14.6992 32.1367 9.14922 35.5492 6.63672 40.5742C11.0242 45.1492 17.1742 47.9992 23.9992 47.9992Z" fill="#088391"/>
<path d="M19.7266 26.8516V33.2641C19.7266 35.5516 21.6016 37.4266 23.8891 37.4266C26.1766 37.4266 28.0516 35.5516 28.0516 33.2641V26.8516H19.7266Z" fill="white"/>
<path d="M19.7266 27.6016V30.0766C20.8891 31.1641 22.2766 31.9516 23.8891 32.4016C25.5016 32.8516 26.8891 32.7766 28.0516 32.3266V27.6016H19.7266Z" fill="#01277B"/>
<path d="M15.8625 25.35C17.1673 25.35 18.225 24.2923 18.225 22.9875C18.225 21.6827 17.1673 20.625 15.8625 20.625C14.5577 20.625 13.5 21.6827 13.5 22.9875C13.5 24.2923 14.5577 25.35 15.8625 25.35Z" fill="white"/>
<path d="M31.9133 25.35C33.2181 25.35 34.2758 24.2923 34.2758 22.9875C34.2758 21.6827 33.2181 20.625 31.9133 20.625C30.6085 20.625 29.5508 21.6827 29.5508 22.9875C29.5508 24.2923 30.6085 25.35 31.9133 25.35Z" fill="white"/>
<path d="M23.8516 27.2242C29.8577 27.2242 34.7266 22.2378 34.7266 16.0867C34.7266 9.93565 29.8577 4.94922 23.8516 4.94922C17.8455 4.94922 12.9766 9.93565 12.9766 16.0867C12.9766 22.2378 17.8455 27.2242 23.8516 27.2242Z" fill="black"/>
<path d="M23.8906 31.3125C28.447 31.3125 32.1406 26.6954 32.1406 21C32.1406 15.3046 28.447 10.6875 23.8906 10.6875C19.3343 10.6875 15.6406 15.3046 15.6406 21C15.6406 26.6954 19.3343 31.3125 23.8906 31.3125Z" fill="white"/>
<path d="M22.9675 15.4731C26.4708 15.1175 29.0834 12.5907 28.8031 9.82931C28.5229 7.06796 25.4557 5.11771 21.9525 5.47331C18.4493 5.82891 15.8366 8.35571 16.1169 11.1171C16.3972 13.8784 19.4643 15.8287 22.9675 15.4731Z" fill="black"/>
<path d="M31.1263 14.6486C33.9027 14.3131 35.9519 12.3739 35.7033 10.3173C35.4548 8.26077 33.0027 6.86558 30.2263 7.20109C27.4499 7.53661 25.4007 9.47577 25.6492 11.5323C25.8977 13.5889 28.3499 14.9841 31.1263 14.6486Z" fill="black"/>
<path d="M20.3266 20.3641C20.7615 20.3641 21.1141 20.0115 21.1141 19.5766C21.1141 19.1416 20.7615 18.7891 20.3266 18.7891C19.8916 18.7891 19.5391 19.1416 19.5391 19.5766C19.5391 20.0115 19.8916 20.3641 20.3266 20.3641Z" fill="black"/>
<path d="M27.4516 20.3641C27.8865 20.3641 28.2391 20.0115 28.2391 19.5766C28.2391 19.1416 27.8865 18.7891 27.4516 18.7891C27.0166 18.7891 26.6641 19.1416 26.6641 19.5766C26.6641 20.0115 27.0166 20.3641 27.4516 20.3641Z" fill="black"/>
<path d="M27.4531 23.25C27.4531 25.2375 25.8406 26.8125 23.8906 26.8125C21.9031 26.8125 20.3281 25.2 20.3281 23.25H27.4531Z" fill="black"/>
</svg>
