<svg width="34" height="34" viewBox="0 0 34 34" fill="#000" xmlns="http://www.w3.org/2000/svg">
<path d="M31.0855 17.0681C31.0421 17.0249 30.9938 16.9914 30.9465 16.9554C29.8659 15.9171 28.5529 15.1178 27.0904 14.6478L27.4351 14.3047C28.9167 12.8292 29.7322 10.8695 29.7304 8.78534C29.729 6.70496 28.9135 4.75151 27.4351 3.284L26.433 2.28652C24.9581 0.813131 22.9946 0.00138346 20.9046 0C20.9025 0 20.9011 0 20.899 0C18.8084 0 16.8407 0.811747 15.3605 2.28514L2.29706 15.2887C0.817575 16.7572 0.00139161 18.7113 1.7736e-06 20.7917C-0.00138807 22.8756 0.8141 24.8356 2.29636 26.3117L3.29913 27.3092C4.77966 28.783 6.74594 29.5947 8.8373 29.5947H8.84321C10.9328 29.5933 12.8963 28.7816 14.3699 27.3092L14.5579 27.1221C15.0297 28.5786 15.8331 29.8852 16.8761 30.9612C16.9126 31.0079 16.9467 31.0563 16.9894 31.0992C17.0328 31.1425 17.0811 31.1767 17.1287 31.2127C18.922 32.9347 21.3559 34 24.0376 34C29.5313 34 34 29.5518 34 24.0833C34 21.4129 32.9291 18.9905 31.1984 17.2061C31.1623 17.1588 31.1289 17.1103 31.0855 17.0681ZM18.1051 27.9854C17.3588 26.8658 16.9216 25.5249 16.9216 24.0833C16.9216 20.1775 20.1141 17 24.0376 17C25.4858 17 26.8329 17.4348 27.958 18.178L18.1051 27.9854ZM17.373 4.28839C18.3157 3.34971 19.5683 2.83333 20.899 2.83333H20.9025C22.2319 2.83402 23.48 3.3504 24.4191 4.28839L25.424 5.28829C26.3639 6.22213 26.8833 7.46448 26.884 8.78672C26.8847 10.1135 26.3653 11.3617 25.4226 12.3011L23.522 14.193C21.4873 14.2977 19.6165 15.0082 18.0825 16.1523L11.7685 9.86721L17.373 4.28839ZM8.84077 26.7607C8.83938 26.7607 8.83869 26.7607 8.8373 26.7607C7.50653 26.7607 6.25498 26.2443 5.31127 25.3046L4.30885 24.3071C3.36446 23.3681 2.8457 22.1199 2.84639 20.7931C2.84709 19.4705 3.36585 18.2282 4.30816 17.2933L9.75598 11.8701L16.07 18.1552C14.9206 19.6818 14.2062 21.5447 14.1017 23.569L12.356 25.3067C11.4182 26.2436 10.1695 26.7593 8.84077 26.7607ZM24.0376 31.1667C22.5898 31.1667 21.2427 30.7319 20.1176 29.9886L29.9705 20.1813C30.7169 21.3008 31.1536 22.6418 31.1536 24.0833C31.1536 27.9892 27.9615 31.1667 24.0376 31.1667Z" fill="#F6D575"/>
</svg>
