<svg width="34" height="31" viewBox="0 0 34 31" fill="none" xmlns="http://www.w3.org/2000/svg">
<path d="M32.0787 1.90552C30.919 0.751095 29.3657 0.0729096 27.7272 0.00554533C26.0886 -0.061819 24.4845 0.486562 23.2331 1.54186C21.9818 2.59716 21.1747 4.08224 20.972 5.70239C20.7693 7.32254 21.1859 8.95934 22.139 10.288L26.4114 16.2424C26.5303 16.4082 26.6873 16.5433 26.8693 16.6366C27.0512 16.7298 27.2529 16.7784 27.4575 16.7784C27.6622 16.7784 27.8639 16.7298 28.0458 16.6366C28.2278 16.5433 28.3847 16.4082 28.5037 16.2424L32.7761 10.288C33.6792 9.03609 34.105 7.50496 33.9772 5.96894C33.8494 4.43292 33.1764 2.9924 32.0787 1.90552ZM27.4575 8.63931C27.0338 8.63931 26.6196 8.51422 26.2672 8.27985C25.9149 8.04548 25.6403 7.71236 25.4781 7.32262C25.316 6.93288 25.2736 6.50402 25.3562 6.09027C25.4389 5.67652 25.6429 5.29647 25.9426 4.99817C26.2422 4.69988 26.624 4.49674 27.0396 4.41444C27.4552 4.33214 27.8859 4.37437 28.2774 4.53581C28.6689 4.69725 29.0035 4.97063 29.2389 5.32139C29.4744 5.67215 29.6 6.08453 29.6 6.50638C29.6 7.07206 29.3743 7.61457 28.9725 8.01456C28.5707 8.41456 28.0257 8.63929 27.4575 8.63931Z" fill="#913393"/>
<path d="M27.457 19.9066C27.2882 19.9066 27.121 19.9397 26.9651 20.004C26.8091 20.0683 26.6674 20.1625 26.548 20.2814C26.4287 20.4002 26.334 20.5413 26.2694 20.6965C26.2048 20.8518 26.1716 21.0182 26.1716 21.1862V23.9149C26.1716 25.1146 25.6929 26.2651 24.8408 27.1134C23.9887 27.9617 22.833 28.4383 21.6279 28.4383C20.4229 28.4383 19.2672 27.9617 18.4151 27.1134C17.5629 26.2651 17.0842 25.1146 17.0842 23.9149V12.3087C17.0852 11.378 16.9019 10.4562 16.5448 9.59606C16.1877 8.73591 15.6638 7.95426 15.0031 7.2958C14.3423 6.63734 13.5577 6.11498 12.6941 5.75859C11.8305 5.40219 10.9047 5.21875 9.96985 5.21875C9.03496 5.21875 8.10924 5.40219 7.24561 5.75859C6.38197 6.11498 5.59737 6.63734 4.93664 7.2958C4.27591 7.95426 3.75202 8.73591 3.39492 9.59606C3.03782 10.4562 2.85451 11.378 2.85547 12.3087V18.3423C2.8563 18.6811 2.99208 19.0058 3.23304 19.2451C3.474 19.4844 3.80046 19.6188 4.14082 19.6188C4.48118 19.6188 4.80764 19.4844 5.0486 19.2451C5.28956 19.0058 5.42534 18.6811 5.42616 18.3423V12.3087C5.4254 11.7142 5.54236 11.1254 5.77035 10.5759C5.99835 10.0264 6.33291 9.52706 6.75491 9.1064C7.17691 8.68574 7.67806 8.35203 8.22971 8.12434C8.78135 7.89665 9.37268 7.77945 9.96985 7.77945C10.567 7.77945 11.1584 7.89665 11.71 8.12434C12.2616 8.35203 12.7628 8.68574 13.1848 9.1064C13.6068 9.52706 13.9414 10.0264 14.1694 10.5759C14.3974 11.1254 14.5143 11.7142 14.5135 12.3087V23.9149C14.5135 25.7933 15.2631 27.5948 16.5973 28.9231C17.9315 30.2514 19.7411 30.9976 21.6279 30.9976C23.5148 30.9976 25.3243 30.2514 26.6586 28.9231C27.9928 27.5948 28.7423 25.7933 28.7423 23.9149V21.1862C28.7423 21.0182 28.7091 20.8518 28.6445 20.6965C28.5799 20.5412 28.4852 20.4002 28.3659 20.2813C28.2465 20.1625 28.1048 20.0683 27.9489 20.004C27.7929 19.9397 27.6258 19.9066 27.457 19.9066Z" fill="#913393"/>
<path d="M4.14197 22.7539C3.32276 22.7539 2.52196 22.9958 1.84081 23.4489C1.15967 23.902 0.628784 24.546 0.315289 25.2994C0.00179359 26.0529 -0.0802302 26.882 0.0795897 27.6819C0.23941 28.4818 0.633895 29.2165 1.21316 29.7932C1.79243 30.3699 2.53046 30.7626 3.33392 30.9217C4.13738 31.0808 4.9702 30.9992 5.72704 30.6871C6.48389 30.375 7.13078 29.8464 7.5859 29.1683C8.04103 28.4902 8.28395 27.693 8.28395 26.8774C8.28276 25.7842 7.846 24.736 7.06948 23.963C6.29297 23.1899 5.24013 22.7551 4.14197 22.7539Z" fill="#913393"/>
</svg>
