<svg width="34" height="34" viewBox="0 0 34 34" fill="none" xmlns="http://www.w3.org/2000/svg">
<rect width="34" height="34" rx="4" fill="#DFEEFA"/>
<g clip-path="url(#clip0_1568_1567)">
<path d="M17 8C15.22 8 13.4799 8.52784 11.9999 9.51677C10.5198 10.5057 9.36628 11.9113 8.68509 13.5558C8.0039 15.2004 7.82567 17.01 8.17294 18.7558C8.5202 20.5016 9.37737 22.1053 10.636 23.364C11.8947 24.6226 13.4984 25.4798 15.2442 25.8271C16.99 26.1743 18.7996 25.9961 20.4442 25.3149C22.0887 24.6337 23.4943 23.4802 24.4832 22.0001C25.4722 20.5201 26 18.78 26 17C25.9974 14.6138 25.0484 12.3262 23.3611 10.6389C21.6738 8.95162 19.3862 8.00258 17 8ZM17 23.75C15.665 23.75 14.3599 23.3541 13.2499 22.6124C12.1399 21.8707 11.2747 20.8165 10.7638 19.5831C10.2529 18.3497 10.1193 16.9925 10.3797 15.6831C10.6402 14.3738 11.283 13.171 12.227 12.227C13.171 11.283 14.3738 10.6401 15.6831 10.3797C16.9925 10.1192 18.3497 10.2529 19.5831 10.7638C20.8165 11.2747 21.8707 12.1399 22.6124 13.2499C23.3541 14.3599 23.75 15.665 23.75 17C23.748 18.7896 23.0362 20.5053 21.7708 21.7708C20.5053 23.0362 18.7896 23.748 17 23.75ZM13.0475 15.557L20.375 13.625L18.4625 20.9525C18.4185 21.1097 18.3245 21.2482 18.1946 21.3471C18.0648 21.4459 17.9062 21.4998 17.743 21.5004C17.5798 21.5009 17.4208 21.4483 17.2903 21.3504C17.1597 21.2524 17.0646 21.1146 17.0195 20.9578L15.875 18.125L13.0423 17C12.8854 16.9549 12.7476 16.8598 12.6496 16.7292C12.5517 16.5987 12.4991 16.4397 12.4997 16.2765C12.5002 16.1133 12.5541 15.9547 12.6529 15.8249C12.7518 15.695 12.8903 15.601 13.0475 15.557Z" fill="#3167C4"/>
</g>
<defs>
<clipPath id="clip0_1568_1567">
<rect width="18" height="18" fill="white" transform="translate(8 8)"/>
</clipPath>
</defs>
</svg>
