<svg width="152" height="152" viewBox="0 0 152 152" fill="none" xmlns="http://www.w3.org/2000/svg">
    <path d="M147.084 113.554C143.507 104.166 129.201 102.825 118.025 105.507C122.719 103.048 127.413 100.142 131.213 96.1188C136.578 90.307 140.378 80.9188 137.025 72.6482C133.448 63.9306 123.389 60.1306 115.119 60.3541C104.166 60.5776 95.4483 65.7188 81.5895 71.5306C85.1659 64.3776 86.2836 57.0011 85.8365 50.0717C84.0483 29.9541 67.2836 13.4129 44.0365 14.9776C19.8953 16.5423 0.00121832 39.3423 5.36593 62.8129C9.83651 80.6953 26.8247 92.9894 36.66 93.4364C35.5424 94.107 34.6483 94.7776 33.9777 95.4482C28.613 100.142 26.1542 107.519 27.7189 114.895C28.8365 120.036 31.5189 124.284 35.3189 127.636C37.5542 133.672 45.3777 137.248 51.413 138.813C59.6836 141.048 68.4012 139.931 76.6718 138.589C96.7895 135.46 116.907 130.989 136.578 125.401C142.837 123.389 149.542 119.589 147.084 113.554ZM44.26 18.3306C62.5895 17.2129 77.5659 28.3894 81.5895 44.4835C60.8012 48.7306 35.7659 51.86 10.5071 52.9776C10.5071 34.8717 24.3659 19.6717 44.26 18.3306ZM10.7306 56.3306C35.9895 55.2129 61.2483 52.0835 82.26 47.6129C82.4836 48.9541 82.7071 50.5188 82.7071 51.86C82.4836 51.86 82.26 51.6364 81.813 51.86C31.2953 64.3776 16.3189 59.907 11.4012 60.8012C10.9542 59.2364 10.7306 57.8953 10.7306 56.3306ZM12.0718 63.9306C36.66 65.0482 58.5659 61.0247 82.4836 55.2129C82.0365 61.4717 80.0247 67.9541 76.6718 73.3188C69.0718 76.6717 53.8718 83.6012 43.5895 89.1894C27.9424 88.2953 16.5424 78.0129 12.0718 63.9306ZM90.7542 114.225C84.2718 117.131 77.7895 120.26 71.3071 123.166C61.4718 127.636 52.0836 131.213 43.3659 128.307C37.1071 126.295 32.413 120.707 31.0718 114.001C29.7306 107.742 31.7424 101.707 36.4365 97.907C40.9071 93.8835 57.4483 85.8364 69.9659 80.2482C70.1895 80.4717 70.1895 80.4717 70.413 80.4717C82.7071 84.7188 92.0953 100.142 90.7542 114.225ZM94.1071 112.66C94.5542 98.5776 85.8365 83.8247 73.7659 78.2364C103.719 64.8247 108.189 63.4835 115.342 63.26C122.495 63.0364 130.989 66.1659 133.895 73.5423C136.801 80.4717 133.448 88.5188 128.754 93.4364C122.272 100.589 113.778 103.719 94.1071 112.66Z" fill="#000"/>
    <path d="M94.1089 13.4115L90.3089 31.7409C90.0854 32.635 90.756 33.5291 91.6501 33.7527C92.5442 33.9762 93.4384 33.3056 93.6619 32.4115L97.4619 14.0821C97.6854 13.188 97.0148 12.2938 96.1207 12.0703C95.0031 12.0703 94.1089 12.5174 94.1089 13.4115Z" fill="#000"/>
    <path d="M112.213 23.2486C111.542 22.5781 110.425 22.8016 109.754 23.4722L100.366 34.6486C99.6952 35.3192 99.9188 36.4369 100.589 37.1075C101.26 37.7781 102.378 37.5545 103.048 36.8839L112.436 25.7075C112.883 24.8134 112.883 23.6957 112.213 23.2486Z" fill="#000"/>
    <path d="M107.965 44.9282L122.495 39.34C123.389 39.1164 123.836 37.9988 123.389 37.1047C123.165 36.2105 122.048 35.7635 121.154 36.2105L106.624 41.7988C105.73 42.0223 105.283 43.14 105.73 44.0341C105.954 44.7047 107.071 45.1517 107.965 44.9282Z" fill="#000"/>
</svg>