<svg width="40" height="40" viewBox="0 0 40 40" fill="none" xmlns="http://www.w3.org/2000/svg">
    <g clip-path="url(#clip0_837_26301)">
        <circle cx="20" cy="20" r="19" fill="#F9F9FF" stroke="black" stroke-width="2"/>
        <g clip-path="url(#clip1_837_26301)">
            <path d="M31.2575 24.1999L28.6575 14.8289C28.1023 12.8243 26.8925 11.0631 25.2207 9.82542C23.549 8.58776 21.5113 7.94485 19.4319 7.99901C17.3526 8.05317 15.3511 8.80129 13.746 10.1243C12.141 11.4473 11.0245 13.2692 10.5745 15.2999L8.56345 24.3499C8.46614 24.7884 8.46852 25.2431 8.5704 25.6805C8.67228 26.1179 8.87106 26.5268 9.15209 26.8771C9.43311 27.2275 9.7892 27.5102 10.1941 27.7045C10.599 27.8989 11.0423 27.9998 11.4915 27.9999H15.0985C15.328 29.1302 15.9412 30.1464 16.8342 30.8763C17.7272 31.6062 18.8451 32.0049 19.9985 32.0049C21.1518 32.0049 22.2697 31.6062 23.1627 30.8763C24.0557 30.1464 24.6689 29.1302 24.8985 27.9999H28.3685C28.8306 27.9997 29.2864 27.8928 29.7003 27.6874C30.1143 27.482 30.4752 27.1838 30.755 26.816C31.0347 26.4482 31.2257 26.0207 31.313 25.5669C31.4004 25.1131 31.3807 24.6453 31.2575 24.1999ZM19.9985 29.9999C19.3802 29.9974 18.7778 29.8038 18.2738 29.4458C17.7697 29.0878 17.3885 28.5828 17.1825 27.9999H22.8145C22.6084 28.5828 22.2272 29.0878 21.7231 29.4458C21.2191 29.8038 20.6167 29.9974 19.9985 29.9999ZM29.1635 25.6049C29.0702 25.7286 28.9492 25.8288 28.8103 25.8973C28.6714 25.9659 28.5184 26.0011 28.3635 25.9999H11.4915C11.3417 25.9999 11.1939 25.9663 11.0589 25.9015C10.9239 25.8367 10.8052 25.7424 10.7115 25.6256C10.6178 25.5087 10.5516 25.3724 10.5176 25.2265C10.4837 25.0807 10.483 24.9291 10.5155 24.7829L12.5265 15.7329C12.8808 14.1391 13.7578 12.7095 15.0179 11.6714C16.2781 10.6332 17.8491 10.0461 19.4812 10.0033C21.1134 9.96058 22.713 10.4646 24.0258 11.4354C25.3385 12.4061 26.2891 13.7879 26.7265 15.3609L29.3265 24.7319C29.3689 24.8801 29.3763 25.0361 29.348 25.1877C29.3197 25.3392 29.2565 25.482 29.1635 25.6049Z" fill="black"/>
        </g>
    </g>
    <defs>
        <clipPath id="clip0_837_26301">
            <rect width="40" height="40" fill="white"/>
        </clipPath>
        <clipPath id="clip1_837_26301">
            <rect width="24" height="24" fill="white" transform="translate(8 8)"/>
        </clipPath>
    </defs>
</svg>