<svg width="46" height="48" viewBox="0 0 46 48" fill="none" xmlns="http://www.w3.org/2000/svg">
<path d="M39.7235 6.58299C33.267 -0.19433 22.7953 -0.19433 16.3387 6.58299C12.2355 10.8901 10.7446 16.8961 11.8558 22.4325C12.0186 23.2433 12.7804 23.763 13.5575 23.5931C14.3346 23.4233 14.8325 22.6283 14.6698 21.8175C13.7478 17.224 14.9871 12.257 18.3777 8.69805C23.7101 3.10067 32.3521 3.10067 37.6845 8.69805C43.0216 14.3003 43.0216 23.387 37.6845 28.9893L27.0116 40.1925C26.4519 40.78 26.4546 41.7298 27.0176 42.3138C27.5807 42.8978 28.4909 42.8951 29.0506 42.3075L39.7235 31.1044C46.1753 24.332 46.1753 13.3554 39.7235 6.58299Z" fill="#913393"/>
<path fill-rule="evenodd" clip-rule="evenodd" d="M5.22361 28.8735C5.74279 27.2876 7.18508 26.25 8.77565 26.25H18.5368C20.1274 26.25 21.5697 27.2876 22.0889 28.8735L22.9673 31.5566C23.6289 31.2725 24.4049 31.5413 24.7651 32.2084C25.1547 32.9301 24.9099 33.8449 24.2182 34.2515L24.1445 34.2948C25.1931 35.1379 25.875 36.4487 25.875 37.9432V42.6477C25.875 44.8098 24.1636 46.5 22.1272 46.5C20.4551 46.5 19.0021 45.3604 18.5358 43.7557H8.77673C8.3104 45.3604 6.85739 46.5 5.18527 46.5C3.14889 46.5 1.4375 44.8098 1.4375 42.6477V37.9432C1.4375 36.4642 2.10536 35.1651 3.13553 34.3212L3.01692 34.2515C2.32522 33.8449 2.08038 32.9301 2.47005 32.2084C2.84246 31.5186 3.65963 31.2547 4.33508 31.5875L5.22361 28.8735ZM6.81036 33.3068L7.94427 29.8433C8.05395 29.5081 8.37739 29.25 8.77565 29.25H18.5368C18.9351 29.25 19.2585 29.5081 19.3682 29.8433L20.5021 33.3068H6.81036ZM7.11046 37.2273C6.31656 37.2273 5.67296 37.8988 5.67296 38.7273C5.67296 39.5557 6.31656 40.2273 7.11046 40.2273H8.65066C9.44452 40.2273 10.0882 39.5557 10.0882 38.7273C10.0882 37.8988 9.44452 37.2273 8.65066 37.2273H7.11046ZM18.2767 37.2273C17.4829 37.2273 16.8392 37.8988 16.8392 38.7273C16.8392 39.5557 17.4829 40.2273 18.2767 40.2273H19.8169C20.6109 40.2273 21.2544 39.5557 21.2544 38.7273C21.2544 37.8988 20.6109 37.2273 19.8169 37.2273H18.2767Z" fill="#913393"/>
<path fill-rule="evenodd" clip-rule="evenodd" d="M26.5938 21.75H28.75C31.5287 21.75 33.7812 19.3995 33.7812 16.5C33.7812 13.6005 31.5287 11.25 28.75 11.25H25.1562C24.3623 11.25 23.7188 11.9216 23.7188 12.75V24.75C23.7188 25.5785 24.3623 26.25 25.1562 26.25C25.9502 26.25 26.5938 25.5785 26.5938 24.75V21.75ZM26.5938 14.25V18.75H28.75C29.9409 18.75 30.9062 17.7427 30.9062 16.5C30.9062 15.2573 29.9409 14.25 28.75 14.25H26.5938Z" fill="#913393"/>
</svg>
