<svg width="44" height="44" viewBox="0 0 44 44" fill="none" xmlns="http://www.w3.org/2000/svg">
    <path d="M10.7997 20.8106L7.68533 11.8388C7.55359 11.3133 7.22823 10.857 6.77438 10.5613C6.32054 10.2655 5.77172 10.1521 5.23782 10.2438C4.96404 10.3021 4.70496 10.4155 4.4763 10.577C4.24763 10.7385 4.05415 10.9447 3.90758 11.1832C3.76101 11.4217 3.6644 11.6875 3.62362 11.9645C3.58284 12.2414 3.59873 12.5238 3.67032 12.7944L6.87407 22.6875L10.7997 20.8106Z" fill="#000"/>
    <path d="M33.1992 20.8106L36.3136 11.8388C36.4453 11.3133 36.7707 10.857 37.2245 10.5613C37.6784 10.2655 38.2272 10.1521 38.7611 10.2438C39.0349 10.3021 39.294 10.4155 39.5226 10.577C39.7513 10.7385 39.9448 10.9447 40.0913 11.1832C40.2379 11.4217 40.3345 11.6875 40.3753 11.9645C40.4161 12.2414 40.4002 12.5238 40.3286 12.7944L37.1248 22.6875L33.1992 20.8106Z" fill="#000"/>
    <path d="M17.2182 24.5314L11.1407 20.9688C10.7201 20.7259 10.2273 20.6395 9.74917 20.7249C9.27109 20.8104 8.83861 21.0621 8.5282 21.4356L6.31032 14.5888C6.17859 14.0633 5.85323 13.607 5.39938 13.3113C4.94554 13.0155 4.39672 12.9021 3.86282 12.9938C3.58904 13.0521 3.32996 13.1655 3.1013 13.327C2.87263 13.4885 2.67915 13.6947 2.53258 13.9332C2.38601 14.1717 2.2894 14.4375 2.24862 14.7145C2.20784 14.9914 2.22373 15.2738 2.29532 15.5444L5.28595 26.7025C5.42313 27.2244 5.71275 27.6935 6.11782 28.05L10.7653 32.1819C11.0553 32.4401 11.2873 32.7567 11.4461 33.111C11.6049 33.4653 11.6868 33.8493 11.6866 34.2375V36.4375H19.9366V29.2765C19.9366 28.3172 19.6858 27.3745 19.2089 26.5421C18.7321 25.7098 18.0458 25.0166 17.2182 24.5314Z" fill="#000"/>
    <path d="M40.1363 12.9938C39.6024 12.9021 39.0535 13.0155 38.5997 13.3113C38.1458 13.607 37.8205 14.0633 37.6887 14.5888L35.4681 21.4356C35.1577 21.0621 34.7252 20.8104 34.2472 20.7249C33.7691 20.6395 33.2762 20.7259 32.8556 20.9688L26.7781 24.5314C25.9511 25.0169 25.2653 25.7102 24.789 26.5426C24.3126 27.375 24.0622 28.3175 24.0625 29.2765V36.4375H32.3125V34.2375C32.3122 33.8493 32.3942 33.4653 32.553 33.111C32.7118 32.7567 32.9438 32.4401 33.2338 32.1819L37.8812 28.05C38.2863 27.6935 38.5759 27.2244 38.7131 26.7025L41.7038 15.5444C41.7753 15.2738 41.7912 14.9914 41.7505 14.7145C41.7097 14.4375 41.6131 14.1717 41.4665 13.9332C41.3199 13.6947 41.1264 13.4885 40.8978 13.327C40.6691 13.1655 40.41 13.0521 40.1363 12.9938Z" fill="#000"/>
    <path d="M23.375 36.4375V41.9375H33V36.4375H32.3125H24.0625H23.375Z" fill="#0f0"/>
    <path d="M20.625 36.4375H19.9375H11.6875H11V41.9375H20.625V36.4375Z" fill="#0f0"/>
    <path d="M31.2407 12.76L30.7526 13.2482L22.0007 22L13.2489 13.2482L12.7607 12.76C12.1662 12.19 11.6914 11.5069 11.3643 10.7509C11.0372 9.99496 10.8643 9.18128 10.8558 8.35761C10.8473 7.53395 11.0033 6.71687 11.3148 5.95431C11.6262 5.19175 12.0868 4.49904 12.6695 3.91682C13.2521 3.3346 13.9452 2.87458 14.708 2.56374C15.4708 2.2529 16.288 2.0975 17.1117 2.10664C17.9353 2.11579 18.7489 2.2893 19.5046 2.61701C20.2603 2.94471 20.943 3.42001 21.5126 4.01503L22.0007 4.50316L22.4888 4.01503C23.0585 3.42001 23.7411 2.94471 24.4969 2.61701C25.2526 2.2893 26.0661 2.11579 26.8898 2.10664C27.7134 2.0975 28.5306 2.2529 29.2934 2.56374C30.0562 2.87458 30.7493 3.3346 31.332 3.91682C31.9147 4.49904 32.3752 5.19175 32.6867 5.95431C32.9981 6.71687 33.1542 7.53395 33.1457 8.35761C33.1372 9.18128 32.9643 9.99496 32.6372 10.7509C32.3101 11.5069 31.8353 12.19 31.2407 12.76Z" fill="#f00"/>
    <path d="M23.375 15.125V12.375H26.125V9.625H23.375V6.875H20.625V9.625H17.875V12.375H20.625V15.125H23.375Z" fill="#f00"/>
    <path d="M34.92 23.1688L30.3247 25.7126C30.1934 25.7886 30.096 25.9119 30.0524 26.0573C30.0089 26.2027 30.0224 26.3592 30.0903 26.4949C30.1265 26.5675 30.1773 26.6319 30.2394 26.6842C30.3015 26.7364 30.3737 26.7754 30.4514 26.7987C30.5291 26.822 30.6108 26.8292 30.6914 26.8197C30.772 26.8103 30.8498 26.7845 30.9201 26.7438L34.92 24.5438C35.3376 24.3017 35.657 23.9208 35.8227 23.4674C35.9884 23.0141 35.9899 22.5169 35.8268 22.0626C35.6677 22.5286 35.3457 22.9214 34.92 23.1688Z" fill="#000"/>
    <path d="M9.07888 23.1688L13.6741 25.7126C13.8055 25.7886 13.9028 25.9119 13.9464 26.0573C13.99 26.2027 13.9764 26.3592 13.9086 26.4949C13.8723 26.5675 13.8215 26.6319 13.7594 26.6842C13.6973 26.7364 13.6252 26.7754 13.5474 26.7987C13.4697 26.822 13.388 26.8292 13.3074 26.8197C13.2268 26.8103 13.149 26.7845 13.0788 26.7438L9.07888 24.5438C8.66127 24.3017 8.3418 23.9208 8.1761 23.4674C8.01041 23.0141 8.00898 22.5169 8.17206 22.0626C8.33113 22.5286 8.65316 22.9214 9.07888 23.1688Z" fill="#000"/>
    <path d="M26.125 8.9375H24.0625V6.875C24.0625 6.69266 23.9901 6.5178 23.8611 6.38886C23.7322 6.25993 23.5573 6.1875 23.375 6.1875H20.625C20.4427 6.1875 20.2678 6.25993 20.1389 6.38886C20.0099 6.5178 19.9375 6.69266 19.9375 6.875V8.9375H17.875C17.6927 8.9375 17.5178 9.00993 17.3889 9.13886C17.2599 9.2678 17.1875 9.44266 17.1875 9.625V12.375C17.1875 12.5573 17.2599 12.7322 17.3889 12.8611C17.5178 12.9901 17.6927 13.0625 17.875 13.0625H19.9375V15.125C19.9375 15.3073 20.0099 15.4822 20.1389 15.6111C20.2678 15.7401 20.4427 15.8125 20.625 15.8125H23.375C23.5573 15.8125 23.7322 15.7401 23.8611 15.6111C23.9901 15.4822 24.0625 15.3073 24.0625 15.125V13.0625H26.125C26.3073 13.0625 26.4822 12.9901 26.6111 12.8611C26.7401 12.7322 26.8125 12.5573 26.8125 12.375V9.625C26.8125 9.44266 26.7401 9.2678 26.6111 9.13886C26.4822 9.00993 26.3073 8.9375 26.125 8.9375ZM25.4375 11.6875H23.375C23.1927 11.6875 23.0178 11.7599 22.8889 11.8889C22.7599 12.0178 22.6875 12.1927 22.6875 12.375V14.4375H21.3125V12.375C21.3125 12.1927 21.2401 12.0178 21.1111 11.8889C20.9822 11.7599 20.8073 11.6875 20.625 11.6875H18.5625V10.3125H20.625C20.8073 10.3125 20.9822 10.2401 21.1111 10.1111C21.2401 9.9822 21.3125 9.80734 21.3125 9.625V7.5625H22.6875V9.625C22.6875 9.80734 22.7599 9.9822 22.8889 10.1111C23.0178 10.2401 23.1927 10.3125 23.375 10.3125H25.4375V11.6875Z" fill="#2E549F"/>
    <path d="M41.0644 12.6225C41.0783 12.5015 41.0852 12.3799 41.085 12.2581C41.0817 11.6279 40.8631 11.0178 40.4654 10.5289C40.0678 10.04 39.515 9.70168 38.8988 9.57001C38.2016 9.43731 37.4802 9.57437 36.8803 9.95345C36.2804 10.3325 35.8469 10.9253 35.6675 11.6119L32.6425 20.3156C32.5977 20.3334 32.554 20.3541 32.5119 20.3775L26.4344 23.9388C25.5044 24.485 24.733 25.2645 24.1965 26.2001C23.6599 27.1358 23.3768 28.1952 23.375 29.2738V35.75C23.1927 35.75 23.0178 35.8224 22.8889 35.9514C22.7599 36.0803 22.6875 36.2552 22.6875 36.4375V41.9375C22.6875 42.1198 22.7599 42.2947 22.8889 42.4236C23.0178 42.5526 23.1927 42.625 23.375 42.625H33C33.1823 42.625 33.3572 42.5526 33.4861 42.4236C33.6151 42.2947 33.6875 42.1198 33.6875 41.9375V36.4375C33.6875 36.2552 33.6151 36.0803 33.4861 35.9514C33.3572 35.8224 33.1823 35.75 33 35.75V34.2375C33.0013 33.9471 33.0631 33.6602 33.1815 33.3951C33.2998 33.1299 33.4722 32.8923 33.6875 32.6975L38.335 28.5656C38.8434 28.1208 39.2073 27.5343 39.38 26.8813L42.3637 15.7231C42.4274 15.4901 42.4598 15.2497 42.46 15.0081C42.4573 14.523 42.3269 14.0471 42.0819 13.6283C41.8369 13.2095 41.486 12.8626 41.0644 12.6225ZM36.9806 12.0175C37.065 11.662 37.2803 11.3513 37.5836 11.1474C37.8868 10.9435 38.2558 10.8615 38.6169 10.9175C38.925 10.982 39.2017 11.1504 39.4007 11.3944C39.5996 11.6384 39.7088 11.9433 39.71 12.2581V12.2719C39.0959 12.2833 38.5023 12.495 38.0196 12.8747C37.5368 13.2544 37.1913 13.7815 37.0356 14.3756L35.1175 20.295C34.8271 20.1573 34.5157 20.069 34.1963 20.0338L36.9806 12.0175ZM32.3125 41.25H24.0625V37.125H32.3125V41.25ZM41.0369 15.3656L38.0463 26.5306C37.9428 26.9186 37.7276 27.2676 37.4275 27.5344L32.7731 31.6663C32.413 31.991 32.1248 32.3876 31.927 32.8304C31.7293 33.2732 31.6264 33.7525 31.625 34.2375V35.75H24.75V29.2738C24.7534 28.435 24.9744 27.6114 25.3913 26.8836C25.8083 26.1557 26.4069 25.5485 27.1287 25.1213L33.1994 21.5669C33.3559 21.4757 33.5289 21.4163 33.7084 21.3922C33.888 21.3681 34.0705 21.3796 34.2456 21.4263C34.4206 21.4729 34.5847 21.5537 34.7285 21.6639C34.8722 21.7742 34.9927 21.9118 35.0831 22.0688C35.2617 22.3864 35.3109 22.7607 35.2206 23.1138C35.1729 23.2881 35.0912 23.4513 34.9803 23.594C34.8694 23.7368 34.7315 23.8563 34.5744 23.9456L30.635 26.2213C30.4854 26.3164 30.3783 26.4657 30.3361 26.6379C30.2939 26.8101 30.3199 26.992 30.4086 27.1455C30.4973 27.299 30.642 27.4123 30.8123 27.4617C30.9826 27.5111 31.1654 27.4928 31.3225 27.4106L35.2619 25.135C35.5768 24.9564 35.8527 24.7165 36.0735 24.4296C36.2943 24.1427 36.4555 23.8145 36.5475 23.4644C36.7346 22.7609 36.6358 22.012 36.2725 21.3813L36.2313 21.3194L38.3556 14.7675C38.44 14.412 38.6553 14.1013 38.9586 13.8974C39.2618 13.6935 39.6308 13.6115 39.9919 13.6675C40.3 13.732 40.5767 13.9004 40.7757 14.1444C40.9746 14.3884 41.0838 14.6933 41.085 15.0081C41.0873 15.1291 41.0711 15.2496 41.0369 15.3656Z" fill="#2E549F"/>
    <path d="M20.6241 35.75V29.2738C20.6223 28.1952 20.3391 27.1358 19.8026 26.2001C19.266 25.2645 18.4947 24.485 17.5647 23.9388L11.4872 20.3706C11.4459 20.35 11.3978 20.3363 11.3566 20.3156L8.35219 11.66C8.17757 10.9634 7.7441 10.3596 7.13998 9.9713C6.53586 9.58303 5.80649 9.43953 5.10031 9.57002C4.48403 9.7017 3.93126 10.04 3.53363 10.5289C3.136 11.0178 2.9174 11.628 2.91406 12.2581C2.91388 12.3799 2.92077 12.5016 2.93469 12.6225C2.51309 12.8626 2.16215 13.2095 1.91715 13.6283C1.67216 14.0471 1.54176 14.523 1.53906 15.0081C1.5404 15.2492 1.5704 15.4892 1.62844 15.7231L4.61906 26.8744C4.78996 27.5302 5.15405 28.1194 5.66406 28.5656L10.3047 32.6975C10.5222 32.891 10.6964 33.1281 10.8161 33.3935C10.9357 33.6588 10.9981 33.9464 10.9991 34.2375V35.75C10.8167 35.75 10.6419 35.8225 10.5129 35.9514C10.384 36.0803 10.3116 36.2552 10.3116 36.4375V41.9375C10.3116 42.1199 10.384 42.2947 10.5129 42.4237C10.6419 42.5526 10.8167 42.625 10.9991 42.625H20.6241C20.8064 42.625 20.9813 42.5526 21.1102 42.4237C21.2391 42.2947 21.3116 42.1199 21.3116 41.9375V36.4375C21.3116 36.2552 21.2391 36.0803 21.1102 35.9514C20.9813 35.8225 20.8064 35.75 20.6241 35.75ZM4.28906 12.2581C4.28991 11.9443 4.39813 11.6401 4.59573 11.3962C4.79333 11.1524 5.06843 10.9834 5.37531 10.9175C5.74633 10.8637 6.12399 10.9521 6.43255 11.165C6.74112 11.3779 6.95777 11.6997 7.03906 12.0656L9.80281 20.0338C9.48333 20.069 9.17197 20.1573 8.88156 20.295L6.97719 14.41C6.8222 13.81 6.47603 13.2768 5.99102 12.891C5.50602 12.5052 4.90857 12.2879 4.28906 12.2719V12.2581ZM11.2191 31.6663L6.57156 27.5344C6.26979 27.2662 6.05443 26.9145 5.95281 26.5238L2.95531 15.3656C2.92685 15.2486 2.913 15.1286 2.91406 15.0081C2.91491 14.6943 3.02313 14.3901 3.22073 14.1462C3.41833 13.9024 3.69343 13.7334 4.00031 13.6675C4.36872 13.6122 4.7444 13.6985 5.05179 13.9089C5.35918 14.1194 5.57548 14.4384 5.65719 14.8019L7.76781 21.3194L7.72656 21.3813C7.36328 22.012 7.26442 22.761 7.45156 23.4644C7.54361 23.8145 7.70477 24.1427 7.92556 24.4296C8.14635 24.7165 8.42231 24.9564 8.73719 25.135L12.6766 27.4106C12.8337 27.4928 13.0165 27.5111 13.1868 27.4617C13.3571 27.4123 13.5017 27.299 13.5905 27.1455C13.6792 26.992 13.7052 26.8101 13.663 26.6379C13.6208 26.4657 13.5137 26.3164 13.3641 26.2213L9.42469 23.9456C9.26758 23.8563 9.12963 23.7368 9.01874 23.5941C8.90785 23.4513 8.82619 23.2881 8.77844 23.1138C8.68812 22.7607 8.73737 22.3864 8.91594 22.0688C9.00577 21.9121 9.12557 21.7747 9.26851 21.6644C9.41145 21.554 9.57472 21.4729 9.749 21.4257C9.92329 21.3784 10.1052 21.366 10.2843 21.389C10.4634 21.4121 10.6362 21.4702 10.7928 21.56L16.8703 25.1213C17.5922 25.5485 18.1908 26.1557 18.6077 26.8836C19.0247 27.6114 19.2457 28.435 19.2491 29.2738V35.75H12.3741V34.2375C12.3729 33.7519 12.2694 33.2719 12.0704 32.8289C11.8714 32.3859 11.5813 31.9897 11.2191 31.6663ZM19.9366 41.25H11.6866V37.125H19.9366V41.25Z" fill="#2E549F"/>
    <path d="M31.7265 3.52828C31.0883 2.88893 30.3302 2.38172 29.4957 2.03567C28.6612 1.68962 27.7667 1.51153 26.8633 1.5116C25.9599 1.51166 25.0654 1.68987 24.231 2.03604C23.3965 2.38221 22.6386 2.88953 22.0004 3.52897C21.3623 2.88951 20.6044 2.38219 19.77 2.03604C18.9356 1.68989 18.0411 1.51171 17.1377 1.51171C16.2344 1.51171 15.3399 1.68989 14.5055 2.03604C13.6711 2.38219 12.9131 2.88951 12.2751 3.52897C10.9883 4.8185 10.2656 6.56581 10.2656 8.38753C10.2656 10.2092 10.9883 11.9566 12.2751 13.2461L21.5151 22.4861C21.644 22.615 21.8188 22.6874 22.0011 22.6874C22.1834 22.6874 22.3583 22.615 22.4872 22.4861L31.7272 13.2461C33.0139 11.9564 33.7364 10.2089 33.7363 8.38704C33.7362 6.56522 33.0134 4.81784 31.7265 3.52828ZM22.0004 21.0279L13.2465 12.274C12.478 11.5044 11.9548 10.5242 11.7433 9.45738C11.5317 8.39055 11.6412 7.28493 12.0579 6.28031C12.4746 5.27569 13.1798 4.41717 14.0844 3.81327C14.9889 3.20937 16.0522 2.88722 17.1398 2.88753C17.8623 2.88505 18.578 3.02645 19.2453 3.30348C19.9125 3.58051 20.518 3.98763 21.0262 4.50109L21.5144 4.98922C21.6433 5.1181 21.8181 5.19051 22.0004 5.19051C22.1827 5.19051 22.3576 5.1181 22.4865 4.98922L22.976 4.49972C23.4864 3.98839 24.0926 3.58273 24.76 3.30595C25.4273 3.02917 26.1427 2.88671 26.8652 2.88671C27.5876 2.88671 28.303 3.02917 28.9704 3.30595C29.6377 3.58273 30.244 3.98839 30.7544 4.49972C31.7842 5.53095 32.3626 6.92876 32.3626 8.38615C32.3626 9.84355 31.7842 11.2414 30.7544 12.2726L22.0004 21.0279Z" fill="#2E549F"/>
</svg>