<svg width="44" height="44" viewBox="0 0 44 44" fill="none" xmlns="http://www.w3.org/2000/svg">
<path d="M10.7997 20.8127L7.68533 11.8408C7.55359 11.3154 7.22823 10.8591 6.77438 10.5633C6.32054 10.2676 5.77172 10.1542 5.23782 10.2458C4.96404 10.3042 4.70496 10.4176 4.4763 10.5791C4.24763 10.7405 4.05415 10.9468 3.90758 11.1853C3.76101 11.4238 3.6644 11.6896 3.62362 11.9665C3.58284 12.2435 3.59873 12.5258 3.67032 12.7965L6.87407 22.6896L10.7997 20.8127Z" fill="#E9E4D8"/>
<path d="M33.1992 20.8127L36.3136 11.8408C36.4453 11.3154 36.7707 10.8591 37.2245 10.5633C37.6784 10.2676 38.2272 10.1542 38.7611 10.2458C39.0349 10.3042 39.294 10.4176 39.5226 10.5791C39.7513 10.7405 39.9448 10.9468 40.0913 11.1853C40.2379 11.4238 40.3345 11.6896 40.3753 11.9665C40.4161 12.2435 40.4002 12.5258 40.3286 12.7965L37.1248 22.6896L33.1992 20.8127Z" fill="#E9E4D8"/>
<path d="M17.2182 24.5335L11.1407 20.9708C10.7201 20.7279 10.2273 20.6416 9.74917 20.727C9.27109 20.8124 8.83861 21.0641 8.5282 21.4376L6.31032 14.5908C6.17859 14.0654 5.85323 13.6091 5.39938 13.3133C4.94554 13.0176 4.39672 12.9042 3.86282 12.9958C3.58904 13.0542 3.32996 13.1676 3.1013 13.3291C2.87263 13.4905 2.67915 13.6968 2.53258 13.9353C2.38601 14.1738 2.2894 14.4396 2.24862 14.7165C2.20784 14.9935 2.22373 15.2758 2.29532 15.5465L5.28595 26.7046C5.42313 27.2265 5.71275 27.6956 6.11782 28.0521L10.7653 32.184C11.0553 32.4422 11.2873 32.7588 11.4461 33.1131C11.6049 33.4674 11.6868 33.8513 11.6866 34.2396V36.4396H19.9366V29.2786C19.9366 28.3193 19.6858 27.3766 19.2089 26.5442C18.7321 25.7118 18.0458 25.0186 17.2182 24.5335Z" fill="#E9E4D8"/>
<path d="M40.1363 12.9958C39.6024 12.9042 39.0535 13.0176 38.5997 13.3133C38.1458 13.6091 37.8205 14.0654 37.6887 14.5908L35.4681 21.4376C35.1577 21.0641 34.7252 20.8124 34.2472 20.727C33.7691 20.6416 33.2762 20.7279 32.8556 20.9708L26.7781 24.5335C25.9511 25.019 25.2653 25.7123 24.789 26.5447C24.3126 27.3771 24.0622 28.3195 24.0625 29.2786V36.4396H32.3125V34.2396C32.3122 33.8513 32.3942 33.4674 32.553 33.1131C32.7118 32.7588 32.9438 32.4422 33.2338 32.184L37.8812 28.0521C38.2863 27.6956 38.5759 27.2265 38.7131 26.7046L41.7038 15.5465C41.7753 15.2758 41.7912 14.9935 41.7505 14.7165C41.7097 14.4396 41.6131 14.1738 41.4665 13.9353C41.3199 13.6968 41.1264 13.4905 40.8978 13.3291C40.6691 13.1676 40.41 13.0542 40.1363 12.9958Z" fill="#E9E4D8"/>
<path d="M23.375 36.4375V41.9375H33V36.4375H32.3125H24.0625H23.375Z" fill="#000"/>
<path d="M20.625 36.4375H19.9375H11.6875H11V41.9375H20.625V36.4375Z" fill="#000"/>
<path d="M31.2388 12.7592L30.7506 13.2474L21.9988 21.9992L13.2469 13.2474L12.7588 12.7592C12.1642 12.1892 11.6894 11.5061 11.3623 10.7501C11.0352 9.99416 10.8623 9.18049 10.8538 8.35682C10.8453 7.53315 11.0014 6.71608 11.3128 5.95352C11.6243 5.19095 12.0848 4.49825 12.6675 3.91603C13.2502 3.3338 13.9433 2.87379 14.7061 2.56295C15.4689 2.25211 16.2861 2.0967 17.1097 2.10585C17.9334 2.115 18.7469 2.28851 19.5026 2.61622C20.2584 2.94392 20.941 3.41922 21.5106 4.01424L21.9988 4.50236L22.4869 4.01424C23.0565 3.41922 23.7392 2.94392 24.4949 2.61622C25.2506 2.28851 26.0642 2.115 26.8878 2.10585C27.7115 2.0967 28.5287 2.25211 29.2915 2.56295C30.0543 2.87379 30.7474 3.3338 31.33 3.91603C31.9127 4.49825 32.3733 5.19095 32.6847 5.95352C32.9962 6.71608 33.1522 7.53315 33.1437 8.35682C33.1352 9.18049 32.9623 9.99416 32.6352 10.7501C32.3081 11.5061 31.8333 12.1892 31.2388 12.7592Z" fill="#F6D575"/>
<path d="M23.375 15.125V12.375H26.125V9.625H23.375V6.875H20.625V9.625H17.875V12.375H20.625V15.125H23.375Z" fill="#F1F2F2"/>
<path d="M34.92 23.1687L30.3247 25.7124C30.1934 25.7885 30.096 25.9118 30.0524 26.0572C30.0089 26.2025 30.0224 26.3591 30.0903 26.4948C30.1265 26.5674 30.1773 26.6318 30.2394 26.6841C30.3015 26.7363 30.3737 26.7753 30.4514 26.7986C30.5291 26.8219 30.6108 26.8291 30.6914 26.8196C30.772 26.8102 30.8498 26.7843 30.9201 26.7437L34.92 24.5437C35.3376 24.3016 35.657 23.9207 35.8227 23.4673C35.9884 23.014 35.9899 22.5168 35.8268 22.0625C35.6677 22.5285 35.3457 22.9213 34.92 23.1687Z" fill="#E9E4D8"/>
<path d="M9.07888 23.1687L13.6741 25.7124C13.8055 25.7885 13.9028 25.9118 13.9464 26.0572C13.99 26.2025 13.9764 26.3591 13.9086 26.4948C13.8723 26.5674 13.8215 26.6318 13.7594 26.6841C13.6973 26.7363 13.6252 26.7753 13.5474 26.7986C13.4697 26.8219 13.388 26.8291 13.3074 26.8196C13.2268 26.8102 13.149 26.7843 13.0788 26.7437L9.07888 24.5437C8.66127 24.3016 8.3418 23.9207 8.1761 23.4673C8.01041 23.014 8.00898 22.5168 8.17206 22.0625C8.33113 22.5285 8.65316 22.9213 9.07888 23.1687Z" fill="#E9E4D8"/>
<path d="M26.125 8.9375H24.0625V6.875C24.0625 6.69266 23.9901 6.5178 23.8611 6.38886C23.7322 6.25993 23.5573 6.1875 23.375 6.1875H20.625C20.4427 6.1875 20.2678 6.25993 20.1389 6.38886C20.0099 6.5178 19.9375 6.69266 19.9375 6.875V8.9375H17.875C17.6927 8.9375 17.5178 9.00993 17.3889 9.13886C17.2599 9.2678 17.1875 9.44266 17.1875 9.625V12.375C17.1875 12.5573 17.2599 12.7322 17.3889 12.8611C17.5178 12.9901 17.6927 13.0625 17.875 13.0625H19.9375V15.125C19.9375 15.3073 20.0099 15.4822 20.1389 15.6111C20.2678 15.7401 20.4427 15.8125 20.625 15.8125H23.375C23.5573 15.8125 23.7322 15.7401 23.8611 15.6111C23.9901 15.4822 24.0625 15.3073 24.0625 15.125V13.0625H26.125C26.3073 13.0625 26.4822 12.9901 26.6111 12.8611C26.7401 12.7322 26.8125 12.5573 26.8125 12.375V9.625C26.8125 9.44266 26.7401 9.2678 26.6111 9.13886C26.4822 9.00993 26.3073 8.9375 26.125 8.9375ZM25.4375 11.6875H23.375C23.1927 11.6875 23.0178 11.7599 22.8889 11.8889C22.7599 12.0178 22.6875 12.1927 22.6875 12.375V14.4375H21.3125V12.375C21.3125 12.1927 21.2401 12.0178 21.1111 11.8889C20.9822 11.7599 20.8073 11.6875 20.625 11.6875H18.5625V10.3125H20.625C20.8073 10.3125 20.9822 10.2401 21.1111 10.1111C21.2401 9.9822 21.3125 9.80734 21.3125 9.625V7.5625H22.6875V9.625C22.6875 9.80734 22.7599 9.9822 22.8889 10.1111C23.0178 10.2401 23.1927 10.3125 23.375 10.3125H25.4375V11.6875Z" fill="black"/>
<path d="M41.0644 12.6214C41.0783 12.5004 41.0852 12.3788 41.085 12.257C41.0817 11.6268 40.8631 11.0167 40.4654 10.5278C40.0678 10.0389 39.515 9.70058 38.8988 9.56891C38.2016 9.43621 37.4802 9.57327 36.8803 9.95235C36.2804 10.3314 35.8469 10.9242 35.6675 11.6108L32.6425 20.3145C32.5977 20.3323 32.554 20.353 32.5119 20.3764L26.4344 23.9377C25.5044 24.4839 24.733 25.2634 24.1965 26.199C23.6599 27.1347 23.3768 28.1941 23.375 29.2727V35.7489C23.1927 35.7489 23.0178 35.8213 22.8889 35.9503C22.7599 36.0792 22.6875 36.2541 22.6875 36.4364V41.9364C22.6875 42.1187 22.7599 42.2936 22.8889 42.4225C23.0178 42.5515 23.1927 42.6239 23.375 42.6239H33C33.1823 42.6239 33.3572 42.5515 33.4861 42.4225C33.6151 42.2936 33.6875 42.1187 33.6875 41.9364V36.4364C33.6875 36.2541 33.6151 36.0792 33.4861 35.9503C33.3572 35.8213 33.1823 35.7489 33 35.7489V34.2364C33.0013 33.946 33.0631 33.6591 33.1815 33.394C33.2998 33.1288 33.4722 32.8912 33.6875 32.6964L38.335 28.5645C38.8434 28.1197 39.2073 27.5332 39.38 26.8802L42.3637 15.722C42.4274 15.489 42.4598 15.2486 42.46 15.007C42.4573 14.5219 42.3269 14.046 42.0819 13.6272C41.8369 13.2084 41.486 12.8615 41.0644 12.6214ZM36.9806 12.0164C37.065 11.6609 37.2803 11.3502 37.5836 11.1463C37.8868 10.9424 38.2558 10.8604 38.6169 10.9164C38.925 10.9809 39.2017 11.1493 39.4007 11.3933C39.5996 11.6373 39.7088 11.9422 39.71 12.257V12.2708C39.0959 12.2822 38.5023 12.4939 38.0196 12.8736C37.5368 13.2533 37.1913 13.7804 37.0356 14.3745L35.1175 20.2939C34.8271 20.1562 34.5157 20.0679 34.1963 20.0327L36.9806 12.0164ZM32.3125 41.2489H24.0625V37.1239H32.3125V41.2489ZM41.0369 15.3645L38.0463 26.5295C37.9428 26.9175 37.7276 27.2665 37.4275 27.5333L32.7731 31.6652C32.413 31.9899 32.1248 32.3865 31.927 32.8293C31.7293 33.2721 31.6264 33.7514 31.625 34.2364V35.7489H24.75V29.2727C24.7534 28.4339 24.9744 27.6103 25.3913 26.8825C25.8083 26.1546 26.4069 25.5474 27.1287 25.1202L33.1994 21.5658C33.3559 21.4746 33.5289 21.4152 33.7084 21.3911C33.888 21.367 34.0705 21.3785 34.2456 21.4252C34.4206 21.4718 34.5847 21.5526 34.7285 21.6628C34.8722 21.7731 34.9927 21.9107 35.0831 22.0677C35.2617 22.3853 35.3109 22.7596 35.2206 23.1127C35.1729 23.287 35.0912 23.4502 34.9803 23.5929C34.8694 23.7357 34.7315 23.8552 34.5744 23.9445L30.635 26.2202C30.4854 26.3153 30.3783 26.4646 30.3361 26.6368C30.2939 26.809 30.3199 26.9909 30.4086 27.1444C30.4973 27.2979 30.642 27.4112 30.8123 27.4606C30.9826 27.51 31.1654 27.4917 31.3225 27.4095L35.2619 25.1339C35.5768 24.9553 35.8527 24.7154 36.0735 24.4285C36.2943 24.1416 36.4555 23.8134 36.5475 23.4633C36.7346 22.7598 36.6358 22.0109 36.2725 21.3802L36.2313 21.3183L38.3556 14.7664C38.44 14.4109 38.6553 14.1002 38.9586 13.8963C39.2618 13.6924 39.6308 13.6104 39.9919 13.6664C40.3 13.7309 40.5767 13.8993 40.7757 14.1433C40.9746 14.3873 41.0838 14.6922 41.085 15.007C41.0873 15.128 41.0711 15.2485 41.0369 15.3645Z" fill="black"/>
<path d="M20.6241 35.7504V29.2742C20.6223 28.1956 20.3391 27.1362 19.8026 26.2006C19.266 25.2649 18.4947 24.4855 17.5647 23.9392L11.4872 20.3711C11.4459 20.3504 11.3978 20.3367 11.3566 20.3161L8.35219 11.6604C8.17757 10.9639 7.7441 10.36 7.13998 9.97173C6.53586 9.58345 5.80649 9.43996 5.10031 9.57045C4.48403 9.70212 3.93126 10.0405 3.53363 10.5294C3.136 11.0183 2.9174 11.6284 2.91406 12.2586C2.91388 12.3803 2.92077 12.502 2.93469 12.623C2.51309 12.8631 2.16215 13.2099 1.91715 13.6287C1.67216 14.0475 1.54176 14.5234 1.53906 15.0086C1.5404 15.2496 1.5704 15.4896 1.62844 15.7236L4.61906 26.8748C4.78996 27.5306 5.15405 28.1198 5.66406 28.5661L10.3047 32.698C10.5222 32.8914 10.6964 33.1286 10.8161 33.3939C10.9357 33.6593 10.9981 33.9469 10.9991 34.2379V35.7504C10.8167 35.7504 10.6419 35.8229 10.5129 35.9518C10.384 36.0807 10.3116 36.2556 10.3116 36.4379V41.938C10.3116 42.1203 10.384 42.2952 10.5129 42.4241C10.6419 42.553 10.8167 42.6255 10.9991 42.6255H20.6241C20.8064 42.6255 20.9813 42.553 21.1102 42.4241C21.2391 42.2952 21.3116 42.1203 21.3116 41.938V36.4379C21.3116 36.2556 21.2391 36.0807 21.1102 35.9518C20.9813 35.8229 20.8064 35.7504 20.6241 35.7504ZM4.28906 12.2586C4.28991 11.9447 4.39813 11.6405 4.59573 11.3967C4.79333 11.1528 5.06843 10.9839 5.37531 10.9179C5.74633 10.8641 6.12399 10.9525 6.43255 11.1654C6.74112 11.3784 6.95777 11.7001 7.03906 12.0661L9.80281 20.0342C9.48333 20.0694 9.17197 20.1577 8.88156 20.2955L6.97719 14.4104C6.8222 13.8104 6.47603 13.2772 5.99102 12.8914C5.50602 12.5057 4.90857 12.2883 4.28906 12.2723V12.2586ZM11.2191 31.6667L6.57156 27.5348C6.26979 27.2667 6.05443 26.9149 5.95281 26.5242L2.95531 15.3661C2.92685 15.2491 2.913 15.129 2.91406 15.0086C2.91491 14.6947 3.02313 14.3905 3.22073 14.1467C3.41833 13.9028 3.69343 13.7339 4.00031 13.6679C4.36872 13.6127 4.7444 13.6989 5.05179 13.9094C5.35918 14.1198 5.57548 14.4389 5.65719 14.8023L7.76781 21.3198L7.72656 21.3817C7.36328 22.0125 7.26442 22.7614 7.45156 23.4648C7.54361 23.815 7.70477 24.1431 7.92556 24.43C8.14635 24.717 8.42231 24.9568 8.73719 25.1355L12.6766 27.4111C12.8337 27.4933 13.0165 27.5116 13.1868 27.4622C13.3571 27.4128 13.5017 27.2995 13.5905 27.1459C13.6792 26.9924 13.7052 26.8106 13.663 26.6383C13.6208 26.4661 13.5137 26.3168 13.3641 26.2217L9.42469 23.9461C9.26758 23.8567 9.12963 23.7372 9.01874 23.5945C8.90785 23.4517 8.82619 23.2885 8.77844 23.1142C8.68812 22.7611 8.73737 22.3869 8.91594 22.0692C9.00577 21.9126 9.12557 21.7751 9.26851 21.6648C9.41145 21.5544 9.57472 21.4733 9.749 21.4261C9.92329 21.3789 10.1052 21.3664 10.2843 21.3895C10.4634 21.4125 10.6362 21.4706 10.7928 21.5605L16.8703 25.1217C17.5922 25.5489 18.1908 26.1562 18.6077 26.884C19.0247 27.6118 19.2457 28.4354 19.2491 29.2742V35.7504H12.3741V34.2379C12.3729 33.7523 12.2694 33.2723 12.0704 32.8293C11.8714 32.3863 11.5813 31.9902 11.2191 31.6667ZM19.9366 41.2504H11.6866V37.1254H19.9366V41.2504Z" fill="black"/>
<path d="M31.7245 3.5284C31.0863 2.88905 30.3283 2.38184 29.4938 2.03579C28.6593 1.68974 27.7647 1.51165 26.8614 1.51172C25.958 1.51178 25.0635 1.69 24.229 2.03616C23.3946 2.38233 22.6366 2.88965 21.9985 3.52909C21.3604 2.88963 20.6024 2.38231 19.768 2.03616C18.9336 1.69001 18.0391 1.51184 17.1358 1.51184C16.2324 1.51184 15.3379 1.69001 14.5035 2.03616C13.6691 2.38231 12.9112 2.88963 12.2731 3.52909C10.9863 4.81862 10.2637 6.56594 10.2637 8.38765C10.2637 10.2094 10.9863 11.9567 12.2731 13.2462L21.5131 22.4862C21.642 22.6151 21.8169 22.6875 21.9992 22.6875C22.1815 22.6875 22.3563 22.6151 22.4852 22.4862L31.7252 13.2462C33.0119 11.9565 33.7345 10.209 33.7344 8.38717C33.7342 6.56534 33.0114 4.81796 31.7245 3.5284ZM21.9985 21.028L13.2445 12.2741C12.476 11.5045 11.9529 10.5243 11.7413 9.45751C11.5298 8.39067 11.6393 7.28505 12.056 6.28043C12.4726 5.27581 13.1778 4.41729 14.0824 3.81339C14.9869 3.20949 16.0502 2.88734 17.1378 2.88765C17.8603 2.88517 18.5761 3.02657 19.2433 3.3036C19.9106 3.58063 20.516 3.98775 21.0243 4.50121L21.5124 4.98934C21.6413 5.11823 21.8162 5.19063 21.9985 5.19063C22.1808 5.19063 22.3556 5.11823 22.4845 4.98934L22.974 4.49984C23.4844 3.98851 24.0907 3.58285 24.758 3.30607C25.4254 3.0293 26.1408 2.88683 26.8632 2.88683C27.5857 2.88683 28.3011 3.0293 28.9684 3.30607C29.6358 3.58285 30.242 3.98851 30.7524 4.49984C31.7822 5.53107 32.3607 6.92888 32.3607 8.38628C32.3607 9.84367 31.7822 11.2415 30.7524 12.2727L21.9985 21.028Z" fill="black"/>
</svg>
