<svg width="44" height="44" viewBox="0 0 44 44" fill="none" xmlns="http://www.w3.org/2000/svg">
<path d="M10.8007 20.8108L7.6863 11.8389C7.55457 11.3134 7.2292 10.8571 6.77536 10.5614C6.32152 10.2656 5.7727 10.1522 5.2388 10.2439C4.96502 10.3023 4.70594 10.4156 4.47727 10.5771C4.24861 10.7386 4.05513 10.9448 3.90856 11.1833C3.76198 11.4218 3.66538 11.6876 3.6246 11.9646C3.58381 12.2415 3.5997 12.5239 3.6713 12.7945L6.87505 22.6876L10.8007 20.8108Z" fill="#E9E4D8"/>
<path d="M33.1992 20.8108L36.3136 11.8389C36.4453 11.3134 36.7707 10.8571 37.2245 10.5614C37.6784 10.2656 38.2272 10.1522 38.7611 10.2439C39.0349 10.3023 39.294 10.4156 39.5226 10.5771C39.7513 10.7386 39.9448 10.9448 40.0913 11.1833C40.2379 11.4218 40.3345 11.6876 40.3753 11.9646C40.4161 12.2415 40.4002 12.5239 40.3286 12.7945L37.1248 22.6876L33.1992 20.8108Z" fill="#E9E4D8"/>
<path d="M17.2192 24.5315L11.1417 20.9689C10.7211 20.726 10.2282 20.6396 9.75015 20.725C9.27207 20.8105 8.83959 21.0622 8.52918 21.4357L6.3113 14.5889C6.17957 14.0634 5.8542 13.6071 5.40036 13.3114C4.94652 13.0156 4.3977 12.9022 3.8638 12.9939C3.59002 13.0523 3.33094 13.1656 3.10227 13.3271C2.87361 13.4886 2.68013 13.6948 2.53356 13.9333C2.38698 14.1718 2.29038 14.4376 2.2496 14.7146C2.20881 14.9915 2.2247 15.2739 2.2963 15.5445L5.28693 26.7026C5.42411 27.2245 5.71373 27.6936 6.1188 28.0501L10.7663 32.182C11.0563 32.4402 11.2883 32.7569 11.4471 33.1112C11.6058 33.4655 11.6878 33.8494 11.6876 34.2376V36.4376H19.9376V29.2766C19.9376 28.3173 19.6868 27.3747 19.2099 26.5423C18.733 25.7099 18.0468 25.0167 17.2192 24.5315Z" fill="#E9E4D8"/>
<path d="M40.1363 12.9939C39.6024 12.9022 39.0535 13.0156 38.5997 13.3114C38.1458 13.6071 37.8205 14.0634 37.6887 14.5889L35.4681 21.4357C35.1577 21.0622 34.7252 20.8105 34.2472 20.725C33.7691 20.6396 33.2762 20.726 32.8556 20.9689L26.7781 24.5315C25.9511 25.017 25.2653 25.7104 24.789 26.5427C24.3126 27.3751 24.0622 28.3176 24.0625 29.2766V36.4376H32.3125V34.2376C32.3122 33.8494 32.3942 33.4655 32.553 33.1112C32.7118 32.7569 32.9438 32.4402 33.2338 32.182L37.8812 28.0501C38.2863 27.6936 38.5759 27.2245 38.7131 26.7026L41.7038 15.5445C41.7753 15.2739 41.7912 14.9915 41.7505 14.7146C41.7097 14.4376 41.6131 14.1718 41.4665 13.9333C41.3199 13.6948 41.1264 13.4886 40.8978 13.3271C40.6691 13.1656 40.41 13.0523 40.1363 12.9939Z" fill="#E9E4D8"/>
<path d="M23.375 36.4375V41.9375H33V36.4375H32.3125H24.0625H23.375Z" fill="#000"/>
<path d="M20.625 36.4375H19.9375H11.6875H11V41.9375H20.625V36.4375Z" fill="#000"/>
<path d="M31.2402 12.7592L30.7521 13.2474L22.0002 21.9992L13.2484 13.2474L12.7602 12.7592C12.1657 12.1892 11.6909 11.5061 11.3638 10.7501C11.0367 9.99416 10.8638 9.18049 10.8553 8.35682C10.8468 7.53315 11.0029 6.71608 11.3143 5.95352C11.6257 5.19095 12.0863 4.49825 12.669 3.91603C13.2517 3.3338 13.9447 2.87379 14.7075 2.56295C15.4703 2.25211 16.2875 2.0967 17.1112 2.10585C17.9349 2.115 18.7484 2.28851 19.5041 2.61622C20.2598 2.94392 20.9425 3.41922 21.5121 4.01424L22.0002 4.50236L22.4884 4.01424C23.058 3.41922 23.7406 2.94392 24.4964 2.61622C25.2521 2.28851 26.0656 2.115 26.8893 2.10585C27.7129 2.0967 28.5301 2.25211 29.2929 2.56295C30.0558 2.87379 30.7488 3.3338 31.3315 3.91603C31.9142 4.49825 32.3747 5.19095 32.6862 5.95352C32.9976 6.71608 33.1537 7.53315 33.1452 8.35682C33.1367 9.18049 32.9638 9.99416 32.6367 10.7501C32.3096 11.5061 31.8348 12.1892 31.2402 12.7592Z" fill="#000"/>
<path d="M23.375 15.125V12.375H26.125V9.625H23.375V6.875H20.625V9.625H17.875V12.375H20.625V15.125H23.375Z" fill="#F1F2F2"/>
<path d="M34.9209 23.1687L30.3257 25.7124C30.1943 25.7885 30.097 25.9118 30.0534 26.0572C30.0098 26.2025 30.0234 26.3591 30.0912 26.4948C30.1275 26.5674 30.1783 26.6318 30.2404 26.6841C30.3025 26.7363 30.3746 26.7753 30.4524 26.7986C30.5301 26.8219 30.6118 26.8291 30.6924 26.8196C30.773 26.8102 30.8508 26.7843 30.9211 26.7437L34.9209 24.5437C35.3385 24.3016 35.658 23.9207 35.8237 23.4673C35.9894 23.014 35.9908 22.5168 35.8277 22.0625C35.6687 22.5285 35.3466 22.9213 34.9209 23.1687Z" fill="#E9E4D8"/>
<path d="M9.07936 23.1687L13.6746 25.7124C13.8059 25.7885 13.9033 25.9118 13.9469 26.0572C13.9905 26.2025 13.9769 26.3591 13.9091 26.4948C13.8728 26.5674 13.822 26.6318 13.7599 26.6841C13.6978 26.7363 13.6257 26.7753 13.5479 26.7986C13.4702 26.8219 13.3885 26.8291 13.3079 26.8196C13.2273 26.8102 13.1495 26.7843 13.0792 26.7437L9.07936 24.5437C8.66176 24.3016 8.34229 23.9207 8.17659 23.4673C8.01089 23.014 8.00947 22.5168 8.17255 22.0625C8.33162 22.5285 8.65365 22.9213 9.07936 23.1687Z" fill="#E9E4D8"/>
<path d="M26.125 8.9375H24.0625V6.875C24.0625 6.69266 23.9901 6.5178 23.8611 6.38886C23.7322 6.25993 23.5573 6.1875 23.375 6.1875H20.625C20.4427 6.1875 20.2678 6.25993 20.1389 6.38886C20.0099 6.5178 19.9375 6.69266 19.9375 6.875V8.9375H17.875C17.6927 8.9375 17.5178 9.00993 17.3889 9.13886C17.2599 9.2678 17.1875 9.44266 17.1875 9.625V12.375C17.1875 12.5573 17.2599 12.7322 17.3889 12.8611C17.5178 12.9901 17.6927 13.0625 17.875 13.0625H19.9375V15.125C19.9375 15.3073 20.0099 15.4822 20.1389 15.6111C20.2678 15.7401 20.4427 15.8125 20.625 15.8125H23.375C23.5573 15.8125 23.7322 15.7401 23.8611 15.6111C23.9901 15.4822 24.0625 15.3073 24.0625 15.125V13.0625H26.125C26.3073 13.0625 26.4822 12.9901 26.6111 12.8611C26.7401 12.7322 26.8125 12.5573 26.8125 12.375V9.625C26.8125 9.44266 26.7401 9.2678 26.6111 9.13886C26.4822 9.00993 26.3073 8.9375 26.125 8.9375ZM25.4375 11.6875H23.375C23.1927 11.6875 23.0178 11.7599 22.8889 11.8889C22.7599 12.0178 22.6875 12.1927 22.6875 12.375V14.4375H21.3125V12.375C21.3125 12.1927 21.2401 12.0178 21.1111 11.8889C20.9822 11.7599 20.8073 11.6875 20.625 11.6875H18.5625V10.3125H20.625C20.8073 10.3125 20.9822 10.2401 21.1111 10.1111C21.2401 9.9822 21.3125 9.80734 21.3125 9.625V7.5625H22.6875V9.625C22.6875 9.80734 22.7599 9.9822 22.8889 10.1111C23.0178 10.2401 23.1927 10.3125 23.375 10.3125H25.4375V11.6875Z" fill="#6B4D3E"/>
<path d="M41.0644 12.6234C41.0783 12.5024 41.0852 12.3807 41.085 12.259C41.0817 11.6288 40.8631 11.0187 40.4654 10.5298C40.0678 10.0409 39.515 9.70253 38.8988 9.57086C38.2016 9.43817 37.4802 9.57522 36.8803 9.9543C36.2804 10.3334 35.8469 10.9262 35.6675 11.6127L32.6425 20.3165C32.5977 20.3343 32.554 20.3549 32.5119 20.3784L26.4344 23.9396C25.5044 24.4859 24.733 25.2653 24.1965 26.201C23.6599 27.1366 23.3768 28.1961 23.375 29.2746V35.7509C23.1927 35.7509 23.0178 35.8233 22.8889 35.9522C22.7599 36.0812 22.6875 36.256 22.6875 36.4384V41.9384C22.6875 42.1207 22.7599 42.2956 22.8889 42.4245C23.0178 42.5534 23.1927 42.6259 23.375 42.6259H33C33.1823 42.6259 33.3572 42.5534 33.4861 42.4245C33.6151 42.2956 33.6875 42.1207 33.6875 41.9384V36.4384C33.6875 36.256 33.6151 36.0812 33.4861 35.9522C33.3572 35.8233 33.1823 35.7509 33 35.7509V34.2384C33.0013 33.948 33.0631 33.6611 33.1815 33.3959C33.2998 33.1308 33.4722 32.8932 33.6875 32.6984L38.335 28.5665C38.8434 28.1217 39.2073 27.5351 39.38 26.8821L42.3637 15.724C42.4274 15.491 42.4598 15.2505 42.46 15.009C42.4573 14.5238 42.3269 14.0479 42.0819 13.6291C41.8369 13.2104 41.486 12.8635 41.0644 12.6234ZM36.9806 12.0184C37.065 11.6628 37.2803 11.3521 37.5836 11.1483C37.8868 10.9444 38.2558 10.8623 38.6169 10.9184C38.925 10.9829 39.2017 11.1512 39.4007 11.3952C39.5996 11.6393 39.7088 11.9441 39.71 12.259V12.2727C39.0959 12.2841 38.5023 12.4958 38.0196 12.8756C37.5368 13.2553 37.1913 13.7823 37.0356 14.3765L35.1175 20.2959C34.8271 20.1581 34.5157 20.0698 34.1963 20.0346L36.9806 12.0184ZM32.3125 41.2509H24.0625V37.1259H32.3125V41.2509ZM41.0369 15.3665L38.0463 26.5315C37.9428 26.9195 37.7276 27.2685 37.4275 27.5352L32.7731 31.6671C32.413 31.9919 32.1248 32.3884 31.927 32.8313C31.7293 33.2741 31.6264 33.7534 31.625 34.2384V35.7509H24.75V29.2746C24.7534 28.4358 24.9744 27.6123 25.3913 26.8844C25.8083 26.1566 26.4069 25.5494 27.1287 25.1221L33.1994 21.5677C33.3559 21.4765 33.5289 21.4172 33.7084 21.393C33.888 21.3689 34.0705 21.3805 34.2456 21.4271C34.4206 21.4738 34.5847 21.5545 34.7285 21.6648C34.8722 21.7751 34.9927 21.9126 35.0831 22.0696C35.2617 22.3873 35.3109 22.7616 35.2206 23.1146C35.1729 23.2889 35.0912 23.4521 34.9803 23.5949C34.8694 23.7376 34.7315 23.8571 34.5744 23.9465L30.635 26.2221C30.4854 26.3172 30.3783 26.4665 30.3361 26.6387C30.2939 26.811 30.3199 26.9928 30.4086 27.1464C30.4973 27.2999 30.642 27.4132 30.8123 27.4626C30.9826 27.512 31.1654 27.4937 31.3225 27.4115L35.2619 25.1359C35.5768 24.9572 35.8527 24.7174 36.0735 24.4305C36.2943 24.1435 36.4555 23.8154 36.5475 23.4652C36.7346 22.7618 36.6358 22.0129 36.2725 21.3821L36.2313 21.3202L38.3556 14.7684C38.44 14.4128 38.6553 14.1021 38.9586 13.8983C39.2618 13.6944 39.6308 13.6123 39.9919 13.6684C40.3 13.7329 40.5767 13.9012 40.7757 14.1452C40.9746 14.3893 41.0838 14.6941 41.085 15.009C41.0873 15.1299 41.0711 15.2505 41.0369 15.3665Z" fill="#6B4D3E"/>
<path d="M20.625 35.7504V29.2742C20.6233 28.1956 20.3401 27.1362 19.8036 26.2006C19.267 25.2649 18.4957 24.4855 17.5657 23.9392L11.4882 20.3711C11.4469 20.3504 11.3988 20.3367 11.3575 20.3161L8.35316 11.6604C8.17855 10.9639 7.74507 10.36 7.14095 9.97173C6.53683 9.58345 5.80747 9.43996 5.10129 9.57045C4.48501 9.70212 3.93223 10.0405 3.5346 10.5294C3.13698 11.0183 2.91837 11.6284 2.91504 12.2586C2.91486 12.3803 2.92175 12.502 2.93566 12.623C2.51407 12.8631 2.16312 13.2099 1.91813 13.6287C1.67314 14.0475 1.54274 14.5234 1.54004 15.0086C1.54137 15.2496 1.57138 15.4896 1.62941 15.7236L4.62004 26.8748C4.79094 27.5306 5.15503 28.1198 5.66504 28.5661L10.3057 32.698C10.5231 32.8914 10.6974 33.1286 10.817 33.3939C10.9367 33.6593 10.999 33.9469 11 34.2379V35.7504C10.8177 35.7504 10.6428 35.8229 10.5139 35.9518C10.385 36.0807 10.3125 36.2556 10.3125 36.4379V41.938C10.3125 42.1203 10.385 42.2952 10.5139 42.4241C10.6428 42.553 10.8177 42.6255 11 42.6255H20.625C20.8074 42.6255 20.9822 42.553 21.1112 42.4241C21.2401 42.2952 21.3125 42.1203 21.3125 41.938V36.4379C21.3125 36.2556 21.2401 36.0807 21.1112 35.9518C20.9822 35.8229 20.8074 35.7504 20.625 35.7504ZM4.29004 12.2586C4.29089 11.9447 4.3991 11.6405 4.59671 11.3967C4.79431 11.1528 5.0694 10.9839 5.37629 10.9179C5.7473 10.8641 6.12496 10.9525 6.43353 11.1654C6.74209 11.3784 6.95875 11.7001 7.04004 12.0661L9.80379 20.0342C9.48431 20.0694 9.17294 20.1577 8.88254 20.2955L6.97816 14.4104C6.82318 13.8104 6.477 13.2772 5.992 12.8914C5.50699 12.5057 4.90955 12.2883 4.29004 12.2723V12.2586ZM11.22 31.6667L6.57254 27.5348C6.27076 27.2667 6.05541 26.9149 5.95379 26.5242L2.95629 15.3661C2.92783 15.2491 2.91397 15.129 2.91504 15.0086C2.91589 14.6947 3.0241 14.3905 3.22171 14.1467C3.41931 13.9028 3.6944 13.7339 4.00129 13.6679C4.36969 13.6127 4.74537 13.6989 5.05276 13.9094C5.36015 14.1198 5.57645 14.4389 5.65816 14.8023L7.76879 21.3198L7.72754 21.3817C7.36426 22.0125 7.26539 22.7614 7.45254 23.4648C7.54459 23.815 7.70575 24.1431 7.92654 24.43C8.14733 24.717 8.42329 24.9568 8.73816 25.1355L12.6775 27.4111C12.8347 27.4933 13.0175 27.5116 13.1878 27.4622C13.3581 27.4128 13.5027 27.2995 13.5914 27.1459C13.6802 26.9924 13.7062 26.8106 13.664 26.6383C13.6218 26.4661 13.5147 26.3168 13.365 26.2217L9.42566 23.9461C9.26855 23.8567 9.13061 23.7372 9.01972 23.5945C8.90883 23.4517 8.82717 23.2885 8.77941 23.1142C8.68909 22.7611 8.73834 22.3869 8.91691 22.0692C9.00674 21.9126 9.12655 21.7751 9.26948 21.6648C9.41242 21.5544 9.5757 21.4733 9.74998 21.4261C9.92427 21.3789 10.1062 21.3664 10.2852 21.3895C10.4643 21.4125 10.6371 21.4706 10.7938 21.5605L16.8713 25.1217C17.5931 25.5489 18.1918 26.1562 18.6087 26.884C19.0257 27.6118 19.2466 28.4354 19.25 29.2742V35.7504H12.375V34.2379C12.3739 33.7523 12.2704 33.2723 12.0714 32.8293C11.8724 32.3863 11.5823 31.9902 11.22 31.6667ZM19.9375 41.2504H11.6875V37.1254H19.9375V41.2504Z" fill="#6B4D3E"/>
<path d="M31.726 3.5284C31.0878 2.88905 30.3297 2.38184 29.4952 2.03579C28.6607 1.68974 27.7662 1.51165 26.8628 1.51172C25.9594 1.51178 25.0649 1.69 24.2305 2.03616C23.3961 2.38233 22.6381 2.88965 21.9999 3.52909C21.3619 2.88963 20.6039 2.38231 19.7695 2.03616C18.9351 1.69001 18.0406 1.51184 17.1373 1.51184C16.2339 1.51184 15.3394 1.69001 14.505 2.03616C13.6706 2.38231 12.9126 2.88963 12.2746 3.52909C10.9878 4.81862 10.2651 6.56594 10.2651 8.38765C10.2651 10.2094 10.9878 11.9567 12.2746 13.2462L21.5146 22.4862C21.6435 22.6151 21.8183 22.6875 22.0006 22.6875C22.1829 22.6875 22.3578 22.6151 22.4867 22.4862L31.7267 13.2462C33.0134 11.9565 33.736 10.209 33.7358 8.38717C33.7357 6.56534 33.0129 4.81796 31.726 3.5284ZM21.9999 21.028L13.246 12.2741C12.4775 11.5045 11.9544 10.5243 11.7428 9.45751C11.5312 8.39067 11.6407 7.28505 12.0574 6.28043C12.4741 5.27581 13.1793 4.41729 14.0839 3.81339C14.9884 3.20949 16.0517 2.88734 17.1393 2.88765C17.8618 2.88517 18.5775 3.02657 19.2448 3.3036C19.9121 3.58063 20.5175 3.98775 21.0258 4.50121L21.5139 4.98934C21.6428 5.11823 21.8176 5.19063 21.9999 5.19063C22.1822 5.19063 22.3571 5.11823 22.486 4.98934L22.9755 4.49984C23.4859 3.98851 24.0921 3.58285 24.7595 3.30607C25.4268 3.0293 26.1422 2.88683 26.8647 2.88683C27.5872 2.88683 28.3025 3.0293 28.9699 3.30607C29.6372 3.58285 30.2435 3.98851 30.7539 4.49984C31.7837 5.53107 32.3621 6.92888 32.3621 8.38628C32.3621 9.84367 31.7837 11.2415 30.7539 12.2727L21.9999 21.028Z" fill="#6B4D3E"/>
</svg>
