<svg width="275" height="76" viewBox="0 0 275 76" fill="none" xmlns="http://www.w3.org/2000/svg">
<path d="M25.0902 37.92C25.0902 39.16 24.7036 40.1267 23.9302 40.82C23.1569 41.5 22.0102 41.84 20.4902 41.84H17.4902V48H16.5902V33.96H20.4902C22.0369 33.96 23.1902 34.32 23.9502 35.04C24.7102 35.7467 25.0902 36.7067 25.0902 37.92ZM20.4902 41.04C22.9569 41.04 24.1902 40 24.1902 37.92C24.1902 36.8933 23.8969 36.1133 23.3102 35.58C22.7236 35.0333 21.7836 34.76 20.4902 34.76H17.4902V41.04H20.4902ZM32.4082 48.16C31.3949 48.16 30.4815 47.9333 29.6682 47.48C28.8549 47.0267 28.2149 46.38 27.7482 45.54C27.2949 44.6867 27.0682 43.6933 27.0682 42.56C27.0682 41.44 27.3015 40.46 27.7682 39.62C28.2349 38.7667 28.8749 38.12 29.6882 37.68C30.5149 37.2267 31.4349 37 32.4482 37C33.4615 37 34.3749 37.2267 35.1882 37.68C36.0015 38.12 36.6349 38.76 37.0882 39.6C37.5549 40.44 37.7882 41.4267 37.7882 42.56C37.7882 43.6933 37.5549 44.6867 37.0882 45.54C36.6215 46.38 35.9749 47.0267 35.1482 47.48C34.3349 47.9333 33.4215 48.16 32.4082 48.16ZM32.4082 47.36C33.1949 47.36 33.9282 47.1867 34.6082 46.84C35.3015 46.48 35.8549 45.94 36.2682 45.22C36.6815 44.5 36.8882 43.6133 36.8882 42.56C36.8882 41.52 36.6815 40.64 36.2682 39.92C35.8549 39.2 35.3082 38.6667 34.6282 38.32C33.9482 37.96 33.2149 37.78 32.4282 37.78C31.6415 37.78 30.9082 37.96 30.2282 38.32C29.5615 38.6667 29.0215 39.2 28.6082 39.92C28.1949 40.64 27.9882 41.52 27.9882 42.56C27.9882 43.6133 28.1882 44.5 28.5882 45.22C29.0015 45.94 29.5415 46.48 30.2082 46.84C30.8882 47.1867 31.6215 47.36 32.4082 47.36ZM54.8388 37.14L51.4188 48H50.5588L47.0988 38.38L43.6188 48H42.7588L39.3388 37.14H40.2788L43.1988 46.98L46.6788 37.14H47.5388L50.9988 46.94L53.9188 37.14H54.8388ZM66.7107 41.84C66.7107 42.32 66.6974 42.68 66.6707 42.92H57.2907C57.3174 43.8933 57.5307 44.7133 57.9307 45.38C58.3307 46.0467 58.8574 46.5467 59.5107 46.88C60.164 47.2133 60.8774 47.38 61.6507 47.38C62.7174 47.38 63.6107 47.12 64.3307 46.6C65.0507 46.0667 65.504 45.3467 65.6907 44.44H66.6307C66.4174 45.5467 65.8707 46.4467 64.9907 47.14C64.1107 47.82 62.9974 48.16 61.6507 48.16C60.6374 48.16 59.7307 47.9333 58.9307 47.48C58.1307 47.0267 57.504 46.38 57.0507 45.54C56.5974 44.6867 56.3707 43.6933 56.3707 42.56C56.3707 41.4267 56.5907 40.44 57.0307 39.6C57.484 38.76 58.1107 38.12 58.9107 37.68C59.7107 37.2267 60.624 37 61.6507 37C62.6907 37 63.5907 37.2267 64.3507 37.68C65.124 38.12 65.7107 38.7133 66.1107 39.46C66.5107 40.1933 66.7107 40.9867 66.7107 41.84ZM65.8107 42.18C65.8507 41.22 65.6774 40.4067 65.2907 39.74C64.9174 39.0733 64.404 38.58 63.7507 38.26C63.0974 37.9267 62.3907 37.76 61.6307 37.76C60.8707 37.76 60.164 37.9267 59.5107 38.26C58.8707 38.58 58.344 39.0733 57.9307 39.74C57.5307 40.4067 57.3174 41.22 57.2907 42.18H65.8107ZM70.4507 39.38C70.7174 38.58 71.1907 37.9733 71.8707 37.56C72.5507 37.1333 73.4174 36.92 74.4707 36.92V37.86H74.1707C73.104 37.86 72.2174 38.1667 71.5107 38.78C70.804 39.38 70.4507 40.3667 70.4507 41.74V48H69.5507V37.14H70.4507V39.38ZM86.4429 41.84C86.4429 42.32 86.4296 42.68 86.4029 42.92H77.0229C77.0496 43.8933 77.2629 44.7133 77.6629 45.38C78.0629 46.0467 78.5896 46.5467 79.2429 46.88C79.8962 47.2133 80.6096 47.38 81.3829 47.38C82.4496 47.38 83.3429 47.12 84.0629 46.6C84.7829 46.0667 85.2362 45.3467 85.4229 44.44H86.3629C86.1496 45.5467 85.6029 46.4467 84.7229 47.14C83.8429 47.82 82.7296 48.16 81.3829 48.16C80.3696 48.16 79.4629 47.9333 78.6629 47.48C77.8629 47.0267 77.2362 46.38 76.7829 45.54C76.3296 44.6867 76.1029 43.6933 76.1029 42.56C76.1029 41.4267 76.3229 40.44 76.7629 39.6C77.2162 38.76 77.8429 38.12 78.6429 37.68C79.4429 37.2267 80.3562 37 81.3829 37C82.4229 37 83.3229 37.2267 84.0829 37.68C84.8562 38.12 85.4429 38.7133 85.8429 39.46C86.2429 40.1933 86.4429 40.9867 86.4429 41.84ZM85.5429 42.18C85.5829 41.22 85.4096 40.4067 85.0229 39.74C84.6496 39.0733 84.1362 38.58 83.4829 38.26C82.8296 37.9267 82.1229 37.76 81.3629 37.76C80.6029 37.76 79.8962 37.9267 79.2429 38.26C78.6029 38.58 78.0762 39.0733 77.6629 39.74C77.2629 40.4067 77.0496 41.22 77.0229 42.18H85.5429ZM88.7229 42.56C88.7229 41.44 88.9429 40.46 89.3829 39.62C89.8362 38.78 90.4562 38.1333 91.2429 37.68C92.0429 37.2267 92.9496 37 93.9629 37C95.0696 37 96.0296 37.28 96.8429 37.84C97.6562 38.3867 98.2296 39.1 98.5629 39.98V33.2H99.4629V48H98.5629V45.12C98.2429 46.0133 97.6829 46.7467 96.8829 47.32C96.0829 47.88 95.1096 48.16 93.9629 48.16C92.9496 48.16 92.0429 47.9333 91.2429 47.48C90.4562 47.0133 89.8362 46.36 89.3829 45.52C88.9429 44.6667 88.7229 43.68 88.7229 42.56ZM98.5629 42.56C98.5629 41.6133 98.3629 40.78 97.9629 40.06C97.5762 39.3267 97.0429 38.7667 96.3629 38.38C95.6829 37.98 94.9229 37.78 94.0829 37.78C93.2029 37.78 92.4296 37.9733 91.7629 38.36C91.0962 38.7333 90.5762 39.28 90.2029 40C89.8296 40.72 89.6429 41.5733 89.6429 42.56C89.6429 43.5467 89.8296 44.4 90.2029 45.12C90.5762 45.84 91.0962 46.3933 91.7629 46.78C92.4429 47.1667 93.2162 47.36 94.0829 47.36C94.9229 47.36 95.6829 47.1667 96.3629 46.78C97.0562 46.38 97.5962 45.82 97.9829 45.1C98.3696 44.3667 98.5629 43.52 98.5629 42.56ZM109.524 40C109.858 39.12 110.424 38.4 111.224 37.84C112.024 37.28 112.991 37 114.124 37C115.138 37 116.038 37.2267 116.824 37.68C117.624 38.1333 118.244 38.78 118.684 39.62C119.138 40.46 119.364 41.44 119.364 42.56C119.364 43.68 119.138 44.6667 118.684 45.52C118.244 46.36 117.624 47.0133 116.824 47.48C116.038 47.9333 115.138 48.16 114.124 48.16C112.991 48.16 112.018 47.88 111.204 47.32C110.404 46.76 109.844 46.04 109.524 45.16V48H108.624V33.2H109.524V40ZM118.444 42.56C118.444 41.5733 118.258 40.72 117.884 40C117.511 39.28 116.984 38.7333 116.304 38.36C115.638 37.9733 114.864 37.78 113.984 37.78C113.144 37.78 112.384 37.98 111.704 38.38C111.024 38.7667 110.491 39.3267 110.104 40.06C109.718 40.78 109.524 41.6133 109.524 42.56C109.524 43.52 109.718 44.3667 110.104 45.1C110.491 45.82 111.024 46.38 111.704 46.78C112.384 47.1667 113.144 47.36 113.984 47.36C114.864 47.36 115.638 47.1667 116.304 46.78C116.984 46.3933 117.511 45.84 117.884 45.12C118.258 44.4 118.444 43.5467 118.444 42.56ZM130.681 37.14L124.361 53.1H123.441L125.461 48L120.901 37.14H121.881L125.961 47L129.761 37.14H130.681Z" fill="#20334F"/>
<path d="M153.266 50.9962C150.342 50.9962 147.419 50.9993 144.495 50.993C143.964 50.9915 143.429 50.975 142.902 50.9209C142.05 50.8338 141.276 50.5129 140.58 50.0226C139.461 49.2342 138.646 48.2143 138.247 46.8987C138.036 46.2005 137.958 45.4858 138.021 44.757C138.197 42.7385 139.144 41.1648 140.833 40.0367C141.763 39.4154 142.8 39.0796 143.926 39.031C144.092 39.0239 144.087 39.0239 144.085 38.849C144.07 37.7978 144.327 36.8171 144.868 35.9087C145.524 34.8096 146.415 33.9765 147.615 33.4822C148.351 33.1794 149.119 33.0186 149.911 33.0013C150.935 32.9794 151.898 33.2312 152.8 33.7042C152.961 33.789 153.08 33.7937 153.245 33.7042C153.796 33.4069 154.384 33.2014 155.004 33.0931C155.615 32.9872 156.226 32.9896 156.841 33.0657C157.697 33.1716 158.502 33.4226 159.221 33.8941C160.651 34.8316 161.557 36.1283 161.863 37.8087C161.928 38.1665 161.929 38.5352 161.952 38.9C161.958 38.9878 161.97 39.0294 162.074 39.0357C164.105 39.1557 165.712 40.0375 166.893 41.6771C167.473 42.482 167.87 43.37 167.962 44.3554C168.164 46.5065 167.572 48.3673 165.797 49.7441C165.043 50.3286 164.199 50.7459 163.245 50.9036C162.895 50.9616 162.537 50.9946 162.183 50.9954C159.211 51.0024 156.24 50.9993 153.268 50.9993C153.267 50.9993 153.267 50.9986 153.267 50.9977V50.997C153.267 50.9965 153.266 50.9962 153.266 50.9962V50.9962ZM152.877 50.5623V50.5623C152.877 50.5641 152.879 50.5655 152.881 50.5655C155.997 50.5655 159.114 50.5663 162.23 50.5647C162.68 50.5647 163.129 50.5208 163.56 50.3905C165.909 49.6806 167.402 47.9531 167.561 45.4513C167.638 44.2479 167.343 43.1355 166.669 42.129C165.549 40.4549 163.98 39.5566 161.946 39.468C161.653 39.4554 161.51 39.3142 161.513 39.0247C161.518 38.5791 161.485 38.1374 161.395 37.7005C161.211 36.8101 160.803 36.0303 160.213 35.3383C159 33.9145 157.419 33.3669 155.584 33.4634C154.803 33.5042 154.066 33.7513 153.382 34.1302C153.133 34.2683 152.91 34.2652 152.662 34.1302C151.98 33.7576 151.249 33.5246 150.473 33.461C149.606 33.3904 148.761 33.5222 147.948 33.8266C146.693 34.2965 145.787 35.1548 145.153 36.3111C144.832 36.8956 144.619 37.5138 144.566 38.179C144.543 38.4654 144.549 38.7533 144.541 39.0404C144.535 39.2914 144.438 39.4091 144.191 39.4515C144.126 39.4625 144.06 39.4601 143.995 39.4687C143.668 39.5087 143.335 39.5244 143.016 39.5958C141.529 39.9316 140.33 40.7106 139.47 41.9619C138.495 43.381 138.205 44.9367 138.626 46.6061C138.928 47.8025 139.637 48.7392 140.601 49.4962C141.25 50.0061 141.985 50.3309 142.803 50.4745C143.372 50.5741 143.945 50.5576 144.515 50.56C147.302 50.5694 150.088 50.5647 152.875 50.5647C152.876 50.5647 152.877 50.5636 152.877 50.5623V50.5623Z" fill="#20334F"/>
<path d="M152.571 47.8403C152.571 47.8403 152.571 47.8404 152.571 47.8405C152.481 47.8608 152.429 47.8819 152.377 47.8819C149.908 47.8834 147.438 47.885 144.968 47.8795C144.511 47.8787 144.052 47.9117 143.6 47.8113C142.433 47.5516 141.44 46.5114 141.254 45.3495C141.004 43.7891 142.044 42.3206 143.61 42.0295C143.773 41.9989 143.943 41.995 144.11 41.9942C145.043 41.9919 145.976 41.9942 146.91 41.9942C147.155 41.9942 147.156 41.9926 147.156 41.744C147.156 40.903 147.157 40.062 147.153 39.221C147.15 38.6224 147.3 38.0686 147.618 37.5586C148.464 36.1975 150.25 35.7221 151.633 36.4964C152.157 36.7898 152.55 37.2119 152.815 37.7461C152.873 37.863 152.91 38.0035 152.911 38.1337C152.918 39.3842 152.915 40.6347 152.915 41.8852V41.8852C152.915 41.947 152.864 41.9969 152.802 42.0033C152.748 42.009 152.696 42.0146 152.644 42.0232C152.507 42.0468 152.424 42.1276 152.407 42.2664C152.4 42.3221 152.392 42.3786 152.392 42.4351C152.392 42.967 152.392 43.4981 152.392 44.03C152.392 44.2575 152.343 44.2983 152.11 44.2967C151.591 44.2928 151.072 44.292 150.553 44.2959C150.249 44.2983 150.164 44.3877 150.162 44.6913C150.16 44.9133 150.16 45.1361 150.162 45.3581C150.165 45.6005 150.246 45.6798 150.488 45.6806C151.043 45.6821 151.597 45.6806 152.151 45.6814C152.361 45.6814 152.389 45.708 152.389 45.9128C152.389 46.3835 152.39 46.8542 152.389 47.3241C152.389 47.5014 152.395 47.674 152.571 47.8403C152.571 47.8403 152.571 47.8403 152.571 47.8403V47.8403Z" fill="#20334F"/>
<path d="M153.46 47.8169C153.46 47.8169 153.46 47.8166 153.46 47.8165C153.657 47.6855 153.648 47.4919 153.647 47.2983C153.645 46.8449 153.644 46.3922 153.645 45.9388C153.645 45.7137 153.678 45.6807 153.903 45.6807C154.432 45.6807 154.96 45.6838 155.488 45.6815C155.801 45.6799 155.886 45.5928 155.888 45.283C155.889 45.0915 155.889 44.8993 155.888 44.7079C155.886 44.4012 155.778 44.2898 155.465 44.2898C154.95 44.2898 154.436 44.2992 153.921 44.3047C153.68 44.307 153.646 44.2733 153.647 44.0348C153.647 43.5163 153.649 42.9977 153.649 42.4792C153.649 42.1018 153.574 42.0257 153.188 42.0038V42.0038C153.134 42.0004 153.095 41.9516 153.095 41.8977C153.095 41.8773 153.095 41.857 153.095 41.8367C153.093 40.6866 153.092 39.5357 153.09 38.3857C153.09 38.0483 153.194 37.7447 153.376 37.4631C154.345 35.9694 156.306 35.7121 157.682 36.7625C158.471 37.3642 158.855 38.1801 158.862 39.1639C158.868 40.0268 158.862 40.8898 158.86 41.7519C158.86 41.9732 158.885 41.9983 159.111 41.9975C160.027 41.9959 160.943 42.0006 161.859 41.9904C163.381 41.9724 164.671 43.1342 164.784 44.6373C164.901 46.182 163.777 47.5972 162.241 47.8334C162.05 47.8624 161.855 47.8789 161.663 47.8797C159.267 47.8828 156.873 47.882 154.478 47.8828C154.209 47.8828 153.94 47.8852 153.672 47.8812C153.612 47.8805 153.552 47.8631 153.491 47.8512C153.482 47.8493 153.473 47.8431 153.469 47.8342L153.46 47.817C153.46 47.8169 153.46 47.8169 153.46 47.8169V47.8169Z" fill="#20334F"/>
<path d="M185.537 49H184.137L176.397 37.24V49H174.997V35.02H176.397L184.137 46.76V35.02H185.537V49ZM193.608 49.16C192.581 49.16 191.655 48.9333 190.828 48.48C190.015 48.0133 189.368 47.36 188.888 46.52C188.421 45.6667 188.188 44.6733 188.188 43.54C188.188 42.4067 188.428 41.42 188.908 40.58C189.388 39.7267 190.041 39.0733 190.868 38.62C191.695 38.1533 192.621 37.92 193.648 37.92C194.675 37.92 195.601 38.1533 196.428 38.62C197.268 39.0733 197.921 39.7267 198.388 40.58C198.868 41.42 199.108 42.4067 199.108 43.54C199.108 44.66 198.868 45.6467 198.388 46.5C197.908 47.3533 197.248 48.0133 196.408 48.48C195.568 48.9333 194.635 49.16 193.608 49.16ZM193.608 47.94C194.328 47.94 194.995 47.78 195.608 47.46C196.221 47.1267 196.715 46.6333 197.088 45.98C197.475 45.3133 197.668 44.5 197.668 43.54C197.668 42.58 197.481 41.7733 197.108 41.12C196.735 40.4533 196.241 39.96 195.628 39.64C195.015 39.3067 194.348 39.14 193.628 39.14C192.908 39.14 192.241 39.3067 191.628 39.64C191.015 39.96 190.521 40.4533 190.148 41.12C189.788 41.7733 189.608 42.58 189.608 43.54C189.608 44.5 189.788 45.3133 190.148 45.98C190.521 46.6333 191.008 47.1267 191.608 47.46C192.221 47.78 192.888 47.94 193.608 47.94ZM205.66 47.64L209.34 38.08H210.82L206.44 49H204.86L200.48 38.08H201.98L205.66 47.64ZM217.617 49.16C216.591 49.16 215.664 48.9333 214.837 48.48C214.024 48.0133 213.377 47.36 212.897 46.52C212.431 45.6667 212.197 44.6733 212.197 43.54C212.197 42.4067 212.437 41.42 212.917 40.58C213.397 39.7267 214.051 39.0733 214.877 38.62C215.704 38.1533 216.631 37.92 217.657 37.92C218.684 37.92 219.611 38.1533 220.437 38.62C221.277 39.0733 221.931 39.7267 222.397 40.58C222.877 41.42 223.117 42.4067 223.117 43.54C223.117 44.66 222.877 45.6467 222.397 46.5C221.917 47.3533 221.257 48.0133 220.417 48.48C219.577 48.9333 218.644 49.16 217.617 49.16ZM217.617 47.94C218.337 47.94 219.004 47.78 219.617 47.46C220.231 47.1267 220.724 46.6333 221.097 45.98C221.484 45.3133 221.677 44.5 221.677 43.54C221.677 42.58 221.491 41.7733 221.117 41.12C220.744 40.4533 220.251 39.96 219.637 39.64C219.024 39.3067 218.357 39.14 217.637 39.14C216.917 39.14 216.251 39.3067 215.637 39.64C215.024 39.96 214.531 40.4533 214.157 41.12C213.797 41.7733 213.617 42.58 213.617 43.54C213.617 44.5 213.797 45.3133 214.157 45.98C214.531 46.6333 215.017 47.1267 215.617 47.46C216.231 47.78 216.897 47.94 217.617 47.94ZM225.149 43.54C225.149 42.4067 225.376 41.42 225.829 40.58C226.283 39.7267 226.909 39.0733 227.709 38.62C228.509 38.1533 229.423 37.92 230.449 37.92C231.796 37.92 232.903 38.2533 233.769 38.92C234.649 39.5867 235.216 40.4933 235.469 41.64H233.969C233.783 40.8533 233.376 40.24 232.749 39.8C232.136 39.3467 231.369 39.12 230.449 39.12C229.716 39.12 229.056 39.2867 228.469 39.62C227.883 39.9533 227.416 40.4533 227.069 41.12C226.736 41.7733 226.569 42.58 226.569 43.54C226.569 44.5 226.736 45.3133 227.069 45.98C227.416 46.6467 227.883 47.1467 228.469 47.48C229.056 47.8133 229.716 47.98 230.449 47.98C231.369 47.98 232.136 47.76 232.749 47.32C233.376 46.8667 233.783 46.24 233.969 45.44H235.469C235.216 46.56 234.649 47.46 233.769 48.14C232.889 48.82 231.783 49.16 230.449 49.16C229.423 49.16 228.509 48.9333 227.709 48.48C226.909 48.0133 226.283 47.36 225.829 46.52C225.376 45.6667 225.149 44.6733 225.149 43.54ZM247.635 38.08V49H246.235V47.08C245.915 47.76 245.422 48.28 244.755 48.64C244.088 49 243.342 49.18 242.515 49.18C241.208 49.18 240.142 48.78 239.315 47.98C238.488 47.1667 238.075 45.9933 238.075 44.46V38.08H239.455V44.3C239.455 45.4867 239.748 46.3933 240.335 47.02C240.935 47.6467 241.748 47.96 242.775 47.96C243.828 47.96 244.668 47.6267 245.295 46.96C245.922 46.2933 246.235 45.3133 246.235 44.02V38.08H247.635ZM252.351 40.02C252.658 39.34 253.125 38.8133 253.751 38.44C254.391 38.0667 255.171 37.88 256.091 37.88V39.34H255.711C254.698 39.34 253.885 39.6133 253.271 40.16C252.658 40.7067 252.351 41.62 252.351 42.9V49H250.951V38.08H252.351V40.02ZM259.017 36.02C258.737 36.02 258.497 35.92 258.297 35.72C258.097 35.52 257.997 35.2733 257.997 34.98C257.997 34.6867 258.097 34.4467 258.297 34.26C258.497 34.06 258.737 33.96 259.017 33.96C259.297 33.96 259.537 34.06 259.737 34.26C259.937 34.4467 260.037 34.6867 260.037 34.98C260.037 35.2733 259.937 35.52 259.737 35.72C259.537 35.92 259.297 36.02 259.017 36.02ZM259.717 38.08V49H258.317V38.08H259.717ZM266.768 49.16C265.514 49.16 264.488 48.8733 263.688 48.3C262.901 47.7133 262.461 46.92 262.368 45.92H263.808C263.874 46.5333 264.161 47.0333 264.668 47.42C265.188 47.7933 265.881 47.98 266.748 47.98C267.508 47.98 268.101 47.8 268.528 47.44C268.968 47.08 269.188 46.6333 269.188 46.1C269.188 45.7267 269.068 45.42 268.828 45.18C268.588 44.94 268.281 44.7533 267.908 44.62C267.548 44.4733 267.054 44.32 266.428 44.16C265.614 43.9467 264.954 43.7333 264.448 43.52C263.941 43.3067 263.508 42.9933 263.148 42.58C262.801 42.1533 262.628 41.5867 262.628 40.88C262.628 40.3467 262.788 39.8533 263.108 39.4C263.428 38.9467 263.881 38.5867 264.468 38.32C265.054 38.0533 265.721 37.92 266.468 37.92C267.641 37.92 268.588 38.22 269.308 38.82C270.028 39.4067 270.414 40.22 270.468 41.26H269.068C269.028 40.62 268.774 40.1067 268.308 39.72C267.854 39.32 267.228 39.12 266.428 39.12C265.721 39.12 265.148 39.2867 264.708 39.62C264.268 39.9533 264.048 40.3667 264.048 40.86C264.048 41.2867 264.174 41.64 264.428 41.92C264.694 42.1867 265.021 42.4 265.408 42.56C265.794 42.7067 266.314 42.8733 266.968 43.06C267.754 43.2733 268.381 43.48 268.848 43.68C269.314 43.88 269.714 44.1733 270.048 44.56C270.381 44.9467 270.554 45.46 270.568 46.1C270.568 46.6867 270.408 47.2133 270.088 47.68C269.768 48.1333 269.321 48.4933 268.748 48.76C268.174 49.0267 267.514 49.16 266.768 49.16Z" fill="#20334F"/>
</svg>
