<svg width="275" height="76" viewBox="0 0 275 76" fill="none" xmlns="http://www.w3.org/2000/svg">
<path d="M25.0898 37.9192C25.0898 39.1592 24.7032 40.1259 23.9298 40.8192C23.1565 41.4992 22.0098 41.8392 20.4898 41.8392H17.4898V47.9992H16.5898V33.9592H20.4898C22.0365 33.9592 23.1898 34.3192 23.9498 35.0392C24.7098 35.7459 25.0898 36.7059 25.0898 37.9192ZM20.4898 41.0392C22.9565 41.0392 24.1898 39.9992 24.1898 37.9192C24.1898 36.8925 23.8965 36.1125 23.3098 35.5792C22.7232 35.0325 21.7832 34.7592 20.4898 34.7592H17.4898V41.0392H20.4898ZM32.4078 48.1592C31.3945 48.1592 30.4811 47.9325 29.6678 47.4792C28.8545 47.0259 28.2145 46.3792 27.7478 45.5392C27.2945 44.6859 27.0678 43.6925 27.0678 42.5592C27.0678 41.4392 27.3011 40.4592 27.7678 39.6192C28.2345 38.7659 28.8745 38.1192 29.6878 37.6792C30.5145 37.2259 31.4345 36.9992 32.4478 36.9992C33.4611 36.9992 34.3745 37.2259 35.1878 37.6792C36.0011 38.1192 36.6345 38.7592 37.0878 39.5992C37.5545 40.4392 37.7878 41.4259 37.7878 42.5592C37.7878 43.6925 37.5545 44.6859 37.0878 45.5392C36.6211 46.3792 35.9745 47.0259 35.1478 47.4792C34.3345 47.9325 33.4211 48.1592 32.4078 48.1592ZM32.4078 47.3592C33.1945 47.3592 33.9278 47.1859 34.6078 46.8392C35.3011 46.4792 35.8545 45.9392 36.2678 45.2192C36.6811 44.4992 36.8878 43.6125 36.8878 42.5592C36.8878 41.5192 36.6811 40.6392 36.2678 39.9192C35.8545 39.1992 35.3078 38.6659 34.6278 38.3192C33.9478 37.9592 33.2145 37.7792 32.4278 37.7792C31.6411 37.7792 30.9078 37.9592 30.2278 38.3192C29.5611 38.6659 29.0211 39.1992 28.6078 39.9192C28.1945 40.6392 27.9878 41.5192 27.9878 42.5592C27.9878 43.6125 28.1878 44.4992 28.5878 45.2192C29.0011 45.9392 29.5411 46.4792 30.2078 46.8392C30.8878 47.1859 31.6211 47.3592 32.4078 47.3592ZM54.8384 37.1392L51.4184 47.9992H50.5584L47.0984 38.3792L43.6184 47.9992H42.7584L39.3384 37.1392H40.2784L43.1984 46.9792L46.6784 37.1392H47.5384L50.9984 46.9392L53.9184 37.1392H54.8384ZM66.7103 41.8392C66.7103 42.3192 66.697 42.6792 66.6703 42.9192H57.2903C57.317 43.8925 57.5303 44.7125 57.9303 45.3792C58.3303 46.0459 58.857 46.5459 59.5103 46.8792C60.1636 47.2125 60.877 47.3792 61.6503 47.3792C62.717 47.3792 63.6103 47.1192 64.3303 46.5992C65.0503 46.0659 65.5036 45.3459 65.6903 44.4392H66.6303C66.417 45.5459 65.8703 46.4459 64.9903 47.1392C64.1103 47.8192 62.997 48.1592 61.6503 48.1592C60.637 48.1592 59.7303 47.9325 58.9303 47.4792C58.1303 47.0259 57.5036 46.3792 57.0503 45.5392C56.597 44.6859 56.3703 43.6925 56.3703 42.5592C56.3703 41.4259 56.5903 40.4392 57.0303 39.5992C57.4836 38.7592 58.1103 38.1192 58.9103 37.6792C59.7103 37.2259 60.6236 36.9992 61.6503 36.9992C62.6903 36.9992 63.5903 37.2259 64.3503 37.6792C65.1236 38.1192 65.7103 38.7125 66.1103 39.4592C66.5103 40.1925 66.7103 40.9859 66.7103 41.8392ZM65.8103 42.1792C65.8503 41.2192 65.677 40.4059 65.2903 39.7392C64.917 39.0725 64.4036 38.5792 63.7503 38.2592C63.097 37.9259 62.3903 37.7592 61.6303 37.7592C60.8703 37.7592 60.1636 37.9259 59.5103 38.2592C58.8703 38.5792 58.3436 39.0725 57.9303 39.7392C57.5303 40.4059 57.317 41.2192 57.2903 42.1792H65.8103ZM70.4503 39.3792C70.717 38.5792 71.1903 37.9725 71.8703 37.5592C72.5503 37.1325 73.417 36.9192 74.4703 36.9192V37.8592H74.1703C73.1036 37.8592 72.217 38.1659 71.5103 38.7792C70.8036 39.3792 70.4503 40.3659 70.4503 41.7392V47.9992H69.5503V37.1392H70.4503V39.3792ZM86.4425 41.8392C86.4425 42.3192 86.4292 42.6792 86.4025 42.9192H77.0225C77.0492 43.8925 77.2625 44.7125 77.6625 45.3792C78.0625 46.0459 78.5892 46.5459 79.2425 46.8792C79.8958 47.2125 80.6092 47.3792 81.3825 47.3792C82.4492 47.3792 83.3425 47.1192 84.0625 46.5992C84.7825 46.0659 85.2358 45.3459 85.4225 44.4392H86.3625C86.1492 45.5459 85.6025 46.4459 84.7225 47.1392C83.8425 47.8192 82.7292 48.1592 81.3825 48.1592C80.3692 48.1592 79.4625 47.9325 78.6625 47.4792C77.8625 47.0259 77.2358 46.3792 76.7825 45.5392C76.3292 44.6859 76.1025 43.6925 76.1025 42.5592C76.1025 41.4259 76.3225 40.4392 76.7625 39.5992C77.2158 38.7592 77.8425 38.1192 78.6425 37.6792C79.4425 37.2259 80.3558 36.9992 81.3825 36.9992C82.4225 36.9992 83.3225 37.2259 84.0825 37.6792C84.8558 38.1192 85.4425 38.7125 85.8425 39.4592C86.2425 40.1925 86.4425 40.9859 86.4425 41.8392ZM85.5425 42.1792C85.5825 41.2192 85.4092 40.4059 85.0225 39.7392C84.6492 39.0725 84.1358 38.5792 83.4825 38.2592C82.8292 37.9259 82.1225 37.7592 81.3625 37.7592C80.6025 37.7592 79.8958 37.9259 79.2425 38.2592C78.6025 38.5792 78.0758 39.0725 77.6625 39.7392C77.2625 40.4059 77.0492 41.2192 77.0225 42.1792H85.5425ZM88.7225 42.5592C88.7225 41.4392 88.9425 40.4592 89.3825 39.6192C89.8358 38.7792 90.4558 38.1325 91.2425 37.6792C92.0425 37.2259 92.9492 36.9992 93.9625 36.9992C95.0692 36.9992 96.0292 37.2792 96.8425 37.8392C97.6558 38.3859 98.2292 39.0992 98.5625 39.9792V33.1992H99.4625V47.9992H98.5625V45.1192C98.2425 46.0125 97.6825 46.7459 96.8825 47.3192C96.0825 47.8792 95.1092 48.1592 93.9625 48.1592C92.9492 48.1592 92.0425 47.9325 91.2425 47.4792C90.4558 47.0125 89.8358 46.3592 89.3825 45.5192C88.9425 44.6659 88.7225 43.6792 88.7225 42.5592ZM98.5625 42.5592C98.5625 41.6125 98.3625 40.7792 97.9625 40.0592C97.5758 39.3259 97.0425 38.7659 96.3625 38.3792C95.6825 37.9792 94.9225 37.7792 94.0825 37.7792C93.2025 37.7792 92.4292 37.9725 91.7625 38.3592C91.0958 38.7325 90.5758 39.2792 90.2025 39.9992C89.8292 40.7192 89.6425 41.5725 89.6425 42.5592C89.6425 43.5459 89.8292 44.3992 90.2025 45.1192C90.5758 45.8392 91.0958 46.3925 91.7625 46.7792C92.4425 47.1659 93.2158 47.3592 94.0825 47.3592C94.9225 47.3592 95.6825 47.1659 96.3625 46.7792C97.0558 46.3792 97.5958 45.8192 97.9825 45.0992C98.3692 44.3659 98.5625 43.5192 98.5625 42.5592ZM109.524 39.9992C109.858 39.1192 110.424 38.3992 111.224 37.8392C112.024 37.2792 112.991 36.9992 114.124 36.9992C115.138 36.9992 116.038 37.2259 116.824 37.6792C117.624 38.1325 118.244 38.7792 118.684 39.6192C119.138 40.4592 119.364 41.4392 119.364 42.5592C119.364 43.6792 119.138 44.6659 118.684 45.5192C118.244 46.3592 117.624 47.0125 116.824 47.4792C116.038 47.9325 115.138 48.1592 114.124 48.1592C112.991 48.1592 112.018 47.8792 111.204 47.3192C110.404 46.7592 109.844 46.0392 109.524 45.1592V47.9992H108.624V33.1992H109.524V39.9992ZM118.444 42.5592C118.444 41.5725 118.258 40.7192 117.884 39.9992C117.511 39.2792 116.984 38.7325 116.304 38.3592C115.638 37.9725 114.864 37.7792 113.984 37.7792C113.144 37.7792 112.384 37.9792 111.704 38.3792C111.024 38.7659 110.491 39.3259 110.104 40.0592C109.718 40.7792 109.524 41.6125 109.524 42.5592C109.524 43.5192 109.718 44.3659 110.104 45.0992C110.491 45.8192 111.024 46.3792 111.704 46.7792C112.384 47.1659 113.144 47.3592 113.984 47.3592C114.864 47.3592 115.638 47.1659 116.304 46.7792C116.984 46.3925 117.511 45.8392 117.884 45.1192C118.258 44.3992 118.444 43.5459 118.444 42.5592ZM130.681 37.1392L124.361 53.0992H123.441L125.461 47.9992L120.901 37.1392H121.881L125.961 46.9992L129.761 37.1392H130.681Z" fill="#C8DCF9"/>
<path d="M153.266 50.9962C150.342 50.9962 147.419 50.9993 144.495 50.993C143.964 50.9915 143.429 50.975 142.902 50.9209C142.05 50.8338 141.276 50.5129 140.58 50.0226C139.461 49.2342 138.646 48.2143 138.247 46.8987C138.036 46.2005 137.958 45.4858 138.021 44.757C138.197 42.7385 139.144 41.1648 140.833 40.0367C141.763 39.4154 142.8 39.0796 143.926 39.031C144.092 39.0239 144.087 39.0239 144.085 38.849C144.07 37.7978 144.327 36.8171 144.868 35.9087C145.524 34.8096 146.415 33.9765 147.615 33.4822C148.351 33.1794 149.119 33.0186 149.911 33.0013C150.935 32.9794 151.898 33.2312 152.8 33.7042C152.961 33.789 153.08 33.7937 153.245 33.7042C153.796 33.4069 154.384 33.2014 155.004 33.0931C155.615 32.9872 156.226 32.9896 156.841 33.0657C157.697 33.1716 158.502 33.4226 159.221 33.8941C160.651 34.8316 161.557 36.1283 161.863 37.8087C161.928 38.1665 161.929 38.5352 161.952 38.9C161.958 38.9878 161.97 39.0294 162.074 39.0357C164.105 39.1557 165.712 40.0375 166.893 41.6771C167.473 42.482 167.87 43.37 167.962 44.3554C168.164 46.5065 167.572 48.3673 165.797 49.7441C165.043 50.3286 164.199 50.7459 163.245 50.9036C162.895 50.9616 162.537 50.9946 162.183 50.9954C159.211 51.0024 156.24 50.9993 153.268 50.9993C153.267 50.9993 153.267 50.9986 153.267 50.9977C153.267 50.9972 153.266 50.9962 153.266 50.9962ZM152.877 50.5623C152.877 50.5641 152.879 50.5655 152.881 50.5655C155.997 50.5655 159.114 50.5663 162.23 50.5647C162.68 50.5647 163.129 50.5208 163.56 50.3905C165.909 49.6806 167.402 47.9531 167.561 45.4513C167.638 44.2479 167.343 43.1355 166.669 42.129C165.549 40.4549 163.98 39.5566 161.946 39.468C161.653 39.4554 161.51 39.3142 161.513 39.0247C161.518 38.5791 161.485 38.1374 161.395 37.7005C161.211 36.8101 160.803 36.0303 160.213 35.3383C159 33.9145 157.419 33.3669 155.584 33.4634C154.803 33.5042 154.066 33.7513 153.382 34.1302C153.133 34.2683 152.91 34.2652 152.662 34.1302C151.98 33.7576 151.249 33.5246 150.473 33.461C149.606 33.3904 148.761 33.5222 147.948 33.8266C146.693 34.2965 145.787 35.1548 145.153 36.3111C144.832 36.8956 144.619 37.5138 144.566 38.179C144.543 38.4654 144.549 38.7533 144.541 39.0404C144.535 39.2914 144.438 39.4091 144.191 39.4515C144.126 39.4625 144.06 39.4601 143.995 39.4687C143.668 39.5087 143.335 39.5244 143.016 39.5958C141.529 39.9316 140.33 40.7106 139.47 41.9619C138.495 43.381 138.205 44.9367 138.626 46.6061C138.928 47.8025 139.637 48.7392 140.601 49.4962C141.25 50.0061 141.985 50.3309 142.803 50.4745C143.372 50.5741 143.945 50.5576 144.515 50.56C147.302 50.5694 150.088 50.5647 152.875 50.5647C152.876 50.5647 152.877 50.5636 152.877 50.5623Z" fill="#C8DCF9"/>
<path d="M152.573 47.8403C152.483 47.8606 152.431 47.8819 152.379 47.8819C149.91 47.8834 147.44 47.885 144.97 47.8795C144.513 47.8787 144.054 47.9117 143.602 47.8113C142.435 47.5516 141.442 46.5114 141.256 45.3495C141.006 43.7891 142.046 42.3206 143.612 42.0295C143.775 41.9989 143.945 41.995 144.112 41.9942C145.045 41.9919 145.978 41.9942 146.912 41.9942C147.157 41.9942 147.158 41.9926 147.158 41.744C147.158 40.903 147.159 40.062 147.155 39.221C147.152 38.6224 147.302 38.0686 147.62 37.5586C148.466 36.1975 150.252 35.7221 151.635 36.4964C152.159 36.7898 152.552 37.2119 152.817 37.7461C152.875 37.863 152.912 38.0035 152.913 38.1337C152.92 39.3842 152.917 40.6347 152.917 41.8852C152.917 41.947 152.866 41.9969 152.804 42.0033C152.75 42.009 152.698 42.0146 152.646 42.0232C152.509 42.0468 152.426 42.1276 152.409 42.2664C152.402 42.3221 152.394 42.3786 152.394 42.4351C152.394 42.967 152.394 43.4981 152.394 44.03C152.394 44.2575 152.345 44.2983 152.112 44.2967C151.593 44.2928 151.074 44.292 150.555 44.2959C150.251 44.2983 150.166 44.3877 150.164 44.6913C150.162 44.9133 150.162 45.1361 150.164 45.3581C150.167 45.6005 150.248 45.6798 150.49 45.6806C151.045 45.6821 151.599 45.6806 152.153 45.6814C152.363 45.6814 152.391 45.708 152.391 45.9128C152.391 46.3835 152.392 46.8542 152.391 47.3241C152.391 47.5014 152.397 47.674 152.573 47.8403Z" fill="#C8DCF9"/>
<path d="M153.46 47.8169C153.657 47.6859 153.648 47.4919 153.647 47.2983C153.645 46.8449 153.644 46.3922 153.645 45.9388C153.645 45.7137 153.678 45.6807 153.903 45.6807C154.432 45.6807 154.96 45.6838 155.488 45.6815C155.801 45.6799 155.886 45.5928 155.888 45.283C155.889 45.0915 155.889 44.8993 155.888 44.7079C155.886 44.4012 155.778 44.2898 155.465 44.2898C154.95 44.2898 154.436 44.2992 153.921 44.3047C153.68 44.307 153.646 44.2733 153.647 44.0348C153.647 43.5163 153.649 42.9977 153.649 42.4792C153.649 42.1018 153.574 42.0257 153.188 42.0038C153.134 42.0004 153.095 41.9516 153.095 41.8977C153.095 41.8773 153.095 41.857 153.095 41.8367C153.093 40.6866 153.092 39.5357 153.09 38.3857C153.09 38.0483 153.194 37.7447 153.376 37.4631C154.345 35.9694 156.306 35.7121 157.682 36.7625C158.471 37.3642 158.855 38.1801 158.862 39.1639C158.868 40.0268 158.862 40.8898 158.86 41.7519C158.86 41.9732 158.885 41.9983 159.111 41.9975C160.027 41.9959 160.943 42.0006 161.859 41.9904C163.381 41.9724 164.671 43.1342 164.784 44.6373C164.901 46.182 163.777 47.5972 162.241 47.8334C162.05 47.8624 161.855 47.8789 161.663 47.8797C159.267 47.8828 156.873 47.882 154.478 47.8828C154.209 47.8828 153.94 47.8852 153.672 47.8812C153.612 47.8805 153.552 47.8631 153.491 47.8512C153.482 47.8493 153.473 47.8431 153.469 47.8342L153.46 47.8169Z" fill="#C8DCF9"/>
<path d="M185.536 49.0009H184.136L176.396 37.2409V49.0009H174.996V35.0209H176.396L184.136 46.7609V35.0209H185.536V49.0009ZM193.607 49.1609C192.58 49.1609 191.654 48.9342 190.827 48.4809C190.014 48.0142 189.367 47.3609 188.887 46.5209C188.42 45.6676 188.187 44.6742 188.187 43.5409C188.187 42.4076 188.427 41.4209 188.907 40.5809C189.387 39.7276 190.04 39.0742 190.867 38.6209C191.694 38.1542 192.62 37.9209 193.647 37.9209C194.674 37.9209 195.6 38.1542 196.427 38.6209C197.267 39.0742 197.92 39.7276 198.387 40.5809C198.867 41.4209 199.107 42.4076 199.107 43.5409C199.107 44.6609 198.867 45.6476 198.387 46.5009C197.907 47.3542 197.247 48.0142 196.407 48.4809C195.567 48.9342 194.634 49.1609 193.607 49.1609ZM193.607 47.9409C194.327 47.9409 194.994 47.7809 195.607 47.4609C196.22 47.1276 196.714 46.6342 197.087 45.9809C197.474 45.3142 197.667 44.5009 197.667 43.5409C197.667 42.5809 197.48 41.7742 197.107 41.1209C196.734 40.4542 196.24 39.9609 195.627 39.6409C195.014 39.3076 194.347 39.1409 193.627 39.1409C192.907 39.1409 192.24 39.3076 191.627 39.6409C191.014 39.9609 190.52 40.4542 190.147 41.1209C189.787 41.7742 189.607 42.5809 189.607 43.5409C189.607 44.5009 189.787 45.3142 190.147 45.9809C190.52 46.6342 191.007 47.1276 191.607 47.4609C192.22 47.7809 192.887 47.9409 193.607 47.9409ZM205.659 47.6409L209.339 38.0809H210.819L206.439 49.0009H204.859L200.479 38.0809H201.979L205.659 47.6409ZM217.616 49.1609C216.59 49.1609 215.663 48.9342 214.836 48.4809C214.023 48.0142 213.376 47.3609 212.896 46.5209C212.43 45.6676 212.196 44.6742 212.196 43.5409C212.196 42.4076 212.436 41.4209 212.916 40.5809C213.396 39.7276 214.05 39.0742 214.876 38.6209C215.703 38.1542 216.63 37.9209 217.656 37.9209C218.683 37.9209 219.61 38.1542 220.436 38.6209C221.276 39.0742 221.93 39.7276 222.396 40.5809C222.876 41.4209 223.116 42.4076 223.116 43.5409C223.116 44.6609 222.876 45.6476 222.396 46.5009C221.916 47.3542 221.256 48.0142 220.416 48.4809C219.576 48.9342 218.643 49.1609 217.616 49.1609ZM217.616 47.9409C218.336 47.9409 219.003 47.7809 219.616 47.4609C220.23 47.1276 220.723 46.6342 221.096 45.9809C221.483 45.3142 221.676 44.5009 221.676 43.5409C221.676 42.5809 221.49 41.7742 221.116 41.1209C220.743 40.4542 220.25 39.9609 219.636 39.6409C219.023 39.3076 218.356 39.1409 217.636 39.1409C216.916 39.1409 216.25 39.3076 215.636 39.6409C215.023 39.9609 214.53 40.4542 214.156 41.1209C213.796 41.7742 213.616 42.5809 213.616 43.5409C213.616 44.5009 213.796 45.3142 214.156 45.9809C214.53 46.6342 215.016 47.1276 215.616 47.4609C216.23 47.7809 216.896 47.9409 217.616 47.9409ZM225.148 43.5409C225.148 42.4076 225.375 41.4209 225.828 40.5809C226.282 39.7276 226.908 39.0742 227.708 38.6209C228.508 38.1542 229.422 37.9209 230.448 37.9209C231.795 37.9209 232.902 38.2542 233.768 38.9209C234.648 39.5876 235.215 40.4942 235.468 41.6409H233.968C233.782 40.8542 233.375 40.2409 232.748 39.8009C232.135 39.3476 231.368 39.1209 230.448 39.1209C229.715 39.1209 229.055 39.2876 228.468 39.6209C227.882 39.9542 227.415 40.4542 227.068 41.1209C226.735 41.7742 226.568 42.5809 226.568 43.5409C226.568 44.5009 226.735 45.3142 227.068 45.9809C227.415 46.6476 227.882 47.1476 228.468 47.4809C229.055 47.8142 229.715 47.9809 230.448 47.9809C231.368 47.9809 232.135 47.7609 232.748 47.3209C233.375 46.8676 233.782 46.2409 233.968 45.4409H235.468C235.215 46.5609 234.648 47.4609 233.768 48.1409C232.888 48.8209 231.782 49.1609 230.448 49.1609C229.422 49.1609 228.508 48.9342 227.708 48.4809C226.908 48.0142 226.282 47.3609 225.828 46.5209C225.375 45.6676 225.148 44.6742 225.148 43.5409ZM247.634 38.0809V49.0009H246.234V47.0809C245.914 47.7609 245.421 48.2809 244.754 48.6409C244.087 49.0009 243.341 49.1809 242.514 49.1809C241.207 49.1809 240.141 48.7809 239.314 47.9809C238.487 47.1676 238.074 45.9942 238.074 44.4609V38.0809H239.454V44.3009C239.454 45.4876 239.747 46.3942 240.334 47.0209C240.934 47.6476 241.747 47.9609 242.774 47.9609C243.827 47.9609 244.667 47.6276 245.294 46.9609C245.921 46.2942 246.234 45.3142 246.234 44.0209V38.0809H247.634ZM252.35 40.0209C252.657 39.3409 253.124 38.8142 253.75 38.4409C254.39 38.0676 255.17 37.8809 256.09 37.8809V39.3409H255.71C254.697 39.3409 253.884 39.6142 253.27 40.1609C252.657 40.7076 252.35 41.6209 252.35 42.9009V49.0009H250.95V38.0809H252.35V40.0209ZM259.016 36.0209C258.736 36.0209 258.496 35.9209 258.296 35.7209C258.096 35.5209 257.996 35.2742 257.996 34.9809C257.996 34.6876 258.096 34.4476 258.296 34.2609C258.496 34.0609 258.736 33.9609 259.016 33.9609C259.296 33.9609 259.536 34.0609 259.736 34.2609C259.936 34.4476 260.036 34.6876 260.036 34.9809C260.036 35.2742 259.936 35.5209 259.736 35.7209C259.536 35.9209 259.296 36.0209 259.016 36.0209ZM259.716 38.0809V49.0009H258.316V38.0809H259.716ZM266.767 49.1609C265.513 49.1609 264.487 48.8742 263.687 48.3009C262.9 47.7142 262.46 46.9209 262.367 45.9209H263.807C263.873 46.5342 264.16 47.0342 264.667 47.4209C265.187 47.7942 265.88 47.9809 266.747 47.9809C267.507 47.9809 268.1 47.8009 268.527 47.4409C268.967 47.0809 269.187 46.6342 269.187 46.1009C269.187 45.7276 269.067 45.4209 268.827 45.1809C268.587 44.9409 268.28 44.7542 267.907 44.6209C267.547 44.4742 267.053 44.3209 266.427 44.1609C265.613 43.9476 264.953 43.7342 264.447 43.5209C263.94 43.3076 263.507 42.9942 263.147 42.5809C262.8 42.1542 262.627 41.5876 262.627 40.8809C262.627 40.3476 262.787 39.8542 263.107 39.4009C263.427 38.9476 263.88 38.5876 264.467 38.3209C265.053 38.0542 265.72 37.9209 266.467 37.9209C267.64 37.9209 268.587 38.2209 269.307 38.8209C270.027 39.4076 270.413 40.2209 270.467 41.2609H269.067C269.027 40.6209 268.773 40.1076 268.307 39.7209C267.853 39.3209 267.227 39.1209 266.427 39.1209C265.72 39.1209 265.147 39.2876 264.707 39.6209C264.267 39.9542 264.047 40.3676 264.047 40.8609C264.047 41.2876 264.173 41.6409 264.427 41.9209C264.693 42.1876 265.02 42.4009 265.407 42.5609C265.793 42.7076 266.313 42.8742 266.967 43.0609C267.753 43.2742 268.38 43.4809 268.847 43.6809C269.313 43.8809 269.713 44.1742 270.047 44.5609C270.38 44.9476 270.553 45.4609 270.567 46.1009C270.567 46.6876 270.407 47.2142 270.087 47.6809C269.767 48.1342 269.32 48.4942 268.747 48.7609C268.173 49.0276 267.513 49.1609 266.767 49.1609Z" fill="#C8DCF9"/>
</svg>
