<svg width="306" height="76" viewBox="0 0 306 76" fill="none" xmlns="http://www.w3.org/2000/svg">
<path d="M23.5263 37.92C23.5263 39.16 23.1397 40.1267 22.3663 40.82C21.593 41.5 20.4463 41.84 18.9263 41.84H15.9263V48H15.0263V33.96H18.9263C20.473 33.96 21.6263 34.32 22.3863 35.04C23.1463 35.7467 23.5263 36.7067 23.5263 37.92ZM18.9263 41.04C21.393 41.04 22.6263 40 22.6263 37.92C22.6263 36.8933 22.333 36.1133 21.7463 35.58C21.1597 35.0333 20.2197 34.76 18.9263 34.76H15.9263V41.04H18.9263ZM30.8443 48.16C29.831 48.16 28.9176 47.9333 28.1043 47.48C27.291 47.0267 26.651 46.38 26.1843 45.54C25.731 44.6867 25.5043 43.6933 25.5043 42.56C25.5043 41.44 25.7376 40.46 26.2043 39.62C26.671 38.7667 27.311 38.12 28.1243 37.68C28.951 37.2267 29.871 37 30.8843 37C31.8976 37 32.811 37.2267 33.6243 37.68C34.4376 38.12 35.071 38.76 35.5243 39.6C35.991 40.44 36.2243 41.4267 36.2243 42.56C36.2243 43.6933 35.991 44.6867 35.5243 45.54C35.0576 46.38 34.411 47.0267 33.5843 47.48C32.771 47.9333 31.8576 48.16 30.8443 48.16ZM30.8443 47.36C31.631 47.36 32.3643 47.1867 33.0443 46.84C33.7376 46.48 34.291 45.94 34.7043 45.22C35.1176 44.5 35.3243 43.6133 35.3243 42.56C35.3243 41.52 35.1176 40.64 34.7043 39.92C34.291 39.2 33.7443 38.6667 33.0643 38.32C32.3843 37.96 31.651 37.78 30.8643 37.78C30.0776 37.78 29.3443 37.96 28.6643 38.32C27.9976 38.6667 27.4576 39.2 27.0443 39.92C26.631 40.64 26.4243 41.52 26.4243 42.56C26.4243 43.6133 26.6243 44.5 27.0243 45.22C27.4376 45.94 27.9776 46.48 28.6443 46.84C29.3243 47.1867 30.0576 47.36 30.8443 47.36ZM53.2749 37.14L49.8549 48H48.9949L45.5349 38.38L42.0549 48H41.1949L37.7749 37.14H38.7149L41.6349 46.98L45.1149 37.14H45.9749L49.4349 46.94L52.3549 37.14H53.2749ZM65.1468 41.84C65.1468 42.32 65.1335 42.68 65.1068 42.92H55.7268C55.7535 43.8933 55.9668 44.7133 56.3668 45.38C56.7668 46.0467 57.2935 46.5467 57.9468 46.88C58.6001 47.2133 59.3135 47.38 60.0868 47.38C61.1535 47.38 62.0468 47.12 62.7668 46.6C63.4868 46.0667 63.9401 45.3467 64.1268 44.44H65.0668C64.8535 45.5467 64.3068 46.4467 63.4268 47.14C62.5468 47.82 61.4335 48.16 60.0868 48.16C59.0735 48.16 58.1668 47.9333 57.3668 47.48C56.5668 47.0267 55.9401 46.38 55.4868 45.54C55.0335 44.6867 54.8068 43.6933 54.8068 42.56C54.8068 41.4267 55.0268 40.44 55.4668 39.6C55.9201 38.76 56.5468 38.12 57.3468 37.68C58.1468 37.2267 59.0601 37 60.0868 37C61.1268 37 62.0268 37.2267 62.7868 37.68C63.5601 38.12 64.1468 38.7133 64.5468 39.46C64.9468 40.1933 65.1468 40.9867 65.1468 41.84ZM64.2468 42.18C64.2868 41.22 64.1135 40.4067 63.7268 39.74C63.3535 39.0733 62.8401 38.58 62.1868 38.26C61.5335 37.9267 60.8268 37.76 60.0668 37.76C59.3068 37.76 58.6001 37.9267 57.9468 38.26C57.3068 38.58 56.7801 39.0733 56.3668 39.74C55.9668 40.4067 55.7535 41.22 55.7268 42.18H64.2468ZM68.8868 39.38C69.1535 38.58 69.6268 37.9733 70.3068 37.56C70.9868 37.1333 71.8535 36.92 72.9068 36.92V37.86H72.6068C71.5401 37.86 70.6535 38.1667 69.9468 38.78C69.2401 39.38 68.8868 40.3667 68.8868 41.74V48H67.9868V37.14H68.8868V39.38ZM84.879 41.84C84.879 42.32 84.8657 42.68 84.839 42.92H75.459C75.4857 43.8933 75.699 44.7133 76.099 45.38C76.499 46.0467 77.0257 46.5467 77.679 46.88C78.3323 47.2133 79.0457 47.38 79.819 47.38C80.8857 47.38 81.779 47.12 82.499 46.6C83.219 46.0667 83.6723 45.3467 83.859 44.44H84.799C84.5857 45.5467 84.039 46.4467 83.159 47.14C82.279 47.82 81.1657 48.16 79.819 48.16C78.8057 48.16 77.899 47.9333 77.099 47.48C76.299 47.0267 75.6723 46.38 75.219 45.54C74.7657 44.6867 74.539 43.6933 74.539 42.56C74.539 41.4267 74.759 40.44 75.199 39.6C75.6523 38.76 76.279 38.12 77.079 37.68C77.879 37.2267 78.7923 37 79.819 37C80.859 37 81.759 37.2267 82.519 37.68C83.2923 38.12 83.879 38.7133 84.279 39.46C84.679 40.1933 84.879 40.9867 84.879 41.84ZM83.979 42.18C84.019 41.22 83.8457 40.4067 83.459 39.74C83.0857 39.0733 82.5723 38.58 81.919 38.26C81.2657 37.9267 80.559 37.76 79.799 37.76C79.039 37.76 78.3323 37.9267 77.679 38.26C77.039 38.58 76.5123 39.0733 76.099 39.74C75.699 40.4067 75.4857 41.22 75.459 42.18H83.979ZM87.159 42.56C87.159 41.44 87.379 40.46 87.819 39.62C88.2723 38.78 88.8923 38.1333 89.679 37.68C90.479 37.2267 91.3857 37 92.399 37C93.5057 37 94.4657 37.28 95.279 37.84C96.0923 38.3867 96.6657 39.1 96.999 39.98V33.2H97.899V48H96.999V45.12C96.679 46.0133 96.119 46.7467 95.319 47.32C94.519 47.88 93.5457 48.16 92.399 48.16C91.3857 48.16 90.479 47.9333 89.679 47.48C88.8923 47.0133 88.2723 46.36 87.819 45.52C87.379 44.6667 87.159 43.68 87.159 42.56ZM96.999 42.56C96.999 41.6133 96.799 40.78 96.399 40.06C96.0123 39.3267 95.479 38.7667 94.799 38.38C94.119 37.98 93.359 37.78 92.519 37.78C91.639 37.78 90.8657 37.9733 90.199 38.36C89.5323 38.7333 89.0123 39.28 88.639 40C88.2657 40.72 88.079 41.5733 88.079 42.56C88.079 43.5467 88.2657 44.4 88.639 45.12C89.0123 45.84 89.5323 46.3933 90.199 46.78C90.879 47.1667 91.6523 47.36 92.519 47.36C93.359 47.36 94.119 47.1667 94.799 46.78C95.4923 46.38 96.0323 45.82 96.419 45.1C96.8057 44.3667 96.999 43.52 96.999 42.56ZM107.961 40C108.294 39.12 108.861 38.4 109.661 37.84C110.461 37.28 111.427 37 112.561 37C113.574 37 114.474 37.2267 115.261 37.68C116.061 38.1333 116.681 38.78 117.121 39.62C117.574 40.46 117.801 41.44 117.801 42.56C117.801 43.68 117.574 44.6667 117.121 45.52C116.681 46.36 116.061 47.0133 115.261 47.48C114.474 47.9333 113.574 48.16 112.561 48.16C111.427 48.16 110.454 47.88 109.641 47.32C108.841 46.76 108.281 46.04 107.961 45.16V48H107.061V33.2H107.961V40ZM116.881 42.56C116.881 41.5733 116.694 40.72 116.321 40C115.947 39.28 115.421 38.7333 114.741 38.36C114.074 37.9733 113.301 37.78 112.421 37.78C111.581 37.78 110.821 37.98 110.141 38.38C109.461 38.7667 108.927 39.3267 108.541 40.06C108.154 40.78 107.961 41.6133 107.961 42.56C107.961 43.52 108.154 44.3667 108.541 45.1C108.927 45.82 109.461 46.38 110.141 46.78C110.821 47.1667 111.581 47.36 112.421 47.36C113.301 47.36 114.074 47.1667 114.741 46.78C115.421 46.3933 115.947 45.84 116.321 45.12C116.694 44.4 116.881 43.5467 116.881 42.56ZM129.118 37.14L122.798 53.1H121.878L123.898 48L119.338 37.14H120.318L124.398 47L128.198 37.14H129.118ZM131.106 48.06C130.879 48.06 130.693 47.9867 130.546 47.84C130.399 47.6933 130.326 47.5067 130.326 47.28C130.326 47.0533 130.399 46.8667 130.546 46.72C130.693 46.5733 130.879 46.5 131.106 46.5C131.319 46.5 131.499 46.5733 131.646 46.72C131.793 46.8667 131.866 47.0533 131.866 47.28C131.866 47.5067 131.793 47.6933 131.646 47.84C131.499 47.9867 131.319 48.06 131.106 48.06ZM131.106 39.18C130.879 39.18 130.693 39.1067 130.546 38.96C130.399 38.8133 130.326 38.6267 130.326 38.4C130.326 38.1733 130.399 37.9867 130.546 37.84C130.693 37.6933 130.879 37.62 131.106 37.62C131.319 37.62 131.499 37.6933 131.646 37.84C131.793 37.9867 131.866 38.1733 131.866 38.4C131.866 38.6267 131.793 38.8133 131.646 38.96C131.499 39.1067 131.319 39.18 131.106 39.18Z" fill="#20334F"/>
<path d="M169.425 51.9936C164.747 51.9936 160.07 51.9988 155.392 51.9884C154.542 51.9858 153.687 51.9583 152.843 51.8681C151.479 51.723 150.241 51.1882 149.128 50.371C147.337 49.057 146.034 47.3572 145.396 45.1645C145.057 44.0009 144.933 42.8097 145.034 41.5951C145.316 38.2309 146.83 35.608 149.533 33.7279C151.02 32.6923 152.68 32.1327 154.482 32.0516C154.747 32.0399 154.74 32.0399 154.736 31.7483C154.712 29.9963 155.123 28.3619 155.989 26.8478C157.038 25.016 158.464 23.6274 160.384 22.8037C161.561 22.299 162.79 22.031 164.058 22.0022C165.696 21.9656 167.236 22.3853 168.68 23.1737C168.937 23.3149 169.129 23.3228 169.392 23.1737C170.274 22.6782 171.215 22.3356 172.206 22.1552C173.184 21.9787 174.162 21.9826 175.146 22.1094C176.516 22.2859 177.803 22.7043 178.954 23.4901C181.241 25.0526 182.69 27.2139 183.181 30.0146C183.285 30.6108 183.287 31.2253 183.323 31.8333C183.332 31.9797 183.352 32.049 183.519 32.0595C186.768 32.2595 189.34 33.7292 191.229 36.4618C192.157 37.8033 192.792 39.2834 192.94 40.9256C193.262 44.5108 192.315 47.6122 189.475 49.9068C188.269 50.8809 186.919 51.5765 185.392 51.8393C184.832 51.9361 184.259 51.991 183.692 51.9923C178.938 52.0041 174.184 51.9988 169.429 51.9988C169.428 51.9988 169.427 51.9977 169.427 51.9962V51.9949C169.427 51.9942 169.426 51.9936 169.425 51.9936V51.9936ZM168.804 51.2706V51.2706C168.804 51.2735 168.806 51.2758 168.809 51.2758C173.795 51.2758 178.782 51.2771 183.768 51.2745C184.489 51.2745 185.207 51.2013 185.896 50.9842C189.654 49.8009 192.043 46.9218 192.298 42.7522C192.421 40.7465 191.948 38.8925 190.87 37.215C189.078 34.4248 186.567 32.9277 183.313 32.7799C182.845 32.759 182.616 32.5236 182.621 32.0412C182.628 31.2985 182.576 30.5624 182.432 29.8341C182.138 28.3501 181.484 27.0505 180.541 25.8972C178.601 23.5241 176.071 22.6115 173.135 22.7723C171.884 22.8403 170.706 23.2522 169.612 23.8837C169.213 24.1138 168.856 24.1086 168.459 23.8837C167.368 23.2626 166.198 22.8743 164.956 22.7684C163.57 22.6507 162.218 22.8704 160.917 23.3777C158.908 24.1609 157.459 25.5913 156.444 27.5185C155.932 28.4926 155.591 29.5229 155.506 30.6317C155.469 31.1089 155.478 31.5888 155.466 32.0673C155.456 32.4857 155.3 32.6819 154.906 32.7525C154.802 32.7708 154.695 32.7668 154.591 32.7812C154.069 32.8479 153.536 32.8741 153.025 32.993C150.646 33.5527 148.729 34.851 147.353 36.9365C145.791 39.3017 145.327 41.8945 146.002 44.6768C146.485 46.6708 147.619 48.2319 149.161 49.4937C150.2 50.3435 151.375 50.8849 152.685 51.1241C153.595 51.2902 154.511 51.2627 155.425 51.2666C159.883 51.2823 164.341 51.2745 168.8 51.2745C168.802 51.2745 168.804 51.2727 168.804 51.2706V51.2706Z" fill="#20334F"/>
<path d="M168.315 46.7325C168.315 46.7325 168.315 46.7328 168.315 46.7328C168.171 46.7667 168.089 46.8018 168.005 46.8018C164.054 46.8044 160.102 46.8071 156.15 46.7979C155.42 46.7966 154.686 46.8515 153.961 46.6841C152.095 46.2514 150.506 44.5176 150.208 42.5812C149.808 39.9806 151.472 37.533 153.978 37.0479C154.239 36.9969 154.511 36.9904 154.777 36.989C156.271 36.9851 157.763 36.989 159.257 36.989C159.649 36.989 159.652 36.9864 159.652 36.572C159.652 35.1703 159.653 33.7687 159.647 32.367C159.642 31.3694 159.881 30.4463 160.39 29.5964C161.744 27.3279 164.601 26.5356 166.814 27.8261C167.653 28.3151 168.282 29.0185 168.705 29.9089C168.798 30.1038 168.857 30.3378 168.859 30.5548C168.87 32.639 168.865 34.7231 168.865 36.8073V36.8073C168.865 36.9105 168.781 36.9939 168.678 37.005C168.594 37.0141 168.513 37.0235 168.431 37.0374C168.212 37.0766 168.08 37.2113 168.052 37.4427C168.041 37.5356 168.029 37.6297 168.029 37.7239C168.029 38.6103 168.029 39.4955 168.029 40.382C168.029 40.7612 167.951 40.8292 167.578 40.8266C166.747 40.82 165.917 40.8187 165.086 40.8252C164.6 40.8292 164.465 40.9782 164.461 41.4842C164.458 41.8542 164.457 42.2256 164.461 42.5956C164.466 42.9996 164.595 43.1317 164.982 43.133C165.87 43.1356 166.757 43.133 167.644 43.1343C167.98 43.1343 168.024 43.1787 168.024 43.52C168.024 44.3045 168.026 45.089 168.024 45.8722C168.024 46.1677 168.033 46.4553 168.315 46.7325C168.315 46.7325 168.315 46.7325 168.315 46.7325V46.7325Z" fill="#20334F"/>
<path d="M169.737 46.6935C169.736 46.6935 169.736 46.6931 169.736 46.6929C170.053 46.4746 170.037 46.1519 170.036 45.8293C170.032 45.0735 170.031 44.3191 170.032 43.5634C170.032 43.1881 170.086 43.1332 170.446 43.1332C171.292 43.1332 172.136 43.1384 172.982 43.1345C173.483 43.1319 173.619 42.9868 173.621 42.4703C173.624 42.1513 173.622 41.8309 173.621 41.5119C173.619 41.0007 173.446 40.815 172.945 40.815C172.121 40.815 171.298 40.8307 170.474 40.8399C170.089 40.8438 170.035 40.7876 170.036 40.3901C170.036 39.5258 170.039 38.6616 170.039 37.7973C170.039 37.1684 169.919 37.0416 169.302 37.005V37.005C169.216 36.9994 169.152 36.9208 169.152 36.8344C169.152 36.7982 169.152 36.7623 169.152 36.7265C169.15 34.8097 169.148 32.8916 169.145 30.9748C169.145 30.4126 169.311 29.9066 169.602 29.4372C171.153 26.9477 174.291 26.5188 176.492 28.2696C177.754 29.2724 178.368 30.6322 178.379 32.2718C178.39 33.7101 178.379 35.1483 178.377 36.5853C178.377 36.954 178.416 36.9958 178.779 36.9945C180.244 36.9919 181.71 36.9997 183.174 36.9827C185.611 36.9527 187.674 38.8891 187.855 41.3942C188.042 43.9687 186.243 46.3274 183.786 46.721C183.481 46.7694 183.169 46.7968 182.861 46.7981C179.029 46.8034 175.198 46.8021 171.365 46.8034C170.935 46.8034 170.505 46.8073 170.077 46.8007C169.98 46.7995 169.884 46.7707 169.788 46.7508C169.772 46.7475 169.758 46.7372 169.751 46.7225L169.737 46.6937C169.737 46.6936 169.737 46.6935 169.737 46.6935V46.6935Z" fill="#20334F"/>
<path d="M216.204 48H214.384L207.064 36.9V48H205.244V34.04H207.064L214.384 45.12V34.04H216.204V48ZM224.206 48.18C223.179 48.18 222.246 47.9467 221.406 47.48C220.579 47.0133 219.926 46.3533 219.446 45.5C218.979 44.6333 218.746 43.6333 218.746 42.5C218.746 41.38 218.986 40.3933 219.466 39.54C219.959 38.6733 220.626 38.0133 221.466 37.56C222.306 37.0933 223.246 36.86 224.286 36.86C225.326 36.86 226.266 37.0933 227.106 37.56C227.946 38.0133 228.606 38.6667 229.086 39.52C229.579 40.3733 229.826 41.3667 229.826 42.5C229.826 43.6333 229.573 44.6333 229.066 45.5C228.573 46.3533 227.899 47.0133 227.046 47.48C226.193 47.9467 225.246 48.18 224.206 48.18ZM224.206 46.58C224.859 46.58 225.473 46.4267 226.046 46.12C226.619 45.8133 227.079 45.3533 227.426 44.74C227.786 44.1267 227.966 43.38 227.966 42.5C227.966 41.62 227.793 40.8733 227.446 40.26C227.099 39.6467 226.646 39.1933 226.086 38.9C225.526 38.5933 224.919 38.44 224.266 38.44C223.599 38.44 222.986 38.5933 222.426 38.9C221.879 39.1933 221.439 39.6467 221.106 40.26C220.773 40.8733 220.606 41.62 220.606 42.5C220.606 43.3933 220.766 44.1467 221.086 44.76C221.419 45.3733 221.859 45.8333 222.406 46.14C222.953 46.4333 223.553 46.58 224.206 46.58ZM236.419 46.32L239.819 37.04H241.759L237.459 48H235.339L231.039 37.04H232.999L236.419 46.32ZM248.45 48.18C247.423 48.18 246.49 47.9467 245.65 47.48C244.823 47.0133 244.17 46.3533 243.69 45.5C243.223 44.6333 242.99 43.6333 242.99 42.5C242.99 41.38 243.23 40.3933 243.71 39.54C244.203 38.6733 244.87 38.0133 245.71 37.56C246.55 37.0933 247.49 36.86 248.53 36.86C249.57 36.86 250.51 37.0933 251.35 37.56C252.19 38.0133 252.85 38.6667 253.33 39.52C253.823 40.3733 254.07 41.3667 254.07 42.5C254.07 43.6333 253.817 44.6333 253.31 45.5C252.817 46.3533 252.143 47.0133 251.29 47.48C250.437 47.9467 249.49 48.18 248.45 48.18ZM248.45 46.58C249.103 46.58 249.717 46.4267 250.29 46.12C250.863 45.8133 251.323 45.3533 251.67 44.74C252.03 44.1267 252.21 43.38 252.21 42.5C252.21 41.62 252.037 40.8733 251.69 40.26C251.343 39.6467 250.89 39.1933 250.33 38.9C249.77 38.5933 249.163 38.44 248.51 38.44C247.843 38.44 247.23 38.5933 246.67 38.9C246.123 39.1933 245.683 39.6467 245.35 40.26C245.017 40.8733 244.85 41.62 244.85 42.5C244.85 43.3933 245.01 44.1467 245.33 44.76C245.663 45.3733 246.103 45.8333 246.65 46.14C247.197 46.4333 247.797 46.58 248.45 46.58ZM255.903 42.5C255.903 41.3667 256.13 40.38 256.583 39.54C257.036 38.6867 257.663 38.0267 258.463 37.56C259.276 37.0933 260.203 36.86 261.243 36.86C262.59 36.86 263.696 37.1867 264.563 37.84C265.443 38.4933 266.023 39.4 266.303 40.56H264.343C264.156 39.8933 263.79 39.3667 263.243 38.98C262.71 38.5933 262.043 38.4 261.243 38.4C260.203 38.4 259.363 38.76 258.723 39.48C258.083 40.1867 257.763 41.1933 257.763 42.5C257.763 43.82 258.083 44.84 258.723 45.56C259.363 46.28 260.203 46.64 261.243 46.64C262.043 46.64 262.71 46.4533 263.243 46.08C263.776 45.7067 264.143 45.1733 264.343 44.48H266.303C266.01 45.6 265.423 46.5 264.543 47.18C263.663 47.8467 262.563 48.18 261.243 48.18C260.203 48.18 259.276 47.9467 258.463 47.48C257.663 47.0133 257.036 46.3533 256.583 45.5C256.13 44.6467 255.903 43.6467 255.903 42.5ZM278.571 37.04V48H276.751V46.38C276.405 46.94 275.918 47.38 275.291 47.7C274.678 48.0067 273.998 48.16 273.251 48.16C272.398 48.16 271.631 47.9867 270.951 47.64C270.271 47.28 269.731 46.7467 269.331 46.04C268.945 45.3333 268.751 44.4733 268.751 43.46V37.04H270.551V43.22C270.551 44.3 270.825 45.1333 271.371 45.72C271.918 46.2933 272.665 46.58 273.611 46.58C274.585 46.58 275.351 46.28 275.911 45.68C276.471 45.08 276.751 44.2067 276.751 43.06V37.04H278.571ZM283.584 38.82C283.904 38.1933 284.358 37.7067 284.944 37.36C285.544 37.0133 286.271 36.84 287.124 36.84V38.72H286.644C284.604 38.72 283.584 39.8267 283.584 42.04V48H281.764V37.04H283.584V38.82ZM290.285 35.26C289.939 35.26 289.645 35.14 289.405 34.9C289.165 34.66 289.045 34.3667 289.045 34.02C289.045 33.6733 289.165 33.38 289.405 33.14C289.645 32.9 289.939 32.78 290.285 32.78C290.619 32.78 290.899 32.9 291.125 33.14C291.365 33.38 291.485 33.6733 291.485 34.02C291.485 34.3667 291.365 34.66 291.125 34.9C290.899 35.14 290.619 35.26 290.285 35.26ZM291.165 37.04V48H289.345V37.04H291.165ZM298.267 48.18C297.427 48.18 296.674 48.04 296.007 47.76C295.341 47.4667 294.814 47.0667 294.427 46.56C294.041 46.04 293.827 45.4467 293.787 44.78H295.667C295.721 45.3267 295.974 45.7733 296.427 46.12C296.894 46.4667 297.501 46.64 298.247 46.64C298.941 46.64 299.487 46.4867 299.887 46.18C300.287 45.8733 300.487 45.4867 300.487 45.02C300.487 44.54 300.274 44.1867 299.847 43.96C299.421 43.72 298.761 43.4867 297.867 43.26C297.054 43.0467 296.387 42.8333 295.867 42.62C295.361 42.3933 294.921 42.0667 294.547 41.64C294.187 41.2 294.007 40.6267 294.007 39.92C294.007 39.36 294.174 38.8467 294.507 38.38C294.841 37.9133 295.314 37.5467 295.927 37.28C296.541 37 297.241 36.86 298.027 36.86C299.241 36.86 300.221 37.1667 300.967 37.78C301.714 38.3933 302.114 39.2333 302.167 40.3H300.347C300.307 39.7267 300.074 39.2667 299.647 38.92C299.234 38.5733 298.674 38.4 297.967 38.4C297.314 38.4 296.794 38.54 296.407 38.82C296.021 39.1 295.827 39.4667 295.827 39.92C295.827 40.28 295.941 40.58 296.167 40.82C296.407 41.0467 296.701 41.2333 297.047 41.38C297.407 41.5133 297.901 41.6667 298.527 41.84C299.314 42.0533 299.954 42.2667 300.447 42.48C300.941 42.68 301.361 42.9867 301.707 43.4C302.067 43.8133 302.254 44.3533 302.267 45.02C302.267 45.62 302.101 46.16 301.767 46.64C301.434 47.12 300.961 47.5 300.347 47.78C299.747 48.0467 299.054 48.18 298.267 48.18Z" fill="#20334F"/>
</svg>
