<svg width="18" height="18" viewBox="0 0 18 18" fill="none" xmlns="http://www.w3.org/2000/svg">
    <mask id="mask0_643_13680" style="mask-type:alpha" maskUnits="userSpaceOnUse" x="0" y="0" width="18" height="18">
        <rect width="18" height="18" fill="#000"/>
    </mask>
    <g mask="url(#mask0_643_13680)">
        <path d="M8.99998 8.31332L7.77547 9.30536C7.70527 9.36081 7.63628 9.36283 7.56849 9.31142C7.50071 9.26 7.47931 9.19346 7.50431 9.11179L7.97017 7.50577L6.72981 6.5107C6.66731 6.45525 6.64976 6.38745 6.67716 6.3073C6.70456 6.22714 6.7572 6.18707 6.83509 6.18707H8.36826L8.83412 4.60524C8.85912 4.52358 8.91441 4.48274 8.99998 4.48274C9.08556 4.48274 9.14084 4.52358 9.16584 4.60524L9.63171 6.18707H11.1533C11.2312 6.18707 11.2858 6.22714 11.317 6.3073C11.3483 6.38745 11.3327 6.45525 11.2702 6.5107L10.0182 7.50577L10.4841 9.11179C10.5091 9.19346 10.4877 9.26 10.4199 9.31142C10.3521 9.36283 10.2831 9.36081 10.213 9.30536L8.99998 8.31332ZM8.99998 15.1397L5.76058 16.2149C5.53943 16.2965 5.33655 16.265 5.15194 16.1204C4.96731 15.9757 4.875 15.7849 4.875 15.548V10.8872C4.4 10.367 4.03125 9.7656 3.76875 9.08307C3.50625 8.40053 3.375 7.67212 3.375 6.89784C3.375 5.25249 3.92019 3.85819 5.01058 2.71492C6.10096 1.57164 7.43076 1 8.99998 1C10.5692 1 11.899 1.57164 12.9894 2.71492C14.0798 3.85819 14.625 5.25249 14.625 6.89784C14.625 7.67212 14.4937 8.40053 14.2312 9.08307C13.9687 9.7656 13.6 10.367 13.125 10.8872V15.548C13.125 15.7849 13.0326 15.9757 12.848 16.1204C12.6634 16.2651 12.4605 16.2966 12.2394 16.2149L8.99998 15.1397ZM8.99998 11.6161C10.25 11.6161 11.3125 11.1574 12.1875 10.24C13.0625 9.32251 13.5 8.20847 13.5 6.89784C13.5 5.5872 13.0625 4.47316 12.1875 3.55572C11.3125 2.63827 10.25 2.17955 8.99998 2.17955C7.74998 2.17955 6.68748 2.63827 5.81248 3.55572C4.93748 4.47316 4.49998 5.5872 4.49998 6.89784C4.49998 8.20847 4.93748 9.32251 5.81248 10.24C6.68748 11.1574 7.74998 11.6161 8.99998 11.6161ZM5.99998 14.7889L8.99998 13.945L12 14.7889V11.8671C11.5721 12.1595 11.1038 12.3873 10.5952 12.5507C10.0865 12.714 9.55479 12.7957 8.99998 12.7957C8.44517 12.7957 7.91344 12.714 7.40479 12.5507C6.89614 12.3873 6.42787 12.1595 5.99998 11.8671V14.7889Z" fill="#000"/>
    </g>
</svg>