<?xml version="1.0" encoding="UTF-8"?>
<!DOCTYPE svg PUBLIC "-//W3C//DTD SVG 1.1//EN" "http://www.w3.org/Graphics/SVG/1.1/DTD/svg11.dtd">
<svg xmlns="http://www.w3.org/2000/svg" version="1.1" width="1696px" height="692px" style="shape-rendering:geometricPrecision; text-rendering:geometricPrecision; image-rendering:optimizeQuality; fill-rule:evenodd; clip-rule:evenodd" xmlns:xlink="http://www.w3.org/1999/xlink">
<g><path style="opacity:1" fill="#fefefe" d="M -0.5,-0.5 C 564.833,-0.5 1130.17,-0.5 1695.5,-0.5C 1695.5,230.167 1695.5,460.833 1695.5,691.5C 1130.17,691.5 564.833,691.5 -0.5,691.5C -0.5,460.833 -0.5,230.167 -0.5,-0.5 Z"/></g>
<g><path style="opacity:1" fill="#37245f" d="M 968.5,216.5 C 963.939,213.982 958.939,212.982 953.5,213.5C 938.2,211.946 922.866,211.446 907.5,212C 898.431,212.297 890.931,215.797 885,222.5C 882.073,231.159 884.239,238.326 891.5,244C 904.216,250.848 917.883,254.348 932.5,254.5C 935.974,255.525 939.64,256.192 943.5,256.5C 964.071,259.2 980.904,268.533 994,284.5C 1001.17,297.231 1003.5,310.898 1001,325.5C 995.81,344.856 983.644,357.523 964.5,363.5C 961.848,363.41 959.515,364.076 957.5,365.5C 956.833,365.5 956.167,365.5 955.5,365.5C 937.552,367.678 919.552,368.012 901.5,366.5C 895.471,364.366 889.138,363.366 882.5,363.5C 880.095,362.232 877.428,361.565 874.5,361.5C 867.12,360.316 860.12,357.816 853.5,354C 851.773,352.611 850.439,350.944 849.5,349C 855.623,339.257 862.123,329.757 869,320.5C 872.473,323.484 876.306,325.817 880.5,327.5C 884.817,329.94 889.483,331.607 894.5,332.5C 895.568,333.434 896.901,333.768 898.5,333.5C 911.914,337.794 925.581,339.127 939.5,337.5C 940.5,337.5 941.5,337.5 942.5,337.5C 946.479,337.258 950.146,336.258 953.5,334.5C 966.237,328.119 969.737,318.452 964,305.5C 960.162,301.493 955.662,298.493 950.5,296.5C 948.383,294.345 945.716,293.345 942.5,293.5C 942.167,293.5 941.833,293.5 941.5,293.5C 939.485,292.076 937.152,291.41 934.5,291.5C 933.833,291.5 933.167,291.5 932.5,291.5C 923.473,288.991 914.14,287.658 904.5,287.5C 901.67,287.037 899.003,286.371 896.5,285.5C 891.767,283.256 886.767,281.589 881.5,280.5C 855.688,269.902 844.522,250.569 848,222.5C 852.814,205.683 863.314,193.849 879.5,187C 895.998,180.943 912.998,178.943 930.5,181C 949.823,181.554 968.823,184.22 987.5,189C 990.601,189.855 993.268,191.355 995.5,193.5C 989.5,202.5 983.5,211.5 977.5,220.5C 974.399,219.143 971.399,217.81 968.5,216.5 Z"/></g>
<g><path style="opacity:1" fill="#dddae4" d="M 393.5,183.5 C 329.481,183.185 265.481,183.518 201.5,184.5C 201.918,183.778 202.584,183.278 203.5,183C 267.001,182.168 330.335,182.335 393.5,183.5 Z"/></g>
<g><path style="opacity:1" fill="#dedbe5" d="M 444.5,183.5 C 473.33,182.336 502.33,182.17 531.5,183C 532.737,183.232 533.737,183.732 534.5,184.5C 504.858,183.532 475.192,183.198 445.5,183.5C 445.167,183.5 444.833,183.5 444.5,183.5 Z"/></g>
<g><path style="opacity:1" fill="#b4adc3" d="M 1012.5,183.5 C 1064.66,182.501 1117,182.168 1169.5,182.5C 1169.5,192.5 1169.5,202.5 1169.5,212.5C 1149.17,212.5 1128.83,212.5 1108.5,212.5C 1108.5,212.167 1108.5,211.833 1108.5,211.5C 1128.5,211.5 1148.5,211.5 1168.5,211.5C 1168.5,202.167 1168.5,192.833 1168.5,183.5C 1116.83,183.5 1065.17,183.5 1013.5,183.5C 1013.17,183.5 1012.83,183.5 1012.5,183.5 Z"/></g>
<g><path style="opacity:1" fill="#37245e" d="M 393.5,183.5 C 393.667,243.501 393.5,303.501 393,363.5C 388.538,421.29 362.371,466.123 314.5,498C 295.668,509.611 275.335,517.278 253.5,521C 209.835,521.5 166.168,521.667 122.5,521.5C 122.333,461.499 122.5,401.499 123,341.5C 128.608,306.085 147.108,279.918 178.5,263C 188.533,259.075 198.866,256.242 209.5,254.5C 247.167,254.5 284.833,254.5 322.5,254.5C 322.5,291.5 322.5,328.5 322.5,365.5C 318.534,396.614 303.534,420.78 277.5,438C 269.76,442.517 261.76,446.35 253.5,449.5C 250.273,449.676 247.273,450.343 244.5,451.5C 240.127,451.982 235.794,452.648 231.5,453.5C 217.754,453.815 204.088,453.481 190.5,452.5C 189.778,452.082 189.278,451.416 189,450.5C 188.193,440.423 188.36,430.423 189.5,420.5C 202.962,419.868 216.295,419.201 229.5,418.5C 260.69,413.481 279.857,395.481 287,364.5C 287.5,339.502 287.667,314.502 287.5,289.5C 262.003,288.337 236.337,288.17 210.5,289C 209.263,289.232 208.263,289.732 207.5,290.5C 186.893,295.584 172.06,307.917 163,327.5C 161.512,331.787 160.178,336.12 159,340.5C 158.5,389.832 158.333,439.166 158.5,488.5C 184.5,488.5 210.5,488.5 236.5,488.5C 242.503,488.667 248.17,487.667 253.5,485.5C 307.224,471.276 341.057,437.276 355,383.5C 356.217,376.865 357.217,370.199 358,363.5C 358.5,315.168 358.667,266.834 358.5,218.5C 309.832,218.333 261.166,218.5 212.5,219C 197.179,219.896 182.513,223.396 168.5,229.5C 166.62,229.229 165.287,229.896 164.5,231.5C 119.545,254.342 94.0448,291.009 88,341.5C 87.5,401.499 87.3333,461.499 87.5,521.5C 75.8333,521.5 64.1667,521.5 52.5,521.5C 52.3333,460.499 52.5,399.499 53,338.5C 60.9111,273.963 93.7444,227.129 151.5,198C 167.562,191.144 184.229,186.644 201.5,184.5C 265.481,183.518 329.481,183.185 393.5,183.5 Z"/></g>
<g><path style="opacity:1" fill="#37245f" d="M 445.5,183.5 C 475.192,183.198 504.858,183.532 534.5,184.5C 571.82,190.768 587.987,212.768 583,250.5C 579.489,272.658 567.322,287.491 546.5,295C 540.898,296.6 535.232,297.934 529.5,299C 512.837,299.5 496.17,299.667 479.5,299.5C 478.503,320.994 478.169,342.66 478.5,364.5C 467.5,364.5 456.5,364.5 445.5,364.5C 445.5,304.167 445.5,243.833 445.5,183.5 Z"/></g>
<g><path style="opacity:1" fill="#37245f" d="M 715.5,290.5 C 714.5,290.5 713.5,290.5 712.5,290.5C 712.263,291.791 712.596,292.791 713.5,293.5C 728.427,316.359 743.094,339.359 757.5,362.5C 745.211,364.48 732.544,365.147 719.5,364.5C 704.735,341.293 689.735,318.293 674.5,295.5C 665.682,294.507 656.682,294.173 647.5,294.5C 647.5,318.167 647.5,341.833 647.5,365.5C 636.167,365.5 624.833,365.5 613.5,365.5C 613.5,304.833 613.5,244.167 613.5,183.5C 641.835,183.333 670.169,183.5 698.5,184C 740.966,189.391 758.133,213.224 750,255.5C 744.968,273.698 733.468,285.365 715.5,290.5 Z"/></g>
<g><path style="opacity:1" fill="#36235e" d="M 816.5,183.5 C 816.5,243.833 816.5,304.167 816.5,364.5C 805.167,364.5 793.833,364.5 782.5,364.5C 782.5,304.167 782.5,243.833 782.5,183.5C 793.833,183.5 805.167,183.5 816.5,183.5 Z"/></g>
<g><path style="opacity:1" fill="#36235e" d="M 1013.5,183.5 C 1065.17,183.5 1116.83,183.5 1168.5,183.5C 1168.5,192.833 1168.5,202.167 1168.5,211.5C 1148.5,211.5 1128.5,211.5 1108.5,211.5C 1107.5,262.331 1107.17,313.331 1107.5,364.5C 1096.17,364.5 1084.83,364.5 1073.5,364.5C 1073.5,313.5 1073.5,262.5 1073.5,211.5C 1053.67,210.503 1033.67,210.17 1013.5,210.5C 1013.5,201.5 1013.5,192.5 1013.5,183.5 Z"/></g>
<g><path style="opacity:1" fill="#5e4f7e" d="M 1194.5,183.5 C 1194.5,243.833 1194.5,304.167 1194.5,364.5C 1205.5,364.5 1216.5,364.5 1227.5,364.5C 1227.5,304.167 1227.5,243.833 1227.5,183.5C 1228.5,243.998 1228.83,304.664 1228.5,365.5C 1216.83,365.5 1205.17,365.5 1193.5,365.5C 1193.17,304.664 1193.5,243.998 1194.5,183.5 Z"/></g>
<g><path style="opacity:1" fill="#35235e" d="M 1194.5,183.5 C 1205.5,183.5 1216.5,183.5 1227.5,183.5C 1227.5,243.833 1227.5,304.167 1227.5,364.5C 1216.5,364.5 1205.5,364.5 1194.5,364.5C 1194.5,304.167 1194.5,243.833 1194.5,183.5 Z"/></g>
<g><path style="opacity:1" fill="#36235e" d="M 1271.5,183.5 C 1284.85,183.167 1298.18,183.501 1311.5,184.5C 1340.76,230.693 1369.76,277.026 1398.5,323.5C 1398.78,324.289 1399.28,324.956 1400,325.5C 1400.5,278.168 1400.67,230.835 1400.5,183.5C 1411.83,183.5 1423.17,183.5 1434.5,183.5C 1434.5,243.833 1434.5,304.167 1434.5,364.5C 1417.83,364.5 1401.17,364.5 1384.5,364.5C 1358.4,322.628 1332.07,280.962 1305.5,239.5C 1304.5,280.997 1304.17,322.663 1304.5,364.5C 1293.5,364.5 1282.5,364.5 1271.5,364.5C 1271.5,304.167 1271.5,243.833 1271.5,183.5 Z"/></g>
<g><path style="opacity:1" fill="#b8b2c7" d="M 1400.5,183.5 C 1400.67,230.835 1400.5,278.168 1400,325.5C 1399.28,324.956 1398.78,324.289 1398.5,323.5C 1399.17,276.833 1399.83,230.167 1400.5,183.5 Z"/></g>
<g><path style="opacity:1" fill="#36235e" d="M 1613.5,183.5 C 1613.5,192.5 1613.5,201.5 1613.5,210.5C 1579.66,210.168 1546,210.502 1512.5,211.5C 1512.5,229.833 1512.5,248.167 1512.5,266.5C 1544.83,266.5 1577.17,266.5 1609.5,266.5C 1609.5,275.167 1609.5,283.833 1609.5,292.5C 1577,292.168 1544.66,292.502 1512.5,293.5C 1512.5,308.167 1512.5,322.833 1512.5,337.5C 1547.5,337.5 1582.5,337.5 1617.5,337.5C 1617.5,346.5 1617.5,355.5 1617.5,364.5C 1570.83,364.5 1524.17,364.5 1477.5,364.5C 1477.5,304.167 1477.5,243.833 1477.5,183.5C 1522.83,183.5 1568.17,183.5 1613.5,183.5 Z"/></g>
<g><path style="opacity:1" fill="#6a5c88" d="M 648.5,210.5 C 662.661,209.339 676.994,209.173 691.5,210C 692.737,210.232 693.737,210.732 694.5,211.5C 679.195,210.564 663.862,210.231 648.5,210.5 Z"/></g>
<g><path style="opacity:1" fill="#4a3a6f" d="M 1012.5,183.5 C 1012.83,183.5 1013.17,183.5 1013.5,183.5C 1013.5,192.5 1013.5,201.5 1013.5,210.5C 1033.67,210.17 1053.67,210.503 1073.5,211.5C 1053.17,211.5 1032.83,211.5 1012.5,211.5C 1012.5,202.167 1012.5,192.833 1012.5,183.5 Z"/></g>
<g><path style="opacity:1" fill="#58487a" d="M 1613.5,183.5 C 1615.47,192.44 1616.14,201.773 1615.5,211.5C 1581.17,211.5 1546.83,211.5 1512.5,211.5C 1546,210.502 1579.66,210.168 1613.5,210.5C 1613.5,201.5 1613.5,192.5 1613.5,183.5 Z"/></g>
<g><path style="opacity:1" fill="#fcfcfd" d="M 479.5,210.5 C 493.837,210.333 508.171,210.5 522.5,211C 539.356,212.684 548.023,221.85 548.5,238.5C 549.402,256.239 541.402,267.406 524.5,272C 509.504,272.5 494.504,272.667 479.5,272.5C 479.5,251.833 479.5,231.167 479.5,210.5 Z"/></g>
<g><path style="opacity:1" fill="#fdfdfd" d="M 648.5,210.5 C 663.862,210.231 679.195,210.564 694.5,211.5C 703.343,213.239 710.01,217.906 714.5,225.5C 715.358,233.132 715.691,240.799 715.5,248.5C 713.091,257.411 707.424,263.244 698.5,266C 681.882,267.425 665.215,267.925 648.5,267.5C 648.5,248.5 648.5,229.5 648.5,210.5 Z"/></g>
<g><path style="opacity:1" fill="#d0cbd9" d="M 1012.5,211.5 C 1032.83,211.5 1053.17,211.5 1073.5,211.5C 1073.5,262.5 1073.5,313.5 1073.5,364.5C 1073.5,364.833 1073.5,365.167 1073.5,365.5C 1072.5,314.669 1072.17,263.669 1072.5,212.5C 1052.33,212.83 1032.33,212.497 1012.5,211.5 Z"/></g>
<g><path style="opacity:1" fill="#6b5d89" d="M 1108.5,211.5 C 1108.5,211.833 1108.5,212.167 1108.5,212.5C 1108.5,263.5 1108.5,314.5 1108.5,365.5C 1096.83,365.5 1085.17,365.5 1073.5,365.5C 1073.5,365.167 1073.5,364.833 1073.5,364.5C 1084.83,364.5 1096.17,364.5 1107.5,364.5C 1107.17,313.331 1107.5,262.331 1108.5,211.5 Z"/></g>
<g><path style="opacity:1" fill="#685986" d="M 953.5,213.5 C 958.939,212.982 963.939,213.982 968.5,216.5C 963.273,216.022 958.273,215.022 953.5,213.5 Z"/></g>
<g><path style="opacity:1" fill="#948aaa" d="M 168.5,229.5 C 167.486,230.674 166.153,231.34 164.5,231.5C 165.287,229.896 166.62,229.229 168.5,229.5 Z"/></g>
<g><path style="opacity:1" fill="#d5d1dd" d="M 714.5,225.5 C 718.006,233.043 718.339,240.71 715.5,248.5C 715.691,240.799 715.358,233.132 714.5,225.5 Z"/></g>
<g><path style="opacity:1" fill="#6a5d88" d="M 1271.5,183.5 C 1271.5,243.833 1271.5,304.167 1271.5,364.5C 1282.5,364.5 1293.5,364.5 1304.5,364.5C 1304.17,322.663 1304.5,280.997 1305.5,239.5C 1305.5,281.5 1305.5,323.5 1305.5,365.5C 1293.83,365.5 1282.17,365.5 1270.5,365.5C 1270.17,304.664 1270.5,243.998 1271.5,183.5 Z"/></g>
<g><path style="opacity:1" fill="#8b80a2" d="M 209.5,254.5 C 247.33,253.501 285.33,253.168 323.5,253.5C 323.832,291.004 323.498,328.337 322.5,365.5C 322.5,328.5 322.5,291.5 322.5,254.5C 284.833,254.5 247.167,254.5 209.5,254.5 Z"/></g>
<g><path style="opacity:1" fill="#b1aac1" d="M 932.5,254.5 C 935.518,254.335 938.518,254.502 941.5,255C 942.416,255.278 943.082,255.778 943.5,256.5C 939.64,256.192 935.974,255.525 932.5,254.5 Z"/></g>
<g><path style="opacity:1" fill="#766891" d="M 881.5,280.5 C 886.767,281.589 891.767,283.256 896.5,285.5C 891.085,284.806 886.085,283.14 881.5,280.5 Z"/></g>
<g><path style="opacity:1" fill="#9085a6" d="M 904.5,287.5 C 914.14,287.658 923.473,288.991 932.5,291.5C 922.964,290.644 913.63,289.31 904.5,287.5 Z"/></g>
<g><path style="opacity:1" fill="#82769c" d="M 287.5,289.5 C 260.808,289.202 234.141,289.535 207.5,290.5C 208.263,289.732 209.263,289.232 210.5,289C 236.337,288.17 262.003,288.337 287.5,289.5 Z"/></g>
<g><path style="opacity:1" fill="#9287a8" d="M 715.5,290.5 C 714.449,291.222 713.782,292.222 713.5,293.5C 712.596,292.791 712.263,291.791 712.5,290.5C 713.5,290.5 714.5,290.5 715.5,290.5 Z"/></g>
<g><path style="opacity:1" fill="#998fae" d="M 934.5,291.5 C 937.152,291.41 939.485,292.076 941.5,293.5C 938.848,293.59 936.515,292.924 934.5,291.5 Z"/></g>
<g><path style="opacity:1" fill="#897ea1" d="M 1609.5,266.5 C 1610.49,275.318 1610.83,284.318 1610.5,293.5C 1577.83,293.5 1545.17,293.5 1512.5,293.5C 1544.66,292.502 1577,292.168 1609.5,292.5C 1609.5,283.833 1609.5,275.167 1609.5,266.5 Z"/></g>
<g><path style="opacity:1" fill="#7f7399" d="M 942.5,293.5 C 945.716,293.345 948.383,294.345 950.5,296.5C 947.603,295.871 944.936,294.871 942.5,293.5 Z"/></g>
<g><path style="opacity:1" fill="#9a90ae" d="M 674.5,295.5 C 665.833,295.5 657.167,295.5 648.5,295.5C 648.5,319.167 648.5,342.833 648.5,366.5C 636.655,366.828 624.988,366.495 613.5,365.5C 624.833,365.5 636.167,365.5 647.5,365.5C 647.5,341.833 647.5,318.167 647.5,294.5C 656.682,294.173 665.682,294.507 674.5,295.5 Z"/></g>
<g><path style="opacity:1" fill="#4e3d72" d="M 479.5,299.5 C 479.5,321.5 479.5,343.5 479.5,365.5C 467.988,365.828 456.654,365.495 445.5,364.5C 456.5,364.5 467.5,364.5 478.5,364.5C 478.169,342.66 478.503,320.994 479.5,299.5 Z"/></g>
<g><path style="opacity:1" fill="#4fa69d" d="M 254.5,320.5 C 255.043,320.56 255.376,320.893 255.5,321.5C 244.095,340.666 242.428,360.666 250.5,381.5C 230.357,372.311 210.857,373.645 192,385.5C 191.833,385 191.667,384.5 191.5,384C 201.852,365.771 203.186,346.938 195.5,327.5C 195.833,327.167 196.167,326.833 196.5,326.5C 216.978,334.78 236.311,332.78 254.5,320.5 Z"/></g>
<g><path style="opacity:1" fill="#b4acc3" d="M 880.5,327.5 C 885.517,328.393 890.183,330.06 894.5,332.5C 889.483,331.607 884.817,329.94 880.5,327.5 Z"/></g>
<g><path style="opacity:1" fill="#7e7198" d="M 953.5,334.5 C 950.146,336.258 946.479,337.258 942.5,337.5C 942.611,336.883 942.944,336.383 943.5,336C 946.827,335.39 950.161,334.89 953.5,334.5 Z"/></g>
<g><path style="opacity:1" fill="#7b6e96" d="M 898.5,333.5 C 912.05,336.036 925.717,337.37 939.5,337.5C 925.581,339.127 911.914,337.794 898.5,333.5 Z"/></g>
<g><path style="opacity:1" fill="#a59db7" d="M 874.5,361.5 C 877.428,361.565 880.095,362.232 882.5,363.5C 879.505,363.706 876.838,363.04 874.5,361.5 Z"/></g>
<g><path style="opacity:1" fill="#897da1" d="M 882.5,363.5 C 889.138,363.366 895.471,364.366 901.5,366.5C 894.922,366.236 888.589,365.236 882.5,363.5 Z"/></g>
<g><path style="opacity:1" fill="#5e4f7e" d="M 757.5,362.5 C 758.478,362.811 759.145,363.478 759.5,364.5C 746.006,365.825 732.673,365.825 719.5,364.5C 732.544,365.147 745.211,364.48 757.5,362.5 Z"/></g>
<g><path style="opacity:1" fill="#6e608b" d="M 816.5,183.5 C 817.499,243.998 817.832,304.664 817.5,365.5C 805.655,365.828 793.988,365.495 782.5,364.5C 793.833,364.5 805.167,364.5 816.5,364.5C 816.5,304.167 816.5,243.833 816.5,183.5 Z"/></g>
<g><path style="opacity:1" fill="#a39ab6" d="M 964.5,363.5 C 962.485,364.924 960.152,365.59 957.5,365.5C 959.515,364.076 961.848,363.41 964.5,363.5 Z"/></g>
<g><path style="opacity:1" fill="#6d5f8a" d="M 1434.5,183.5 C 1435.5,243.998 1435.83,304.664 1435.5,365.5C 1418.33,365.83 1401.33,365.497 1384.5,364.5C 1401.17,364.5 1417.83,364.5 1434.5,364.5C 1434.5,304.167 1434.5,243.833 1434.5,183.5 Z"/></g>
<g><path style="opacity:1" fill="#5c4d7d" d="M 1617.5,337.5 C 1618.49,346.652 1618.83,355.985 1618.5,365.5C 1571.33,365.832 1524.33,365.499 1477.5,364.5C 1524.17,364.5 1570.83,364.5 1617.5,364.5C 1617.5,355.5 1617.5,346.5 1617.5,337.5 Z"/></g>
<g><path style="opacity:1" fill="#afa7bf" d="M 444.5,183.5 C 444.833,183.5 445.167,183.5 445.5,183.5C 445.5,243.833 445.5,304.167 445.5,364.5C 456.654,365.495 467.988,365.828 479.5,365.5C 468.012,366.495 456.345,366.828 444.5,366.5C 444.5,305.5 444.5,244.5 444.5,183.5 Z"/></g>
<g><path style="opacity:1" fill="#9c93b0" d="M 955.5,365.5 C 954.737,366.268 953.737,366.768 952.5,367C 935.328,369.065 918.328,368.899 901.5,366.5C 919.552,368.012 937.552,367.678 955.5,365.5 Z"/></g>
<g><path style="opacity:1" fill="#96cac4" d="M 1039.5,408.5 C 1050.54,407.125 1061.54,407.458 1072.5,409.5C 1061.51,408.881 1050.51,408.548 1039.5,408.5 Z"/></g>
<g><path style="opacity:1" fill="#50a79e" d="M 935.5,407.5 C 955.913,405.466 973.08,411.8 987,426.5C 1002.33,449.871 1002.33,473.205 987,496.5C 973.12,510.521 956.287,516.354 936.5,514C 907.341,508.229 892.341,490.396 891.5,460.5C 893.248,431.958 907.915,414.291 935.5,407.5 Z"/></g>
<g><path style="opacity:1" fill="#4fa79e" d="M 1039.5,408.5 C 1050.51,408.548 1061.51,408.881 1072.5,409.5C 1078.59,410.254 1084.43,411.92 1090,414.5C 1090.67,415.5 1090.67,416.5 1090,417.5C 1087.71,420.58 1085.54,423.747 1083.5,427C 1077.65,425.464 1071.65,424.131 1065.5,423C 1056.5,422.333 1047.5,422.333 1038.5,423C 1029.09,426.913 1026.59,433.413 1031,442.5C 1033.41,444.956 1036.24,446.789 1039.5,448C 1049.36,450.65 1059.36,452.65 1069.5,454C 1094.83,462.666 1101.33,478.832 1089,502.5C 1079.28,511.354 1067.78,515.354 1054.5,514.5C 1042.44,514.403 1030.78,512.236 1019.5,508C 1016.5,506.834 1013.83,505.167 1011.5,503C 1014.54,498.412 1017.71,493.912 1021,489.5C 1035.11,499.139 1050.61,502.305 1067.5,499C 1079.84,493.671 1082.17,485.671 1074.5,475C 1071.39,472.894 1068.06,471.228 1064.5,470C 1051.88,468.51 1039.55,465.843 1027.5,462C 1012.13,452.368 1008.3,439.201 1016,422.5C 1021.6,414.117 1029.43,409.45 1039.5,408.5 Z"/></g>
<g><path style="opacity:1" fill="#50a79e" d="M 1557.5,407.5 C 1571.61,407.342 1585.61,408.509 1599.5,411C 1603.27,411.724 1606.61,413.224 1609.5,415.5C 1606.97,419.896 1603.97,423.896 1600.5,427.5C 1594.1,424.919 1587.43,423.419 1580.5,423C 1572.83,422.333 1565.17,422.333 1557.5,423C 1549.02,425.453 1545.86,430.953 1548,439.5C 1550.72,444.551 1554.89,447.718 1560.5,449C 1571.63,450.78 1582.63,453.113 1593.5,456C 1613.83,466.161 1618.67,481.328 1608,501.5C 1601.05,509.557 1592.22,513.724 1581.5,514C 1568.28,514.89 1555.28,513.556 1542.5,510C 1538.36,508.734 1534.52,506.901 1531,504.5C 1530.33,503.5 1530.33,502.5 1531,501.5C 1533.37,497.394 1536.21,493.728 1539.5,490.5C 1555.6,500.137 1572.6,502.304 1590.5,497C 1599.19,489.583 1599.52,481.916 1591.5,474C 1588.62,472.48 1585.62,471.147 1582.5,470C 1570.97,468.523 1559.63,466.19 1548.5,463C 1532.16,454.809 1527,441.976 1533,424.5C 1538.89,415.476 1547.06,409.81 1557.5,407.5 Z"/></g>
<g><path style="opacity:1" fill="#4ea69d" d="M 445.5,409.5 C 470.167,409.5 494.833,409.5 519.5,409.5C 519.5,413.833 519.5,418.167 519.5,422.5C 500.167,422.5 480.833,422.5 461.5,422.5C 461.5,434.167 461.5,445.833 461.5,457.5C 479.659,458.497 497.992,458.83 516.5,458.5C 516.5,462.167 516.5,465.833 516.5,469.5C 497.992,469.17 479.659,469.503 461.5,470.5C 461.5,480.167 461.5,489.833 461.5,499.5C 481.5,499.5 501.5,499.5 521.5,499.5C 521.5,503.833 521.5,508.167 521.5,512.5C 496.167,512.5 470.833,512.5 445.5,512.5C 445.5,478.167 445.5,443.833 445.5,409.5 Z"/></g>
<g><path style="opacity:1" fill="#50a79e" d="M 586.5,467.5 C 585.504,482.324 585.171,497.324 585.5,512.5C 580.167,512.5 574.833,512.5 569.5,512.5C 569.667,497.163 569.5,481.83 569,466.5C 556.5,447.5 544,428.5 531.5,409.5C 537.137,408.337 542.804,408.17 548.5,409C 558.291,424.082 567.958,439.249 577.5,454.5C 587.416,439.67 597.083,424.67 606.5,409.5C 612.167,408.167 617.833,408.167 623.5,409.5C 610.646,428.551 598.313,447.884 586.5,467.5 Z"/></g>
<g><path style="opacity:1" fill="#4fa69e" d="M 712.5,421.5 C 692.833,421.5 673.167,421.5 653.5,421.5C 653.5,433.5 653.5,445.5 653.5,457.5C 671.659,458.497 689.992,458.83 708.5,458.5C 708.5,462.167 708.5,465.833 708.5,469.5C 689.992,469.17 671.659,469.503 653.5,470.5C 653.5,480.167 653.5,489.833 653.5,499.5C 673.833,499.5 694.167,499.5 714.5,499.5C 714.5,504.167 714.5,508.833 714.5,513.5C 688.833,513.5 663.167,513.5 637.5,513.5C 637.5,478.833 637.5,444.167 637.5,409.5C 662.5,409.5 687.5,409.5 712.5,409.5C 712.5,413.5 712.5,417.5 712.5,421.5 Z"/></g>
<g><path style="opacity:1" fill="#d9ecea" d="M 778.5,408.5 C 778.5,408.833 778.5,409.167 778.5,409.5C 778.5,443.833 778.5,478.167 778.5,512.5C 783.833,512.5 789.167,512.5 794.5,512.5C 794.5,498.5 794.5,484.5 794.5,470.5C 814.833,470.5 835.167,470.5 855.5,470.5C 855.5,484.5 855.5,498.5 855.5,512.5C 860.64,513.488 865.974,513.821 871.5,513.5C 865.766,514.825 859.932,514.825 854,513.5C 853.5,499.504 853.333,485.504 853.5,471.5C 834.167,471.5 814.833,471.5 795.5,471.5C 795.5,485.5 795.5,499.5 795.5,513.5C 789.5,513.5 783.5,513.5 777.5,513.5C 777.168,478.329 777.502,443.329 778.5,408.5 Z"/></g>
<g><path style="opacity:1" fill="#4da69d" d="M 778.5,409.5 C 783.833,409.5 789.167,409.5 794.5,409.5C 794.5,425.5 794.5,441.5 794.5,457.5C 814.833,457.5 835.167,457.5 855.5,457.5C 855.5,441.5 855.5,425.5 855.5,409.5C 860.5,409.5 865.5,409.5 870.5,409.5C 870.5,443.833 870.5,478.167 870.5,512.5C 865.5,512.5 860.5,512.5 855.5,512.5C 855.5,498.5 855.5,484.5 855.5,470.5C 835.167,470.5 814.833,470.5 794.5,470.5C 794.5,484.5 794.5,498.5 794.5,512.5C 789.167,512.5 783.833,512.5 778.5,512.5C 778.5,478.167 778.5,443.833 778.5,409.5 Z"/></g>
<g><path style="opacity:1" fill="#8fc7c1" d="M 855.5,409.5 C 860.64,408.512 865.974,408.179 871.5,408.5C 871.5,443.5 871.5,478.5 871.5,513.5C 865.974,513.821 860.64,513.488 855.5,512.5C 860.5,512.5 865.5,512.5 870.5,512.5C 870.5,478.167 870.5,443.833 870.5,409.5C 865.5,409.5 860.5,409.5 855.5,409.5 Z"/></g>
<g><path style="opacity:1" fill="#d2e8e6" d="M 1164.5,409.5 C 1147.17,409.5 1129.83,409.5 1112.5,409.5C 1112.5,443.833 1112.5,478.167 1112.5,512.5C 1117.83,512.5 1123.17,512.5 1128.5,512.5C 1128.17,499.656 1128.5,486.989 1129.5,474.5C 1129.5,487.5 1129.5,500.5 1129.5,513.5C 1123.5,513.5 1117.5,513.5 1111.5,513.5C 1111.5,478.5 1111.5,443.5 1111.5,408.5C 1129.34,408.17 1147.01,408.503 1164.5,409.5 Z"/></g>
<g><path style="opacity:1" fill="#4fa79e" d="M 1164.5,409.5 C 1175.85,410.692 1184.01,416.358 1189,426.5C 1192.04,439.057 1190.71,451.057 1185,462.5C 1178.7,469.4 1170.87,473.233 1161.5,474C 1150.84,474.5 1140.17,474.667 1129.5,474.5C 1128.5,486.989 1128.17,499.656 1128.5,512.5C 1123.17,512.5 1117.83,512.5 1112.5,512.5C 1112.5,478.167 1112.5,443.833 1112.5,409.5C 1129.83,409.5 1147.17,409.5 1164.5,409.5 Z"/></g>
<g><path style="opacity:1" fill="#bededa" d="M 1208.5,409.5 C 1208.5,443.833 1208.5,478.167 1208.5,512.5C 1213.5,512.5 1218.5,512.5 1223.5,512.5C 1223.83,512.5 1224.17,512.5 1224.5,512.5C 1219.02,513.489 1213.36,513.822 1207.5,513.5C 1207.17,478.663 1207.5,443.996 1208.5,409.5 Z"/></g>
<g><path style="opacity:1" fill="#4ba59c" d="M 1208.5,409.5 C 1213.5,409.5 1218.5,409.5 1223.5,409.5C 1223.5,443.833 1223.5,478.167 1223.5,512.5C 1218.5,512.5 1213.5,512.5 1208.5,512.5C 1208.5,478.167 1208.5,443.833 1208.5,409.5 Z"/></g>
<g><path style="opacity:1" fill="#7abcb5" d="M 1208.5,409.5 C 1213.64,408.512 1218.97,408.179 1224.5,408.5C 1224.5,443.167 1224.5,477.833 1224.5,512.5C 1224.17,512.5 1223.83,512.5 1223.5,512.5C 1223.5,478.167 1223.5,443.833 1223.5,409.5C 1218.5,409.5 1213.5,409.5 1208.5,409.5 Z"/></g>
<g><path style="opacity:1" fill="#4ca59c" d="M 1326.5,409.5 C 1326.5,413.5 1326.5,417.5 1326.5,421.5C 1314.17,421.5 1301.83,421.5 1289.5,421.5C 1289.5,451.833 1289.5,482.167 1289.5,512.5C 1284.5,512.5 1279.5,512.5 1274.5,512.5C 1274.5,482.167 1274.5,451.833 1274.5,421.5C 1262.17,421.5 1249.83,421.5 1237.5,421.5C 1237.5,417.5 1237.5,413.5 1237.5,409.5C 1267.17,409.5 1296.83,409.5 1326.5,409.5 Z"/></g>
<g><path style="opacity:1" fill="#50a79e" d="M 1375.5,408.5 C 1381.5,408.5 1387.5,408.5 1393.5,408.5C 1406.5,440.668 1420,472.668 1434,504.5C 1435.14,507.432 1435.98,510.432 1436.5,513.5C 1430.79,513.829 1425.13,513.495 1419.5,512.5C 1416.83,506.167 1414.17,499.833 1411.5,493.5C 1393.18,492.334 1374.84,492.167 1356.5,493C 1353.31,499.583 1350.31,506.25 1347.5,513C 1341.84,513.499 1336.18,513.666 1330.5,513.5C 1345.01,478.312 1360.01,443.312 1375.5,408.5 Z"/></g>
<g><path style="opacity:1" fill="#605180" d="M 229.5,418.5 C 216.295,419.201 202.962,419.868 189.5,420.5C 189.611,419.883 189.944,419.383 190.5,419C 203.496,418.5 216.496,418.333 229.5,418.5 Z"/></g>
<g><path style="opacity:1" fill="#fdfefe" d="M 939.5,420.5 C 968.96,422.137 982.794,437.804 981,467.5C 976.397,492.9 961.23,503.734 935.5,500C 922.702,496.535 914.535,488.369 911,475.5C 905.829,457.041 909.995,441.208 923.5,428C 928.366,424.25 933.699,421.75 939.5,420.5 Z"/></g>
<g><path style="opacity:1" fill="#b7dbd7" d="M 1161.5,422.5 C 1150.83,422.5 1140.17,422.5 1129.5,422.5C 1129.5,435.5 1129.5,448.5 1129.5,461.5C 1139.83,461.5 1150.17,461.5 1160.5,461.5C 1150.01,462.494 1139.35,462.828 1128.5,462.5C 1128.5,448.833 1128.5,435.167 1128.5,421.5C 1139.68,421.172 1150.68,421.505 1161.5,422.5 Z"/></g>
<g><path style="opacity:1" fill="#fdfefe" d="M 1161.5,422.5 C 1170.96,424.468 1175.29,430.301 1174.5,440C 1175.68,451.165 1171.02,458.332 1160.5,461.5C 1150.17,461.5 1139.83,461.5 1129.5,461.5C 1129.5,448.5 1129.5,435.5 1129.5,422.5C 1140.17,422.5 1150.83,422.5 1161.5,422.5 Z"/></g>
<g><path style="opacity:1" fill="#b2d8d4" d="M 712.5,421.5 C 693.341,422.497 674.007,422.83 654.5,422.5C 654.5,434.167 654.5,445.833 654.5,457.5C 654.167,457.5 653.833,457.5 653.5,457.5C 653.5,445.5 653.5,433.5 653.5,421.5C 673.167,421.5 692.833,421.5 712.5,421.5 Z"/></g>
<g><path style="opacity:1" fill="#a6d2cd" d="M 1326.5,409.5 C 1327.48,413.634 1327.82,417.968 1327.5,422.5C 1315.17,422.5 1302.83,422.5 1290.5,422.5C 1290.5,452.833 1290.5,483.167 1290.5,513.5C 1284.83,513.5 1279.17,513.5 1273.5,513.5C 1273.5,483.167 1273.5,452.833 1273.5,422.5C 1261.32,422.828 1249.32,422.495 1237.5,421.5C 1249.83,421.5 1262.17,421.5 1274.5,421.5C 1274.5,451.833 1274.5,482.167 1274.5,512.5C 1279.5,512.5 1284.5,512.5 1289.5,512.5C 1289.5,482.167 1289.5,451.833 1289.5,421.5C 1301.83,421.5 1314.17,421.5 1326.5,421.5C 1326.5,417.5 1326.5,413.5 1326.5,409.5 Z"/></g>
<g><path style="opacity:1" fill="#fbfdfc" d="M 1404.5,478.5 C 1390.5,479.833 1376.5,479.833 1362.5,478.5C 1369.39,461.666 1376.55,444.999 1384,428.5C 1391.13,445.085 1397.96,461.751 1404.5,478.5 Z"/></g>
<g><path style="opacity:1" fill="#a89fb9" d="M 253.5,449.5 C 250.829,451.118 247.829,451.785 244.5,451.5C 247.273,450.343 250.273,449.676 253.5,449.5 Z"/></g>
<g><path style="opacity:1" fill="#cbc6d5" d="M 190.5,452.5 C 204.088,453.481 217.754,453.815 231.5,453.5C 224.842,454.166 218.008,454.5 211,454.5C 203.799,454.497 196.966,453.83 190.5,452.5 Z"/></g>
<g><path style="opacity:1" fill="#c1dfdc" d="M 778.5,409.5 C 778.5,409.167 778.5,408.833 778.5,408.5C 784.167,408.5 789.833,408.5 795.5,408.5C 795.5,424.5 795.5,440.5 795.5,456.5C 815.167,456.5 834.833,456.5 854.5,456.5C 854.17,440.658 854.504,424.991 855.5,409.5C 855.5,425.5 855.5,441.5 855.5,457.5C 835.167,457.5 814.833,457.5 794.5,457.5C 794.5,441.5 794.5,425.5 794.5,409.5C 789.167,409.5 783.833,409.5 778.5,409.5 Z"/></g>
<g><path style="opacity:1" fill="#76bbb3" d="M 653.5,457.5 C 653.833,457.5 654.167,457.5 654.5,457.5C 672.833,457.5 691.167,457.5 709.5,457.5C 709.5,461.833 709.5,466.167 709.5,470.5C 690.833,470.5 672.167,470.5 653.5,470.5C 671.659,469.503 689.992,469.17 708.5,469.5C 708.5,465.833 708.5,462.167 708.5,458.5C 689.992,458.83 671.659,458.497 653.5,457.5 Z"/></g>
<g><path style="opacity:1" fill="#bededa" d="M 586.5,467.5 C 586.5,482.833 586.5,498.167 586.5,513.5C 580.642,513.822 574.975,513.489 569.5,512.5C 574.833,512.5 580.167,512.5 585.5,512.5C 585.171,497.324 585.504,482.324 586.5,467.5 Z"/></g>
<g><path style="opacity:1" fill="#84c1bb" d="M 461.5,457.5 C 480.167,457.5 498.833,457.5 517.5,457.5C 517.5,461.833 517.5,466.167 517.5,470.5C 498.833,470.5 480.167,470.5 461.5,470.5C 479.659,469.503 497.992,469.17 516.5,469.5C 516.5,465.833 516.5,462.167 516.5,458.5C 497.992,458.83 479.659,458.497 461.5,457.5 Z"/></g>
<g><path style="opacity:1" fill="#a8d4cf" d="M 1362.5,478.5 C 1376.5,479.833 1390.5,479.833 1404.5,478.5C 1405.04,478.56 1405.38,478.893 1405.5,479.5C 1390.83,480.833 1376.17,480.833 1361.5,479.5C 1361.62,478.893 1361.96,478.56 1362.5,478.5 Z"/></g>
<g><path style="opacity:1" fill="#685986" d="M 253.5,485.5 C 248.17,487.667 242.503,488.667 236.5,488.5C 241.959,487.049 247.626,486.049 253.5,485.5 Z"/></g>
<g><path style="opacity:1" fill="#add5d1" d="M 445.5,409.5 C 445.5,443.833 445.5,478.167 445.5,512.5C 470.833,512.5 496.167,512.5 521.5,512.5C 496.005,513.498 470.339,513.831 444.5,513.5C 444.168,478.663 444.502,443.996 445.5,409.5 Z"/></g>
<g><path style="opacity:1" fill="#9bcdc8" d="M 1450.5,408.5 C 1456.17,408.5 1461.83,408.5 1467.5,408.5C 1467.5,438.833 1467.5,469.167 1467.5,499.5C 1485.17,499.5 1502.83,499.5 1520.5,499.5C 1520.5,504.167 1520.5,508.833 1520.5,513.5C 1497.17,513.5 1473.83,513.5 1450.5,513.5C 1450.5,478.5 1450.5,443.5 1450.5,408.5 Z"/></g>
<g><path style="opacity:1" fill="#4ca59c" d="M 1451.5,409.5 C 1456.5,409.5 1461.5,409.5 1466.5,409.5C 1466.5,439.833 1466.5,470.167 1466.5,500.5C 1484.17,500.5 1501.83,500.5 1519.5,500.5C 1519.5,504.5 1519.5,508.5 1519.5,512.5C 1496.83,512.5 1474.17,512.5 1451.5,512.5C 1451.5,478.167 1451.5,443.833 1451.5,409.5 Z"/></g>
</svg>
