<?xml version="1.0" encoding="UTF-8"?>
<svg version="1.1" viewBox="0 0 2048 454" width="1720" height="382" xmlns="http://www.w3.org/2000/svg">
<path transform="translate(209,3)" d="m0 0h7l1 1 205 1v-2h19l6 3 4 1 1 4 1 1v25l-2 2-1 9-1 5 1 1v32h3v46l-3 1v16h-2v99l-1 15-2 3h-2v16l-2 2-1 11-4 5-1 8-2 2-1 8h-2l-1 7-4 3-1 8h-3v6h-3l-1 5-2 3h-2v5h-3v5l-4 2-1 4h3v2l-7-1v4h2v2l-6 1v2l-3 1v6l-4-1v4l-3 1-1 2h2v2l-5 1 1 2-4 1v2l-3 1v4h-5l-4 2-1 3h-4v3h-3l1 3-6 3 3 1v1h-5v3l-6 1-1 3-8 1-2 5-8 4-10 2 1 2-6 2-9 1 1 2h-5l-3 3-16 3-7 4h-273v-296l2-7 5-1 4-10 2-7h-3l1-4 5 2 1-5 8-13 8-11 4-8 4-2 2-5 3-2 1-4h3l1-6 4-2h3l1-4 4-4v-5h5v-3l2-1 1-3h3v-3h5v-3l7-2 1-3h3v-3l7-4 5-3h2l1-3 7-2 11-5 1-1h5v-2l6-3 12-2 8-3 10-2 7-2 35-3zm54 51-52 1-5 2-10 2h-5-3l-10 5-19 4-5 3v2h-6l-1 4-6 2-11 6-6 1-1 4-7 1 1 5-5-1-4 5h2v3l-4 1v3l-5-3v3l-4 1-2 4-2 1v4h-3v3l-2 1 2 1h-5l-1 4-2 1 1 8-4-2-2 6-3-1v9h-3l-1 3-4 1v10h2v2l-5 1-2 5-2 2-1 12h3v8h-4v-6h-3v11h2l-1 19h-2l-1-7h-1v62l2 17h3v10l4 2 1 10h3v-3l5 1v3l6 1v5h5v-16h3l1-16 1-1 2-75 3-3 1-12 2-4 2-10 5-12 4-3 2-8 3-1v-3l3-2-1-5 9-4-1-5 6-2 1-4 4-2v-2l4-1 2-2v-3l5-1 2-3 9-2v-2l4-1 4-2 5-2v-2l9-1 3-3 14-2 11-2 157 1v5l-1 1v29h3v39h-3l-2 7v38l2-1v-12h3v24l-4 2-1 1-1 27h-3l-1 4v9h-2l-3 12-2 2-1 5-2 1-1 7-3 1v4l-5 2v5h-3v5h-3l-7 8-5 5-2 3h-2v3h-3v3l-4 1-9 7-3 2 1 2-9 2-4 2v2h-9l-5 4-5-1v2h-8v2l-24 1h-4-12l-1 1h-36l-5-2-7-1 3-1v-37h-2l1-7 10-4 3-2h29l19-4-1-3h9l2-4h-30l-4-2h-5v-7l-14-4-2-2h-6v-5l-3-1-1-3-7-3 7-1v-2l-2-1 3-3 3-1v-5h3v-3h3l2-7 3-10v-23h-3v-12l-5-1v-5h-3v-3l4-2 1-1h17l6 3 17 1 13-1 8-3 6-3v-3l22 1 5 1-1 2-5 1 1 8-4-1 1 8h-6v8h-3v13h-2v6l1 1 1 14 2 3 1 10 4 3h2l-1 4-5 3-2 1-7-2-13-6-8-1h-10l-4 2-7 2-4 1v3l-3 1 6 1 1 3 10 1 28 1 5 4h20l9-4 5-5v-2l5-2 3-7 1-1v-7l-1-2 4-2v-28l-1-67-3-3 1-3-9-1h-58l-13 1v2l-9 1-1 1-9 1-2 2-5 1v2l-4 1-2 1v3h-5l-6 5-1 2-6 1 1 2-4 2 1 6-4-3h-2l1 7h-2l-2-2-2 5-3 7v3l3 2-3 3-1-4h-2v7l1 5-3 2 4 1-1 11-3 2-1 4 1 40 3 1 1 4 4 1v11h-4v8l2 1-2 1-1 10-3 3v53h2v8h-2v27l4 2h81l1-1 9-1 3-2 7-1 3-1 12-2 4-3 1-2 6-1 9-3 16-6v-3l5-1 3-1v-3h5l6-2 1-2 5-2 10-7 4-2v-2l7-3 1-4h3l4-6 2-2-1-5 4-1-1-4h3v-3h3l3-8v-5l2-3 1-3 2-1 2-5 4-2 5-12 1-6h2l4-20v-26l1-9v-4l-1-85-1-1v-38l3-1v-36l-4-6-16-1zm-191 3m42 87 1 2zm55 23 2 2v-2zm-26 47v9l2 1-1-10zm117 70 1 4-7 1v1h15l1-4 4-2z" fill="#392361"/>
<path transform="translate(1105)" d="m0 0h10v2h4v-2h37l4 2 28 1 1 3h15l6 2h7l5 2 8 1 1 3 9 2 1-11h7v-2h9 2 41l1 1 35 1v-2h115l9 3 3 2-2 5h-3v31l-2 2h-76v9l-1 1-1 12v154l1 8 1 1v13l-3 3-47 1-7-2-1-105v-92l-2-1-17-1-34 1-16 1-10-3-2-6-1-12h-4l-6 1-2-2-1 4h-3v6h-3v5l-4 2-2 5-2 6h-2v2l-3 1h-12l-5-2-8-3-26-2-1-2-43 1-13 3-5 1-1 3-3-1-3 3v18l6 5v2l5 1v3l11 1 1 2 11 2 9 3 17 1 4 1 13 1 1 2 8-1 5 2 1 2 6 1 4 2v2h8l5 3v3h6v2l5 1 2 4 8 8v3h3l1 6 4 1v6h3v9l3 1 2 5v33l-2 7-2 1-1 7-2 2-2 6-3 1-1 4-2 1-1 4-5 3h-3l-1 4-1 3-7 2-10 4-3 1-1 2-15 3-1 1-12 1h-49l-17-1-10-2h-11v-3h-11l-9-2-8-4v-2l-8-1-3-1-1-3-4-2v-4l-3-1v-3h3v-5h3l1-5 2-1 2-7 6-5 2-4 3-5h3l1-4 9-1 5 1v4l5 1 7 4 19 6 23 4h30l8-2 1-3 5-2 9-9 1-2v-14l-1-4-3-3v-2l-5-1-6-3-3-3-23-5-22-4-4-1-17-1-11-3-34-17v-4h-3l-3-6v-2l-5-1-3-3-2-9-3-1-3-7-2-14v-14l3-12 2-6h3v-6l8-11 2-4 5-3 2-4h4l1-3 9-5 8-3 5-2 10-2 1-1 13-1zm111 10m-95 36v1h16v-1z" fill="#392361"/>
<path transform="translate(1584,3)" d="m0 0h49l1 1 9 2 3 4 2 5 3 3v4h3v7l4 1 1 5 4 1 1 4 2 1v6h3l1 5 4 2 2 5 1 1v5h3l2 5 3 4v4h3l1 5 4 3 1 4 2 1v4h3v7l4 1 2 5 2 1 3 6 1 4 4 2 1 4 3 2v4h3l3 6 3 1 1 3 3 3h-2v3l6-1v3h-2l6 12 2 2 1-1 1-9 2-6 1-17 1-1v-9l-1-1v-6l1-2v-10l-1-1-1-19-1-9-1-1v-41l2-7 1-14 4-3h2l1-3h28l1 1 19 1 3 2v5l-3 1v187l-1 3v29l1 1v12l-3 2h-70l-3-3-1-4-5-2v-3-2l-2-1 1-1-5-4-2-5-6-5-1-8h-3v-5l-4-1-4-5v-5l-4-1v-5l-4-1v-3l-4-1-1-4-4-2-4-5-1-3-2-1v-6l-3-1v-4l-5-1-2-3-1-12-3-1v-2h-3l-2-4-3-1-9 3-3 5v105l-2 2h-52l-3-7v-3l-4-1-3-5v-60l3-1v-42h-3l-1-19-2-15v-11l2-5v-18l-1-4-1-6v-11h-2v-8h2v-13l7-12 4-1zm0 10-4 9v24l3 8 1 64h1v-105z" fill="#3A2462"/>
<path transform="translate(731,3)" d="m0 0h38l1 1h55l1-1h10l6 3 6-1h8l2 2 9 1 8 3v2l5 1 5 4 3 1v3l5 1v3h3v3l4 1 4 6v4h3l1 7h2l2 4 1 15h2v25l-2 4-1 12-1 3-2 1-1 7-4 1v5l2 2h-4l-3 4h-3l-2 8-8 2-2 3-15 6h-3v6l4 2 4 6 2 5 1 5 5 2v5h3l3 5v6l4 1 2 5 2 1v4l4 2 1 5h3v6l4 1-1 4 5 2 1 4 2 1 1 4 3 1v6l4 2h3 2v5l-8 3h-53l-9-4-2-1-1-7-3-5-2-1v-5l-5-1v-5l-4-3 1-2-2-1-3-7-4-5-3-2v-3l-5-2v-6h-3l1-4-3-3-1-3-2-1v-2h-3l-2-7-4-2-1-6-7-3h-19l2 9-3 1v37l4 1v41l-8 2h-45l-11-3-1-2h6v-119l-2-1-1-18v-91l-3-3 1-5 4 1 1-2zm143 10m-84 31-2 5h-4l-1 5-4-3v59l5-1v5l3 1h32l10-1 5-3 10-4 1-3 4-2 4-5v-6l3-1v-15h-3l2-5-2-1-1-11h-2l-2-4-10-5-9-2-13-1-1-2z" fill="#392361"/>
<path transform="translate(1149,298)" d="m0 0h28v2l11 2 6 2 10 5 5 4h5l-1 3 3 2 1 3 4 2 1 3 2 1v4h3l2 5 11 1 1-11 3-1 1-6 3-2 1-4 6-4 2-3 14-5 8-3h38v2h22l6 4 18 1h10v-2l-2-1 7-2 19-1 1-1h38v2h9l6 1 5-1 6 2v2l5 1 2 2h4l5 2 1 2h-4l1 2h5v3l3 2-1 6h3l2 11v16l-2 13-3 1 1 9-3 1v-2h-2v3l-7 6-6 4h-6v2l-9 2-1 1-43 1v47l-4 2-13 1-14-1-2-3-1-11-3-2-1-11-2-1v5h-3v3h-6l1 8-8 4-3 3-7 2-1 1h-5v2l-7 2h-49l-21-5-2-2-5-2-8-6-2-3 4-5v-8h4v-3h3v-2l8-1 5-1 10 5v3l7 1h28l1-1h14v-3h3v-14h-3l-1-3-4-2v-2l-4-1-17-5-2-1-15-1-5-2-8-1-1-3h-7l-2-4-3-1v-3l-6-2v-2l-8-2-3 3-1 12-2 4-1 16-2 1v12h-6l-1 4-1 5h-4l-1 4h-4v4h-3l1 4-9 1 1 4-11 4-7 2-5 2h-47l-3-3-9-2-1-2-8-4-1-3-5-2-3-3v-3l-6-1v-3h-3l-2-7-3-3-1-5-2-1-1-8-1-1-1-9-1-2 1-24-5-1 4-2 2-7h2v-8l2-1 1-7 4-1 1-4 5-3 7-6 1-3 8-4 2-4 7-1v-2l14-2zm215 8v4h5v-4zm108 2m-317 13-6 3-7 3-1 3-5 1-7 8-2 4-3 1-2 12-1 1v30l2 2 1 9 4 3 1 4h3l1 4 3 3 5 3h9v2h17l1-1 10-1 6-2v-3h4l2-4 2-1 3-5 4-4 1-2 1-16v-15l-1-12-2-2h-3l1-4-6-9-2-4-8-2-1-3-8-2v-2zm252 0v45h2v-2l3 2h20l14-1 4-2 5-8 2-4v-10l-3-6-3-3-2-5-12-3v-2l-2-1h-23-4zm-50-11-2 7-2 5-1 3-3 1-2 4h-8l-9-2-2-2-16-3h-14l-16 3-5 5v14h3l2 5 8 3h6v2l18 3h11v2l3 1 5-1v3l7 2 3 3 6 2v3l6 3v-3h4l-2 5v3l6 1v3l-2 1v6h2l2-4 4 1 5-2v-2h-2v-4l3-1-2-9 1-1v-8l-3-2-1-47-4-2zm-122 44v7h2v-7zm7 1v3l4-1v-2zm125 37v5l3 1v-5z" fill="#FEFEFE"/>
<path transform="translate(1846,3)" d="m0 0h160 4 8l2 1 14 1v2l4-1v40l-6 1h-111l-9 1h-4l-3-1v13l-1 4-1 7v23l2 11v7h120l8 3-1 36-2 2-5 1h-91l-29-1v12l-1 4v21l1 1 1 14 5-1 3 1 124 1 10 3v10h-3v7l-1 1-1 8h5v10l-11 3-58-1h-31v-2l-22 1-4 1h-40l-27 1-8-3v-5h-5v-5h-6v-21h6v-7l2 1 2 13 3 8 5 9-3-11-2-10 3 2 2-7v-43l-1-1v-23l1-1 1-55h-2l-1-76-1 1-1 11-1 122h-2v-113h-2l1-5 1-16 3-5-7 6-1 95v64l-2 7h-1l-2-7h-6v-4h3v-70h-3v-37l2-2 1-50 2-5 9-1z" fill="#392361"/>
<path transform="translate(227,53)" d="m0 0h27l9 1v1l-52 1-5 2-10 2h-5-3l-10 5-19 4-5 2v2h-6l-1 5-6 2-11 6h-6l1 3-2 2h-7l1 5h-5l-3 3 2 4-5 1v3l-4-2-1 2-4 2-1 3 2 1h-4l-1 4h-3l1 6h-5l-2 4h-2l1 8-3-1-3 6-3-2 1 9-2 1-2-1-1 4h-4v10h2l1 3h-6l-1 5-2 2-2 12h3v8h-4v-6h-3v11h2v19h-4v55l1 17h3v10l4 1 1 1 1 10 2-3 5 1v3l3-1 3 2v5h5v-16h3v-16l1-1 2-75 3-3 1-12 2-4 2-10 5-12 4-3 3-9h3v-3l-3-1 5-1-1-5 7-4h3l-1-5 6-3 1-4 3-1 1-2 5-3 1-3 4-1 3-4 9-1v-2l3-2v-1l6-2h4v-2l9-2 3-3 14-2 11-2 155 1 3 3-1 4v21l-1 8h3v39h-3v6l-1 1v32l1-7h3v24l-4 3-1 22-1 5h-3l-1 13h-2l-1 10-3 4-2 6h-2l-1 7-2 1-1 4-4 2-1 5h-3v5h-3l-2 4-3 1-2 5-5 4v3l-4-1v3h-3v3l-5 3-10 7v2l-12 4-1 2-9 1-5 4-5-2v2h-8v2l-24 2h-4-12l-1 1h-36l-5-2-10-2v-1h6l-1-6 1-31h-2v-7l2-2 9-3 3-2h29l18-4v-2l9-1 2-3-12 1h-18l-9-3v-7l-9-2-6-2-7-2v-5l-4-1v-3l-7-2-1-2h8v-2l-3-1 4-4h3v-5h3v-3h3v-6l3-9 1-2 1-23h-3l-1-12-4-1v-5h-3v-3l5-4h17l6 3 17 1 13-1 8-3 5-2 1-3h22l5 2-1 3-4 1 1 4-1 3h-3v7h-6v8h-3v13h-2l2 7 1 14 2 3 1 10 5 3-1 5-5 3-2 1-7-2-13-6-8-1h-10l-4 2-7 2h-4v3l4 2v3l38 1 5 4h20l8-3 6-7 5-2 1-6 2-2v-7-3l4-1-1-20-1-75-3-3 2-3h-80v2l-9 2-1 1-9 1-2 2h-5v2l-6 2v3l-8 2-1 3h-2l-1 3-5 1 1 2-4 1v6l-6-3 2 7h-4l-3 4-3 9 4 2-2 3h-2l-1-3-2-1 1 7 1 5v2l1 3-1 9-3 2-1 4v40l4 1v4l5 1-1 11h-4v8l3 1-3 1v10l-3 3-1 53h2v8h-2v27l4 1h81l1-1 9-1 3-2 7-1 3-1 12-2 5-4 8-3 7-2 8-3 5-2h3v-3l5-2h3v-3l6-2h5l1-3 5-2 10-7 3-2 1-2 7-2 1-4h3l2-5 3-3v-5l4-1-1-4h3v-3h3l1-4 1-9 2-3 2-4h2l1-5 4-2 5-12 1-7h2l4-19v-26l1-9v-4l-1-85-1-1v-38l4-1-1-36-3-5-16-1-1-2h19l9 1v191l-2 1-3 20-4 17-7 19-10 20-8 12-11 14-7 8-8 7-10 9-15 10-10 6-15 7-19 6-17 4-23 3-92 1v-189l2-12 6-16 5-9 9-11 10-10 18-10 8-3 19-4h90v99l-4 16-7 15-4 7-5 5-5 6-12 9-15 8-11 3-15 2-47 1-3 1 1 42 2 2h57l17-3 21-7 15-8 12-8 12-10 7-8 8-10 12-21 7-21 3-16 1-150h-133l-21 2-19 5-13 5-12 6-13 9-13 12-10 11-4 6-6 10-8 16-6 21-2 12-1 240h-48l2-4 1-227 2-22 5-22 8-22 10-19 11-16 11-13 13-13 17-13 7-5 16-8 20-8 18-5 12-2zm-113 91 1 2zm55 23 2 2v-2zm-26 47v9l2 1-1-10zm117 70 1 4-7 1v1h15l1-4 4-2z" fill="#FEFEFE"/>
<path transform="translate(509,298)" d="m0 0h134l1 1 9 1 2 4-1 1 3 3v6l3 1v4h3l3 5 6 11 4 2 2 5 5 3 5-2 1-4 3-3h3l2-5 3-7h2l2-5 3-3 3-7 1-7 5-2 56-1 1-1h41l1 1h34 4l7 2 5 2 1 4-1 5 1 7-8 4h-39v-2l-14 1-1 1-12 1-1 1-1 27h-2l4 8v2l46 1 2 1h9l13 2 1 1v7l-1 4 1 4-4 3-3 1-15 1-9-1-1-1h-32l-7 2h-2v22h-2l1 5 5 2 1 1 65 1 7 3-1 20-12 1h-92l-9-3 2-4 1-7-3-1v-7l2-1v-15l-2-2v-9l3-1v-17l-3-1v-59l-12 1-1 4h-2l-2 5-3 3-2 4-1 5v2l-5 2-3 3-1 6h-3l-1 4-3 4-1 5h-3v5h-3v5l-5 2-1 5-2 4-1 57-7 2h-16l-7-2-2-6 1-1v-49l-1-5-3-1-2-6-3-1-2-5-1-4-4-1-3-8-1-4h-2l-2-5-4-1-2-9-5-5-3-6-1-4-17 2-3 3-13-1h-49l-4 1-1 10-3 1v22h3v2l-2 1 27 1h38l5 3 1 1 1 8v3 5l1 2-7 2h-35l-5-1h-17v2l-7 1v28l18 1 51 1 1 1 9 1v16l-5 5-86 1h-22l-4-1v-141zm111 18 4 1z" fill="#FEFEFE"/>
<path transform="translate(1953,298)" d="m0 0h46 4l11 2 6 4 4 1 8 5v6l-3 4h-2v5l-5 4h-16l-6-2-11-1v-2h-18l-4 2-11 2-3 3-1 10 3 5v2l9 2v2l7 1v2h13v2h14v3h8l7 2 5 1-1 3 8 2-1 5 4 1 7 10 2 7 1 3 1 14v3l-3 3-2 7-5 10-3 1-1 4-13 4-7 3h-50l-1-1-9-1-3-2-14-1-1-1-8-1-1-3h-2v6l-2 2h-98v-2l-8 1-7 2-15 1-13-2v-3h-3l-2-6-2-3v-5l-3-1-1-6-18-2v-2h-38v3l-6 3-2 7-4 9-2 5-1 1-9 1h-19l-7-3-1-1 1-9h4l-1-11 2-1-2-2 4-2 1-4 2-1 1-4h-3v-6l7-5 1-2h3v-6l3-1 1-5 5-3-1-6 2-1 1-7 4-1 1-6h2l1-7 6-9 4-13 4-6v-3l2-3 1-2-2-1v-3l6-2 1-4h4v-2h28v2l5 2 1 6 3 5 1 7h2l2 7 3 5 2 5 2 2-1 6 3-2 4 1 3 4v7l-3-1v-4h-3l1 4 4 3-1 5h2l1-3 2 1 1 7 4 2v7h-3l2 4 4 1v9l4 5h-2v3h6v3h3l1 8 3 2v3l6-2 1-63 1-1h6v-45l3-3h20l3 1 1 40 2 2v70l7 2h65l2-1 1-7 4-2h3v-2h7l1 1 8 1v3l6 1 13 3 8 2 8 1v-2l7 1 8-4 8-3-1-14-3-3-9-4-18-4-7-2h-4l-1-1-12-2-10-5-10-4-1-2 1-2h-2l-4-5-3-5v-7l-5-1v-18l5-1 1-6-1-2h3v-5l3-2 2-7 9-5 6-2h11zm-221 60-4 2v6l-5-1 1 9-5-1 1 12-3 1 1 4 2 1h27l4-3-1-4-2-1-1-5h-3v-12h-3l-2-6-4-2zm48 13m-64 11 1 2z" fill="#FEFEFE"/>
<path transform="translate(511,3)" d="m0 0h38v2l43-1 1-1h31l1 2h14l5 2-1 2 12 1 4 3 6 2v3l3 1v2l4 1 4 2 1 3 6 5v5l4 2 1 3 3 2v9h2l2 7v39l-2 7-1 1-1 9-3 1-1 7-4 1 1 8-5-1-2 5-1 3h-5v3l-5 3-3 3-8 3-5 3-2 1-9 1-2 2h-13l1 3h-63v83l-4 2-49 1-5-3v-11l1-4v-9l1-2h-2l-1-212 6-2zm57 41-1 2h-5l-1 6v37l1 31 2-1h6l1 1h30l2-1 16-2 5-3v-2l4-1v-4l5-1v-6h4l1-13 1-6v-7l-2-3v-8l-4-3-5-2-2-5-6-2-4-4-7-1h-15l6-1v-1z" fill="#392361"/>
<path transform="translate(1251,6)" d="m0 0h203l1 2v36l-1 1h-78l-1 200-1 1h-44l-1-1v-200h-79l-1-2v-34z" fill="#392361"/>
<path transform="translate(1484,3)" d="m0 0h21v2h27l4 2v10l-1 8v74l1 8v139l-3 1h-51l-3-2-1-26-1-1-1-207 1-4 6-2z" fill="#3C2663"/>
<path transform="translate(956,3)" d="m0 0h37l12 5v2h-5v235l-3 3h-50l-3-5v-3l-3-1 3-1-1-11-1-1v-31h2l-1-78-1-1-1-14v-24l1-56 1-1v-12l3-3 9-2z" fill="#392361"/>
<path transform="translate(1520,298)" d="m0 0 3 1h21l1-1h19l1 1 91 1 1 1 7 1 2 2-2 16-2 1-34 1-1 1h-11v118l-10 1h-15l-7-3-1-15-3-1v-19l4-1-1-78-1-1-40-1-7-2-2 4v107l-1 7-2 2-4 1h-22l-5-2-2-5v-130l3-5 19-1z" fill="#FEFEFE"/>
<path transform="translate(944,300)" d="m0 0h23l5 2v60l29 2h8l3-1 20-1 3-1 3-5v-18l-1-5 1-1v-14l-2-7v-8l8-3h20l7 2 1 54 1 1v7l-1 1-1 74-2 2-4 1h-19l-9-3-1-3v-37l-4-1-1-5 5-1-2-3-12-1-3-1-17-1-1-1h-19l-1 1h-7l-1 3v50l-2 2-5 1h-17l-8-1-2-4-1-17-1-4v-24l1-1v-20l-2-3 2-2v-58l2-5z" fill="#FEFEFE"/>
<path transform="translate(1105)" d="m0 0h10v2h4v-2h37l4 2 28 1 1 3h15l6 2h7l5 2 8 1 1 3 9 2 1-11h7v-2h9 2 41l1 1 35 1v-2h115l9 3 3 2-2 5h-3v31l-2 2h-76v9l-1 1-1 12v154l1 8 1 1v13l-3 3-47 1-7-2-1-105v-92l-2-1-17-1-34 1-16 1-10-3-2-6-1-12h-4l-6 1-2-2-1 4h-3v6h-3v5l-4 2-2 5-2 6h-2v2l-3 1h-12l-5-2-8-3-26-2-1-2-43 1-13 3-5 1-1 3-3-1-3 3v18l6 5v2l5 1v3l11 1 1 2 11 2 9 3 17 1 4 1 13 1 1 2 8-1 5 2 1 2 6 1 4 2v2h8l5 3v3h6v2l5 1 2 4 8 8v3h3l1 6 4 1v6h3v9l3 1 2 5v33l-2 7-2 1-1 7-2 2-2 6-3 1-1 4-2 1-1 4-5 3h-3l-1 4-1 3-7 2-10 4-3 1-1 2-15 3-1 1-12 1h-49l-17-1-10-2h-11v-3h-11l-9-2-8-4v-2l-8-1-3-1-1-3-4-2v-4l-3-1v-3h3v-5h3l1-5 2-1 2-7 6-5 2-4 3-5h3l1-4 9-1 5 1v4l5 1 7 4 19 6 23 4h30l8-2 1-3 5-2 9-9 1-2v-14l-1-4-3-3v-2l-5-1-6-3-3-3-23-5-22-4-4-1-17-1-11-3-34-17v-4h-3l-3-6v-2l-5-1-3-3-2-9-3-1-3-7-2-14v-14l3-12 2-6h3v-6l8-11 2-4 5-3 2-4h4l1-3 9-5 8-3 5-2 10-2 1-1 13-1zm6 3-14 2-15 4-12 5-11 7-10 9-7 10-5 11-2 8-1 17 2 15 5 13 3 3 3 6 11 11 13 8 11 5 16 5 20 4 30 4 15 4 12 5 10 8 4 8v12l-3 9h-2l-4 4-8 4-11 3-10 1-26-1-25-4-9-3-17-7-9-6h-4l-8 13-8 11-7 11-1 5 5 4 12 6 21 6 29 5 12 1h51l12-2 18-6 11-6 12-9 10-14 5-13 2-13v-14l-3-17-5-12-7-10-4-5-10-8-14-8-15-6-22-5-34-5-15-4-12-5-8-6-4-7-1-9 3-8 8-6 8-3 19-2h31l34 4 13 4 7 1 10-14 12-19v-4l-10-5-20-5-22-3-39-2zm140 3-2 3v34l1 2h79v200l1 1h44l1-1 1-200h78l1-1v-36l-1-2zm-35 4m-95 36v1h16v-1z" fill="#FEFEFE"/>
<path transform="translate(1584,3)" d="m0 0h49l1 1 9 2 3 4 2 5 3 3v4h3v7l4 1 1 5 4 1 1 4 2 1v6h3l1 5 4 2 2 5 1 1v5h3l2 5 3 4v4h3l1 5 4 3 1 4 2 1v4h3v7l-4-4-12-20-12-19-16-26-7-11-9-14-1-1h-51l-5 14-1 1v24l3 8 1 64 1 26v101l46 1v-164l4 5 11 18v2h2l5 9 1 4h2l5 9 4 6 4 7 2 3v3l3 1 3 6 9 14 11 18 6 9 15 25 8 13 6 9v2l18 1v1h-22l-3-3-1-4-5-2v-3-2l-2-1 1-1-5-4-2-5-6-5-1-8h-3v-5l-4-1-4-5v-5l-4-1v-5l-4-1v-3l-4-1-1-4-4-2-4-5-1-3-2-1v-6l-3-1v-4l-5-1-2-3-1-12-3-1v-2h-3l-2-4-3-1-9 3-3 5v105l-2 2h-52l-3-7v-3l-4-1-3-5v-60l3-1v-42h-3l-1-19-2-15v-11l2-5v-18l-1-4-1-6v-11h-2v-8h2v-13l7-12 4-1z" fill="#FEFEFE"/>
<path transform="translate(209,3)" d="m0 0h7l1 1 205 1v-2h19l6 3 4 1 1 4 1 1v25l-2 2-1 9-1 5 1 1v32h3v46l-3 1v16h-2v99l-1 15-2 3h-2v16l-2 2-1 11-4 5-1 8-2 2-1 8h-2l-1 7-4 3-1 8h-3v6h-3l-1 5-2 3h-2v5h-3v5l-4 2-1 4h3v2l-7-1v4h2v2l-6 1v2l-3 1v6l-4-1v4l-3 1-1 2h2v2l-5 1 1 2-4 1v2l-3 1v4h-5l-4 2-1 3h-4v3h-3l1 3-6 3 3 1v1h-5v3l-6 1-1 3-8 1-2 5-8 4-10 2 1 2-6 2-9 1 1 2h-5l-3 3-16 3-7 4h-30v-1l20-3 25-6 19-7 23-11 16-10 16-12 13-12 8-7 9-11 12-16 10-16 8-16 8-19 7-24 4-22 1-10v-244h-234l-21 2-20 4-20 6-18 7-16 8-15 9-14 10-11 9-19 19-9 11-9 13-8 13-9 17-9 23-6 23-3 15h-1v-38l2-7 5-1 4-10 2-7h-3l1-4 5 2 1-5 8-13 8-11 4-8 4-2 2-5 3-2 1-4h3l1-6 4-2h3l1-4 4-4v-5h5v-3l2-1 1-3h3v-3h5v-3l7-2 1-3h3v-3l7-4 5-3h2l1-3 7-2 11-5 1-1h5v-2l6-3 12-2 8-3 10-2 7-2 35-3z" fill="#FEFEFE"/>
<path transform="translate(731,3)" d="m0 0h38l1 1h55l1-1h10l5 3v1h-111l-1 238h46l1-91h34l6 10 18 28 14 22 8 12 11 18v2h53l-3-7-1-4h-2l-9-15-26-40-15-24-3-4v-3l16-7 11-7 9-9 6-10 5-12 2-11v-28l-4-16-6-12-11-12-13-8-16-6-16-3-2-2 6-1h8l2 2 9 1 8 3v2l5 1 5 4 3 1v3l5 1v3h3v3l4 1 4 6v4h3l1 7h2l2 4 1 15h2v25l-2 4-1 12-1 3-2 1-1 7-4 1v5l2 2h-4l-3 4h-3l-2 8-8 2-2 3-15 6h-3v6l4 2 4 6 2 5 1 5 5 2v5h3l3 5v6l4 1 2 5 2 1v4l4 2 1 5h3v6l4 1-1 4 5 2 1 4 2 1 1 4 3 1v6l4 2h3 2v5l-8 3h-53l-9-4-2-1-1-7-3-5-2-1v-5l-5-1v-5l-4-3 1-2-2-1-3-7-4-5-3-2v-3l-5-2v-6h-3l1-4-3-3-1-3-2-1v-2h-3l-2-7-4-2-1-6-7-3h-19l2 9-3 1v37l4 1v41l-8 2h-45l-11-3-1-2h6v-119l-2-1-1-18v-91l-3-3 1-5 4 1 1-2z" fill="#FEFEFE"/>
<path transform="translate(1846,3)" d="m0 0h160 4 8l2 1 14 1v1h-178l1 189 1 49 65 1-1 2h-40l-27 1-8-3v-5h-5v-5h-6v-21h6v-7l2 1 2 13 3 8 5 9-3-11-2-10 3 2 2-7v-43l-1-1v-23l1-1 1-55h-2l-1-76-1 1-1 11-1 122h-2v-113h-2l1-5 1-16 3-5-7 6-1 95v64l-2 7h-1l-2-7h-6v-4h3v-70h-3v-37l2-2 1-50 2-5 9-1z" fill="#FEFEFE"/>
<path transform="translate(1484,3)" d="m0 0h21v2h27l4 2v10l-1 8v74l1 8v139l-3 1-2-2v-238l-45-1 1 239 27 1v1h-32l-3-2-1-26-1-1-1-207 1-4 6-2z" fill="#FEFEFE"/>
<path transform="translate(511,3)" d="m0 0h38v2l43-1 1-1h31l1 2h14l5 2-1 2 12 1 4 3 6 2v3l3 1v2l4 1 4 2 1 3 6 5v5l4 2 1 3 3 2v9h2l2 7v39l-2 7-1 1-1 9-3 1-1 7-4 1 1 8-5-1-2 5-1 3h-5v3l-5 3-3 3-8 3-5 3-2 1-9 1-2 2h-13l1 3h-63v83l-4 2-49 1-5-3v-11l1-4v-9l1-2h-2l-1-212 6-2zm0 3-1 2v237l1 1h45l1-1v-85h58l20-3 13-4 15-8 9-7 10-13 5-11 4-14 1-9v-22l-3-16-5-12-4-6-9-10-10-7-17-7-12-3-16-2z" fill="#FEFEFE"/>
<path transform="translate(956,3)" d="m0 0h37l12 5v2h-5v235l-3 3h-50l-3-5v-3l-3-1 3-1-1-11-1-1v-31h2l-1-78-1-1-1-14v-24l1-56 1-1v-12l3-3 9-2zm-5 3-1 1-1 8v230l1 1h46v-239l-1-1z" fill="#FEFEFE"/>
<path transform="translate(1754,3)" d="m0 0h28l1 1 19 1 3 2v5l-3 1v187h-1l-1-193-45-1v185h-2l-14-23-7-11-10-16-13-21-10-16v-2l4 1 2 5 2 1 3 6 1 4 4 2 1 4 3 2v4h3l3 6 3 1 1 3 3 3h-2v3l6-1v3h-2l6 12 2 2 1-1 1-9 2-6 1-17 1-1v-9l-1-1v-6l1-2v-10l-1-1-1-19-1-9-1-1v-41l2-7 1-14 4-3h2z" fill="#FEFEFE"/>
<path transform="translate(2037,6)" d="m0 0h1v40l-6 1h-111l-9 1h-4l-3-1v13l-1 4-1 7v23l2 11v7h120l8 3-1 36-2 2-5 1h-91l-29-1v12l-1 4v21l1 1 1 14 5-1 3 1 124 1 10 3v10h-3v7l-1 1-1 8h5v10l-9 1 1-37h-138l-1-1v-54l1-2 125-1 1-3v-32l-126-1-1-1v-67l1-2 132-1 1-37z" fill="#FEFEFE"/>
<path transform="translate(730,6)" d="m0 0h104l22 3 16 5 14 8 10 9 8 11 5 13 2 10v28l-3 14-8 16-9 10-7 6-15 8-8 2-1 3-1-4 13-6 10-5 12-10 4-7h2l2-6 4-11 2-12v-25l-3-14-7-14-9-10-6-5-16-8-10-3-17-3-8-1h-100l-1 236 43 1v-92l1-1h35l8 11 12 20 6 9 10 16 7 11-1 3-7-11-8-13-11-17-10-16-6-9v-2h-34v91l-1 1h-44l-2-1v-238z" fill="#6C5B8A"/>
<path transform="translate(557,43)" d="m0 0h48l15 2 10 4 9 7 5 9 1 4v22l-4 13-7 9-5 4-9 4-12 2h-51zm11 1-1 2h-5l-1 6v37l1 31 2-1h6l1 1h30l2-1 16-2 5-3v-2l4-1v-4l5-1v-6h4l1-13 1-6v-7l-2-3v-8l-4-3-5-2-2-5-6-2-4-4-7-1h-15l6-1v-1z" fill="#FEFEFE"/>
<path transform="translate(206,52)" d="m0 0h191l3 1v192h-1v-191h-172l-31 2-20 4-21 7-19 9-10 6-12 9-11 9-13 13-10 13-10 16-8 15-9 25-4 19-2 22-1 227h-1v-238l3-21 6-22 10-23 10-17 12-14 8-10 7-6 5-5 10-8 10-7 13-8 17-8 22-7 16-3z" fill="#766692"/>
<path transform="translate(511,6)" d="m0 0h105l21 3 20 7 10 6 10 9 6 8 5 11 3 11 1 8v22l-2 14-6 16-5 8-9 11-14 9-10 5-16 4-15 2h-58v85l-1 1h-45l-1-1v-237zm1 1-1 109v42l1 87h43l1-85 51-1 27-4 13-4 16-8 10-9 10-15 5-15 2-11v-26l-4-17-6-12-8-10-11-8-10-5-12-4-18-3-9-1z" fill="#6C5B8A"/>
<path transform="translate(776,43)" d="m0 0h50l14 2 10 4 9 8 5 10 1 6v13l-4 13-6 8-5 4-8 4-12 2h-54zm14 1-2 5h-4l-1 5-4-3v59l5-1v5l3 1h32l10-1 5-3 10-4 1-3 4-2 4-5v-6l3-1v-15h-3l2-5-2-1-1-11h-2l-2-4-10-5-9-2-13-1-1-2z" fill="#FEFEFE"/>
<path transform="translate(1251,6)" d="m0 0h203l1 2v36l-1 1h-78l-1 200-1 1h-44l-1-1v-200h-79l-1-2v-34zm1 1-1 1v34l1 1 77 1 1 201h43l1-32v-168l1-1h74l4-2v-32l-1-3z" fill="#6C5B8A"/>
<path transform="translate(951,6)" d="m0 0h44l1 1v239h-46l-1-1v-230l1-8zm1 1-1 13v183l1 42h41l1-1 1-14v-213l-1-10z" fill="#6C5B8A"/>
<path transform="translate(1855,7)" d="m0 0h1l1 188 1 49 65 1-1 2h-40l-27 1-8-3v-5h-5v-5h-6v-21h6v-7l2 1 2 13 3 8 5 9-3-11-2-10 3 2 2-7v-43l-1-1v-23l1-1v-84z" fill="#EDEBF0"/>
<path transform="translate(1587,6)" d="m0 0h51v1h-50v238h43v-164l2-1-1 166h-46l-1-1v-234z" fill="#71618E"/>
<path transform="translate(351,99)" d="m0 0h1v150l-3 16-7 21-10 18-7 9-9 10-5 5-10 9-11 7-15 8-21 7-17 3h-57l-3-3v-42l3-2 47-1 20-3 12-5 15-9 7-6 7-9h2l-2 5-11 11-11 7-14 7-10 3-16 2h-46l-1 10v29l2 4h51l15-2 18-5 18-8 10-6 10-7 10-8 14-18 6-9 7-14 6-17 3-15 1-9v-58z" fill="#6C5B8A"/>
<path transform="translate(2034,7)" d="m0 0h1v37l-1 1h-132v69l126 1 1 1v32l-2 4h-125v56l2 2-4-1v-58l126-1 1-33h-31l-95-1-1-1v-72h133v-22z" fill="#6C5B8A"/>
<path transform="translate(1186,110)" d="m0 0 6 1 15 8 9 8 5 5 6 8 6 12 3 12 1 8v14l-3 16-5 12-11 14-15 10-11 5-17 5-8 1h-51l-17-2-24-4-21-6-14-7-3-3 1-5 9-14 8-11 6-10 6 1 9 6 15 6 9 3-3 1-18-6-11-6-3-2h-3l-9 14-10 15-3 5 1 3 17 8 18 5 14 3 30 4h42l20-4 15-5 9-5 11-8 2-3h2l2-5 5-8 5-15 1-7v-17l-4-18-8-15-7-8-10-8-10-6-9-4z" fill="#6C5B8A"/>
<path transform="translate(209,6)" d="m0 0h234v1l-231 1-16 1-16 3-21 5-20 7-20 9-11 6-10 7-8 6-14 11-22 22-11 14-9 14-8 14-9 19-9 27-2 4 1-9 7-21 9-20 9-16 13-19 13-15 19-19 9-7 10-7 16-10 16-8 14-6 22-7 17-4 14-2z" fill="#6C5B8A"/>
<path transform="translate(555,41)" d="m0 0h55l12 2 10 5 8 7 5 9 2 9v12l-3 16-6 11-9 7-8 4-14 2h-51l-1-1zm2 2v80h51l12-2 9-4 8-7 5-8 3-11v-22l-3-8-5-7-11-7-10-3-11-1z" fill="#6C5B8A"/>
<path transform="translate(204,99)" d="m0 0h10v1l-24 4-18 6-19 10-16 12h-2l-2 4-5 5-10 11-10 16-7 15-5 17-3 21-1 191h-1v-198l4-20 5-15 8-16 6-9 8-11 14-14 13-10 10-6 17-7 17-5z" fill="#6C5B8A"/>
<path transform="translate(211,144)" d="m0 0h95l1 4v92l-3 17-5 12-3 6-5 7-1-2 5-9 5-11 4-16 1-99-90 1-23 5-17 9-8 6-14 14 1-5 10-10 12-9 16-8z" fill="#6C5B8A"/>
<path transform="translate(1225,17)" d="m0 0 3 1-1 5-12 20-9 12-7-1-13-4-34-4h-31l-19 2-8 3-8 6-3 8 1 9 6 9 10 6 18 6 17 3 22 3 22 5 7 3-3 1-9-3-24-5-23-3-14-3-15-5-9-6-6-7-2-6v-10l5-8 8-6 12-4h57l17 2 18 4 4 2 4-1 8-13 7-10 4-6z" fill="#6C5B8A"/>
<path transform="translate(443,7)" d="m0 0h1v244l-3 23-5 20-7 21-11 24-10 16-9 12-2 1 2-4 11-17 9-15 10-24 7-23 4-22 2-19z" fill="#6C5B8A"/>
<path transform="translate(775,41)" d="m0 0 61 1 13 4 10 9-1 2-8-7-14-5-10-1-50-1v74l54-1 12-2 10-5 7-8 4-10 1-5v-13l-2-11 2 1 2 7v17l-2 9-6 10-8 7-10 4-10 2h-54l-1-1-1-16v-59z" fill="#6C5B8A"/>
<path transform="translate(1855,7)" d="m0 0h1l1 188 1 50h-3l-1-9-5-17 1-2 2 2 2-7v-43l-1-1v-23l1-1v-84z" fill="#897BA1"/>
<path transform="translate(396,368)" d="m0 0v3l-8 10-5 6-8 7-15 14-6 4-10 7-17 10-21 10-24 8-29 6-9 1h-10v-1l22-3 20-4 19-6 20-8 17-9 19-12 6-4 5-5 17-16 5-4 7-8z" fill="#6C5B8A"/>
<path transform="translate(1632,80)" d="m0 0 1 2-1 164h-46l-1-1v-45l2-1 1 17v29h43v-164z" fill="#6C5B8A"/>
<path transform="translate(1045,107)" d="m0 0 10 10 7 6 14 8 19 7 19 4 40 6 18 6 9 6 2 4-7-4-8-4-11-4-16-3-29-4-21-5-16-6-14-8-10-9-6-7z" fill="#6C5B8A"/>
<path transform="translate(345,356)" d="m0 0 2 1-12 12-12 9-21 13-17 7-18 6-22 4-7 1h-92v-1l84-1 28-4 22-6 12-4 19-10 19-13 13-12z" fill="#6C5B8A"/>
<path transform="translate(152,180)" d="m0 0v3l-8 16-4 13-1 8-1 189h-1v-194l3-14 5-12 6-8z" fill="#6C5B8A"/>
<path transform="translate(397,244)" d="m0 0 2 2-4 26-6 20-6 15-10 19-9 12-8 10-8 8v-3l7-7 9-12 10-16 11-23 6-19 4-21 1-9z" fill="#6C5B8A"/>
<path transform="translate(1639,8)" d="m0 0 4 4 9 15 12 19 13 21 14 23 14 22-1 2-9-13-9-15-14-22-11-18-7-11-8-13-7-12z" fill="#6C5B8A"/>
<path transform="translate(880,182)" d="m0 0 4 4 16 25 11 17 3 5v2h2l4 7v4h-53l-2-6 5 4h47l-2-5v-3l-3-1-8-13-15-23-9-15z" fill="#6C5B8A"/>
<path transform="translate(1065,17)" d="m0 0 2 1-14 12-8 10-5 12-3 12v17l4 16 4 8-1 2-4-5-4-11-2-15 1-17 4-13 5-9 8-10 7-6z" fill="#6C5B8A"/>
<path transform="translate(1948,245)" d="m0 0h88l3 2-2 1-58-1h-31z" fill="#B4ABC3"/>
<path transform="translate(1855,195)" d="m0 0h2l1 50h-3l-1-9-5-17 1-2 2 2 2-7z" fill="#6C5B8A"/>
<path transform="translate(1847,156)" d="m0 0h2l1 8v47l-2-1v-24l-1-1z" fill="#FEFEFE"/>
<path transform="translate(1799,216)" d="m0 0h1l1 16 1 1v12l-3 2h-36v-1l36-1z" fill="#B8AFC6"/>
<path transform="translate(1704,196)" d="m0 0h2l3 5 8 13 7 12 8 13 3 6h-2l-8-13-13-21-6-10-2-2z" fill="#6C5B8A"/>
<path transform="translate(1489,329)" d="m0 0h3v24l-3 1z" fill="#FEFEFE"/>
<path transform="translate(1854,212)" d="m0 0h1v24l-2-2-4-15 1-2 2 2z" fill="#FEFEFE"/>
<path transform="translate(1684,164)" d="m0 0 5 5 6 10 4 6-1 3-10-15-4-7z" fill="#6C5B8A"/>
<path transform="translate(1708,119)" d="m0 0 4 4 9 15-1 2-9-14-3-5z" fill="#6C5B8A"/>
<path transform="translate(360,231)" d="m0 0h1v12h-3v-11z" fill="#FEFEFE"/>
<path transform="translate(446,269)" d="m0 0h2v2h2l-1 5h-4l-1-4z" fill="#FEFEFE"/>
<path transform="translate(450,238)" d="m0 0 3 1v7h-4v-7z" fill="#FEFEFE"/>
<path transform="translate(1242,162)" d="m0 0h3v5h-4z" fill="#FEFEFE"/>
<path transform="translate(1242,188)" d="m0 0h3v5h-3z" fill="#FEFEFE"/>
<path transform="translate(409,361)" d="m0 0 2 1v3l-4-1v-2z" fill="#FEFEFE"/>
<path transform="translate(355,259)" d="m0 0h3l-1 4-2 1z" fill="#FEFEFE"/>
<path transform="translate(449,250)" d="m0 0h4v3h-4z" fill="#FEFEFE"/>
<path transform="translate(2042,42)" d="m0 0 3 1-1 3-3-1z" fill="#FEFEFE"/>
<path transform="translate(910,112)" d="m0 0 4 1-4 2z" fill="#FEFEFE"/>
<path transform="translate(1841,190)" d="m0 0h1v8h-1z" fill="#FEFEFE"/>
<path transform="translate(1386,47)" d="m0 0h3v2h-3z" fill="#FEFEFE"/>
<path transform="translate(701,429)" d="m0 0h2v2l-3-1z" fill="#FEFEFE"/>
<path transform="translate(320,324)" d="m0 0h2v2l-3-1z" fill="#FEFEFE"/>
<path transform="translate(690,118)" d="m0 0 2 1v2h-2z" fill="#FEFEFE"/>
<path transform="translate(907,120)" d="m0 0h2l-1 2z" fill="#FEFEFE"/>
<path transform="translate(99,109)" d="m0 0 3 1z" fill="#FEFEFE"/>
<path transform="translate(1710,305)" d="m0 0 2 1z" fill="#FEFEFE"/>
<path transform="translate(382,279)" d="m0 0" fill="#FEFEFE"/>
</svg>
