<svg width="945" height="205" viewBox="0 0 945 205" fill="none" xmlns="http://www.w3.org/2000/svg">
<path d="M0.729563 193.93C0.7941 162.948 0.390124 132.444 1.05351 101.963C1.75249 69.8464 14.9827 43.4032 40.2626 23.4432C58.3865 9.13327 79.2687 2.27762 102.4 2.28641C135.227 2.29886 168.055 2.28964 200.881 2.15842C204.586 2.14365 206.17 2.88516 206.139 7.10275C205.888 40.4273 206.042 73.755 205.766 107.079C205.386 152.733 172.133 193.829 127.721 203.814C125.145 204.393 122.431 204.568 119.78 204.577C95.452 204.656 71.1234 204.661 46.7949 204.668C45.8352 204.668 44.8754 204.475 43.5356 204.332C43.4357 202.343 43.2616 200.56 43.2692 198.778C43.4081 166.118 43.4045 133.456 43.7753 100.799C44.0885 73.2077 66.5543 47.6019 94.0236 45.4543C115.89 43.7445 137.953 44.505 159.93 44.3702C161.133 44.3628 163.412 46.2216 163.4 47.1888C163.104 70.3215 164.27 93.6486 161.623 116.53C158.516 143.385 133.563 163.206 106.408 163.815C100.248 163.953 94.0789 163.678 87.9151 163.735C84.7819 163.764 83.2867 162.45 83.3177 159.301C83.3538 155.636 83.3902 151.967 83.2669 148.305C83.1483 144.781 84.8686 143.82 88.1757 143.728C96.4756 143.498 104.938 143.822 113.024 142.286C129.229 139.209 141.311 125.662 142.392 109.299C143.279 95.857 142.784 82.3247 142.945 68.833C142.979 66.027 141.596 64.995 138.943 65.0186C125.45 65.1386 111.923 64.646 98.4705 65.439C80.1099 66.5213 64.8105 82.1811 64.2813 101.061C63.5392 127.536 63.887 154.041 63.8193 180.534C63.8123 183.29 64.0788 185.996 68.0195 185.91C84.0005 185.564 100.188 186.799 115.922 184.669C148.119 180.311 169.432 161.375 181.062 131.169C185.57 119.459 185.17 107.331 185.124 95.1732C185.038 72.8448 184.879 50.5157 185.009 28.1884C185.035 23.7574 183.597 22.4992 179.269 22.5265C152.941 22.6928 126.612 22.4862 100.285 22.6422C60.4259 22.8783 21.347 57.8986 21.7241 101.993C21.9991 134.151 21.661 166.314 21.9114 198.473C21.9519 203.673 20.3993 205.214 15.414 204.768C10.8063 204.357 6.13295 204.681 0.730409 204.681C0.730409 200.957 0.73041 197.687 0.729563 193.93Z" fill="#412B69"/>
<path d="M774.858 64.338C769.149 55.3809 763.64 46.7273 758.131 38.0737C757.699 38.1064 757.267 38.1391 756.835 38.1718C756.534 39.7401 755.975 41.3079 755.972 42.8767C755.937 63.5355 755.847 84.1963 756.104 104.852C756.162 109.568 755.021 111.687 750.01 111.11C746.886 110.75 743.656 110.769 740.527 111.108C736.125 111.586 735.209 109.585 735.235 105.632C735.385 82.638 735.345 59.6423 735.35 36.647C735.352 26.8157 735.5 16.9784 735.193 7.15601C735.065 3.06189 736.628 1.70673 740.379 2.05237C740.709 2.08289 741.056 2.11103 741.376 2.04761C754.635 -0.575618 762.241 5.06018 768.83 16.8594C780.99 38.6357 795.175 59.2822 808.533 80.3883C809.484 81.8904 810.576 83.3028 812.87 84.5453C813.015 82.7031 813.286 80.861 813.288 79.0186C813.311 55.1904 813.39 31.3613 813.203 7.53449C813.17 3.36017 814.415 1.87421 818.563 2.22864C822.203 2.53949 825.894 2.40626 829.554 2.2613C832.454 2.14649 833.754 3.06165 833.745 6.21918C833.651 39.8787 833.643 73.5385 833.685 107.198C833.689 110.192 832.633 111.338 829.585 111.274C822.256 111.122 814.901 111.534 807.604 111.034C805.471 110.888 802.794 108.892 801.561 106.976C792.556 92.9743 783.855 78.777 774.858 64.338Z" fill="#422D6A"/>
<path d="M374 2.26948C382.284 2.74153 390.267 2.27015 397.815 3.86067C420.164 8.56996 424.3 26.9635 421.092 44.0427C419.311 53.5224 413.651 60.164 404.845 64.2111C398.417 67.1653 398.413 67.3074 402.322 73.3959C409.429 84.4638 416.616 95.4806 423.743 106.536C424.512 107.729 425.109 109.033 426.228 111.107C418.605 111.107 411.819 111.413 405.096 110.9C403.326 110.765 401.343 108.365 400.148 106.55C392.825 95.4262 385.722 84.1572 378.496 72.9681C376.08 69.2268 363.957 66.5288 360.592 69.1992C359.575 70.0065 359.198 72.1042 359.185 73.6163C359.096 84.4448 359.025 95.2781 359.281 106.102C359.374 110.055 358.176 111.551 354.167 111.16C350.866 110.838 347.485 110.821 344.183 111.132C339.814 111.544 338.886 109.579 338.911 105.612C339.084 78.6229 339.072 51.6325 339.097 24.6425C339.103 18.9785 339.321 13.2899 338.87 7.65821C338.503 3.06416 340.222 2.00117 344.513 2.136C354.167 2.43904 363.837 2.25453 374 2.26948ZM383.808 17.4649C377.165 17.4252 370.521 17.3858 363.878 17.3459C360.651 17.3265 358.982 18.7294 359.008 22.1571C359.076 31.1279 359.055 40.1002 358.964 49.0708C358.936 51.9367 359.891 53.4387 362.989 53.3132C370.956 52.9907 378.942 52.9911 386.892 52.4555C393.627 52.0018 398.335 48.3694 400.639 41.9168C405.171 29.2254 399.427 20.5062 383.808 17.4649Z" fill="#402B68"/>
<path d="M560.358 54.7142C571.982 63.5358 574.56 75.4812 571.981 88.4425C569.167 102.589 558.267 109.086 545.227 111.164C525.907 114.243 506.746 112.248 488.133 106.031C485.861 105.273 483.842 103.757 481.118 102.272C485.113 96.2579 488.754 90.7771 492.157 85.6546C499.142 88.1342 505.489 91.1533 512.176 92.5784C521.715 94.611 531.44 96.6803 541.3 93.8398C547.691 91.9985 551.922 87.7745 552.427 82.4237C552.891 77.5003 550.087 72.6781 543.735 70.3787C537.234 68.025 530.267 66.9686 523.517 65.2899C514.842 63.1323 505.685 62.0404 497.624 58.4793C484.291 52.5889 478.755 41.1029 480.492 27.2019C481.908 15.8686 491.696 5.09108 504.527 2.83992C513.933 1.18947 523.744 0.552384 533.263 1.17287C544.456 1.90254 555.53 4.47023 566.649 6.28133C567.251 6.37953 567.792 6.85121 569.153 7.56276C565.882 12.5353 562.827 17.3783 559.494 22.0211C559.024 22.6764 557.054 22.7728 556.015 22.4239C542.6 17.921 528.756 18.6293 514.947 18.8601C514.616 18.8656 514.285 18.9287 513.956 18.9818C507.012 20.1037 501.981 24.0677 501.513 28.7832C500.996 33.9937 504.807 39.1645 511.941 41.0836C519.138 43.0194 526.606 43.9708 533.976 45.2359C543.218 46.8224 552.222 49.0161 560.358 54.7142Z" fill="#402B68"/>
<path d="M894.017 18.5017C880.512 18.4801 880.508 18.4801 880.453 31.2824C880.434 35.9482 880.448 40.6141 880.43 45.2799C880.406 51.6358 880.588 51.8716 886.752 51.8686C902.249 51.8614 917.749 51.9733 933.241 51.6875C937.716 51.6049 939.457 52.6369 939.24 57.4372C938.708 69.2306 940.412 67.2177 929.427 67.297C914.931 67.4016 900.431 67.3667 885.936 67.1707C881.826 67.115 880.212 68.5711 880.381 72.6911C880.606 78.1812 880.605 83.6922 880.413 89.1842C880.273 93.221 881.713 94.7768 885.914 94.7359C903.576 94.5641 921.242 94.8115 938.902 94.5796C943.502 94.5191 944.92 95.8802 944.805 100.512C944.54 111.106 944.774 111.104 934.169 111.097C911.173 111.081 888.176 110.971 865.181 111.153C860.978 111.186 859.78 109.919 859.798 105.779C859.938 72.9524 859.945 40.1241 859.776 7.29721C859.754 3.19308 861.155 2.22336 864.945 2.24448C889.107 2.37918 913.27 2.41061 937.432 2.26291C941.409 2.23862 942.542 3.4733 942.48 7.40164C942.305 18.6034 942.471 18.6264 931.508 18.6136C919.176 18.5992 906.845 18.5434 894.017 18.5017Z" fill="#432D6A"/>
<path d="M319.916 43.1047C317.302 59.28 306.085 69.4038 289.206 70.5366C280.747 71.1044 272.222 70.9703 263.736 70.7786C259.46 70.6819 257.803 71.9632 257.943 76.4441C258.251 86.2624 257.952 96.0989 258.188 105.921C258.28 109.735 257.304 111.605 253.156 111.095C250.858 110.812 248.498 111.07 246.167 111.025C236.964 110.845 237.478 112.356 237.469 102.519C237.444 73.0377 237.433 43.5564 237.415 14.0751C237.414 11.4101 237.506 8.73974 237.368 6.0816C237.226 3.34033 238.285 2.13684 241.107 2.16546C257.594 2.33282 274.179 1.34014 290.544 2.81439C309.611 4.53228 320.405 15.1833 320.272 33.1979C320.249 36.3572 320.066 39.5153 319.916 43.1047ZM258.401 53.9392C259.935 54.3579 261.464 55.1107 263.004 55.1375C269.653 55.2532 276.307 55.261 282.955 55.1121C293.254 54.8813 299.301 48.8547 300.075 38.2703C300.949 26.3357 296.623 19.786 285.646 18.3406C278.123 17.3498 270.405 17.8987 262.784 17.551C258.954 17.3761 257.894 19.1425 257.944 22.6404C258.087 32.7804 258.04 42.923 258.401 53.9392Z" fill="#412C69"/>
<path d="M671.186 18.3699C661.265 18.4413 651.768 18.6255 642.279 18.4248C638.305 18.3408 637.16 19.7532 637.181 23.6343C637.332 50.783 637.168 77.9339 637.406 105.081C637.45 110.02 635.87 111.656 631.118 111.148C627.988 110.813 624.774 110.829 621.636 111.113C617.677 111.472 616.384 110.001 616.44 106.037C616.635 92.0486 616.53 78.0559 616.535 64.0648C616.539 50.5733 616.394 37.0794 616.625 23.5919C616.695 19.5164 615.257 18.4078 611.406 18.5055C602.417 18.7337 593.417 18.5047 584.426 18.6675C581.182 18.7262 579.588 18.0548 579.652 14.2966C579.909 -0.793234 577.658 1.95634 591.875 1.85807C617.358 1.68199 642.843 1.91093 668.326 1.73454C672.597 1.705 674.159 3.16429 673.531 7.18876C672.95 10.9107 672.256 14.6152 671.186 18.3699Z" fill="#402B68"/>
<path d="M692.786 111.094C688.434 111.073 689.034 108.173 689.034 105.736C689.033 85.9119 689.069 66.0873 689.072 46.2627C689.074 33.2685 689.14 20.2728 688.955 7.28087C688.905 3.74821 689.711 1.94524 693.628 2.23644C698.743 2.61675 705.645 0.783189 708.497 3.43333C711.179 5.92558 709.836 13.0058 709.851 18.0688C709.936 46.8863 709.903 75.7042 709.895 104.522C709.894 111.128 709.866 111.135 703.196 111.135C699.864 111.135 696.532 111.106 692.786 111.094Z" fill="#46316D"/>
<path d="M461.353 81.0009C461.348 89.9865 461.252 98.4734 461.385 106.957C461.432 109.937 460.47 111.227 457.384 111.083C453.565 110.906 449.722 110.843 445.909 111.067C442.492 111.267 441.222 110.135 441.232 106.572C441.332 73.1291 441.316 39.6859 441.233 6.24306C441.226 3.20699 442.226 2.05599 445.266 2.2015C449.084 2.38418 452.935 2.47292 456.74 2.18239C460.637 1.88479 461.447 3.54433 461.427 7.12661C461.291 31.5841 461.355 56.0427 461.353 81.0009Z" fill="#412C69"/>
<path d="M520.623 196.326C506.583 186.455 502.66 167.958 511.081 152.486C518.034 139.709 535.996 133.513 550.312 138.951C565.746 144.813 574.087 161.26 569.918 177.611C564.954 197.082 544.818 206.426 524.974 198.449C523.588 197.892 522.264 197.18 520.623 196.326ZM516.932 170.351C517.384 180.278 521.296 188.261 530.917 191.94C547.142 198.145 562.429 185.284 560.728 167.215C559.487 154.04 551.111 145.146 539.645 144.829C526.312 144.46 517.075 154.469 516.932 170.351Z" fill="white"/>
<path d="M461.004 166.78C467.501 166.781 473.505 166.623 479.494 166.845C483.249 166.985 484.54 165.465 484.449 161.857C484.286 155.363 484.566 148.855 484.298 142.368C484.15 138.771 485.468 137.626 488.908 137.837C491.849 138.017 494.36 137.533 494.29 142.118C494.019 159.774 494.112 177.437 494.2 195.097C494.218 198.557 493.365 200.235 489.444 200.271C485.252 200.309 484.356 198.48 484.505 194.806C484.722 189.483 484.486 184.143 484.609 178.815C484.678 175.835 483.458 174.597 480.486 174.618C470.99 174.686 461.493 174.688 451.997 174.61C449.223 174.587 448.112 175.686 448.169 178.474C448.287 184.303 448.098 190.139 448.261 195.965C448.356 199.348 446.816 200.237 443.711 200.208C440.805 200.181 438.892 199.753 438.905 196.218C438.969 177.892 438.971 159.565 438.887 141.239C438.867 136.964 441.932 138.268 444.155 137.978C446.742 137.641 448.277 138.392 448.218 141.435C448.088 148.097 448.334 154.769 448.09 161.425C447.941 165.499 449.232 167.352 453.513 166.836C455.813 166.559 458.173 166.783 461.004 166.78Z" fill="white"/>
<path d="M374.002 137.868C381.163 137.874 387.827 137.983 394.486 137.838C397.367 137.776 398.265 138.869 398.187 141.656C398.112 144.338 397.342 145.545 394.414 145.492C385.757 145.334 377.093 145.529 368.435 145.365C364.619 145.293 362.91 146.633 363.138 150.595C363.358 154.412 363.337 158.262 363.13 162.081C362.925 165.87 364.627 167.012 368.197 166.933C376.021 166.762 383.852 166.949 391.678 166.816C394.577 166.767 396.371 167.093 396.369 170.748C396.366 174.477 394.409 174.641 391.604 174.602C383.944 174.494 376.279 174.68 368.622 174.487C364.736 174.389 362.925 175.314 363.061 179.772C363.501 194.276 361.102 192.404 375.829 192.488C382.491 192.526 389.155 192.563 395.814 192.414C398.606 192.351 399.72 193.328 399.662 196.158C399.608 198.753 398.96 200.173 395.984 200.151C383.161 200.053 370.334 200.204 357.515 199.954C356.266 199.93 354.004 197.79 353.989 196.61C353.755 178.127 353.854 159.639 353.762 141.153C353.748 138.294 355.218 137.857 357.514 137.876C362.843 137.92 368.173 137.877 374.002 137.868Z" fill="white"/>
<path d="M260.007 145.384C247.256 145.34 247.243 145.34 247.255 157.354C247.265 168.378 246.548 166.915 256.916 166.953C262.914 166.974 268.913 166.942 274.911 166.925C277.707 166.918 280.712 166.182 280.629 170.84C280.551 175.181 277.755 174.471 275.137 174.473C267.305 174.48 259.473 174.572 251.644 174.458C248.514 174.413 247.275 175.441 247.179 178.762C246.784 192.447 246.683 192.446 260.193 192.449C266.691 192.45 273.191 192.535 279.687 192.406C282.516 192.35 283.568 193.492 283.532 196.238C283.498 198.822 282.813 200.239 279.823 200.211C267.161 200.091 254.497 200.078 241.834 200.176C238.678 200.201 237.817 198.786 237.824 195.926C237.868 177.931 237.876 159.936 237.766 141.941C237.747 138.894 238.83 137.837 241.847 137.862C253.843 137.961 265.84 137.905 277.837 137.862C280.399 137.852 282.366 137.997 282.301 141.522C282.243 144.731 280.832 145.476 278 145.418C272.171 145.3 266.338 145.385 260.007 145.384Z" fill="white"/>
<path d="M579.547 152.493C581.3 141.049 591.202 136.63 602.715 136.963C609.151 137.149 615.577 138.543 621.939 139.756C623.448 140.044 624.679 141.789 626.038 142.863C624.082 144.975 623.711 148.93 619.215 147.991C614.187 146.942 609.067 146.321 603.977 145.583C602.835 145.418 601.646 145.476 600.485 145.545C594.18 145.915 589.799 148.827 589.368 152.891C588.89 157.397 592.409 160.891 599.129 162.337C604.324 163.455 609.679 163.978 614.753 165.477C625.138 168.545 629.874 175.069 629.1 184.291C628.335 193.393 622.958 199.626 612.378 200.235C603.421 200.751 594.175 199.41 585.323 197.595C578.634 196.224 578.646 194.776 582.583 189.184C583.143 188.387 583.831 187.681 583.782 187.74C590.795 189.459 597.137 191.106 603.53 192.521C605.276 192.907 607.192 192.756 609.002 192.574C615.1 191.962 619.036 188.86 619.571 184.417C620.119 179.868 617.22 176.276 610.816 174.595C605.201 173.121 599.369 172.483 593.731 171.081C583.758 168.6 579.532 163.019 579.547 152.493Z" fill="white"/>
<path d="M905.043 170.844C889.715 165.898 889.122 150.997 896.269 143.435C901.485 137.916 908.491 136.676 915.557 137.001C921.833 137.29 928.078 138.601 934.29 139.716C936.065 140.034 939.585 139.755 938.125 143.201C937.09 145.645 936.136 148.912 931.748 147.952C926.253 146.75 920.616 145.969 915.003 145.629C912.131 145.454 908.977 146.166 906.303 147.304C900.803 149.645 900.001 155.821 904.924 159.184C907.821 161.163 911.555 162.064 915.031 163.012C919.028 164.102 923.213 164.499 927.217 165.567C936.877 168.142 942.059 174.675 941.577 183.295C941.04 192.898 935.317 199.271 925.313 200.471C915.459 201.653 905.71 200.64 896.31 197.21C893.841 196.309 891.171 195.139 893.309 191.923C894.839 189.622 895.697 185.694 900.355 188.262C907.539 192.223 915.39 193.502 923.535 192.192C928.207 191.441 931.739 189.112 932.139 183.957C932.534 178.871 929.08 176.221 924.897 175.086C918.501 173.351 911.916 172.308 905.043 170.844Z" fill="white"/>
<path d="M778.97 181.648C784.839 168.183 790.603 155.086 796.258 141.941C797.425 139.23 798.84 137.476 802.161 137.788C805.387 138.09 808.725 137.171 810.48 141.411C818.242 160.168 826.218 178.836 834.094 197.545C834.335 198.118 834.329 198.794 834.436 199.406C826.865 201.41 824.982 200.773 822.493 193.991C820.753 189.253 818.282 187.141 812.971 187.577C806.517 188.106 799.967 188.008 793.496 187.6C788.548 187.288 785.996 189.083 784.281 193.713C781.625 200.879 780.065 201.376 771.354 199.333C773.88 193.472 776.352 187.735 778.97 181.648ZM795.079 167.622C793.495 171.684 791.911 175.745 790.158 180.243C799.421 180.243 807.557 180.243 816.771 180.243C812.302 169.792 808.213 160.229 804.124 150.666C803.55 150.698 802.976 150.731 802.402 150.763C800.08 156.157 797.759 161.55 795.079 167.622Z" fill="white"/>
<path d="M680.103 173.129C672.576 177.936 664.442 176.959 656.498 177.06C649.644 177.148 649.65 177.091 649.645 184.109C649.642 188.273 649.533 192.438 649.62 196.599C649.691 200.045 647.548 200.189 644.984 200.126C642.562 200.066 640.168 200.29 640.182 196.744C640.253 177.595 640.281 158.446 640.348 139.297C640.349 139.016 640.666 138.736 640.776 138.555C651.609 138.555 662.403 138.102 673.135 138.728C679.344 139.09 684.382 143.137 685.718 149.33C687.535 157.749 687.747 166.331 680.103 173.129ZM677.331 154.794C677.347 149.62 674.385 146.75 669.702 145.731C666.821 145.103 663.769 145.072 660.796 145.087C647.672 145.152 649.316 143.491 649.285 156.348C649.252 169.908 649.292 169.908 663.095 169.82C674.28 169.749 677.277 166.782 677.331 154.794Z" fill="white"/>
<path d="M737.401 157.033C737.313 144.203 738.915 145.625 726.591 145.514C724.427 145.494 722.25 145.378 720.1 145.558C716.968 145.821 715.598 144.796 715.571 141.403C715.542 137.842 717.526 137.836 720.068 137.843C734.888 137.883 749.709 137.896 764.528 137.821C767.058 137.808 768.659 138.135 768.604 141.266C768.554 144.109 767.871 145.62 764.654 145.477C760.333 145.283 755.992 145.573 751.669 145.405C748.208 145.269 747.031 146.638 747.06 150.098C747.185 165.084 747.015 180.072 747.128 195.058C747.158 198.933 745.807 200.289 741.85 200.239C738.216 200.194 737.31 198.841 737.345 195.493C737.478 182.839 737.4 170.183 737.401 157.033Z" fill="white"/>
<path d="M301.419 140.426C306.534 148.578 311.475 156.414 316.912 165.036C318.588 162.992 319.805 161.76 320.73 160.337C324.448 154.615 328.442 149.029 331.627 143.018C334.49 137.615 338.563 137.176 344.137 138.352C343.507 139.551 343.08 140.53 342.51 141.418C340.084 145.199 337.924 149.204 335.107 152.673C325.043 165.065 319.493 178.737 322.059 194.982C322.742 199.303 320.588 200.479 316.584 200.196C313.817 200.001 312.725 198.993 312.766 196.247C312.853 190.419 313.129 184.557 312.624 178.771C312.321 175.292 311.324 171.551 309.544 168.585C304.324 159.884 298.55 151.515 293.011 143.005C292.13 141.651 291.34 140.237 290.191 138.325C294.468 138.033 298.235 136.347 301.419 140.426Z" fill="white"/>
<path d="M866.021 192.481C872.495 192.482 878.472 192.482 884.357 192.482C886.672 198.913 885.878 200.159 879.647 200.165C869.336 200.175 859.023 200.068 848.714 200.217C845.499 200.264 844.288 199.219 844.301 195.94C844.369 177.979 844.382 160.016 844.169 142.057C844.122 138.137 845.999 137.913 849.053 137.8C852.602 137.669 853.58 138.961 853.536 142.421C853.354 156.887 853.428 171.357 853.434 185.826C853.436 192.429 853.463 192.43 860.035 192.459C861.864 192.468 863.694 192.473 866.021 192.481Z" fill="white"/>
<path d="M90.0052 88.8922C100.801 93.446 110.784 91.0824 121.855 85.8945C116.152 97.6058 114.603 108.474 120.107 121.066C107.799 115.277 96.9882 116.923 85.3926 122.832C86.6787 119.035 87.3777 116.72 88.2414 114.468C91.0377 107.177 90.9737 99.899 88.5629 92.5088C88.1909 91.3686 85.6446 88.8795 90.0052 88.8922Z" fill="white"/>
<path d="M697.632 167.999C697.625 160.006 697.644 152.512 697.604 145.019C697.563 137.12 697.997 136.776 706.727 138.678C706.727 140.185 706.726 141.809 706.727 143.433C706.733 160.751 706.654 178.069 706.816 195.386C706.851 199.114 705.612 200.247 701.924 200.294C698.129 200.343 697.513 198.679 697.563 195.475C697.705 186.485 697.624 177.491 697.632 167.999Z" fill="white"/>
</svg>
