<svg width="56" height="56" viewBox="0 0 56 56" fill="none" xmlns="http://www.w3.org/2000/svg">
    <circle cx="28" cy="28" r="28" fill="#f00"/>
    <g clip-path="url(#clip0_1737_1793)">
        <path d="M28 28C29.9778 28 31.9112 27.4135 33.5557 26.3147C35.2002 25.2159 36.4819 23.6541 37.2388 21.8268C37.9957 19.9996 38.1937 17.9889 37.8079 16.0491C37.422 14.1093 36.4696 12.3275 35.0711 10.9289C33.6725 9.53041 31.8907 8.578 29.9509 8.19215C28.0111 7.8063 26.0004 8.00433 24.1732 8.76121C22.3459 9.51809 20.7841 10.7998 19.6853 12.4443C18.5865 14.0888 18 16.0222 18 18C18.0026 20.6514 19.0571 23.1934 20.9319 25.0681C22.8066 26.9429 25.3486 27.9974 28 28ZM28 11.3333C29.3185 11.3333 30.6075 11.7243 31.7038 12.4569C32.8001 13.1894 33.6546 14.2306 34.1592 15.4488C34.6638 16.667 34.7958 18.0074 34.5386 19.3006C34.2813 20.5938 33.6464 21.7817 32.714 22.7141C31.7817 23.6464 30.5938 24.2813 29.3006 24.5386C28.0074 24.7958 26.667 24.6638 25.4488 24.1592C24.2306 23.6546 23.1894 22.8001 22.4569 21.7038C21.7243 20.6075 21.3333 19.3185 21.3333 18C21.3333 16.2319 22.0357 14.5362 23.286 13.286C24.5362 12.0357 26.2319 11.3333 28 11.3333Z" fill="#000"/>
        <path d="M28 31.3333C24.0231 31.3377 20.2104 32.9194 17.3983 35.7315C14.5862 38.5436 13.0044 42.3564 13 46.3333C13 46.7753 13.1756 47.1992 13.4882 47.5118C13.8007 47.8243 14.2246 47.9999 14.6667 47.9999C15.1087 47.9999 15.5326 47.8243 15.8452 47.5118C16.1577 47.1992 16.3333 46.7753 16.3333 46.3333C16.3333 43.2391 17.5625 40.2716 19.7504 38.0837C21.9383 35.8957 24.9058 34.6666 28 34.6666C31.0942 34.6666 34.0617 35.8957 36.2496 38.0837C38.4375 40.2716 39.6667 43.2391 39.6667 46.3333C39.6667 46.7753 39.8423 47.1992 40.1548 47.5118C40.4674 47.8243 40.8913 47.9999 41.3333 47.9999C41.7754 47.9999 42.1993 47.8243 42.5118 47.5118C42.8244 47.1992 43 46.7753 43 46.3333C42.9956 42.3564 41.4138 38.5436 38.6017 35.7315C35.7896 32.9194 31.9769 31.3377 28 31.3333Z" fill="#000"/>
    </g>
    <defs>
        <clipPath id="clip0_1737_1793">
            <rect width="40" height="40" fill="#000" transform="translate(8 8)"/>
        </clipPath>
    </defs>
</svg>