<svg width="44" height="44" viewBox="0 0 44 44" fill="none" xmlns="http://www.w3.org/2000/svg">
<g clip-path="url(#clip0_1057_2681)">
<path d="M21.1464 8.98047L14.8702 12.0375C14.3063 12.3205 13.8583 12.7921 13.6035 13.3704L5.77376 32.9986C4.9644 34.8318 5.78991 36.9745 7.6178 37.7843L15.4057 41.2352H21.1895L21.1464 8.98047Z" fill="#E9E4D8"/>
<path d="M38.5918 35.707V39.4883C38.5918 41.5934 36.8306 43.3555 34.7246 43.3555H18.8262C16.7202 43.3555 15.0449 41.5934 15.0449 39.4883V17.2305C15.0449 16.5665 15.2331 15.937 15.6559 15.4249L20.436 9.63325C20.9793 8.97497 21.7538 8.55078 22.6075 8.55078H30.9434C31.7971 8.55078 32.5717 8.97497 33.115 9.63325L37.8951 15.4249C38.3177 15.937 38.592 16.5666 38.592 17.2305V32.6992V35.707H38.5918Z" fill="#000"/>
<path fill-rule="evenodd" clip-rule="evenodd" d="M25.4802 23.6338L25.4803 23.6328L25.4581 23.6107C25.4464 23.5987 25.4345 23.5869 25.4226 23.5752L24.5335 22.6855L24.4073 22.9367C24.1132 22.8312 23.7966 22.7733 23.4666 22.7733H23.3806C21.8405 22.7733 20.5877 24.0263 20.5877 25.5663C20.5877 25.8853 20.6421 26.1915 20.7411 26.4774L20.48 26.6113L21.4007 27.5341C21.4046 27.5379 21.4084 27.5419 21.4123 27.5457L21.4247 27.5581L21.4251 27.5579C21.9293 28.0531 22.6198 28.3593 23.3807 28.3593H23.4667C25.0067 28.3593 26.2596 27.1063 26.2596 25.5663C26.2595 24.8168 25.9623 24.1359 25.4802 23.6338ZM23.4666 27.0702H23.3806C22.5514 27.0702 21.8767 26.3955 21.8767 25.5663C21.8767 24.737 22.5514 24.0624 23.3806 24.0624H23.4666C24.2958 24.0624 24.9705 24.737 24.9705 25.5663C24.9705 26.3955 24.2959 27.0702 23.4666 27.0702Z" fill="#000"/>
<path fill-rule="evenodd" clip-rule="evenodd" d="M33.5473 23.0488L32.6879 22.1895L20.7764 34.1009L21.6357 34.9603C21.7616 35.0861 21.9266 35.1491 22.0916 35.1491C22.2565 35.1491 22.4215 35.0862 22.5474 34.9603L33.5474 23.9603C33.799 23.7087 33.799 23.3005 33.5473 23.0488Z" fill="#000"/>
<path fill-rule="evenodd" clip-rule="evenodd" d="M33.7167 30.2466L33.7175 30.2462L33.0065 29.5254L33.0526 29.8177C32.698 29.6544 32.304 29.5626 31.8887 29.5626H31.8028C30.2627 29.5626 29.0098 30.8156 29.0098 32.3556C29.0098 32.7535 29.094 33.1321 29.2448 33.4751L28.9292 33.4291L29.7844 34.2831C29.815 34.3151 29.8462 34.3463 29.8783 34.3768L29.8979 34.3964L29.8981 34.3957C30.3974 34.8623 31.0672 35.1486 31.8028 35.1486H31.8887C33.4288 35.1486 34.6817 33.8957 34.6817 32.3557C34.6816 31.5142 34.3071 30.7591 33.7167 30.2466ZM31.8886 33.8595H31.8027C30.9735 33.8595 30.2988 33.1848 30.2988 32.3556C30.2988 31.5264 30.9735 30.8517 31.8027 30.8517H31.8886C32.7178 30.8517 33.3925 31.5264 33.3925 32.3556C33.3925 33.1848 32.7179 33.8595 31.8886 33.8595Z" fill="#000"/>
<path d="M21.2325 34.289C21.0676 34.289 20.9026 34.2261 20.7767 34.1002C20.525 33.8485 20.525 33.4404 20.7767 33.1888L31.7767 22.1888C32.0285 21.9371 32.4365 21.9371 32.6882 22.1888C32.9399 22.4405 32.9399 22.8486 32.6882 23.1002L21.6882 34.1002C21.5624 34.2261 21.3974 34.289 21.2325 34.289Z" fill="#F5F5F5"/>
<path d="M22.6074 27.5H22.5215C20.9814 27.5 19.7285 26.247 19.7285 24.707C19.7285 23.167 20.9814 21.9141 22.5215 21.9141H22.6074C24.1475 21.9141 25.4004 23.167 25.4004 24.707C25.4004 26.247 24.1475 27.5 22.6074 27.5ZM22.5215 23.2031C21.6923 23.2031 21.0176 23.8778 21.0176 24.707C21.0176 25.5362 21.6923 26.2109 22.5215 26.2109H22.6074C23.4366 26.2109 24.1113 25.5362 24.1113 24.707C24.1113 23.8778 23.4366 23.2031 22.6074 23.2031H22.5215Z" fill="#F5F5F5"/>
<path d="M31.0293 34.2891H30.9434C29.4033 34.2891 28.1504 33.0361 28.1504 31.4961C28.1504 29.9561 29.4033 28.7031 30.9434 28.7031H31.0293C32.5694 28.7031 33.8223 29.9561 33.8223 31.4961C33.8223 33.0361 32.5694 34.2891 31.0293 34.2891ZM30.9434 29.9922C30.1141 29.9922 29.4395 30.6669 29.4395 31.4961C29.4395 32.3253 30.1141 33 30.9434 33H31.0293C31.8585 33 32.5332 32.3253 32.5332 31.4961C32.5332 30.6669 31.8585 29.9922 31.0293 29.9922H30.9434Z" fill="#F5F5F5"/>
<path d="M28.1761 13.7925C27.8964 13.7925 27.6389 13.609 27.5573 13.3268C27.4584 12.9849 27.6554 12.6275 27.9974 12.5286C28.0705 12.5074 28.1441 12.4842 28.2161 12.4596C30.1815 11.7887 31.5019 9.94159 31.5019 7.86328V0.644531C31.5019 0.288578 31.7905 0 32.1464 0C32.5024 0 32.791 0.288578 32.791 0.644531V7.86328C32.791 10.4931 31.1198 12.8305 28.6324 13.6795C28.5413 13.7106 28.4481 13.74 28.3555 13.7668C28.2957 13.7842 28.2353 13.7925 28.1761 13.7925Z" fill="#000"/>
<path d="M26.8184 15.3828C25.7048 15.3828 24.7988 14.4769 24.7988 13.3633C24.7988 12.2497 25.7048 11.3438 26.8184 11.3438C27.9319 11.3438 28.8379 12.2497 28.8379 13.3633C28.8379 14.4769 27.9319 15.3828 26.8184 15.3828Z" fill="#F5F5F5"/>
<path d="M38.5918 33.3437C38.9477 33.3437 39.2363 33.0551 39.2363 32.6991V17.2304C39.2363 16.4611 38.9365 15.6741 38.3921 15.0146L33.612 9.2229C33.3615 8.91945 33.0737 8.6637 32.761 8.46003C32.7802 8.26306 32.7911 8.06412 32.7911 7.86328V0.644531C32.7911 0.288578 32.5025 0 32.1466 0C31.7906 0 31.502 0.288578 31.502 0.644531C31.502 0.644531 31.5007 7.92473 31.5002 7.95549C31.3168 7.92301 31.1307 7.90625 30.9434 7.90625H22.6075C22.0206 7.90625 21.4454 8.07091 20.9303 8.37349C20.9081 8.38148 20.886 8.39042 20.8643 8.40099L14.5814 11.4614C13.8853 11.8106 13.3287 12.3962 13.0139 13.1105C13.0104 13.1183 13.0072 13.1261 13.0041 13.134L10.4063 19.723C10.2758 20.0542 10.4384 20.4285 10.7696 20.5591C10.8472 20.5897 10.9271 20.6041 11.0058 20.6041C11.2628 20.6041 11.5057 20.4493 11.6056 20.1958L14.1983 13.6195C14.3932 13.1839 14.7342 12.827 15.1526 12.617L18.4722 11.0001L15.1588 15.0147C14.6627 15.6157 14.4005 16.382 14.4005 17.2306V39.4884C14.4005 39.7476 14.4232 40.0013 14.4646 40.2487L7.82315 37.3058C6.32285 36.6411 5.64292 34.8753 6.30773 33.3697C6.31056 33.3632 6.31331 33.3566 6.31606 33.35L10.5169 22.91C10.6498 22.5797 10.4899 22.2044 10.1596 22.0714C9.82919 21.9386 9.45399 22.0986 9.32104 22.4287L5.12385 32.8591C4.18009 35.0118 5.15496 37.5334 7.30091 38.4842L15.0889 41.9351C15.0984 41.9393 15.1082 41.9424 15.1178 41.9461C15.9082 43.1812 17.2748 43.9999 18.8262 43.9999H34.7247C37.1703 43.9999 39.2364 41.9338 39.2364 39.4882V35.7069C39.2364 35.351 38.9478 35.0624 38.5919 35.0624C38.2359 35.0624 37.9473 35.351 37.9473 35.7069V39.4882C37.9473 41.235 36.4715 42.7108 34.7247 42.7108H18.8262C17.0967 42.7108 15.6895 41.2652 15.6895 39.4882V17.2304C15.6895 16.6771 15.8454 16.2076 16.153 15.8351L20.9331 10.0434C21.378 9.50443 21.9883 9.19523 22.6075 9.19523H30.9434C31.0649 9.19523 31.1859 9.20752 31.3054 9.23072C30.9019 10.6067 29.9025 11.7548 28.5528 12.3301C28.1999 11.7398 27.5547 11.3437 26.8183 11.3437C25.7048 11.3437 24.7988 12.2496 24.7988 13.3632C24.7988 14.4768 25.7048 15.3827 26.8183 15.3827C27.8481 15.3827 28.6998 14.6077 28.8222 13.6104C30.5581 12.9539 31.8707 11.5627 32.4555 9.86468C32.5116 9.92114 32.5659 9.98052 32.6178 10.0434L37.3979 15.8352C37.7522 16.2644 37.9473 16.7599 37.9473 17.2305V32.6992C37.9473 33.0551 38.2358 33.3437 38.5918 33.3437ZM26.8183 14.0937C26.4156 14.0937 26.0879 13.766 26.0879 13.3632C26.0879 12.9604 26.4156 12.6327 26.8183 12.6327C27.2211 12.6327 27.5488 12.9604 27.5488 13.3632C27.5488 13.766 27.2211 14.0937 26.8183 14.0937Z" fill="#6B4D3E"/>
<path d="M21.2326 34.289C21.3975 34.289 21.5625 34.2261 21.6883 34.1002L32.6883 23.1002C32.94 22.8485 32.94 22.4404 32.6883 22.1888C32.4366 21.9371 32.0285 21.9371 31.7768 22.1888L20.7768 33.1888C20.3659 33.5718 20.6812 34.3085 21.2326 34.289Z" fill="#6B4D3E"/>
<path d="M22.6074 27.5C24.1474 27.5 25.4004 26.247 25.4004 24.707C25.4004 23.167 24.1474 21.9141 22.6074 21.9141H22.5215C20.9815 21.9141 19.7285 23.167 19.7285 24.707C19.7285 26.247 20.9815 27.5 22.5215 27.5H22.6074ZM21.0176 24.707C21.0176 23.8778 21.6923 23.2031 22.5215 23.2031H22.6074C23.4366 23.2031 24.1113 23.8778 24.1113 24.707C24.1113 25.5362 23.4366 26.2109 22.6074 26.2109H22.5215C21.6923 26.2109 21.0176 25.5362 21.0176 24.707Z" fill="#6B4D3E"/>
<path d="M30.9434 34.2891H31.0293C32.5693 34.2891 33.8223 33.0361 33.8223 31.4961C33.8223 29.9561 32.5693 28.7031 31.0293 28.7031H30.9434C29.4034 28.7031 28.1504 29.9561 28.1504 31.4961C28.1504 33.0361 29.4034 34.2891 30.9434 34.2891ZM30.9434 29.9922H31.0293C31.8585 29.9922 32.5332 30.6669 32.5332 31.4961C32.5332 32.3253 31.8585 33 31.0293 33H30.9434C30.1141 33 29.4395 32.3253 29.4395 31.4961C29.4395 30.6669 30.1141 29.9922 30.9434 29.9922Z" fill="#6B4D3E"/>
</g>
<defs>
<clipPath id="clip0_1057_2681">
<rect width="44" height="44" fill="white"/>
</clipPath>
</defs>
</svg>
