<svg width="44" height="44" viewBox="0 0 44 44" fill="none" xmlns="http://www.w3.org/2000/svg">
    <g clip-path="url(#clip0_1019_8566)">
        <path d="M21.1484 8.98047L14.8722 12.0375C14.3083 12.3205 13.8603 12.7921 13.6055 13.3704L5.77571 32.9986C4.96635 34.8318 5.79187 36.9745 7.61976 37.7843L15.4077 41.2352H21.1914L21.1484 8.98047Z" fill="#9FCEF1"/>
        <path d="M38.5938 35.707V39.4883C38.5938 41.5934 36.8325 43.3555 34.7266 43.3555H18.8281C16.7221 43.3555 15.0469 41.5934 15.0469 39.4883V17.2305C15.0469 16.5665 15.2351 15.937 15.6578 15.4249L20.4379 9.63325C20.9812 8.97497 21.7558 8.55078 22.6095 8.55078H30.9454C31.7991 8.55078 32.5737 8.97497 33.117 9.63325L37.8971 15.4249C38.3197 15.937 38.5939 16.5666 38.5939 17.2305V32.6992V35.707H38.5938Z" fill="#f00"/>
        <path fill-rule="evenodd" clip-rule="evenodd" d="M25.4807 23.634L25.4807 23.633L25.4586 23.6108C25.4469 23.5989 25.435 23.587 25.4231 23.5754L24.534 22.6857L24.4078 22.9369C24.1137 22.8314 23.7971 22.7735 23.4671 22.7735H23.3811C21.841 22.7735 20.5881 24.0264 20.5881 25.5664C20.5881 25.8854 20.6426 26.1917 20.7415 26.4775L20.4805 26.6114L21.4012 27.5342C21.4051 27.5381 21.4089 27.5421 21.4128 27.5459L21.4252 27.5583L21.4256 27.558C21.9298 28.0533 22.6203 28.3595 23.3812 28.3595H23.4671C25.0072 28.3595 26.2601 27.1065 26.2601 25.5665C26.26 24.817 25.9628 24.1361 25.4807 23.634ZM23.4671 27.0703H23.3811C22.5519 27.0703 21.8772 26.3957 21.8772 25.5664C21.8772 24.7372 22.5519 24.0625 23.3811 24.0625H23.4671C24.2963 24.0625 24.971 24.7372 24.971 25.5664C24.971 26.3957 24.2964 27.0703 23.4671 27.0703Z" fill="#f00"/>
        <path fill-rule="evenodd" clip-rule="evenodd" d="M33.5483 23.0482L32.6889 22.1888L20.7773 34.1003L21.6367 34.9597C21.7626 35.0855 21.9276 35.1485 22.0925 35.1485C22.2574 35.1485 22.4224 35.0856 22.5483 34.9597L33.5483 23.9597C33.8 23.708 33.8 23.2998 33.5483 23.0482Z" fill="#f00"/>
        <path fill-rule="evenodd" clip-rule="evenodd" d="M33.7172 30.2465L33.718 30.2462L33.007 29.5253L33.0531 29.8176C32.6985 29.6543 32.3045 29.5625 31.8892 29.5625H31.8033C30.2632 29.5625 29.0103 30.8155 29.0103 32.3555C29.0103 32.7535 29.0945 33.132 29.2452 33.475L28.9297 33.429L29.7849 34.2831C29.8154 34.3151 29.8467 34.3463 29.8788 34.3768L29.8984 34.3964L29.8985 34.3957C30.3979 34.8622 31.0676 35.1486 31.8033 35.1486H31.8892C33.4293 35.1486 34.6822 33.8956 34.6822 32.3556C34.6821 31.5141 34.3076 30.7591 33.7172 30.2465ZM31.8891 33.8594H31.8032C30.974 33.8594 30.2993 33.1847 30.2993 32.3555C30.2993 31.5263 30.974 30.8516 31.8032 30.8516H31.8891C32.7183 30.8516 33.393 31.5263 33.393 32.3555C33.393 33.1847 32.7184 33.8594 31.8891 33.8594Z" fill="#f00"/>
        <path d="M21.2344 34.289C21.0695 34.289 20.9045 34.2261 20.7786 34.1002C20.5269 33.8485 20.5269 33.4404 20.7786 33.1888L31.7786 22.1888C32.0304 21.9371 32.4385 21.9371 32.6902 22.1888C32.9419 22.4405 32.9419 22.8486 32.6902 23.1002L21.6902 34.1002C21.5644 34.2261 21.3994 34.289 21.2344 34.289Z" fill="#000"/>
        <path d="M22.6094 27.5H22.5234C20.9834 27.5 19.7305 26.247 19.7305 24.707C19.7305 23.167 20.9834 21.9141 22.5234 21.9141H22.6094C24.1495 21.9141 25.4023 23.167 25.4023 24.707C25.4023 26.247 24.1495 27.5 22.6094 27.5ZM22.5234 23.2031C21.6942 23.2031 21.0195 23.8778 21.0195 24.707C21.0195 25.5362 21.6942 26.2109 22.5234 26.2109H22.6094C23.4386 26.2109 24.1133 25.5362 24.1133 24.707C24.1133 23.8778 23.4386 23.2031 22.6094 23.2031H22.5234Z" fill="#000"/>
        <path d="M31.0312 34.2891H30.9453C29.4052 34.2891 28.1523 33.0361 28.1523 31.4961C28.1523 29.9561 29.4052 28.7031 30.9453 28.7031H31.0312C32.5713 28.7031 33.8242 29.9561 33.8242 31.4961C33.8242 33.0361 32.5713 34.2891 31.0312 34.2891ZM30.9453 29.9922C30.1161 29.9922 29.4414 30.6669 29.4414 31.4961C29.4414 32.3253 30.1161 33 30.9453 33H31.0312C31.8605 33 32.5352 32.3253 32.5352 31.4961C32.5352 30.6669 31.8605 29.9922 31.0312 29.9922H30.9453Z" fill="#000"/>
        <path d="M28.1795 13.7924C27.8998 13.7924 27.6423 13.6089 27.5607 13.3268C27.4618 12.9848 27.6588 12.6274 28.0008 12.5285C28.0739 12.5074 28.1475 12.4842 28.2195 12.4596C30.1849 11.7887 31.5053 9.94153 31.5053 7.86322V0.64447C31.5053 0.288517 31.7939 -6.10352e-05 32.1499 -6.10352e-05C32.5058 -6.10352e-05 32.7944 0.288517 32.7944 0.64447V7.86322C32.7944 10.4931 31.1232 12.8304 28.6359 13.6795C28.5447 13.7106 28.4515 13.74 28.3589 13.7668C28.2991 13.7841 28.2387 13.7924 28.1795 13.7924Z" fill="#f00"/>
        <path d="M26.8203 15.3828C25.7067 15.3828 24.8008 14.4769 24.8008 13.3633C24.8008 12.2497 25.7067 11.3438 26.8203 11.3438C27.9339 11.3438 28.8398 12.2497 28.8398 13.3633C28.8398 14.4769 27.9339 15.3828 26.8203 15.3828Z" fill="#000"/>
        <path d="M38.5898 33.3437C38.9458 33.3437 39.2344 33.0551 39.2344 32.6992V17.2304C39.2344 16.4611 38.9345 15.6742 38.3901 15.0146L33.61 9.22296C33.3596 8.91951 33.0717 8.66376 32.7591 8.46009C32.7782 8.26312 32.7891 8.06418 32.7891 7.86334V0.644592C32.7891 0.288639 32.5006 6.10352e-05 32.1446 6.10352e-05C31.7887 6.10352e-05 31.5001 0.288639 31.5001 0.644592C31.5001 0.644592 31.4988 7.92479 31.4983 7.95555C31.3149 7.92307 31.1287 7.90631 30.9415 7.90631H22.6055C22.0187 7.90631 21.4434 8.07097 20.9284 8.37355C20.9061 8.38155 20.884 8.39048 20.8624 8.40105L14.5794 11.4615C13.8833 11.8106 13.3267 12.3963 13.0119 13.1105C13.0085 13.1183 13.0052 13.1262 13.0021 13.1341L10.4044 19.7231C10.2739 20.0543 10.4364 20.4285 10.7677 20.5591C10.8453 20.5897 10.9252 20.6042 11.0039 20.6042C11.2608 20.6042 11.5037 20.4494 11.6036 20.1959L14.1963 13.6196C14.3913 13.184 14.7322 12.8271 15.1506 12.6171L18.4702 11.0001L15.1568 15.0147C14.6607 15.6158 14.3985 16.3821 14.3985 17.2306V39.4884C14.3985 39.7476 14.4213 40.0014 14.4626 40.2487L7.8212 37.3059C6.3209 36.6411 5.64096 34.8754 6.30577 33.3698C6.30861 33.3632 6.31136 33.3566 6.31411 33.3501L10.515 22.9101C10.6479 22.5798 10.4879 22.2044 10.1577 22.0715C9.82724 21.9386 9.45203 22.0986 9.31909 22.4288L5.1219 32.8591C4.17813 35.0119 5.15301 37.5334 7.29895 38.4842L15.087 41.9352C15.0965 41.9394 15.1062 41.9425 15.1158 41.9462C15.9063 43.1812 17.2729 44 18.8243 44H34.7227C37.1683 44 39.2344 41.9339 39.2344 39.4883V35.707C39.2344 35.3511 38.9459 35.0625 38.5899 35.0625C38.234 35.0625 37.9454 35.3511 37.9454 35.707V39.4883C37.9454 41.2351 36.4696 42.7109 34.7227 42.7109H18.8243C17.0947 42.7109 15.6876 41.2653 15.6876 39.4883V17.2304C15.6876 16.6772 15.8435 16.2077 16.151 15.8352L20.9311 10.0435C21.376 9.50449 21.9864 9.19529 22.6055 9.19529H30.9415C31.0629 9.19529 31.1839 9.20758 31.3034 9.23078C30.9 10.6067 29.9005 11.7548 28.5509 12.3302C28.1979 11.7399 27.5527 11.3437 26.8164 11.3437C25.7028 11.3437 24.7969 12.2497 24.7969 13.3633C24.7969 14.4768 25.7028 15.3828 26.8164 15.3828C27.8462 15.3828 28.6978 14.6078 28.8203 13.6105C30.5561 12.9539 31.8687 11.5628 32.4535 9.86474C32.5097 9.9212 32.564 9.98059 32.6159 10.0435L37.396 15.8352C37.7502 16.2644 37.9454 16.7599 37.9454 17.2305V32.6993C37.9453 33.0551 38.2339 33.3437 38.5898 33.3437ZM26.8164 14.0937C26.4136 14.0937 26.0859 13.766 26.0859 13.3633C26.0859 12.9605 26.4136 12.6328 26.8164 12.6328C27.2192 12.6328 27.5469 12.9605 27.5469 13.3633C27.5469 13.766 27.2192 14.0937 26.8164 14.0937Z" fill="#0f0"/>
        <path d="M21.2292 34.289C21.3941 34.289 21.5591 34.2261 21.6849 34.1002L32.6849 23.1002C32.9366 22.8485 32.9366 22.4404 32.6849 22.1888C32.4332 21.9371 32.0251 21.9371 31.7734 22.1888L20.7734 33.1888C20.3625 33.5718 20.6778 34.3085 21.2292 34.289Z" fill="#0f0"/>
        <path d="M22.6055 27.5C24.1455 27.5 25.3984 26.247 25.3984 24.707C25.3984 23.167 24.1455 21.9141 22.6055 21.9141H22.5195C20.9795 21.9141 19.7266 23.167 19.7266 24.707C19.7266 26.247 20.9795 27.5 22.5195 27.5H22.6055ZM21.0156 24.707C21.0156 23.8778 21.6903 23.2031 22.5195 23.2031H22.6055C23.4347 23.2031 24.1094 23.8778 24.1094 24.707C24.1094 25.5362 23.4347 26.2109 22.6055 26.2109H22.5195C21.6903 26.2109 21.0156 25.5362 21.0156 24.707Z" fill="#0f0"/>
        <path d="M30.9414 34.2891H31.0273C32.5673 34.2891 33.8203 33.0361 33.8203 31.4961C33.8203 29.9561 32.5673 28.7031 31.0273 28.7031H30.9414C29.4014 28.7031 28.1484 29.9561 28.1484 31.4961C28.1484 33.0361 29.4014 34.2891 30.9414 34.2891ZM30.9414 29.9922H31.0273C31.8566 29.9922 32.5312 30.6669 32.5312 31.4961C32.5312 32.3253 31.8566 33 31.0273 33H30.9414C30.1122 33 29.4375 32.3253 29.4375 31.4961C29.4375 30.6669 30.1122 29.9922 30.9414 29.9922Z" fill="#0f0"/>
    </g>
    <defs>
        <clipPath id="clip0_1019_8566">
            <rect width="44" height="44" fill="white"/>
        </clipPath>
    </defs>
</svg>