<svg width="44" height="44" viewBox="0 0 44 44" fill="#fff" xmlns="http://www.w3.org/2000/svg">
<g clip-path="url(#clip0_626_12254)">
<path d="M21.1464 8.98047L14.8702 12.0375C14.3063 12.3205 13.8583 12.7921 13.6035 13.3704L5.77376 32.9986C4.9644 34.8318 5.78991 36.9745 7.6178 37.7843L15.4057 41.2352H21.1895L21.1464 8.98047Z" fill="#E9E4D8"/>
<path d="M38.5918 35.707V39.4883C38.5918 41.5934 36.8306 43.3555 34.7246 43.3555H18.8262C16.7202 43.3555 15.0449 41.5934 15.0449 39.4883V17.2305C15.0449 16.5665 15.2331 15.937 15.6559 15.4249L20.436 9.63325C20.9793 8.97497 21.7538 8.55078 22.6075 8.55078H30.9434C31.7971 8.55078 32.5717 8.97497 33.115 9.63325L37.8951 15.4249C38.3177 15.937 38.592 16.5666 38.592 17.2305V32.6992V35.707H38.5918Z" fill="#F6D575"/>
<path fill-rule="evenodd" clip-rule="evenodd" d="M25.4807 23.6318L25.4807 23.6309L25.4586 23.6087C25.4469 23.5968 25.435 23.5849 25.4231 23.5732L24.534 22.6836L24.4078 22.9348C24.1137 22.8293 23.7971 22.7713 23.4671 22.7713H23.3811C21.841 22.7713 20.5881 24.0243 20.5881 25.5643C20.5881 25.8833 20.6426 26.1896 20.7415 26.4754L20.4805 26.6093L21.4012 27.5321C21.4051 27.536 21.4089 27.5399 21.4128 27.5438L21.4252 27.5562L21.4256 27.5559C21.9298 28.0512 22.6203 28.3574 23.3812 28.3574H23.4671C25.0072 28.3574 26.2601 27.1044 26.2601 25.5644C26.26 24.8148 25.9628 24.134 25.4807 23.6318ZM23.4671 27.0682H23.3811C22.5519 27.0682 21.8772 26.3935 21.8772 25.5643C21.8772 24.7351 22.5519 24.0604 23.3811 24.0604H23.4671C24.2963 24.0604 24.971 24.7351 24.971 25.5643C24.971 26.3935 24.2964 27.0682 23.4671 27.0682Z" fill="#BDA788"/>
<path fill-rule="evenodd" clip-rule="evenodd" d="M33.5483 23.0469L32.6889 22.1875L20.7773 34.099L21.6367 34.9583C21.7626 35.0841 21.9276 35.1471 22.0925 35.1471C22.2574 35.1471 22.4224 35.0842 22.5483 34.9583L33.5483 23.9583C33.8 23.7067 33.8 23.2985 33.5483 23.0469Z" fill="#BDA788"/>
<path fill-rule="evenodd" clip-rule="evenodd" d="M33.7172 30.2446L33.718 30.2443L33.007 29.5234L33.0531 29.8157C32.6985 29.6524 32.3045 29.5606 31.8892 29.5606H31.8033C30.2632 29.5606 29.0103 30.8136 29.0103 32.3536C29.0103 32.7516 29.0945 33.1302 29.2452 33.4731L28.9297 33.4272L29.7849 34.2812C29.8154 34.3132 29.8467 34.3444 29.8788 34.3749L29.8984 34.3945L29.8985 34.3938C30.3979 34.8603 31.0676 35.1467 31.8033 35.1467H31.8892C33.4293 35.1467 34.6822 33.8937 34.6822 32.3537C34.6821 31.5122 34.3076 30.7572 33.7172 30.2446ZM31.8891 33.8575H31.8032C30.974 33.8575 30.2993 33.1828 30.2993 32.3536C30.2993 31.5244 30.974 30.8497 31.8032 30.8497H31.8891C32.7183 30.8497 33.393 31.5244 33.393 32.3536C33.393 33.1828 32.7184 33.8575 31.8891 33.8575Z" fill="#BDA788"/>
<path d="M21.2325 34.289C21.0676 34.289 20.9026 34.2261 20.7767 34.1002C20.525 33.8485 20.525 33.4404 20.7767 33.1888L31.7767 22.1888C32.0285 21.9371 32.4365 21.9371 32.6882 22.1888C32.9399 22.4405 32.9399 22.8486 32.6882 23.1002L21.6882 34.1002C21.5624 34.2261 21.3974 34.289 21.2325 34.289Z" fill="#F5F5F5"/>
<path d="M22.6074 27.5H22.5215C20.9814 27.5 19.7285 26.247 19.7285 24.707C19.7285 23.167 20.9814 21.9141 22.5215 21.9141H22.6074C24.1475 21.9141 25.4004 23.167 25.4004 24.707C25.4004 26.247 24.1475 27.5 22.6074 27.5ZM22.5215 23.2031C21.6923 23.2031 21.0176 23.8778 21.0176 24.707C21.0176 25.5362 21.6923 26.2109 22.5215 26.2109H22.6074C23.4366 26.2109 24.1113 25.5362 24.1113 24.707C24.1113 23.8778 23.4366 23.2031 22.6074 23.2031H22.5215Z" fill="#F5F5F5"/>
<path d="M31.0293 34.2891H30.9434C29.4033 34.2891 28.1504 33.0361 28.1504 31.4961C28.1504 29.9561 29.4033 28.7031 30.9434 28.7031H31.0293C32.5694 28.7031 33.8223 29.9561 33.8223 31.4961C33.8223 33.0361 32.5694 34.2891 31.0293 34.2891ZM30.9434 29.9922C30.1141 29.9922 29.4395 30.6669 29.4395 31.4961C29.4395 32.3253 30.1141 33 30.9434 33H31.0293C31.8585 33 32.5332 32.3253 32.5332 31.4961C32.5332 30.6669 31.8585 29.9922 31.0293 29.9922H30.9434Z" fill="#F5F5F5"/>
<path d="M28.1756 13.7925C27.8959 13.7925 27.6384 13.609 27.5568 13.3268C27.4579 12.9849 27.6549 12.6275 27.9969 12.5286C28.07 12.5074 28.1436 12.4842 28.2156 12.4596C30.181 11.7887 31.5014 9.94159 31.5014 7.86328V0.644531C31.5014 0.288578 31.79 0 32.1459 0C32.5019 0 32.7905 0.288578 32.7905 0.644531V7.86328C32.7905 10.4931 31.1193 12.8305 28.632 13.6795C28.5408 13.7106 28.4476 13.74 28.355 13.7668C28.2952 13.7842 28.2348 13.7925 28.1756 13.7925Z" fill="#E6B425"/>
<path d="M26.8184 15.3828C25.7048 15.3828 24.7988 14.4769 24.7988 13.3633C24.7988 12.2497 25.7048 11.3438 26.8184 11.3438C27.9319 11.3438 28.8379 12.2497 28.8379 13.3633C28.8379 14.4769 27.9319 15.3828 26.8184 15.3828Z" fill="#F5F5F5"/>
<path d="M38.5918 33.3437C38.9477 33.3437 39.2363 33.0551 39.2363 32.6991V17.2304C39.2363 16.4611 38.9365 15.6741 38.3921 15.0146L33.612 9.2229C33.3615 8.91945 33.0737 8.6637 32.761 8.46003C32.7802 8.26306 32.7911 8.06412 32.7911 7.86328V0.644531C32.7911 0.288578 32.5025 0 32.1466 0C31.7906 0 31.502 0.288578 31.502 0.644531C31.502 0.644531 31.5007 7.92473 31.5002 7.95549C31.3168 7.92301 31.1307 7.90625 30.9434 7.90625H22.6075C22.0206 7.90625 21.4454 8.07091 20.9303 8.37349C20.9081 8.38148 20.886 8.39042 20.8643 8.40099L14.5814 11.4614C13.8853 11.8106 13.3287 12.3962 13.0139 13.1105C13.0104 13.1183 13.0072 13.1261 13.0041 13.134L10.4063 19.723C10.2758 20.0542 10.4384 20.4285 10.7696 20.5591C10.8472 20.5897 10.9271 20.6041 11.0058 20.6041C11.2628 20.6041 11.5057 20.4493 11.6056 20.1958L14.1983 13.6195C14.3932 13.1839 14.7342 12.827 15.1526 12.617L18.4722 11.0001L15.1588 15.0147C14.6627 15.6157 14.4005 16.382 14.4005 17.2306V39.4884C14.4005 39.7476 14.4232 40.0013 14.4646 40.2487L7.82315 37.3058C6.32285 36.6411 5.64292 34.8753 6.30773 33.3697C6.31056 33.3632 6.31331 33.3566 6.31606 33.35L10.5169 22.91C10.6498 22.5797 10.4899 22.2044 10.1596 22.0714C9.82919 21.9386 9.45399 22.0986 9.32104 22.4287L5.12385 32.8591C4.18009 35.0118 5.15496 37.5334 7.30091 38.4842L15.0889 41.9351C15.0984 41.9393 15.1082 41.9424 15.1178 41.9461C15.9082 43.1812 17.2748 43.9999 18.8262 43.9999H34.7247C37.1703 43.9999 39.2364 41.9338 39.2364 39.4882V35.7069C39.2364 35.351 38.9478 35.0624 38.5919 35.0624C38.2359 35.0624 37.9473 35.351 37.9473 35.7069V39.4882C37.9473 41.235 36.4715 42.7108 34.7247 42.7108H18.8262C17.0967 42.7108 15.6895 41.2652 15.6895 39.4882V17.2304C15.6895 16.6771 15.8454 16.2076 16.153 15.8351L20.9331 10.0434C21.378 9.50443 21.9883 9.19523 22.6075 9.19523H30.9434C31.0649 9.19523 31.1859 9.20752 31.3054 9.23072C30.9019 10.6067 29.9025 11.7548 28.5528 12.3301C28.1999 11.7398 27.5547 11.3437 26.8183 11.3437C25.7048 11.3437 24.7988 12.2496 24.7988 13.3632C24.7988 14.4768 25.7048 15.3827 26.8183 15.3827C27.8481 15.3827 28.6998 14.6077 28.8222 13.6104C30.5581 12.9539 31.8707 11.5627 32.4555 9.86468C32.5116 9.92114 32.5659 9.98052 32.6178 10.0434L37.3979 15.8352C37.7522 16.2644 37.9473 16.7599 37.9473 17.2305V32.6992C37.9473 33.0551 38.2358 33.3437 38.5918 33.3437ZM26.8183 14.0937C26.4156 14.0937 26.0879 13.766 26.0879 13.3632C26.0879 12.9604 26.4156 12.6327 26.8183 12.6327C27.2211 12.6327 27.5488 12.9604 27.5488 13.3632C27.5488 13.766 27.2211 14.0937 26.8183 14.0937Z" fill="black"/>
<path d="M21.2331 34.289C21.398 34.289 21.563 34.2261 21.6888 34.1002L32.6888 23.1002C32.9405 22.8485 32.9405 22.4404 32.6888 22.1888C32.4371 21.9371 32.029 21.9371 31.7773 22.1888L20.7773 33.1888C20.3664 33.5718 20.6817 34.3085 21.2331 34.289Z" fill="black"/>
<path d="M22.6074 27.5C24.1474 27.5 25.4004 26.247 25.4004 24.707C25.4004 23.167 24.1474 21.9141 22.6074 21.9141H22.5215C20.9815 21.9141 19.7285 23.167 19.7285 24.707C19.7285 26.247 20.9815 27.5 22.5215 27.5H22.6074ZM21.0176 24.707C21.0176 23.8778 21.6923 23.2031 22.5215 23.2031H22.6074C23.4366 23.2031 24.1113 23.8778 24.1113 24.707C24.1113 25.5362 23.4366 26.2109 22.6074 26.2109H22.5215C21.6923 26.2109 21.0176 25.5362 21.0176 24.707Z" fill="black"/>
<path d="M30.9434 34.2891H31.0293C32.5693 34.2891 33.8223 33.0361 33.8223 31.4961C33.8223 29.9561 32.5693 28.7031 31.0293 28.7031H30.9434C29.4034 28.7031 28.1504 29.9561 28.1504 31.4961C28.1504 33.0361 29.4034 34.2891 30.9434 34.2891ZM30.9434 29.9922H31.0293C31.8585 29.9922 32.5332 30.6669 32.5332 31.4961C32.5332 32.3253 31.8585 33 31.0293 33H30.9434C30.1141 33 29.4395 32.3253 29.4395 31.4961C29.4395 30.6669 30.1141 29.9922 30.9434 29.9922Z" fill="black"/>
</g>
<defs>
<clipPath id="clip0_626_12254">
<rect width="44" height="44" fill="white"/>
</clipPath>
</defs>
</svg>
