<svg width="128" height="128" viewBox="0 0 128 128" fill="none" xmlns="http://www.w3.org/2000/svg">
    <path d="M70.7193 19.26C69.1293 16.65 69.7193 15.63 74.5993 12.47C79.4793 9.31003 74.5293 8.00003 74.5293 8.00003C68.8493 7.57003 65.1593 10.15 63.5293 12.34C61.8993 14.53 64.6693 18.92 64.6693 18.92L70.7193 19.26Z" fill="#000"/>
    <path d="M30.9314 49.4C27.7302 54.4792 25.758 60.235 25.1714 66.21L25.0014 67.84C25.0014 68.38 25.0014 68.93 25.0014 69.48C24.9779 70.5679 25.0147 71.6562 25.1114 72.74C25.3662 76.6048 26.2302 80.405 27.6714 84C28.0614 84.88 28.3414 85.81 28.8114 86.66L30.1614 89.22C31.1459 90.8829 32.2523 92.4706 33.4714 93.97C34.5593 95.3007 35.7388 96.5538 37.0014 97.72C37.6314 98.3 38.3114 98.82 39.0014 99.38L40.0014 100.19C40.3414 100.45 40.7014 100.67 41.0014 100.91C44.6134 103.398 48.6006 105.292 52.8114 106.52C54.1014 106.96 53.8614 107.24 52.6414 107.22C51.8119 107.193 50.9859 107.1 50.1714 106.94C49.0188 106.689 47.896 106.317 46.8214 105.83C38.2537 102.022 31.3649 95.2255 27.4414 86.71C25.0625 81.5466 23.7854 75.9443 23.6914 70.26C23.6914 69.48 23.6914 68.7 23.6914 67.92L23.9214 65.6C24.0806 64.0513 24.3412 62.5147 24.7014 61C24.8541 60.2339 25.0579 59.4789 25.3114 58.74L26.0014 56.51L26.8814 54.36C27.1734 53.6314 27.5073 52.9202 27.8814 52.23L29.2214 49.69C29.7114 48.88 30.2214 48.09 30.7714 47.28C31.276 46.4857 31.8305 45.7242 32.4314 45C32.9976 44.2313 33.6086 43.4967 34.2614 42.8C38.1498 38.5031 42.8724 35.0428 48.1414 32.63C52.1836 30.8087 56.5044 29.6829 60.9214 29.3L62.3714 29.16C62.8614 29.16 63.3714 29.16 63.8314 29.16L66.1414 29.22C66.7714 29.3 67.2714 29.39 67.6914 29.47C68.2697 29.5651 68.8277 29.7579 69.3414 30.04C69.5068 30.1243 69.6613 30.2284 69.8014 30.35C70.0914 30.66 68.6114 30.7 66.0514 30.46C58.0775 30.1712 50.2068 32.3352 43.5014 36.66C38.429 39.9161 34.1564 44.2742 31.0014 49.41L30.9314 49.4Z" fill="#000"/>
    <path d="M70.838 32.69C70.738 32.5 70.978 32.39 71.428 32.32C71.6389 32.2995 71.8516 32.3303 72.048 32.41C72.1489 32.507 72.2394 32.6142 72.318 32.73C72.318 32.79 72.438 33.73 72.488 34.07C72.5282 34.3787 72.5282 34.6913 72.488 35C72.418 35.63 72.358 36.25 72.288 36.87C72.2715 37.0113 72.2344 37.1495 72.178 37.28C72.0064 37.7311 71.9117 38.2077 71.898 38.69C71.8734 38.7682 71.8734 38.8519 71.898 38.93C71.9402 39.4641 71.8929 40.0015 71.758 40.52C71.588 40.92 71.458 41.32 71.308 41.73C71.308 41.78 71.308 41.85 71.218 41.89C71.1544 41.9254 71.1019 41.9779 71.0666 42.0415C71.0312 42.1051 71.0144 42.1773 71.018 42.25C70.9822 42.4308 70.9216 42.6058 70.838 42.77C70.838 42.86 70.688 42.93 70.598 43.01C70.508 43.09 70.258 43.01 70.238 43.01C70.218 43.01 70.028 43.01 69.918 43.01H69.808C69.6246 42.6259 69.4934 42.219 69.418 41.8C69.418 41.8 69.418 40.27 69.418 40.09C69.4211 39.9978 69.4487 39.9081 69.498 39.83C69.498 39.83 69.498 38.58 69.498 38.53C69.498 38.29 69.498 38.03 69.688 37.81C69.688 37.81 69.688 37.71 69.688 37.66C69.7563 37.1994 69.86 36.7448 69.998 36.3C69.998 36.09 69.998 35.87 70.078 35.65C70.078 35.65 70.078 35.58 70.078 35.54C70.1022 35.4953 70.1223 35.4484 70.138 35.4C70.138 34.88 70.318 34.4 70.298 33.85C70.298 33.73 70.558 33.19 70.548 33.05C70.538 32.91 70.878 32.76 70.838 32.69Z" fill="#000"/>
    <path d="M104.121 73.64C104.301 73.53 104.411 73.77 104.481 74.22C104.498 74.4309 104.467 74.6428 104.391 74.84C104.297 74.9439 104.193 75.0378 104.081 75.12C104.021 75.12 103.081 75.25 102.771 75.3C102.469 75.3451 102.162 75.3451 101.861 75.3C101.261 75.23 100.651 75.18 100.041 75.12C99.9039 75.1021 99.7697 75.0686 99.6406 75.02C99.2009 74.847 98.7332 74.7555 98.2606 74.75C98.1858 74.7263 98.1055 74.7263 98.0306 74.75C97.5109 74.794 96.9874 74.7535 96.4806 74.63C96.0906 74.46 95.7006 74.33 95.3006 74.19C95.3006 74.19 95.1806 74.19 95.1406 74.1C95.1006 74.01 94.9106 73.93 94.7906 73.9C94.6151 73.8616 94.4441 73.8046 94.2806 73.73C94.1894 73.6654 94.1114 73.5839 94.0506 73.49C93.9806 73.41 94.0506 73.15 94.0506 73.13C94.0506 73.11 94.0506 72.92 94.0506 72.81C94.0453 72.7702 94.0453 72.7299 94.0506 72.69C94.422 72.5095 94.8153 72.3784 95.2206 72.3C95.2206 72.3 96.7206 72.3 96.8906 72.3C96.9781 72.3045 97.0635 72.3284 97.1406 72.37C97.1406 72.37 98.3606 72.37 98.4106 72.37C98.6506 72.37 98.9006 72.37 99.1206 72.56C99.1661 72.5753 99.2152 72.5753 99.2606 72.56C99.6758 72.5951 100.087 72.6654 100.491 72.77C100.701 72.77 100.921 72.77 101.131 72.83L101.241 72.88C101.287 72.8885 101.334 72.8885 101.381 72.88C101.881 72.9586 102.385 73.012 102.891 73.04C103.001 73.04 103.531 73.28 103.671 73.27C103.811 73.26 104.001 73.68 104.121 73.64Z" fill="#000"/>
    <path d="M27.1799 64.31C27.0099 64.41 26.9099 64.18 26.8399 63.73C26.825 63.5201 26.8522 63.3093 26.9199 63.11C27.0096 63.0062 27.1102 62.9124 27.2199 62.83C27.2799 62.83 28.1599 62.69 28.4599 62.64C28.7448 62.5951 29.035 62.5951 29.3199 62.64L31.0599 62.8C31.1908 62.8145 31.3188 62.8482 31.4399 62.9C31.853 63.0665 32.2945 63.1514 32.7399 63.15C32.8146 63.1745 32.8952 63.1745 32.9699 63.15C33.4621 63.1042 33.9585 63.1379 34.4399 63.25C34.8099 63.42 35.1799 63.54 35.5599 63.68C35.5599 63.68 35.6699 63.68 35.7099 63.77C35.7499 63.86 35.9299 63.94 36.0499 63.97C36.2154 64.0052 36.3764 64.0589 36.5299 64.13C36.6178 64.1953 36.6925 64.2768 36.7499 64.37C36.7736 64.4271 36.7857 64.4883 36.7857 64.55C36.7857 64.6118 36.7736 64.673 36.7499 64.73C36.6599 64.81 36.7499 64.94 36.7499 65.05C36.7499 65.16 36.7499 65.14 36.7499 65.16C36.402 65.3503 36.028 65.4884 35.6399 65.57C35.6399 65.57 34.2199 65.57 34.0599 65.57C33.9722 65.567 33.8865 65.543 33.8099 65.5C33.8099 65.5 32.6499 65.5 32.6099 65.5C32.3799 65.5 32.1499 65.5 31.9399 65.32C31.8943 65.3061 31.8455 65.3061 31.7999 65.32C31.4047 65.2883 31.0132 65.2214 30.6299 65.12C30.4299 65.12 30.2199 65.12 30.0199 65.06C30.0199 65.06 29.9499 65.06 29.9199 65.06C29.8768 65.0534 29.833 65.0534 29.7899 65.06C29.3166 64.9837 28.839 64.9369 28.3599 64.92C28.2399 64.92 27.7399 64.68 27.6099 64.69C27.4799 64.7 27.2499 64.27 27.1799 64.31Z" fill="#000"/>
    <path d="M60.1409 108.46C60.2509 108.63 60.011 108.73 59.561 108.79C59.3511 108.803 59.1406 108.776 58.9409 108.71C58.84 108.621 58.7464 108.524 58.661 108.42C58.661 108.36 58.521 107.5 58.471 107.21C58.4316 106.931 58.4316 106.649 58.471 106.37C58.531 105.81 58.571 105.25 58.631 104.69C58.6502 104.567 58.6838 104.446 58.731 104.33C58.8963 103.927 58.9812 103.496 58.981 103.06C58.9977 103.026 59.0065 102.988 59.0065 102.95C59.0065 102.912 58.9977 102.874 58.981 102.84C58.939 102.361 58.9761 101.877 59.091 101.41C59.261 101.06 59.381 100.69 59.521 100.33C59.521 100.33 59.5209 100.22 59.6009 100.18C59.6809 100.14 59.7709 99.97 59.8009 99.86C59.8346 99.6973 59.8883 99.5394 59.9609 99.39C60.0292 99.3076 60.1102 99.2367 60.201 99.18C60.281 99.12 60.541 99.18 60.571 99.18C60.601 99.18 60.771 99.18 60.881 99.23H61.001C61.1827 99.5712 61.3204 99.9341 61.411 100.31C61.411 100.31 61.411 101.69 61.411 101.85C61.4075 101.931 61.3834 102.011 61.341 102.08C61.341 102.08 61.341 103.21 61.341 103.25C61.341 103.47 61.341 103.7 61.161 103.9C61.1457 103.945 61.1457 103.995 61.161 104.04C61.1326 104.422 61.069 104.8 60.971 105.17C60.9411 105.366 60.921 105.562 60.911 105.76C60.9145 105.793 60.9145 105.827 60.911 105.86C60.9053 105.903 60.9053 105.947 60.911 105.99C60.911 106.45 60.751 106.91 60.771 107.38C60.771 107.48 60.5309 107.97 60.5509 108.1C60.5709 108.23 60.101 108.4 60.1409 108.46Z" fill="#000"/>
    <path d="M104.85 71.09C104.86 70.9435 104.86 70.7965 104.85 70.65C104.85 69.89 104.75 69.11 104.71 68.35C104.256 60.2367 101.323 52.458 96.3088 46.0638C91.2943 39.6695 84.4387 34.9676 76.6675 32.5926C68.8963 30.2177 60.5836 30.284 52.8513 32.7826C45.1189 35.2813 38.3393 40.0919 33.4274 46.5654C28.5155 53.0388 25.7078 60.8633 25.3833 68.9828C25.0587 77.1024 27.233 85.126 31.6125 91.9708C35.9921 98.8156 42.3662 104.152 49.8744 107.26C57.3826 110.368 65.6636 111.097 73.5995 109.35C78.4827 108.273 83.1155 106.273 87.2495 103.46C95.6043 97.8118 101.502 89.2012 103.75 79.37C103.91 78.67 104.15 77.96 104.26 77.26C104.26 77.12 104.32 76.97 104.34 76.81C104.57 75.23 104.2 73.9 103.53 73.81C102.86 73.72 102.14 74.91 101.94 76.39C101.94 76.52 101.94 76.66 101.94 76.8C101.895 77.5248 101.771 78.2425 101.57 78.94L101 81.22L100.24 83.39C99.722 84.827 99.1142 86.2298 98.4195 87.59C95.3071 93.6412 90.6165 98.7383 84.8442 102.342C79.072 105.945 72.4328 107.921 65.6295 108.06C61.1077 108.105 56.613 107.357 52.3495 105.85C45.9195 103.591 40.2304 99.6155 35.8992 94.3536C31.568 89.0916 28.76 82.7444 27.7795 76C27.1336 71.5265 27.2758 66.9745 28.1995 62.55C30.0966 53.6341 35.1945 45.7221 42.5295 40.31C47.9833 36.2279 54.4461 33.7086 61.2238 33.0225C68.0014 32.3364 74.838 33.5095 80.9992 36.4159C87.1604 39.3222 92.4136 43.852 96.1945 49.5188C99.9754 55.1855 102.141 61.7752 102.46 68.58C102.532 69.2448 102.532 69.9153 102.46 70.58V71.01C102.4 72.5 102.91 73.76 103.58 73.83C104.25 73.9 104.79 72.69 104.85 71.09Z" fill="#000"/>
    <path d="M34.4896 32.09C31.5035 34.5299 28.8179 37.3161 26.4896 40.39C25.8796 41.14 25.3088 41.921 24.7796 42.73C24.2077 43.5111 23.6834 44.3259 23.2096 45.17C22.1984 46.8158 21.3029 48.53 20.5296 50.3C17.3198 57.378 15.9442 65.1503 16.5296 72.9C16.921 78.5524 18.309 84.0911 20.6296 89.26C22.7015 93.8024 25.4271 98.017 28.7196 101.77C32.0923 105.468 36.0029 108.637 40.3196 111.17C44.6668 113.688 49.3602 115.555 54.2496 116.71C59.1658 117.829 64.2212 118.21 69.2496 117.84C78.1924 117.145 86.7735 114.012 94.0596 108.78C96.3787 107.14 98.5322 105.278 100.49 103.22C102.47 101.186 104.255 98.9693 105.82 96.6C108.969 91.866 111.263 86.6166 112.6 81.09C113.38 77.66 113.94 78.17 113.95 81.32C113.871 83.492 113.535 85.647 112.95 87.74C112.121 90.7484 110.882 93.6286 109.27 96.3C102.767 106.868 92.5941 114.666 80.6996 118.2C74.8343 119.985 68.7012 120.726 62.5796 120.39C59.5283 120.189 56.4984 119.741 53.5196 119.05C50.5485 118.321 47.6447 117.341 44.8396 116.12C38.0127 113.16 31.8812 108.803 26.8396 103.33C18.7731 94.3694 14.1942 82.809 13.9372 70.7552C13.6802 58.7013 17.7623 46.9563 25.4396 37.66C31.0201 30.7591 38.3122 25.4415 46.5887 22.2376C54.8652 19.0337 63.837 18.0553 72.6096 19.4C80.1236 20.5375 87.2826 23.3614 93.5496 27.66C95.9527 29.3119 98.2108 31.1652 100.3 33.2C101.3 34.27 102.36 35.26 103.3 36.4L104.69 38.07L105.97 39.83C109.347 44.5573 111.909 49.8167 113.55 55.39C114.283 57.8372 114.841 60.3335 115.22 62.86C115.72 66.2166 115.81 69.6216 115.49 73C115.416 73.9013 115.266 74.7946 115.04 75.67C114.9 76.27 114.689 76.851 114.41 77.4C114.229 77.836 114.015 78.2573 113.77 78.66C113.04 79.45 113.6 75.66 113.32 68.95C112.856 58.7504 109.418 48.9093 103.43 40.64C100.406 36.4468 96.6858 32.8039 92.4296 29.87C88.1627 26.8921 83.432 24.6417 78.4296 23.21C70.9464 21.0724 63.0609 20.7535 55.4296 22.28C47.7799 23.8219 40.6205 27.2025 34.5696 32.13L34.4896 32.09Z" fill="#000"/>
    <path d="M65.7394 72.59C65.4594 72.59 65.3594 72.33 65.3594 71.85C65.385 71.6396 65.4719 71.4414 65.6094 71.28C65.7763 71.2281 65.9468 71.188 66.1194 71.16C66.2194 71.16 67.5494 71.49 68.0094 71.59C68.4494 71.6944 68.8782 71.8418 69.2894 72.03L71.8194 73.03C72.0097 73.1102 72.1907 73.2108 72.3594 73.33C72.9434 73.7161 73.5711 74.0317 74.2294 74.27C74.3327 74.3298 74.45 74.3608 74.5694 74.36C75.3143 74.5915 76.0319 74.9034 76.7094 75.29C77.2094 75.67 77.7094 76 78.2294 76.37C78.3094 76.37 78.3994 76.45 78.4394 76.55C78.4794 76.65 78.7094 76.85 78.8694 76.96C79.1029 77.0997 79.3208 77.264 79.5194 77.45C79.6155 77.5676 79.693 77.6991 79.7494 77.84C79.8094 77.96 79.5994 78.15 79.5594 78.15C79.5194 78.15 79.4194 78.32 79.3694 78.41C79.3539 78.4459 79.3337 78.4795 79.3094 78.51C78.7534 78.4366 78.2024 78.3298 77.6594 78.19L77.3194 78.04L76.6094 77.75L75.3894 77.29C75.2698 77.2406 75.1585 77.1731 75.0594 77.09C75.0594 77.09 73.3694 76.48 73.3094 76.45C72.9641 76.3372 72.6446 76.157 72.3694 75.92C72.3161 75.8682 72.2508 75.8304 72.1794 75.81C71.6086 75.5738 71.0511 75.3068 70.5094 75.01C70.2194 74.87 69.9194 74.77 69.6294 74.64C69.5782 74.6135 69.5311 74.5798 69.4894 74.54C69.432 74.4939 69.368 74.4568 69.2994 74.43C68.6094 74.16 67.9494 73.78 67.2294 73.57C67.0594 73.52 66.3794 73.02 66.2294 72.97C66.0794 72.92 65.8494 72.59 65.7394 72.59Z" fill="#000"/>
    <path d="M66.4978 68.58C66.5778 68.84 66.3178 69.01 65.8578 69.13C65.6469 69.1559 65.4332 69.1138 65.2478 69.01C65.1542 68.8607 65.0739 68.7035 65.0078 68.54C65.0078 68.44 65.0078 67.03 65.0078 66.54C65.0143 66.0802 65.0612 65.6217 65.1478 65.17L65.6078 62.41C65.6435 62.2047 65.7005 62.0036 65.7778 61.81C66.0219 61.1376 66.1896 60.4399 66.2778 59.73C66.3128 59.6126 66.3128 59.4875 66.2778 59.37C66.3381 58.5664 66.4856 57.7717 66.7178 57C66.9778 56.36 67.2078 55.82 67.4378 55.23C67.4378 55.15 67.4378 55.05 67.5778 54.99C67.7178 54.93 67.8078 54.65 67.8778 54.46C67.9676 54.1952 68.0849 53.9404 68.2278 53.7C68.3245 53.5734 68.443 53.465 68.5778 53.38C68.6878 53.29 68.9078 53.47 68.9178 53.52C68.9278 53.57 69.0978 53.62 69.2078 53.66H69.3078C69.3393 54.2229 69.3393 54.7871 69.3078 55.35L69.2478 55.71C69.2478 55.92 69.1678 56.2 69.1178 56.49C69.0278 57.06 68.9478 57.68 68.9378 57.8C68.9126 57.9322 68.8688 58.0601 68.8078 58.18C68.8078 58.18 68.5878 60 68.5778 60.07C68.5339 60.419 68.429 60.7575 68.2678 61.07C68.2327 61.1384 68.2122 61.2133 68.2078 61.29C68.1278 61.91 67.9478 62.52 67.8078 63.14C67.7278 63.45 67.6978 63.78 67.6378 64.09C67.6223 64.1482 67.6022 64.205 67.5778 64.26C67.5455 64.3267 67.522 64.3973 67.5078 64.47C67.3978 65.23 67.1778 65.97 67.1278 66.73C67.1278 66.91 66.7878 67.73 66.7878 67.91C66.7878 68.09 66.4678 68.47 66.4978 68.58Z" fill="#000"/>
    <path d="M67.2687 72.1201C67.0987 72.4301 66.7587 71.8901 66.4587 72.1901C64.2887 74.3901 61.3787 69.3401 64.1387 68.1001C65.6487 67.4201 68.6387 69.7201 67.2687 72.1201Z" fill="#000"/>
    <path d="M63.6777 74.47C63.0515 74.1651 62.4958 73.7328 62.0463 73.2007C61.5969 72.6686 61.2636 72.0484 61.0677 71.38C60.9007 70.8946 60.8228 70.3831 60.8377 69.87C60.9217 68.9733 61.3057 68.1312 61.9277 67.48C62.4809 66.8953 63.167 66.4527 63.9277 66.19C64.59 65.9476 65.2929 65.8355 65.9977 65.86C66.51 65.8926 67.007 66.0469 67.4477 66.31C67.8877 66.5667 68.2132 66.9815 68.3577 67.47C68.4477 67.78 67.8277 67.99 67.1977 68.18L66.3577 68.46C66.1077 68.56 65.9777 68.62 65.9377 68.6C65.7167 68.4934 65.473 68.4419 65.2277 68.45C64.7805 68.4829 64.3431 68.5981 63.9377 68.79C63.8092 68.8477 63.6935 68.9306 63.5973 69.0336C63.5012 69.1366 63.4265 69.2578 63.3777 69.39C63.2823 69.6349 63.2414 69.8977 63.2577 70.16C63.2816 70.502 63.3766 70.8352 63.5368 71.1383C63.6969 71.4413 63.9187 71.7076 64.1877 71.92C64.5192 72.2042 64.9324 72.3758 65.3677 72.41C65.7236 72.3864 66.071 72.2909 66.389 72.1294C66.7069 71.9678 66.9889 71.7435 67.2177 71.47C67.402 71.276 67.5406 71.0434 67.6236 70.7892C67.7067 70.5349 67.732 70.2653 67.6977 70C67.6757 69.9332 67.6455 69.8693 67.6077 69.81C67.5377 69.64 67.6077 69.54 68.1277 69.05L68.4377 68.7C68.5156 68.6091 68.6123 68.5361 68.721 68.486C68.8297 68.436 68.948 68.41 69.0677 68.41C69.2157 68.4236 69.358 68.4737 69.4818 68.5557C69.6057 68.6377 69.7074 68.7491 69.7777 68.88C70.0708 69.3569 70.2137 69.9109 70.1877 70.47C70.1803 71.0001 70.0574 71.5222 69.8277 72C69.4208 72.8086 68.8109 73.4977 68.0577 74C67.4631 74.4294 66.7796 74.7199 66.0577 74.85C65.6436 74.9155 65.2218 74.9155 64.8077 74.85C64.4286 74.7919 64.0588 74.6843 63.7077 74.53L63.6777 74.47Z" fill="#000"/>
    <path d="M78.6791 10.09C76.9075 9.41543 75.0341 9.04685 73.1391 9C72.7891 9 72.4391 9 72.1391 9C71.8391 9 71.4491 9.08 71.1391 9.1C69.9434 9.20645 68.7668 9.46867 67.6391 9.88C66.5619 10.2921 65.613 10.9822 64.8891 11.88C64.2618 12.678 63.9456 13.6765 63.9991 14.69C64.1658 16.0252 64.4605 17.3412 64.8791 18.62C64.9591 19.05 64.3691 19.3 63.6391 19.18C63.2337 19.1085 62.8504 18.9442 62.5191 18.7C62.3347 18.5707 62.1697 18.4158 62.0291 18.24C61.9045 18.0334 61.807 17.8115 61.7391 17.58C61.1519 15.7817 61.2013 13.8361 61.8791 12.07C62.6373 10.3271 64.0322 8.93927 65.7791 8.19C67.6392 7.32676 69.6359 6.79542 71.6791 6.62C73.8559 6.48216 76.0404 6.71548 78.1391 7.31C79.4378 7.66389 80.6899 8.17077 81.8691 8.82C83.7448 9.78334 85.2521 11.3363 86.1591 13.24C86.8409 14.775 87.0262 16.4846 86.6891 18.13C86.5991 18.48 86.5191 18.82 86.4091 19.13C86.2894 19.5938 86.0396 20.0136 85.6891 20.34C85.5714 20.4387 85.4327 20.5089 85.2836 20.5454C85.1344 20.5818 84.9789 20.5834 84.8291 20.55C84.6701 20.5388 84.5127 20.512 84.3591 20.47C83.8691 20.29 83.7191 19.65 83.9491 18.89C84.2727 17.8287 84.3948 16.7162 84.3091 15.61C84.1777 14.6034 83.7535 13.6575 83.0891 12.89C81.8962 11.5927 80.3818 10.6336 78.6991 10.11L78.6791 10.09Z" fill="#000"/>
    <path d="M15.2496 80.1C15.614 82.1314 16.1152 84.136 16.7496 86.1L16.9596 86.84L17.2496 87.56L17.8196 89L18.3796 90.43L18.6696 91.15L19.0196 91.84C19.897 93.7054 20.8993 95.5095 22.0196 97.24C22.5996 98.09 23.0896 99 23.7396 99.81L25.6596 102.23L26.3596 103.11L27.1496 103.92L28.7396 105.53C29.7958 106.603 30.9216 107.605 32.1096 108.53C40.422 115.295 50.6756 119.233 61.3796 119.77C66.1052 119.999 70.8388 119.534 75.4296 118.39C78.367 117.655 81.2345 116.664 83.9996 115.43L85.9996 114.43L86.9996 113.94L87.9996 113.39L89.9996 112.29L91.9096 111.07C93.4896 110.07 93.4996 110.48 92.3496 111.65C91.5628 112.463 90.6949 113.193 89.7596 113.83C89.1896 114.23 88.5496 114.66 87.8696 115.09C87.1896 115.52 86.3996 115.87 85.5996 116.27C74.0224 121.744 60.7996 122.624 48.5996 118.73C41.1689 116.403 34.3409 112.47 28.5996 107.21L26.3596 104.92C25.9996 104.53 25.5996 104.17 25.2696 103.75L24.2696 102.5C23.6096 101.66 22.9296 100.84 22.2696 99.99L20.5396 97.3C20.2496 96.85 19.9596 96.41 19.6796 95.95L18.9996 94.54L17.5396 91.69L16.3596 88.69L15.7796 87.21L15.3296 85.68L14.7796 83.79C14.5797 83.164 14.4194 82.5261 14.2996 81.88L13.5696 78.02C13.2315 75.4241 13.0777 72.8076 13.1096 70.19C13.1201 68.2063 13.2604 66.2254 13.5296 64.26C13.6283 63.2848 13.7853 62.3164 13.9996 61.36L14.6096 58.45L15.4996 55.62C15.7713 54.669 16.1054 53.737 16.4996 52.83C17.2149 50.9938 18.05 49.2066 18.9996 47.48C20.4056 44.79 22.0523 42.2329 23.9196 39.84C25.7476 37.4465 27.7821 35.2179 29.9996 33.18C30.9996 32.28 31.9996 31.44 33.0496 30.61C34.4415 29.5236 35.916 28.5473 37.4596 27.69C38.1474 27.2909 38.8929 27.0008 39.6696 26.83C39.9296 26.83 40.2396 26.71 40.3996 26.71C40.9596 26.76 39.2396 27.8 36.3096 29.82C31.8949 32.9362 27.9801 36.706 24.6996 41C23.8696 42.1 23.0596 43.22 22.3096 44.38C21.5596 45.54 20.9296 46.77 20.2296 47.96C19.8996 48.57 19.5496 49.17 19.2296 49.78L18.4096 51.69C17.8168 52.9501 17.3123 54.2499 16.8996 55.58L15.9996 58.51C15.7396 59.51 15.5696 60.51 15.3496 61.51C14.9307 63.5389 14.6467 65.5934 14.4996 67.66C14.2418 71.8047 14.5173 75.9654 15.3196 80.04L15.2496 80.1Z" fill="#000"/>
</svg>