<svg width="24" height="24" viewBox="0 0 24 24" fill="none" xmlns="http://www.w3.org/2000/svg">
<mask id="mask0_1019_8936" style="mask-type:alpha" maskUnits="userSpaceOnUse" x="0" y="0" width="24" height="24">
<rect width="24" height="24" fill="#D9D9D9"/>
</mask>
<g mask="url(#mask0_1019_8936)">
<path d="M9.51769 15.6155C7.81001 15.6155 6.36387 15.0232 5.17927 13.8386C3.99465 12.6539 3.40234 11.2078 3.40234 9.50012C3.40234 7.79243 3.99465 6.34628 5.17927 5.16167C6.36387 3.97707 7.81001 3.38477 9.51769 3.38477C11.2254 3.38477 12.6715 3.97707 13.8561 5.16167C15.0408 6.34628 15.6331 7.79243 15.6331 9.50012C15.6331 10.2142 15.5132 10.8963 15.2734 11.5463C15.0337 12.1963 14.7138 12.7616 14.3138 13.2424L20.0677 18.9963C20.2061 19.1347 20.277 19.3088 20.2802 19.5184C20.2834 19.728 20.2126 19.9052 20.0677 20.0501C19.9228 20.195 19.7472 20.2674 19.5408 20.2674C19.3344 20.2674 19.1587 20.195 19.0139 20.0501L13.26 14.2962C12.76 14.7091 12.185 15.0321 11.535 15.2655C10.885 15.4988 10.2126 15.6155 9.51769 15.6155ZM9.51769 14.1155C10.8062 14.1155 11.8975 13.6684 12.7917 12.7742C13.686 11.8799 14.1331 10.7886 14.1331 9.50012C14.1331 8.21165 13.686 7.1203 12.7917 6.22607C11.8975 5.33183 10.8062 4.88472 9.51769 4.88472C8.22923 4.88472 7.13788 5.33183 6.24364 6.22607C5.34943 7.1203 4.90232 8.21165 4.90232 9.50012C4.90232 10.7886 5.34943 11.8799 6.24364 12.7742C7.13788 13.6684 8.22923 14.1155 9.51769 14.1155Z" fill="#6D6D6D"/>
</g>
</svg>
