<svg width="41" height="41" viewBox="0 0 41 41" fill="none" xmlns="http://www.w3.org/2000/svg">
<path d="M26.9062 2.5625H24.1234C23.5955 1.07112 22.1707 0 20.5 0C18.8292 0 17.4045 1.07112 16.8741 2.5625H14.0938C13.3865 2.5625 12.8125 3.1365 12.8125 3.84375V8.96875C12.8125 9.676 13.3865 10.25 14.0938 10.25H26.9062C27.6135 10.25 28.1875 9.676 28.1875 8.96875V3.84375C28.1875 3.1365 27.6135 2.5625 26.9062 2.5625Z" fill="#913393"/>
<path d="M33.3125 5.125H30.75V8.96875C30.75 11.0879 29.0254 12.8125 26.9062 12.8125H14.0938C11.9746 12.8125 10.25 11.0879 10.25 8.96875V5.125H7.6875C6.27556 5.125 5.125 6.27556 5.125 7.6875V38.4375C5.125 39.8751 6.24994 41 7.6875 41H33.3125C34.7501 41 35.875 39.8751 35.875 38.4375V7.6875C35.875 6.24994 34.7501 5.125 33.3125 5.125ZM20.1259 27.8134L15.0009 32.9384C14.7498 33.1869 14.4218 33.3125 14.0938 33.3125C13.7657 33.3125 13.4377 33.1869 13.1866 32.9384L10.6241 30.3759C10.1244 29.8762 10.1244 29.0639 10.6241 28.5642C11.1238 28.0645 11.9361 28.0645 12.4358 28.5642L14.0938 30.2196L18.3116 26.0017C18.8113 25.502 19.6236 25.502 20.1233 26.0017C20.623 26.5014 20.6256 27.3111 20.1259 27.8134ZM20.1259 17.5634L15.0009 22.6884C14.7498 22.9369 14.4218 23.0625 14.0938 23.0625C13.7657 23.0625 13.4377 22.9369 13.1866 22.6884L10.6241 20.1259C10.1244 19.6262 10.1244 18.8139 10.6241 18.3142C11.1238 17.8145 11.9361 17.8145 12.4358 18.3142L14.0938 19.9696L18.3116 15.7517C18.8113 15.252 19.6236 15.252 20.1233 15.7517C20.623 16.2514 20.6256 17.0611 20.1259 17.5634ZM29.4688 30.75H24.3438C23.6365 30.75 23.0625 30.176 23.0625 29.4688C23.0625 28.7615 23.6365 28.1875 24.3438 28.1875H29.4688C30.176 28.1875 30.75 28.7615 30.75 29.4688C30.75 30.176 30.176 30.75 29.4688 30.75ZM29.4688 20.5H24.3438C23.6365 20.5 23.0625 19.926 23.0625 19.2188C23.0625 18.5115 23.6365 17.9375 24.3438 17.9375H29.4688C30.176 17.9375 30.75 18.5115 30.75 19.2188C30.75 19.926 30.176 20.5 29.4688 20.5Z" fill="#913393"/>
</svg>
