<svg width="42" height="42" viewBox="0 0 42 42" fill="none" xmlns="http://www.w3.org/2000/svg">
<g clip-path="url(#clip0_6753_8690)">
<path d="M21 41.5078C32.3262 41.5078 41.5078 32.3262 41.5078 21C41.5078 9.67385 32.3262 0.492188 21 0.492188C9.67385 0.492188 0.492188 9.67385 0.492188 21C0.492188 32.3262 9.67385 41.5078 21 41.5078Z" fill="#FFD633"/>
<path opacity="0.49" d="M41.3356 23.6652L27.0461 9.37615C25.6313 7.96866 23.6617 7.1449 21.6555 7.00471C18.1803 6.76215 14.8233 8.5437 13.3891 11.7871C12.6426 13.4635 12.9314 16.5303 13.0518 18.4688C12.5218 18.6993 11.7748 18.4529 11.2527 18.2063C10.1759 17.6966 8.46369 18.9823 9.59695 20.1311L12.5764 23.1034C12.1977 23.8973 11.7176 24.6388 11.1481 25.3092C8.24909 28.6937 5.62278 27.3113 6.31348 28.9324L18.6746 41.3765C19.4467 41.4638 20.223 41.5076 21 41.5078C31.4229 41.5078 40.0291 33.7321 41.3356 23.6652Z" fill="url(#paint0_linear_6753_8690)"/>
<path fill-rule="evenodd" clip-rule="evenodd" d="M21.6556 7.00434C24.4164 7.19704 27.108 8.68492 28.3797 11.2063C29.5085 13.4445 29.13 16.0708 28.986 18.4766C29.7329 18.8182 30.5441 18.0873 31.2268 18.0873C32.7443 18.0873 33.845 19.8272 31.283 20.8442C30.7449 21.0507 29.5322 21.2971 29.2591 21.9406C28.8817 22.8224 31.3312 27.2557 35.2183 27.8993C35.5689 27.9546 35.8196 28.2681 35.7966 28.6223C35.7243 29.8856 33.09 30.3542 31.8291 30.5529C31.3874 31.4268 31.9175 32.7457 30.0221 32.3723C27.3958 31.8555 26.5284 32.5073 25.2916 33.3812C19.5576 37.457 16.9711 32.6821 14.6903 32.3007C12.9957 32.0147 11.9195 32.4755 11.3492 32.4755C10.2971 32.4755 10.522 31.1329 10.209 30.5529C9.07694 30.3781 6.75545 29.965 6.31372 28.9321C5.62301 27.3113 8.24965 28.6937 11.1486 25.3092C11.7544 24.5947 12.2597 23.8009 12.6505 22.9496C13.349 21.5116 12.0881 21.361 10.7626 20.836C7.69463 19.6204 9.94343 17.5865 11.2525 18.2062C11.7745 18.4523 12.5214 18.6984 13.0515 18.4687C12.9311 16.5302 12.6419 13.4634 13.3888 11.7871C14.8231 8.54342 18.1804 6.76178 21.6556 7.00434Z" fill="white" stroke="black" stroke-miterlimit="10" stroke-linejoin="round"/>
</g>
<rect x="0.5" y="0.5" width="41" height="41" rx="20.5" stroke="black"/>
<defs>
<linearGradient id="paint0_linear_6753_8690" x1="10.9547" y1="13.4705" x2="34.2431" y2="36.7588" gradientUnits="userSpaceOnUse">
<stop stop-color="#1D1D1B"/>
<stop offset="0.369" stop-color="#1D1D1B" stop-opacity="0.856"/>
<stop offset="0.75" stop-color="#1D1D1B" stop-opacity="0.429"/>
<stop offset="1" stop-color="#1D1D1B" stop-opacity="0"/>
</linearGradient>
<clipPath id="clip0_6753_8690">
<rect width="42" height="42" rx="21" fill="white"/>
</clipPath>
</defs>
</svg>
