<svg width="172" height="59" viewBox="0 0 172 59" fill="none" xmlns="http://www.w3.org/2000/svg">
<path d="M80.5825 14.1834C79.4662 14.5867 78.5706 15.4455 78.2071 16.4343C77.9995 17.0198 77.9735 18.438 78.1552 19.1016C78.3759 19.8562 79.0638 20.767 79.8426 21.3004C80.232 21.5737 81.2444 22.1071 82.0881 22.4714C83.7885 23.2261 84.6711 23.9026 84.9048 24.6183C85.2293 25.5811 84.7879 26.5309 83.8274 26.9993C83.0227 27.3896 81.6857 27.3766 80.8161 26.9602C80.219 26.687 79.4143 25.9454 79.1027 25.3989C78.9989 25.2037 78.8691 25.2428 77.9995 25.7372L77 26.2837L77.2207 26.661C77.9216 27.845 79.1676 28.7818 80.5305 29.1591C81.7896 29.4974 83.9443 29.3933 84.9048 28.9509C85.8653 28.5086 86.5273 27.897 86.9556 27.0904C87.2541 26.5049 87.2931 26.2707 87.2931 25.1907C87.2931 24.1108 87.2541 23.8766 86.9556 23.3041C86.3455 22.1462 85.6836 21.6127 83.3861 20.4937C80.9848 19.3097 80.5565 18.9975 80.3618 18.2819C80.0762 17.241 80.5954 16.3692 81.6728 16.083C82.6203 15.8228 83.5808 16.1611 84.2428 16.9547L84.6452 17.4362L85.0605 17.1889C85.2942 17.0588 85.7095 16.8116 85.9821 16.6425L86.4753 16.3302L86.2417 15.9399C85.8783 15.3023 84.9437 14.5607 84.1779 14.2615C83.3342 13.9492 81.3613 13.9102 80.5825 14.1834Z" fill="#483E92"/>
<path d="M91.0051 21.444C89.2788 25.5425 87.838 28.9774 87.7991 29.0555C87.7472 29.1856 88.0197 29.2246 88.8764 29.2246H90.0316L90.434 28.2097L90.8494 27.2079H94.315H97.7806L98.183 28.2097L98.5984 29.2246H99.8055C100.454 29.2246 101 29.1856 101 29.1335C101 29.0555 95.9764 17.3846 94.8601 14.8734C94.6525 14.392 94.4058 14.0017 94.315 14.0017C94.2241 14.0017 92.7444 17.3585 91.0051 21.444ZM95.8077 22.3938C96.3269 23.6819 96.7682 24.8139 96.8071 24.8919C96.8591 25.022 96.3139 25.0611 94.328 25.0611C92.9261 25.0611 91.7839 25.009 91.7839 24.957C91.7839 24.9049 92.2512 23.6819 92.8223 22.2637C93.3934 20.8325 93.9645 19.3492 94.0814 18.9589L94.2761 18.2563L94.5746 19.1541C94.7303 19.6485 95.2885 21.1057 95.8077 22.3938Z" fill="#483E92"/>
<path d="M122.352 14.1833C119.6 14.8598 117.497 17.0587 116.913 19.8951C116.03 24.1887 118.315 28.066 122.365 29.0939C124.896 29.7445 128.426 29.185 130.166 27.8449L130.594 27.5196V24.527V21.5475H127.479H124.364V22.5884V23.6293H126.375H128.387V24.9954V26.3616L127.868 26.6218C126.479 27.3374 124.013 27.4675 122.546 26.895C121.015 26.3095 119.911 25.0995 119.418 23.4731C119.198 22.7445 119.146 22.3282 119.198 21.3003C119.236 20.1423 119.288 19.9341 119.73 19.0364C120.625 17.2148 122.079 16.239 124.143 16.1089C125.48 16.0308 126.583 16.3171 127.557 17.0197L128.283 17.5401L129.049 16.7855L129.815 16.0308L129.387 15.5884C128.868 15.042 127.375 14.3003 126.453 14.1312C125.519 13.9621 123.156 13.9881 122.352 14.1833Z" fill="#483E92"/>
<path d="M102.688 21.6906V29.25L105.712 29.198C108.373 29.1459 108.827 29.1069 109.632 28.8467C112.176 28.027 113.863 26.3615 114.577 23.9545C114.902 22.8746 114.902 20.4806 114.577 19.4006C113.98 17.423 112.747 15.9267 110.956 15.0419C109.45 14.3003 108.399 14.1312 105.271 14.1312H102.688V21.6906ZM109.113 16.5772C110.566 17.1107 111.488 18.0085 112.046 19.4267C112.435 20.4285 112.474 22.6924 112.124 23.7073C111.605 25.1906 110.566 26.2444 109.087 26.7649C108.541 26.9731 107.892 27.0641 106.685 27.1032L105.024 27.1812V21.6776V16.1869L106.685 16.239C107.944 16.291 108.515 16.3691 109.113 16.5772Z" fill="#483E92"/>
<path d="M133.189 19.2968C133.189 25.1258 133.267 25.7763 134.02 27.0124C134.539 27.8581 135.435 28.5997 136.434 28.9901C137.512 29.4194 139.874 29.4715 141.068 29.1072C143.041 28.5086 144.313 26.9994 144.625 24.8916C144.69 24.4492 144.742 21.847 144.742 19.1017V14.1314H143.586H142.418L142.379 19.492C142.34 24.8265 142.34 24.8656 142.029 25.5551C141.458 26.8172 140.393 27.3507 138.654 27.2466C137.499 27.1815 136.746 26.8432 136.266 26.2057C135.617 25.3209 135.604 25.2169 135.552 19.492L135.513 14.1314H134.345H133.189V19.2968Z" fill="#483E92"/>
<path d="M147.857 21.6782V29.2246H149.026H150.194V27.273V25.3213H151.544H152.907L154.231 27.273L155.567 29.2246H156.904C157.956 29.2246 158.241 29.1856 158.163 29.0555C158.112 28.9774 157.398 27.9235 156.593 26.7265L155.113 24.5536L155.542 24.3325C156.995 23.6038 157.917 22.1336 158.06 20.3511C158.267 17.853 157.164 15.7322 155.191 14.8344C154.01 14.2879 152.946 14.1318 150.298 14.1318H147.857V21.6782ZM153.802 16.6039C154.62 16.9552 155.295 17.6968 155.516 18.4905C155.606 18.8028 155.658 19.5184 155.632 20.0909C155.529 22.1336 154.529 23.0053 151.985 23.2655C151.232 23.3436 150.531 23.3696 150.414 23.3306C150.22 23.2525 150.194 22.8882 150.194 19.7135V16.1745L151.661 16.2396C152.803 16.2916 153.257 16.3697 153.802 16.6039Z" fill="#483E92"/>
<path d="M160.603 19.817C160.642 25.4248 160.642 25.5289 160.941 26.2575C161.382 27.3504 162.226 28.2091 163.407 28.7946L164.394 29.2891H166.289H168.184L169.17 28.7946C170.624 28.079 171.507 26.9601 171.87 25.4248C171.935 25.0995 172 22.5624 172 19.4917V14.1312H170.832H169.676L169.637 19.6219C169.598 25.711 169.624 25.5028 168.716 26.4657C167.69 27.5456 164.887 27.5456 163.861 26.4657C162.953 25.5028 162.979 25.711 162.94 19.6219L162.901 14.1312H161.733H160.564L160.603 19.817Z" fill="#483E92"/>
<path d="M79.959 37.666C78.5572 37.9523 77.6356 39.1103 77.6356 40.5285C77.6486 42.0377 78.3106 42.8054 80.5561 43.8853C82.1007 44.6269 82.2695 44.731 82.6069 45.2254C83.0612 45.876 82.7497 46.8648 81.9709 47.2422C81.3739 47.5154 80.2057 47.4894 79.5956 47.1771C79.323 47.047 78.9206 46.7087 78.7 46.4355L78.3106 45.9411L77.6876 46.2924C77.3371 46.4875 77.0386 46.7217 77.0126 46.8258C76.9477 47.112 78.0121 48.205 78.7259 48.5823C79.336 48.9076 79.5047 48.9336 80.8806 48.9336C82.1656 48.9336 82.4512 48.8946 82.8925 48.6474C84.0088 48.0488 84.515 47.1901 84.515 45.928C84.515 44.2366 83.866 43.482 81.3868 42.324C80.5691 41.9337 79.8033 41.4913 79.6735 41.3482C79.5437 41.205 79.4009 40.8537 79.362 40.5805C79.1802 39.1753 81.283 38.5898 82.2175 39.7868L82.542 40.1902L83.204 39.8128C83.5675 39.6047 83.866 39.3835 83.866 39.3314C83.866 39.2664 83.7102 39.0192 83.5285 38.785C82.8925 37.9393 81.1921 37.4058 79.959 37.666Z" fill="#483E92"/>
<path d="M121.379 37.6934C120.6 37.8495 119.821 38.409 119.432 39.1116C118.978 39.9443 119.004 41.1934 119.484 42.0131C119.912 42.7547 120.276 43.0149 122.21 43.9907C123.91 44.8365 124.26 45.1748 124.26 45.9294C124.26 46.8532 123.547 47.4517 122.417 47.4647C121.483 47.4647 120.951 47.2305 120.328 46.5669L119.782 45.9684L119.081 46.3327C118.705 46.5409 118.394 46.7361 118.394 46.7751C118.394 46.9963 119.185 47.9201 119.666 48.2454C120.444 48.7918 121.236 49 122.417 49C124.027 49 125.143 48.4665 125.675 47.4257C126.324 46.1376 126.078 44.6023 125.052 43.6525C124.533 43.158 122.391 41.974 122.041 41.974C121.794 41.974 120.886 41.0372 120.821 40.712C120.73 40.1915 121.028 39.554 121.496 39.3198C122.21 38.9425 122.975 39.1116 123.676 39.7882L124.092 40.1915L124.741 39.7622L125.403 39.3458L125.13 38.9685C124.819 38.5261 124.17 38.0057 123.715 37.8365C123.183 37.6414 122.002 37.5633 121.379 37.6934Z" fill="#483E92"/>
<path d="M154.555 37.6918C153.543 37.8349 152.309 38.4334 151.57 39.123C151.193 39.4613 150.791 40.0337 150.479 40.6453L149.999 41.6341V43.3255C149.999 44.9779 150.012 45.056 150.414 45.8887C150.895 46.8776 151.907 47.8924 152.868 48.3868C153.854 48.8813 154.802 49.0374 156.307 48.9723C157.735 48.8943 158.488 48.6861 159.604 48.0355L160.188 47.6842V45.4854V43.2735H157.852H155.515V44.0542V44.8348H157.008H158.501V45.8237V46.7995L157.891 47.0857C157.008 47.4891 154.815 47.5021 153.945 47.0987C152.556 46.4482 151.699 45.043 151.699 43.4036C151.686 41.1787 152.894 39.6174 154.905 39.2531C156.048 39.0449 157.19 39.3051 157.969 39.9687L158.397 40.32L158.994 39.7215C159.578 39.123 159.591 39.123 159.345 38.8497C158.942 38.3943 157.579 37.8219 156.619 37.6787C155.593 37.5356 155.606 37.5356 154.555 37.6918Z" fill="#483E92"/>
<path d="M86.7217 43.2763V48.8711H90.3561H93.9904V48.1555V47.4399L91.2387 47.4139L88.474 47.3748L88.435 46.2299L88.3961 45.0979H90.8104H93.2116V44.3172V43.5366H90.8104H88.4091V41.3897V39.2429H91.07H93.7308V38.4623V37.6816H90.2263H86.7217V43.2763Z" fill="#483E92"/>
<path d="M95.3927 37.9276C96.0936 39.7491 100.195 49 100.299 49C100.403 49 104.479 39.593 105.102 37.9016C105.167 37.7064 105.089 37.6804 104.336 37.6804H103.492L103.233 38.2919C102.441 40.1785 100.753 44.329 100.611 44.7714C100.364 45.5651 100.325 45.5781 100.143 44.9666C100.052 44.6543 99.3386 42.8848 98.5727 41.0372L97.1709 37.6804H96.2364C95.3797 37.6804 95.3018 37.7064 95.3927 37.9276Z" fill="#483E92"/>
<path d="M106.763 43.1592C105.491 46.1778 104.414 48.702 104.401 48.767C104.375 48.8321 104.725 48.8711 105.219 48.8451L106.088 48.806L106.374 48.0904L106.659 47.3748L109.203 47.3358L111.747 47.3098L112.059 48.0904L112.357 48.8711H113.279H114.201L111.786 43.2763C110.462 40.2057 109.307 37.6816 109.229 37.6816C109.151 37.6816 108.035 40.1537 106.763 43.1592ZM110.397 44.057L111.098 45.8135L109.281 45.8525C108.269 45.8655 107.425 45.8525 107.386 45.8265C107.36 45.7875 107.685 44.8637 108.126 43.7708C108.554 42.6778 108.918 41.741 108.918 41.689C108.918 41.637 108.983 41.4418 109.061 41.2336C109.19 40.8693 109.19 40.8693 109.437 41.5849C109.58 41.9752 110.008 43.0942 110.397 44.057Z" fill="#483E92"/>
<path d="M131.646 37.9678C131.581 38.137 130.53 40.6351 129.309 43.5236C128.089 46.399 127.09 48.793 127.09 48.819C127.09 48.8451 127.466 48.8711 127.908 48.8711H128.738L129.076 48.0904L129.413 47.3098H131.931H134.462L134.748 48.0904L135.034 48.8711H135.929C136.422 48.8711 136.825 48.8321 136.825 48.767C136.812 48.4938 132.061 37.7597 131.931 37.7076C131.84 37.6816 131.711 37.7987 131.646 37.9678ZM132.022 41.2206C132.022 41.2987 132.399 42.3135 132.866 43.4975C133.333 44.6685 133.71 45.6964 133.71 45.7615C133.71 45.8265 132.931 45.8786 131.892 45.8786C130.854 45.8786 130.075 45.8265 130.075 45.7615C130.075 45.6964 130.452 44.6685 130.919 43.4975C131.386 42.3135 131.763 41.2596 131.763 41.1425C131.763 41.0124 131.828 40.9604 131.892 40.9994C131.97 41.0384 132.022 41.1425 132.022 41.2206Z" fill="#483E92"/>
<path d="M138.771 43.2621V48.8699H139.55H140.329V45.0707V41.2714L140.822 41.8439C141.822 43.0279 147.39 49 147.494 49C147.546 49 147.598 46.4498 147.598 43.3402V37.6804H146.806H146.027L146.066 41.5056L146.105 45.3309L145.456 44.6023C143.652 42.5595 139.109 37.7454 138.953 37.7064C138.797 37.6674 138.771 38.5521 138.771 43.2621Z" fill="#483E92"/>
<path d="M162.524 43.2763V48.8711H163.433H164.342V47.0495V45.228L166.977 45.254L169.598 45.2931L169.637 47.0756L169.676 48.8711H170.507H171.351V43.2763V37.6816H170.507H169.663L169.637 40.7002L169.598 43.7317L166.977 43.7708L164.342 43.7968V40.7392V37.6816H163.433H162.524V43.2763Z" fill="#483E92"/>
<path d="M33.8018 0.500977H33.8037L34.1455 0.501953C35.5649 0.508801 36.9318 0.544039 38.2969 0.737305L38.8818 0.831055L38.8887 0.832031C39.0603 0.859775 39.061 0.858538 39.2354 0.886719V0.887695C46.3283 2.04388 52.9452 6.03356 57.3633 11.6387L57.7842 12.1865C57.8441 12.2665 57.9042 12.3464 57.9658 12.4287V12.4297C60.5766 15.956 62.4495 20.103 63.1367 24.4141L63.1396 24.4268L63.1416 24.4395L63.2168 24.792C63.5085 26.2581 63.501 27.7359 63.5 29.2939V29.7383C63.4747 37.5363 60.2901 44.5012 54.8076 50.0752C50.8456 53.9702 45.7425 56.5567 40.3027 57.7773L39.7754 57.8916L39.7686 57.8926C39.6685 57.9147 39.5679 57.9372 39.4648 57.96C36.1441 58.67 32.2451 58.6662 28.8525 58.0283L28.1807 57.8926L27.8184 57.8145C23.5306 56.855 19.533 55.0261 16.0645 52.3828L15.3779 51.8428L15.376 51.8418L15.1172 51.6348H15.1182C12.4642 49.497 10.2845 46.9518 8.57324 44.0293L8.2373 43.4404C8.18589 43.3478 8.13501 43.2546 8.08203 43.1592H8.08105C6.92142 41.0355 5.96585 38.727 5.375 36.3896L5.26172 35.9209L5.26074 35.916L5.17773 35.5742C4.30329 31.8178 4.27752 27.5231 5.08691 23.7109L5.25977 22.9551L5.26074 22.9512C5.30815 22.752 5.30809 22.752 5.35645 22.5488L5.35547 22.5479C7.1369 15.261 11.953 8.84168 18.3613 4.87891L18.3604 4.87793C22.9133 2.12597 27.9714 0.560425 33.2861 0.501953L33.8018 0.500977Z" fill="#FBBA22" stroke="white"/>
<path d="M34.1571 3C34.538 3.05604 34.538 3.05604 34.7861 3.21536C35.0991 3.64832 35.0623 4.08574 35.0623 4.59768C35.0642 4.70587 35.0661 4.81407 35.068 4.92554C35.0719 5.15691 35.0749 5.38829 35.0771 5.61967C35.0832 6.21971 35.098 6.81954 35.1123 7.41944C35.115 7.53617 35.1176 7.6529 35.1204 7.77317C35.1901 10.6291 35.4148 14.6637 37.5374 16.8415C38.2943 17.2337 38.8808 17.2587 39.718 17.103C43.1048 15.9734 45.548 12.7683 47.6404 10.0795C47.8573 9.8026 48.0745 9.52586 48.2917 9.24915C48.426 9.07771 48.5602 8.9061 48.6941 8.7343C49.148 8.15241 49.148 8.15241 49.3162 7.98741C49.7479 7.94284 49.9924 7.93421 50.3637 8.16487C50.5351 8.43572 50.5351 8.43572 50.4943 8.78811C50.3789 9.19653 50.2375 9.44943 49.9881 9.7929C49.9071 9.90626 49.826 10.0196 49.7425 10.1364C49.6117 10.3163 49.6117 10.3163 49.4781 10.4998C49.2961 10.7558 49.1143 11.0121 48.933 11.2686C48.8427 11.396 48.7525 11.5235 48.6595 11.6548C45.5208 16.0058 45.5208 16.0058 44.6445 21.0648C44.817 21.7295 45.0465 22.0982 45.6312 22.4827C48.7181 24.2232 54.2021 22.159 57.3317 21.3837C57.632 21.3041 57.9285 21.2107 58.2235 21.1138C58.7254 20.9507 59.1515 20.9487 59.6762 20.9883C59.981 21.2872 59.981 21.2872 60 21.7542C59.9937 21.8959 59.9874 22.0377 59.981 22.1838C59.0008 22.6349 58.0086 22.9901 56.9815 23.3232C53.6471 24.4386 50.0823 25.7884 47.7927 28.5255C47.5193 29.2128 47.4872 29.8771 47.7689 30.5691C49.5019 33.5266 54.0521 34.9728 57.1511 35.9967C59.4535 36.7594 59.4535 36.7594 59.981 37.2768C59.9307 37.7695 59.8861 37.9676 59.5239 38.3228C58.6696 38.2696 57.8994 38.0788 57.0862 37.8278C51.4114 36.0306 51.4114 36.0306 45.6598 36.679C45.054 37.0428 44.7626 37.3446 44.5933 38.024C44.1568 41.7396 47.2948 45.8959 49.418 48.7314C49.4825 48.8188 49.547 48.9062 49.6135 48.9963C49.7908 49.2353 49.9709 49.4723 50.1512 49.7091C50.3827 50.1282 50.3827 50.1282 50.3524 50.5474C50.2304 50.8754 50.2304 50.8754 50.078 51.0248C49.5948 51.106 49.5948 51.106 49.0115 51.0248C48.62 50.6948 48.349 50.2925 48.0593 49.8761C47.8868 49.6415 47.7138 49.4072 47.5404 49.1733C47.4122 48.998 47.4122 48.998 47.2815 48.8192C46.9262 48.3445 46.546 47.8943 46.1549 47.4477C46.0862 47.3692 46.0175 47.2907 45.9468 47.2099C45.7503 46.9866 45.5527 46.7642 45.3551 46.5418C45.1818 46.3441 45.1818 46.3441 45.0051 46.1425C43.7111 44.6933 42.3331 43.4774 40.6321 42.507C40.4813 42.4115 40.3305 42.3159 40.1751 42.2175C39.3805 41.9415 38.5161 41.8493 37.7291 42.1971C36.1125 43.3916 35.7968 45.6135 35.4521 47.4384C35.4193 47.6043 35.3865 47.7701 35.3527 47.941C34.9812 49.9495 34.9584 51.9872 34.9296 54.0229C34.9249 54.2082 34.9202 54.3935 34.9153 54.5845C34.9123 54.7513 34.9093 54.9181 34.9062 55.09C34.8427 55.5079 34.8427 55.5079 34.6334 55.7857C34.2736 56.0333 34.0525 56.0298 33.6239 55.9562C33.2366 55.5931 33.1689 55.3762 33.1082 54.849C33.1049 54.6456 33.104 54.4422 33.1049 54.2389C33.1019 54.0126 33.0989 53.7862 33.0959 53.5599C33.0951 53.4418 33.0943 53.3237 33.0935 53.202C33.1135 47.6319 33.1135 47.6319 30.8815 42.6565C30.3763 42.1939 29.997 42.0237 29.3199 41.984C26.5122 42.1401 24.2882 44.8191 22.5021 46.6912C22.0191 47.2221 21.5702 47.769 21.1309 48.335C20.9588 48.5549 20.7866 48.7748 20.6144 48.9946C20.1835 49.5454 19.7548 50.0978 19.3277 50.6513C19.1503 50.8754 19.1503 50.8754 18.998 51.0248C18.5504 51.0529 18.5504 51.0529 18.0839 51.0248C17.9833 50.9262 17.8828 50.8276 17.7792 50.726C17.7792 49.7332 18.2416 49.172 18.8456 48.4097C19.7461 47.2297 20.5481 46.0331 21.2833 44.7486C21.3414 44.6487 21.3995 44.5487 21.4594 44.4458C23.2621 41.4144 23.2621 41.4144 23.5686 38.024C23.4043 37.4626 23.1564 37.0921 22.6295 36.787C20.2923 35.7379 17.4818 36.148 15.0368 36.679C14.9147 36.7055 14.7926 36.7319 14.6668 36.7592C13.1276 37.1005 11.6258 37.5097 10.1478 38.0551C9.4819 38.2903 9.01898 38.3647 8.33327 38.1734C8.18092 38.024 8.18092 38.024 8.14283 37.5943C8.18092 37.1273 8.18092 37.1273 8.35008 36.8956C8.74859 36.5958 9.14759 36.4828 9.62589 36.3335C9.82862 36.2686 10.0313 36.2037 10.234 36.1387C10.3403 36.105 10.4465 36.0714 10.5561 36.0367C13.4742 35.1072 16.3795 34.0301 18.8456 32.196C18.9413 32.1274 19.0369 32.0588 19.1355 31.9882C19.8036 31.4819 20.2547 30.8891 20.5215 30.1039C20.6115 29.2035 20.4307 28.5927 19.9121 27.8623C17.6438 25.3696 13.6736 24.1342 10.5591 23.0816C8.54431 22.3908 8.54431 22.3908 8.02857 21.8849C7.99048 21.5113 7.99048 21.5113 8.02857 21.1377C8.33327 20.8389 8.33327 20.8389 8.61376 20.8279C9.48009 20.9342 10.2752 21.1345 11.1042 21.3993C16.795 23.1514 16.795 23.1514 22.5592 22.4266C23.0533 22.1266 23.3089 21.854 23.521 21.3245C24.0857 17.3363 20.6424 12.9558 18.3886 9.93007C18.2701 9.79003 18.1517 9.64999 18.0297 9.5057C17.6981 9.07844 17.7079 8.81027 17.7792 8.28628C18.0839 7.98741 18.0839 7.98741 18.5136 7.91386C18.998 7.98741 18.998 7.98741 19.3777 8.35983C19.5016 8.52631 19.6224 8.69498 19.7407 8.86535C19.8739 9.04581 20.0072 9.22618 20.1406 9.40647C20.2054 9.49602 20.2703 9.58556 20.337 9.67783C22.3437 12.4215 25.0859 15.9826 28.4439 17.103C29.1603 17.2113 29.765 17.1564 30.4626 16.9722C31.6475 16.0741 32.0633 14.5894 32.4051 13.2177C32.4445 13.0669 32.4445 13.0669 32.4848 12.9131C33.0871 10.5318 33.1327 8.10247 33.2017 5.66204C33.2064 5.52337 33.2111 5.3847 33.2159 5.24183C33.2246 4.97822 33.2316 4.71455 33.2365 4.45085C33.2673 3.56819 33.2673 3.56819 33.5283 3.24691C33.7762 3.05604 33.7762 3.05604 34.1571 3Z" fill="#FBBA22"/>
<path d="M34.1571 3C34.538 3.05604 34.538 3.05604 34.7861 3.21536C35.0991 3.64832 35.0623 4.08574 35.0623 4.59768C35.0642 4.70587 35.0661 4.81407 35.068 4.92554C35.0719 5.15691 35.0749 5.38829 35.0771 5.61967C35.0832 6.21971 35.098 6.81954 35.1123 7.41944C35.115 7.53617 35.1176 7.6529 35.1204 7.77317C35.1901 10.6291 35.4148 14.6637 37.5374 16.8415C38.2943 17.2337 38.8808 17.2587 39.718 17.103C43.1048 15.9734 45.548 12.7683 47.6404 10.0795C47.8573 9.8026 48.0745 9.52586 48.2917 9.24915C48.426 9.07771 48.5602 8.9061 48.6941 8.7343C49.148 8.15241 49.148 8.15241 49.3162 7.98741C49.7479 7.94284 49.9924 7.93421 50.3637 8.16487C50.5351 8.43572 50.5351 8.43572 50.4943 8.78811C50.3789 9.19653 50.2375 9.44943 49.9881 9.7929C49.9071 9.90626 49.826 10.0196 49.7425 10.1364C49.6117 10.3163 49.6117 10.3163 49.4781 10.4998C49.2961 10.7558 49.1143 11.0121 48.933 11.2686C48.8427 11.396 48.7525 11.5235 48.6595 11.6548C45.5208 16.0058 45.5208 16.0058 44.6445 21.0648C44.817 21.7295 45.0465 22.0982 45.6312 22.4827C48.7181 24.2232 54.2021 22.159 57.3317 21.3837C57.632 21.3041 57.9285 21.2107 58.2235 21.1138C58.7254 20.9507 59.1515 20.9487 59.6762 20.9883C59.981 21.2872 59.981 21.2872 60 21.7542C59.9937 21.8959 59.9874 22.0377 59.981 22.1838C59.0008 22.6349 58.0086 22.9901 56.9815 23.3232C53.6471 24.4386 50.0823 25.7884 47.7927 28.5255C47.5193 29.2128 47.4872 29.8771 47.7689 30.5691C49.5019 33.5266 54.0521 34.9728 57.1511 35.9967C59.4535 36.7594 59.4535 36.7594 59.981 37.2768C59.9307 37.7695 59.8861 37.9676 59.5239 38.3228C58.6696 38.2696 57.8994 38.0788 57.0862 37.8278C51.4114 36.0306 51.4114 36.0306 45.6598 36.679C45.054 37.0428 44.7626 37.3446 44.5933 38.024C44.1568 41.7396 47.2948 45.8959 49.418 48.7314C49.4825 48.8188 49.547 48.9062 49.6135 48.9963C49.7908 49.2353 49.9709 49.4723 50.1512 49.7091C50.3827 50.1282 50.3827 50.1282 50.3524 50.5474C50.2304 50.8754 50.2304 50.8754 50.078 51.0248C49.5948 51.106 49.5948 51.106 49.0115 51.0248C48.62 50.6948 48.349 50.2925 48.0593 49.8761C47.8868 49.6415 47.7138 49.4072 47.5404 49.1733C47.4122 48.998 47.4122 48.998 47.2815 48.8192C46.9262 48.3445 46.546 47.8943 46.1549 47.4477C46.0862 47.3692 46.0175 47.2907 45.9468 47.2099C45.7503 46.9866 45.5527 46.7642 45.3551 46.5418C45.1818 46.3441 45.1818 46.3441 45.0051 46.1425C43.7111 44.6933 42.3331 43.4774 40.6321 42.507C40.4813 42.4115 40.3305 42.3159 40.1751 42.2175C39.3805 41.9415 38.5161 41.8493 37.7291 42.1971C36.1125 43.3916 35.7968 45.6135 35.4521 47.4384C35.4193 47.6043 35.3865 47.7701 35.3527 47.941C34.9812 49.9495 34.9584 51.9872 34.9296 54.0229C34.9249 54.2082 34.9202 54.3935 34.9153 54.5845C34.9123 54.7513 34.9093 54.9181 34.9062 55.09C34.8427 55.5079 34.8427 55.5079 34.6334 55.7857C34.2736 56.0333 34.0525 56.0298 33.6239 55.9562C33.2366 55.5931 33.1689 55.3762 33.1082 54.849C33.1049 54.6456 33.104 54.4422 33.1049 54.2389C33.1019 54.0126 33.0989 53.7862 33.0959 53.5599C33.0951 53.4418 33.0943 53.3237 33.0935 53.202C33.1135 47.6319 33.1135 47.6319 30.8815 42.6565C30.3763 42.1939 29.997 42.0237 29.3199 41.984C26.5122 42.1401 24.2882 44.8191 22.5021 46.6912C22.0191 47.2221 21.5702 47.769 21.1309 48.335C20.9588 48.5549 20.7866 48.7748 20.6144 48.9946C20.1835 49.5454 19.7548 50.0978 19.3277 50.6513C19.1503 50.8754 19.1503 50.8754 18.998 51.0248C18.5504 51.0529 18.5504 51.0529 18.0839 51.0248C17.9833 50.9262 17.8828 50.8276 17.7792 50.726C17.7792 49.7332 18.2416 49.172 18.8456 48.4097C19.7461 47.2297 20.5481 46.0331 21.2833 44.7486C21.3414 44.6487 21.3995 44.5487 21.4594 44.4458C23.2621 41.4144 23.2621 41.4144 23.5686 38.024C23.4043 37.4626 23.1564 37.0921 22.6295 36.787C20.2923 35.7379 17.4818 36.148 15.0368 36.679C14.9147 36.7055 14.7926 36.7319 14.6668 36.7592C13.1276 37.1005 11.6258 37.5097 10.1478 38.0551C9.4819 38.2903 9.01898 38.3647 8.33327 38.1734C8.18092 38.024 8.18092 38.024 8.14283 37.5943C8.18092 37.1273 8.18092 37.1273 8.35008 36.8956C8.74859 36.5958 9.14759 36.4828 9.62589 36.3335C9.82862 36.2686 10.0313 36.2037 10.234 36.1387C10.3403 36.105 10.4465 36.0714 10.5561 36.0367C13.4742 35.1072 16.3795 34.0301 18.8456 32.196C18.9413 32.1274 19.0369 32.0588 19.1355 31.9882C19.8036 31.4819 20.2547 30.8891 20.5215 30.1039C20.6115 29.2035 20.4307 28.5927 19.9121 27.8623C17.6438 25.3696 13.6736 24.1342 10.5591 23.0816C8.54431 22.3908 8.54431 22.3908 8.02857 21.8849C7.99048 21.5113 7.99048 21.5113 8.02857 21.1377C8.33327 20.8389 8.33327 20.8389 8.61376 20.8279C9.48009 20.9342 10.2752 21.1345 11.1042 21.3993C16.795 23.1514 16.795 23.1514 22.5592 22.4266C23.0533 22.1266 23.3089 21.854 23.521 21.3245C24.0857 17.3363 20.6424 12.9558 18.3886 9.93007C18.2701 9.79003 18.1517 9.64999 18.0297 9.5057C17.6981 9.07844 17.7079 8.81027 17.7792 8.28628C18.0839 7.98741 18.0839 7.98741 18.5136 7.91386C18.998 7.98741 18.998 7.98741 19.3777 8.35983C19.5016 8.52631 19.6224 8.69498 19.7407 8.86535C19.8739 9.04581 20.0072 9.22618 20.1406 9.40647C20.2054 9.49602 20.2703 9.58556 20.337 9.67783C22.3437 12.4215 25.0859 15.9826 28.4439 17.103C29.1603 17.2113 29.765 17.1564 30.4626 16.9722C31.6475 16.0741 32.0633 14.5894 32.4051 13.2177C32.4445 13.0669 32.4445 13.0669 32.4848 12.9131C33.0871 10.5318 33.1327 8.10247 33.2017 5.66204C33.2064 5.52337 33.2111 5.3847 33.2159 5.24183C33.2246 4.97822 33.2316 4.71455 33.2365 4.45085C33.2673 3.56819 33.2673 3.56819 33.5283 3.24691C33.7762 3.05604 33.7762 3.05604 34.1571 3ZM34.0809 13.3671C33.8722 13.8396 33.7219 14.3095 33.5858 14.8054C33.1527 16.2235 32.4788 17.4796 31.1862 18.2985C30.0002 18.9043 28.8674 18.7795 27.6155 18.4292C26.7469 18.1226 26.0037 17.6086 25.2445 17.103C25.0572 16.9815 24.87 16.8601 24.6827 16.7387C24.5664 16.6617 24.4501 16.5846 24.3303 16.5052C24.3745 16.6488 24.3745 16.6488 24.4196 16.7954C24.4593 16.9246 24.499 17.0539 24.5398 17.187C24.5982 17.3769 24.5982 17.3769 24.6577 17.5705C24.7005 17.7121 24.7433 17.8537 24.7874 17.9996C24.8414 18.1633 24.8954 18.3271 24.9511 18.4958C25.2695 19.7374 25.3308 21.2479 24.7969 22.436C24.1958 23.407 23.2967 23.9024 22.2164 24.2479C20.9709 24.545 19.6642 24.5372 18.3886 24.5748C18.764 24.9561 19.1378 25.2871 19.5788 25.5928C20.623 26.3543 21.6284 27.2145 22.045 28.4601C22.2332 29.7337 22.1807 30.8009 21.4089 31.8667C20.5652 32.8661 19.6996 33.5694 18.56 34.2361C18.3997 34.3358 18.3997 34.3358 18.2362 34.4375C18.2362 34.4868 18.2362 34.5361 18.2362 34.5869C18.3252 34.5891 18.4141 34.5913 18.5057 34.5935C18.9175 34.6048 19.3291 34.6192 19.7407 34.6336C19.8805 34.637 20.0204 34.6404 20.1644 34.6439C21.8127 34.7065 23.2154 35.0622 24.3684 36.2774C25.1926 37.2805 25.1917 38.4304 25.0921 39.6677C24.9203 40.6878 24.6785 41.5987 24.178 42.507C24.2283 42.6057 24.2785 42.7043 24.3303 42.8059C24.3953 42.7425 24.4604 42.6791 24.5273 42.6138C26.0769 41.188 27.6724 40.5036 29.7799 40.5223C30.8457 40.6133 31.5713 41.1145 32.2527 41.9093C33.1128 43.027 33.6889 44.4174 33.9286 45.7946C34.0291 45.7453 34.1297 45.696 34.2333 45.6452C34.3324 45.3274 34.4192 45.0059 34.4999 44.6832C34.7771 43.6868 35.1575 42.9027 35.7568 42.0587C35.8479 41.92 35.9391 41.7813 36.033 41.6384C36.8447 40.8422 37.6228 40.5147 38.7753 40.471C40.4559 40.5349 41.7308 41.2754 43.0698 42.2082C43.3223 42.3598 43.5755 42.5106 43.8315 42.6565C43.8021 42.5534 43.7726 42.4503 43.7423 42.3442C43.6171 41.901 43.4957 41.4569 43.3745 41.0127C43.3421 40.9021 43.3097 40.7915 43.2763 40.6776C42.9623 39.5034 42.7889 38.0489 43.2983 36.9125C44.0179 35.7719 44.9866 35.1949 46.2882 34.8426C47.4399 34.6354 48.6049 34.6111 49.7733 34.5869C49.6128 34.463 49.6128 34.463 49.449 34.3365C48.1129 33.2756 46.897 32.2321 46.1168 30.7016C45.9677 29.1471 46.134 28.0259 47.1363 26.7999C47.8489 26.0469 48.6868 25.5053 49.5686 24.9583C49.6864 24.881 49.8042 24.8038 49.9257 24.7242C49.9257 24.6749 49.9257 24.6256 49.9257 24.5748C49.8367 24.5726 49.7478 24.5704 49.6561 24.5682C49.2444 24.5569 48.8328 24.5425 48.4212 24.5281C48.2813 24.5247 48.1415 24.5213 47.9974 24.5178C46.4345 24.4585 45.0288 24.111 43.8315 23.0804C42.9744 22.0074 42.9637 20.8028 43.0698 19.4939C43.2172 18.7324 43.4505 17.9937 43.6792 17.2524C43.7316 17.0536 43.7833 16.8545 43.8315 16.6547C43.3367 16.8827 42.8957 17.1604 42.4413 17.4579C41.1052 18.3 39.6579 18.9371 38.0421 18.7468C37.5997 18.5972 37.2184 18.3932 36.8233 18.149C36.6913 18.0689 36.5593 17.9888 36.4234 17.9062C35.2387 16.7442 34.5139 14.9684 34.2333 13.3671C34.183 13.3671 34.1327 13.3671 34.0809 13.3671Z" fill="#FEFDF9"/>
<path d="M31.9911 22.0144C32.3993 22.1375 32.3993 22.1375 32.7342 22.4406C32.7796 22.8712 32.7796 22.8712 32.7858 23.4155C32.79 23.6107 32.7943 23.8059 32.7986 24.0071C32.8034 24.318 32.8074 24.6289 32.8106 24.9398C32.8142 25.2398 32.8209 25.5399 32.8277 25.8399C32.83 26.0197 32.8322 26.1995 32.8345 26.3847C32.8624 26.8301 32.8624 26.8301 33.1208 27.1202C33.6053 27.4098 34.0168 27.3527 34.5761 27.2895C34.9742 26.9433 35.0717 26.7303 35.1429 26.2323C35.1441 26.0606 35.1452 25.8889 35.1465 25.712C35.1501 25.5246 35.1538 25.3372 35.1576 25.1441C35.1606 24.7491 35.1637 24.3541 35.1667 23.9591C35.1704 23.7719 35.1741 23.5847 35.1779 23.3918C35.179 23.2203 35.1802 23.0488 35.1815 22.8721C35.2459 22.4406 35.2459 22.4406 35.4745 22.1521C35.7482 21.986 35.7482 21.986 36.1773 22.0144C36.5855 22.1375 36.5855 22.1375 36.9204 22.4406C36.9914 23.096 36.9826 23.7539 36.9824 24.4121C36.9831 24.7381 36.9892 25.0638 36.9956 25.3897C37.0134 27.3408 37.0134 27.3408 36.2506 28.1986C35.3095 28.9691 34.6866 29.0088 33.4386 28.9989C32.5173 28.9258 32.0993 28.5581 31.5097 27.9524C30.8597 27.1245 31.0223 26.1999 31.0195 25.2199C31.0178 24.8763 31.0126 24.5329 31.0074 24.1894C31.0063 23.9713 31.0054 23.7531 31.0047 23.535C31.0032 23.3362 31.0016 23.1374 31 22.9325C31.0597 22.4406 31.0597 22.4406 31.2875 22.1431C31.562 21.986 31.562 21.986 31.9911 22.0144Z" fill="#FEFDFB"/>
</svg>
