<svg width="128" height="128" viewBox="0 0 128 128" fill="none" xmlns="http://www.w3.org/2000/svg">
<path d="M74.63 31.16C83.23 18.29 90.28 16.69 92.12 19.25C92.12 19.25 89.76 15.61 84.9 17.1C78.27 19.13 71.14 29.15 71.14 29.15L74.64 31.16H74.63Z" fill="#2F2483"/>
<path d="M60.27 40.54C58.64 38.11 60.08 35.27 62.04 33C64.5 30.14 68.77 28.74 71.12 30.3C71.12 30.3 66.44 25.37 61.12 28.19C55.8 31 55.65 35.44 56.35 37.08C57.06 38.71 60.26 40.55 60.26 40.55L60.27 40.54Z" fill="#2F2483"/>
<path d="M74.85 51.42L73.51 53.22C70.71 51.22 62.7 44.05 58.83 47C49.78 53.89 30.71 79.76 28.03 86.15C25.12 93.07 26.73 93.55 25.22 94.93C23.69 96.31 22.37 98.24 22.1 100.03C21.42 104.59 20 101.05 22.75 95.88C24.92 91.79 24.08 86.89 25.25 85.78C26.4 84.68 36.65 69.2 41.48 62.89C45.58 57.54 54.75 46.17 57.4 42.89C57.58 42.67 59.38 40.53 59.38 40.53L74.85 51.43V51.42Z" fill="#2F2483"/>
<path d="M65.33 64.06C53.14 73.5 48.7 69.59 44.6 72.24C40.97 74.58 34.77 82.62 30.05 94.45C28.47 98.42 21.09 103.23 24.24 104.55C27.39 105.87 32.05 99.11 32.05 99.11C32.05 99.11 39.23 97.67 41.48 95.2C43.73 92.73 65.33 64.07 65.33 64.07V64.06Z" fill="#2F2483"/>
<path d="M91.39 15.92C92.36 16.48 93.27 17.35 93.85 18.4C94.43 19.45 94.65 20.58 94.7 21.6C94.77 23.67 94.25 25.43 93.66 27.09C93.22 28.3 92.77 29.48 92.2 30.59C91.23 32.45 90.13 34.21 88.98 35.91L87.24 38.43L86.85 38.98L86.65 39.25C86.61 39.34 86.47 39.44 86.52 39.54L86.72 39.81C86.72 39.81 86.77 39.88 86.79 39.92L86.91 40.12C88.08 41.97 88.46 44.18 88.25 46.25C88.1 47.58 87.79 48.93 87.05 50.11C86.66 50.68 86.2 51.21 85.66 51.66C85.13 52.1 84.5 52.49 83.77 52.54C82.85 52.54 83.03 52.44 83.34 51.71C83.63 50.89 83.86 49.79 84.21 48.83C84.43 48.23 84.7 47.63 84.88 47C85.05 46.36 85.13 45.7 85.14 45.05C85.12 44.4 85.07 43.75 84.87 43.15C84.8 42.84 84.67 42.56 84.56 42.26C84.51 42.11 84.41 41.99 84.35 41.85L84.29 41.75L84.26 41.7C84.26 41.7 84.16 41.53 84.15 41.53L83.76 41.05L83.39 40.21L83.21 39.79C83.21 39.79 83.41 39.76 83.31 39.77V39.73L83.29 39.67L83.26 39.56C83.23 39.49 83.26 39.41 83.26 39.34C83.36 38.75 83.8 38.15 84.18 37.59C84.41 37.25 84.48 37.16 84.6 37L84.94 36.55L85.62 35.67C87.4 33.36 88.81 30.69 90.01 28.07C90.66 26.63 91.23 25.16 91.51 23.7C91.8 22.25 91.75 20.8 91.07 19.83C90.68 19.23 90 18.74 89.26 18.49C88.52 18.23 87.68 18.19 86.81 18.36C84.14 18.86 81.49 20.57 79.24 22.49C77.47 24.01 75.99 25.78 74.51 27.57C74.18 27.96 73.89 28.37 73.56 28.76C72.33 30.21 71.78 30.54 70.83 30.28C70.62 30.22 70.38 30.19 70.19 30.1C69.55 29.81 69.62 28.83 70.42 27.6C72.81 23.99 75.92 20.58 79.88 17.82C81.37 16.81 82.99 15.89 84.93 15.3C85.9 15.01 86.97 14.85 88.1 14.9C89.23 14.95 90.43 15.27 91.45 15.85L91.42 15.92H91.39Z" fill="#2F2483"/>
<path d="M58.35 41.21C57.77 40.62 57.2 40.01 56.66 39.32C56.13 38.63 55.6 37.91 55.19 36.95C55 36.45 54.81 35.93 54.79 35.24C54.77 34.87 54.82 34.65 54.83 34.39C54.84 34.13 54.88 33.89 54.93 33.65C55.01 33.16 55.15 32.71 55.32 32.26C55.52 31.84 55.72 31.41 55.96 31.03C56.65 29.89 57.46 28.82 58.51 28C59.43 27.28 60.48 26.7 61.62 26.32C62.76 25.95 63.97 25.82 65.14 25.92C66.34 26 67.4 26.36 68.39 26.72C69.39 27.09 70.34 27.54 71.26 28.01C72.9 28.85 74.49 29.76 75.97 30.81C76.92 31.48 77.87 32.16 78.74 32.96C78.96 33.16 79.18 33.35 79.38 33.57L79.91 34.29C80.23 34.81 80.64 35.22 80.92 35.75C81.26 36.42 81 36.46 80.31 36.27C79.97 36.17 79.54 36.01 79.04 35.81C78.8 35.71 78.5 35.63 78.21 35.54C78.06 35.5 77.92 35.43 77.76 35.4C77.64 35.32 77.52 35.23 77.39 35.14C76.52 34.49 75.59 33.9 74.66 33.33C73.72 32.76 72.74 32.27 71.8 31.72C69.92 30.64 67.92 29.61 66 29.03C64.89 28.71 63.73 28.73 62.62 29.12C61.52 29.52 60.52 30.25 59.67 31.11C58.73 32.07 58.08 33.29 57.68 34.48L57.58 34.92C57.56 35.08 57.58 35.11 57.58 35.23C57.62 35.45 57.69 35.72 57.84 36.01C58.11 36.58 58.53 37.17 58.99 37.74C60.15 39.13 61.56 40.42 63.01 41.63C65.23 43.46 67.58 45.2 70.01 46.76C71.9 47.97 73.87 48.96 75.83 50C76.26 50.23 76.7 50.43 77.13 50.67C77.93 51.12 78.43 51.44 78.72 51.78C79 52.15 79.09 52.48 79.08 52.89C79.08 53.08 79.1 53.27 79.08 53.43C79.03 53.7 78.79 53.84 78.38 53.87C77.98 53.9 77.4 53.85 76.78 53.56C73.05 51.98 69.39 49.81 65.86 47.37C63.24 45.54 60.68 43.6 58.29 41.28L58.34 41.23L58.35 41.21Z" fill="#2F2483"/>
<path d="M38.65 98.61C36.77 99.57 34.74 100.14 32.97 100.69C32.55 100.82 32.1 100.97 31.85 101.09C31.69 101.14 31.42 101.36 31.09 101.65C30.43 102.24 29.72 102.96 28.92 103.64C28.1 104.31 27.22 105.03 25.89 105.46C25.22 105.64 24.38 105.76 23.57 105.49C23.15 105.4 22.83 105.16 22.48 104.98C22.21 104.76 21.93 104.57 21.7 104.3C21.19 103.8 20.84 103.1 20.64 102.41C20.46 101.71 20.45 101.04 20.52 100.41C20.68 99.17 21.12 98.14 21.61 97.18C21.98 96.49 22.38 95.84 22.81 95.22L23.14 94.76C23.19 94.67 23.24 94.59 23.29 94.51C23.33 94.41 23.37 94.3 23.42 94.2L23.52 93.83C23.76 92.75 23.76 91.32 23.88 89.88C23.98 88.6 24.16 87.26 24.53 85.94C24.72 85.28 24.96 84.63 25.25 84C25.55 83.4 25.88 82.78 26.22 82.25C27.56 80.07 29 78.06 30.45 76.03C33.36 71.99 36.35 68.03 39.37 64.09C42.05 60.59 44.74 57.08 47.4 53.61C49.12 51.39 50.81 49.14 52.62 46.98C53.51 45.89 54.43 44.82 55.36 43.77C55.81 43.23 56.31 42.73 56.83 42.25C57.35 41.77 57.95 41.35 58.48 40.88C59.85 39.75 59.68 39.92 59.02 41.3C58.67 41.98 58.35 43.08 57.77 44.24C57.18 45.4 56.34 46.62 55.37 47.91C48.33 56.88 41.24 65.83 34.3 75C32.24 77.74 30.19 80.62 28.41 83.57C27.98 84.3 27.61 85 27.34 85.74C27.07 86.49 26.89 87.27 26.76 88.08C26.5 89.71 26.56 91.41 26.35 93.33C26.3 93.85 26.18 94.42 26 95C25.89 95.29 25.78 95.59 25.61 95.88L25.34 96.31L25.14 96.59C24.62 97.33 24.14 98.1 23.78 98.89C23.44 99.67 23.17 100.48 23.19 101.15C23.19 101.83 23.44 102.3 23.98 102.72C24.22 102.86 24.38 102.98 24.64 102.95C24.88 102.95 25.2 102.86 25.53 102.68C26.2 102.33 26.89 101.74 27.56 101.1C28.25 100.45 28.85 99.76 29.73 99.02C29.94 98.84 30.25 98.63 30.53 98.49C30.8 98.35 31.06 98.24 31.3 98.15C31.79 97.96 32.26 97.8 32.73 97.65C34.99 96.91 37.11 96.1 38.97 94.86C39.94 94.23 40.63 93.56 41.44 92.65C42.22 91.78 43 90.89 43.76 89.98C48.38 84.45 52.9 78.75 57.24 73.04C60.61 68.59 63.76 64.11 66.98 59.63C67.69 58.64 68.37 57.67 69.09 56.67C71.79 53.02 72.81 51.98 74.1 51.73C74.39 51.67 74.71 51.54 74.92 51.54C75.63 51.53 75.07 53.42 73.2 56.18C67.74 64.43 61.56 72.82 55.07 81.04C52.67 84.1 50.23 87.14 47.73 90.16C46.48 91.67 45.22 93.17 43.87 94.67C43.51 95.05 43.2 95.41 42.79 95.81C42.35 96.23 41.91 96.65 41.47 96.95C40.59 97.6 39.66 98.18 38.7 98.66L38.66 98.6L38.65 98.61Z" fill="#2F2483"/>
<path d="M17.54 110.62C17.41 110.82 11.9 117.05 14.44 118.73C16.98 120.4 18.66 117.72 18.73 115.71C18.8 113.7 17.54 110.62 17.54 110.62Z" fill="#2F2483"/>
<path d="M17.93 119.99C16.9 120.69 15.6 120.83 14.56 120.59C13.49 120.35 12.59 119.8 11.91 119.06C11.41 118.52 10.98 117.92 10.72 117.22C10.3 115.99 10.45 114.6 10.95 113.55C11.44 112.48 12.15 111.64 12.9 110.91C13.59 110.29 14.27 109.68 14.97 109.13C15.89 108.46 16.69 107.57 17.93 107.51C18.37 107.59 18.28 107.44 18.24 107.89C18.23 108.12 18.16 108.41 18.11 108.78C18.08 108.96 18.01 109.1 17.94 109.26C17.9 109.34 17.86 109.41 17.83 109.48C17.78 109.54 17.72 109.59 17.66 109.64C15.94 111.03 14.35 112.42 13.18 113.89C12.45 114.81 12.6 115.9 13.06 116.78C13.6 117.74 14.83 118.39 15.81 118.15C16.41 118.03 16.89 117.56 17.17 116.86C17.28 116.61 17.35 116.29 17.41 116.03C17.46 115.78 17.45 115.5 17.41 115.2C17.34 114.6 17.12 113.91 16.92 113.19C16.6 112.07 16.35 110.8 16.47 109.53C16.51 109.26 16.54 108.98 16.63 108.72C16.78 108.23 17.05 107.97 17.27 107.81C17.5 107.66 17.72 107.61 18 107.63C18.13 107.63 18.25 107.63 18.36 107.65C18.72 107.72 18.9 108.21 19.04 108.86C19.2 109.82 19.23 110.57 19.4 111.32C19.58 112.07 19.79 112.83 20.04 114.02C20.13 114.46 20.21 114.96 20.2 115.54C20.2 115.82 20.17 116.13 20.12 116.43C20.07 116.74 19.99 116.95 19.91 117.21C19.6 118.2 19 119.29 17.95 120.01L17.91 119.96L17.93 119.99Z" fill="#2F2483"/>
<path d="M32.75 109.53C32.75 109.53 30.21 113.67 31.26 114.51C32.31 115.35 33.54 115.27 34.3 113.95C35.06 112.63 32.76 109.54 32.76 109.54L32.75 109.53Z" fill="#2F2483"/>
<path d="M34.74 115.77C34.02 116.46 33.06 116.68 32.28 116.66C31.48 116.63 30.78 116.38 30.15 116.02C29.7 115.74 29.24 115.43 28.92 114.96C28.34 114.14 28.22 113.04 28.44 112.21C28.65 111.36 29.08 110.68 29.57 110.09C30 109.57 30.47 109.13 30.89 108.7C31.44 108.14 31.89 107.6 32.5 107.12C32.75 107 32.77 107.03 32.87 107.33C32.96 107.61 33.05 108.19 32.82 108.64C32.35 109.38 31.82 110.01 31.39 110.59C30.96 111.17 30.57 111.64 30.32 112.2C30 112.89 30.27 113.49 30.72 113.88C31.23 114.36 32.16 114.61 32.72 114.38C32.89 114.31 33.03 114.21 33.15 114.07C33.26 113.94 33.38 113.67 33.43 113.47C33.61 112.84 33.27 111.95 32.87 111.01C32.57 110.28 32.09 109.52 31.98 108.64C31.95 108.45 31.89 108.26 31.9 108.06C31.97 107.32 32.28 107.12 32.72 107.02C32.83 107 32.93 106.97 33.02 106.96C33.32 106.94 33.66 107.23 33.89 107.63C34.61 108.81 35 109.53 35.61 111.12C35.8 111.71 36.01 112.49 35.91 113.4C35.87 113.84 35.73 114.3 35.55 114.68C35.38 115.04 35.13 115.48 34.76 115.83L34.72 115.79L34.74 115.77Z" fill="#2F2483"/>
<path d="M83.31 69.77C83.3 69.69 83.36 69.61 83.43 69.55C83.45 69.53 83.51 69.53 83.53 69.55C83.56 69.6 83.59 69.65 83.62 69.69C83.62 69.72 83.85 70.17 83.88 70.33C83.93 70.48 83.96 70.63 83.98 70.78C84.04 71.09 84.05 71.39 84.08 71.7C84.08 71.77 84.08 71.84 84.07 71.91C84.02 72.15 84.03 72.38 84.07 72.61C84.07 72.65 84.07 72.69 84.11 72.72C84.17 72.78 84.21 73.41 84.19 73.5C84.14 73.75 84.1 73.92 84.06 74.12C84.06 74.15 84.06 74.18 84.03 74.21C83.94 74.28 83.96 74.34 83.95 74.4C83.95 74.49 83.93 74.58 83.9 74.67C83.88 74.71 83.85 74.76 83.78 74.81C83.73 74.85 83.62 74.84 83.6 74.83C83.56 74.79 83.49 74.83 83.44 74.83C83.42 74.83 83.4 74.83 83.38 74.83C83.31 74.83 83.08 74.34 83.07 74.28C83.07 74.28 82.98 73.57 82.97 73.45C82.97 73.41 82.98 73.36 83 73.32C83 73.28 82.94 72.7 82.94 72.68C82.95 72.56 82.92 72.43 83 72.31C83.02 72.29 83.01 72.26 83 72.24C82.99 72.03 83.02 71.82 83.04 71.6C83.04 71.49 83.04 71.38 83.04 71.28C83.04 71.26 83.05 71.24 83.06 71.22C83.06 71.2 83.08 71.17 83.08 71.15C83.08 70.89 83.14 70.64 83.13 70.38C83.12 70.32 83.23 70.04 83.24 69.97C83.24 69.93 83.34 69.8 83.33 69.77H83.31Z" fill="#2F2483"/>
<path d="M86.12 71.99C86.2 71.98 86.28 72.04 86.34 72.11C86.36 72.13 86.36 72.19 86.34 72.21C86.29 72.24 86.24 72.27 86.2 72.3C86.17 72.3 85.72 72.53 85.56 72.56C85.41 72.61 85.26 72.64 85.11 72.66C84.8 72.72 84.5 72.73 84.19 72.76C84.12 72.76 84.05 72.76 83.98 72.75C83.74 72.7 83.51 72.71 83.28 72.75C83.24 72.75 83.2 72.75 83.17 72.79C83.11 72.85 82.48 72.89 82.39 72.87C82.14 72.82 81.97 72.78 81.77 72.74C81.74 72.74 81.71 72.74 81.68 72.71C81.61 72.62 81.55 72.64 81.49 72.63C81.4 72.63 81.31 72.61 81.22 72.58C81.18 72.56 81.13 72.53 81.08 72.46C81.04 72.41 81.05 72.3 81.06 72.28C81.1 72.24 81.06 72.17 81.06 72.12C81.06 72.1 81.06 72.08 81.06 72.06C81.06 71.99 81.55 71.76 81.61 71.75C81.61 71.75 82.32 71.66 82.44 71.65C82.48 71.65 82.53 71.66 82.57 71.68C82.61 71.68 83.19 71.62 83.21 71.62C83.33 71.63 83.46 71.6 83.58 71.68C83.6 71.69 83.63 71.69 83.65 71.68C83.86 71.67 84.07 71.7 84.29 71.72C84.4 71.72 84.51 71.72 84.61 71.72C84.63 71.72 84.65 71.73 84.67 71.74C84.69 71.74 84.72 71.76 84.74 71.76C85 71.76 85.25 71.82 85.51 71.81C85.57 71.8 85.85 71.91 85.92 71.92C85.96 71.92 86.09 72.02 86.12 72.01V71.99Z" fill="#2F2483"/>
<path d="M81.94 74.2C81.89 74.27 81.79 74.28 81.69 74.28C81.66 74.28 81.62 74.24 81.62 74.21C81.64 74.15 81.65 74.09 81.66 74.05C81.68 74.03 81.85 73.53 81.95 73.39C82.03 73.24 82.12 73.11 82.21 72.98C82.4 72.71 82.62 72.47 82.82 72.22C82.87 72.17 82.92 72.12 82.98 72.07C83.19 71.92 83.35 71.74 83.5 71.54C83.53 71.51 83.56 71.48 83.56 71.43C83.56 71.34 84.01 70.84 84.08 70.79C84.3 70.64 84.45 70.54 84.63 70.42C84.66 70.4 84.67 70.37 84.72 70.38C84.83 70.4 84.87 70.34 84.92 70.3C84.99 70.24 85.06 70.18 85.15 70.14C85.2 70.12 85.25 70.11 85.33 70.13C85.4 70.13 85.46 70.23 85.46 70.25C85.46 70.31 85.53 70.33 85.57 70.36C85.58 70.37 85.6 70.39 85.61 70.4C85.66 70.45 85.45 70.99 85.41 71.04C85.41 71.04 84.95 71.63 84.87 71.73C84.84 71.77 84.8 71.79 84.75 71.81C84.72 71.84 84.34 72.31 84.33 72.32C84.23 72.4 84.17 72.52 84.02 72.55C83.99 72.55 83.98 72.58 83.96 72.6C83.81 72.76 83.64 72.9 83.47 73.04C83.38 73.11 83.31 73.2 83.23 73.28C83.22 73.29 83.19 73.3 83.18 73.31C83.16 73.32 83.13 73.34 83.12 73.35C82.93 73.54 82.7 73.69 82.53 73.89C82.5 73.94 82.21 74.08 82.15 74.12C82.12 74.14 81.96 74.17 81.94 74.2Z" fill="#2F2483"/>
<path d="M85.56 73.9C85.63 73.96 85.63 74.05 85.62 74.15C85.62 74.18 85.57 74.22 85.54 74.21C85.48 74.19 85.42 74.17 85.38 74.16C85.36 74.13 84.86 73.95 84.73 73.84C84.59 73.76 84.46 73.66 84.34 73.56C84.08 73.37 83.86 73.14 83.62 72.92C83.57 72.87 83.52 72.82 83.48 72.76C83.35 72.55 83.18 72.38 82.99 72.22C82.96 72.19 82.93 72.16 82.88 72.16C82.8 72.16 82.32 71.7 82.27 71.62C82.13 71.39 82.04 71.24 81.93 71.06C81.91 71.03 81.88 71.02 81.89 70.97C81.91 70.86 81.86 70.82 81.81 70.77C81.75 70.7 81.7 70.62 81.66 70.53C81.64 70.48 81.64 70.43 81.66 70.35C81.66 70.28 81.76 70.22 81.78 70.22C81.84 70.22 81.86 70.15 81.89 70.11C81.9 70.1 81.92 70.08 81.93 70.07C81.98 70.02 82.5 70.25 82.55 70.28C82.55 70.28 83.12 70.76 83.22 70.85C83.26 70.88 83.27 70.93 83.29 70.97C83.32 71 83.77 71.4 83.78 71.41C83.86 71.51 83.97 71.58 84 71.73C84 71.76 84.03 71.77 84.05 71.79C84.21 71.94 84.33 72.12 84.47 72.3C84.54 72.39 84.62 72.46 84.7 72.55C84.71 72.56 84.72 72.59 84.73 72.61C84.74 72.63 84.75 72.66 84.77 72.68C84.95 72.88 85.09 73.11 85.28 73.3C85.33 73.34 85.45 73.62 85.48 73.69C85.5 73.72 85.52 73.88 85.55 73.9H85.56Z" fill="#2F2483"/>
<path d="M65.7 8.98C65.69 8.9 65.75 8.82 65.82 8.76C65.84 8.74 65.9 8.74 65.92 8.76C65.95 8.81 65.98 8.86 66.01 8.9C66.01 8.93 66.24 9.38 66.27 9.54C66.32 9.69 66.35 9.84 66.37 9.99C66.43 10.3 66.44 10.6 66.47 10.91C66.47 10.98 66.47 11.05 66.46 11.12C66.41 11.36 66.42 11.59 66.46 11.82C66.46 11.86 66.46 11.9 66.5 11.93C66.56 11.99 66.6 12.62 66.58 12.71C66.53 12.96 66.49 13.13 66.45 13.33C66.45 13.36 66.45 13.39 66.42 13.42C66.33 13.49 66.35 13.55 66.34 13.61C66.34 13.7 66.32 13.79 66.29 13.88C66.27 13.92 66.24 13.97 66.17 14.02C66.12 14.06 66.01 14.05 65.99 14.04C65.95 14 65.88 14.04 65.83 14.04C65.81 14.04 65.79 14.04 65.77 14.04C65.7 14.04 65.47 13.55 65.46 13.49C65.46 13.49 65.37 12.78 65.36 12.66C65.36 12.62 65.37 12.57 65.39 12.53C65.39 12.49 65.33 11.91 65.33 11.89C65.34 11.77 65.31 11.64 65.39 11.52C65.41 11.5 65.4 11.47 65.39 11.45C65.38 11.24 65.41 11.03 65.43 10.81C65.43 10.7 65.43 10.59 65.43 10.49C65.43 10.47 65.44 10.45 65.45 10.43C65.45 10.41 65.47 10.38 65.47 10.36C65.47 10.1 65.53 9.85 65.52 9.59C65.51 9.53 65.62 9.25 65.63 9.18C65.63 9.14 65.73 9.01 65.72 8.98H65.7Z" fill="#2F2483"/>
<path d="M68.52 11.2C68.6 11.19 68.68 11.25 68.74 11.32C68.76 11.34 68.76 11.4 68.74 11.42C68.69 11.45 68.64 11.48 68.6 11.51C68.57 11.51 68.12 11.74 67.96 11.77C67.81 11.82 67.66 11.85 67.51 11.87C67.2 11.93 66.9 11.94 66.59 11.97C66.52 11.97 66.45 11.97 66.38 11.96C66.14 11.91 65.91 11.92 65.68 11.96C65.64 11.96 65.6 11.96 65.57 12C65.51 12.06 64.88 12.1 64.79 12.08C64.54 12.03 64.37 11.99 64.17 11.95C64.14 11.95 64.11 11.95 64.08 11.92C64.01 11.83 63.95 11.85 63.89 11.84C63.8 11.84 63.71 11.82 63.62 11.79C63.58 11.77 63.53 11.74 63.48 11.67C63.44 11.62 63.45 11.51 63.46 11.49C63.5 11.45 63.46 11.38 63.46 11.33C63.46 11.31 63.46 11.29 63.46 11.27C63.46 11.2 63.95 10.97 64.01 10.96C64.01 10.96 64.72 10.87 64.84 10.86C64.88 10.86 64.93 10.87 64.97 10.89C65.01 10.89 65.59 10.83 65.61 10.83C65.73 10.84 65.86 10.81 65.98 10.89C66 10.91 66.03 10.9 66.05 10.89C66.26 10.88 66.47 10.91 66.69 10.93C66.8 10.93 66.91 10.93 67.01 10.93C67.03 10.93 67.05 10.94 67.07 10.95C67.09 10.95 67.12 10.97 67.14 10.97C67.4 10.97 67.65 11.03 67.91 11.02C67.97 11.01 68.25 11.12 68.32 11.13C68.36 11.13 68.49 11.23 68.52 11.22V11.2Z" fill="#2F2483"/>
<path d="M64.34 13.4C64.29 13.47 64.19 13.48 64.09 13.48C64.06 13.48 64.02 13.44 64.02 13.41C64.04 13.35 64.05 13.29 64.06 13.25C64.08 13.23 64.25 12.73 64.35 12.59C64.43 12.44 64.52 12.31 64.61 12.18C64.8 11.91 65.02 11.67 65.22 11.42C65.27 11.37 65.32 11.32 65.38 11.27C65.59 11.12 65.75 10.94 65.9 10.74C65.93 10.71 65.96 10.68 65.96 10.63C65.96 10.54 66.41 10.04 66.48 9.99C66.7 9.84 66.85 9.74 67.03 9.62C67.06 9.6 67.07 9.57 67.12 9.58C67.23 9.6 67.27 9.54 67.32 9.5C67.39 9.44 67.46 9.38 67.55 9.34C67.6 9.32 67.65 9.31 67.73 9.33C67.8 9.33 67.86 9.43 67.86 9.45C67.86 9.51 67.93 9.53 67.97 9.56C67.98 9.57 68 9.59 68.01 9.6C68.06 9.65 67.85 10.19 67.81 10.24C67.81 10.24 67.35 10.83 67.27 10.93C67.24 10.97 67.2 10.99 67.15 11.01C67.12 11.04 66.74 11.51 66.73 11.52C66.63 11.6 66.57 11.72 66.42 11.75C66.39 11.75 66.38 11.78 66.36 11.8C66.21 11.96 66.04 12.1 65.87 12.24C65.78 12.31 65.71 12.4 65.63 12.48C65.62 12.49 65.59 12.5 65.58 12.51C65.56 12.52 65.53 12.54 65.52 12.55C65.33 12.74 65.1 12.89 64.93 13.09C64.9 13.14 64.61 13.28 64.55 13.32C64.52 13.34 64.36 13.37 64.34 13.4Z" fill="#2F2483"/>
<path d="M67.96 13.1C68.03 13.16 68.03 13.25 68.02 13.35C68.02 13.38 67.97 13.42 67.94 13.41C67.88 13.39 67.82 13.37 67.78 13.36C67.76 13.33 67.26 13.15 67.13 13.04C66.99 12.96 66.86 12.86 66.74 12.76C66.48 12.57 66.26 12.34 66.02 12.12C65.97 12.07 65.92 12.02 65.88 11.96C65.75 11.75 65.58 11.58 65.39 11.42C65.36 11.39 65.33 11.36 65.28 11.36C65.2 11.36 64.72 10.9 64.67 10.82C64.53 10.59 64.44 10.44 64.33 10.26C64.31 10.23 64.28 10.22 64.29 10.17C64.31 10.06 64.26 10.02 64.21 9.97C64.15 9.9 64.1 9.82 64.06 9.73C64.04 9.68 64.04 9.63 64.06 9.55C64.06 9.48 64.16 9.42 64.18 9.42C64.24 9.42 64.26 9.35 64.29 9.31C64.3 9.3 64.32 9.28 64.33 9.27C64.38 9.22 64.9 9.45 64.95 9.48C64.95 9.48 65.52 9.96 65.62 10.05C65.66 10.08 65.67 10.13 65.69 10.17C65.72 10.2 66.17 10.6 66.18 10.61C66.26 10.71 66.37 10.78 66.4 10.93C66.4 10.96 66.43 10.97 66.45 10.99C66.61 11.14 66.73 11.32 66.87 11.5C66.94 11.59 67.02 11.66 67.1 11.75C67.11 11.76 67.12 11.79 67.13 11.81C67.14 11.83 67.15 11.86 67.17 11.88C67.35 12.08 67.49 12.31 67.68 12.5C67.73 12.54 67.85 12.82 67.88 12.89C67.9 12.92 67.92 13.08 67.95 13.1H67.96Z" fill="#2F2483"/>
<path d="M107.03 55.48C107.02 55.35 107.09 55.24 107.18 55.14C107.21 55.11 107.29 55.11 107.3 55.14C107.34 55.22 107.38 55.3 107.41 55.36C107.41 55.41 107.7 56.12 107.73 56.37C107.79 56.61 107.82 56.85 107.85 57.08C107.92 57.56 107.92 58.05 107.96 58.53C107.96 58.64 107.96 58.74 107.94 58.85C107.88 59.22 107.89 59.58 107.93 59.95C107.93 60.01 107.93 60.07 107.97 60.13C108.04 60.23 108.1 61.22 108.07 61.34C108.01 61.71 107.97 61.98 107.92 62.3C107.92 62.35 107.93 62.39 107.88 62.44C107.77 62.54 107.79 62.64 107.79 62.74C107.79 62.88 107.78 63.01 107.75 63.15C107.73 63.22 107.69 63.29 107.61 63.36C107.55 63.43 107.41 63.4 107.39 63.38C107.33 63.32 107.26 63.38 107.2 63.38C107.18 63.38 107.15 63.38 107.13 63.38C107.04 63.38 106.72 62.6 106.71 62.51C106.71 62.51 106.67 62.21 106.63 61.89C106.6 61.59 106.57 61.27 106.56 61.19C106.55 61.12 106.57 61.05 106.59 60.98C106.59 60.93 106.51 60.01 106.51 59.98C106.52 59.79 106.49 59.59 106.58 59.4C106.6 59.36 106.59 59.32 106.59 59.28C106.58 58.95 106.62 58.62 106.65 58.29C106.66 58.12 106.65 57.95 106.65 57.78C106.65 57.75 106.66 57.72 106.67 57.69C106.67 57.65 106.69 57.61 106.69 57.58C106.69 57.18 106.77 56.78 106.76 56.39C106.74 56.3 106.89 55.86 106.9 55.75C106.91 55.69 107.03 55.49 107.02 55.44L107.03 55.48Z" fill="#2F2483"/>
<path d="M111.39 59C111.52 58.99 111.63 59.06 111.73 59.15C111.76 59.18 111.76 59.26 111.73 59.27C111.65 59.31 111.57 59.35 111.51 59.38C111.46 59.38 110.75 59.67 110.5 59.7C110.26 59.76 110.02 59.79 109.79 59.82C109.31 59.89 108.82 59.89 108.34 59.93C108.23 59.93 108.13 59.93 108.02 59.91C107.65 59.85 107.29 59.86 106.92 59.9C106.86 59.9 106.8 59.9 106.74 59.94C106.64 60.01 105.65 60.07 105.53 60.04C105.16 59.98 104.89 59.94 104.57 59.89C104.52 59.89 104.48 59.9 104.43 59.85C104.33 59.74 104.23 59.76 104.13 59.76C103.99 59.76 103.86 59.75 103.72 59.72C103.65 59.7 103.58 59.66 103.51 59.58C103.44 59.52 103.47 59.38 103.49 59.36C103.55 59.3 103.49 59.23 103.49 59.17C103.49 59.15 103.49 59.12 103.49 59.1C103.49 59.01 104.27 58.69 104.36 58.68C104.36 58.68 104.66 58.64 104.98 58.6C105.28 58.57 105.6 58.54 105.68 58.53C105.75 58.52 105.82 58.54 105.89 58.56C105.94 58.56 106.86 58.48 106.89 58.48C107.08 58.49 107.28 58.46 107.47 58.55C107.51 58.57 107.55 58.56 107.59 58.56C107.92 58.55 108.25 58.59 108.58 58.62C108.75 58.63 108.92 58.62 109.09 58.62C109.12 58.62 109.15 58.63 109.18 58.64C109.22 58.64 109.26 58.66 109.29 58.66C109.69 58.66 110.09 58.74 110.48 58.73C110.57 58.71 111.01 58.86 111.12 58.87C111.18 58.88 111.38 59 111.43 58.99L111.39 59Z" fill="#2F2483"/>
<path d="M104.81 62.39C104.72 62.5 104.59 62.53 104.45 62.54C104.41 62.54 104.35 62.49 104.37 62.45C104.4 62.36 104.43 62.27 104.45 62.21C104.49 62.18 104.8 61.44 104.95 61.23C105.08 61.01 105.23 60.81 105.38 60.61C105.68 60.2 106.03 59.82 106.36 59.43C106.43 59.34 106.52 59.27 106.61 59.2C106.92 58.96 107.18 58.68 107.42 58.37C107.46 58.32 107.51 58.27 107.52 58.2C107.54 58.08 108.24 57.29 108.35 57.21C108.67 56.97 108.9 56.8 109.18 56.6C109.22 56.57 109.24 56.52 109.31 56.53C109.46 56.53 109.52 56.45 109.6 56.38C109.71 56.28 109.82 56.19 109.95 56.11C110.02 56.08 110.1 56.06 110.2 56.06C110.29 56.06 110.36 56.18 110.36 56.21C110.36 56.3 110.45 56.31 110.49 56.35C110.51 56.36 110.53 56.38 110.54 56.4C110.6 56.47 110.22 57.26 110.17 57.33C110.16 57.34 109.42 58.26 109.31 58.4C109.27 58.46 109.2 58.49 109.14 58.53C109.11 58.57 108.49 59.3 108.47 59.33C108.32 59.46 108.21 59.63 108 59.71C107.96 59.73 107.93 59.76 107.91 59.79C107.68 60.05 107.41 60.27 107.16 60.5C107.03 60.62 106.91 60.75 106.79 60.88C106.77 60.9 106.74 60.92 106.71 60.93C106.68 60.95 106.64 60.97 106.61 61C106.32 61.3 105.97 61.55 105.69 61.85C105.64 61.93 105.21 62.16 105.12 62.23C105.07 62.27 104.84 62.33 104.81 62.38V62.39Z" fill="#2F2483"/>
<path d="M110.49 61.98C110.59 62.07 110.61 62.21 110.62 62.34C110.62 62.38 110.56 62.43 110.52 62.41C110.43 62.37 110.35 62.34 110.28 62.31C110.25 62.27 109.52 61.93 109.32 61.76C109.11 61.62 108.91 61.47 108.72 61.31C108.33 60.99 107.97 60.64 107.61 60.3C107.53 60.22 107.46 60.14 107.39 60.05C107.17 59.73 106.9 59.46 106.61 59.21C106.56 59.17 106.52 59.12 106.45 59.1C106.33 59.07 105.59 58.36 105.51 58.24C105.29 57.91 105.13 57.67 104.95 57.4C104.92 57.36 104.88 57.33 104.88 57.27C104.89 57.12 104.81 57.06 104.74 56.98C104.65 56.87 104.56 56.75 104.49 56.62C104.46 56.55 104.44 56.47 104.45 56.36C104.45 56.27 104.57 56.2 104.6 56.2C104.68 56.2 104.7 56.12 104.74 56.07C104.75 56.05 104.77 56.03 104.79 56.02C104.86 55.96 105.62 56.36 105.69 56.42C105.7 56.43 106.58 57.21 106.71 57.33C106.77 57.37 106.8 57.45 106.83 57.51C106.87 57.55 107.57 58.19 107.59 58.21C107.72 58.36 107.88 58.48 107.95 58.7C107.96 58.74 107.99 58.77 108.02 58.8C108.26 59.04 108.47 59.32 108.69 59.58C108.8 59.72 108.93 59.84 109.05 59.96C109.07 59.98 109.08 60.02 109.1 60.04C109.12 60.07 109.14 60.11 109.17 60.14C109.45 60.45 109.68 60.8 109.98 61.09C110.06 61.15 110.27 61.58 110.33 61.67C110.36 61.72 110.41 61.95 110.46 61.98H110.49Z" fill="#2F2483"/>
<path d="M30.33 21.8C30.31 21.63 30.39 21.49 30.48 21.37C30.51 21.33 30.58 21.33 30.6 21.38C30.64 21.49 30.68 21.59 30.71 21.66C30.71 21.72 31.01 22.63 31.04 22.95C31.1 23.25 31.14 23.55 31.16 23.86C31.23 24.48 31.24 25.09 31.27 25.7C31.27 25.84 31.27 25.97 31.25 26.11C31.19 26.58 31.2 27.04 31.25 27.51C31.25 27.59 31.25 27.67 31.3 27.74C31.37 27.86 31.43 29.12 31.41 29.29C31.36 29.76 31.32 30.11 31.27 30.51C31.27 30.57 31.28 30.63 31.23 30.68C31.12 30.81 31.15 30.93 31.14 31.06C31.14 31.23 31.13 31.41 31.1 31.59C31.08 31.68 31.04 31.77 30.96 31.86C30.9 31.94 30.76 31.91 30.74 31.88C30.68 31.81 30.61 31.88 30.55 31.88C30.53 31.88 30.5 31.88 30.48 31.88C30.39 31.88 30.05 30.88 30.04 30.77C30.04 30.76 30 30.38 29.95 29.98C29.92 29.59 29.88 29.19 29.87 29.09C29.86 29 29.88 28.91 29.9 28.82C29.9 28.76 29.82 27.59 29.82 27.55C29.83 27.3 29.8 27.06 29.89 26.82C29.91 26.77 29.9 26.72 29.9 26.67C29.89 26.25 29.93 25.83 29.95 25.41C29.96 25.2 29.95 24.98 29.95 24.77C29.95 24.73 29.96 24.69 29.97 24.65C29.97 24.6 29.99 24.55 29.99 24.5C29.99 23.99 30.07 23.49 30.06 22.98C30.04 22.86 30.18 22.31 30.2 22.17C30.21 22.09 30.33 21.85 30.32 21.78L30.33 21.8Z" fill="#2F2483"/>
<path d="M35.82 26.33C35.99 26.31 36.13 26.39 36.25 26.48C36.29 26.51 36.29 26.58 36.24 26.6C36.13 26.64 36.03 26.68 35.96 26.71C35.9 26.71 34.99 27.01 34.67 27.04C34.37 27.1 34.07 27.14 33.76 27.16C33.14 27.23 32.53 27.24 31.92 27.27C31.78 27.27 31.65 27.27 31.51 27.25C31.04 27.19 30.58 27.2 30.11 27.25C30.03 27.25 29.95 27.25 29.88 27.3C29.76 27.37 28.5 27.43 28.33 27.41C27.86 27.36 27.51 27.32 27.11 27.27C27.05 27.27 26.99 27.28 26.94 27.23C26.81 27.12 26.69 27.15 26.56 27.14C26.39 27.14 26.21 27.13 26.03 27.1C25.94 27.08 25.85 27.04 25.76 26.96C25.68 26.9 25.71 26.76 25.74 26.74C25.81 26.68 25.74 26.61 25.74 26.55C25.74 26.53 25.74 26.5 25.74 26.48C25.74 26.39 26.74 26.05 26.85 26.04C26.86 26.04 27.24 26 27.64 25.95C28.03 25.92 28.43 25.88 28.53 25.87C28.62 25.86 28.71 25.88 28.8 25.9C28.86 25.9 30.03 25.82 30.07 25.82C30.32 25.83 30.56 25.8 30.8 25.89C30.85 25.91 30.9 25.9 30.95 25.9C31.37 25.89 31.79 25.93 32.21 25.95C32.42 25.96 32.64 25.95 32.85 25.95C32.89 25.95 32.93 25.96 32.97 25.97C33.02 25.97 33.07 25.99 33.12 25.99C33.63 25.99 34.13 26.07 34.64 26.06C34.76 26.04 35.31 26.18 35.45 26.2C35.53 26.21 35.77 26.33 35.84 26.32L35.82 26.33Z" fill="#2F2483"/>
<path d="M27.42 30.55C27.31 30.69 27.15 30.74 27 30.77C26.95 30.78 26.9 30.72 26.92 30.68C26.97 30.57 27.01 30.47 27.05 30.4C27.1 30.36 27.55 29.47 27.75 29.21C27.92 28.94 28.12 28.69 28.32 28.44C28.72 27.93 29.16 27.45 29.58 26.96C29.68 26.85 29.78 26.75 29.89 26.66C30.27 26.35 30.61 25.98 30.92 25.6C30.97 25.54 31.03 25.48 31.06 25.39C31.1 25.25 31.99 24.25 32.13 24.14C32.51 23.83 32.81 23.6 33.14 23.33C33.19 23.29 33.22 23.23 33.3 23.23C33.47 23.22 33.55 23.11 33.65 23.02C33.78 22.89 33.92 22.77 34.08 22.67C34.16 22.62 34.25 22.59 34.37 22.58C34.47 22.57 34.54 22.69 34.53 22.73C34.51 22.83 34.61 22.84 34.66 22.87C34.68 22.88 34.7 22.9 34.71 22.92C34.76 22.99 34.24 23.95 34.17 24.04C34.15 24.06 33.19 25.22 33.05 25.38C32.99 25.45 32.91 25.5 32.84 25.55C32.8 25.6 32.01 26.52 31.98 26.55C31.79 26.72 31.64 26.93 31.4 27.05C31.35 27.07 31.32 27.11 31.29 27.15C31 27.47 30.66 27.76 30.34 28.06C30.18 28.21 30.03 28.38 29.87 28.54C29.84 28.57 29.8 28.59 29.77 28.61C29.73 28.64 29.68 28.67 29.65 28.71C29.28 29.09 28.86 29.42 28.5 29.81C28.43 29.91 27.92 30.23 27.81 30.32C27.75 30.37 27.48 30.48 27.44 30.53L27.42 30.55Z" fill="#2F2483"/>
<path d="M34.63 30.09C34.76 30.21 34.8 30.36 34.82 30.52C34.82 30.57 34.77 30.62 34.72 30.59C34.61 30.54 34.51 30.49 34.44 30.45C34.4 30.4 33.53 29.91 33.28 29.7C33.02 29.51 32.78 29.31 32.54 29.1C32.05 28.69 31.6 28.23 31.14 27.8C31.04 27.7 30.94 27.6 30.86 27.48C30.57 27.09 30.23 26.75 29.87 26.42C29.81 26.37 29.76 26.3 29.67 26.28C29.53 26.23 28.59 25.32 28.49 25.18C28.2 24.79 27.98 24.48 27.74 24.14C27.7 24.09 27.65 24.06 27.65 23.98C27.65 23.81 27.54 23.73 27.45 23.63C27.33 23.49 27.22 23.35 27.12 23.19C27.08 23.11 27.04 23.01 27.04 22.89C27.04 22.79 27.16 22.72 27.19 22.73C27.29 22.75 27.29 22.65 27.33 22.6C27.34 22.58 27.36 22.56 27.38 22.55C27.45 22.5 28.37 23.05 28.46 23.13C28.48 23.15 29.58 24.16 29.74 24.3C29.81 24.36 29.85 24.44 29.9 24.52C29.94 24.56 30.83 25.39 30.86 25.42C31.02 25.61 31.23 25.77 31.33 26.02C31.35 26.07 31.39 26.1 31.43 26.14C31.74 26.45 32.01 26.79 32.29 27.12C32.43 27.29 32.6 27.44 32.75 27.61C32.78 27.64 32.79 27.68 32.82 27.71C32.85 27.75 32.88 27.8 32.91 27.83C33.27 28.22 33.58 28.65 33.95 29.02C34.05 29.1 34.34 29.61 34.42 29.73C34.47 29.79 34.55 30.06 34.61 30.1L34.63 30.09Z" fill="#2F2483"/>
<path d="M113.39 20.01C113.38 19.93 113.44 19.85 113.51 19.79C113.53 19.77 113.59 19.77 113.61 19.79C113.64 19.84 113.67 19.89 113.7 19.93C113.7 19.96 113.93 20.41 113.96 20.57C114.01 20.72 114.04 20.87 114.06 21.02C114.12 21.33 114.13 21.63 114.16 21.94C114.16 22.01 114.16 22.08 114.15 22.15C114.1 22.39 114.11 22.62 114.15 22.85C114.15 22.89 114.15 22.93 114.19 22.96C114.25 23.02 114.29 23.65 114.27 23.74C114.22 23.99 114.18 24.16 114.14 24.36C114.14 24.39 114.14 24.42 114.11 24.45C114.02 24.52 114.04 24.58 114.03 24.64C114.03 24.73 114.01 24.82 113.98 24.91C113.96 24.95 113.93 25 113.86 25.05C113.81 25.09 113.7 25.08 113.68 25.07C113.64 25.03 113.57 25.07 113.52 25.07C113.5 25.07 113.48 25.07 113.46 25.07C113.39 25.07 113.16 24.58 113.15 24.52C113.15 24.52 113.06 23.81 113.05 23.69C113.05 23.65 113.06 23.6 113.08 23.56C113.08 23.52 113.02 22.94 113.02 22.92C113.03 22.8 113 22.67 113.08 22.55C113.09 22.53 113.09 22.5 113.08 22.48C113.07 22.27 113.1 22.06 113.12 21.84C113.12 21.73 113.12 21.62 113.12 21.52C113.12 21.5 113.13 21.48 113.14 21.46C113.14 21.44 113.16 21.41 113.16 21.39C113.16 21.13 113.22 20.88 113.21 20.62C113.2 20.56 113.31 20.28 113.32 20.21C113.32 20.17 113.42 20.04 113.41 20.01H113.39Z" fill="#2F2483"/>
<path d="M116.2 22.23C116.28 22.22 116.36 22.28 116.42 22.35C116.44 22.37 116.44 22.43 116.42 22.45C116.37 22.48 116.32 22.51 116.28 22.54C116.25 22.54 115.8 22.77 115.64 22.8C115.49 22.85 115.34 22.88 115.19 22.9C114.88 22.96 114.58 22.97 114.27 23C114.2 23 114.13 23 114.06 22.99C113.82 22.94 113.59 22.95 113.36 22.99C113.32 22.99 113.28 22.99 113.25 23.03C113.19 23.09 112.56 23.13 112.47 23.11C112.22 23.06 112.05 23.02 111.85 22.98C111.82 22.98 111.79 22.98 111.76 22.95C111.69 22.86 111.63 22.88 111.57 22.87C111.48 22.87 111.39 22.85 111.3 22.82C111.26 22.8 111.21 22.77 111.16 22.7C111.12 22.65 111.13 22.54 111.14 22.52C111.18 22.48 111.14 22.41 111.14 22.36C111.14 22.34 111.14 22.32 111.14 22.3C111.14 22.23 111.63 22 111.69 21.99C111.69 21.99 112.4 21.9 112.52 21.89C112.56 21.89 112.61 21.9 112.65 21.92C112.69 21.92 113.27 21.86 113.29 21.86C113.41 21.87 113.54 21.84 113.66 21.92C113.68 21.94 113.71 21.93 113.73 21.92C113.94 21.91 114.15 21.94 114.37 21.96C114.48 21.96 114.59 21.96 114.69 21.96C114.71 21.96 114.73 21.97 114.75 21.98C114.77 21.98 114.8 22 114.82 22C115.08 22 115.33 22.06 115.59 22.05C115.65 22.04 115.93 22.15 116 22.16C116.04 22.16 116.17 22.26 116.2 22.25V22.23Z" fill="#2F2483"/>
<path d="M112.02 24.44C111.97 24.51 111.87 24.52 111.77 24.52C111.74 24.52 111.7 24.48 111.7 24.45C111.72 24.39 111.73 24.33 111.74 24.29C111.76 24.27 111.93 23.77 112.02 23.63C112.1 23.48 112.19 23.35 112.28 23.22C112.47 22.95 112.69 22.71 112.89 22.46C112.94 22.41 112.99 22.36 113.05 22.31C113.26 22.16 113.42 21.98 113.57 21.78C113.6 21.75 113.63 21.72 113.63 21.67C113.63 21.58 114.08 21.08 114.15 21.03C114.37 20.88 114.52 20.78 114.7 20.66C114.73 20.64 114.74 20.61 114.79 20.62C114.9 20.64 114.94 20.58 114.99 20.54C115.06 20.48 115.13 20.42 115.22 20.38C115.27 20.36 115.32 20.35 115.4 20.37C115.47 20.37 115.53 20.47 115.53 20.49C115.53 20.55 115.6 20.57 115.64 20.6C115.65 20.61 115.67 20.63 115.68 20.64C115.73 20.69 115.52 21.23 115.48 21.28C115.48 21.28 115.02 21.87 114.94 21.97C114.91 22.01 114.87 22.03 114.82 22.05C114.79 22.08 114.41 22.55 114.4 22.56C114.3 22.64 114.24 22.76 114.09 22.79C114.06 22.79 114.05 22.82 114.03 22.84C113.88 23 113.71 23.14 113.54 23.28C113.45 23.35 113.38 23.44 113.3 23.52C113.29 23.53 113.26 23.54 113.25 23.55C113.23 23.56 113.2 23.58 113.19 23.59C113 23.78 112.77 23.93 112.6 24.13C112.57 24.18 112.28 24.32 112.22 24.36C112.19 24.38 112.03 24.41 112.01 24.44H112.02Z" fill="#2F2483"/>
<path d="M115.65 24.14C115.72 24.2 115.72 24.29 115.71 24.39C115.71 24.42 115.66 24.46 115.63 24.45C115.57 24.43 115.51 24.41 115.47 24.4C115.45 24.37 114.95 24.19 114.82 24.08C114.68 24 114.55 23.9 114.43 23.8C114.17 23.61 113.95 23.38 113.71 23.16C113.66 23.11 113.61 23.06 113.57 23C113.44 22.79 113.27 22.62 113.08 22.46C113.05 22.43 113.02 22.4 112.97 22.4C112.89 22.4 112.41 21.94 112.36 21.86C112.22 21.63 112.13 21.48 112.02 21.3C112 21.27 111.97 21.26 111.98 21.21C112 21.1 111.95 21.06 111.9 21.01C111.84 20.94 111.79 20.86 111.75 20.77C111.73 20.72 111.73 20.67 111.75 20.59C111.75 20.52 111.85 20.46 111.87 20.46C111.93 20.46 111.95 20.39 111.98 20.35C111.99 20.34 112.01 20.32 112.02 20.31C112.07 20.26 112.59 20.49 112.64 20.52C112.64 20.52 113.21 21 113.31 21.09C113.35 21.12 113.36 21.17 113.38 21.21C113.41 21.24 113.86 21.64 113.87 21.65C113.95 21.75 114.06 21.82 114.09 21.97C114.09 22 114.12 22.01 114.14 22.03C114.3 22.18 114.42 22.36 114.56 22.54C114.63 22.63 114.71 22.7 114.79 22.79C114.8 22.8 114.81 22.83 114.82 22.85C114.83 22.87 114.84 22.9 114.86 22.92C115.04 23.12 115.18 23.35 115.37 23.54C115.42 23.58 115.54 23.86 115.57 23.93C115.59 23.96 115.61 24.12 115.64 24.14H115.65Z" fill="#2F2483"/>
<path d="M61.51 36.44C61.51 36.44 61.5 36.43 61.5 36.42C61.5 36.42 61.69 36.22 61.51 36.44Z" fill="#2F2483"/>
</svg>
