<svg width="124" height="112" viewBox="0 0 124 112" fill="none" xmlns="http://www.w3.org/2000/svg">
<path d="M112.053 6.92322C99.3252 -3.55646 80.7101 -1.8222 69.16 10.0018L61.9991 17.3288L54.8382 9.99943C43.2882 -1.8222 24.6731 -3.55885 11.9451 6.92083C-3.04513 19.2615 -3.92622 41.7734 9.29951 55.3101L58.4046 105.57C60.3889 107.601 63.6094 107.601 65.5936 105.57L114.699 55.3101C127.927 41.7734 127.046 19.2639 112.053 6.92322Z" fill="url(#paint0_linear_1057_2969)"/>
<path d="M105.918 85.5223C87.3007 95.8776 56.1423 91.2442 42.1453 75.9038L43.0708 71.7559C43.8935 68.0745 43.9987 64.2616 43.3817 60.5371L42.6595 56.174C42.2832 53.8967 40.4018 52.2007 38.1489 52.1051C35.6528 51.9974 33.498 53.88 33.2059 56.4204L32.3411 63.9387C30.8641 61.9461 27.7954 57.0901 25.3905 53.2198C22.5042 48.5696 16.79 46.1895 11.7839 48.2108C8.15199 49.6771 5.61154 52.8466 4.24433 57.8413C3.47074 60.6711 3.70212 63.6947 4.94079 66.3451C10.5709 78.394 26.3768 99.1859 50.2481 107.828C76.1597 117.21 110.588 111.185 105.918 85.5223Z" fill="#FFC588"/>
<path d="M18.0804 85.5223C36.6978 95.8776 67.8563 91.2442 81.8532 75.9038L80.9277 71.7559C80.1051 68.0745 79.9999 64.2616 80.6169 60.5371L81.3391 56.174C81.7154 53.8967 83.5967 52.2007 85.8497 52.1051C88.3458 51.9974 90.5006 53.88 90.7927 56.4204L91.6574 63.9387C93.1345 61.9461 96.2031 57.0901 98.608 53.2198C101.494 48.5696 107.209 46.1895 112.215 48.2108C115.847 49.6771 118.387 52.8466 119.754 57.8413C120.528 60.6711 120.296 63.6947 119.058 66.3451C113.428 78.394 97.6218 99.1859 73.7505 107.828C47.8389 117.21 13.4108 111.185 18.0804 85.5223Z" fill="#FFDBAA"/>
<defs>
<linearGradient id="paint0_linear_1057_2969" x1="62" y1="0" x2="62" y2="107.093" gradientUnits="userSpaceOnUse">
<stop offset="0.9999" stop-color="#FBBA22"/>
<stop offset="1" stop-color="white"/>
</linearGradient>
</defs>
</svg>
