<svg width="40" height="40" viewBox="0 0 40 40" fill="none" xmlns="http://www.w3.org/2000/svg">
<g clip-path="url(#clip0_1055_6090)">
<circle cx="20" cy="20" r="20" fill="#FF5A79"/>
<mask id="mask0_1055_6090" style="mask-type:alpha" maskUnits="userSpaceOnUse" x="8" y="8" width="24" height="24">
<rect x="8" y="8" width="24" height="24" fill="#D9D9D9"/>
</mask>
<g mask="url(#mask0_1055_6090)">
<path d="M18.5 25C17.95 25 17.4792 24.8042 17.0875 24.4125C16.6958 24.0208 16.5 23.55 16.5 23V17C16.5 16.45 16.6958 15.9792 17.0875 15.5875C17.4792 15.1958 17.95 15 18.5 15H21.5C22.05 15 22.5208 15.1958 22.9125 15.5875C23.3042 15.9792 23.5 16.45 23.5 17V23C23.5 23.55 23.3042 24.0208 22.9125 24.4125C22.5208 24.8042 22.05 25 21.5 25H18.5ZM13 25H10C9.71667 25 9.47917 24.9042 9.2875 24.7125C9.09583 24.5208 9 24.2833 9 24C9 23.7167 9.09583 23.4792 9.2875 23.2875C9.47917 23.0958 9.71667 23 10 23H13V21H11C10.45 21 9.97917 20.8042 9.5875 20.4125C9.19583 20.0208 9 19.55 9 19V17C9 16.45 9.19583 15.9792 9.5875 15.5875C9.97917 15.1958 10.45 15 11 15H14C14.2833 15 14.5208 15.0958 14.7125 15.2875C14.9042 15.4792 15 15.7167 15 16C15 16.2833 14.9042 16.5208 14.7125 16.7125C14.5208 16.9042 14.2833 17 14 17H11V19H13C13.55 19 14.0208 19.1958 14.4125 19.5875C14.8042 19.9792 15 20.45 15 21V23C15 23.55 14.8042 24.0208 14.4125 24.4125C14.0208 24.8042 13.55 25 13 25ZM29 25H26C25.7167 25 25.4792 24.9042 25.2875 24.7125C25.0958 24.5208 25 24.2833 25 24C25 23.7167 25.0958 23.4792 25.2875 23.2875C25.4792 23.0958 25.7167 23 26 23H29V21H27C26.45 21 25.9792 20.8042 25.5875 20.4125C25.1958 20.0208 25 19.55 25 19V17C25 16.45 25.1958 15.9792 25.5875 15.5875C25.9792 15.1958 26.45 15 27 15H30C30.2833 15 30.5208 15.0958 30.7125 15.2875C30.9042 15.4792 31 15.7167 31 16C31 16.2833 30.9042 16.5208 30.7125 16.7125C30.5208 16.9042 30.2833 17 30 17H27V19H29C29.55 19 30.0208 19.1958 30.4125 19.5875C30.8042 19.9792 31 20.45 31 21V23C31 23.55 30.8042 24.0208 30.4125 24.4125C30.0208 24.8042 29.55 25 29 25ZM18.5 23H21.5V17H18.5V23Z" fill="white"/>
</g>
</g>
<defs>
<clipPath id="clip0_1055_6090">
<rect width="40" height="40" fill="white"/>
</clipPath>
</defs>
</svg>
