<svg xmlns="http://www.w3.org/2000/svg" width="1390" height="131" viewBox="0 0 1390 131" fill="none">
    <path d="M55.35 33.488C55.35 41.424 52.8753 47.6107 47.926 52.048C42.9767 56.4 35.638 58.576 25.91 58.576H6.70998V98H0.94998V8.144H25.91C35.8086 8.144 43.19 10.448 48.054 15.056C52.918 19.5787 55.35 25.7227 55.35 33.488ZM25.91 53.456C41.6966 53.456 49.59 46.8 49.59 33.488C49.59 26.9173 47.7126 21.9253 43.958 18.512C40.2033 15.0133 34.1873 13.264 25.91 13.264H6.70998V53.456H25.91ZM102.185 99.024C95.6996 99.024 89.8543 97.5733 84.649 94.672C79.4436 91.7707 75.3476 87.632 72.361 82.256C69.4596 76.7947 68.009 70.4373 68.009 63.184C68.009 56.016 69.5023 49.744 72.489 44.368C75.4756 38.9067 79.5716 34.768 84.777 31.952C90.0676 29.0507 95.9556 27.6 102.441 27.6C108.926 27.6 114.772 29.0507 119.977 31.952C125.182 34.768 129.236 38.864 132.137 44.24C135.124 49.616 136.617 55.9307 136.617 63.184C136.617 70.4373 135.124 76.7947 132.137 82.256C129.15 87.632 125.012 91.7707 119.721 94.672C114.516 97.5733 108.67 99.024 102.185 99.024ZM102.185 93.904C107.22 93.904 111.913 92.7947 116.265 90.576C120.702 88.272 124.244 84.816 126.889 80.208C129.534 75.6 130.857 69.9253 130.857 63.184C130.857 56.528 129.534 50.896 126.889 46.288C124.244 41.68 120.745 38.2667 116.393 36.048C112.041 33.744 107.348 32.592 102.313 32.592C97.2783 32.592 92.585 33.744 88.233 36.048C83.9663 38.2667 80.5103 41.68 77.865 46.288C75.2196 50.896 73.897 56.528 73.897 63.184C73.897 69.9253 75.177 75.6 77.737 80.208C80.3823 84.816 83.8383 88.272 88.105 90.576C92.457 92.7947 97.1503 93.904 102.185 93.904ZM245.741 28.496L223.853 98H218.349L196.205 36.432L173.933 98H168.429L146.541 28.496H152.557L171.245 91.472L193.517 28.496H199.021L221.165 91.216L239.853 28.496H245.741ZM321.721 58.576C321.721 61.648 321.636 63.952 321.465 65.488H261.433C261.604 71.7173 262.969 76.9653 265.529 81.232C268.089 85.4987 271.46 88.6987 275.641 90.832C279.822 92.9653 284.388 94.032 289.337 94.032C296.164 94.032 301.881 92.368 306.489 89.04C311.097 85.6267 313.998 81.0187 315.193 75.216H321.209C319.844 82.2987 316.345 88.0587 310.713 92.496C305.081 96.848 297.956 99.024 289.337 99.024C282.852 99.024 277.049 97.5733 271.929 94.672C266.809 91.7707 262.798 87.632 259.897 82.256C256.996 76.7947 255.545 70.4373 255.545 63.184C255.545 55.9307 256.953 49.616 259.769 44.24C262.67 38.864 266.681 34.768 271.801 31.952C276.921 29.0507 282.766 27.6 289.337 27.6C295.993 27.6 301.753 29.0507 306.617 31.952C311.566 34.768 315.321 38.5653 317.881 43.344C320.441 48.0373 321.721 53.1147 321.721 58.576ZM315.961 60.752C316.217 54.608 315.108 49.4027 312.633 45.136C310.244 40.8693 306.958 37.712 302.777 35.664C298.596 33.5307 294.073 32.464 289.209 32.464C284.345 32.464 279.822 33.5307 275.641 35.664C271.545 37.712 268.174 40.8693 265.529 45.136C262.969 49.4027 261.604 54.608 261.433 60.752H315.961ZM345.657 42.832C347.364 37.712 350.393 33.8293 354.745 31.184C359.097 28.4533 364.644 27.088 371.385 27.088V33.104H369.465C362.638 33.104 356.964 35.0667 352.441 38.992C347.918 42.832 345.657 49.1467 345.657 57.936V98H339.897V28.496H345.657V42.832ZM448.007 58.576C448.007 61.648 447.922 63.952 447.751 65.488H387.719C387.89 71.7173 389.255 76.9653 391.815 81.232C394.375 85.4987 397.746 88.6987 401.927 90.832C406.108 92.9653 410.674 94.032 415.623 94.032C422.45 94.032 428.167 92.368 432.775 89.04C437.383 85.6267 440.284 81.0187 441.479 75.216H447.495C446.13 82.2987 442.631 88.0587 436.999 92.496C431.367 96.848 424.242 99.024 415.623 99.024C409.138 99.024 403.335 97.5733 398.215 94.672C393.095 91.7707 389.084 87.632 386.183 82.256C383.282 76.7947 381.831 70.4373 381.831 63.184C381.831 55.9307 383.239 49.616 386.055 44.24C388.956 38.864 392.967 34.768 398.087 31.952C403.207 29.0507 409.052 27.6 415.623 27.6C422.279 27.6 428.039 29.0507 432.903 31.952C437.852 34.768 441.607 38.5653 444.167 43.344C446.727 48.0373 448.007 53.1147 448.007 58.576ZM442.247 60.752C442.503 54.608 441.394 49.4027 438.919 45.136C436.53 40.8693 433.244 37.712 429.063 35.664C424.882 33.5307 420.359 32.464 415.495 32.464C410.631 32.464 406.108 33.5307 401.927 35.664C397.831 37.712 394.46 40.8693 391.815 45.136C389.255 49.4027 387.89 54.608 387.719 60.752H442.247ZM462.599 63.184C462.599 56.016 464.007 49.744 466.823 44.368C469.724 38.992 473.692 34.8533 478.727 31.952C483.847 29.0507 489.65 27.6 496.135 27.6C503.218 27.6 509.362 29.392 514.567 32.976C519.772 36.4747 523.442 41.04 525.575 46.672V3.28H531.335V98H525.575V79.568C523.527 85.2853 519.943 89.9787 514.823 93.648C509.703 97.232 503.474 99.024 496.135 99.024C489.65 99.024 483.847 97.5733 478.727 94.672C473.692 91.6853 469.724 87.504 466.823 82.128C464.007 76.6667 462.599 70.352 462.599 63.184ZM525.575 63.184C525.575 57.1253 524.295 51.792 521.735 47.184C519.26 42.4907 515.847 38.9067 511.495 36.432C507.143 33.872 502.279 32.592 496.903 32.592C491.271 32.592 486.322 33.8293 482.055 36.304C477.788 38.6933 474.46 42.192 472.071 46.8C469.682 51.408 468.487 56.8693 468.487 63.184C468.487 69.4987 469.682 74.96 472.071 79.568C474.46 84.176 477.788 87.7173 482.055 90.192C486.407 92.6667 491.356 93.904 496.903 93.904C502.279 93.904 507.143 92.6667 511.495 90.192C515.932 87.632 519.388 84.048 521.863 79.44C524.338 74.7467 525.575 69.328 525.575 63.184ZM628.753 51.536C633.958 52.4747 638.31 55.0347 641.809 59.216C645.393 63.3973 647.185 68.304 647.185 73.936C647.185 78.544 646.076 82.6827 643.857 86.352C641.724 89.936 638.481 92.7947 634.129 94.928C629.862 96.976 624.657 98 618.513 98H589.969V8.144H618.001C626.961 8.144 633.702 10.2347 638.225 14.416C642.833 18.512 645.137 23.8453 645.137 30.416C645.137 36.1333 643.601 40.784 640.529 44.368C637.457 47.8667 633.532 50.256 628.753 51.536ZM595.729 48.976H618.257C624.998 48.976 630.161 47.3973 633.745 44.24C637.414 40.9973 639.249 36.56 639.249 30.928C639.249 25.4667 637.457 21.1573 633.873 18C630.289 14.8427 624.87 13.264 617.617 13.264H595.729V48.976ZM618.129 93.008C625.382 93.008 631.057 91.3013 635.153 87.888C639.334 84.3893 641.425 79.6107 641.425 73.552C641.425 67.5787 639.292 62.8427 635.025 59.344C630.844 55.76 625.084 53.968 617.745 53.968H595.729V93.008H618.129ZM719.134 28.496L678.686 130.64H672.798L685.726 98L656.542 28.496H662.814L688.926 91.6L713.246 28.496H719.134ZM839.152 98H827.504L780.656 26.96V98H769.008V8.656H780.656L827.504 79.568V8.656H839.152V98ZM890.368 99.152C883.797 99.152 877.824 97.6587 872.448 94.672C867.157 91.6853 862.976 87.4613 859.904 82C856.917 76.4533 855.424 70.0533 855.424 62.8C855.424 55.632 856.96 49.3173 860.032 43.856C863.189 38.3093 867.456 34.0853 872.832 31.184C878.208 28.1973 884.224 26.704 890.88 26.704C897.536 26.704 903.552 28.1973 908.928 31.184C914.304 34.0853 918.528 38.2667 921.6 43.728C924.757 49.1893 926.336 55.5467 926.336 62.8C926.336 70.0533 924.715 76.4533 921.472 82C918.315 87.4613 914.005 91.6853 908.544 94.672C903.083 97.6587 897.024 99.152 890.368 99.152ZM890.368 88.912C894.549 88.912 898.475 87.9307 902.144 85.968C905.813 84.0053 908.757 81.0613 910.976 77.136C913.28 73.2107 914.432 68.432 914.432 62.8C914.432 57.168 913.323 52.3893 911.104 48.464C908.885 44.5387 905.984 41.6373 902.4 39.76C898.816 37.7973 894.933 36.816 890.752 36.816C886.485 36.816 882.56 37.7973 878.976 39.76C875.477 41.6373 872.661 44.5387 870.528 48.464C868.395 52.3893 867.328 57.168 867.328 62.8C867.328 68.5173 868.352 73.3387 870.4 77.264C872.533 81.1893 875.349 84.1333 878.848 86.096C882.347 87.9733 886.187 88.912 890.368 88.912ZM968.531 87.248L990.291 27.856H1002.71L975.187 98H961.619L934.099 27.856H946.643L968.531 87.248ZM1045.53 99.152C1038.96 99.152 1032.99 97.6587 1027.61 94.672C1022.32 91.6853 1018.14 87.4613 1015.07 82C1012.08 76.4533 1010.59 70.0533 1010.59 62.8C1010.59 55.632 1012.12 49.3173 1015.19 43.856C1018.35 38.3093 1022.62 34.0853 1027.99 31.184C1033.37 28.1973 1039.39 26.704 1046.04 26.704C1052.7 26.704 1058.71 28.1973 1064.09 31.184C1069.47 34.0853 1073.69 38.2667 1076.76 43.728C1079.92 49.1893 1081.5 55.5467 1081.5 62.8C1081.5 70.0533 1079.88 76.4533 1076.63 82C1073.48 87.4613 1069.17 91.6853 1063.71 94.672C1058.24 97.6587 1052.19 99.152 1045.53 99.152ZM1045.53 88.912C1049.71 88.912 1053.64 87.9307 1057.31 85.968C1060.97 84.0053 1063.92 81.0613 1066.14 77.136C1068.44 73.2107 1069.59 68.432 1069.59 62.8C1069.59 57.168 1068.48 52.3893 1066.27 48.464C1064.05 44.5387 1061.15 41.6373 1057.56 39.76C1053.98 37.7973 1050.09 36.816 1045.91 36.816C1041.65 36.816 1037.72 37.7973 1034.14 39.76C1030.64 41.6373 1027.82 44.5387 1025.69 48.464C1023.56 52.3893 1022.49 57.168 1022.49 62.8C1022.49 68.5173 1023.51 73.3387 1025.56 77.264C1027.69 81.1893 1030.51 84.1333 1034.01 86.096C1037.51 87.9733 1041.35 88.912 1045.53 88.912ZM1093.23 62.8C1093.23 55.5467 1094.68 49.232 1097.58 43.856C1100.48 38.3947 1104.49 34.1707 1109.61 31.184C1114.82 28.1973 1120.75 26.704 1127.4 26.704C1136.02 26.704 1143.11 28.7947 1148.65 32.976C1154.28 37.1573 1158 42.96 1159.79 50.384H1147.24C1146.05 46.1173 1143.7 42.7467 1140.2 40.272C1136.79 37.7973 1132.52 36.56 1127.4 36.56C1120.75 36.56 1115.37 38.864 1111.28 43.472C1107.18 47.9947 1105.13 54.4373 1105.13 62.8C1105.13 71.248 1107.18 77.776 1111.28 82.384C1115.37 86.992 1120.75 89.296 1127.4 89.296C1132.52 89.296 1136.79 88.1013 1140.2 85.712C1143.62 83.3227 1145.96 79.9093 1147.24 75.472H1159.79C1157.91 82.64 1154.16 88.4 1148.52 92.752C1142.89 97.0187 1135.85 99.152 1127.4 99.152C1120.75 99.152 1114.82 97.6587 1109.61 94.672C1104.49 91.6853 1100.48 87.4613 1097.58 82C1094.68 76.5387 1093.23 70.1387 1093.23 62.8ZM1238.31 27.856V98H1226.66V87.632C1224.44 91.216 1221.32 94.032 1217.31 96.08C1213.39 98.0427 1209.04 99.024 1204.26 99.024C1198.8 99.024 1193.89 97.9147 1189.54 95.696C1185.19 93.392 1181.73 89.9787 1179.17 85.456C1176.7 80.9333 1175.46 75.4293 1175.46 68.944V27.856H1186.98V67.408C1186.98 74.32 1188.73 79.6533 1192.23 83.408C1195.72 87.0773 1200.5 88.912 1206.56 88.912C1212.79 88.912 1217.7 86.992 1221.28 83.152C1224.87 79.312 1226.66 73.7227 1226.66 66.384V27.856H1238.31ZM1270.39 39.248C1272.44 35.2373 1275.34 32.1227 1279.09 29.904C1282.93 27.6853 1287.58 26.576 1293.05 26.576V38.608H1289.97C1276.92 38.608 1270.39 45.6907 1270.39 59.856V98H1258.74V27.856H1270.39V39.248ZM1313.27 16.464C1311.06 16.464 1309.18 15.696 1307.64 14.16C1306.11 12.624 1305.34 10.7467 1305.34 8.52799C1305.34 6.30933 1306.11 4.432 1307.64 2.896C1309.18 1.36 1311.06 0.591995 1313.27 0.591995C1315.41 0.591995 1317.2 1.36 1318.65 2.896C1320.19 4.432 1320.95 6.30933 1320.95 8.52799C1320.95 10.7467 1320.19 12.624 1318.65 14.16C1317.2 15.696 1315.41 16.464 1313.27 16.464ZM1318.91 27.856V98H1307.26V27.856H1318.91ZM1364.36 99.152C1358.98 99.152 1354.16 98.256 1349.9 96.464C1345.63 94.5867 1342.26 92.0267 1339.78 88.784C1337.31 85.456 1335.94 81.6587 1335.69 77.392H1347.72C1348.06 80.8907 1349.68 83.7493 1352.58 85.968C1355.57 88.1867 1359.45 89.296 1364.23 89.296C1368.67 89.296 1372.17 88.3147 1374.73 86.352C1377.29 84.3893 1378.57 81.9147 1378.57 78.928C1378.57 75.856 1377.2 73.5947 1374.47 72.144C1371.74 70.608 1367.52 69.1147 1361.8 67.664C1356.59 66.2987 1352.33 64.9333 1349 63.568C1345.76 62.1173 1342.94 60.0267 1340.55 57.296C1338.25 54.48 1337.1 50.8107 1337.1 46.288C1337.1 42.704 1338.16 39.4187 1340.3 36.432C1342.43 33.4453 1345.46 31.0987 1349.38 29.392C1353.31 27.6 1357.79 26.704 1362.82 26.704C1370.59 26.704 1376.86 28.6667 1381.64 32.592C1386.42 36.5173 1388.98 41.8933 1389.32 48.72H1377.67C1377.42 45.0507 1375.92 42.1067 1373.19 39.888C1370.55 37.6693 1366.96 36.56 1362.44 36.56C1358.26 36.56 1354.93 37.456 1352.46 39.248C1349.98 41.04 1348.74 43.3867 1348.74 46.288C1348.74 48.592 1349.47 50.512 1350.92 52.048C1352.46 53.4987 1354.33 54.6933 1356.55 55.632C1358.86 56.4853 1362.01 57.4667 1366.02 58.576C1371.06 59.9413 1375.15 61.3067 1378.31 62.672C1381.47 63.952 1384.16 65.9147 1386.38 68.56C1388.68 71.2053 1389.87 74.6613 1389.96 78.928C1389.96 82.768 1388.89 86.224 1386.76 89.296C1384.63 92.368 1381.6 94.8 1377.67 96.592C1373.83 98.2987 1369.39 99.152 1364.36 99.152Z" fill="#000"/>
</svg>