<svg width="18" height="18" viewBox="0 0 18 18" fill="none" xmlns="http://www.w3.org/2000/svg">
    <mask id="mask0_643_14171" style="mask-type:alpha" maskUnits="userSpaceOnUse" x="0" y="0" width="18" height="18">
        <rect width="18" height="18" fill="#000"/>
    </mask>
    <g mask="url(#mask0_643_14171)">
        <path d="M10.1136 16.1252C8.86519 16.1252 7.80173 15.6875 6.92322 14.812C6.04472 13.9365 5.60547 12.8742 5.60547 11.6252V11.2156C4.59297 11.0839 3.74609 10.6324 3.06484 9.86128C2.38359 9.09013 2.04297 8.17811 2.04297 7.12523V3.49063C2.04297 3.29857 2.10793 3.13757 2.23786 3.00763C2.36779 2.87771 2.52879 2.81274 2.72086 2.81274H4.29297V2.62522C4.29297 2.46586 4.3469 2.33228 4.45476 2.22446C4.56262 2.11665 4.69627 2.06274 4.85571 2.06274C5.01515 2.06274 5.14872 2.11665 5.25642 2.22446C5.36411 2.33228 5.41795 2.46586 5.41795 2.62522V4.12522C5.41795 4.2846 5.36402 4.41819 5.25616 4.52601C5.14829 4.63382 5.01464 4.68772 4.85521 4.68772C4.69577 4.68772 4.5622 4.63382 4.4545 4.52601C4.34681 4.41819 4.29297 4.2846 4.29297 4.12522V3.93772H3.16795V7.12523C3.16795 7.95022 3.4617 8.65648 4.0492 9.24398C4.6367 9.83148 5.34295 10.1252 6.16795 10.1252C6.99295 10.1252 7.6992 9.83148 8.2867 9.24398C8.8742 8.65648 9.16795 7.95022 9.16795 7.12523V3.93772H8.04291V4.12522C8.04291 4.2846 7.98899 4.41819 7.88114 4.52601C7.77328 4.63382 7.63963 4.68772 7.48019 4.68772C7.32074 4.68772 7.18717 4.63382 7.07948 4.52601C6.97179 4.41819 6.91795 4.2846 6.91795 4.12522V2.62522C6.91795 2.46586 6.97188 2.33228 7.07973 2.22446C7.18759 2.11665 7.32124 2.06274 7.48069 2.06274C7.64013 2.06274 7.77369 2.11665 7.88138 2.22446C7.98907 2.33228 8.04291 2.46586 8.04291 2.62522V2.81274H9.61504C9.80711 2.81274 9.9681 2.87771 10.098 3.00763C10.228 3.13757 10.2929 3.29857 10.2929 3.49063V7.12523C10.2929 8.17811 9.95229 9.09013 9.27106 9.86128C8.58981 10.6324 7.74293 11.0839 6.73043 11.2156V11.6252C6.73043 12.5627 7.05926 13.3596 7.71691 14.0158C8.37456 14.6721 9.17314 15.0002 10.1127 15.0002C11.0502 15.0002 11.847 14.6721 12.5033 14.0158C13.1595 13.3596 13.4876 12.5627 13.4876 11.6252V10.4122C13.0934 10.2882 12.7689 10.059 12.5141 9.72469C12.2593 9.39036 12.1319 9.00946 12.1319 8.58197C12.1319 8.04912 12.3185 7.5962 12.6916 7.22321C13.0648 6.85021 13.5179 6.66371 14.051 6.66371C14.5841 6.66371 15.0369 6.85021 15.4095 7.22321C15.7821 7.5962 15.9684 8.04912 15.9684 8.58197C15.9684 9.00946 15.841 9.39036 15.5862 9.72469C15.3314 10.059 15.0068 10.2882 14.6126 10.4122V11.6252C14.6126 12.8742 14.1749 13.9365 13.2994 14.812C12.4239 15.6875 11.362 16.1252 10.1136 16.1252ZM14.0501 9.37523C14.2722 9.37523 14.46 9.29854 14.6134 9.14518C14.7667 8.99182 14.8434 8.80408 14.8434 8.58197C14.8434 8.35984 14.7667 8.1721 14.6134 8.01874C14.46 7.86538 14.2722 7.78869 14.0501 7.78869C13.828 7.78869 13.6403 7.86538 13.4869 8.01874C13.3335 8.1721 13.2569 8.35984 13.2569 8.58197C13.2569 8.80408 13.3335 8.99182 13.4869 9.14518C13.6403 9.29854 13.828 9.37523 14.0501 9.37523Z" fill="#000"/>
    </g>
</svg>