<svg width="40" height="40" viewBox="0 0 40 40" fill="none" xmlns="http://www.w3.org/2000/svg">
<path d="M39.9625 13.4475L37.7 4.3925C37.4225 3.28 36.4225 2.5 35.275 2.5H4.7275C3.58 2.5 2.58 3.28 2.3 4.3925L0.0375 13.4475C0.0125 13.545 0 13.6475 0 13.75C0 17.195 2.6625 20 5.9375 20C7.84 20 9.5375 19.0525 10.625 17.5825C11.7125 19.0525 13.41 20 15.3125 20C17.215 20 18.9125 19.0525 20 17.5825C21.0875 19.0525 22.7825 20 24.6875 20C26.5925 20 28.2875 19.0525 29.375 17.5825C30.4625 19.0525 32.1575 20 34.0625 20C37.3375 20 40 17.195 40 13.75C40 13.6475 39.9875 13.545 39.9625 13.4475Z" fill="#913393"/>
<path d="M34.0625 22.5013C32.36 22.5013 30.7425 21.9812 29.375 21.0312C26.64 22.9337 22.735 22.9337 20 21.0312C17.265 22.9337 13.36 22.9337 10.625 21.0312C9.2575 21.9812 7.64 22.5013 5.9375 22.5013C4.71 22.5013 3.5525 22.2138 2.5 21.7238V35.0013C2.5 36.3813 3.62 37.5013 5 37.5013H15V27.5013H25V37.5013H35C36.38 37.5013 37.5 36.3813 37.5 35.0013V21.7238C36.4475 22.2138 35.29 22.5013 34.0625 22.5013Z" fill="#913393"/>
</svg>
