<svg width="26" height="36" viewBox="0 0 26 36" fill="none" xmlns="http://www.w3.org/2000/svg">
<path fill-rule="evenodd" clip-rule="evenodd" d="M7.12073 3.50195H4.875C2.184 3.50195 0 5.85351 0 8.75488V29.7666C0 32.668 2.184 35.0195 4.875 35.0195H21.125C23.8176 35.0195 26 32.668 26 29.7666V8.75488C26 5.85351 23.8176 3.50195 21.125 3.50195H18.8792L17.7044 0.968292C17.4281 0.374711 16.8659 0 16.25 0H9.75C9.13575 0 8.57185 0.374711 8.29723 0.968292L7.12073 3.50195ZM22.75 8.75488V29.7666C22.75 30.7331 22.0236 31.5176 21.125 31.5176H4.875C3.978 31.5176 3.25 30.7331 3.25 29.7666V8.75488C3.25 7.78834 3.978 7.00391 4.875 7.00391H21.125C22.0236 7.00391 22.75 7.78834 22.75 8.75488ZM6.97449 20.4969L10.2164 23.9989C10.5202 24.3281 10.9346 24.5137 11.3652 24.5137C11.7959 24.5137 12.2102 24.3298 12.5157 24.0024L20.6407 15.258C21.2745 14.5751 21.2761 13.4668 20.6424 12.7821C20.0086 12.0993 18.9784 12.0975 18.343 12.7804L11.3685 20.2851L9.27551 18.0246C8.64339 17.3399 7.61314 17.3382 6.97776 18.0211C6.34239 18.7039 6.34236 19.8123 6.97449 20.4969Z" fill="#F68C42"/>
</svg>
