<svg width="18" height="21" viewBox="0 0 18 21" fill="none" xmlns="http://www.w3.org/2000/svg">
    <g id="Frame 4">
        <path id="Vector" d="M14.25 21.0001L12.6458 20.2403C12.005 19.9349 11.4636 19.4546 11.0839 18.8548C10.7043 18.2551 10.5019 17.5602 10.5 16.8504V12.0002H18V16.8512C17.9981 17.561 17.7957 18.2558 17.4161 18.8556C17.0364 19.4554 16.495 19.9357 15.8542 20.2411L14.25 21.0001ZM12 13.5002V16.8512C12.0013 17.2769 12.1229 17.6935 12.3508 18.0531C12.5786 18.4127 12.9034 18.7006 13.2877 18.8836L14.25 19.3396L15.2123 18.8844C15.5967 18.7013 15.9216 18.4133 16.1494 18.0535C16.3773 17.6938 16.4988 17.277 16.5 16.8512V13.5002H12Z" fill="#000"/>
        <path id="Vector_2" d="M9 19.4999H1.5V1.50023H7.5V6.00015C7.50119 6.3976 7.6596 6.77844 7.94065 7.05948C8.2217 7.34052 8.60254 7.49894 9 7.50012H13.5V9.75008H15V6.00015C15.0026 5.90158 14.9839 5.80362 14.9451 5.71299C14.9062 5.62236 14.8482 5.54122 14.775 5.47516L9.525 0.225251C9.45897 0.152011 9.37784 0.0939662 9.2872 0.0551219C9.19656 0.0162775 9.09857 -0.00244183 9 0.000255026H1.5C1.10254 0.00144205 0.721699 0.159856 0.440651 0.440899C0.159604 0.721941 0.00118705 1.10278 0 1.50023V19.4999C0.00118705 19.8974 0.159604 20.2782 0.440651 20.5592C0.721699 20.8403 1.10254 20.9987 1.5 20.9999H9V19.4999ZM9 1.80022L13.2 6.00015H9V1.80022Z" fill="#000"/>
    </g>
</svg>