<svg width="28" height="28" viewBox="0 0 28 28" fill="none" xmlns="http://www.w3.org/2000/svg">
<circle cx="14" cy="14" r="13" fill="white" stroke="#913393" stroke-width="2"/>
<mask id="mask0_11777_14286" style="mask-type:alpha" maskUnits="userSpaceOnUse" x="4" y="4" width="20" height="20">
<rect x="5" y="5" width="18" height="18" fill="#D9D9D9" stroke="#913393" stroke-width="2"/>
</mask>
<g mask="url(#mask0_11777_14286)">
<mask id="path-3-inside-1_11777_14286" fill="white">
<path d="M14.4987 14.0013L11.2487 10.7513C11.0959 10.5985 11.0195 10.4041 11.0195 10.168C11.0195 9.93186 11.0959 9.73741 11.2487 9.58464C11.4015 9.43186 11.5959 9.35547 11.832 9.35547C12.0681 9.35547 12.2626 9.43186 12.4154 9.58464L16.2487 13.418C16.332 13.5013 16.3911 13.5916 16.4258 13.6888C16.4605 13.786 16.4779 13.8902 16.4779 14.0013C16.4779 14.1124 16.4605 14.2166 16.4258 14.3138C16.3911 14.411 16.332 14.5013 16.2487 14.5846L12.4154 18.418C12.2626 18.5707 12.0681 18.6471 11.832 18.6471C11.5959 18.6471 11.4015 18.5707 11.2487 18.418C11.0959 18.2652 11.0195 18.0707 11.0195 17.8346C11.0195 17.5985 11.0959 17.4041 11.2487 17.2513L14.4987 14.0013Z"/>
</mask>
<path d="M14.4987 14.0013L11.2487 10.7513C11.0959 10.5985 11.0195 10.4041 11.0195 10.168C11.0195 9.93186 11.0959 9.73741 11.2487 9.58464C11.4015 9.43186 11.5959 9.35547 11.832 9.35547C12.0681 9.35547 12.2626 9.43186 12.4154 9.58464L16.2487 13.418C16.332 13.5013 16.3911 13.5916 16.4258 13.6888C16.4605 13.786 16.4779 13.8902 16.4779 14.0013C16.4779 14.1124 16.4605 14.2166 16.4258 14.3138C16.3911 14.411 16.332 14.5013 16.2487 14.5846L12.4154 18.418C12.2626 18.5707 12.0681 18.6471 11.832 18.6471C11.5959 18.6471 11.4015 18.5707 11.2487 18.418C11.0959 18.2652 11.0195 18.0707 11.0195 17.8346C11.0195 17.5985 11.0959 17.4041 11.2487 17.2513L14.4987 14.0013Z" fill="#913393"/>
<path d="M14.4987 14.0013L15.9129 15.4155L17.3271 14.0013L15.9129 12.5871L14.4987 14.0013ZM11.2487 10.7513L12.6629 9.33709L11.2487 10.7513ZM12.4154 9.58464L11.0012 10.9988L12.4154 9.58464ZM16.2487 13.418L17.6629 12.0038L16.2487 13.418ZM16.2487 14.5846L17.6629 15.9988L16.2487 14.5846ZM12.4154 18.418L11.0012 17.0038L12.4154 18.418ZM11.2487 17.2513L9.83448 15.8371L11.2487 17.2513ZM14.4987 14.0013L15.9129 12.5871L12.6629 9.33709L11.2487 10.7513L9.83448 12.1655L13.0845 15.4155L14.4987 14.0013ZM11.2487 10.7513L12.6629 9.33709C12.7742 9.44835 12.8725 9.59202 12.9383 9.75958C13.0028 9.92366 13.0195 10.0681 13.0195 10.168H11.0195H9.01953C9.01953 10.8803 9.26998 11.601 9.83448 12.1655L11.2487 10.7513ZM11.0195 10.168H13.0195C13.0195 10.2678 13.0028 10.4123 12.9383 10.5764C12.8725 10.7439 12.7742 10.8876 12.6629 10.9988L11.2487 9.58464L9.83448 8.17042C9.26998 8.73492 9.01953 9.45561 9.01953 10.168H11.0195ZM11.2487 9.58464L12.6629 10.9988C12.5516 11.1101 12.408 11.2084 12.2404 11.2743C12.0763 11.3387 11.9319 11.3555 11.832 11.3555V9.35547V7.35547C11.1197 7.35547 10.399 7.60592 9.83448 8.17042L11.2487 9.58464ZM11.832 9.35547V11.3555C11.7322 11.3555 11.5877 11.3387 11.4236 11.2743C11.2561 11.2084 11.1124 11.1101 11.0012 10.9988L12.4154 9.58464L13.8296 8.17042C13.2651 7.60592 12.5444 7.35547 11.832 7.35547V9.35547ZM12.4154 9.58464L11.0012 10.9988L14.8345 14.8322L16.2487 13.418L17.6629 12.0038L13.8296 8.17042L12.4154 9.58464ZM16.2487 13.418L14.8345 14.8322C14.7381 14.7358 14.6204 14.5801 14.5423 14.3615L16.4258 13.6888L18.3093 13.0161C18.1617 12.603 17.926 12.2668 17.6629 12.0038L16.2487 13.418ZM16.4258 13.6888L14.5423 14.3615C14.4942 14.2269 14.4779 14.1019 14.4779 14.0013H16.4779H18.4779C18.4779 13.6785 18.4268 13.3452 18.3093 13.0161L16.4258 13.6888ZM16.4779 14.0013H14.4779C14.4779 13.9007 14.4942 13.7757 14.5423 13.6411L16.4258 14.3138L18.3093 14.9865C18.4268 14.6574 18.4779 14.3241 18.4779 14.0013H16.4779ZM16.4258 14.3138L14.5423 13.6411C14.6204 13.4225 14.7381 13.2668 14.8345 13.1704L16.2487 14.5846L17.6629 15.9988C17.926 15.7358 18.1617 15.3996 18.3093 14.9865L16.4258 14.3138ZM16.2487 14.5846L14.8345 13.1704L11.0012 17.0038L12.4154 18.418L13.8296 19.8322L17.6629 15.9988L16.2487 14.5846ZM12.4154 18.418L11.0012 17.0038C11.1124 16.8925 11.2561 16.7942 11.4236 16.7283C11.5877 16.6639 11.7322 16.6471 11.832 16.6471V18.6471V20.6471C12.5444 20.6471 13.2651 20.3967 13.8296 19.8322L12.4154 18.418ZM11.832 18.6471V16.6471C11.9319 16.6471 12.0763 16.6639 12.2404 16.7283C12.408 16.7942 12.5517 16.8925 12.6629 17.0038L11.2487 18.418L9.83448 19.8322C10.399 20.3967 11.1197 20.6471 11.832 20.6471V18.6471ZM11.2487 18.418L12.6629 17.0038C12.7742 17.115 12.8725 17.2587 12.9383 17.4262C13.0028 17.5903 13.0195 17.7348 13.0195 17.8346H11.0195H9.01953C9.01953 18.547 9.26998 19.2677 9.83448 19.8322L11.2487 18.418ZM11.0195 17.8346H13.0195C13.0195 17.9345 13.0028 18.0789 12.9383 18.243C12.8725 18.4106 12.7742 18.5543 12.6629 18.6655L11.2487 17.2513L9.83448 15.8371C9.26998 16.4016 9.01953 17.1223 9.01953 17.8346H11.0195ZM11.2487 17.2513L12.6629 18.6655L15.9129 15.4155L14.4987 14.0013L13.0845 12.5871L9.83448 15.8371L11.2487 17.2513Z" fill="#913393" mask="url(#path-3-inside-1_11777_14286)"/>
</g>
</svg>
