<svg width="42" height="43" viewBox="0 0 42 43" fill="none" xmlns="http://www.w3.org/2000/svg">
<path d="M42 21.9235C42 33.5271 32.5978 42.9345 20.9995 42.9345H20.9602C9.38048 42.9127 0 33.5116 0 21.9235C0 10.3355 9.38048 0.933307 20.9602 0.912598H20.9995C32.5978 0.912598 42 10.3168 42 21.9235Z" fill="black"/>
<path d="M20.9602 0.912598V42.9345C9.38048 42.9127 0 33.5116 0 21.9235C0 10.3355 9.38048 0.933307 20.9602 0.912598Z" fill="#0C0C0C"/>
<path d="M32.4262 16.1072L32.4003 20.4117C31.5619 20.4015 30.7279 20.2895 29.9165 20.0783C28.6647 19.7511 27.484 19.1954 26.434 18.4391C26.434 18.8792 26.4402 19.5357 26.4402 20.334C26.4402 21.3965 26.4402 22.0001 26.434 22.6411C26.4154 26.6008 26.5137 27.367 26.1659 28.9327C26.0936 29.3102 25.9947 29.6822 25.87 30.0458C25.2014 31.9097 23.7442 33.4028 22.2591 34.1971C21.8447 34.4175 21.4097 34.5968 20.9603 34.7324C18.1536 35.5836 14.7808 34.8359 13.0401 32.765L13.0287 32.7526L13.0153 32.735C11.5364 30.9498 11.2135 28.1664 11.1824 27.454C11.1824 27.3629 11.1762 27.2738 11.1762 27.2738C11.1534 26.3007 11.2934 25.3305 11.5902 24.4035C11.8903 23.4446 12.8787 21.443 15.0986 20.2274C16.483 19.4812 18.0633 19.1786 19.6253 19.3607L19.5746 23.717C19.4866 23.6942 17.3598 23.1899 15.9637 24.6396C14.6991 25.9526 14.7808 28.068 15.6781 29.2661C15.7257 29.3303 15.7764 29.3924 15.8292 29.4504C16.3311 30.0106 16.9676 30.2208 17.3971 30.3679C17.9666 30.5556 18.5643 30.6432 19.1637 30.6267C19.8058 30.6167 20.4304 30.4159 20.9582 30.05C22.4175 29.058 22.6141 27.2914 22.6214 27.191C22.6034 21.5041 22.5865 15.8173 22.5706 10.1304V10.1253L25.3059 10.0766H25.3504L25.7468 10.0693C26.0391 11.1217 26.5345 12.1067 27.205 12.9687C27.4163 13.2383 27.6444 13.4942 27.888 13.7349C28.8085 14.6313 29.9143 15.3149 31.1273 15.7376H31.1356C31.5564 15.8914 31.9877 16.015 32.4262 16.1072Z" fill="#FD2854"/>
<path d="M31.1888 18.055H31.1805C29.7074 18.2911 28.1995 18.1765 26.779 17.7205C25.7871 17.3978 24.856 16.9117 24.024 16.2822C24.5229 19.2991 24.5229 22.3776 24.024 25.3945C23.4331 28.94 23.0626 31.1621 21.0849 32.5838C21.0435 32.6138 21.0011 32.6439 20.9586 32.6718C18.2275 34.5222 14.4117 33.6038 13.0136 32.7329L12.9929 32.7205L12.9536 32.6956C12.4927 32.3902 12.0604 32.0436 11.662 31.6602C10.9478 30.967 10.3778 30.1391 9.9851 29.2243C9.59236 28.3096 9.38459 27.3261 9.37378 26.3305C9.3472 25.2994 9.51828 24.2727 9.87778 23.3059C10.1106 22.6846 10.9758 20.4749 13.3861 19.1298C14.9296 18.2831 16.713 17.9811 18.449 18.2724C18.4421 18.6176 18.4355 18.9628 18.4293 19.3079V19.3152L18.3889 21.5C17.6335 21.3219 16.8526 21.2784 16.0821 21.3716C15.4612 21.4483 14.8526 21.5197 14.2058 21.9266C13.3774 22.4602 12.7911 23.2974 12.5727 24.2585C12.4345 24.7241 12.4062 25.2154 12.4899 25.6937C12.5147 25.8304 12.6969 26.7799 13.4627 27.4613C13.7204 27.6901 13.8301 27.6994 14.2058 28.0505C14.537 28.3611 14.6198 28.5102 14.923 28.7681C14.923 28.7681 14.9975 28.8312 15.1196 28.9203C15.1275 28.9271 15.1358 28.9333 15.1445 28.9389C15.3115 29.0611 15.4868 29.1715 15.6692 29.2692C16.4278 29.6669 17.7856 29.7093 18.7812 29.2257C20.1586 28.5558 20.91 27.015 20.9069 26.0996C20.8903 20.4107 20.8734 14.7221 20.8562 9.03388H20.9514L25.1759 9.00903C25.1729 9.33874 25.2186 9.66708 25.3115 9.98342C25.3218 10.0176 25.3322 10.0497 25.3436 10.087C25.355 10.1242 25.3622 10.1418 25.3715 10.1677C25.4371 10.3398 25.5127 10.5079 25.5982 10.671L25.6571 10.7901V10.7994C25.6562 10.8021 25.6562 10.805 25.6571 10.8077L25.6665 10.8273L25.6758 10.846C25.6814 10.858 25.6876 10.8698 25.6944 10.8812C25.7006 10.8946 25.7079 10.9081 25.7151 10.9216C25.7544 10.9972 25.8082 11.0966 25.8693 11.2084C25.9076 11.2778 25.948 11.3471 25.9894 11.4155L26.0339 11.489C26.0556 11.5263 26.0784 11.5636 26.1011 11.5998L26.1839 11.7313C26.5058 12.2397 27.0708 13.0961 27.8719 13.7432C28.9979 14.6524 30.2915 14.9092 31.1029 14.9858C31.108 15.2406 31.1143 15.4953 31.1194 15.75C31.1498 16.519 31.1729 17.2873 31.1888 18.055Z" fill="#24F6FA"/>
<path d="M31.2032 19.2716C29.0707 19.3499 26.977 18.6865 25.2783 17.3943V26.5065C25.2576 26.8555 24.9523 30.7043 21.477 32.8229C21.3052 32.9265 21.1324 33.0228 20.9596 33.1118C17.6903 34.781 14.4955 33.4732 14.1798 33.3376C13.866 33.2349 13.5652 33.0959 13.2836 32.9234C13.1956 32.8685 13.1097 32.8116 13.028 32.7525L12.9545 32.6976C10.8226 31.0782 10.7346 27.7791 10.7211 27.2924C10.6984 26.3193 10.8383 25.3491 11.1351 24.4221C11.487 23.2986 12.5374 21.4047 14.6435 20.246C15.8056 19.6132 17.1115 19.2922 18.4344 19.3141V19.3213C18.4171 20.4155 18.3999 21.51 18.3826 22.6048C18.1601 22.5448 16.7961 22.201 15.4631 23.0408C14.6347 23.5743 14.0484 24.4115 13.83 25.3727C13.6994 25.8391 13.6711 26.3284 13.7472 26.8068C13.8654 27.3975 14.144 27.9443 14.5524 28.3869C14.7241 28.5848 14.9159 28.7642 15.1247 28.9223C15.1325 28.9291 15.1408 28.9353 15.1495 28.9409C15.3135 29.0675 15.4892 29.1781 15.6743 29.2712L15.6805 29.2764C16.0503 29.8352 16.5838 30.2658 17.2077 30.5094C17.8317 30.753 18.5158 30.7976 19.1661 30.637C19.469 30.5738 19.7633 30.4743 20.0426 30.3409C20.3809 30.1799 20.6909 29.9652 20.9606 29.7051C22.0079 28.6976 22.1611 27.3038 22.1684 27.22L22.1228 10.1459L22.5782 10.1366L25.3135 10.0828H25.3528C25.3631 10.1097 25.3745 10.1366 25.3859 10.1635C25.449 10.3157 25.5246 10.4845 25.6125 10.6668L25.6715 10.7859V10.7952C25.6706 10.7979 25.6706 10.8008 25.6715 10.8035L25.6809 10.8231L25.6902 10.8418C25.6958 10.8538 25.702 10.8656 25.7088 10.877C25.715 10.8904 25.7223 10.9039 25.7295 10.9174C25.7771 11.0106 25.833 11.1069 25.8837 11.2042C25.922 11.2736 25.9624 11.3429 26.0037 11.4113L26.0482 11.4848L26.1155 11.5956L26.1983 11.7271C26.6717 12.4679 27.2391 13.1442 27.8863 13.739C28.8307 14.6042 29.9297 15.2836 31.1255 15.7417H31.1338C31.1473 16.509 31.1607 17.2783 31.1732 18.0456L31.2032 19.2716Z" fill="white"/>
<path opacity="0.17" d="M32.4268 16.1072L32.4009 20.4117C31.5625 20.4015 30.7285 20.2895 29.9171 20.0783C28.6653 19.7511 27.4847 19.1954 26.4346 18.4391C26.4346 18.8792 26.4408 19.5357 26.4408 20.3341C26.4408 21.3965 26.4408 22.0002 26.4346 22.6411C26.416 26.6008 26.5143 27.3671 26.1666 28.9327C26.0942 29.3103 25.9953 29.6822 25.8706 30.0458C25.202 31.9097 23.7449 33.4029 22.2598 34.1971C21.8453 34.4175 21.4103 34.5968 20.9609 34.7324V9.03388L25.1855 9.00903C25.1824 9.33874 25.2281 9.66708 25.321 9.98342C25.3314 10.0176 25.3417 10.0497 25.3531 10.087L25.7495 10.0797C26.0418 11.1321 26.5372 12.1171 27.2077 12.9791C27.419 13.2487 27.6471 13.5046 27.8907 13.7453C29.0167 14.6545 30.3104 14.9113 31.1217 14.9879C31.1269 15.2426 31.1331 15.4974 31.1383 15.7521C31.5588 15.9009 31.9894 16.0196 32.4268 16.1072Z" fill="black"/>
</svg>
