<svg width="125" height="140" viewBox="0 0 125 140" fill="none" xmlns="http://www.w3.org/2000/svg">
<path d="M26.4716 22.2347C25.1849 22.8524 24.0819 25.1171 23.7143 26.3524C21.5084 32.5288 22.979 98.4112 24.0819 134.029C24.8172 134.441 25.5525 135.264 26.2878 135.676C26.4716 136.088 26.6555 136.294 27.3908 136.499C54.229 135.882 81.251 137.529 108.089 136.911C108.825 136.911 109.56 136.088 109.376 135.264C107.354 108.294 106.435 78.8524 106.803 42.6171C106.803 42.4112 106.619 41.5877 106.435 41.3818C102.391 33.5583 96.6922 26.97 89.8908 22.4406C89.7069 22.0288 89.1555 21.823 88.7878 22.0288C83.6408 22.4406 78.6775 23.8818 73.7143 24.9112C54.7805 28.823 42.0966 25.5288 27.5746 21.823C27.3908 21.6171 27.0231 21.823 26.4716 22.2347C26.6555 22.2347 26.6555 22.0288 26.4716 22.2347ZM102.758 40.3524C98.3466 39.5288 93.7511 40.3524 89.8908 42.823C90.0746 37.47 90.2584 31.9112 90.2584 26.5582C95.2216 30.0582 99.4496 34.7935 102.758 40.3524ZM74.4496 27.9994C78.6775 27.1759 83.0893 25.9406 87.6849 25.323C87.501 32.9406 87.3172 40.1465 87.1334 45.4994C87.1334 46.7347 88.4202 47.5583 89.3393 46.7347C93.751 43.2347 99.2658 42.2053 104.413 43.8524C104.045 78.8524 104.78 107.47 106.803 133.823C80.8834 134.235 54.9643 132.794 29.0452 133.411C30.6996 108.911 30.1481 84.823 29.5966 59.4994C29.4128 48.3818 29.0452 36.8524 29.0452 25.323C43.0158 29.0288 55.6996 31.9112 74.4496 27.9994Z" fill="#F68C42"/>
<path d="M22.2409 26.3512C21.1379 25.5276 20.035 24.4982 19.1159 23.2629C18.0129 21.6159 15.807 23.4688 16.91 25.1159C17.6453 26.1453 20.2188 29.2335 21.5056 29.2335C22.7923 29.2335 23.3438 27.1747 22.2409 26.3512Z" fill="#F68C42"/>
<path d="M18.0144 7.20529C17.0953 5.35235 14.7056 6.99941 15.6247 8.64646C22.7938 21.2053 22.2423 22.2347 23.7129 22.2347C24.8159 22.2347 25.3673 20.9994 24.8159 19.97L18.0144 7.20529Z" fill="#F68C42"/>
<path d="M30.5163 18.117C29.781 13.5875 29.5972 9.05813 29.5972 4.32284C29.5972 3.49931 29.0457 2.67578 28.3104 2.67578C27.5751 2.67578 26.8398 3.29343 26.8398 4.11696C26.656 8.85225 27.0236 13.7934 27.7589 18.5287C28.1266 20.7934 30.7001 20.1758 30.5163 18.117Z" fill="#F68C42"/>
<path d="M39.5207 63.8231L36.028 67.9407C35.4766 68.5584 35.4766 69.5878 36.028 70.2054C36.5795 70.8231 37.4986 70.8231 38.0501 70.2054L41.5427 66.2937L45.403 70.6172C45.9545 71.2348 46.8736 71.2348 47.4251 70.6172C47.9766 69.9995 47.9766 68.9701 47.4251 68.3525L43.5648 63.8231L48.3442 58.4701C48.8957 57.8525 48.8957 56.8231 48.3442 56.2054C47.7927 55.5878 46.8736 55.5878 46.3222 56.2054L41.5427 61.7642L37.131 56.8231C36.5795 56.2054 35.6604 56.2054 35.1089 56.8231C34.5574 57.4407 34.5574 58.4701 35.1089 59.0878L39.5207 63.8231Z" fill="#F68C42"/>
<path d="M57.537 65.6769H97.059C97.7943 65.6769 98.5296 65.0593 98.5296 64.0299C98.5296 63.0005 97.9782 62.3828 97.059 62.3828H57.537C56.8017 62.3828 56.0664 63.0005 56.0664 64.0299C56.0664 65.0593 56.8017 65.6769 57.537 65.6769Z" fill="#F68C42"/>
<path d="M46.8759 83.9984L42.4642 88.7337L38.7877 84.616C38.2362 83.9984 37.3171 83.9984 36.7656 84.616C36.2142 85.2337 36.2142 86.2631 36.7656 86.8807L40.4421 90.9984L36.398 95.3219C35.8465 95.9396 35.8465 96.969 36.398 97.5866C36.9494 98.2043 37.8686 98.2043 38.42 97.5866L42.4642 93.2631L46.5083 97.7925C47.0597 98.4102 47.9789 98.4102 48.5303 97.7925C49.0818 97.1749 49.0818 96.1455 48.5303 95.5278L44.4862 90.9984L48.898 86.2631C49.4495 85.6455 49.4495 84.616 48.898 83.9984C48.3465 83.3807 47.4274 83.3807 46.8759 83.9984Z" fill="#F68C42"/>
<path d="M81.9867 92.2355C82.722 92.2355 83.4573 91.6179 83.4573 90.5885C83.4573 89.5591 82.9058 88.9414 81.9867 88.9414H59.5602C58.8249 88.9414 58.2734 89.5591 58.2734 90.5885C58.2734 91.6179 58.8249 92.2355 59.5602 92.2355H81.9867Z" fill="#F68C42"/>
<path d="M39.1544 114.262C38.6029 113.645 37.6838 113.645 37.1324 114.262C36.5809 114.88 36.5809 115.909 37.1324 116.527L40.8088 121.057C41.3603 121.674 42.0956 121.674 42.6471 121.262L51.4706 113.027C52.0221 112.409 52.2059 111.586 51.6544 110.762C51.1029 110.145 50.3676 109.939 49.6324 110.557L41.7279 117.762L39.1544 114.262Z" fill="#F68C42"/>
<path d="M88.2337 116.324H58.8219C58.0866 116.324 57.5352 116.942 57.5352 117.971C57.5352 119.001 58.0866 119.412 58.8219 119.412H88.2337C88.969 119.412 89.7043 118.795 89.7043 117.765C89.7043 116.736 89.1528 116.324 88.2337 116.324Z" fill="#F68C42"/>
</svg>
