<svg width="42" height="42" viewBox="0 0 42 42" fill="none" xmlns="http://www.w3.org/2000/svg">
<g clip-path="url(#clip0_6753_8655)">
<path d="M21 0C9.40242 0 0 9.40242 0 21C0 32.5976 9.40242 42 21 42C32.5976 42 42 32.5976 42 21C42 9.40242 32.5976 0 21 0Z" fill="black"/>
<path d="M23.2974 19.0996L32.2873 8.64966H30.157L22.3511 17.7232L16.1166 8.64966H8.92578L18.3536 22.3705L8.92578 33.3289H11.0562L19.2994 23.7469L25.8835 33.3289H33.0743L23.2969 19.0996H23.2974ZM11.8238 10.2534H15.096L30.158 31.7981H26.8858L11.8238 10.2534Z" fill="white"/>
</g>
<defs>
<clipPath id="clip0_6753_8655">
<rect width="42" height="42" fill="white"/>
</clipPath>
</defs>
</svg>
