<svg width="24" height="24" viewBox="0 0 24 24" fill="none" xmlns="http://www.w3.org/2000/svg">
    <g clip-path="url(#clip0_757_22356)">
        <path d="M8.49929 9.49991C8.49929 10.0509 8.62729 10.5729 8.85529 11.0369C8.36529 11.6649 8.06029 12.4439 8.01929 13.2929C7.07829 12.3049 6.49929 10.9689 6.49929 9.50091C6.49929 6.08991 9.62129 3.39391 13.1583 4.11991C15.2403 4.54791 16.9273 6.22491 17.3713 8.30391C17.5053 8.93191 17.5303 9.54691 17.4623 10.1349C17.4043 10.6329 16.9673 11.0009 16.4653 11.0009H16.4203C15.8283 11.0009 15.4123 10.4739 15.4773 9.88591C15.5213 9.49091 15.4983 9.07591 15.3973 8.65291C15.0993 7.39991 14.0773 6.38491 12.8223 6.09591C10.5363 5.57091 8.49829 7.30291 8.49829 9.50091L8.49929 9.49991ZM4.60929 8.20491C4.88329 6.61191 5.66229 5.15991 6.87029 4.02691C8.39929 2.59391 10.4013 1.88591 12.5003 2.01591C16.4533 2.27191 19.5443 5.73491 19.4983 9.88091C19.4793 11.6169 18.0253 12.9989 16.2903 12.9989H13.8843C13.6403 12.1699 12.8823 11.5599 11.9743 11.5599C10.8693 11.5599 9.97429 12.4549 9.97429 13.5599C9.97429 14.6649 10.8693 15.5599 11.9743 15.5599C12.5123 15.5599 12.9993 15.3449 13.3583 14.9989H16.2903C19.1093 14.9989 21.4583 12.7539 21.4983 9.93591C21.5723 4.71491 17.6503 0.34491 12.6293 0.0209097C9.96529 -0.15209 7.43829 0.75291 5.50329 2.56891C4.00429 3.97391 3.00729 5.83391 2.64829 7.83491C2.53929 8.44291 3.02029 9.00091 3.63729 9.00091C4.10929 9.00091 4.53029 8.67191 4.60929 8.20591V8.20491ZM11.9993 16.9999C8.30429 16.9999 5.10729 19.2919 4.04429 22.7019C3.87929 23.2289 4.17429 23.7899 4.70129 23.9549C5.22729 24.1139 5.78829 23.8239 5.95329 23.2979C6.74229 20.7679 9.22729 18.9999 11.9983 18.9999C14.7693 18.9999 17.2553 20.7679 18.0433 23.2979C18.1773 23.7259 18.5713 23.9999 18.9983 23.9999C19.0973 23.9999 19.1963 23.9849 19.2963 23.9549C19.8233 23.7899 20.1173 23.2289 19.9533 22.7019C18.8903 19.2919 15.6933 16.9999 11.9983 16.9999H11.9993Z" fill="#000"/>
    </g>
    <defs>
        <clipPath id="clip0_757_22356">
            <rect width="24" height="24" fill="white"/>
        </clipPath>
    </defs>
</svg>