<svg width="18" height="18" viewBox="0 0 18 18" fill="none" xmlns="http://www.w3.org/2000/svg">
    <mask id="mask0_643_13674" style="mask-type:alpha" maskUnits="userSpaceOnUse" x="0" y="0" width="18" height="18">
        <rect width="18" height="18" fill="#000"/>
    </mask>
    <g mask="url(#mask0_643_13674)">
        <path d="M7.31248 7.75981C7.18332 7.75981 7.07651 7.71557 6.99206 7.62708C6.9076 7.5386 6.86537 7.42669 6.86537 7.29136C6.86537 7.15604 6.9076 7.04402 6.99206 6.9553C7.07651 6.86658 7.18332 6.82222 7.31248 6.82222H10.6875C10.8166 6.82222 10.9234 6.86646 11.0079 6.95495C11.0924 7.04343 11.1346 7.15533 11.1346 7.29065C11.1346 7.42599 11.0924 7.53801 11.0079 7.62673C10.9234 7.71545 10.8166 7.75981 10.6875 7.75981H7.31248ZM8.06248 9.87696C7.93332 9.87696 7.82651 9.83272 7.74206 9.74424C7.6576 9.65576 7.61537 9.54385 7.61537 9.40853C7.61537 9.2732 7.6576 9.16117 7.74206 9.07245C7.82651 8.98374 7.93332 8.93938 8.06248 8.93938H9.93748C10.0666 8.93938 10.1734 8.98362 10.2579 9.0721C10.3424 9.16058 10.3846 9.27249 10.3846 9.40782C10.3846 9.54315 10.3424 9.65517 10.2579 9.74388C10.1734 9.8326 10.0666 9.87696 9.93748 9.87696H8.06248ZM7.8822 15.306C7.63513 15.306 7.40943 15.2284 7.20512 15.0732C7.00081 14.9181 6.86064 14.7103 6.78463 14.4501L6.18463 12.2875C5.57021 11.8449 5.07333 11.2602 4.69401 10.5333C4.31467 9.80641 4.125 9.01297 4.125 8.153C4.125 7.29302 4.31467 6.49958 4.69401 5.77268C5.07333 5.04579 5.57021 4.46105 6.18463 4.01846L6.78463 1.85594C6.86064 1.59566 7.00081 1.38793 7.20512 1.23277C7.40943 1.07759 7.63513 1 7.8822 1H10.1178C10.3648 1 10.5905 1.07759 10.7948 1.23277C10.9992 1.38793 11.1393 1.59566 11.2153 1.85594L11.8153 4.01846C12.4298 4.46105 12.9266 5.04579 13.306 5.77268C13.6853 6.49958 13.875 7.29302 13.875 8.153C13.875 9.01297 13.6853 9.80641 13.306 10.5333C12.9266 11.2602 12.4298 11.8449 11.8153 12.2875L11.2153 14.4501C11.1393 14.7103 10.9992 14.9181 10.7948 15.0732C10.5905 15.2284 10.3648 15.306 10.1178 15.306H7.8822ZM8.99998 12.0849C10.0375 12.0849 10.9219 11.7015 11.6531 10.9348C12.3844 10.1681 12.75 9.24082 12.75 8.153C12.75 7.06517 12.3844 6.1379 11.6531 5.37117C10.9219 4.60445 10.0375 4.22109 8.99998 4.22109C7.96248 4.22109 7.07811 4.60445 6.34686 5.37117C5.61561 6.1379 5.24998 7.06517 5.24998 8.153C5.24998 9.24082 5.61561 10.1681 6.34686 10.9348C7.07811 11.7015 7.96248 12.0849 8.99998 12.0849ZM7.56056 3.26839C7.81536 3.19278 8.05918 3.13405 8.29202 3.0922C8.52487 3.05037 8.76086 3.02945 8.99998 3.02945C9.23911 3.02945 9.47509 3.05037 9.70794 3.0922C9.94078 3.13405 10.1846 3.19278 10.4394 3.26839L10.125 2.17955H7.87498L7.56056 3.26839ZM7.87498 14.1264H10.125L10.4394 13.0376C10.1846 13.1132 9.94078 13.1687 9.70794 13.204C9.47509 13.2392 9.23911 13.2569 8.99998 13.2569C8.76086 13.2569 8.52487 13.2392 8.29202 13.204C8.05918 13.1687 7.81536 13.1132 7.56056 13.0376L7.87498 14.1264ZM7.87498 14.1264H7.56056H10.4394H7.87498Z" fill="#000"/>
    </g>
</svg>