<svg width="32" height="32" viewBox="0 0 32 32" fill="none" xmlns="http://www.w3.org/2000/svg">
<path d="M25.8467 6.1359C24.5516 4.82793 23.0108 3.78875 21.3128 3.07807C19.6148 2.36738 17.7931 1.9992 15.9524 1.99467C14.1117 1.99014 12.2883 2.34935 10.5868 3.05167C8.88536 3.75398 7.33938 4.78556 6.03782 6.08714C4.73625 7.38874 3.70467 8.93466 3.00235 10.6361C2.30004 12.3376 1.94083 14.161 1.94535 16.0017C1.94988 17.8425 2.31807 19.6641 3.02875 21.3621C3.73943 23.0601 4.77861 24.6009 6.08658 25.896C7.38173 27.204 8.92253 28.2432 10.6205 28.9539C12.3185 29.6645 14.1402 30.0328 15.9809 30.0373C17.8216 30.0418 19.6451 29.6826 21.3465 28.9803C23.048 28.2779 24.5939 27.2464 25.8955 25.9448C27.1971 24.6432 28.2286 23.0973 28.931 21.3958C29.6333 19.6944 29.9925 17.8709 29.988 16.0302C29.9834 14.1895 29.6152 12.3678 28.9046 10.6698C28.1939 8.9719 27.1547 7.43103 25.8467 6.1359ZM3.99005 16.016C3.9896 14.956 4.13014 13.9006 4.40798 12.8777C4.86584 13.8633 5.53079 14.7147 5.98303 15.7259C6.56751 17.0259 8.13694 16.6653 8.82997 17.8043C9.44501 18.8155 8.78817 20.0942 9.24852 21.1522C9.58287 21.92 10.3713 22.0878 10.9153 22.6493C11.4711 23.2156 11.4592 23.9916 11.544 24.7302C11.6398 25.5979 11.795 26.4581 12.0088 27.3045C12.0088 27.3108 12.0088 27.3176 12.0137 27.3239C7.34599 25.6846 3.99005 21.2351 3.99005 16.016ZM15.9667 27.9926C15.2978 27.9924 14.6301 27.9364 13.9705 27.8254C13.9774 27.6563 13.9805 27.4985 13.9974 27.3887C14.149 26.3969 14.6455 25.427 15.3154 24.6847C15.9773 23.9523 16.8842 23.457 17.4431 22.6262C17.9908 21.8153 18.1549 20.7236 17.9291 19.7761C17.5966 18.3763 15.6947 17.9091 14.6692 17.15C14.0797 16.7133 13.5551 16.0384 12.781 15.9835C12.4242 15.9586 12.1254 16.0353 11.7717 15.9442C11.4474 15.86 11.1929 15.6854 10.8473 15.7309C10.2017 15.8157 9.79433 16.5056 9.10069 16.4121C8.4426 16.3241 7.76455 15.5537 7.61484 14.9268C7.42271 14.1209 8.06022 13.8595 8.74326 13.7878C9.02833 13.7579 9.34833 13.7254 9.62217 13.8302C9.98271 13.9637 10.153 14.3168 10.4767 14.4952C11.0837 14.8283 11.2066 14.2962 11.1136 13.7572C10.9745 12.9501 10.8123 12.6213 11.5322 12.0655C12.0312 11.6825 12.4579 11.4056 12.378 10.7176C12.3306 10.3133 12.1092 10.1306 12.3157 9.72823C12.4722 9.42196 12.902 9.14562 13.1821 8.96286C13.9051 8.49128 16.2792 8.52621 15.3092 7.20629C15.0241 6.81892 14.4983 6.12654 13.9992 6.03172C13.3755 5.91383 13.0985 6.60995 12.6637 6.91685C12.2146 7.23436 11.3401 7.5949 10.8903 7.10399C10.2852 6.4434 11.2914 6.22697 11.5141 5.76537C11.617 5.55016 11.5141 5.25137 11.3407 4.97005C11.5657 4.87523 11.7944 4.78728 12.0268 4.70619C12.1726 4.81379 12.3453 4.8786 12.5259 4.89332C12.9432 4.92077 13.3368 4.69496 13.7011 4.9794C14.1053 5.2913 14.3966 5.68553 14.933 5.78284C15.452 5.87703 16.0016 5.57449 16.1301 5.04303C16.2081 4.71991 16.1301 4.3787 16.0552 4.04498C18.3882 4.0584 20.6658 4.75708 22.6049 6.05418C22.4802 6.00677 22.3311 6.01239 22.1471 6.09784C21.7684 6.27373 21.232 6.72161 21.1877 7.16574C21.1372 7.66976 21.8807 7.74087 22.2338 7.74087C22.764 7.74087 23.3011 7.50383 23.1302 6.89128C23.0559 6.62555 22.9549 6.34921 22.7921 6.18205C23.1834 6.45363 23.5584 6.74812 23.9149 7.06406C23.9093 7.06968 23.9036 7.07467 23.898 7.08091C23.5387 7.45517 23.1214 7.75147 22.8757 8.20683C22.7022 8.52746 22.507 8.67966 22.1558 8.76262C21.9624 8.80816 21.7416 8.825 21.5794 8.95475C21.1278 9.3103 21.3848 10.1649 21.8127 10.4213C22.3536 10.745 23.1557 10.5928 23.5637 10.1306C23.8824 9.76878 24.0702 9.14063 24.6435 9.14126C24.8958 9.14076 25.1383 9.23956 25.3184 9.41634C25.5554 9.66211 25.5086 9.89167 25.5592 10.1986C25.6484 10.7438 26.1293 10.4481 26.4219 10.173C26.6351 10.5525 26.8275 10.9434 26.9982 11.3438C26.6764 11.8073 26.4206 12.3126 25.6465 11.7724C25.183 11.4486 24.898 10.9789 24.316 10.833C23.8076 10.7082 23.2867 10.8379 22.7846 10.9246C22.2138 11.0238 21.537 11.0675 21.1041 11.4998C20.6856 11.9165 20.4641 12.4741 20.0187 12.8927C19.1573 13.7036 18.7936 14.5887 19.3513 15.7353C19.8877 16.8375 21.0099 17.4357 22.2207 17.3571C23.4102 17.2779 24.6459 16.588 24.6116 18.3165C24.5992 18.9284 24.727 19.3519 24.9148 19.9202C25.0888 20.4442 25.077 20.9519 25.1169 21.4928C25.1549 22.1261 25.2539 22.7542 25.4126 23.3685C24.2945 24.808 22.8622 25.973 21.2251 26.7744C19.588 27.5758 17.7894 27.9925 15.9667 27.9926Z" fill="#000"/>
</svg>