<svg width="42" height="43" viewBox="0 0 42 43" fill="none" xmlns="http://www.w3.org/2000/svg">
<path d="M21 42.9345C32.598 42.9345 42 33.5275 42 21.9235C42 10.3195 32.598 0.912598 21 0.912598C9.40202 0.912598 0 10.3195 0 21.9235C0 33.5275 9.40202 42.9345 21 42.9345Z" fill="#FF0000"/>
<path d="M23.9146 21.9366L18.0898 25.3177V18.5389L23.9146 21.9366Z" fill="url(#paint0_linear_6753_8676)"/>
<path d="M41.6018 26.026C40.7916 30.094 38.7972 33.8314 35.8693 36.7682C32.9415 39.7049 29.211 41.7098 25.1472 42.5306L11.5801 28.9565C12.3118 29.5272 13.2137 29.8358 14.1415 29.8328H27.8855C28.9928 29.8299 30.0538 29.3875 30.8355 28.6028C31.6172 27.8181 32.0558 26.7552 32.0551 25.6472V18.2105C32.0584 17.1218 31.6359 16.075 30.878 15.2938L41.6018 26.026Z" fill="url(#paint1_linear_6753_8676)"/>
<path d="M27.8719 14.0192H14.1279C13.5787 14.0192 13.0348 14.1274 12.5274 14.3378C12.02 14.5482 11.559 14.8566 11.1708 15.2453C10.7825 15.634 10.4746 16.0954 10.2647 16.6032C10.0548 17.111 9.9469 17.6552 9.94727 18.2048V25.6415C9.9469 26.1911 10.0548 26.7353 10.2647 27.2431C10.4746 27.7509 10.7825 28.2123 11.1708 28.601C11.559 28.9897 12.02 29.2981 12.5274 29.5085C13.0348 29.7188 13.5787 29.8271 14.1279 29.8271H27.8719C28.4211 29.8271 28.965 29.7188 29.4724 29.5085C29.9798 29.2981 30.4408 28.9897 30.829 28.601C31.2173 28.2123 31.5252 27.7509 31.7351 27.2431C31.945 26.7353 32.0529 26.1911 32.0525 25.6415V18.2048C32.0529 17.6552 31.945 17.111 31.7351 16.6032C31.5252 16.0954 31.2173 15.634 30.829 15.2453C30.4408 14.8566 29.9798 14.5482 29.4724 14.3378C28.965 14.1274 28.4211 14.0192 27.8719 14.0192ZM18.0875 25.3125V18.5338L23.9123 21.9231L18.0875 25.3125Z" fill="white"/>
<defs>
<linearGradient id="paint0_linear_6753_8676" x1="17.0039" y1="19.6254" x2="21.6153" y2="24.2371" gradientUnits="userSpaceOnUse">
<stop stop-color="#B71C1C"/>
<stop offset="1" stop-color="#B71C1C" stop-opacity="0"/>
</linearGradient>
<linearGradient id="paint1_linear_6753_8676" x1="19.8088" y1="20.7124" x2="35.8711" y2="36.7636" gradientUnits="userSpaceOnUse">
<stop stop-color="#B71C1C"/>
<stop offset="1" stop-color="#B71C1C" stop-opacity="0"/>
</linearGradient>
</defs>
</svg>
